<svg width="538" height="638" viewBox="0 0 538 638" fill="none" xmlns="http://www.w3.org/2000/svg">
<g clip-path="url(#clip0_71_130)">
<path d="M0 0H538V638H0V0Z" fill="#FEFFFF"/>
<path d="M251.357 128.959C254.418 122.538 257.474 115.775 260.952 109.549C261.531 108.512 263.624 105.786 264.769 105.712C269.683 105.396 274.763 108.531 279.719 109.053C288.687 110.279 297.966 109.847 306.769 107.864C308.948 107.373 316.731 104.689 317.915 105.83C320.666 108.477 324.859 119.297 326.467 122.92C327.915 126.178 330.289 129.859 331.136 132.325C335.13 140.078 342.753 152.332 350.03 156.801C356.186 160.582 360.276 161.524 365.796 167.666C371.005 173.458 374.859 179.654 379.123 186.171C392.089 205.96 406.369 229.581 409.525 253.317C409.83 255.598 410.347 259.2 410.332 261.446C416.793 267.509 421.621 272.226 425.659 280.356C432.836 294.807 432.4 312.489 424.129 326.582C425.347 330.093 427.079 334.794 427.855 338.346C429.979 348.109 428.571 359.61 424.092 368.635C418.515 379.869 409.671 387.183 398.092 391.672C392.17 393.968 378.612 393.439 375.603 394.9C378.335 399.551 382.622 404.818 385.74 409.884C395.375 425.541 399.768 442.703 395.273 460.862C394.456 464.154 393.051 468.491 391.329 471.354C411.515 486.244 397.799 518.487 371.426 513.979C369.179 516.967 365.924 521.5 363.438 524.132C358.033 529.851 351.41 533.908 348.096 541.474C349.261 541.936 361.647 540.826 364.167 540.689C370.472 540.369 376.781 540.085 383.092 539.842C384.974 539.764 391.21 539.664 392.752 539.21C392.777 540.113 392.955 541.017 392.453 541.68C388.986 543.076 383.513 543.696 379.69 544.767C369.142 547.72 358.307 550.546 347.99 554.225C343.504 555.823 346.046 563.113 350.996 560.864C352.127 562.287 357.049 563.041 359.233 563.998C362.961 565.627 376.728 574.284 379.721 574.814C389.949 578.826 388.762 579.29 382.133 587.885C380.058 590.577 377.855 593.231 375.799 595.938C385.818 599.486 396.042 602.175 406.276 605.387C407.677 605.826 416.783 608.14 410.849 612.408C410.291 612.81 405.774 611.455 404.534 611.103L368.924 600.95C364.965 599.813 365.535 596.888 367.416 594.047C369.986 590.169 373.407 586.549 376.369 582.96C371.419 582.088 364.799 582.664 359.983 581.972C349.304 580.44 338.529 578.496 327.859 576.807C325.236 577.976 322.604 579.191 319.859 580.044C318.884 580.346 317.09 580.583 316.56 581.156C318.149 582.957 323.161 582.543 325.23 585.191C325.747 587.63 318.968 593.113 316.825 597.078C320.336 599.508 330.305 603.707 331.572 606.598C330.728 607.782 329.323 608.776 328.121 609.573C323.809 612.439 318.962 614.804 314.408 617.271C311.521 618.838 308.464 620.829 305.382 621.953C304.279 622.358 302.777 622.76 301.608 622.411C300.972 622.221 300.543 621.9 300.258 621.296C299.971 620.689 300.048 619.947 300.28 619.337C301.118 617.122 319.685 608.022 322.837 606.424C319.034 605.293 315.962 604.022 312.348 602.443C304.174 598.866 313.298 593.004 316.071 588.611L316.261 588.303C313.772 586.424 305.637 582.904 302.677 582.577C292.564 581.455 279.829 581.552 270.779 576.259C265.314 577.86 259.476 579.991 253.989 581.745C244.63 584.673 235.287 587.655 225.961 590.689C231.258 592.979 241.028 594.564 240.525 601.742C238.904 604.926 193.179 615.577 186.379 617.24C182.41 618.187 178.455 619.19 174.516 620.252C172.869 620.701 167.383 622.455 166.199 622.405C160.179 622.15 162.425 617.305 167.497 616.598C168.082 616.517 172.256 615.552 172.909 615.362C191.809 609.86 211.183 605.321 229.917 599.287C226.128 597.611 216.935 595.047 214.216 593.29C201.62 585.162 234.798 582.437 236.738 579.163C236.362 578.536 235.559 578.153 234.874 577.966C223.723 574.91 212.497 572.16 201.618 568.194C194.399 572.1 186.184 575.265 178.817 579.066C174.05 581.527 168.807 584.134 163.682 585.599C153.932 582.007 143.471 577.247 133.595 573.353C126.566 574.948 119.571 576.689 112.615 578.58C109.091 579.549 105.632 580.639 102.124 581.642C100.347 582.153 98.8608 582.244 97.6546 580.758C97.3888 579.402 97.4932 578.268 98.962 577.839C104.879 576.107 111.516 573.431 117.326 571.814C120.718 570.873 128.786 568.007 131.685 567.938C141.771 567.705 153.482 575.624 163.125 578.639L163.569 578.773C166.677 577.038 170.533 575.228 173.408 573.533C179.592 569.882 185.613 566.533 191.907 563.128C200.316 558.58 206.395 561.561 214.945 564.262C218.001 563.991 224.517 562.069 227.895 561.191C233.274 559.786 243.532 558.337 248.232 556.269C249.297 556.602 249.366 556.565 250.501 556.424C251.016 556.041 251.521 555.752 251.492 555.06C251.19 547.661 241.269 544.699 235.202 544.456C232.849 544.362 231.039 544.384 229.106 543.982C235.39 543.761 239.552 544.066 245.725 541.689C246.839 541.259 247.879 541.599 249.253 540.942C245.944 539.39 242.741 537.621 239.666 535.646C236.9 533.855 232.076 530.571 229.756 528.331C219.007 517.948 210.273 504.855 205.516 490.646C203.886 485.777 202.667 479.375 201.584 474.351C173.546 467.737 162.468 440.31 174.979 415.005C177.656 409.591 180.774 406.208 184.831 401.89C160.425 400.392 139.903 388.619 129.673 365.841C119.193 342.508 123.436 319.988 140.485 301.393C133.261 282.321 137.978 260.771 154.055 247.71C156.715 245.55 158.753 243.066 162.249 242.157C164.795 225.549 188.647 195.185 200.216 182.793C204.056 178.68 210.067 172.833 214.283 168.949C217.417 165.217 222.058 164.919 225.173 162.646C236.931 154.063 244.958 141.689 251.357 128.959Z" fill="#0C0B0B"/>
<path d="M251.357 128.959C254.418 122.538 257.474 115.775 260.952 109.549C261.531 108.512 263.624 105.786 264.769 105.712C269.683 105.396 274.763 108.531 279.719 109.053C288.687 110.279 297.966 109.847 306.769 107.864C308.948 107.373 316.731 104.689 317.915 105.83C320.666 108.477 324.859 119.297 326.467 122.92C327.915 126.178 330.289 129.859 331.136 132.325C327.183 133.762 327.959 137.814 328.843 141.104C333.139 148.525 340.582 159.465 348.08 163.283C359.703 169.202 362.634 173.285 369.503 184.533C383.871 205.833 399.699 230.729 403.22 256.711C399.989 255.293 396.883 253.836 393.547 252.716C389.759 251.463 385.485 250.756 381.943 248.876C374.977 245.176 368.715 240.232 361.88 236.284C360.404 235.429 358.843 234.65 357.407 233.822C343.538 225.823 326.663 225.722 311.66 230.329C306.662 231.864 301.495 233.901 296.491 235.517C278.106 241.396 267.385 235.26 251.709 226.74C247.133 224.252 239.931 220.823 234.905 219.717C228.248 218.251 218.689 218.879 212.126 220.706C208.216 221.794 203.293 224.109 199.388 225.664C190.097 229.363 180.925 233.611 171.367 236.575C175.452 226.482 181.4 218.778 187.567 210.083C196.169 197.955 203.352 189.245 213.801 178.783C214.67 177.957 215.533 177.289 216.466 176.543C216.703 173.531 217.093 170.466 214.283 168.949C217.417 165.217 222.058 164.919 225.173 162.646C236.931 154.063 244.958 141.689 251.357 128.959Z" fill="#4A934C"/>
<path d="M251.357 128.959C254.418 122.538 257.474 115.775 260.952 109.549C261.531 108.512 263.624 105.786 264.769 105.712C269.683 105.396 274.763 108.531 279.719 109.053C288.687 110.279 297.966 109.847 306.769 107.864C308.948 107.373 316.731 104.689 317.915 105.83C320.666 108.477 324.859 119.297 326.467 122.92C327.915 126.178 330.289 129.859 331.136 132.325C327.183 133.762 327.959 137.814 328.843 141.104C333.139 148.525 340.582 159.465 348.08 163.283C359.703 169.202 362.634 173.285 369.503 184.533C362.267 188.044 350.236 183.509 342.846 183.795C337.619 183.998 330.756 189.928 324.753 190.485C318.582 191.057 310.379 188.503 305.377 185.035C302.592 186.038 298.041 187.808 295.745 189.379C288.184 194.553 283.576 197.695 273.943 196.524C267.817 195.779 263.175 194.474 258.027 190.471C255.109 188.202 252.399 184.044 248.881 182.808C246.991 182.359 242.592 184.563 239.868 184.96C234.16 185.791 227.893 186.365 222.159 185.663C217.897 185.141 216.1 181.958 213.801 178.783C214.67 177.957 215.533 177.289 216.466 176.543C216.703 173.531 217.093 170.466 214.283 168.949C217.417 165.217 222.058 164.919 225.173 162.646C236.931 154.063 244.958 141.689 251.357 128.959Z" fill="#8B6851"/>
<path d="M251.357 128.959C254.418 122.538 257.474 115.775 260.953 109.549C261.532 108.512 263.624 105.786 264.77 105.712C269.683 105.396 274.764 108.531 279.719 109.053C288.687 110.279 297.966 109.847 306.769 107.864C308.949 107.373 316.732 104.689 317.915 105.83C320.666 108.477 324.859 119.297 326.467 122.92C327.915 126.178 330.289 129.859 331.136 132.325C327.183 133.762 327.959 137.814 328.844 141.104C324.492 142.017 314.302 138.005 309.886 136.353C306.711 137.825 303.991 139.894 300.928 141.576C298.382 142.973 296.177 143.628 293.835 145.432C286.161 141.714 281.495 138.241 276.75 130.793C272.068 136.625 263.538 139.503 256.365 140.506C255.229 139.713 254.677 139.119 253.702 138.158C250.851 134.581 254.021 131.049 251.357 128.959Z" fill="#A8492A"/>
<path d="M266.237 112.217C279.55 117.725 301.464 117.352 314.841 112.257C316.716 117.58 322.442 129.712 325.105 134.844C319.09 134.12 313.987 131.511 308.485 129.18C307.624 128.98 305.994 128.757 305.321 129.257C300.228 133.041 300.409 136.251 293.998 138.926C284.718 136.489 285.75 129.485 277.679 126.352C273.144 124.592 260.459 136.942 257.787 132.648C257.745 131.85 257.822 130.949 258.188 130.234C261.201 124.342 263.685 118.316 266.237 112.217Z" fill="#F5A73E"/>
<path d="M251.357 128.959C254.02 131.049 250.851 134.581 253.701 138.158C248.824 145.752 243.496 155.671 236.848 161.75C230.169 167.857 224.841 173.221 216.466 176.543C216.703 173.531 217.093 170.466 214.283 168.949C217.417 165.217 222.058 164.919 225.173 162.646C236.931 154.063 244.958 141.689 251.357 128.959Z" fill="#4D3222"/>
<path d="M268.092 144.372C269.736 145.181 270.514 147.144 271.337 148.761C268.167 157.825 263.37 172.146 254.01 176.372C248.74 176.788 251.82 171.998 253.588 169.984C258.348 164.56 261.889 158.679 263.78 151.646C264.637 148.459 265.617 146.56 268.092 144.372Z" fill="#4D3222"/>
<path d="M311.663 147.131C313.401 147.2 314.149 148.252 315.314 149.452C316.168 153.496 317.158 156.296 318.925 160.005C320.71 163.749 326.314 169.659 326.803 173.215C326.604 174.345 326.18 174.575 325.314 175.433C324.205 175.474 323.261 175.499 322.311 174.692C316.626 169.862 311.632 159.578 310.188 152.274C309.744 150.023 310.451 148.757 311.663 147.131Z" fill="#4D3222"/>
<path d="M249.253 540.942C257.479 544.512 260.201 545.817 268.85 548.418C265.394 552.016 260.296 557.194 260.314 562.583C260.325 565.926 262.766 568.935 264.705 571.487C260.426 573.726 251.556 576.642 246.733 577.487C246.19 576.705 244.863 574.758 244.144 574.362C236.153 569.988 222.818 569.06 214.945 564.262C218.001 563.991 224.517 562.069 227.895 561.191C233.274 559.786 243.532 558.337 248.232 556.269C249.297 556.602 249.366 556.565 250.501 556.424C251.016 556.041 251.521 555.752 251.492 555.06C251.19 547.661 241.269 544.699 235.202 544.456C232.849 544.362 231.039 544.384 229.106 543.982C235.39 543.761 239.552 544.066 245.725 541.689C246.839 541.259 247.879 541.599 249.253 540.942Z" fill="#636263"/>
<path d="M392.752 539.21C392.777 540.113 392.955 541.017 392.453 541.68C388.986 543.076 383.513 543.696 379.69 544.767C369.142 547.721 358.307 550.546 347.99 554.225C343.504 555.823 346.046 563.113 350.996 560.864C352.127 562.287 357.049 563.041 359.233 563.998C362.962 565.627 376.728 574.284 379.721 574.814C379.581 574.907 379.444 575.01 379.301 575.1C376.042 577.197 339.015 573.001 333.102 571.521C333.681 570.577 335.775 567.839 336.532 566.792C338.619 563.91 339.94 560.836 341.547 557.96C343.713 554.094 345.968 544.225 348.096 541.474C349.261 541.936 361.647 540.827 364.167 540.689C370.472 540.369 376.781 540.085 383.092 539.842C384.974 539.764 391.21 539.665 392.752 539.21Z" fill="#636263"/>
<path d="M222.026 225.965C228.991 225.173 235.186 226.238 241.414 229.401C254.281 235.936 265.08 243.521 279.932 244.654C297.384 245.985 311.276 235.691 328.392 234.518C345.762 233.329 358.834 241.661 372.083 251.573C375.095 253.658 379.563 255.961 383.105 256.806C411.357 263.549 431.475 288.328 421.039 317.717C419.761 321.312 418.213 323.09 415.73 325.878C416.447 328.368 417.923 331.053 418.914 333.483C425.565 349.822 420.428 368.644 406.291 379.196C396.226 386.71 386.986 387.887 375.033 386.267C373.011 387.669 371.538 389.688 369.746 391.323C358.553 401.541 348.124 403.815 333.868 403.725C328.239 403.557 323.644 402.831 318.239 401.551C314.722 400.716 306.848 397.513 303.707 397.828C296.976 398.504 291.051 402.529 283.48 403.579C265.783 406.03 246.74 403.13 230.258 396.398C225.175 394.323 220.935 391.498 216.188 389.42L215.804 389.252C214.174 389.921 212.539 390.579 210.9 391.22C195.772 397.09 177.298 395.856 162.604 389.463C133.694 376.881 121.204 339.149 140.083 313.013C142.625 309.492 146.66 305.919 148.275 302.06C142.022 288.849 142.81 272.225 151.857 260.421C163.298 245.494 179.923 241.695 196.374 235.036C205.883 231.188 211.318 227.408 222.026 225.965Z" fill="#FEFFFF"/>
<path d="M325.868 373.582C311.411 364.087 306.725 345.046 315.127 329.928C323.529 314.81 342.17 308.735 357.868 316C373.566 323.265 380.999 341.408 374.908 357.598C368.821 373.788 351.273 382.538 334.681 377.66C331.314 378.946 328.096 375.781 325.868 373.582Z" fill="#F4BAB1"/>
<path d="M325.869 373.582C328.588 375.367 331.557 376.741 334.682 377.66C331.314 378.946 328.096 375.781 325.869 373.582Z" fill="#D7CDC9"/>
<path d="M172.467 308.85C172.714 308.756 173.379 308.634 173.672 308.57C175.477 309.614 176.466 309.582 178.357 309.267C202.038 305.329 222.381 327.399 213.682 350.775C209.911 360.909 203.253 366.688 193.163 370.482C190.136 371.355 187.019 371.878 183.874 372.04C153.229 373.828 141.153 340.676 159.291 318.302C161.173 315.978 169.88 309.297 172.628 309.201L172.467 308.85Z" fill="#F4BAB1"/>
<path d="M249.074 331.523C253.325 331.293 253.757 331.339 257.713 332.61C264.998 334.95 262.925 342.507 255.899 339.124C253.051 337.754 248.857 336.149 247.244 340.087C243.963 348.099 262.098 347.377 252.721 355.479C250.152 357.691 246.297 363.688 251.503 365.283C253.611 365.906 255.555 365.806 257.472 364.679C258.548 363.772 259.852 362.7 261.337 363.308C261.906 363.532 262.353 363.987 262.568 364.56C264.76 370.429 253.469 374.261 247.3 370.448C244.985 369.037 243.368 366.719 242.843 364.059C241.973 359.613 244.207 355.52 246.537 351.962C237.86 346.196 237.797 334.769 249.074 331.523Z" fill="#0C0B0B"/>
<path d="M287.239 323.343C288.34 323.492 288.9 323.863 289.741 324.539C290.106 325.349 290.367 325.863 289.743 326.804C288.565 328.576 286.723 330.548 285.258 332.128C282.202 335.42 279.653 342.822 279.088 347.196C278.17 354.296 280.017 364.367 284.302 370.261C286.165 372.591 288.379 374.573 290.232 376.922C292.243 379.467 290.296 380.414 288.194 381.694C288.066 381.685 287.479 381.651 287.373 381.588C270.153 371.56 267.236 340.782 281.614 327.162C283.072 325.782 285.415 324.374 287.239 323.343Z" fill="#0C0B0B"/>
<path d="M303.303 297.747C309.292 296.94 314.797 301.149 315.591 307.14C316.386 313.131 312.168 318.629 306.175 319.411C300.2 320.19 294.721 315.984 293.929 310.012C293.137 304.038 297.331 298.551 303.303 297.747Z" fill="#0C0B0B"/>
<path d="M221.137 295.435C226.88 293.85 232.815 297.247 234.357 303.003C235.899 308.758 232.456 314.667 226.689 316.165C220.984 317.645 215.152 314.249 213.627 308.555C212.103 302.862 215.455 297.004 221.137 295.435Z" fill="#0C0B0B"/>
<path d="M220.083 273.102C221.854 273.411 223.086 274.814 224.268 276.106C229.647 281.985 236.227 286.145 242.275 291.24C242.867 293.203 241.502 294.273 240.026 295.317C239.612 295.29 239.198 295.252 238.786 295.205C233.94 294.637 222.177 283.798 218.47 279.819C216.067 277.239 217.459 274.789 220.083 273.102Z" fill="#0C0B0B"/>
<path d="M308.022 278.174C309.397 278.193 310.099 278.58 310.605 279.875C311.657 282.568 308.374 285.597 306.327 287.03C301.432 290.456 295.002 294.779 289.286 296.417C287.401 295.887 284.868 294.367 285.903 292.492C287.27 290.017 294.522 286.979 296.906 285.374C300.684 282.833 304.149 280.032 308.022 278.174Z" fill="#0C0B0B"/>
<path d="M258.268 313.757C266.027 313.47 273.129 319.717 263.234 323.215C257.816 323.794 255.203 323.137 253.343 317.773C254.79 315.446 255.856 314.748 258.268 313.757Z" fill="#0C0B0B"/>
<path d="M330.918 420.055C339.214 419.108 345.881 420.136 353.507 423.466C364.018 428.055 362.276 429.79 365.475 439.304C373.644 463.603 378.329 492.581 361.958 514.721C358.335 521.213 346.161 528.708 343.251 534.77C334.03 553.976 332.507 574.527 305.463 575.029C294.315 575.234 272.166 575.714 267.397 561.873C269.828 556.462 272.215 555.119 276.29 550.935C277.274 543.967 278.454 537.085 279.909 530.2C279.996 529.063 281.296 524.792 279.699 524.257C272.847 521.957 265.748 520.01 259.049 516.979C255.761 515.49 252.262 518.767 253.726 520.577C256.997 524.618 268.006 528.288 273.026 529.802C272.211 533.316 271.529 538.764 270.843 542.587C260.471 539.671 246.039 533.175 237.568 526.366C234.708 524.067 231.694 520.596 229.248 517.799C216.848 502.475 213.037 495.207 208.75 475.653C224.901 477.833 240.285 474.512 255.076 468.139C274.986 476.871 296.124 483.101 318.28 479.584C334.871 476.709 351.198 467.821 359.242 452.531C361.563 448.12 357.136 443.996 354.578 448.17C334.756 480.553 293.915 477.425 263.832 464.092C267.861 461.637 272.133 459.578 276.119 457.052C281.736 453.497 313.918 430.927 315.747 427.357C316.04 426.79 316.012 426.672 315.809 426.111C314.828 425.323 313.566 425.08 312.33 424.712C317.884 422.504 325.021 420.762 330.918 420.055Z" fill="#FEFFFF"/>
<path d="M202.019 400.685C203.06 401.002 209.035 407.688 210.295 409.037C206.119 412.974 204.823 413.575 201.81 418.955C198.347 425.139 204.815 433.999 210.867 434.176C225.106 434.198 239.164 426.613 252.775 422.569C273.934 416.286 286.195 418.597 305.73 426.84C303.178 429.423 298.704 432.482 295.661 434.675L280.549 445.463C255.648 463.531 221.713 479.139 191.779 462.668C166.524 448.771 175.893 406.99 202.019 400.685Z" fill="#FEFFFF"/>
<path d="M369.538 400.526C381.884 414.787 390.893 429.345 389.865 449.276C389.578 454.821 387.815 463.273 385.762 468.509C383.659 468.559 381.432 468.656 379.342 468.615C378.747 459.457 374.021 442.572 370.818 433.852C372.317 435.039 378.943 440.868 380.095 440.902C383.6 436.204 364.37 421.75 360.479 419.454C342.844 409.046 324.666 412.021 306.822 419.413C302.108 417.591 297.214 415.669 292.399 414.161C287.15 412.719 280.431 412.273 274.961 411.899C283.54 410.812 291.861 409.494 299.953 406.295C303.702 404.815 305.813 405.476 309.588 406.554C314.657 408.002 319.579 409.342 324.756 410.36C337.784 411.797 347.068 411.793 359.448 406.357C362.504 405.018 365.504 403.809 368.167 401.675C368.634 401.301 369.089 400.918 369.538 400.526Z" fill="#5FA35F"/>
<path d="M274.961 411.899C283.54 410.812 291.861 409.494 299.953 406.295C303.702 404.815 305.813 405.476 309.588 406.554C314.657 408.002 319.579 409.342 324.756 410.361C319.856 411.868 294.903 412.641 292.399 414.161C287.15 412.719 280.431 412.273 274.961 411.899Z" fill="#B1D07F"/>
<path d="M366.728 408.227C368.572 407.769 371.376 408.077 372.874 409.292C371.441 409.395 368.017 408.862 366.728 408.227Z" fill="#4A934C"/>
<path d="M224.381 410.681C232.206 409.806 243.126 412.174 249.861 416.329C244.338 418.504 235.598 421.591 230.023 423.385L223.789 425.208C220.327 426.205 210.508 429.064 207.687 424.669C206.9 423.441 208.216 420.557 209.048 419.407C212.853 414.149 218.212 411.884 224.381 410.681Z" fill="#FEFFFF"/>
<path d="M380.042 475.432C381.263 475.503 382.485 475.622 383.696 475.777C393.933 477.195 396.213 491.749 391.341 499.085C389.569 501.749 388.569 502.693 385.977 504.546C381.379 507.163 379.989 507.55 374.746 507.568C379.176 496.481 379.659 487.026 380.042 475.432Z" fill="#FEFFFF"/>
<path d="M212.389 397.548C217.397 397.062 223.303 401.074 227.882 403.569L223.436 404.298C221.167 404.451 218.922 404.859 216.745 405.516C214.244 403.523 211.73 401.569 209.364 399.417C210.427 398.629 211.249 398.186 212.389 397.548Z" fill="#4A934C"/>
<path d="M252.501 409.725C254.915 410.024 262.265 410.323 263.726 411.488L263.53 411.993L262.066 412.579L257.185 414.473C255.712 411.734 255.115 411.47 252.501 409.725Z" fill="#729278"/>
<path d="M262.236 47.0506C263.419 45.0108 264.51 43.0413 266.121 41.2868C271.499 35.4314 279.673 32.3371 287.463 31.9168C292.898 31.6234 301.401 34.1308 305.467 37.7897C307.699 39.7974 309.921 42.3874 312.252 44.5407C324.865 39.2249 337.94 45.0014 343.756 57.2477C353.497 77.7665 334.351 93.1804 314.068 85.6805C311.406 89.8057 307.348 104.508 302.753 104.282C301.181 103.587 300.846 102.886 300.161 101.293C299.018 100.711 293.68 101.472 292.223 101.692C291.664 102.085 291.741 101.914 291.438 102.447C289.619 104.621 286.393 103.742 284.715 101.673C283.202 101.438 280.89 101.044 279.487 101.6C277.871 107.358 272.705 102.97 271.883 98.2121C271.172 94.0932 269.175 88.7213 266.254 85.7661C255.948 88.1742 247.287 88.2026 239.352 79.9313C233.961 74.3121 233.089 67.1722 235.257 59.9047C236.987 54.1054 242.095 49.5721 247.777 47.7805C252.565 46.1996 257.313 46.7597 262.236 47.0506Z" fill="#D0B1A3"/>
<path d="M240.661 64.6829C241.944 55.2188 247.922 52.7257 256.803 52.9886C258.584 53.0412 263.968 54.74 265.277 53.6596C267.256 52.0266 268.266 47.3076 270.156 45.2451C271.765 43.579 274.133 41.6161 276.281 40.7062C290.916 34.5065 302.15 38.6791 309.051 52.2341C311.431 51.1494 313.663 50.198 316.109 49.2724C326.473 45.3485 337.576 54.6322 340.454 64.4025C334.993 65.1199 334.563 65.861 329.691 67.6243C325.037 69.3099 316.003 66.4159 311.785 64.2143C305.21 68.4043 301.878 69.6161 293.904 69.8436C283.965 70.1267 278.302 64.8729 267.903 64.9196C263.434 67.4704 260.079 70.6027 254.644 70.646C249.434 70.6878 244.942 69.9607 241.017 66.3056C240.846 65.6713 240.756 65.3302 240.661 64.6829Z" fill="#D7CDC9"/>
<path d="M280.513 62.9539C281.809 62.8844 284.401 62.6542 285.379 63.3673L285.346 63.8162L284.659 64.3109C283.149 64.4853 281.394 64.8679 280.268 63.7514L280.513 62.9539Z" fill="#D0B1A3"/>
<path d="M262.236 47.0506C263.419 45.0108 264.51 43.0413 266.121 41.2868C271.499 35.4314 279.673 32.3371 287.463 31.9168C292.898 31.6234 301.401 34.1308 305.467 37.7897C307.699 39.7974 309.921 42.3874 312.252 44.5407C324.865 39.2249 337.94 45.0014 343.756 57.2477C353.497 77.7665 334.351 93.1804 314.068 85.6805C311.406 89.8057 307.348 104.508 302.753 104.282C301.181 103.587 300.846 102.886 300.161 101.293C300.91 100.17 301.387 98.4065 301.972 97.186C305.076 90.7113 306.459 81.7755 313.308 78.4176C318.426 79.9033 320.809 81.9571 326.784 81.4618C336.392 80.6649 340.856 73.7301 340.454 64.4025C337.575 54.6322 326.473 45.3485 316.108 49.2724C313.663 50.198 311.431 51.1493 309.051 52.2341C302.15 38.6791 290.916 34.5065 276.281 40.7061C274.133 41.6161 271.764 43.579 270.156 45.245C268.266 47.3076 267.255 52.0266 265.277 53.6596C263.968 54.74 258.584 53.0412 256.803 52.9886C247.922 52.7257 241.944 55.2188 240.661 64.6829C240.393 68.8738 240.914 72.7164 243.793 75.7675C247.127 79.2995 251.381 80.6148 256.141 80.9575C260.186 81.2484 264.93 79.2217 268.98 79.388C273.372 81.7226 276.637 93.2215 278.302 97.5701C278.998 99.3884 278.962 100.651 279.487 101.6C277.871 107.358 272.705 102.97 271.883 98.2121C271.172 94.0932 269.175 88.7213 266.254 85.7661C255.948 88.1742 247.287 88.2026 239.352 79.9313C233.961 74.3121 233.089 67.1722 235.257 59.9047C236.987 54.1054 242.095 49.5721 247.777 47.7805C252.565 46.1996 257.313 46.7597 262.236 47.0506Z" fill="#8B6851"/>
<path d="M284.715 101.673L284.7 101.345C284.424 96.2969 279.385 78.9129 282.321 75.6002C282.795 75.0659 283.296 74.789 284.009 74.7124C284.799 74.6276 285.663 74.9843 286.205 75.5491C287.629 77.0307 290.853 98.9436 291.438 102.447C289.619 104.621 286.393 103.742 284.715 101.673Z" fill="#8B6851"/>
<path d="M57.4242 359.894C67.1509 359.177 76.0112 363.7 79.3074 373.386C80.0526 375.576 79.4252 377.641 77.037 378.289C74.7483 377.666 72.8215 373.227 71.029 371.211C65.4095 365.535 56.841 364.457 50.4374 369.529C45.2321 373.654 49.8797 384.442 47.4016 385.221C43.5705 386.426 39.1185 383.853 34.2291 388.283C31.4809 390.775 29.8614 394.273 29.7422 397.977C29.5442 402.943 31.7827 406.803 35.8073 409.563C38.2468 411.236 39.4615 410.865 42.372 410.915C43.7253 412.105 43.9595 412.404 45.0243 413.831C43.1683 418.049 41.2462 422.03 41.9543 426.918C43.168 435.295 51.8968 439.472 59.3784 436.046C62.0737 434.812 64.3076 430.731 67.2443 430.089C68.5671 429.8 70.9645 433.974 72.2876 434.666C79.4545 439.818 84.8469 439.058 90.1593 432.276C92.5911 428.071 93.4745 424.068 92.9232 419.22C92.7546 417.74 92.4546 416.314 92.7873 414.887C93.4119 414.086 93.6101 414.049 94.4973 413.607C97.0817 413.607 98.5739 416.56 99.1748 418.793C101.698 428.177 95.5318 440.447 86.032 443.167C78.5423 445.31 72.424 442.394 66.1032 438.949C63.2852 440.666 60.2796 443.232 56.8828 443.609C46.8966 444.718 37.8942 438.762 35.7033 428.796C34.7413 424.423 35.3036 421.501 36.2665 417.226C34.636 416.51 33.0924 415.613 31.6656 414.547C17.0576 403.653 22.351 381.806 40.7013 379.165C40.9459 368.433 46.6066 361.33 57.4242 359.894Z" fill="#828F93"/>
<path d="M392.753 539.21L392.553 538.904C390.232 535.384 386.077 532.892 387.943 528.278C391.192 526.702 396.061 526.132 399.696 525.736C409.301 524.686 418.727 522.898 428.26 521.415C430.702 521.032 434.422 520.914 433.599 524.587C432.247 526.291 430.204 526.683 428.176 527.16C417.338 529.708 405.974 530.752 395.12 533.057C397.273 536.761 400.918 542.907 405.129 544.241C411.475 546.247 418.042 547.736 424.375 549.851C429.182 551.415 435.493 548.895 440.238 547.945C446.537 546.484 452.792 544.739 459.116 543.369C461.861 542.789 470.048 540.543 471.848 543.185C471.789 544.397 471.153 545.182 470.275 545.982C469.182 546.979 467.773 547.773 466.39 548.284C460.309 550.534 431.979 557.499 426.307 557.06C423.434 556.836 420.874 555.861 418.12 555.1L404.319 551.368C401.566 550.599 398.756 549.577 395.933 549.104C390.049 548.116 357.027 557.347 350.996 560.864C346.046 563.113 343.504 555.823 347.99 554.225C358.307 550.546 369.142 547.72 379.69 544.767C383.513 543.696 388.986 543.076 392.453 541.68C392.955 541.017 392.777 540.113 392.753 539.21Z" fill="#0C0B0B"/>
<path d="M242.007 550.96C235.626 551.094 226.614 550.312 219.953 550.079L191.337 549.132C186.748 549.001 180.689 549.001 176.041 548.425C175.324 548.337 174.748 547.512 174.406 546.87C171.509 541.446 188.16 537.549 189.371 533.895C186.693 531.733 165.099 529.901 163.024 526.908C162.426 526.045 162.498 525.241 162.674 524.26C164.849 522.101 188.824 528.319 193.106 528.786C195.302 529.029 199.973 530.758 200.272 533.437C198.991 537.979 188.082 539.415 188.602 542.655C190.04 543.468 224.754 543.898 229.106 543.982C231.039 544.384 232.849 544.362 235.202 544.456C241.269 544.699 251.19 547.661 251.492 555.06C251.521 555.752 251.016 556.041 250.501 556.424C249.366 556.565 249.297 556.602 248.232 556.269C245.705 554.664 244.058 553.104 242.007 550.96Z" fill="#0C0B0B"/>
<path d="M112.581 375.407C114.884 375.074 116.885 375.093 117.389 377.784C117.142 378.688 116.678 379.588 115.89 380.102C104.96 387.242 86.6827 393.034 73.9947 392.532C71.9006 392.08 68.0776 389.949 69.1714 387.445C70.7308 383.875 77.9691 386.308 81.1659 385.579C91.5524 383.211 103.05 379.828 112.581 375.407Z" fill="#828F93"/>
<path d="M461.783 245.926C465.222 246.018 480.016 247.573 475.642 254.925C474.699 256.513 470.132 255.017 468.602 254.427C461.238 251.585 456.16 252.848 450.774 258.498C448.3 261.416 445.817 269.247 441.297 264.791C438.711 262.241 442.104 257.683 443.892 255.56C448.59 249.984 454.478 246.555 461.783 245.926Z" fill="#0C0B0B"/>
<path d="M116.634 387.523C117.195 387.52 117.756 387.566 118.309 387.663C119.335 387.84 120.108 388.136 120.721 388.981C120.838 389.538 120.894 389.921 120.678 390.467C118.739 395.358 89.67 409.519 83.4753 412.043C81.9386 412.295 80.999 412.594 79.7769 411.532C77.2533 406.734 87.646 403.199 90.9709 401.404L116.634 387.523Z" fill="#828F93"/>
<path d="M433.942 218.058C443.384 221.241 446.78 239.017 441.191 246.734C437.936 251.232 436.799 253.762 431.447 256.011C431.266 255.976 431.085 255.936 430.905 255.892C429.603 255.569 429.048 255.224 428.391 254.122C427.762 250.751 431.992 247.689 434.064 244.679C435.366 242.749 436.313 240.604 436.867 238.343C439.378 228.163 425.07 222.164 433.942 218.058Z" fill="#0C0B0B"/>
<path d="M448.907 211.544C454.842 210.878 453.39 217.083 455.219 221.145C456.041 223.514 456.664 224.587 458.188 226.687C462.496 232.628 472.116 227.581 476.521 231.003C477.876 232.056 476.692 234.723 474.876 236.024C467.889 238.5 458.789 237.608 453.428 231.859C449.864 228.039 444.431 215.645 448.907 211.544Z" fill="#0C0B0B"/>
</g>
<defs>
<clipPath id="clip0_71_130">
<rect width="538" height="638" fill="white"/>
</clipPath>
</defs>
</svg>
