<svg width="495" height="581" viewBox="0 0 495 581" fill="none" xmlns="http://www.w3.org/2000/svg">
<g clip-path="url(#clip0_71_175)">
<path d="M0 0H495V581H0V0Z" fill="white"/>
<path d="M334.489 117.002C338.353 116.879 343.144 117.242 346.131 119.805C360.286 131.945 373.973 165.91 376.801 183.233C380.259 181.871 382.043 181.595 385.655 181.062C387.118 181.98 388.188 182.053 389.771 182.633C393.572 184.026 396.797 187.976 398.754 191.466C403.551 200.015 406.24 208.439 409.06 217.727C414.07 234.236 418.342 250.721 417.984 268.121C417.922 271.236 417.715 275.12 416.952 278.095C422.049 284.942 426.724 291.935 428.985 300.418C431.586 310.18 430.865 321.635 427.581 331.198C426.551 334.191 423.306 339.383 421.592 342.186C421.924 344.963 422.71 347.794 423.016 350.776C424.398 365.465 419.896 380.101 410.495 391.471C409.63 392.527 403.636 397.687 403.648 398.311C403.699 401.582 404.927 405.333 405.287 408.737C408.47 438.783 373.202 450.193 349.745 454.023C343.184 455.092 336.549 455.481 330.022 456.057L329.074 464.479C326.169 488.843 313.671 513.391 293.982 528.185C283.632 535.958 270.744 542.367 258.712 547.164C255.917 548.534 250.692 549.456 248.162 550.795C225.843 562.605 205.607 565.042 188.772 542.554C180.894 532.029 177.029 521.467 178.784 507.757C177.576 507.666 176.109 507.615 174.957 507.325C163.083 503.964 154.979 501.569 142.426 503.895C137.734 504.766 130.309 506.304 125.756 506.364C118.327 506.46 111.256 504.057 105.987 498.664C95.5363 487.708 89.6857 472.454 89.5501 457.308C89.4548 446.635 94.7843 435.617 106.861 435.415C111.029 435.347 115.621 438.238 118.512 441.168C124.925 437.898 133.328 435.767 140.484 435.41C141.436 422.093 143.802 415.591 149.645 403.883C146.774 401.27 143.663 399.063 140.653 396.445C122.865 380.975 105.426 354.424 123.523 332.461C127.125 328.089 131.902 325.848 136.855 323.38C130.687 317.837 125.315 310.639 122.968 302.605C119.636 290.426 121.393 277.246 127.5 266.209C131.175 259.566 137.316 255.144 141.073 248.844C141.927 247.411 142.045 241.368 142.446 239.28C145.339 224.211 156.342 210.368 170.195 203.879C173.569 202.309 177.654 201.206 181.201 200.121C185.203 187.092 201.492 173.952 211.841 165.265C224.179 154.907 237.626 144.75 251.542 136.606C258.777 132.373 267.874 127.602 276.399 129.963C283.197 131.749 285.934 136.831 289.196 142.531C291.917 140.986 295.729 137.071 298.379 134.962C307.331 127.836 323.08 118.432 334.489 117.002Z" fill="#161516"/>
<path d="M240.701 202.398C259.24 201.495 275.46 216.75 289.42 227.002C297.034 232.944 310.664 238.581 320.61 237.675C337.933 236.097 353.141 232.083 368.768 243.619C375.763 248.782 381.085 256.091 387.62 261.593C405.066 276.281 426.33 290.823 423.652 316.929C422.58 328.657 420.631 331.604 413.494 341.04C417.652 351.167 416.957 361.69 413.675 371.908C407.883 389.937 391.887 402.235 372.68 401.131C367.364 400.825 362.902 398.776 357.861 398.791C355.85 398.796 352.553 401.211 350.554 402.164C339.808 407.287 329.378 407.16 318.309 403.534C312.897 401.596 307.067 398.751 302.313 395.46C295.38 390.66 288.955 393.764 281.144 394.07C258.077 394.972 234.579 385.46 217.417 370.243C211.278 364.799 208.48 364.529 200.422 363.854C192.377 362.345 183.707 359.153 176.999 354.39C172.254 351.017 167.25 344.379 164.19 339.372C162.192 336.103 161.033 332.483 158.229 329.632C155.404 326.759 151.726 325.777 148.287 323.879C124.469 309.241 120.601 280.38 140.362 260.453C142.998 257.795 147.263 254.687 147.639 250.865C147.955 247.663 148.219 244.446 148.624 241.264C151.286 220.356 173.692 204.294 194.182 205.761C199.988 206.186 206.021 207.858 211.895 207.333C221.796 206.2 230.632 202.892 240.701 202.398Z" fill="white"/>
<path d="M225.576 287.754C225.817 287.762 226.058 287.771 226.298 287.788C230.942 288.097 238.017 293.919 242.241 296.568C245.076 298.336 247.997 299.961 250.993 301.439C266.881 309.275 287.432 315.607 304.835 318.398C323.188 321.343 339.666 316.154 328.689 342.325C323.821 353.925 319.441 359.775 309.263 367.448C300.032 373.715 290.757 377.284 279.505 377.463C239.881 378.016 203.05 345.777 214.396 303.95C215.978 298.117 218.738 289.32 225.576 287.754Z" fill="#161516"/>
<path d="M222.708 339.567C221.495 336.685 219.776 332.58 219.254 329.59C217.466 319.238 217.874 308.591 221.711 298.73C222.801 295.927 225.632 292.404 228.776 294.327C236.891 299.294 244.397 304.446 253.145 308.404C269.531 315.771 286.816 320.949 304.551 323.805C311.949 324.946 319.339 325.034 326.638 326.603C326.751 341.434 314.885 358.895 302.117 365.724C301.786 365.905 301.451 366.084 301.116 366.26C288.084 373.154 271.287 373.159 257.479 368.742C241.919 363.763 230.313 353.987 222.708 339.567Z" fill="#B75755"/>
<path d="M222.708 339.567C224.07 338.245 232.496 336.041 234.766 335.754C250.435 333.777 270.912 338.557 283.639 347.916C286.49 350.013 300.725 363.687 302.117 365.724C301.786 365.905 301.451 366.084 301.116 366.26C288.084 373.154 271.287 373.159 257.479 368.742C241.919 363.763 230.313 353.987 222.708 339.567Z" fill="#F09A88"/>
<path d="M355.665 324.92C356.136 323.479 356.953 320.316 358.57 319.856C364.502 318.316 372.498 321.286 378.092 323.232C387.89 326.645 398.987 336.869 394.474 348.197C392.474 353.21 388.318 355.119 383.357 356.282C382.038 362.194 380.245 366.932 375.786 371.27C365.897 380.762 349.89 379.65 340.549 369.831C331.542 360.365 332.668 344.952 342.177 336.234C347.635 331.232 353.209 330.16 360.479 330.486C359.007 327.805 357.98 327.017 355.665 324.92Z" fill="#F09A88"/>
<path d="M355.665 324.92C356.136 323.479 356.953 320.316 358.57 319.856C364.502 318.316 372.498 321.286 378.092 323.232C387.89 326.645 398.987 336.869 394.474 348.197C392.474 353.21 388.318 355.119 383.357 356.282C381.431 355.758 377.97 355.729 375.925 355.08C366.771 352.183 364.323 337.715 360.678 330.849L360.479 330.486C359.007 327.805 357.98 327.017 355.665 324.92Z" fill="#7092A3"/>
<path d="M363.259 325.38C372.308 325.193 398.743 337.125 388.596 348.316C383.714 351.984 378.801 351.874 374.628 347.374C371.156 343.63 365.5 332.971 365.602 327.942C364.55 326.934 364.178 326.517 363.259 325.38Z" fill="#B1DCEA"/>
<path d="M380.688 338.447C382.886 338.353 385.363 337.899 386.565 340.16C386.75 342.03 386.092 342.552 384.94 344.058C382.438 344.251 379.437 342.963 379.204 340.183C379.428 339.275 379.936 339.031 380.688 338.447Z" fill="white"/>
<path d="M183.453 271.014C196.624 270.663 207.572 281.085 207.869 294.259C208.167 307.431 197.701 318.339 184.527 318.583C171.43 318.824 160.601 308.429 160.305 295.334C160.009 282.235 170.358 271.363 183.453 271.014Z" fill="#F09A88"/>
<path d="M347.915 280.597C350.832 280.178 353.447 282.477 352.159 283.95C347.26 289.555 335.411 289.913 328.737 293.059L328.374 293.232C332.47 293.839 349.771 298.761 352.224 301.38C353.056 304.557 348.483 305.144 346.474 304.543C340.177 302.662 332.85 300.883 326.774 298.531C329.539 301.337 331.948 303.74 334.484 306.756C336.614 309.295 344.56 315.848 340.313 318.79C339.655 319.246 338.841 319.417 338.055 319.261C337.125 319.068 336.487 318.353 335.831 317.715C332.748 314.722 330.169 311.246 327.228 308.117C324.031 304.713 316.479 298.214 314.4 294.486C314.017 293.799 313.904 292.951 314.241 292.216C315.62 289.221 342.997 281.887 347.915 280.597Z" fill="#161516"/>
<path d="M234.314 243.648C234.736 243.63 235.166 243.612 235.586 243.656C237.246 243.83 238.152 244.807 239.12 246.052C242.027 249.788 256.776 272.273 256.355 275.133C256.183 276.305 255.299 277.2 254.372 277.855C249.23 278.781 223.988 280.489 220.354 278.891C219.552 278.538 219.182 278.149 218.885 277.339C219.632 272.949 229.543 272.997 232.865 272.855C235.893 272.814 238.847 272.639 241.868 272.473C237.56 270.082 221.832 263.743 220.604 260.616C220.604 260.089 220.597 259.798 220.863 259.322C221.287 258.564 222.325 257.908 223.139 257.676C226.047 256.848 242.409 265.619 245.904 267.519C244.57 264.725 232.804 246.732 232.73 246.144C233.099 244.92 233.493 244.604 234.314 243.648Z" fill="#161516"/>
<path d="M278.238 289.711C281.88 289.462 289.412 291.975 288.433 296.866C288.178 298.143 286.317 299.014 285.231 299.643C282.848 299.845 281.187 299.856 278.927 298.747C276.752 297.677 272.981 294.792 274.488 292.012C275.292 290.525 276.727 290.171 278.238 289.711Z" fill="#161516"/>
<path d="M142.118 329.442C143.201 329.499 143.999 329.388 145.068 329.281C148.007 331.936 152.111 332.832 154.009 334.926C156.628 337.814 158.552 343.698 161.107 347.253C165.058 352.748 170.022 356.453 174.156 361.602C175.861 364.18 176.712 367.21 178.34 369.849C179.694 372.041 181.08 374.277 182.353 376.512C183.391 378.334 184.392 380.405 185.657 382.056C192.104 390.456 201.637 396.521 211.011 401.134C204.546 406.663 200.679 412.144 198.256 420.436C197.769 422.104 195.636 427.401 197.055 428.723C200.33 431.773 206.544 432.028 210.841 432.811C221.716 434.113 232.601 430.249 240.937 423.475C242.575 438.349 255.709 453.949 270.887 455.977C272.078 455.118 273.091 454.037 273.871 452.794C276.951 447.971 278.8 436.717 278.507 431.024C278.306 427.129 277.93 424.754 277.091 421.043C291.105 423.67 308.446 424.314 322.028 419.324C327.676 417.12 331.256 413.333 337.53 412.723C345.124 411.985 352.431 408.572 359.282 405.548C367.891 408.167 380.217 408.97 388.681 405.982C391.663 404.93 394.533 403.162 397.501 402.246L397.818 402.15C398.803 406.555 399.461 414.859 398.014 418.973C391.09 438.649 361.466 446.247 343.022 448.462C337.715 449.557 330.898 448.814 325.991 451.089C324.121 451.957 323.347 460.604 323.015 462.746C322.295 467.262 321.381 471.745 320.275 476.179C316.116 492.224 306.611 509.184 293.809 519.825C288.955 523.859 284.808 526.441 279.376 529.632C268.958 536.117 257.059 540.37 245.738 544.835C233.705 549.578 220.567 558.024 207.751 550.583C196.659 544.146 189.117 534.245 185.58 521.916C184.355 517.643 183.893 510.928 186.229 506.795C192.022 498.12 200.715 501.379 207.593 505.626C211.813 502.29 212.929 499.646 218.486 496.199C223.062 493.362 228.592 492.548 231.846 489.62C231.998 487.938 232.379 486.559 231.4 485.274C228.37 484.037 215.346 489.79 212.677 491.941C210.519 493.683 208.4 495.464 206.487 497.51C196.151 493.007 188.467 494.003 181.026 502.542C171.111 499.246 162.975 496.582 152.435 496.469C148.788 496.446 145.145 496.718 141.541 497.277C133.586 498.517 125.214 501.104 117.278 498.171C109.957 495.467 104.546 487.3 101.419 480.378C97.3155 471.291 94.238 458.738 97.5342 449.027C98.5878 446.301 100.293 443.926 103.031 442.783C110.261 439.77 112.782 446.213 118.369 448.227C124.628 445.543 133.803 441.98 140.726 442.105C149.088 442.647 146.954 435.778 147.61 430.377C148.751 420.995 152.489 411.083 157.716 403.219C160.27 399.375 163.236 396.788 165.214 392.391C164.335 391.474 163.298 390.186 161.901 390.439C158.334 391.086 155.335 396.297 153.198 398.995C150.081 395.999 146.444 393.174 143.301 390.152C134.251 381.361 125.104 370.578 122.868 357.812C120.479 344.172 128.099 331.723 142.118 329.442Z" fill="white"/>
<path d="M170.413 431.018C171.636 430.882 172.865 430.811 174.095 430.8C186.669 430.666 187.29 439.637 194.901 446.854C202.471 454.031 212.04 457.659 222.441 457.79C226.019 457.835 229.779 457.322 233.492 457.262C233.554 458.74 233.839 461.827 232.464 462.644C228.826 464.814 221.167 464.099 217.108 463.733C205.225 462.377 196.293 458.184 188.294 449.154C184.713 445.112 180.94 437.361 175.241 436.542C166.749 435.319 169.854 441.988 164.432 445.424L164.123 445.617C163.074 444.644 162.128 443.574 161.159 442.522C161.83 436.005 163.494 432.422 170.413 431.018Z" fill="#7092A3"/>
<path d="M175.255 450.746C178.53 453.594 179.437 455.6 182.03 458.928C184.307 461.799 186.972 464.338 189.948 466.477C198.49 472.607 208.653 474.394 218.858 474.108C220.954 474.048 223.854 473.855 225.697 474.86C227.125 476.925 224.429 478.485 222.831 479.302C220.736 479.986 219.063 480.026 216.85 480.25C199.527 482.009 177.732 471.725 172.621 454.196C172.214 452.803 174.316 451.855 175.255 450.746Z" fill="#7092A3"/>
<path d="M236.968 460.672C236.039 460.721 235.503 460.874 234.714 460.306C234.265 459.401 234.338 459.881 234.612 458.806C237.799 454.939 245.39 456.644 247.584 461.248C248.73 465.699 250.043 470.267 245.064 472.573C240.449 472.695 241.37 468.321 241.51 464.931C241.417 464.698 241.32 464.468 241.22 464.238C240.217 461.966 239.125 461.501 236.968 460.672Z" fill="#7092A3"/>
<path d="M236.968 460.672C236.039 460.721 235.503 460.874 234.714 460.306C234.265 459.401 234.338 459.881 234.612 458.806C237.799 454.939 245.39 456.644 247.584 461.248C244.597 461.146 243.254 459.163 238.955 458.267C237.974 458.896 236.874 459.316 236.466 460.182L236.968 460.672Z" fill="#B1DCEA"/>
<path d="M241.51 464.93C241.803 466.165 241.604 468.372 241.99 469.121C244.651 469.85 243.589 471.036 245.064 472.573C240.449 472.695 241.37 468.321 241.51 464.93Z" fill="#B1DCEA"/>
<path d="M288.524 150.77C294.436 148.038 297.423 143.751 302.5 139.912C310.514 133.932 329.937 120.881 339.797 123.802C347.833 126.184 357.004 146.419 360.749 153.895C361.22 154.835 362.051 157.086 362.462 158.137C364.292 162.804 366.09 167.495 367.517 172.301C368.462 175.487 369.108 178.801 370.019 181.995C371.236 184.647 371.996 189.127 373.715 191.224C376.512 192.828 381.669 187.647 385.136 187.768C387.221 187.84 388.94 189.266 390.324 190.702C399.631 200.355 409.114 238.38 410.833 252.113C411.718 259.181 411.613 266.027 411.44 273.131C408.87 271.345 405.707 268.37 403.293 266.203C399.671 262.955 393.878 258.661 390.636 255.344C386.483 251.093 382.231 247.099 378.104 243.156C364.017 229.697 349.294 228.345 330.901 230.831C321.946 232.042 317.027 232.664 308.211 229.459C285.591 221.236 274.643 200.787 249.172 196.741C234.905 194.475 225.514 199.268 211.789 200.921C207.323 201.459 203.589 200.257 199.262 199.604C195.686 199.092 192.069 198.926 188.461 199.11C199.287 180.543 232.87 155.778 251.371 144.179C258.702 140.341 266.489 134.432 275.146 136.057C282.056 137.354 284.261 149.709 288.524 150.77Z" fill="#48924A"/>
<path d="M288.524 150.77C294.436 148.038 297.423 143.751 302.5 139.912C310.514 133.932 329.937 120.881 339.797 123.802C347.833 126.184 357.004 146.419 360.749 153.895C361.22 154.835 362.051 157.086 362.462 158.137C364.292 162.804 366.09 167.495 367.517 172.301C368.462 175.487 369.108 178.801 370.019 181.995C367.639 193.388 351.558 198.619 344.265 189.24C341.598 185.809 340.98 181.893 338.705 178.417C335.95 177.579 329.466 184.947 325.886 185.468C324.317 185.696 320.448 186.591 318.996 187.046C313.288 185.685 308.684 184.641 304.251 180.593C298.64 175.468 294.056 168.551 291.403 161.457C290.564 159.212 287.551 153.211 287.738 151.162L288.524 150.77Z" fill="#91CB64"/>
<path d="M181.835 364.614C183.606 365.795 184.94 366.751 186.939 367.491C190.122 368.214 194.273 369.08 197.346 370.044C204.635 371.664 206.466 369.119 212.673 374.524C217.968 379.134 224.554 384.226 230.632 387.701C232.91 388.541 236.404 391.142 238.48 392.626L236.207 394.828C234.527 394.998 233.908 394.853 232.244 394.601C228.084 395.358 222.057 395.219 218.41 397.386C210.501 395.02 200.973 388.949 195.081 383.097C193.282 381.312 187.368 373.454 185.895 371.23C183.812 368.66 182.953 367.69 181.835 364.614Z" fill="#48924A"/>
<path d="M232.244 394.601C219.754 389.749 211.331 385.959 201.542 376.43C200.443 375.358 196.687 371.749 196.647 370.308L197.346 370.044C204.635 371.664 206.465 369.119 212.673 374.524C217.968 379.134 224.554 384.226 230.632 387.701C232.91 388.541 236.404 391.142 238.48 392.626L236.207 394.828C234.526 394.998 233.908 394.853 232.244 394.601Z" fill="#91CB64"/>
<path d="M230.632 387.701C232.91 388.541 236.404 391.142 238.48 392.626L236.207 394.827C235.819 393.262 235.11 391.999 234.39 390.558L234.489 390.635C233.231 389.908 231.873 388.995 230.637 388.2L230.632 387.701Z" fill="#8DB170"/>
<path d="M181.835 364.614C183.606 365.795 184.94 366.751 186.939 367.491C186.294 368.521 185.961 370.024 185.895 371.23C183.812 368.66 182.953 367.69 181.835 364.614Z" fill="#3F7B45"/>
<path d="M261.068 398.799C267.697 402.008 269.676 400.459 276.944 401.106C280.31 400.989 283.673 400.759 287.023 400.416C291.162 400.008 295.471 398.754 299.071 401.134C302.617 403.483 306.066 405.608 310.02 407.202C312.749 407.679 319.257 410.663 323.112 411.614C308.608 419.211 289.758 417.79 274.243 414.241C271.569 411.588 269.068 408.201 266.028 405.208C263.543 403.443 262.436 402.796 259.507 401.991L261.068 398.799Z" fill="#498E49"/>
<path d="M261.068 398.799C267.697 402.008 269.676 400.459 276.944 401.106C280.31 400.989 283.673 400.759 287.023 400.416C291.162 400.008 295.471 398.754 299.071 401.134C302.617 403.483 306.066 405.608 310.02 407.202C308.999 407.767 307.777 407.767 306.622 407.914C292.884 409.673 281.09 408.975 267.759 405.091L266.028 405.208C263.543 403.443 262.436 402.796 259.507 401.991L261.068 398.799Z" fill="#91CB64"/>
<path d="M261.068 398.799C267.697 402.008 269.676 400.459 276.944 401.106L276.611 401.142C273.684 401.435 268.337 400.567 266.475 401.838C265.853 403.293 266.789 404.005 267.759 405.091L266.028 405.208C263.543 403.443 262.436 402.796 259.507 401.991L261.068 398.799Z" fill="#8DB170"/>
<path d="M258.738 407.049C259.793 408.082 261.014 409.154 262.112 410.161C268.994 416.936 272.384 420.655 272.485 431.095C272.543 437.151 271.361 444.567 268.478 449.986C260.186 445.96 251.589 437.759 248.605 428.856C246.749 423.316 247.508 419.554 246.317 414.981C247.721 414.709 248.888 414.45 250.275 414.096C253.402 417.208 256.554 422.207 258.252 426.32C260.475 426.34 261.357 423.73 262.338 422.028C261.069 418.97 259.825 416.797 258.207 413.928C257.466 412.836 256.676 411.911 255.84 410.893C257.082 409.432 257.689 408.652 258.738 407.049Z" fill="#48924A"/>
<path d="M258.737 407.049C259.793 408.082 261.014 409.154 262.112 410.161C259.378 410.053 258.517 411.236 258.207 413.928C257.466 412.836 256.676 411.911 255.84 410.893C257.082 409.432 257.689 408.652 258.737 407.049Z" fill="#3F7B45"/>
<path d="M262.338 422.028C262.485 424.212 262.444 427.217 259.728 427.682C258.607 427.2 258.995 427.458 258.252 426.32C260.475 426.34 261.357 423.73 262.338 422.028Z" fill="#203C1D"/>
<path d="M204.222 424.397C205.387 418.204 208.604 411.622 213.476 407.511C218.112 403.596 225.305 400.186 231.504 400.742C233.225 401.128 234.746 401.664 234.641 403.673C233.351 405.602 229.922 406.448 227.675 407.185C225.005 408.337 224.066 408.249 221.489 409.869C221.091 410.836 220.705 411.809 220.331 412.788C220.421 414.206 220.614 415.781 221.821 416.723C225.517 415.463 234.126 411.075 238.024 410.538C238.9 410.419 240.33 412.765 240.917 413.67C234.461 424.547 215.728 430.584 204.222 424.397Z" fill="#48924A"/>
<path d="M231.505 400.742C233.225 401.128 234.746 401.664 234.641 403.673C233.352 405.602 229.923 406.447 227.675 407.185C228.79 405.015 229.983 406.442 231.523 404.984C231.204 403.281 231.138 404.986 230.692 403.684L231.616 402.683C230.647 402.578 229.377 402.584 228.63 402.118C230.225 401.659 230.643 401.846 231.505 400.742Z" fill="#3F7B45"/>
<path d="M221.821 416.723C221.373 416.893 220.987 417.018 220.532 417.168C217.956 416.553 218.079 414.028 220.331 412.788C220.421 414.206 220.614 415.781 221.821 416.723Z" fill="#3F7B45"/>
<path d="M243.923 394.995C254.605 393.642 256.908 403.798 249.44 408.269C247.743 408.652 246.601 408.53 244.865 408.467C241.073 406.201 238.876 402.958 240.6 398.138C241.25 396.323 242.164 395.701 243.923 394.995Z" fill="#3F7B45"/>
<path d="M394.29 262.348C396.182 262.334 398.749 264.458 399.586 266.109C398.025 265.507 395.158 263.849 394.29 262.348Z" fill="#403F3D"/>
<path d="M131.007 207.149C132.229 207.162 133.231 207.742 133.635 208.931C133.359 211.607 127.913 213.669 125.913 215.312C122.189 218.373 118.669 221.909 115.438 225.484C119.628 229.435 124.143 231.814 127.341 236.504C126.415 238.125 125.886 238.782 124.704 240.241C120.204 237.372 116.058 233.982 112.352 230.142C107.329 235.639 102.19 244.338 100.106 251.591C104.799 252.968 109.821 254.651 114.358 256.537C115.461 256.996 116.224 257.832 116.479 259.013C115.644 263.981 101.273 258.189 97.8283 257.376C94.8654 265.397 95.2124 273.222 94.1619 281.503C94.0298 282.545 92.2276 283.338 91.3417 283.779C89.4896 283.073 89.1226 280.9 88.3936 279.111C88.734 277.285 88.9138 273.879 89.048 271.857C89.4514 265.781 90.0184 261.278 92.0347 255.484C88.5524 254.112 69.8459 251.58 79.6061 245.274C82.7483 246.79 90.0817 248.6 93.7393 249.627C95.6952 245.84 97.6125 240.891 99.6971 237.349C101.854 233.685 104.802 229.835 107.171 226.042C104.331 223.855 95.5153 219.042 95.1088 215.609C95.4609 214.228 97.088 213.039 98.5211 213.044C101.156 213.959 108.854 219.824 110.653 222.375C115.532 216.419 123.193 208.545 131.007 207.149Z" fill="#161516"/>
<path d="M116.187 220.048C116.578 220.415 116.406 220.21 116.558 220.838C115.99 222.246 115.468 222.776 114.525 223.927L114.233 223.497C114.32 221.921 115.117 221.191 116.187 220.048Z" fill="#403F3D"/>
<path d="M428.86 350.418C429.243 350.384 429.629 350.359 430.015 350.342C438.862 350.001 450.779 352.35 457.088 358.909C464.032 366.126 465.127 374.152 458.024 381.537C456.064 383.253 453.267 383.681 450.725 383.676C442.819 383.806 437.691 377 435.129 370.362C432.919 364.546 431.921 360.223 426.863 356.234C424.894 354.685 427.552 351.531 428.86 350.418Z" fill="#7092A3"/>
<path d="M433.617 355.726C442.002 356.396 449.698 357.984 454.765 365.179C456.061 366.901 456.577 367.851 457.218 369.979C457.403 372.847 457.102 375.687 454.194 377.119C443.826 382.223 437.591 362.827 433.617 355.726Z" fill="#B1DCEA"/>
<path d="M454.765 365.179C456.061 366.901 456.577 367.851 457.218 369.979C456.844 370.473 454.013 372.203 453.341 372.405C450.524 373.253 447.324 370.161 449.219 367.437C450.512 365.576 452.694 365.446 454.765 365.179Z" fill="white"/>
<path d="M70.4127 179.593C73.8216 179.955 77.5787 179.805 80.4475 181.873C86.2445 186.051 88.5726 194.334 84.2188 200.377C80.9558 204.907 76.0364 208.127 70.6751 209.188C67.1761 209.471 63.8311 209.264 60.7252 207.496C57.7342 205.823 55.5355 203.025 54.6173 199.723C53.6925 196.204 54.2028 192.462 56.0362 189.319C59.1557 183.882 64.5357 181.142 70.4127 179.593Z" fill="#161516"/>
<path d="M71.6851 187.583C73.1438 187.556 74.7845 188.13 76.0199 188.873C77.3052 189.648 78.1885 190.945 78.4379 192.425C79.4591 198.188 74.1465 200.539 69.5012 201.334L69.1355 201.397C63.1763 202.406 60.265 196.446 63.7098 192.091C65.689 189.618 68.5455 188.003 71.6851 187.583Z" fill="white"/>
<path d="M115.233 158.328C118.867 158.146 123.613 158.387 126.804 160.323C129.457 161.921 131.362 164.512 132.098 167.521C134.464 177.069 126.408 183.248 118.077 185.188C105.049 188.209 96.0572 174.352 104.998 164.142C107.61 161.161 111.56 159.758 115.233 158.328Z" fill="#161516"/>
<path d="M117.664 165.747C118.707 165.66 119.995 165.687 121.062 165.678C128.792 170.697 123.094 176.165 116.584 177.908C113.619 178.234 110.286 177.642 109.417 174.271C109.042 172.801 109.302 171.241 110.133 169.972C111.872 167.293 114.777 166.401 117.664 165.747Z" fill="white"/>
<path d="M164.999 139.62C172.049 138.543 179.735 142.899 180.976 150.324C181.524 153.448 180.789 156.66 178.939 159.236C175.972 163.34 171.584 165.29 166.727 166.072C163.611 166.621 159.395 166.032 156.595 164.425C153.691 162.784 151.584 160.027 150.76 156.794C148.288 146.889 156.66 141.661 164.999 139.62Z" fill="#161516"/>
<path d="M165.578 146.998C168.681 146.829 169.512 146.974 172.072 148.494C175.708 154.825 171.83 157.928 165.832 159.31C164.405 159.474 162.959 159.311 161.604 158.831C158.518 157.771 156.93 154.955 158.384 151.821C159.685 149.017 162.846 147.94 165.578 146.998Z" fill="white"/>
<path d="M442.388 192.465C453.837 191.829 461.303 203.799 453.565 213.158C450.819 216.477 445.599 217.907 441.322 217.973C438.014 217.912 433.092 217.249 430.678 214.695C420.617 204.044 429.663 192.908 442.388 192.465Z" fill="#161516"/>
<path d="M440.686 199.785C441.946 199.673 443.665 199.766 444.961 199.794C449.128 202.106 448.646 203.58 448.461 207.94C446.096 209.942 444.813 210.314 441.852 210.917C433.112 211.691 430 201.548 440.686 199.785Z" fill="white"/>
<path d="M456.072 252.832C459.147 252.654 464.506 254.371 466.996 256.321C472.071 260.294 472.411 268.106 468.077 272.794C465.008 276.116 461.507 277.515 457.011 277.758C453.803 277.762 451.077 277.665 448.243 276.087C442.226 272.738 439.302 265.803 443.202 259.586C446.206 254.794 451.029 253.984 456.072 252.832Z" fill="#161516"/>
<path d="M455.862 260.225C459.383 259.516 462.129 261.515 464.16 264.137C462.954 268.687 462.199 270.067 457.434 270.742L452.807 270.625C446.198 266.344 448.705 261.156 455.862 260.225Z" fill="white"/>
<path d="M348.335 471.45C352.837 471.26 352.275 478.65 352.27 481.572C352.238 498.23 343.033 514.803 329.534 524.364C326.198 526.727 323.024 528.789 319.038 529.805C317.804 529.51 316.233 528.67 315.73 527.45C316.017 524.619 320.604 522.999 322.902 521.487C334.731 513.694 344.103 500.083 346.358 485.986C346.999 481.989 346.029 477.016 346.321 472.97C346.968 471.932 347.155 472.065 348.335 471.45Z" fill="#161516"/>
<path d="M52.389 158.817C55.8466 159.247 60.6258 166.203 62.9477 169.019C64.5172 168.152 75.7073 162.261 76.7418 162.87C87.0398 168.93 65.0647 176.26 60.0627 178.875C56.3302 181.14 49.1469 185.047 45.1478 186.438C39.4671 184.634 39.4115 180.688 44.3762 178.145C47.9842 176.296 52.149 174.549 55.8718 172.955C55.3048 172.078 54.7264 171.221 54.0558 170.365C52.2781 168.093 48.1257 165.617 49.0482 162.231C49.577 160.288 50.7925 159.686 52.389 158.817Z" fill="#161516"/>
<path d="M367.44 488.335C374.872 490.976 367.23 512.253 364.587 517.016C358.508 527.964 348.003 540.194 335.803 544.086C334.362 544.029 333.057 542.809 332.827 541.411C333.176 539.689 334.705 538.52 336.118 537.703C351.555 528.809 363.838 512.142 365.097 494.068C365.296 491.183 364.901 490.4 367.44 488.335Z" fill="#161516"/>
<path d="M102.269 137.802C102.633 137.798 104.037 137.804 104.293 137.861C106.965 138.452 110.911 145.343 112.471 147.661C116.09 145.9 122.483 142.278 126.543 143.307C127.265 143.49 127.882 143.911 128.203 144.597C128.644 145.537 128.51 146.855 128.143 147.796C126.915 150.943 113.561 154.653 109.963 156.315C106.405 157.957 90.2228 166.851 90.5947 157.995C90.7116 155.213 102.946 151.526 105.696 150.163C103.854 147.632 99.4735 143.564 99.8414 140.491C99.9991 139.174 101.22 138.538 102.269 137.802Z" fill="#161516"/>
<path d="M435.972 169.789C437.044 169.706 438.142 169.504 439.061 170.074C441.937 171.855 443.097 178.045 443.846 181.227C448.152 180.95 452.458 180.231 456.759 180.316C458.007 180.923 458.855 181.378 459.576 182.557C460.191 188.765 444.434 188.475 439.898 189.05C434.942 189.589 427.073 191.691 422.265 189.81C419.136 188.586 420.898 183.345 423.924 182.924C428.401 182.301 432.738 182.71 437.328 182.01C436 178.833 429.093 171.379 435.972 169.789Z" fill="#161516"/>
<path d="M154.277 118.293C155.109 118.276 155.938 118.375 156.742 118.588C159.388 119.303 162.372 126.229 163.833 128.925C168.095 127.482 172.826 125.929 177.291 125.417C178.109 126.541 180.019 129.11 178.823 130.317C175.124 134.055 165.594 135.644 160.656 136.973C157.531 138.007 146.069 141.537 143.477 140.561C142.653 140.26 142.003 139.613 141.698 138.791C139.71 133.27 152.786 131.893 157.047 130.224C154.019 126.83 148.718 121.649 154.277 118.293Z" fill="#161516"/>
<path d="M453.131 230.385C458.517 230.987 457.624 239.407 459.663 241.14C462.063 242.592 471.325 239.886 472.942 242.098C477.597 248.462 466.92 248.603 464.582 248.751C460.097 249.034 457.386 249.218 453.857 249.439C448.356 250.088 444.405 250.696 438.814 250.464C436.749 248.973 435.557 247.338 437.472 245.104C439.923 242.247 448.944 242.989 452.731 242.597C450.96 237.845 445.679 232.697 453.131 230.385Z" fill="#161516"/>
<path d="M100.958 334.492C102.629 334.384 103.137 334.157 104.326 335.38C105.026 337.482 101.78 342.991 101.399 345.584C99.9846 355.196 100.083 366.28 104.515 375.102C106.026 378.334 108.331 381.029 110.257 384.002C111.862 386.481 111.22 387.33 108.92 388.626C106.736 387.988 105.884 387.23 104.427 385.497C96.3781 375.919 93.6764 364.728 94.6539 352.421C95.1146 346.62 96.3284 338.475 100.958 334.492Z" fill="#161516"/>
<path d="M80.8442 346.069C82.4611 345.964 83.0563 345.865 84.1745 347.105C84.2894 349.003 83.926 351.454 83.7521 353.309C83.0554 360.739 82.814 367.389 85.9253 374.365C87.0143 376.807 90.5505 382.172 90.0816 384.413C89.4975 385.29 89.4487 385.29 88.4173 385.659C77.0235 382.081 74.6659 352.226 80.8442 346.069Z" fill="#161516"/>
</g>
<defs>
<clipPath id="clip0_71_175">
<rect width="495" height="581" fill="white"/>
</clipPath>
</defs>
</svg>
