<?xml version="1.0" encoding="UTF-8"?>
<svg id="Layer_2" data-name="Layer 2" xmlns="http://www.w3.org/2000/svg" viewBox="0 0 279.96 534.24">
  <defs>
    <style>
      .cls-1 {
        fill: #fefefe;
      }

      .cls-1, .cls-2, .cls-3, .cls-4, .cls-5, .cls-6 {
        stroke: #000;
      }

      .cls-1, .cls-2, .cls-4, .cls-5, .cls-6 {
        stroke-width: 7px;
      }

      .cls-1, .cls-2, .cls-4, .cls-6 {
        stroke-miterlimit: 10;
      }

      .cls-1, .cls-3, .cls-4, .cls-5 {
        stroke-linecap: round;
      }

      .cls-7 {
        fill: #f89c87;
      }

      .cls-8 {
        fill: #fff;
      }

      .cls-2, .cls-9, .cls-10, .cls-4, .cls-11, .cls-12 {
        fill-rule: evenodd;
      }

      .cls-2, .cls-3, .cls-5, .cls-6 {
        fill: none;
      }

      .cls-13, .cls-4 {
        fill: #3c9c45;
      }

      .cls-9 {
        fill: #8dd164;
      }

      .cls-10 {
        fill: #8ed165;
      }

      .cls-3 {
        stroke-width: 6px;
      }

      .cls-3, .cls-5 {
        stroke-linejoin: round;
      }

      .cls-11 {
        fill: #131211;
      }

      .cls-12 {
        fill: #47914a;
      }
    </style>
  </defs>
  <g id="Layer_1-2" data-name="Layer 1">
    <g>
      <g>
        <path class="cls-8" d="M141.62,530.74c-16.87,0-36.53-3.8-41.08-14.46-2.29-5.35-.65-11.32,4.88-17.75-.2-.36-.43-.72-.67-1.12-1.6-2.65-3.75-6.19-5.54-14.7-7.65-1.18-26.61-5.95-38.02-24.94-15.13-25.18-11.46-64.83,10.91-117.84l.9-2.14,65.85.07c5.13-1.84,9.76-5.15,14.65-8.65,1.69-1.21,3.43-2.46,5.21-3.65l.82-.55,29.46-1.23c1.06-.04,2.13-.13,3.2-.21,1.67-.13,3.39-.27,5.15-.27,11,0,17.78,6.17,22.68,20.63,7.15,21.12,1.6,59.54.67,65.51,6.02,23.58,8.63,34.57-5.7,56.8-6.59,10.22-12.57,13.24-17.37,15.67-4.34,2.2-7.21,3.65-9.81,10.21-1.33,3.36-1.29,6.61-1.24,10.05.1,7.47.22,15.93-14.89,23-5.91,3.49-17.12,5.58-30.08,5.58Z"/>
        <path d="M197.36,326.79c7.09,0,14.02,2.47,19.36,18.26,7.41,21.89.41,64.55.41,64.55,6.25,24.48,8.41,33.82-5.07,54.73-12.11,18.79-21.29,10.85-27.49,26.49-4.78,12.05,5.28,22.05-14.52,31.24-5.45,3.31-16.69,5.17-28.43,5.17-24.49,0-51.17-8.1-32.04-28.09-1.66-4.47-4.92-5.76-7.42-19.6-.48-.12-83.37-4.28-26.84-138.26l64.12.07c7.75-2.6,14.19-8.17,21.23-12.89l28.48-1.19c2.7-.11,5.47-.48,8.21-.48M197.36,319.79h0c-1.9,0-3.69.14-5.43.28-1.08.09-2.1.17-3.07.21l-28.48,1.19-1.97.08-1.64,1.1c-1.82,1.22-3.59,2.49-5.3,3.71-4.5,3.22-8.77,6.27-13.24,7.99l-62.9-.07h-4.65s-1.81,4.28-1.81,4.28c-22.83,54.1-26.42,94.81-10.68,121,11.12,18.5,28.94,24.35,38.12,26.18,1.58,6.55,3.37,9.98,4.86,12.49-6.3,8.4-5.7,15.08-3.85,19.42,6.57,15.38,35.57,16.58,44.3,16.58,13.44,0,25.24-2.23,31.71-5.97,17-8.02,16.86-18.49,16.76-26.15-.04-3.21-.08-5.99,1-8.71,2.11-5.33,4-6.28,8.14-8.37,4.91-2.48,11.62-5.88,18.73-16.9,15-23.27,12.29-35.46,6.33-58.87,1.2-7.99,6.24-45.3-.92-66.46-5.39-15.91-13.4-23.01-25.99-23.01h0Z"/>
      </g>
      <g>
        <path class="cls-12" d="M242.29,399.5c-.07,2.12-.5,23.83-1.47,33.59-.8,8.1-30.34,12.52-30.34,12.52,0,0,6.17-24.32,2.37-35.42t0,0c-5.7-16.66-12.75-34.7-40.67-45.04-19.17-7.1-44.35-.94-57.06,4.77-24.11,10.83-45.73-.71-45.73-.71-5.01-1.85-8.2-3.91-9.98-6.21-4.07-5.27-.72-11.85,5.22-20.21,8.55-12.01,125.58-20.12,141.85-13.66,7.22,2.87,15.08,9.31,21.59,18.69,8.67,12.49,14.97,30.21,14.23,51.68Z"/>
        <path class="cls-10" d="M241.42,426.82c-1.3,12.72.05,10.33-13.14,13.81-3.82,2.21-16.38,4.75-16.38,4.75,0,0,3.73-23.25,1.65-29.32,7.33,4.71,17.74,10.05,27.88,10.76Z"/>
        <path class="cls-10" d="M214.93,335.79c-87.41,2.37-60.44,23.61-117.93,29.1-17.06,1.63-29.1-.43-37.6-1.88-4.07-5.27-.72-11.85,5.22-20.21,8.55-12.01,125.58-20.12,141.85-13.66,7.22,2.87-4.4,3.19,8.46,6.66Z"/>
        <path class="cls-2" d="M242.29,399.5c-.07,2.12-.5,23.83-1.47,33.59-.8,8.1-30.34,12.52-30.34,12.52,0,0,4.46-21.55,2.37-35.42-4.4-21.51-12.76-34.7-40.68-45.04-19.17-7.1-44.35-.94-57.06,4.77-24.11,10.83-45.73-.71-45.73-.71-5.01-1.85-8.2-3.91-9.98-6.21-4.07-5.27-.72-11.85,5.22-20.21,8.55-12.01,125.58-20.12,141.85-13.66,7.22,2.87,15.08,9.31,21.59,18.69,8.67,12.49,14.97,30.21,14.23,51.68Z"/>
        <g>
          <g>
            <path class="cls-12" d="M44.52,410.29c-1.34,0-2.59-.77-3.17-2.03-1.35-2.89-1.48-6.6-1.61-9.86-.06-1.6-.12-3.12-.3-4.28-1.51-9.5.07-19.81,4.36-28.27,5.89-11.64,14.74-17.89,29.58-20.87.23-.05.46-.07.69-.07,1.34,0,2.59.77,3.17,2.02,5.88,12.64,5.65,27.01-.63,39.43-6.28,12.42-17.73,21.11-31.39,23.86-.23.05-.46.07-.69.07Z"/>
            <path d="M74.06,348.4c5.2,11.17,5.41,24.53-.58,36.37-5.99,11.84-16.88,19.58-28.96,22.01-1.63-3.51-1.02-9.39-1.63-13.22-1.33-8.35-.08-18.03,4.02-26.14,5.99-11.84,15.07-16.59,27.15-19.02M74.06,341.4c-.46,0-.92.05-1.38.14-10.63,2.14-23.88,6.66-32.01,22.72-4.61,9.11-6.32,20.19-4.69,30.4.15.95.21,2.37.26,3.86.13,3.6.29,7.67,1.93,11.21,1.16,2.51,3.66,4.05,6.35,4.05.46,0,.92-.05,1.38-.14,14.73-2.96,27.05-12.34,33.82-25.71,6.77-13.38,7.02-28.86.69-42.48-1.16-2.5-3.67-4.05-6.34-4.05h0Z"/>
          </g>
          <path class="cls-5" d="M73.39,348c-5.39,21.52-14.38,21.07-19.32,40.69"/>
        </g>
        <g>
          <g>
            <path class="cls-12" d="M87.23,414.34c-.8,0-1.58-.27-2.2-.78-.07-.06-7.3-5.92-10.33-8.12-7.77-5.68-13.91-14.11-16.83-23.13-4.02-12.41-2.15-23.08,6.28-35.65.66-.99,1.77-1.55,2.91-1.55.4,0,.81.07,1.21.22,13.2,4.87,24.07,25.39,28.16,38,4.59,14.14-5.9,28.95-6.35,29.57-.56.78-1.42,1.3-2.38,1.42-.15.02-.31.03-.46.03Z"/>
            <path d="M67.05,348.6c11.56,4.27,21.95,23.18,26.04,35.8,4.09,12.62-5.86,26.45-5.86,26.45,0,0-7.34-5.95-10.47-8.23-6.83-4.99-12.76-12.73-15.57-21.38-4.09-12.62-1-22.39,5.86-32.63M67.05,341.6c-2.28,0-4.49,1.12-5.82,3.1-6.04,9.01-12.25,21.55-6.7,38.68,3.15,9.71,9.74,18.78,18.1,24.88,2.95,2.16,10.12,7.96,10.19,8.02,1.25,1.02,2.81,1.56,4.41,1.56.31,0,.62-.02.93-.06,1.91-.26,3.63-1.29,4.75-2.85.49-.68,11.96-16.88,6.84-32.69-3.7-11.41-14.79-34.49-30.27-40.2-.79-.29-1.61-.43-2.42-.43h0Z"/>
          </g>
          <path class="cls-5" d="M62.77,344.35c12.81,20.49,13.1,29.77,16.48,41.07"/>
        </g>
        <g>
          <path class="cls-12" d="M69.51,365.42c-2.5,0-5.04-.62-7.34-1.8-8.53-4.36-12.06-11.04-9-17.03,2.36-4.62,8.48-7.97,14.56-7.97,2.37,0,4.54.5,6.46,1.48,3.43,1.75,6.08,4.58,7.47,7.96,1.46,3.56,1.35,7.31-.3,10.54-2.15,4.21-6.69,6.82-11.85,6.82Z"/>
          <path d="M67.73,342.11c1.71,0,3.39.34,4.87,1.1,5.55,2.84,8.08,9.02,5.64,13.79-1.62,3.16-5.01,4.92-8.73,4.92-1.9,0-3.88-.46-5.75-1.41-5.56-2.84-9.91-7.55-7.47-12.32,1.79-3.5,6.74-6.07,11.44-6.07M67.73,335.11c-7.43,0-14.7,4.06-17.68,9.88-2.3,4.51-1.86,9.63,1.22,14.06,2.6,3.75,6.49,6.24,9.3,7.67,2.79,1.43,5.88,2.18,8.94,2.18,6.48,0,12.21-3.35,14.96-8.73,2.09-4.09,2.25-9,.42-13.46-1.7-4.15-4.94-7.62-9.11-9.75-2.42-1.24-5.13-1.86-8.05-1.86h0Z"/>
        </g>
      </g>
      <path class="cls-13" d="M144.16,3.5C105.76-.72,32.57,110.85,32.57,167.98l43.8-17.54,42.04,9.43c14.06,4.72,27.91,7.52,42.58,5.7l33.85-5c18.81-5.22,40.7,2.76,59.88,10.51C244.97,138.21,209.78,10.71,144.16,3.5Z"/>
      <path class="cls-9" d="M77.77,57.43c6.02-9.58,36.28-53.69,60.27-53.69,44.86,0,71.07,53.73,72.95,56.38.05.08.97-1.88.97-1.88,0,0-7.63,14.91-18,21.27-11.53,7.07-39.14,10.72-54.34,6.98-14.66-3.61-48.78-11.6-61.84-29.05Z"/>
      <path class="cls-6" d="M144.16,3.5c-33.18,0-111.59,107.35-111.59,164.48l43.8-17.54,42.04,9.43c14.06,4.72,27.91,7.52,42.58,5.7l33.85-5c18.81-5.22,40.7,2.76,59.88,10.51C244.97,138.21,210.18,3.5,144.16,3.5Z"/>
      <path class="cls-4" d="M110.98,90.15s17.96-26.88,37.18-27.75c19.23-.87,34.74,31.76,34.74,31.76"/>
      <g>
        <path class="cls-8" d="M113.25,356.11c-15.12,0-28.25-3.81-39.06-11.33-32.27-.39-56.39-17.37-66.27-46.74-7.87-23.39-4.77-50.75,6.61-61.54-3.05-22.37,2.12-63.49,20.02-83.54,10.33-11.56,27.53-25.29,40.43-29.15.18-.05.35-.09.54-.12,3.84-.52,7.57-.78,11.1-.78,18.19,0,29.46,6.88,39.41,12.94,8.62,5.26,16.06,9.8,26.92,9.8,2.73,0,5.51-.28,8.52-.86l27.71-5.33c8.15-1.57,17.38-3.34,26.51-3.34,18.07,0,30.63,7.28,38.38,22.25,11.11,21.45,21.23,46.54,12.74,70.63,13.28,22.63,11.32,41.69,3.83,64.9-7.34,22.75-30.14,38.65-48.37,41.24-11.32,8.4-25.92,13.2-40.22,13.2-7.63,0-14.75-1.33-21.21-3.95-15.23,7.57-32.05,11.72-47.57,11.72Z"/>
        <path d="M86.63,126.4c32.4,0,41.08,22.74,66.33,22.74,2.83,0,5.87-.29,9.18-.92l27.71-5.33c8.22-1.58,17.17-3.28,25.85-3.28,13.84,0,26.97,4.33,35.27,20.36,11.24,21.7,20.87,46.49,11.98,69.38,12.93,21.14,12.26,38.98,4.36,63.47-6.87,21.3-28.62,36.88-46.41,38.96-10.98,8.42-25.19,13.06-38.86,13.06-7.48,0-14.79-1.39-21.34-4.3-13.97,7.2-30.93,12.08-47.44,12.08-13.58,0-26.86-3.3-37.94-11.33C.52,341.28-2.89,253.95,18.28,237.88c-3.48-20.83,1.11-62.71,18.88-82.6,9.43-10.56,26.32-24.38,38.83-28.13,3.82-.52,7.35-.75,10.63-.75M86.63,119.4c-3.69,0-7.58.27-11.57.81-.36.05-.72.13-1.07.23-15.11,4.53-33.42,20.52-42.04,30.17-11.22,12.56-16.56,31.03-19.07,44.31-2.65,14.03-3.37,28.76-2.03,40.32-11.42,12.52-14.35,39.8-6.24,63.9,4.72,14.03,12.86,25.86,23.54,34.21,12.15,9.5,27.26,14.51,44.94,14.9,11.23,7.53,24.73,11.35,40.17,11.35s32.4-4.03,47.73-11.4c6.48,2.41,13.54,3.63,21.05,3.63,14.74,0,29.78-4.85,41.59-13.37,9.75-1.56,19.95-6.3,28.93-13.49,10.19-8.15,17.79-18.81,21.4-30,7.43-23.01,9.66-43.24-3.34-66.36,8.01-25.07-2.87-51.44-13.45-71.86-8.41-16.25-21.99-24.15-41.49-24.15-9.47,0-18.87,1.81-27.17,3.41l-27.71,5.33c-2.78.54-5.35.8-7.86.8-9.87,0-16.93-4.3-25.1-9.29-10.34-6.31-22.06-13.46-41.23-13.46h0Z"/>
      </g>
      <path class="cls-7" d="M96.98,237.88c14.75-.02,26.72,13.26,26.72,29.64,0,16.38-11.97,29.65-26.72,29.64-14.73-.01-26.67-13.28-26.67-29.64s11.94-29.62,26.67-29.64"/>
      <path class="cls-11" d="M59.49,211.86c7.71,0,13.96,7.04,13.96,15.72s-6.26,15.72-13.96,15.72-13.96-7.04-13.96-15.72,6.26-15.72,13.96-15.72h0Z"/>
      <path class="cls-11" d="M14.8,232.9c6.58,0,11.92,3.31,11.92,7.38s-5.34,7.38-11.92,7.38-11.92-3.31-11.92-7.38,5.34-7.38,11.92-7.38h0Z"/>
      <path class="cls-3" d="M4.02,262.76c3.26,17.45,35.06,17.45,35.06,0"/>
      <path class="cls-1" d="M169.56,385.82c-.1,30.39-5.92,63.01-30.52,62.87-26.98-.15-29.27-32.69-25.54-62.99"/>
    </g>
  </g>
</svg>