<?xml version="1.0" encoding="UTF-8"?>
<svg id="Layer_2" data-name="Layer 2" xmlns="http://www.w3.org/2000/svg" viewBox="0 0 170.06 69.85">
  <g id="_디자인" data-name="디자인">
    <g>
      <path d="M137.19,8.81c-9.78,0-17.71,7.93-17.71,17.71s7.93,17.71,17.71,17.71,17.71-7.93,17.71-17.71-7.93-17.71-17.71-17.71ZM137.19,34.8c-4.57,0-8.28-3.71-8.28-8.28s3.71-8.28,8.28-8.28,8.28,3.71,8.28,8.28-3.71,8.28-8.28,8.28Z"/>
      <path d="M57.68,5.25c-1.76-1.17-4.25-1.17-6.01,0-.7.46-1.53,1.38-1.53,3.11v13.92h-5.34v-13.33c0-1.73-.83-2.65-1.53-3.11-1.73-1.16-4.16-1.2-5.96,0-.7.46-1.53,1.38-1.53,3.11v42.98c0,1.73.83,2.65,1.53,3.11,1.8,1.2,4.22,1.15,5.95,0,.7-.46,1.53-1.38,1.53-3.11v-21.18h5.34v23.68c0,1.73.83,2.65,1.53,3.11.88.59,1.89.89,3.01.89s2.12-.3,3.01-.89c.7-.46,1.53-1.38,1.53-3.11V8.36c0-1.73-.83-2.65-1.53-3.11Z"/>
      <path d="M24.59,8.71H6.08c-2.2,0-3.73.45-4.67,1.36-.95.92-1.41,2.43-1.41,4.6v23.69c0,2.17.46,3.68,1.41,4.6.94.92,2.47,1.36,4.67,1.36h18.51c2.2,0,3.73-.44,4.67-1.36.95-.92,1.41-2.43,1.41-4.6V14.67c0-2.17-.46-3.68-1.41-4.6-.94-.92-2.47-1.36-4.67-1.36ZM21.61,17.53v17.98c0,.22-.04.3-.04.3-.01,0-.09.05-.31.05h-11.84c-.21,0-.29-.04-.3-.04h0s-.05-.09-.05-.31v-17.98c0-.22.04-.3.04-.3.01,0,.09-.05.31-.05h11.84c.21,0,.29.04.3.04,0,.01.05.09.05.31Z"/>
      <path d="M101.8,39.78h-26.55c-1.49,0-2.29.73-2.69,1.35-.51.76-.77,1.63-.77,2.59s.26,1.89.77,2.63c.41.59,1.21,1.3,2.69,1.3h23.21s0,3.31,0,3.31h-20.46c-2.01,0-3.14.37-4.16,1.36-.95.92-1.41,2.43-1.41,4.6v6.96c0,2.17.46,3.68,1.41,4.6,1.02.99,2.15,1.36,4.16,1.36h25.58c1.47,0,2.27-.71,2.69-1.31.51-.75.77-1.63.77-2.63s-.26-1.83-.77-2.59c-.41-.61-1.21-1.35-2.69-1.35h-22.23s0-3.37,0-3.37h20.46c2.01,0,3.14-.37,4.16-1.36.95-.92,1.41-2.43,1.41-4.6v-6.9c0-2.17-.46-3.68-1.41-4.6-1.02-.99-2.15-1.36-4.16-1.36Z"/>
      <path d="M112.32,28.12h-17.85v-4.74h11.66c1.52,0,2.35-.72,2.77-1.33.54-.77.81-1.71.81-2.79s-.27-1.96-.81-2.73c-.42-.61-1.25-1.33-2.77-1.33h-26.01c-.21,0-.29-.04-.3-.04h0s-.05-.09-.05-.31v-6.34c0-.22.04-.3.04-.3.01,0,.09-.05.31-.05h25.42c1.52,0,2.35-.72,2.77-1.33.54-.77.81-1.71.81-2.79s-.27-1.96-.81-2.73c-.42-.61-1.25-1.33-2.77-1.33h-29.41c-2.2,0-3.73.45-4.67,1.36-.95.92-1.41,2.43-1.41,4.6v11.46c0,2.17.46,3.68,1.41,4.6.94.92,2.47,1.36,4.67,1.36h8.8v4.74h-17.85c-1.52,0-2.35.72-2.77,1.33-.54.77-.81,1.69-.81,2.73s.27,2.02.81,2.79c.42.61,1.25,1.33,2.77,1.33h45.24c1.52,0,2.35-.72,2.77-1.33.54-.77.81-1.71.81-2.79s-.27-1.96-.81-2.73c-.42-.61-1.25-1.33-2.77-1.33Z"/>
      <path d="M168.45,5.31c-.94-.63-2.04-.95-3.27-.95s-2.27.32-3.22.95c-.74.49-1.62,1.46-1.62,3.29v45.6c0,1.83.88,2.8,1.62,3.29.94.63,2.02.95,3.22.95s2.33-.32,3.28-.95c.74-.49,1.62-1.46,1.62-3.29V8.6c0-1.83-.88-2.8-1.62-3.29Z"/>
    </g>
  </g>
</svg>