<?xml version="1.0" encoding="UTF-8"?>
<svg id="Layer_2" data-name="Layer 2" xmlns="http://www.w3.org/2000/svg" viewBox="0 0 142.24 62.15">
  <defs>
    <style>
      .cls-1 {
        fill: #005d32;
      }

      .cls-2 {
        fill: #90de63;
      }
    </style>
  </defs>
  <g id="_디자인" data-name="디자인">
    <g>
      <path class="cls-1" d="M142.24,10.04v36.44c0,2.2-.98,4.12-2.7,5.27-1.28.85-2.75,1.29-4.37,1.29s-3.04-.43-4.33-1.29c-1.72-1.15-2.7-3.06-2.7-5.26v-14.09c-2.9,5.52-8.69,9.29-15.34,9.29s-12.07-3.54-15.05-8.77c0,0,0,0,0,.01-1.07,1.53-2.83,2.41-4.81,2.41h-1.72c.62,1.18.93,2.62.93,4.38v5.51c0,2.63-.68,4.58-2.09,5.95,0,0,0,0,0,0,.25.25.47.53.67.83.75,1.12,1.14,2.45,1.14,3.83s-.41,2.78-1.18,3.91c-1.06,1.53-2.79,2.41-4.75,2.41h-20.44c-1.73,0-3.74-.24-5.53-1.98-1.4-1.36-2.09-3.31-2.09-5.95v-5.56c0-2.38.56-4.2,1.7-5.54-.39-.32-.73-.69-1.02-1.12-.77-1.12-1.18-2.47-1.18-3.9,0-.97.21-1.9.58-2.77h-1.18c-1.15,0-2.22-.3-3.12-.85v12.19c0,2.14-.96,4.01-2.63,5.12-1.22.81-2.65,1.24-4.16,1.24s-2.94-.43-4.16-1.24c-1.03-.69-1.79-1.66-2.22-2.81-.29.3-.61.57-.97.81-1.21.81-2.64,1.24-4.14,1.24s-2.92-.43-4.13-1.24c-1.67-1.11-2.63-2.98-2.63-5.12v-4.77c-1.36,1.24-3.26,1.85-5.79,1.85h-14.79c-2.62,0-4.57-.65-5.94-1.98-1.4-1.36-2.09-3.31-2.09-5.95V14.89c0-2.64.68-4.58,2.09-5.95,1.37-1.33,3.32-1.98,5.94-1.98h14.79c2.62,0,4.56.65,5.94,1.98.32-1.55,1.18-2.87,2.48-3.74,1.21-.81,2.64-1.24,4.13-1.24,1.49,0,2.93.43,4.14,1.24.56.37,1.04.83,1.43,1.36.44-.73,1.03-1.35,1.75-1.84,1.21-.81,2.65-1.24,4.16-1.24s2.95.43,4.16,1.24c1.67,1.11,2.63,2.98,2.63,5.12v13.47c.91-.55,1.97-.85,3.12-.85h.78c-1.06-1.32-1.57-3.09-1.57-5.38V7.93c0-2.64.68-4.58,2.09-5.95,1.37-1.34,3.31-1.98,5.94-1.98h23.5c1.98,0,3.74.88,4.81,2.41.8,1.14,1.22,2.52,1.22,4s-.42,2.91-1.22,4.04c-.63.9-1.48,1.57-2.48,1.97,1.2.37,2.24,1.11,2.96,2.14.8,1.14,1.22,2.52,1.22,4s-.39,2.79-1.13,3.91h.05c.94,0,1.82.2,2.6.57.68-8.94,8.16-16,17.26-16,6.65,0,12.44,3.77,15.34,9.29v-6.29c0-2.2.98-4.12,2.7-5.27,1.28-.85,2.74-1.29,4.33-1.29s3.09.43,4.37,1.29c1.72,1.14,2.7,3.06,2.7,5.26ZM116.24,24.36c0-1.9-1.55-3.45-3.45-3.45s-3.45,1.55-3.45,3.45,1.55,3.45,3.45,3.45,3.45-1.55,3.45-3.45ZM17.26,20.07h-3.69v8.59h3.69v-8.59Z"/>
      <g>
        <path class="cls-2" d="M112.79,10.21c-7.82,0-14.15,6.34-14.15,14.15s6.34,14.15,14.15,14.15,14.15-6.34,14.15-14.15-6.34-14.15-14.15-14.15ZM112.79,30.97c-3.65,0-6.61-2.96-6.61-6.61s2.96-6.61,6.61-6.61,6.61,2.96,6.61,6.61-2.96,6.61-6.61,6.61Z"/>
        <path class="cls-2" d="M49.26,7.36c-1.41-.94-3.4-.94-4.81,0-.56.37-1.22,1.1-1.22,2.49v11.12h-4.26v-10.65c0-1.38-.66-2.12-1.22-2.49-1.38-.92-3.32-.96-4.76,0-.56.37-1.22,1.1-1.22,2.49v34.35c0,1.38.66,2.12,1.22,2.49,1.44.96,3.38.92,4.76,0,.56-.37,1.22-1.1,1.22-2.49v-16.93h4.26v18.93c0,1.38.66,2.12,1.22,2.49.7.47,1.51.71,2.4.71s1.7-.24,2.4-.71c.56-.37,1.22-1.1,1.22-2.49V9.85c0-1.38-.66-2.12-1.22-2.49Z"/>
        <path class="cls-2" d="M22.82,10.13h-14.79c-1.76,0-2.98.36-3.73,1.09-.76.74-1.13,1.94-1.13,3.68v18.93c0,1.74.37,2.94,1.13,3.68.75.73,1.97,1.09,3.73,1.09h14.79c1.76,0,2.98-.36,3.73-1.09.76-.74,1.13-1.94,1.13-3.68V14.89c0-1.74-.37-2.94-1.13-3.68-.75-.73-1.97-1.09-3.73-1.09ZM20.43,17.18v14.37c0,.17-.03.24-.03.24,0,0-.07.04-.25.04h-9.46c-.17,0-.24-.03-.24-.03h0s-.04-.07-.04-.25v-14.37c0-.17.03-.24.03-.24,0,0,.07-.04.25-.04h9.46c.17,0,.24.03.24.03,0,0,.04.07.04.25Z"/>
        <path class="cls-2" d="M84.52,34.96h-21.21c-1.19,0-1.83.59-2.15,1.08-.41.61-.61,1.31-.61,2.07s.21,1.51.62,2.1c.33.48.97,1.04,2.15,1.04h18.54s0,2.64,0,2.64h-16.35c-1.61,0-2.51.29-3.32,1.09-.76.74-1.13,1.94-1.13,3.68v5.56c0,1.74.37,2.94,1.13,3.68.81.79,1.72,1.09,3.32,1.09h20.44c1.18,0,1.82-.57,2.15-1.04.41-.6.62-1.31.62-2.1s-.21-1.46-.61-2.07c-.33-.49-.97-1.08-2.15-1.08h-17.77s0-2.69,0-2.69h16.35c1.61,0,2.51-.29,3.32-1.09.76-.74,1.13-1.94,1.13-3.68v-5.51c0-1.74-.37-2.94-1.13-3.68-.82-.79-1.72-1.09-3.32-1.09Z"/>
        <path class="cls-2" d="M92.93,25.64h-14.26v-3.79h9.32c1.22,0,1.88-.58,2.21-1.06.43-.61.65-1.36.65-2.23s-.22-1.57-.65-2.18c-.34-.48-1-1.06-2.21-1.06h-20.79c-.17,0-.24-.03-.24-.03h0s-.04-.07-.04-.25v-5.06c0-.17.03-.24.03-.24,0,0,.07-.04.25-.04h20.31c1.22,0,1.88-.58,2.21-1.06.43-.61.65-1.36.65-2.23s-.22-1.57-.65-2.18c-.34-.48-1-1.06-2.21-1.06h-23.5c-1.76,0-2.98.36-3.73,1.09-.76.74-1.13,1.94-1.13,3.68v9.16c0,1.74.37,2.94,1.13,3.68.75.73,1.97,1.09,3.73,1.09h7.03v3.79h-14.26c-1.22,0-1.88.58-2.21,1.06-.43.61-.65,1.35-.65,2.18s.22,1.61.65,2.23c.34.48,1,1.06,2.21,1.06h36.15c1.22,0,1.87-.58,2.21-1.06.43-.61.65-1.36.65-2.23s-.22-1.57-.65-2.18c-.34-.48-1-1.06-2.21-1.06Z"/>
        <path class="cls-2" d="M137.78,7.41c-.75-.5-1.63-.76-2.62-.76s-1.82.25-2.57.76c-.59.39-1.29,1.17-1.29,2.63v36.44c0,1.46.7,2.24,1.29,2.63.75.5,1.62.76,2.57.76s1.86-.25,2.62-.76c.59-.39,1.29-1.17,1.29-2.63V10.04c0-1.46-.7-2.24-1.29-2.63Z"/>
      </g>
    </g>
  </g>
</svg>