<?xml version="1.0" encoding="UTF-8"?>
<svg id="Layer_2" data-name="Layer 2" xmlns="http://www.w3.org/2000/svg" viewBox="0 0 135.9 55.82">
  <defs>
    <style>
      .cls-1 {
        fill: #005d32;
      }
    </style>
  </defs>
  <g id="_디자인" data-name="디자인">
    <g>
      <path class="cls-1" d="M109.63,7.04c-7.82,0-14.15,6.34-14.15,14.15s6.34,14.15,14.15,14.15,14.15-6.34,14.15-14.15-6.34-14.15-14.15-14.15ZM109.63,27.81c-3.65,0-6.61-2.96-6.61-6.61s2.96-6.61,6.61-6.61,6.61,2.96,6.61,6.61-2.96,6.61-6.61,6.61Z"/>
      <path class="cls-1" d="M46.09,4.2c-1.41-.94-3.4-.94-4.81,0-.56.37-1.22,1.1-1.22,2.49v11.12h-4.26V7.16c0-1.38-.66-2.12-1.22-2.49-1.38-.92-3.32-.96-4.76,0-.56.37-1.22,1.1-1.22,2.49v34.35c0,1.38.66,2.12,1.22,2.49,1.44.96,3.38.92,4.76,0,.56-.37,1.22-1.1,1.22-2.49v-16.93h4.26v18.93c0,1.38.66,2.12,1.22,2.49.7.47,1.51.71,2.4.71s1.7-.24,2.4-.71c.56-.37,1.22-1.1,1.22-2.49V6.68c0-1.38-.66-2.12-1.22-2.49Z"/>
      <path class="cls-1" d="M19.65,6.96H4.86c-1.76,0-2.98.36-3.73,1.09-.76.74-1.13,1.94-1.13,3.68v18.93c0,1.74.37,2.94,1.13,3.68.75.73,1.97,1.09,3.73,1.09h14.79c1.76,0,2.98-.36,3.73-1.09.76-.74,1.13-1.94,1.13-3.68V11.73c0-1.74-.37-2.94-1.13-3.68-.75-.73-1.97-1.09-3.73-1.09ZM17.27,14.01v14.37c0,.17-.03.24-.03.24,0,0-.07.04-.25.04H7.52c-.17,0-.24-.03-.24-.03h0s-.04-.07-.04-.25v-14.37c0-.17.03-.24.03-.24,0,0,.07-.04.25-.04h9.46c.17,0,.24.03.24.03,0,0,.04.07.04.25Z"/>
      <path class="cls-1" d="M81.35,31.79h-21.21c-1.19,0-1.83.59-2.15,1.08-.41.61-.61,1.31-.61,2.07s.21,1.51.62,2.1c.33.48.97,1.04,2.15,1.04h18.54s0,2.64,0,2.64h-16.35c-1.61,0-2.51.29-3.32,1.09-.76.74-1.13,1.94-1.13,3.68v5.56c0,1.74.37,2.94,1.13,3.68.81.79,1.72,1.09,3.32,1.09h20.44c1.18,0,1.82-.57,2.15-1.04.41-.6.62-1.31.62-2.1s-.21-1.46-.61-2.07c-.33-.49-.97-1.08-2.15-1.08h-17.77s0-2.69,0-2.69h16.35c1.61,0,2.51-.29,3.32-1.09.76-.74,1.13-1.94,1.13-3.68v-5.51c0-1.74-.37-2.94-1.13-3.68-.82-.79-1.72-1.09-3.32-1.09Z"/>
      <path class="cls-1" d="M89.76,22.47h-14.26v-3.79h9.32c1.22,0,1.88-.58,2.21-1.06.43-.61.65-1.36.65-2.23s-.22-1.57-.65-2.18c-.34-.48-1-1.06-2.21-1.06h-20.79c-.17,0-.24-.03-.24-.03h0s-.04-.07-.04-.25v-5.06c0-.17.03-.24.03-.24,0,0,.07-.04.25-.04h20.31c1.22,0,1.88-.58,2.21-1.06.43-.61.65-1.36.65-2.23s-.22-1.57-.65-2.18c-.34-.48-1-1.06-2.21-1.06h-23.5c-1.76,0-2.98.36-3.73,1.09-.76.74-1.13,1.94-1.13,3.68v9.16c0,1.74.37,2.94,1.13,3.68.75.73,1.97,1.09,3.73,1.09h7.03v3.79h-14.26c-1.22,0-1.88.58-2.21,1.06-.43.61-.65,1.35-.65,2.18s.22,1.61.65,2.23c.34.48,1,1.06,2.21,1.06h36.15c1.22,0,1.87-.58,2.21-1.06.43-.61.65-1.36.65-2.23s-.22-1.57-.65-2.18c-.34-.48-1-1.06-2.21-1.06Z"/>
      <path class="cls-1" d="M134.61,4.24c-.75-.5-1.63-.76-2.62-.76s-1.82.25-2.57.76c-.59.39-1.29,1.17-1.29,2.63v36.44c0,1.46.7,2.24,1.29,2.63.75.5,1.62.76,2.57.76s1.86-.25,2.62-.76c.59-.39,1.29-1.17,1.29-2.63V6.87c0-1.46-.7-2.24-1.29-2.63Z"/>
    </g>
  </g>
</svg>