<svg xmlns="http://www.w3.org/2000/svg" viewBox="0 0 760 260" role="img" aria-label="백운이 타입로고">
  <defs>
    <linearGradient id="faceFill" x1="0" y1="0" x2="0" y2="1">
      <stop offset="0" stop-color="#FFFFFF"/>
      <stop offset="0.72" stop-color="#FFFFFF"/>
      <stop offset="1" stop-color="#EAF8E7"/>
    </linearGradient>
    <filter id="logoLift" x="-8%" y="-8%" width="116%" height="132%">
      <feDropShadow dx="0" dy="13" stdDeviation="0" flood-color="#2F9A42" flood-opacity="1"/>
    </filter>
  </defs>

  <g filter="url(#logoLift)">
    <text x="34" y="182" font-family="Paperlogy, Malgun Gothic, sans-serif" font-size="174" font-weight="900" letter-spacing="-12" fill="none" stroke="#111111" stroke-width="22" stroke-linejoin="round" stroke-linecap="round">백운이</text>
    <text x="34" y="182" font-family="Paperlogy, Malgun Gothic, sans-serif" font-size="174" font-weight="900" letter-spacing="-12" fill="#8DDF63" stroke="#FFFFFF" stroke-width="7" stroke-linejoin="round" stroke-linecap="round">백운이</text>
    <text x="34" y="182" font-family="Paperlogy, Malgun Gothic, sans-serif" font-size="174" font-weight="900" letter-spacing="-12" fill="none" stroke="rgba(255,255,255,0.55)" stroke-width="2" stroke-linejoin="round" stroke-linecap="round">백운이</text>
  </g>

  <g aria-hidden="true">
    <path d="M585 74c-15-11-14-33 4-41 7-18 34-19 43-1 19 1 31 23 19 38 14 16 2 42-20 41-9 18-37 18-46 0-21 1-34-25 0-37z" fill="url(#faceFill)" stroke="#111111" stroke-width="7" stroke-linejoin="round"/>
    <path d="M605 92c7-18 23-21 33-2 8-8 20-6 28 4" fill="none" stroke="#2F9A42" stroke-width="6" stroke-linecap="round" stroke-linejoin="round"/>
    <circle cx="630" cy="82" r="13" fill="#8DDF63"/>
    <path d="M58 218c78 13 178 15 280 7 122-10 224-7 362 7" fill="none" stroke="#B7E7C2" stroke-width="8" stroke-linecap="round" opacity="0.78"/>
  </g>
</svg>
