<?xml version="1.0" encoding="UTF-8"?>
<svg id="Layer_1" xmlns="http://www.w3.org/2000/svg" version="1.1" viewBox="0 0 618 768">
  <!-- Generator: Adobe Illustrator 30.2.0, SVG Export Plug-In . SVG Version: 2.1.1 Build 105)  -->
  <defs>
    <style>
      .st0 {
        fill: #fa977f;
      }

      .st1 {
        fill: #90df64;
      }

      .st2 {
        fill: #fff;
      }

      .st3 {
        fill: #3c9d44;
      }
    </style>
  </defs>
  <path d="M569.63,389.4c2.08-4.77,5-11.69,6.09-16.8,3.76-17.63,1.83-36.23-4.65-52.91-7.06-18.15-19.85-32.37-35.67-43.26.47-20.56-10.15-40.67-20.01-58.05-20.89-36.81-44.49-72.41-74.85-102.16-2.16-2.12-3.98-5.88-6.23-8.08-13.42-13.02-33.47-16.89-47.75-2.84-2.85,2.81-5.81,6.34-8.64,8.82-7.51-13.5-14.04-27.82-24.25-39.68-8.76-10.18-17.33-19.46-28.5-26.96-8.24-5.53-14.19-11.64-25.1-10.65-27.19,5.24-62.73,47.53-79.33,68.84-5.43,6.97-14.66,22.69-17.34,31.07-4.23-4.21-10.71-11.94-17.24-11.5-9.8.75-17.91,7.11-24.36,14.04-24.86,26.71-42.31,58.16-60.16,89.67-7.65,13.49-13.46,32.28-10.79,47.87-3.05,1.45-6.1,3.99-8.78,6.04-16.4,12.58-28.03,32.26-29.21,53.09-.31,5.51-.23,11.46.94,16.84.93,4.29,2.69,8.64,3.87,12.87-14.55,19.69-19.13,45.91-15.76,69.8,4.71,33.36,25.56,54.69,57.58,62.81,9.15,2.33,11.76,3.02,21.47,2.03,2.97,8.36,11.8,14.32,19.17,18.7-21.14,10.6-49.19,25.28-64.83,43.68-2.15,2.9-4.24,7.36-5.29,10.69-2.79,8.88-3.36,23.87,1.61,32.21,18.21,30.49,58.42,24.43,84.01,11.07,2.29-1.19,4.56-2.44,6.79-3.74-2.97,27.5-2.91,53.13,7.27,79.31,1.82,4.69,3.71,9.39,6.31,13.71-4.43,2.18-6.58,4.23-8.21,8.94-7.06,20.4,12.48,30.58,28.75,35.81,20.27,6.51,41.77,8.66,62.31,2.13,3.43-1.11,10.86-3.21,13.5-4.96,22.19-9.63,21.12-22.91,22.14-26.06,1.68-4.86,2.36-11.41,2.59-16.47,4.95.05,9.09.29,14.04.67,2.84,2.93,3.24,4.89,4.16,8.77,1.66,4.82,3.69,16.5,10.84,23.26,10.64,8.06,23.77,14.07,27.95,15.01,21.58,6.73,44.59,3.71,65.58-3.71,8.48-3,20.51-9.25,24.49-17.81,2.55-5.47,2.01-11.85-.01-17.44-1.62-4.49-3.84-6.06-7.84-8.2,14.58-26.11,17.25-58.43,14.19-87.7,18.03,9.89,40.27,16.22,60.65,10.44,9.8-2.78,21.03-9.83,25.94-19.11,6.61-12.5,5.27-31.73-2.94-43.31-3.79-5.34-10.32-10.65-15.52-14.55-7.13-5.44-14.58-10.44-22.32-14.97-7.35-4.24-15.01-7.97-22.3-12.12,9.99-6.32,22.14-17.1,27.64-27.57,5.37,1.49,9.96,2.63,15.65,2.85,27.22,1.05,53.7-23.92,60.51-49.08,4.56-16.84,3.18-47.38-8.15-61.35ZM104.09,243.95c10.44-21.37,23.83-42.21,36.26-62.54,4.83-7.89,11.7-15.52,17.33-22.85,8.31-10.01,15.58-21.16,29.01-24.13l.4.25c4.48,2.84,13.39,12.75,16.87,12.69,4.61-2.11,9.2-13.89,12.35-18.67,1.79-3.09,6.17-10.9,8.26-13.65,10.56-13.85,22.15-28.06,34.99-40.18,9.35-8.83,29.96-28.13,43.14-28.75,5.41-.26,12.4,5.71,16.57,8.75,17.94,13.06,32.66,30.06,43.02,49.69,2.82,5.26,5.67,10.75,8.4,16.05,4.48,8.68,7.74,5.84,13.19.5,2.12-2.99,8.79-9.72,11.8-11.7,15.18-9.97,28.48.76,38.7,11.73,25.35,27.22,47.11,57.75,65.63,89.97,10.66,18.52,23.71,38.19,25.63,59.73-10.35-5.05-18.13-7.1-29.71-8.21-3.57-.34-9.21.18-12.06-1.14-5.62-2.6-11.43-7.19-16.49-10.85-4.05-2.94-8.2-5.74-12.45-8.4-9.2-5.83-13.99-7.43-24.33-10.74-23.95-7.66-52.5-.49-75.66,6.81-21.18,6.68-40.24,18-63.56,13.86-17.18-2.35-25.28-8.59-39.77-17-4.68-2.72-11.58-4.28-16.76-5.88-16.22-5.21-30.37-5.27-46.57.51-15.86,5.66-32.56,14.7-47.51,22.66-4.18,2.23-11.71,7.22-15.37,8.83-8.73,3.86-18.01,6.98-26.97,10.85.43-8.59,1.74-20.22,5.64-28.2ZM519.46,563.93c8.03,6.53,11.54,13.93,12.57,24.08,2.1,20.62-14.53,32.33-33.85,33.25-5.04.24-10.09-.08-15.05-.96-9.6-1.75-27.37-8.2-34.57-14.75-2.13-9.19-4-20.52-10.03-27.99-3.01-3.72-7.18.06-6.41,1.9,3.69,8.76,6.1,17.42,7.63,26.82,4.04,22.76,4.07,48.02-1.85,70.46-1.38,5.37-3.19,10.61-5.42,15.69-4.61,10.65-9.7,15.09,2.15,22.23,8.95,17.54-12.31,24.3-25.27,28.2-21.88,6.58-44.85,6.1-65.79-3.45-3.75-1.71-9.24-3.61-12.07-6.85-5.66-8.01-6.82-18.77-11.61-27.24-1.65-.95-7.07-6.9-8.16-7.38-3.69-1.59-15.07-.97-18.56-.14-3.15.75-3.56,10.69-4.31,13.55-1.88,7.17-3.95,15.18-8.18,21.32-2.56,2.54-13.44,7.47-16.85,8.73-24.1,8.7-50.65,7.56-73.92-3.18-10.59-4.92-18.77-11.27-12.26-23.64,2.33-1.47,4.28-2.65,6.45-4.38,2.02-7.49-1.46-10.61-4.27-17.37-13.45-32.32-12.57-70.11-3.5-103.46.61-2.25,5.06-10.71,3.83-12.01-8.05-8.49-13.82,17.16-15.09,22.06-2.7,1.71-5.29,3.85-7.85,5.43-16.07,9.71-35.5,16.1-54.33,12.31-29.88-6.02-34.48-39.26-12.03-57.39,17.79-14.36,37.05-24.54,56.67-36.31.8,0,13.6,4.8,15.9,5.51v.48c.27,20.49,61.6,50.57,80.9,50.28-8.46,12.8-12.83,28.91-9.94,44.2.4,2.27,3.31,13.79,5.82,14.32,6.38,1.36,26.15-3.12,31.87-5.21,18.86-6.88,31.01-21.64,33.22-41.33.21-1.82-.52-4.28.44-5.85l.8-.1c.81,1.44.29,5.65.65,7.7,1.76,10.11,6.22,19.04,12.5,26.97,9.02,11.68,22.18,18.53,36.28,22.1,4.52,1.14,13.75,3.99,18.16.62,1.58-1.21,1.66-3.08,1.69-4.95,5.06-6.43,7.67-11.56,8.42-19.86,1.25-14.25-3.25-28.4-12.5-39.31,27.12-1.51,56.92-16.52,75.03-36.58,2.27-2.51,3.47-5.11,4.15-8.37,5.89-1.44,9.15-2.63,14.73-5.01,18.34,10.74,37.41,21.14,53.79,34.83ZM323.96,578.03c6.31,6,11.25,12.92,16.83,19.54,1.16,1.37,3.91,4.04,5.77,4.06.65,0,.5-.1,1.07-.68.34-1.56.3-3.51-.46-4.87-3.58-6.41-13.77-19.99-20.3-22.74.59-2.02,1.39-5.24,2.37-6.99,15.03-1.74,31.92,11.47,39.3,23.19,7.85,12.46,8.87,27.38,4.07,40.96-.6,1.69-1.06,4.09-1.45,5.87-14.04-.9-29.18-6.46-39.87-15.72-10.29-9.96-16.5-20.73-17.44-35.22,4.74-2.08,6.76-3.47,10.11-7.39ZM323.65,545.29c18.35-2.28,43.08-7.29,58.72-17.37,7.62,4.05,23.83,6.69,32.45,7.93,4.25.05,8.52.57,12.71.61,4.8.05,10.12-.31,14.92-.7-23.88,23.25-45.53,31.91-78.5,35.25-9.58-7.55-22.35-15.19-35.02-11.8-1.05-4.89-1.48-7.2-3.68-11.77l-1.6-2.16ZM308.44,577.06c-24.63-2.89-13.6-28.51-3.03-30.21,1.74.04,8.06.14,9.12,1.08,9.21,8.23,7.85,27-6.09,29.13ZM297.08,583.11c1.33,12.37-3.87,24.73-12.87,33.15-11.67,10.07-24.61,11.81-39.06,14.09-.69-2.09-1.39-4.52-1.84-6.67-3.66-17.75,3.51-39.6,19.15-49.61,6.31-4.04,13.75-5.46,20.93-6.99,1.02.02,2.14,5.02,2.87,6.5-5.98,3.97-16.95,15.42-19.97,22.34-.36.82-.05,1.99.47,2.83,1.59,1.1,2.97,1.25,4.37-.32,6.31-7.07,12.19-13.41,19.22-19.82,2.24,1.69,4.37,3.01,6.73,4.5ZM284.86,559.38c-15.2,1.09-25.67,4.49-36.42,15.41-.56-.69-1.56-1.88-2.39-2.18-6.05-2.2-13.02-2.88-19.12-5.34-18.18-7.35-45.41-20.23-56.43-36.78,9.35,1.12,15.72,1.44,25.17,1.38,11.57-.39,23-2.6,33.87-6.57,11.65,12.96,39.53,21.2,56.63,21.48l4.08.12c-2.65,4.72-3.74,7.48-5.37,12.49ZM554.84,472.39c-10.32,10.49-24.24,19.7-39.64,17.97-6.08-.69-11.26-1.28-17.53-1.1-3.1,2.29-6.85,7.25-9.53,10.29-3.04,3.42-6.33,6.6-9.85,9.51-18.96,15.76-38.65,18.85-62.5,16.62-8.12-1.07-18.24-2.99-26.05-5.4-.57-.89-1.15-1.82-1.87-2.6-2.69-2.92-11.08,2.28-14.06,3.8-23.01,11.76-61.62,17.01-87.4,15.38-16.21-1.02-30.47-5.6-44.52-13.66-2.28-1.31-5.83-2.85-7.51-4.84-.58-.69-1.15-1.44-1.82-2.04-.92-.82-2.15-.8-3.3-.65-3.77.49-7.56,2.26-11.25,3.25-5.14,1.38-10.58,2.12-15.86,2.68-24.63,2.59-48.37-2.59-68.1-18.01-3.43-2.68-6.62-9.22-10.21-10.86-3.28-1.5-10.76-.61-14.67-.89-12.04-.85-28.46-9.65-37.8-17.33-23.54-19.36-25.77-59.61-15.94-86.47,1.21-3.3,2.67-6.54,4.22-9.68,1.39-2.82,5.81-9.59,6.14-12.27.71-5.7-3.23-13.77-3.8-19.99-1.53-16.63,4.16-32.94,14.81-45.68,7.12-8.52,16.44-15.23,25.97-20.8,9.39-5.48,20.36-7.87,30.23-12.36,5.45-2.48,10.66-5.52,15.95-8.33,18.43-9.8,40.35-21.82,61.29-23.65,2.95-.21,8.84-.37,11.54.13,6.55,1.21,21.04,5.61,26.32,8.64,16.05,9.22,21.84,15.24,41.06,17.46,27.24,3.15,44.91-5.74,69.73-14.51,8.73-3.08,22.76-5.85,31.95-7.62,7.92-1.52,19.05-2.55,26.94-1.21,18.55,3.15,30.6,10.03,45.31,21.3,4.2,3.21,11.06,7.81,15.84,10.2,4.45,2.22,11.94,1.56,17.16,2.13,6.23.63,12.54,1.68,18.4,3.96,38.66,15.01,60.29,55.1,53.1,95.71-1.09,6.15-3.99,13.97-6.26,19.78,14.51,22.91,13.52,61.8-6.51,81.14Z"/>
  <path class="st2" d="M567.6,371.47c7.18-40.61-14.44-80.7-53.1-95.71-5.86-2.28-12.18-3.32-18.4-3.96-5.22-.57-12.71.09-17.16-2.13-4.78-2.39-11.64-6.98-15.84-10.2-14.71-11.27-26.75-18.15-45.31-21.3-7.89-1.34-19.02-.31-26.94,1.21-9.19,1.76-23.21,4.53-31.95,7.62-24.82,8.77-42.49,17.66-69.73,14.51-19.22-2.22-25.01-8.25-41.06-17.46-5.28-3.03-19.77-7.43-26.32-8.64-2.7-.5-8.59-.34-11.54-.13-20.94,1.83-42.86,13.85-61.29,23.65-5.29,2.81-10.5,5.85-15.95,8.33-9.87,4.49-20.85,6.88-30.23,12.36-9.53,5.57-18.85,12.28-25.97,20.8-10.65,12.74-16.34,29.05-14.81,45.68.57,6.22,4.51,14.29,3.8,19.99-.33,2.67-4.75,9.45-6.14,12.27-1.55,3.15-3.02,6.39-4.22,9.68-9.83,26.86-7.6,67.12,15.94,86.47,9.34,7.68,25.76,16.47,37.8,17.33,3.91.27,11.39-.61,14.67.89,3.59,1.64,6.78,8.18,10.21,10.86,19.73,15.42,43.47,20.6,68.1,18.01,5.28-.55,10.73-1.3,15.86-2.68,3.69-.99,7.48-2.75,11.25-3.25,1.15-.15,2.38-.18,3.3.65.67.6,1.24,1.35,1.82,2.04,1.68,1.99,5.23,3.53,7.51,4.84,14.04,8.07,28.31,12.64,44.52,13.66,25.78,1.63,64.39-3.62,87.4-15.38,2.99-1.53,11.38-6.72,14.06-3.8.72.78,1.3,1.71,1.87,2.6,7.82,2.41,17.93,4.33,26.05,5.4,23.85,2.22,43.54-.87,62.5-16.62,3.52-2.91,6.81-6.09,9.85-9.51,2.67-3.03,6.42-8,9.53-10.29,6.27-.18,11.46.42,17.53,1.1,15.4,1.73,29.31-7.48,39.64-17.97,20.03-19.34,21.02-58.23,6.51-81.14,2.26-5.81,5.17-13.63,6.26-19.78ZM160.69,459.78c-21.47,2.8-41.16-12.28-44.04-33.74-2.88-21.46,12.14-41.2,33.59-44.15,21.55-2.96,41.41,12.15,44.3,33.71,2.89,21.56-12.28,41.37-33.85,44.19ZM298.62,395.14c1.94-2.32,2.88-3.27,5.49-4.71,4.78-.4,5.89.89,8.76,4.35,8.6,2.43,8.22,8.84-.29,10.02-1.73,1.97-2.71,2.83-5,3.96-4.36.78-5.93-1-8.63-3.98-1.17-.28-3.18-.53-4.02-1.32-5.07-4.71-1.7-8.05,3.7-8.32ZM232.18,397.77c-3.4.05-6.73-.98-9.52-2.94-14.4-10.17-10.79-39.41,9.54-42.6,21.38-1.31,26.28,41.47-.03,45.54ZM345.49,426.41c-6.26,6.16-18.33,8.3-26.8,7.28-5.98-.72-9.2-3.79-13.75-7.37-.99,1.14-2.06,2.19-3.22,3.16-15.41,12.69-49.95-4.07-35.88-13.25.52,0,2.21,0,2.5.27,3.13,2.89,4.63,5.29,8.89,6.92,5.81,2.23,13.32,3.44,19.07.37,2.8-1.49,4.7-3.06,7.76-4.3l.44-.17c5.1,1.69,8.92,4.32,13.42,5.74,6.01,1.9,15.3-1.03,20.64-4.05.13-.23.26-.46.39-.69,4.59-7.97,12.62-2.43,6.53,6.1ZM382.6,397.44c-23.16,1.36-26.72-39.41-1.99-44.88,3.27-.3,6.55.47,9.34,2.2,14.92,9.08,12.28,38.23-7.34,42.68ZM459.56,459.07c-21.61,1.98-40.74-13.94-42.72-35.55-1.98-21.61,13.93-40.74,35.55-42.72,21.62-1.98,40.75,13.93,42.73,35.55,1.98,21.61-13.94,40.74-35.56,42.72Z"/>
  <path class="st0" d="M452.39,380.8c-21.61,1.98-37.53,21.11-35.55,42.72,1.98,21.61,21.1,37.53,42.72,35.55,21.62-1.98,37.54-21.1,35.56-42.72-1.98-21.62-21.11-37.54-42.73-35.55Z"/>
  <path class="st0" d="M150.24,381.89c-21.45,2.95-36.47,22.7-33.59,44.15,2.88,21.45,22.57,36.54,44.04,33.74,21.57-2.82,36.75-22.63,33.85-44.19-2.89-21.56-22.75-36.67-44.3-33.71Z"/>
  <path d="M232.21,352.23c-20.33,3.18-23.95,32.43-9.54,42.6,2.78,1.96,6.11,2.99,9.52,2.94,26.31-4.07,21.41-46.85.03-45.54ZM233.81,377.52c-3.53.43-7.02-1.07-9.13-3.94-2.11-2.87-2.51-6.65-1.04-9.89,1.46-3.24,4.56-5.44,8.1-5.76,5.35-.48,10.1,3.43,10.67,8.78.57,5.35-3.26,10.16-8.6,10.81Z"/>
  <path class="st2" d="M231.74,357.94c-3.54.32-6.64,2.52-8.1,5.76-1.46,3.24-1.06,7.02,1.04,9.89,2.11,2.86,5.6,4.37,9.13,3.94,5.34-.65,9.16-5.46,8.6-10.81-.56-5.35-5.31-9.25-10.67-8.78Z"/>
  <path d="M389.94,354.77c-2.79-1.73-6.07-2.51-9.34-2.2-24.72,5.47-21.16,46.24,1.99,44.88,19.62-4.45,22.26-33.6,7.34-42.68ZM384.48,378.16c-5.3,1.35-10.68-1.87-11.99-7.18-1.31-5.31,1.96-10.66,7.27-11.93,5.25-1.25,10.54,1.97,11.83,7.21,1.29,5.24-1.88,10.55-7.12,11.89Z"/>
  <path class="st2" d="M379.77,359.06c-5.32,1.27-8.58,6.62-7.27,11.93,1.31,5.31,6.69,8.53,11.99,7.18,5.23-1.34,8.41-6.64,7.12-11.89-1.29-5.25-6.58-8.47-11.83-7.21Z"/>
  <path d="M338.96,420.31c-.13.23-.26.46-.39.69-5.34,3.03-14.63,5.96-20.64,4.05-4.5-1.42-8.32-4.05-13.42-5.74l-.44.17c-3.06,1.24-4.96,2.81-7.76,4.3-5.75,3.07-13.26,1.86-19.07-.37-4.26-1.63-5.76-4.03-8.89-6.92-.3-.27-1.98-.27-2.5-.27-14.07,9.18,20.47,25.94,35.88,13.25,1.16-.96,2.23-2.02,3.22-3.16,4.55,3.58,7.77,6.65,13.75,7.37,8.47,1.02,20.55-1.12,26.8-7.28,6.09-8.54-1.95-14.07-6.53-6.1Z"/>
  <path d="M298.95,404.78c2.71,2.98,4.28,4.76,8.63,3.98,2.29-1.12,3.27-1.99,5-3.96,8.51-1.18,8.89-7.59.29-10.02-2.86-3.45-3.98-4.75-8.76-4.35-2.61,1.44-3.55,2.39-5.49,4.71-5.4.27-8.76,3.61-3.7,8.32.84.78,2.85,1.03,4.02,1.32Z"/>
  <path class="st3" d="M140.79,252.47c14.95-7.96,31.65-17,47.51-22.66,16.2-5.78,30.36-5.72,46.57-.51,5.18,1.6,12.08,3.16,16.76,5.88,14.49,8.41,22.59,14.66,39.77,17,23.31,4.14,42.37-7.18,63.56-13.86,23.15-7.3,51.71-14.47,75.66-6.81,10.34,3.31,15.12,4.91,24.33,10.74,4.24,2.65,8.4,5.46,12.45,8.4,5.06,3.65,10.87,8.25,16.49,10.85,2.85,1.32,8.49.8,12.06,1.14,11.58,1.11,19.36,3.15,29.71,8.21-1.93-21.55-14.97-41.22-25.63-59.73-18.52-32.22-40.28-62.74-65.63-89.97-10.22-10.97-23.51-21.7-38.7-11.73-3.02,1.98-9.69,8.71-11.8,11.7.11,3.2-4.92,8.2-7.16,10.6-17.5,18.7-36.81,39.42-64.05,41.12-18.27,1.14-29.02-11.53-37.18-26.16-8.29,9.75-16.29,19.42-30.03,20.65-6.16.55-12.97-.86-17.68-4.99-7.69-6.74-9.63-16.68-10.56-26.37-.1-1.05-.67-6.46-.92-7.26-3.15,4.78-7.74,16.56-12.35,18.67-3.48.06-12.39-9.85-16.87-12.69l-.4-.25c-13.43,2.97-20.7,14.12-29.01,24.13-5.63,7.33-12.5,14.96-17.33,22.85-12.43,20.33-25.82,41.17-36.26,62.54-3.9,7.98-5.2,19.61-5.64,28.2,8.95-3.87,18.24-6.99,26.97-10.85,3.65-1.61,11.18-6.6,15.37-8.83Z"/>
  <path class="st1" d="M227.79,162.33c4.71,4.13,11.52,5.54,17.68,4.99,13.73-1.23,21.73-10.9,30.03-20.65,8.16,14.63,18.91,27.3,37.18,26.16,27.24-1.7,46.55-22.42,64.05-41.12,2.25-2.4,7.28-7.4,7.16-10.6-5.45,5.34-8.71,8.17-13.19-.5-2.74-5.29-5.58-10.78-8.4-16.05-10.36-19.63-25.07-36.63-43.02-49.69-4.17-3.05-11.16-9.01-16.57-8.75-13.18.62-33.79,19.93-43.14,28.75-12.84,12.12-24.43,26.33-34.99,40.18-2.09,2.75-6.48,10.55-8.26,13.65.25.79.82,6.21.92,7.26.92,9.7,2.86,19.63,10.56,26.37Z"/>
  <path class="st2" d="M450.94,534.11c-.69,3.26-1.88,5.86-4.15,8.37-18.11,20.06-47.91,35.07-75.03,36.58,9.24,10.91,13.74,25.07,12.5,39.31-.75,8.3-3.36,13.42-8.42,19.86-.03,1.87-.11,3.74-1.69,4.95-4.41,3.37-13.64.52-18.16-.62-14.1-3.57-27.26-10.42-36.28-22.1-6.28-7.92-10.74-16.86-12.5-26.97-.36-2.04.16-6.25-.65-7.7l-.8.1c-.96,1.56-.24,4.02-.44,5.85-2.21,19.68-14.36,34.44-33.22,41.33-5.73,2.08-25.5,6.57-31.87,5.21-2.51-.54-5.42-12.06-5.82-14.32-2.88-15.3,1.48-31.41,9.94-44.2-19.29.28-80.63-29.79-80.89-50.28v-.48c-2.31-.71-15.11-5.51-15.91-5.51-19.62,11.77-38.89,21.95-56.67,36.31-22.45,18.13-17.86,51.37,12.03,57.39,18.82,3.79,38.26-2.6,54.33-12.31,2.55-1.58,5.15-3.72,7.85-5.43,1.27-4.9,7.04-30.56,15.09-22.06,1.23,1.3-3.21,9.76-3.83,12.01-9.07,33.35-9.95,71.13,3.5,103.46,2.82,6.77,6.29,9.89,4.27,17.37-2.16,1.73-4.12,2.92-6.45,4.38-6.51,12.36,1.67,18.71,12.26,23.64,23.26,10.74,49.82,11.88,73.92,3.18,3.41-1.26,14.3-6.18,16.85-8.73,4.23-6.14,6.3-14.15,8.18-21.32.75-2.86,1.16-12.8,4.31-13.55,3.49-.83,14.87-1.45,18.56.14,1.1.47,6.52,6.43,8.16,7.38,4.79,8.46,5.96,19.23,11.61,27.24,2.83,3.24,8.32,5.14,12.07,6.85,20.94,9.56,43.91,10.04,65.79,3.45,12.96-3.9,34.22-10.66,25.27-28.2-11.85-7.14-6.77-11.58-2.15-22.23,2.23-5.08,4.04-10.32,5.42-15.69,5.92-22.44,5.89-47.7,1.85-70.46-1.53-9.4-3.94-18.06-7.63-26.82-.78-1.84,3.4-5.62,6.41-1.9,6.03,7.47,7.9,18.8,10.03,27.99,7.2,6.55,24.97,13,34.57,14.75,4.96.88,10.02,1.2,15.05.96,19.32-.92,35.96-12.63,33.85-33.25-1.04-10.15-4.54-17.55-12.57-24.08-16.38-13.69-35.44-24.08-53.79-34.83-5.58,2.39-8.84,3.57-14.73,5.01Z"/>
  <path class="st1" d="M190.52,532.22c10.28,13.5,26.68,20.55,43.12,22.78,15.24,1.97,30.72.49,45.32-4.31,2.01-.67,6.28-1.94,7.64-3.4l-.44-.53c-17.09-.28-44.98-8.52-56.63-21.48-10.87,3.97-22.3,6.19-33.87,6.57-1.3.55-3.62.37-5.14.36Z"/>
  <path class="st3" d="M286.6,547.3c-1.36,1.46-5.63,2.72-7.64,3.4-14.59,4.81-30.08,6.28-45.32,4.31-16.44-2.23-32.84-9.29-43.12-22.78,1.52,0,3.84.19,5.14-.36-9.45.07-15.82-.26-25.17-1.38,11.02,16.55,38.24,29.43,56.43,36.78,6.1,2.46,13.07,3.14,19.12,5.34.83.3,1.83,1.49,2.39,2.18,10.75-10.91,21.22-14.31,36.42-15.41,1.63-5.01,2.72-7.77,5.37-12.49l-4.08-.12.44.53Z"/>
  <path class="st3" d="M373.68,551.71c-12.23,2.45-26.19,2.88-38.36-.51-4.21-1.17-6.63-2.57-10.08-3.75,2.2,4.57,2.63,6.87,3.68,11.77,12.67-3.38,25.43,4.25,35.02,11.8,32.97-3.34,54.62-12,78.5-35.25-4.8.39-10.12.75-14.92.7-4.18-.04-8.46-.57-12.71-.61-4.04,6.11-33.18,14.25-41.13,15.85Z"/>
  <path class="st1" d="M335.33,551.2c12.17,3.39,26.12,2.96,38.36.51,7.96-1.6,37.09-9.74,41.13-15.85-8.62-1.24-24.83-3.88-32.45-7.93-15.64,10.09-40.37,15.09-58.72,17.37l1.6,2.16c3.44,1.18,5.86,2.58,10.08,3.75Z"/>
  <path class="st3" d="M313.85,585.42c.94,14.49,7.15,25.26,17.44,35.22,10.68,9.26,25.82,14.82,39.87,15.72.4-1.78.85-4.18,1.45-5.87,4.81-13.58,3.79-28.5-4.07-40.96-7.38-11.72-24.27-24.93-39.3-23.19-.97,1.75-1.78,4.97-2.37,6.99,6.53,2.74,16.72,16.33,20.3,22.74.76,1.36.8,3.31.46,4.87-.57.58-.42.68-1.07.68-1.86-.02-4.61-2.68-5.77-4.06-5.58-6.62-10.52-13.54-16.83-19.54-3.36,3.92-5.37,5.31-10.11,7.39Z"/>
  <path class="st3" d="M271.13,598.43c-1.4,1.57-2.78,1.41-4.37.32-.52-.84-.83-2.01-.47-2.83,3.02-6.92,13.99-18.37,19.97-22.34-.73-1.48-1.85-6.48-2.87-6.5-7.18,1.52-14.62,2.95-20.93,6.99-15.64,10.01-22.81,31.86-19.15,49.61.45,2.16,1.15,4.59,1.84,6.67,14.45-2.27,27.39-4.01,39.06-14.09,9.01-8.42,14.2-20.78,12.87-33.15-2.36-1.49-4.49-2.8-6.73-4.5-7.03,6.4-12.92,12.75-19.22,19.82Z"/>
  <path class="st3" d="M314.53,547.93c-1.06-.95-7.38-1.04-9.12-1.08-10.57,1.71-21.6,27.32,3.03,30.21,13.94-2.13,15.3-20.9,6.09-29.13Z"/>
</svg>