<?xml version="1.0" encoding="UTF-8"?>
<svg id="Layer_2" data-name="Layer 2" xmlns="http://www.w3.org/2000/svg" viewBox="0 0 381.33 527.58">
  <defs>
    <style>
      .cls-1 {
        fill: #f89c87;
      }

      .cls-2 {
        fill: #42944b;
      }

      .cls-2, .cls-3, .cls-4, .cls-5, .cls-6, .cls-7, .cls-8 {
        fill-rule: evenodd;
      }

      .cls-3 {
        fill: #fff;
      }

      .cls-3, .cls-9, .cls-10, .cls-11 {
        stroke: #000;
      }

      .cls-3, .cls-9, .cls-11 {
        stroke-linejoin: round;
      }

      .cls-3, .cls-10, .cls-11 {
        stroke-width: 7px;
      }

      .cls-4 {
        fill: #8dd164;
      }

      .cls-5 {
        fill: #8ed165;
      }

      .cls-9 {
        stroke-width: 6px;
      }

      .cls-9, .cls-11 {
        fill: none;
        stroke-linecap: round;
      }

      .cls-7 {
        fill: #131211;
      }

      .cls-12, .cls-10 {
        fill: #fefefe;
      }

      .cls-10 {
        stroke-miterlimit: 10;
      }

      .cls-8 {
        fill: #47914a;
      }
    </style>
  </defs>
  <g id="Layer_1-2" data-name="Layer 1">
    <g>
      <g>
        <g>
          <path class="cls-10" d="M113.47,334.58s-92.79,69.56-59.19,100.97c36.9,34.49,88.93-73,88.93-73l-29.74-27.97Z"/>
          <path class="cls-10" d="M267.86,334.58s92.79,69.56,59.19,100.97c-36.9,34.49-88.93-73-88.93-73l29.74-27.97Z"/>
        </g>
        <path class="cls-12" d="M191.27,332.03h-82.74s1.54,28.16,1.84,31.42c1.01,11.09-3.22,25.78-3.88,28.43-5.07,22.64-6.48,45.95-2.96,69.18,2.56,16.9,5.54,30.14,7.32,34.93-28.3,29.57,37.53,33.13,54.35,22.92,19.79-9.19,7.44-30.8,17.59-38.86,1.14-.48,4.46-.67,7.87-.63,3.41-.03,6.73.15,7.87.63,10.15,8.06-2.2,29.67,17.59,38.86,16.82,10.21,82.65,6.65,54.35-22.92,1.78-4.79,4.76-18.02,7.32-34.93,3.52-23.23,2.11-46.54-2.96-69.18-.66-2.65-4.89-17.34-3.88-28.43.3-3.26,1.84-31.42,1.84-31.42h-82.74"/>
        <path class="cls-11" d="M106.49,391.88c-5.07,22.64-6.48,45.95-2.96,69.18,2.56,16.9,5.54,30.14,7.32,34.93-28.3,29.57,37.53,33.13,54.35,22.92,19.79-9.19,7.44-30.8,17.59-38.86,1.14-.48,4.46-.67,7.87-.63,3.41-.03,6.73.15,7.87.63,10.15,8.06-2.2,29.67,17.59,38.86,16.82,10.21,82.65,6.65,54.35-22.92,1.78-4.79,4.76-18.02,7.32-34.93,3.52-23.23,2.11-46.54-2.96-69.18"/>
      </g>
      <g>
        <path class="cls-8" d="M288.65,328.53s-20.46,43.25-97.9,46.13c-77.44,2.89-96.49-42.02-96.49-42.02l194.39-4.12h0Z"/>
        <path d="M288.65,328.53s-20.46,43.25-97.9,46.13c-2.41.09-4.77.13-7.07.13-71.54,0-89.43-42.15-89.43-42.15l194.39-4.12M299.82,321.29l-11.32.24-194.39,4.12-10.33.22,4.04,9.51c.21.5,5.34,12.33,20,23.85,13.11,10.3,36.91,22.57,75.87,22.57,2.4,0,4.87-.05,7.33-.14,41.82-1.56,67.65-14.76,81.95-25.56,15.98-12.07,21.78-24.07,22.02-24.58l4.84-10.23h0Z"/>
        <path class="cls-5" d="M115.49,332.2s-7.97,21.99,40.89,28.31c48.86,6.32,85.08-10.35,103.48-24.72,4.27-3.34-1.22-5.32-12.18-6.39l-132.19,2.8h0Z"/>
        <path class="cls-8" d="M138.06,406.61c-.38-3.83,2.12-9.14,2.81-12.93,1.49-8.27,5.83-16.93,12.34-23.2,9.5-9.14,19.57-10.63,31.69-8.95,1.21,12.18-2.97,24.78-12.46,33.92-9.5,9.14-22.25,12.84-34.37,11.16h0Z"/>
        <path class="cls-6" d="M130.77,407.33c-.23-2.29.12-4.96.82-7.67.66-2.54,1.68-5.16,2.06-7.28,1.74-9.69,6.84-19.84,14.47-27.18,11.34-10.91,23.29-12.93,37.77-10.92,3.35.46,5.94,3.16,6.28,6.52,1.43,14.34-3.49,29.16-14.67,39.92-11.18,10.76-26.18,15.11-40.45,13.13-3.35-.46-5.94-3.16-6.28-6.52h0ZM138.06,406.61c12.13,1.68,24.88-2.02,34.37-11.16,9.5-9.14,13.68-21.74,12.46-33.92-12.13-1.68-22.2-.19-31.69,8.95-6.51,6.27-10.85,14.93-12.34,23.2-.68,3.79-3.19,9.1-2.81,12.93h0Z"/>
        <path class="cls-8" d="M237.8,406.97s-9.11-2.24-12.89-2.97c-8.25-1.59-16.86-6.04-23.05-12.63-9.02-9.61-10.38-19.7-8.55-31.8,12.2-1.06,29.54,11.54,38.56,21.15,9.02,9.61,5.93,26.25,5.93,26.25h0Z"/>
        <path class="cls-6" d="M236.05,414.08s-8.86-2.18-12.54-2.89c-9.67-1.86-19.75-7.09-26.99-14.81-10.77-11.47-12.63-23.45-10.45-37.9.5-3.34,3.23-5.91,6.6-6.2,6.05-.53,13.18,1.42,20.2,4.99,9.26,4.71,18.43,12.16,24.33,18.44,11.23,11.97,7.79,32.6,7.79,32.6-.37,1.98-1.53,3.72-3.23,4.81-1.69,1.09-3.76,1.44-5.71.96h0ZM237.8,406.97s3.09-16.64-5.93-26.25c-9.02-9.61-26.36-22.21-38.56-21.15-1.83,12.11-.47,22.19,8.55,31.8,6.18,6.59,14.79,11.04,23.05,12.63,3.78.73,12.89,2.97,12.89,2.97h0Z"/>
        <path class="cls-11" d="M184.4,360.93c-12.11,18.42-20.39,15.05-31.45,31.83M190.39,358.54c20.19,12.99,24.38,21.21,32.2,29.94"/>
        <path class="cls-8" d="M190.8,351.66c5.3,0,9.6,4.15,9.6,9.26s-4.3,9.26-9.6,9.26-10.42-2.11-10.42-7.22,5.12-11.3,10.42-11.3h0Z"/>
        <path class="cls-6" d="M190.8,344.35c9.41,0,16.92,7.5,16.92,16.58s-7.51,16.58-16.92,16.58-17.73-5.29-17.73-14.54c0-4.17,1.9-8.86,5.07-12.43,3.38-3.8,8.06-6.19,12.67-6.19h0ZM190.8,351.66c-5.3,0-10.42,6.19-10.42,11.3s5.12,7.22,10.42,7.22,9.6-4.15,9.6-9.26-4.3-9.26-9.6-9.26h0Z"/>
        <path class="cls-2" d="M252.73,62.57c3.84,4.81,9.26,13.05,9.26,13.05,0,0,8.9-7.34,13.52-8.51,20.99-5.29,71.56,79.06,66.81,91.34-3.8-2.04-7.84-3.74-12.07-5.04-6.46-1.76-14.17-2.07-20.07-5.51-14.28-8.34-25.67-20.88-43.49-21.21-10.92-.2-22.44,1.21-32.86,4.49-14.06,4.43-28.48,10.33-43.16,10.68-14.69-.35-29.11-6.24-43.16-10.68-10.42-3.29-21.94-4.7-32.86-4.49-17.82.33-29.21,12.87-43.49,21.21-5.9,3.45-13.6,3.76-20.07,5.51-2.57.79-5.07,1.73-7.49,2.8.14-.5.28-1.01.38-1.54,5.39-28.04,51.15-91.49,68.44-102.76,4.26-2.78,5.97-2.95,10.08-.27,2.9,1.89,7,5.21,14.05,10.04,1.96.2,12.11-14.17,15.86-19.71,9.58-14.14,29.86-45.43,50.2-31.47,17.74,12.17,48.17,49.02,50.04,51.92l.08.14h0Z"/>
        <path d="M191.96,7c3.51,0,7.08,1.06,10.65,3.51,17.74,12.17,48.17,49.02,50.04,51.92l.08.14c3.84,4.81,9.26,13.05,9.26,13.05,0,0,8.9-7.34,13.52-8.51.64-.16,1.3-.24,1.99-.24,22.02,0,69.43,79.67,64.82,91.58-3.8-2.04-7.84-3.74-12.07-5.04-6.46-1.76-14.17-2.07-20.07-5.51-14.28-8.34-25.68-20.88-43.49-21.21-.68-.01-1.36-.02-2.05-.02-10.31,0-21.04,1.43-30.81,4.51-14.06,4.43-28.48,10.33-43.16,10.68-14.69-.35-29.11-6.24-43.16-10.68-9.77-3.08-20.51-4.51-30.81-4.51-.68,0-1.37,0-2.05.02-17.82.33-29.21,12.87-43.49,21.21-5.9,3.45-13.6,3.76-20.07,5.51-2.57.79-5.07,1.73-7.49,2.8.14-.5.28-1.01.38-1.54,5.39-28.04,51.15-91.49,68.44-102.76,2.22-1.44,3.74-2.19,5.27-2.19,1.41,0,2.83.63,4.8,1.92,2.9,1.89,7,5.21,14.05,10.04.01,0,.03,0,.04,0,2.06,0,12.09-14.21,15.82-19.71,7.9-11.66,23.07-34.98,39.56-34.98M191.96,0h0c-19.64,0-35.21,23.05-44.52,36.82l-.83,1.23c-3.83,5.65-7.95,11.27-10.69,14.65-1.69-1.22-3.17-2.3-4.47-3.26-2.05-1.51-3.66-2.7-5.14-3.66-2.31-1.51-5.15-3.05-8.63-3.05-3.69,0-6.63,1.71-9.1,3.32-11.15,7.27-28.86,29.86-40.63,46.99-8.04,11.71-27.16,41.02-30.87,60.31-.05.25-.12.54-.23.91l-4.17,14.43,13.73-6.08c2.14-.95,4.36-1.78,6.6-2.48,1.81-.48,3.82-.86,5.95-1.26,5-.94,10.67-2,15.69-4.93,4.13-2.41,7.97-5.11,11.68-7.71,9.43-6.62,17.58-12.35,28.41-12.54.64-.01,1.28-.02,1.92-.02,10.09,0,20.02,1.45,28.71,4.19,2.65.83,5.39,1.75,8.03,2.63,11.88,3.96,24.16,8.06,37.07,8.37h.17s.17,0,.17,0c12.92-.3,25.2-4.4,37.07-8.37,2.65-.88,5.39-1.8,8.03-2.63,8.69-2.74,18.61-4.19,28.71-4.19.64,0,1.28,0,1.92.02,10.84.2,18.98,5.92,28.41,12.54,3.71,2.61,7.54,5.3,11.68,7.71,5.03,2.93,10.69,4,15.7,4.93,2.13.4,4.15.78,5.96,1.26,3.7,1.15,7.3,2.65,10.7,4.48l6.98,3.75,2.86-7.39c1.35-3.49,1.87-9.69-6.2-26.83-4.99-10.6-12.29-23.17-20.03-34.47-7.45-10.87-14.97-20.13-21.75-26.77-8.95-8.77-16.6-13.04-23.37-13.04-1.27,0-2.51.15-3.7.45-3.09.78-6.92,3.05-10.15,5.28-1.63-2.34-3.51-4.95-5.17-7.06-2.36-3.48-33.08-40.89-51.91-53.81-4.58-3.14-9.49-4.73-14.61-4.73h0Z"/>
        <path class="cls-4" d="M136.54,61.69c1.96.2,12.11-14.17,15.86-19.71,9.58-14.14,29.86-45.43,50.2-31.47,17.74,12.17,48.17,49.02,50.04,51.92.05.09.08.14.08.14,0,0,.69,16.39-9.68,23.37-11.53,7.76-24.3-1.93-30.53-11.71-6.9,11.32-16.93,23.5-32.13,19.38-14.66-3.97-32.59-22.81-43.85-31.92h0Z"/>
        <path class="cls-3" d="M342.32,158.45c.67.36,1.32.73,1.98,1.11,22.04,12.84,35.23,37.58,27.71,63.96-.95,3.35-2.66,6.96-3.43,10.12,1.33,3.25,3.3,5.98,4.67,9.34,11.15,27.47,1.89,58.43-26.43,70.35-10.02,4.22-15.51,2.38-25.6,3.04-10.55,19.8-51.19,39.03-92.09,21.24-6.93,5.07-22.28,15.31-36.84,14.43-.52-.03-1.06-.07-1.61-.1-.56.04-1.1.07-1.61.1-14.56.88-29.9-9.37-36.84-14.43-40.89,17.79-81.53-1.44-92.09-21.24-10.09-.66-15.58,1.18-25.6-3.04-28.32-11.92-37.58-42.87-26.43-70.35,1.36-3.36,3.33-6.09,4.67-9.34-.78-3.16-2.48-6.77-3.43-10.12-7.52-26.38,5.67-51.12,27.71-63.96,2.11-1.23,4.29-2.34,6.55-3.34,2.42-1.07,4.92-2.01,7.49-2.8,6.46-1.76,14.17-2.07,20.07-5.51,14.28-8.34,25.67-20.88,43.49-21.21,10.92-.2,22.44,1.21,32.86,4.49,14.06,4.43,28.48,10.33,43.16,10.68,14.68-.35,29.11-6.24,43.16-10.68,10.42-3.29,21.94-4.7,32.86-4.49,17.82.33,29.21,12.87,43.49,21.21,5.9,3.45,13.6,3.76,20.07,5.51,4.23,1.3,8.27,3,12.07,5.04h0Z"/>
        <path class="cls-1" d="M85.36,238.15c16.38-.02,29.67,13.26,29.67,29.64s-13.29,29.65-29.67,29.64c-16.36-.01-29.61-13.28-29.61-29.64s13.25-29.62,29.61-29.64"/>
        <path class="cls-1" d="M295.92,238.15c16.38-.02,29.66,13.26,29.67,29.64,0,16.38-13.29,29.65-29.67,29.64-16.36-.01-29.61-13.28-29.61-29.64s13.25-29.62,29.61-29.64"/>
        <path class="cls-7" d="M137.72,212.12c8.68,0,15.72,7.04,15.72,15.72s-7.04,15.72-15.72,15.72-15.72-7.04-15.72-15.72,7.04-15.72,15.72-15.72h0Z"/>
        <path class="cls-7" d="M244.41,212.12c8.68,0,15.72,7.04,15.72,15.72s-7.04,15.72-15.72,15.72-15.72-7.04-15.72-15.72,7.04-15.72,15.72-15.72h0Z"/>
        <path class="cls-7" d="M192.89,233.17c6.58,0,11.92,3.31,11.92,7.38s-5.34,7.38-11.92,7.38-11.92-3.31-11.92-7.38,5.34-7.38,11.92-7.38h0Z"/>
        <path class="cls-9" d="M156.7,263.02c0,15.45,32.79,17.45,36.19,0,3.26,17.45,36.19,17.45,36.19,0"/>
      </g>
    </g>
  </g>
</svg>