<?xml version="1.0" encoding="UTF-8"?>
<svg id="Layer_2" data-name="Layer 2" xmlns="http://www.w3.org/2000/svg" viewBox="0 0 279.96 534.24">
  <defs>
    <style>
      .cls-1 {
        fill: #fefefe;
      }

      .cls-1, .cls-2, .cls-3, .cls-4, .cls-5, .cls-6 {
        stroke: #000;
      }

      .cls-1, .cls-2, .cls-4, .cls-5, .cls-6 {
        stroke-width: 7px;
      }

      .cls-1, .cls-2, .cls-4, .cls-6 {
        stroke-miterlimit: 10;
      }

      .cls-1, .cls-3, .cls-4, .cls-5 {
        stroke-linecap: round;
      }

      .cls-7 {
        fill: #f89c87;
      }

      .cls-8 {
        fill: #fff;
      }

      .cls-2, .cls-9, .cls-10, .cls-4, .cls-11, .cls-12 {
        fill-rule: evenodd;
      }

      .cls-2, .cls-3, .cls-5, .cls-6 {
        fill: none;
      }

      .cls-13, .cls-4 {
        fill: #3c9c45;
      }

      .cls-9 {
        fill: #8dd164;
      }

      .cls-10 {
        fill: #8ed165;
      }

      .cls-3 {
        stroke-width: 6px;
      }

      .cls-3, .cls-5 {
        stroke-linejoin: round;
      }

      .cls-11 {
        fill: #131211;
      }

      .cls-12 {
        fill: #47914a;
      }
    </style>
  </defs>
  <g id="Layer_1-2" data-name="Layer 1">
    <g>
      <g>
        <path class="cls-8" d="M60.78,474.48c-2.92,0-5.43-1.91-7.64-3.6-.8-.61-1.79-1.37-2.34-1.62-.01,0-.06,0-.06,0-.32,0-.83.08-1.36.17-.8.13-1.8.29-2.89.29h0c-2.6,0-4.9-.95-6.83-2.82-3.48-3.37-2.68-7.41-2.16-10.09.25-1.26.5-2.56.2-3.13-.23-.45-.62-.85-1.11-1.36-1.43-1.48-3.58-3.71-2.89-8.44.83-5.63,5.36-12.09,12.15-12.97,1.27-.16,1.64-.62,2.71-2.18,1.47-2.14,3.69-5.36,9.59-5.39,2.89,0,5.52,1.75,7.84,3.29.92.61,1.88,1.25,2.46,1.49.6.25,1.69.44,2.74.62,2.55.44,5.45.94,7.41,3.05,4.56,4.91,3.48,10.62,2.84,14.04-.13.67-.27,1.42-.29,1.81.09.31.54,1.04.87,1.58,1.36,2.22,3.41,5.57,2.44,10.52-1.22,6.23-6.86,6.99-9.89,7.4-.54.07-1.31.18-1.72.28-.16.23-.37.55-.55.85-1.45,2.33-3.87,6.22-11.54,6.22Z"/>
        <path d="M58.18,426.82c2.83,0,6.48,3.5,8.94,4.52,2.56,1.06,7.07.82,8.93,2.82,4.42,4.76,1.62,10.7,1.62,13.53s4.51,5.55,3.38,11.36c-1.14,5.82-8.55,3.74-10.47,5.66-1.93,1.93-2.28,6.26-9.79,6.26-2.84,0-6.25-3.97-8.71-4.99-.41-.17-.86-.23-1.33-.23-1.26,0-2.71.46-4.25.46-1.41,0-2.89-.38-4.39-1.84-3.76-3.64.69-8.54-1.29-12.33-1.42-2.72-4.3-3.15-3.64-7.67.68-4.62,4.37-9.39,9.13-10.01,6.2-.8,4.29-7.51,11.87-7.54,0,0,0,0,.01,0M58.18,419.82s-.04,0-.05,0c-7.72.03-10.91,4.67-12.45,6.9-.16.23-.36.52-.52.73-8.45,1.22-13.9,8.89-14.92,15.9-.94,6.44,2.29,9.78,3.84,11.38.06.07.14.14.21.22-.06.37-.15.82-.21,1.17-.55,2.79-1.68,8.59,3.16,13.28,2.61,2.53,5.73,3.81,9.26,3.81,1.37,0,2.57-.19,3.44-.33,0,0,.02,0,.03,0,.35.25.74.55,1.05.79,2.39,1.82,5.66,4.32,9.77,4.32,9.02,0,12.49-4.69,14.19-7.38.03,0,.05,0,.08-.01,3.05-.41,11.16-1.5,12.86-10.2,1.23-6.29-1.45-10.67-2.89-13.02-.07-.12-.15-.25-.23-.38.03-.18.07-.37.1-.54.66-3.53,2.05-10.86-3.71-17.06-2.76-2.98-6.59-3.64-9.38-4.12-.67-.12-1.69-.29-2.02-.41-.3-.14-1.23-.76-1.84-1.16-2.6-1.73-5.84-3.88-9.75-3.88h0Z"/>
      </g>
      <g>
        <path class="cls-8" d="M138.34,530.74c-12.96,0-24.17-2.08-30.08-5.58-15.1-7.07-14.99-15.53-14.89-23,.05-3.44.09-6.68-1.24-10.05-2.6-6.56-5.47-8.01-9.81-10.21-4.8-2.43-10.78-5.45-17.37-15.67-14.33-22.23-11.72-33.21-5.7-56.8-.93-5.97-6.48-44.39.67-65.51,4.9-14.46,11.68-20.63,22.68-20.63,1.76,0,3.48.14,5.15.27,1.07.08,2.14.17,3.2.21l29.47,1.23.82.55c1.78,1.19,3.53,2.44,5.21,3.65,4.89,3.5,9.52,6.81,14.65,8.65l65.85-.07.9,2.14c22.37,53.01,26.04,92.66,10.91,117.84-11.44,19.04-30.46,23.79-38.02,24.94-1.79,8.51-3.93,12.05-5.54,14.7-.24.4-.46.76-.67,1.12,5.52,6.44,7.16,12.4,4.88,17.75-4.55,10.66-24.2,14.45-41.08,14.45h0Z"/>
        <path d="M82.6,326.79c2.74,0,5.5.37,8.21.48l28.48,1.19c7.04,4.72,13.48,10.29,21.23,12.89l64.12-.07c56.53,133.98-26.36,138.14-26.84,138.26-2.5,13.84-5.76,15.13-7.42,19.6,19.13,19.99-7.54,28.09-32.04,28.09-11.74,0-22.98-1.86-28.43-5.17-19.8-9.19-9.74-19.19-14.52-31.24-6.2-15.64-15.38-7.7-27.49-26.49-13.49-20.92-11.32-30.25-5.07-54.73,0,0-7-42.66.41-64.55,5.34-15.79,12.27-18.26,19.36-18.26M82.6,319.79c-12.59,0-20.6,7.1-25.99,23.01-7.16,21.15-2.12,58.47-.92,66.46-5.97,23.41-8.68,35.6,6.33,58.87,7.1,11.02,13.82,14.42,18.73,16.9,4.14,2.09,6.02,3.05,8.14,8.37,1.08,2.72,1.04,5.49,1,8.71-.1,7.66-.24,18.12,16.76,26.15,6.47,3.75,18.26,5.97,31.71,5.97,8.73,0,37.73-1.2,44.3-16.58,1.85-4.33,2.46-11.02-3.85-19.42,1.48-2.51,3.28-5.94,4.86-12.49,9.18-1.83,27-7.68,38.12-26.18,15.74-26.19,12.14-66.9-10.68-121l-1.81-4.28h-4.65s-62.9.07-62.9.07c-4.47-1.72-8.74-4.77-13.24-7.99-1.71-1.22-3.48-2.49-5.3-3.71l-1.64-1.1-1.97-.08-28.48-1.19c-.97-.04-1.99-.12-3.07-.21-1.73-.14-3.53-.28-5.43-.28h0Z"/>
      </g>
      <g>
        <path class="cls-12" d="M37.67,399.5c.07,2.12.5,23.83,1.47,33.59.8,8.1,30.34,12.52,30.34,12.52,0,0-6.17-24.32-2.37-35.42t0,0c5.7-16.66,12.75-34.7,40.67-45.04,19.17-7.1,44.35-.94,57.06,4.77,24.11,10.83,45.73-.71,45.73-.71,5.01-1.85,8.2-3.91,9.98-6.21,4.07-5.27.72-11.85-5.22-20.21-8.55-12.01-125.58-20.12-141.85-13.66-7.22,2.87-15.08,9.31-21.59,18.69-8.67,12.49-14.97,30.21-14.23,51.68Z"/>
        <path class="cls-10" d="M38.54,426.82c1.3,12.72-.05,10.33,13.14,13.81,3.82,2.21,16.38,4.75,16.38,4.75,0,0-3.73-23.25-1.65-29.32-7.33,4.71-17.74,10.05-27.88,10.76Z"/>
        <path class="cls-10" d="M65.03,335.79c87.41,2.37,60.44,23.61,117.93,29.1,17.06,1.63,29.1-.43,37.6-1.88,4.07-5.27.72-11.85-5.22-20.21-8.55-12.01-125.58-20.12-141.85-13.66-7.22,2.87,4.4,3.19-8.46,6.66Z"/>
        <path class="cls-2" d="M37.67,399.5c.07,2.12.5,23.83,1.47,33.59.8,8.1,30.34,12.52,30.34,12.52,0,0-4.46-21.55-2.37-35.42,4.4-21.51,12.76-34.7,40.68-45.04,19.17-7.1,44.35-.94,57.06,4.77,24.11,10.83,45.73-.71,45.73-.71,5.01-1.85,8.2-3.91,9.98-6.21,4.07-5.27.72-11.85-5.22-20.21-8.55-12.01-125.58-20.12-141.85-13.66-7.22,2.87-15.08,9.31-21.59,18.69-8.67,12.49-14.97,30.21-14.23,51.68Z"/>
        <g>
          <g>
            <path class="cls-12" d="M235.44,410.29c-.23,0-.46-.02-.69-.07-13.67-2.75-25.11-11.45-31.39-23.86-6.28-12.41-6.51-26.79-.63-39.43.58-1.25,1.83-2.02,3.17-2.02.23,0,.46.02.69.07,14.84,2.99,23.69,9.23,29.58,20.87,4.28,8.46,5.87,18.77,4.36,28.27-.19,1.16-.24,2.68-.3,4.28-.12,3.27-.26,6.97-1.61,9.86-.58,1.25-1.83,2.02-3.17,2.02Z"/>
            <path d="M205.9,348.4c12.08,2.43,21.16,7.18,27.15,19.02,4.11,8.12,5.36,17.79,4.02,26.14-.61,3.83,0,9.71-1.63,13.22-12.08-2.43-22.97-10.17-28.96-22.01-5.99-11.84-5.78-25.2-.58-36.37M205.9,341.4c-2.68,0-5.18,1.54-6.34,4.05-6.33,13.62-6.08,29.1.69,42.48,6.77,13.38,19.1,22.75,33.82,25.71.46.09.93.14,1.38.14,2.68,0,5.18-1.55,6.35-4.05,1.64-3.53,1.8-7.61,1.93-11.21.06-1.49.11-2.91.26-3.86,1.63-10.22-.08-21.3-4.69-30.4-8.13-16.07-21.38-20.58-32.01-22.72-.46-.09-.93-.14-1.38-.14h0Z"/>
          </g>
          <path class="cls-5" d="M225.89,388.69c-4.94-19.62-13.93-19.16-19.32-40.69"/>
        </g>
        <g>
          <g>
            <path class="cls-12" d="M192.73,414.34c-.15,0-.31-.01-.46-.03-.95-.13-1.81-.64-2.38-1.42-.45-.62-10.93-15.43-6.35-29.57,4.09-12.61,14.96-33.13,28.16-38,.4-.15.81-.22,1.21-.22,1.14,0,2.24.56,2.91,1.55,8.42,12.58,10.3,23.24,6.28,35.65-2.92,9.02-9.06,17.46-16.83,23.13-3.02,2.21-10.26,8.07-10.33,8.12-.63.51-1.41.78-2.2.78Z"/>
            <path d="M212.91,348.6c6.86,10.24,9.95,20.01,5.86,32.63-2.81,8.65-8.74,16.4-15.57,21.38-3.13,2.29-10.47,8.23-10.47,8.23,0,0-9.95-13.83-5.86-26.45,4.09-12.62,14.48-31.53,26.04-35.8M212.91,341.6c-.81,0-1.63.14-2.42.43-15.49,5.72-26.58,28.8-30.27,40.2-5.13,15.81,6.35,32.01,6.84,32.69,1.13,1.56,2.84,2.59,4.75,2.85.31.04.62.06.93.06,1.6,0,3.15-.55,4.41-1.56.07-.06,7.24-5.86,10.19-8.02,8.35-6.1,14.95-15.17,18.1-24.88,5.55-17.13-.66-29.67-6.7-38.68-1.33-1.98-3.53-3.1-5.82-3.1h0Z"/>
          </g>
          <path class="cls-5" d="M200.71,385.42c3.38-11.3,3.67-20.58,16.48-41.07"/>
        </g>
        <g>
          <path class="cls-12" d="M210.45,365.42c-5.16,0-9.69-2.62-11.85-6.82-3.32-6.49-.1-14.78,7.17-18.5,1.92-.98,4.09-1.48,6.46-1.48,6.08,0,12.2,3.35,14.56,7.97,1.72,3.37,1.37,7.09-.98,10.48-2.19,3.15-5.57,5.3-8.02,6.55-2.3,1.18-4.84,1.8-7.34,1.8h0Z"/>
          <path d="M212.23,342.11c4.7,0,9.65,2.57,11.44,6.07,2.44,4.77-1.92,9.48-7.47,12.32-1.88.96-3.86,1.41-5.75,1.41-3.72,0-7.11-1.76-8.73-4.92-2.44-4.77.09-10.95,5.64-13.79,1.48-.76,3.16-1.1,4.87-1.1M212.23,335.11c-2.92,0-5.63.63-8.05,1.86-8.99,4.59-12.88,15-8.69,23.21,2.75,5.39,8.49,8.73,14.96,8.73,3.06,0,6.15-.75,8.94-2.18,10.26-5.24,14.49-13.98,10.52-21.74-2.97-5.82-10.24-9.88-17.68-9.88h0Z"/>
        </g>
      </g>
      <path class="cls-13" d="M135.8,3.5c38.4-4.22,111.59,107.35,111.59,164.48l-43.8-17.54-42.04,9.43c-14.06,4.72-27.91,7.52-42.58,5.7l-33.85-5c-18.81-5.22-40.7,2.76-59.88,10.51C34.99,138.21,70.18,10.71,135.8,3.5Z"/>
      <path class="cls-9" d="M202.19,57.43c-6.02-9.58-36.28-53.69-60.27-53.69-44.86,0-71.07,53.73-72.95,56.38-.05.08-.97-1.88-.97-1.88,0,0,7.63,14.91,18,21.27,11.53,7.07,39.14,10.72,54.34,6.98,14.66-3.61,48.78-11.6,61.84-29.05Z"/>
      <path class="cls-6" d="M135.8,3.5c33.18,0,111.59,107.35,111.59,164.48l-43.8-17.54-42.04,9.43c-14.06,4.72-27.91,7.52-42.58,5.7l-33.85-5c-18.81-5.22-40.7,2.76-59.88,10.51C34.99,138.21,69.78,3.5,135.8,3.5Z"/>
      <path class="cls-4" d="M168.98,90.15s-17.96-26.88-37.18-27.75c-19.23-.87-34.74,31.76-34.74,31.76"/>
      <g>
        <path class="cls-8" d="M166.71,356.11c-15.51,0-32.34-4.15-47.57-11.72-6.46,2.62-13.58,3.95-21.21,3.95-14.3,0-28.9-4.8-40.22-13.2-18.23-2.58-41.03-18.49-48.38-41.24-7.49-23.21-9.45-42.27,3.83-64.9-8.5-24.09,1.63-49.18,12.74-70.63,7.76-14.98,20.31-22.25,38.38-22.25,9.13,0,18.36,1.78,26.51,3.34l27.71,5.33c2.96.57,5.83.86,8.52.86,10.86,0,18.3-4.54,26.92-9.8,9.95-6.07,21.22-12.94,39.41-12.94,3.53,0,7.27.26,11.1.78.18.02.36.06.54.12,12.9,3.86,30.11,17.59,40.44,29.15,17.91,20.05,23.07,61.17,20.02,83.54,11.38,10.79,14.48,38.16,6.61,61.54-9.88,29.37-34,46.36-66.27,46.74-10.81,7.52-23.94,11.33-39.06,11.33Z"/>
        <path d="M193.33,126.4c3.29,0,6.82.23,10.63.75,12.51,3.75,29.4,17.57,38.83,28.13,17.77,19.89,22.36,61.77,18.88,82.6,21.17,16.07,17.77,103.4-57.03,103.4-11.08,8.03-24.36,11.33-37.94,11.33-16.52,0-33.47-4.88-47.44-12.08-6.54,2.92-13.86,4.3-21.34,4.3-13.67,0-27.87-4.64-38.86-13.06-17.79-2.08-39.54-17.66-46.41-38.96-7.9-24.49-8.57-42.32,4.36-63.47-8.9-22.89.74-47.68,11.98-69.38,8.3-16.04,21.43-20.36,35.27-20.36,8.67,0,17.62,1.7,25.85,3.28l27.71,5.33c3.31.64,6.35.92,9.18.92,25.25,0,33.93-22.74,66.33-22.74M193.33,119.4c-19.17,0-30.89,7.15-41.23,13.45-8.17,4.98-15.22,9.29-25.1,9.29-2.47,0-5.11-.27-7.86-.8l-27.71-5.33c-8.3-1.6-17.7-3.41-27.17-3.41-19.5,0-33.08,7.9-41.49,24.15-10.57,20.42-21.45,46.79-13.45,71.86-13,23.12-10.77,43.34-3.34,66.36,3.61,11.2,11.21,21.85,21.4,30,8.99,7.19,19.19,11.94,28.93,13.49,11.81,8.52,26.86,13.37,41.59,13.37,7.51,0,14.57-1.22,21.05-3.63,15.33,7.37,32.16,11.4,47.73,11.4s28.94-3.82,40.17-11.35c17.69-.39,32.8-5.39,44.94-14.9,10.68-8.35,18.82-20.18,23.54-34.21,8.11-24.09,5.18-51.38-6.24-63.9,1.34-11.56.62-26.29-2.03-40.32-2.51-13.28-7.85-31.75-19.07-44.31-8.62-9.65-26.93-25.64-42.04-30.17-.35-.11-.71-.18-1.07-.23-3.99-.54-7.88-.81-11.57-.81h0Z"/>
      </g>
      <path class="cls-7" d="M182.99,237.88c-14.75-.02-26.72,13.26-26.72,29.64,0,16.38,11.97,29.65,26.72,29.64,14.73-.01,26.67-13.28,26.67-29.64,0-16.36-11.94-29.62-26.67-29.64"/>
      <path class="cls-11" d="M220.47,211.86c-7.71,0-13.96,7.04-13.96,15.72,0,8.68,6.26,15.72,13.96,15.72,7.71,0,13.96-7.04,13.96-15.72,0-8.67-6.26-15.72-13.96-15.72h0Z"/>
      <path class="cls-11" d="M265.16,232.9c-6.58,0-11.92,3.31-11.92,7.38,0,4.07,5.34,7.38,11.92,7.38,6.58,0,11.92-3.31,11.92-7.38,0-4.07-5.34-7.38-11.92-7.38h0Z"/>
      <path class="cls-3" d="M240.89,262.76c0,17.45,31.8,17.45,35.06,0"/>
      <path class="cls-1" d="M110.4,385.82c.1,30.39,5.92,63.01,30.52,62.87,26.98-.15,29.27-32.69,25.54-62.99"/>
    </g>
  </g>
</svg>