<?xml version="1.0" encoding="UTF-8"?>
<svg id="Layer_2" data-name="Layer 2" xmlns="http://www.w3.org/2000/svg" viewBox="0 0 381.33 527.58">
  <defs>
    <style>
      .cls-1, .cls-2 {
        fill: #fff;
      }

      .cls-3, .cls-4, .cls-2, .cls-5, .cls-6 {
        fill-rule: evenodd;
      }

      .cls-3, .cls-2, .cls-7, .cls-8 {
        stroke: #000;
        stroke-width: 7px;
      }

      .cls-3, .cls-7 {
        stroke-miterlimit: 10;
      }

      .cls-3, .cls-8 {
        fill: none;
      }

      .cls-4 {
        fill: #42944b;
      }

      .cls-2, .cls-8 {
        stroke-linejoin: round;
      }

      .cls-5 {
        fill: #8dd164;
      }

      .cls-6 {
        fill: #3d9146;
      }

      .cls-9, .cls-7 {
        fill: #fefefe;
      }

      .cls-8 {
        stroke-linecap: round;
      }
    </style>
  </defs>
  <g id="Layer_1-2" data-name="Layer 1">
    <g>
      <g>
        <g>
          <path class="cls-7" d="M110.86,334.58s-92.79,69.56-59.19,100.97c36.9,34.49,88.93-73,88.93-73l-29.74-27.97Z"/>
          <path class="cls-7" d="M265.25,334.58s92.79,69.56,59.19,100.97c-36.9,34.49-88.93-73-88.93-73l29.74-27.97Z"/>
        </g>
        <path class="cls-9" d="M188.66,332.03h-82.74s1.54,28.16,1.84,31.42c1.01,11.09-3.22,25.78-3.88,28.43-5.07,22.64-6.48,45.95-2.96,69.18,2.56,16.9,5.54,30.14,7.32,34.93-28.3,29.57,37.53,33.13,54.35,22.92,19.79-9.19,7.44-30.8,17.59-38.86,1.14-.48,4.46-.67,7.87-.63,3.41-.03,6.73.15,7.87.63,10.15,8.06-2.2,29.67,17.59,38.86,16.82,10.21,82.65,6.65,54.35-22.92,1.78-4.79,4.76-18.02,7.32-34.93,3.52-23.23,2.11-46.54-2.96-69.18-.66-2.65-4.89-17.34-3.88-28.43.3-3.26,1.84-31.42,1.84-31.42h-82.74"/>
        <path class="cls-8" d="M103.88,391.88c-5.07,22.64-6.48,45.95-2.96,69.18,2.56,16.9,5.54,30.14,7.32,34.93-28.3,29.57,37.53,33.13,54.35,22.92,19.79-9.19,7.44-30.8,17.59-38.86,1.14-.48,4.46-.67,7.87-.63,3.41-.03,6.73.15,7.87.63,10.15,8.06-2.2,29.67,17.59,38.86,16.82,10.21,82.65,6.65,54.35-22.92,1.78-4.79,4.76-18.02,7.32-34.93,3.52-23.23,2.11-46.54-2.96-69.18"/>
      </g>
      <g>
        <path class="cls-5" d="M118.11,332.43c-15.22,23.5-28.7,109.94-28.7,109.94,0,0,44.5-8.35,67.23-4.54,32.24,5.39,82.82,32.61,127,4.54,0,0,.04-65.08-21.63-112.24l-143.91,2.3Z"/>
        <path class="cls-6" d="M123.29,315.39c-14.98,23.5-30.83,109.94-30.83,109.94,0,0,43.8-8.35,66.18-4.54,31.73,5.39,80.64,32.61,124.13,4.54,0,0-3.59-62.15-24.91-109.31l-134.56-.63Z"/>
        <path class="cls-3" d="M118.11,332.43c-15.22,23.5-28.7,109.94-28.7,109.94,0,0,44.5-8.35,67.23-4.54,32.24,5.39,82.82,32.61,127,4.54,0,0,.04-65.08-21.63-112.24l-143.91,2.3Z"/>
        <path class="cls-4" d="M252.73,62.57c3.84,4.81,9.26,13.05,9.26,13.05,0,0,8.9-7.34,13.52-8.51,20.99-5.29,71.56,79.06,66.81,91.34-3.8-2.04-7.84-3.74-12.07-5.04-6.46-1.76-14.17-2.07-20.07-5.51-14.28-8.34-25.67-20.88-43.49-21.21-10.92-.2-22.44,1.21-32.86,4.49-14.06,4.43-28.48,10.33-43.16,10.68-14.69-.35-29.11-6.24-43.16-10.68-10.42-3.29-21.94-4.7-32.86-4.49-17.82.33-29.21,12.87-43.49,21.21-5.9,3.45-13.6,3.76-20.07,5.51-2.57.79-5.07,1.73-7.49,2.8.14-.5.28-1.01.38-1.54,5.39-28.04,51.15-91.49,68.44-102.76,4.26-2.78,5.97-2.95,10.08-.27,2.9,1.89,7,5.21,14.05,10.04,1.96.2,12.11-14.17,15.86-19.71,9.58-14.14,29.86-45.43,50.2-31.47,17.74,12.17,48.17,49.02,50.04,51.92l.08.14h0Z"/>
        <path d="M191.96,7c3.51,0,7.08,1.06,10.65,3.51,17.74,12.17,48.17,49.02,50.04,51.92l.08.14c3.84,4.81,9.26,13.05,9.26,13.05,0,0,8.9-7.34,13.52-8.51.64-.16,1.3-.24,1.99-.24,22.02,0,69.43,79.67,64.82,91.58-3.8-2.04-7.84-3.74-12.07-5.04-6.46-1.76-14.17-2.07-20.07-5.51-14.28-8.34-25.68-20.88-43.49-21.21-.68-.01-1.36-.02-2.05-.02-10.31,0-21.04,1.43-30.81,4.51-14.06,4.43-28.48,10.33-43.16,10.68-14.69-.35-29.11-6.24-43.16-10.68-9.77-3.08-20.51-4.51-30.81-4.51-.68,0-1.37,0-2.05.02-17.82.33-29.21,12.87-43.49,21.21-5.9,3.45-13.6,3.76-20.07,5.51-2.57.79-5.07,1.73-7.49,2.8.14-.5.28-1.01.38-1.54,5.39-28.04,51.15-91.49,68.44-102.76,2.22-1.44,3.74-2.19,5.27-2.19,1.41,0,2.83.63,4.8,1.92,2.9,1.89,7,5.21,14.05,10.04.01,0,.03,0,.04,0,2.06,0,12.09-14.21,15.82-19.71,7.9-11.66,23.07-34.98,39.56-34.98M191.96,0h0c-19.64,0-35.21,23.05-44.52,36.82l-.83,1.23c-3.83,5.65-7.95,11.27-10.69,14.65-1.69-1.22-3.17-2.3-4.46-3.26-2.05-1.51-3.66-2.7-5.14-3.66-2.31-1.51-5.15-3.05-8.63-3.05-3.69,0-6.63,1.71-9.1,3.32-11.15,7.27-28.86,29.86-40.63,46.99-8.04,11.71-27.16,41.02-30.87,60.31-.05.25-.12.54-.23.91l-4.17,14.43,13.73-6.08c2.14-.95,4.36-1.78,6.6-2.48,1.81-.49,3.82-.86,5.95-1.26,5-.94,10.67-2,15.7-4.93,4.13-2.41,7.97-5.11,11.68-7.71,9.43-6.62,17.58-12.35,28.41-12.54.64-.01,1.28-.02,1.92-.02,10.09,0,20.02,1.45,28.71,4.19,2.65.83,5.39,1.75,8.03,2.63,11.88,3.96,24.16,8.06,37.07,8.37h.17s.17,0,.17,0c12.92-.3,25.2-4.4,37.07-8.37,2.65-.88,5.39-1.8,8.03-2.63,8.69-2.74,18.61-4.19,28.71-4.19.64,0,1.28,0,1.92.02,10.84.2,18.98,5.92,28.41,12.54,3.71,2.61,7.55,5.3,11.68,7.71,5.03,2.93,10.69,4,15.69,4.93,2.13.4,4.15.78,5.96,1.26,3.7,1.15,7.3,2.65,10.7,4.48l6.98,3.75,2.86-7.39c1.35-3.49,1.87-9.69-6.2-26.83-4.99-10.6-12.29-23.17-20.03-34.47-7.45-10.87-14.97-20.13-21.75-26.77-8.95-8.77-16.6-13.04-23.37-13.04-1.27,0-2.51.15-3.7.45-3.09.78-6.92,3.05-10.15,5.28-1.63-2.34-3.51-4.95-5.17-7.06-2.36-3.47-33.08-40.89-51.91-53.81-4.58-3.14-9.49-4.73-14.61-4.73h0Z"/>
        <path class="cls-5" d="M136.54,61.69c1.96.2,12.11-14.17,15.86-19.71,9.58-14.14,29.86-45.43,50.2-31.47,17.74,12.17,48.17,49.02,50.04,51.92.05.09.08.14.08.14,0,0,.69,16.39-9.68,23.37-11.53,7.76-24.3-1.93-30.53-11.71-6.9,11.32-16.93,23.5-32.13,19.38-14.66-3.97-32.59-22.81-43.85-31.92h0Z"/>
        <path class="cls-2" d="M342.32,158.45c.67.36,1.32.73,1.98,1.11,22.04,12.84,35.23,37.58,27.71,63.96-.95,3.35-2.66,6.96-3.43,10.12,1.33,3.25,3.3,5.98,4.67,9.34,11.15,27.47,1.89,58.43-26.43,70.35-10.02,4.22-15.51,2.38-25.6,3.04-10.55,19.8-51.19,39.03-92.09,21.24-6.93,5.07-22.28,15.31-36.84,14.43-.52-.03-1.06-.07-1.61-.1-.56.04-1.1.07-1.61.1-14.56.88-29.9-9.37-36.84-14.43-40.89,17.79-81.53-1.44-92.09-21.24-10.09-.66-15.58,1.18-25.6-3.04-28.32-11.92-37.58-42.87-26.43-70.35,1.36-3.36,3.33-6.09,4.67-9.34-.78-3.16-2.48-6.77-3.43-10.12-7.52-26.38,5.67-51.12,27.71-63.96,2.11-1.23,4.29-2.34,6.55-3.34,2.42-1.07,4.92-2.01,7.49-2.8,6.46-1.76,14.17-2.07,20.07-5.51,14.28-8.34,25.67-20.88,43.49-21.21,10.92-.2,22.44,1.21,32.86,4.49,14.06,4.43,28.48,10.33,43.16,10.68,14.68-.35,29.11-6.24,43.16-10.68,10.42-3.29,21.94-4.7,32.86-4.49,17.82.33,29.21,12.87,43.49,21.21,5.9,3.45,13.6,3.76,20.07,5.51,4.23,1.3,8.27,3,12.07,5.04h0Z"/>
      </g>
      <g>
        <path class="cls-1" d="M186.42,485.48c-7.67,0-10.09-3.9-11.54-6.22-.19-.3-.39-.63-.55-.85-.41-.1-1.18-.21-1.72-.28-3.03-.41-8.67-1.16-9.89-7.4-.97-4.95,1.08-8.31,2.44-10.52.33-.54.78-1.27.87-1.58-.02-.38-.16-1.14-.29-1.81-.64-3.41-1.72-9.13,2.84-14.04,1.96-2.11,4.85-2.61,7.41-3.05,1.05-.18,2.14-.37,2.74-.62.58-.24,1.54-.88,2.46-1.49,2.32-1.54,4.96-3.29,7.82-3.29,5.92.02,8.15,3.25,9.62,5.39,1.08,1.56,1.44,2.02,2.71,2.18,6.78.88,11.32,7.34,12.15,12.97.69,4.73-1.46,6.97-2.89,8.44-.49.51-.88.91-1.11,1.35-.3.57-.05,1.88.2,3.13.52,2.68,1.32,6.72-2.16,10.09-1.93,1.87-4.23,2.82-6.83,2.82-1.09,0-2.09-.16-2.89-.29-.53-.09-1.04-.17-1.36-.17,0,0-.04,0-.06,0-.55.26-1.54,1.01-2.34,1.62-2.21,1.69-4.72,3.6-7.64,3.6Z"/>
        <path d="M189.02,437.83s0,0,.01,0c7.58.03,5.67,6.74,11.87,7.54,4.76.62,8.46,5.39,9.13,10.01.66,4.52-2.22,4.95-3.64,7.67-1.99,3.79,2.47,8.69-1.29,12.33-1.5,1.46-2.99,1.84-4.39,1.84-1.54,0-2.98-.46-4.25-.46-.47,0-.91.06-1.33.23-2.47,1.02-5.88,4.99-8.71,4.99-7.5,0-7.86-4.33-9.79-6.26-1.93-1.93-9.34.15-10.47-5.66-1.14-5.82,3.38-8.53,3.38-11.36s-2.8-8.77,1.62-13.53c1.85-2,6.37-1.76,8.93-2.82,2.46-1.02,6.11-4.52,8.94-4.52M189.02,430.83c-3.92,0-7.15,2.15-9.75,3.88-.62.41-1.54,1.03-1.89,1.18-.29.1-1.3.28-1.98.39-2.79.48-6.62,1.14-9.38,4.12-5.76,6.2-4.37,13.54-3.71,17.06.03.17.07.35.1.54-.08.13-.16.26-.23.38-1.44,2.35-4.12,6.73-2.89,13.02,1.7,8.7,9.8,9.79,12.86,10.2.03,0,.05,0,.08.01,1.71,2.69,5.17,7.38,14.19,7.38,4.11,0,7.38-2.5,9.77-4.32.31-.24.7-.54,1.05-.79.01,0,.02,0,.03,0,.88.14,2.08.33,3.44.33,3.54,0,6.66-1.28,9.26-3.81,4.84-4.69,3.7-10.49,3.16-13.28-.07-.35-.16-.8-.21-1.17.07-.07.14-.15.21-.22,1.55-1.61,4.78-4.95,3.84-11.38-1.03-7.01-6.48-14.68-14.92-15.9-.16-.21-.36-.5-.52-.73-1.54-2.23-4.73-6.87-12.46-6.9,0,0-.03,0-.04,0h0Z"/>
      </g>
    </g>
  </g>
</svg>