<?xml version="1.0" encoding="UTF-8"?>
<svg id="Layer_2" data-name="Layer 2" xmlns="http://www.w3.org/2000/svg" viewBox="0 0 497.76 538.71">
  <defs>
    <style>
      .cls-1 {
        fill: #f29e87;
      }

      .cls-2 {
        fill: #fff;
      }

      .cls-3 {
        fill: #212020;
      }

      .cls-4 {
        fill: #ea8a39;
      }

      .cls-5 {
        fill: #48904a;
      }

      .cls-6 {
        fill: #8ed165;
      }

      .cls-6, .cls-7, .cls-8 {
        fill-rule: evenodd;
      }

      .cls-9 {
        fill: #f3c56d;
      }

      .cls-10 {
        fill: #f8e554;
      }

      .cls-11 {
        fill: none;
        stroke: #000;
        stroke-linecap: round;
        stroke-linejoin: round;
        stroke-width: 7px;
      }

      .cls-8 {
        fill: #47914a;
      }

      .cls-12 {
        fill: #8ec865;
      }
    </style>
  </defs>
  <g id="Layer_1-2" data-name="Layer 1">
    <g>
      <g>
        <path class="cls-2" d="M195.46,535.21c-14.23,0-32.49-3.62-37.09-13.81-1.63-3.62-2.17-9.51,4.36-17.18,1.5-5.11-4.75-24-7.14-31.24-.79-2.39-1.47-4.46-1.92-5.96-4.64-16.52-5.81-32.36-3.69-49.92.88-7.58,2.27-15.19,4.15-22.59.17-.66.43-1.51.74-2.48,1.28-4.03,1.92-6.87,1.94-8.48-.26.32-.55.73-.86,1.26-8.11,13.81-9.86,65.86-5.45,75.18.52,1.11.43,2.4-.24,3.42-.65.98-1.75,1.57-2.92,1.57-.04,0-.09,0-.13,0-8.83-.33-19.88-5.86-22.33-14.22-.77-2.62-1.14-7.25,3.19-12.01-19.03-12.4-28.84-29.35-27.05-47.05,2.08-20.56,19.44-38.69,45.28-47.31.36-.12.74-.18,1.11-.18.87,0,1.72.32,2.37.93,7.28,6.72,29.44,10.57,60.79,10.57,19.19,0,34.47-1.43,36.48-2.01,5.81-2.05,19.65-2.51,35.67-3.05,19.67-.66,49.39-1.66,54.4-6.92.67-.71,1.59-1.09,2.54-1.09.42,0,.85.08,1.26.24,1.32.51,2.2,1.77,2.24,3.19.34,15.52,6.87,30.38,18.36,41.85.8.8,1.17,1.94.98,3.05-.19,1.12-.9,2.07-1.92,2.57-1.34.65-3.25.96-6.01.96-4.73,0-10.79-.91-13.48-1.75-.07-.02-.14-.04-.2-.07-.99-.38-1.88-.98-2.74-1.56-.51-.35-1.4-.95-1.92-1.15-.21,1.04.5,3.68.78,4.72.1.39.2.75.28,1.08,6.29,28.08,6.18,51.73-.3,72.35-.03.09-.06.19-.1.28-4.02,9.82-6.1,19.73-8.31,30.22-.21.99-.42,1.99-.63,2.99,6.65,7.45,8.75,14.18,6.25,20.05-5.2,12.17-27.34,13.11-34,13.11-11.42,0-21.77-2.12-27.76-5.67-13.53-6.38-14.21-17.82-14.76-27.02-.32-5.33-.6-9.97-3.23-12.51-.71-.13-2.35-.29-5.19-.29-6.08,0-11.77.71-12.87,1.18-1.31.54-1.53,2.3-1.57,6.04,0,.77-.02,1.57-.06,2.34.29,16.79-5.98,28.26-17.66,32.34-4.55,2.57-12.4,4.03-21.66,4.04Z"/>
        <path d="M339.68,346.16c.36,16.2,7.2,32.1,19.39,44.25-.88.43-2.53.6-4.48.6-4.27,0-10-.83-12.43-1.59-1.68-.64-3.92-3.02-6.13-3.02-.58,0-1.16.16-1.72.56-2.88,1.78-1.06,6.95-.4,9.65,5.16,23.06,6.94,47.63-.24,70.46-4.76,11.63-6.88,23.36-9.5,35.58,19.49,20.36-2.42,28.62-23.95,28.62-10.32,0-20.56-1.9-26.11-5.27-20.16-9.37-7.58-31.38-17.92-39.58-1.07-.45-3.76-.65-6.9-.65-5.46,0-12.27.59-14.28,1.47-4.4,1.83-3.47,7.62-3.74,11.51.23,11.89-3.09,25.04-15.61,29.22-4.08,2.44-11.8,3.73-20.2,3.73-20.68,0-45.41-7.84-29.68-25.67,3.11-6.96-6.42-32.14-8.75-40.01-4.6-16.38-5.61-31.63-3.58-48.51.86-7.46,2.22-14.86,4.07-22.14.86-3.45,5.56-14.63.24-16.31-13.07.88-15.93,70.79-10.43,82.43-12.92-.48-28.12-12.96-13.37-23.21-47.42-27.41-34.31-74.62,13.45-90.56,9.91,9.15,38.81,11.5,63.17,11.5,19.1,0,35.41-1.45,37.58-2.19,13.57-4.77,81.59-.46,91.51-10.88M339.68,339.16c-1.87,0-3.7.75-5.05,2.15-.33.29-3.29,2.49-18.07,4.02-10.15,1.04-22.24,1.45-33.94,1.84-18.6.62-30.4,1.12-36.54,3.18-2.68.58-17.52,1.88-35.5,1.88-30.04,0-51.88-3.61-58.42-9.65-1.31-1.21-3.02-1.86-4.75-1.86-.74,0-1.49.12-2.21.36-27.17,9.07-45.43,28.33-47.66,50.28-1.83,18.08,7.41,35.32,25.57,48.26-3,5.12-2.26,9.85-1.59,12.14,2.93,9.99,15.29,16.35,25.55,16.73.09,0,.17,0,.26,0,1.03,0,2.03-.23,2.93-.64,0,.02.01.05.02.07,0,.03.02.06.03.09.46,1.55,1.15,3.64,1.95,6.06,1.61,4.87,3.81,11.54,5.34,17.54,1.74,6.85,1.86,9.94,1.79,11.13-7,8.68-6.21,15.67-4.22,20.08,5.28,11.7,24.27,15.87,40.28,15.87,5.74,0,16.21-.57,23.1-4.33,12.82-4.64,19.98-17.51,19.71-35.47.04-.8.05-1.6.06-2.37,0-.85.02-2.14.13-2.99,2-.36,6.37-.77,10.82-.77,1.55,0,2.63.05,3.36.11,1.11,1.92,1.32,5.44,1.56,9.41.54,9.02,1.35,22.62,16.61,29.91,6.53,3.81,17.47,6.08,29.4,6.08,9.23,0,31.35-1.48,37.22-15.24,2.05-4.8,2.56-12.44-5.69-22.39.09-.44.18-.87.28-1.31,2.17-10.33,4.22-20.08,8.12-29.61.07-.18.14-.36.2-.55,6.57-20.91,6.8-44.74.68-72.8,3.53.93,9.32,1.64,13.56,1.64,3.36,0,5.69-.41,7.55-1.31,2.03-.99,3.46-2.91,3.83-5.14.37-2.23-.36-4.51-1.96-6.11-10.86-10.82-17.01-24.83-17.34-39.44-.06-2.83-1.83-5.35-4.47-6.37-.82-.32-1.68-.47-2.53-.47h0Z"/>
      </g>
      <g>
        <path class="cls-9" d="M32.95,289.37c.86.91,1.23,5.86,1.38,7.28,2.46,23.86,10.95,24.31,31.9,27.73-28,4.4-29.1,9.49-32.77,36.42-.81-.3-.58-.25-.73-1.3-3.92-26.55-5.85-30.71-32.72-35.07,29-3.32,28.31-8.63,32.95-35.05"/>
        <path class="cls-9" d="M455.83,101.82c1.45,1.62,1.28,19.43,6.57,26.05,6.19,7.75,16.96,8.45,26.47,10.2-7.08,1.88-15.18,2.13-21.73,6.31-9.89,6.31-8.68,20.75-10.84,30.56l-.08.33c-.61-1.08-.89-4.23-1.01-5.53-2.34-24.86-8.89-27.67-32.3-31.55,6.82-1.34,16.7-2.48,22.46-6.19,8.76-5.63,8.56-20.48,10.45-30.17"/>
        <path class="cls-9" d="M412.81,58.83c1.33,2.04.72,13.08,4.4,17.75,4.31,5.46,12.41,6.08,19.03,7.14-20.11,3.48-20.67,5.82-23.03,25.5-1.72-1.3-.88-13.26-4.7-17.98-4.66-5.77-11.78-6.17-18.79-7.46,4.83-1.06,11.67-1.65,15.9-4.19,5.85-3.51,5.76-14.27,7.19-20.75"/>
        <path class="cls-9" d="M77.38,344.78c1.34,2.37,1.21,11.85,4.51,16.16,3.94,5.13,10.63,5.39,16.73,6.48-4.6,1.4-9.81,1.67-14.1,4.46-4.86,3.15-5.77,12.75-6.73,18.48l-.18.19c-.57-.32-1.94-13.13-4.22-15.91-4.43-5.43-10.26-5.8-16.36-7.17,18.32-3.5,17.21-4.83,20.34-22.67"/>
        <path class="cls-9" d="M391.44,421.43c1.77,1.58.94,9.71,3.54,12.27,3.61,3.56,8.62,3.81,13.28,4.22-13.72,3.05-13.9,3.27-16.31,17.12l-.11.19c-.61-.21-1.01-4.84-1.14-5.72-1.3-9.27-7.38-9.7-15.07-11.55,13.79-1.25,13.83-3.8,15.81-16.52"/>
        <path class="cls-9" d="M43.94,132.43c1.26,1.51.47,8.24,2.88,11.66,2.78,3.94,8.14,4.14,12.83,5.11-13.42,2.56-13.84,3.3-15.21,16.98-2-1.88-1.12-9.6-2.97-11.87-3.08-3.77-8.48-4.3-12.96-5.11,13.57-2.37,13.27-3.11,15.42-16.77"/>
      </g>
      <g>
        <g>
          <path class="cls-8" d="M233.56,383.98c-65.57,0-84.98-37.99-85.78-39.61l-2.28-4.64,205.92-15.78-2.13,5.24c-.2.49-5.03,12.09-19.77,24.55-13.38,11.32-37.95,25.61-78.97,29.42-5.81.54-11.52.81-17,.81Z"/>
          <path d="M346.06,327.87s-18.16,44.6-95.82,51.81c-5.87.55-11.43.8-16.67.8-64.14,0-82.64-37.65-82.64-37.65l195.13-14.96M356.81,320.02l-11.29.87-195.13,14.96-10.3.79,4.56,9.28c.22.45,5.53,11.05,19.37,21.35,12.38,9.22,34.5,20.21,69.55,20.21,5.58,0,11.41-.28,17.32-.83,41.93-3.89,67.14-18.59,80.91-30.24,15.38-13.01,20.54-25.39,20.75-25.91l4.27-10.48h0Z"/>
        </g>
        <path class="cls-6" d="M172.24,341.19s-6.79,22.54,42.67,26.18c49.46,3.63,84.93-15.14,102.61-30.6,4.11-3.59-1.53-5.28-12.6-5.75l-132.69,10.17h0Z"/>
        <g>
          <path class="cls-8" d="M202.49,418.35c-1.24,0-2.49-.05-3.72-.15-1.61-.13-2.92-1.35-3.17-2.95-.49-3.15.4-6.75,1.19-9.92.39-1.56.75-3.03.9-4.2,1.18-9.55,5.56-19.01,12.02-25.96,7.68-8.26,16.77-12.11,28.59-12.11,1.78,0,3.61.08,5.61.24,1.61.13,2.92,1.35,3.17,2.95,2.15,13.78-2.06,27.52-11.53,37.71-8.5,9.14-20.55,14.38-33.05,14.38Z"/>
          <path d="M238.29,366.57c1.73,0,3.5.08,5.32.23,1.9,12.18-1.6,25.07-10.64,34.79-8.19,8.81-19.33,13.27-30.49,13.27-1.15,0-2.29-.05-3.43-.14-.6-3.83,1.63-9.3,2.1-13.15,1.04-8.39,4.91-17.34,11.11-24,7.69-8.27,16.12-10.99,26.03-10.99M238.3,359.57h0c-12.87,0-22.77,4.2-31.16,13.22-6.95,7.47-11.67,17.65-12.93,27.91-.12.96-.46,2.33-.82,3.78-.87,3.49-1.85,7.45-1.25,11.3.5,3.2,3.12,5.64,6.34,5.9,1.33.11,2.68.16,4.01.16,13.47,0,26.45-5.65,35.62-15.5,10.21-10.98,14.74-25.79,12.43-40.63-.5-3.2-3.12-5.63-6.34-5.9-2.09-.17-4.02-.26-5.9-.26h0Z"/>
        </g>
        <g>
          <path class="cls-8" d="M299.31,413.03c-.21,0-.43-.02-.65-.06-.09-.02-9.24-1.73-12.95-2.24-9.54-1.3-18.94-5.8-25.81-12.34-9.44-9.01-12.86-19.28-11.43-34.35.15-1.61,1.39-2.91,2.99-3.13.97-.14,2-.21,3.04-.21,14.68,0,32.45,13.25,39.8,20.25,10.76,10.26,8.57,28.27,8.48,29.03-.12.96-.63,1.82-1.41,2.38-.6.44-1.32.67-2.06.67Z"/>
          <path d="M254.51,364.19c12.06,0,28.43,10.75,37.38,19.28,9.6,9.16,7.42,26.05,7.42,26.05,0,0-9.28-1.74-13.12-2.26-8.38-1.14-17.28-5.13-23.86-11.41-9.6-9.16-11.53-19.22-10.36-31.49.82-.12,1.68-.17,2.55-.17M254.51,357.19h0c-1.21,0-2.4.08-3.54.24-3.2.46-5.67,3.05-5.98,6.27-1.03,10.8-.53,24.78,12.5,37.21,7.39,7.04,17.5,11.89,27.75,13.28,3.62.49,12.69,2.19,12.78,2.21.43.08.86.12,1.29.12,1.47,0,2.91-.46,4.12-1.34,1.56-1.13,2.58-2.86,2.83-4.77.11-.83,2.5-20.54-9.53-32.01-7.7-7.34-26.42-21.22-42.21-21.22h0Z"/>
        </g>
        <path class="cls-11" d="M243.09,366.23c-11.14,19.19-19.65,16.26-29.84,33.74M248.98,363.49c21.01,11.93,25.68,19.96,34.02,28.3"/>
        <path class="cls-8" d="M249.01,356.56c5.33-.29,9.88,3.64,10.16,8.77.28,5.14-3.81,9.55-9.13,9.84s-10.59-1.54-10.87-6.68,4.51-11.64,9.84-11.94h0Z"/>
        <path class="cls-7" d="M248.6,349.21c9.46-.52,17.42,6.6,17.93,15.72.51,9.12-6.62,17.08-16.08,17.6-9.64.53-18.12-4.33-18.63-13.62-.23-4.19,1.41-9.01,4.4-12.77,3.18-4.01,7.75-6.67,12.39-6.93h0ZM249.01,356.56c-5.33.29-10.12,6.8-9.84,11.94s5.54,6.97,10.87,6.68,9.42-4.71,9.13-9.84c-.28-5.14-4.84-9.07-10.16-8.77h0Z"/>
      </g>
      <g>
        <g>
          <g>
            <path class="cls-2" d="M248.11,351.59c-16.18,0-33.15-3.55-51.85-10.86-14.2,5.51-27.18,8.3-38.58,8.3-24.6,0-37.58-12.93-45.33-20.66-1.68-1.67-3.17-3.16-4.46-4.21-1.17.08-2.33.12-3.47.12-15.89,0-29.65-7.92-37.74-21.72-9.41-16.06-9.78-37.03-1.09-54-8.21-14.22-9.55-31.45-3.66-47.6,6.52-17.85,20.91-31.86,38.51-37.48l.17-.05.17-.04c15.93-3.4,27.31-12.13,40.48-22.23l.7-.54.14-.09c8.42-5.3,17.52-7.87,27.82-7.87,11.5,0,23.08,3.22,34.28,6.33,10.99,3.05,22.35,6.21,33.37,6.21,3.7,0,7.14-.34,10.5-1.04,13.62-5.35,22.85-10.37,30.28-14.42,9.94-5.41,17.12-9.31,26.87-9.31s21.74,3.78,43.82,13.92c26.4,2.31,46.13,11.22,57.08,25.77,9.66,12.84,12.59,29.91,8.72,50.76,13.09,18.14,16.58,41.67,8.84,60.37-7.22,17.47-23.25,28.93-45.21,32.39-15.82,20.55-37.83,30.97-65.44,30.97-3.44,0-6.4-.15-8.83-.28-17.03,11.47-35.9,17.28-56.09,17.28Z"/>
            <path d="M305.22,123.91c9.37,0,21.41,3.95,42.92,13.85,36.78,3.07,73.71,20.26,62.97,73.94,23.5,31.04,17.55,81.38-34.57,88.66-20.19,27.12-46.96,30.72-63.51,30.72-3.92,0-7.27-.2-9.82-.34-17.74,12.22-36.24,17.34-55.1,17.34-17.09,0-34.47-4.2-51.85-11.13-15.56,6.18-28.21,8.56-38.59,8.56-29.76,0-40.88-19.55-48.74-24.97-1.54.14-3.04.21-4.51.21-36.19,0-51.53-42.47-34.8-72.32-19.05-30.31-1.33-71.03,31.89-81.65,16.94-3.62,28.84-12.88,42.45-23.31,8.57-5.4,17.23-7.34,25.96-7.34,22.19,0,44.82,12.54,67.65,12.54,3.83,0,7.66-.35,11.51-1.18,32.3-12.64,40.54-23.59,56.15-23.59M305.22,116.91c-10.64,0-18.15,4.09-28.54,9.74-7.29,3.97-16.35,8.89-29.61,14.12-3.03.61-6.15.91-9.5.91-10.54,0-21.17-2.95-32.43-6.08-11.43-3.17-23.25-6.46-35.22-6.46-10.98,0-20.69,2.75-29.68,8.41l-.27.17-.26.2-.57.44c-12.84,9.85-23.93,18.35-39.08,21.59l-.34.07-.33.11c-18.62,5.95-33.84,20.76-40.73,39.62-6.03,16.52-4.91,34.11,2.99,48.9-8.35,17.7-7.68,39.13,2.02,55.67,8.73,14.91,23.59,23.46,40.76,23.46.74,0,1.49-.02,2.24-.05.97.88,2.07,1.98,3.21,3.12,8.13,8.11,21.75,21.68,47.8,21.68,11.49,0,24.46-2.71,38.58-8.05,18.61,7.14,35.6,10.61,51.86,10.61,20.51,0,39.7-5.79,57.06-17.22,2.24.12,4.86.23,7.86.23,28.27,0,50.91-10.51,67.36-31.24,22.52-3.91,38.98-16.01,46.53-34.28,8.01-19.39,4.69-43.6-8.37-62.53,3.66-21.19.42-38.69-9.62-52.04-11.48-15.25-31.85-24.61-58.96-27.1-22.24-10.18-34.43-13.99-44.74-13.99h0Z"/>
          </g>
          <g>
            <path class="cls-5" d="M85.65,163.23c5.94-34.21,35.41-88.13,61.83-113.11l.14-.12c3.68-3.13,7.3-4.66,11.06-4.66,5.4,0,9.79,3.16,14.03,6.22,2.17,1.56,4.4,3.17,6.71,4.29,1.15-.99,2.07-3.44,2.89-5.65.63-1.7,1.29-3.45,2.17-4.94,6.19-14.33,16.85-27.64,30.83-38.49,2.75-2.17,6.09-3.28,9.9-3.28,22.61,0,57.44,40.43,65.28,51.87l.08.12.07.13c2.35,4.12,4.79,6.58,6.55,6.58.99,0,2.04-.85,2.75-1.56l.13-.13.14-.12c.56-.46,1.19-1.03,1.86-1.64,2.79-2.55,6.27-5.73,10.76-5.73.41,0,.82.03,1.23.08l.68.09.6.34c26.23,15.11,54.46,50.62,65.67,82.62l2.45,6.99-6.96-2.55c-6.63-2.43-11.55-3-16.31-3.54-4.39-.51-8.54-.99-13.33-2.83-16.89-6.5-27.9-10.48-40.65-10.48-14.58,0-30.67,5.51-53.81,18.41l-.5.28-.57.1c-4.34.8-8.89,1.2-13.51,1.2h0c-12.94,0-25.16-3.08-36.98-6.05-11.25-2.83-21.88-5.51-32.6-5.51-14.91,0-27.69,5.43-40.22,17.08-6.94,6.83-15.48,9.66-23.73,12.4-4.55,1.51-9.25,3.06-13.59,5.29l-6.25,3.21,1.2-6.93Z"/>
            <path d="M225.21,7c20.22,0,53.98,38.07,62.39,50.35,2.29,4.02,5.63,8.35,9.59,8.35,1.65,0,3.4-.75,5.23-2.59,2.9-2.35,6.38-6.59,10.41-6.59.25,0,.5.02.76.05,26.6,15.32,53.64,50.83,64.12,80.74-13.16-4.82-20.2-2.74-29.59-6.36-16.04-6.17-28.19-10.71-41.91-10.72-14.56,0-30.89,5.12-55.51,18.86-4.37.8-8.66,1.14-12.88,1.14-24.55,0-46.84-11.56-69.58-11.56-13.83,0-27.83,4.27-42.6,18.02-10.19,10.03-24.13,10.76-36.54,17.14,5.98-34.4,35.93-87.65,60.79-111.16,3.24-2.76,6.12-3.82,8.79-3.82,7.24,0,13.03,7.8,20.76,10.84,4.93-1.15,5.73-8.91,8.17-12.81,6.35-14.83,17.19-27.5,29.86-37.33,2.23-1.76,4.85-2.54,7.75-2.54M225.21,0c-4.61,0-8.67,1.35-12.06,4.03-14.37,11.16-25.36,24.86-31.79,39.65-.98,1.7-1.66,3.53-2.33,5.3-.23.61-.52,1.4-.83,2.15-1.12-.73-2.27-1.56-3.44-2.4-4.48-3.23-9.55-6.88-16.08-6.88-4.56,0-9.05,1.85-13.33,5.49l-.14.12-.13.13c-26.86,25.4-56.83,80.24-62.88,115.05l-2.41,13.85,12.5-6.43c4.09-2.1,8.46-3.55,13.09-5.08,8.61-2.85,17.51-5.8,25.09-13.22,11.82-10.97,23.82-16.08,37.77-16.08,10.29,0,20.71,2.63,31.75,5.4,12.02,3.03,24.46,6.16,37.83,6.16,4.83,0,9.59-.42,14.14-1.26l1.14-.21,1.01-.56c22.58-12.6,38.16-17.97,52.1-17.97,12.14,0,22.88,3.89,39.39,10.25,5.21,2.01,9.78,2.53,14.19,3.04,4.56.53,9.27,1.07,15.51,3.35l13.91,5.1-4.9-13.98c-5.42-15.47-15.05-32.46-27.11-47.85-12.48-15.92-26.73-28.94-40.12-36.65l-1.19-.69-1.37-.18c-.56-.08-1.13-.11-1.69-.11-5.85,0-10.05,3.84-13.12,6.65-.63.57-1.22,1.12-1.7,1.51l-.29.23-.26.26c-.12.12-.22.22-.31.29-.68-.55-1.93-1.88-3.46-4.58l-.14-.25-.16-.24c-4.98-7.26-16.12-20.23-27.81-30.97C249.4,7.54,235.82,0,225.21,0h0Z"/>
          </g>
        </g>
        <path class="cls-12" d="M179.35,59.68c.74-.21,2.2-.62,2.6-1.25,2.11-3.53,3.94-7.78,5.56-11.56,6.35-14.83,17.19-27.5,29.86-37.33,7.06-5.48,12.12-3.09,19.12.81,18.59,10.35,39.16,29.43,51.03,47-1.39,7.87-1.57,16.36-8.76,21.46-6.52,4.66-15.77,3.39-22.27-.64-3.4-2.11-6.5-6.92-10.24-8.31-1.52.23-4.57,5.16-5.02,5.9-5.06,8.31-10.77,12.36-20.67,11.46-17.42-1.58-32.26-12.54-41.4-26.93l.2-.6h0Z"/>
        <g>
          <path class="cls-3" d="M278.67,256.43c11.8-1.84,16.03,9.16,12.93,18.61-2.57,8.53-10.33,14.85-18.14,18.56-19.15,9.11-40.52,9-60.25,2.21-7.14-2.03-16.1-7.83-18.15-15.43-.81-3.06-.32-6.32,1.36-9.01,4.09-6.68,11.91-5.16,18.57-5.09,6.18.07,12.37.56,18.56.13,9.81-.7,19.67-1.89,29.12-4.69,5.32-1.58,10.62-3.94,16-5.29"/>
          <path class="cls-2" d="M279.74,263.61c3.42-.59,5.29,1.61,5.09,4.9-.35,5.7-2.99,9.83-7.05,13.63-.47-2.82-1.56-14.66-6.94-10.12-.94,2.11.64,10.78.8,14.4-15.59,7.02-33.11,8.52-49.66,4.23-5.7-1.6-24.45-7.22-17.74-16.62.76-1.06,8.32-.73,9.98-.58,24.08,2.15,43.21-1.91,65.52-9.83"/>
          <path class="cls-1" d="M135.14,246.46c16.6-1.13,30.97,11.45,32.04,28.06,1.08,16.61-11.54,30.93-28.15,31.96-16.53,1.02-30.78-11.53-31.85-28.07-1.07-16.53,11.43-30.82,27.96-31.95"/>
          <path class="cls-1" d="M344.55,237.15c16.6-1.13,30.97,11.45,32.04,28.06,1.08,16.61-11.54,30.93-28.15,31.96-16.53,1.02-30.78-11.53-31.85-28.07-1.07-16.53,11.43-30.82,27.96-31.95"/>
          <path class="cls-3" d="M181.88,218.94c8.55-.32,15.72,6.37,15.99,14.92.27,8.55-6.48,15.68-15.03,15.89-8.47.21-15.52-6.46-15.78-14.93-.27-8.47,6.35-15.56,14.82-15.89"/>
          <path class="cls-3" d="M309.93,212.03c5.58-.28,5.93,6.4,2.08,8.18-5.35,2.48-9.13,2.48-14.33,6.09,1.83.09,10.32.8,15.27,3.38.61.32,1.06.84,1.39,1.46,1.59,3.04.23,10.03-7.98,6.31-3.07-1.39-4.46-1.98-9.72-1.84-4.28.11-9.53,2.31-13.34-.18-2.52-1.65-1.41-6.18.11-8.23,6.31-8.49,17.06-13.53,26.53-15.17"/>
          <ellipse class="cls-3" cx="242.85" cy="245.29" rx="9.52" ry="6.82" transform="translate(-17.23 18.35) rotate(-4.18)"/>
        </g>
      </g>
      <g>
        <path class="cls-2" d="M391.97,398.81c-3.85,0-8.33-.16-13.31-.48-.12,0-.24-.02-.36-.04l-1.7-.28c-9.27-1.53-15.4-2.53-22.68-12.4-9.65-13.08-10.57-33.75-8.21-48.73,2.98-18.96,8.35-27.87,23.87-39.39,2.83-3.65,3.89-9.75,5.01-16.2,1.98-11.4,4.23-24.31,17.86-26.71.75-.13,1.5-.2,2.24-.2,11.32,0,16.9,14.77,17.38,22.67.37,6.19.59,15.15.09,21.57,2.54,1.59,5.12,2.68,7.27,3.59,3.86,1.63,7.2,3.04,7.8,6.56.51,3.01-1.49,5.64-3.97,8.03-3.16,23.01-7.41,60.56-5.85,67.13.83,3.47.29,6.43-1.58,8.8-3.36,4.25-10.5,6.06-23.88,6.06,0,0,0,0,0,0Z"/>
        <path d="M394.72,257.89c8.59,0,13.46,12.34,13.88,19.38.38,6.34.63,16.8-.09,23.09,10.23,7.46,21.38,5.74,11.48,14.74,0,0-8.29,59.83-5.96,69.65,1.62,6.83-3.52,10.56-22.05,10.56-3.78,0-8.13-.16-13.09-.47-10.29-1.72-15.31-2.06-22.14-11.3-8.96-12.14-9.84-31.63-7.57-46.11,2.92-18.55,8.19-26.56,22.86-37.39,9.25-11.09,2.65-38.77,21.04-42,.56-.1,1.1-.15,1.64-.15M394.72,250.89c-.94,0-1.9.08-2.85.25-16.05,2.82-18.74,18.27-20.7,29.55-.96,5.53-1.96,11.24-4.08,14.31-15.89,11.9-21.73,21.7-24.82,41.34-1.2,7.61-4.1,33.81,8.85,51.35,8.12,11.01,15.17,12.17,24.93,13.77l1.69.28c.24.04.47.07.71.08,5.06.32,9.61.49,13.53.49,14.57,0,22.53-2.21,26.63-7.39,1.77-2.23,3.59-6.09,2.24-11.78-1.22-5.13,1.99-37.03,5.75-64.66,2.27-2.35,4.87-5.89,4.12-10.29-.92-5.4-5.68-7.42-9.89-9.19-1.58-.67-3.29-1.39-5.01-2.31.32-6.34.11-14.21-.23-19.84-.63-10.47-7.7-25.96-20.87-25.96h0Z"/>
      </g>
      <g>
        <path class="cls-2" d="M402.86,398c-11.17,0-19.88-4.07-25.9-12.1-13.19-17.6-8.97-48.76-4.4-64.39,3.53-12.4,17.97-20.06,30.43-21.22,1.68-.21,3.35-.32,4.95-.32,18.56,0,31.05,14.56,32.59,37.99,1.74,26.52-11.59,56.93-34.21,59.92-.08,0-.15.02-.22.02-1.09.07-2.18.11-3.23.11Z"/>
        <path d="M407.94,303.46c43.58,0,34.73,86.07-2.08,90.94-1.03.07-2.03.1-3,.1-35.87,0-34.51-46.12-26.94-72.02,3.22-11.31,16.77-17.75,27.45-18.73,1.58-.2,3.11-.3,4.57-.3M407.95,296.46v7-7c-1.73,0-3.52.11-5.33.34-13.21,1.25-29.26,9.2-33.41,23.74-3.12,10.69-4.8,23.01-4.61,33.82.25,14.18,3.47,25.5,9.57,33.64,6.62,8.84,16.55,13.51,28.7,13.51,1.13,0,2.3-.04,3.47-.12.15-.01.3-.02.45-.04,12-1.59,22.42-10.02,29.36-23.74,5.91-11.69,8.78-26.22,7.88-39.88-.74-11.23-3.97-20.94-9.33-28.09-6.47-8.61-15.71-13.16-26.74-13.16h0Z"/>
      </g>
      <g>
        <path class="cls-10" d="M423.44,199.58c.06-.07.13-.14.19-.21,3.1-3.59,5.48-8.47,7.67-12.67.76-1.45,1.3-3.1,2.28-4.42.59-.81,1.43-1.57,2.48-1.62,1.07-.05,2.28.7,2.96,1.48,2.65,3.1-6.79,36.86,16.66,40.38,7.01,1.05,13.91-1.1,20.42-3.48,2.03-.75,4.31-1.82,6.5-1.9,1.02-.04,2.51.84,3.02,1.72.52.89.27,1.87-.06,2.8-1.04,2.91-3.26,5.56-4.97,8.11-4.63,6.92-9.25,15.78-5.7,24.12,2.15,5.05,6.98,8.22,11.93,10.13,2.76,1.07,9.65,1.63,10.83,4.67.22.57.1.87.03,1.46-1.98,3.2-7.98,4.23-11.21,5.71-11.48,5.26-18.74,13.51-8.55,24.75,2.16,2.38,12.31,8.9,5.51,11.85-1.01.35-9.5-.45-11.36-.51-3.47-.09-6.95,0-10.41.25-2.33.18-6.77.89-8.75.1-1.21.19-1.3.23-2.48.03-1.72-1.66.73-9.37,1.28-11.89,4.45-20.29,1.06-44.55-16-58.25-1.73-1.39-7.75-5.56-9.81-5.3-1.9-1.7-8.18-3.24-10.73-3.22-11.1-3.08-22.17.98-32.44,3.89l-.14.07c-8.85,4.24-5.54-8.22-4.38-13.1,1.44-6.04-2.14-19.38,2.88-21.76,3.34-1.58,8.64,8.57,11.69,9.54,5.35,3.8,18.56,1.84,21.62-3.69,2.27-.54,7.61-7.15,9.07-9.05"/>
        <path class="cls-4" d="M423.44,199.58c.06-.07.13-.14.19-.21,3.1-3.59,5.48-8.47,7.67-12.67.76-1.45,1.3-3.1,2.28-4.42.59-.81,1.43-1.57,2.48-1.62,1.07-.05,2.28.7,2.96,1.48,2.65,3.1-6.79,36.86,16.66,40.38,7.01,1.05,13.91-1.1,20.42-3.48,2.03-.75,4.31-1.82,6.5-1.9,1.02-.04,2.51.84,3.02,1.72.52.89.27,1.87-.06,2.8-1.04,2.91-3.26,5.56-4.97,8.11-4.63,6.92-9.25,15.78-5.7,24.12,2.15,5.05,6.98,8.22,11.93,10.13,2.76,1.07,9.65,1.63,10.83,4.67.22.57.1.87.03,1.46-1.98,3.2-7.98,4.23-11.21,5.71-11.48,5.26-18.74,13.51-8.55,24.75,2.16,2.38,12.31,8.9,5.51,11.85-1.01.35-9.5-.45-11.36-.51-3.47-.09-6.95,0-10.41.25-2.33.18-6.77.89-8.75.1-7.18-9.16,15.66-7.38,19.41-7.28-12.72-15.14-5.21-26.72,10-35.15-19.62-8.69-18.61-26.24-8.71-42.32-3.74,1.34-7.69,1.8-11.61,2.14-18.73,1.59-29.17-12.26-30.07-29.8-.95,1.39-1.93,2.76-2.92,4.13-6.18,8.41-14.5,15.57-25.17,17.21-7.19,1.11-12.39-1.28-18.02-5.45.14,6.75-.99,15.44-3.09,21.78l-.14.07c-8.85,4.24-5.54-8.22-4.38-13.1,1.44-6.04-2.14-19.38,2.88-21.76,3.34-1.58,8.64,8.57,11.69,9.54,5.35,3.8,18.56,1.84,21.62-3.69,2.27-.54,7.61-7.15,9.07-9.05"/>
      </g>
    </g>
  </g>
</svg>