<?xml version="1.0" encoding="UTF-8"?>
<svg id="Layer_2" data-name="Layer 2" xmlns="http://www.w3.org/2000/svg" viewBox="0 0 484.88 515.71">
  <defs>
    <style>
      .cls-1, .cls-2, .cls-3 {
        stroke-linecap: round;
      }

      .cls-1, .cls-4 {
        fill: #ffc6d5;
      }

      .cls-1, .cls-5, .cls-6 {
        stroke: #000;
        stroke-width: 7px;
      }

      .cls-1, .cls-3 {
        stroke-linejoin: round;
      }

      .cls-7 {
        fill: #fec6d4;
      }

      .cls-2 {
        stroke: #030202;
        stroke-width: 6px;
      }

      .cls-2, .cls-5, .cls-6 {
        stroke-miterlimit: 10;
      }

      .cls-2, .cls-3 {
        fill: none;
      }

      .cls-8, .cls-5 {
        fill: #fff;
      }

      .cls-3 {
        stroke: #fc8da9;
        stroke-width: 4px;
      }

      .cls-6 {
        fill: #fc8da9;
      }

      .cls-9 {
        fill: #b8babc;
      }

      .cls-10 {
        fill: #f786a1;
      }

      .cls-11 {
        fill: #ffdce1;
      }

      .cls-12 {
        fill: #fcc0ce;
      }

      .cls-13 {
        fill: #c03a43;
      }

      .cls-14 {
        fill: #030202;
      }

      .cls-15 {
        fill: #a4dcac;
      }
    </style>
  </defs>
  <g id="Layer_1-2" data-name="Layer 1">
    <g>
      <circle class="cls-1" cx="371.88" cy="84.47" r="60.46"/>
      <circle class="cls-1" cx="103.75" cy="84.47" r="60.46"/>
      <g>
        <path class="cls-8" d="M157.46,454.76c-12.9,0-25.06-10.1-31.56-18.74l-.09-.13c-.6-.88-5.81-8.74-4.03-14.77,1.69-5.73,6.07-12.56,17.28-12.56,3.07,0,6.15.49,8.74,1.03,1.98-1.75,3.82-4.06,5.62-6.31.88-1.1,1.79-2.24,2.71-3.31.91-1.06,1.83-2.14,2.76-3.24,2.7-3.19,5.5-6.49,8.39-9.46l1.35-1.39,1.89.4c.99.21,1.73.69,5.48,3.29,1.31.91,3.1,2.15,3.65,2.45,9.61,5.2,18.95,8.2,31.23,10.05l6.74,1.01-4.75,4.89c-4.38,4.5-8.87,9-13.34,13.36l-1.89,1.81c-6.39,6.13-12.43,11.93-18.18,18.59-4.16,4.82-7.76,8.99-14.48,11.79l-.13.05-.13.04c-2.31.76-4.75,1.14-7.24,1.14h0Z"/>
        <path d="M169.78,389.71c.69.15,6.61,4.53,8.19,5.39,10.62,5.75,20.47,8.64,32.38,10.43-4.37,4.49-8.79,8.92-13.28,13.3-7.05,6.78-13.85,13.17-20.28,20.62-4.13,4.78-7.22,8.36-13.18,10.84-2.03.66-4.09.97-6.15.97-11.23,0-22.48-8.98-28.77-17.35-1.91-2.79-4.59-8.33-3.56-11.8,2.32-7.86,7.83-10.05,13.92-10.05,3.18,0,6.51.6,9.64,1.3,3.87-2.88,6.92-7.44,10.08-11.11,3.56-4.13,7.22-8.65,11.01-12.55M167.45,382.06l-2.69,2.77c-2.98,3.06-5.81,6.4-8.55,9.64-.92,1.09-1.84,2.17-2.74,3.22-.96,1.11-1.89,2.28-2.79,3.4-1.31,1.64-2.66,3.32-4,4.72-2.34-.42-4.96-.75-7.62-.75-10.43,0-17.76,5.35-20.63,15.07-2.2,7.42,3.36,16.08,4.5,17.74l.09.13.09.12c6.99,9.29,20.18,20.14,34.36,20.14,2.86,0,5.66-.44,8.33-1.31l.26-.08.25-.1c7.49-3.12,11.33-7.57,15.79-12.73,5.64-6.54,11.63-12.28,17.96-18.35l1.87-1.79.02-.02.02-.02c4.49-4.38,9-8.9,13.41-13.43l9.51-9.78-13.49-2.02c-11.86-1.78-20.86-4.67-30.09-9.67-.47-.27-2.18-1.46-3.32-2.25-3.83-2.66-4.99-3.46-6.75-3.83l-3.78-.8h0Z"/>
      </g>
      <g>
        <path class="cls-8" d="M316.05,454.77c-2.39,0-4.69-.33-6.84-1l-.18-.06-.18-.08c-2.93-1.27-5.64-2.97-8.06-5.05-2.81-2.47-5.52-5.67-8.15-8.77-2.07-2.45-4.03-4.75-5.93-6.61-3.74-3.66-7.6-7.34-11.33-10.9-4.84-4.62-9.84-9.39-14.68-14.19l-5.21-5.17,7.29-.8c9.47-1.04,22.16-4.87,30.18-9.12,2.42-1.28,6.5-4.69,8.04-5.97l1.72-1.44,2.03.97c1.24.59,2.73,2,15.59,16.5,2.08,2.34,4.07,4.59,5.35,5.99.06,0,.13-.01.19-.02,2.36-.23,5.03-.49,7.65-.49,2.82,0,5.11.31,7.01.94,4.43,1.47,8.06,4.68,9.97,8.78,1.82,3.92,1.94,8.31.32,12.36-4.64,11.65-19.71,24.12-34.77,24.12Z"/>
        <path d="M303.24,389.76c1.53.73,18.35,20.2,21.06,22.97,2.72-.24,6.07-.66,9.23-.66,2.14,0,4.19.19,5.9.76,6.89,2.29,10.92,9.57,8.15,16.52-4.38,11-18.77,21.92-31.52,21.92-1.99,0-3.94-.27-5.81-.84-2.6-1.12-5.02-2.64-7.16-4.49-4.68-4.11-9.39-10.82-13.92-15.23-8.61-8.4-17.45-16.59-26-25.07,9.63-1.05,22.83-4.95,31.44-9.5,2.57-1.36,6.31-4.43,8.64-6.38M302.2,381.51l-3.45,2.88c-1.32,1.1-5.33,4.45-7.43,5.56-7.56,4-19.99,7.75-28.92,8.73l-14.58,1.6,10.42,10.33c4.86,4.82,9.87,9.6,14.72,14.23,3.73,3.56,7.58,7.23,11.31,10.88,1.79,1.74,3.69,3.99,5.71,6.37,2.71,3.19,5.51,6.5,8.48,9.11l.02.02.02.02c2.69,2.32,5.7,4.21,8.96,5.62l.35.15.37.11c2.48.76,5.13,1.15,7.87,1.15,14.93,0,32.35-12.06,38.02-26.33,1.97-4.95,1.83-10.32-.4-15.12-2.31-4.98-6.7-8.85-12.03-10.63-2.26-.75-4.91-1.12-8.11-1.12-2.21,0-4.4.17-6.42.36-1.17-1.3-2.64-2.96-4.16-4.67-13.88-15.63-14.84-16.44-16.69-17.32l-4.05-1.93h0Z"/>
      </g>
      <path class="cls-8" d="M87.77,217.97c-.44-.95-12.35-37.68-1.8-78.34C109.03,50.73,191.84,3.51,280.44,26.53c22.05,7.51,63.48,29.96,83.6,60.82,1.72,3.19,4.45,7.04,6.38,10.43,6.78,11.67,12.19,24.08,16.13,36.99,7.51,25.56,7.86,57.34-.7,83.12-27.39,57.05-60.02,69.13-100.5,80.19-21.35,5.09-43.49,5.39-65.34,4.49-14.43-.6-34.07-2.14-47.5-7.65-17.85-6.28-67.35-25.35-84.73-76.94Z"/>
      <g>
        <path class="cls-14" d="M207.73,208.59c2.95-.11,7.14,1.2,10.25,1.53,14.82,1.6,30.18,1.52,44.84-1.38,6.31-1.25,7.69,5.6,8.03,10.32,1.3,18.31-.77,40.62-12.73,55.3-1.62,1.92-3.47,3.6-5.5,5.14-5.19,4.24-13.72,5.92-20.37,4.6-27.47-5.42-31.78-45.07-28.89-67.85.42-3.33,1.82-5.83,4.38-7.66Z"/>
        <path class="cls-13" d="M209.54,214.94c5.85.49,11.36,1.26,17.35,1.66,13.37.9,24.06-.1,37.16-2.17,2.5,13.58,1.46,29.95-3.21,43.02-5.5,13.23-15.77,25.96-31.98,19.57-7.28-2.87-12.83-11.3-15.59-18.37l-.09-.22c-5.03-12.57-5.9-30.22-3.64-43.49Z"/>
        <path class="cls-10" d="M213.18,258.43c1.17-1.93,9.12-5.58,11.45-6.23,13.43-3.76,24.33-1.03,36.2,5.25-5.5,13.23-15.77,25.96-31.98,19.57-7.28-2.87-12.83-11.3-15.59-18.37l-.09-.22Z"/>
      </g>
      <path class="cls-6" d="M284.88,399.17c-17.09,5.58-32.5,6.63-50.43,6.42-18.76-.23-37.27-2-54.22-10.65-.16-.08-.31-.17-.47-.27-10.45-6.04-17.26-12-20.35-24.28-3.6-14.33-.57-30.36,5.01-45.2,3.56-9.53,8.18-18.56,12.76-26.35,48.4,17.65,115.13,1.79,119.78-.24.33.33,7.3,13.66,11.86,25.36.64,1.64,1.23,3.25,1.75,4.79,9.8,29.05,7.95,59.46-25.69,70.42Z"/>
      <path class="cls-9" d="M222.33,488.07c20.8-1.01,92.61-.03,107.09,11.46.79.62,1.73,1.47,1.73,2.56,0,.72-.44,1.37-.93,1.86-8.82,8.82-64.46,11.47-78.99,11.65-10.55.06-21.14.22-31.69-.06-15.95-.42-62.92-2.73-74.69-10.64-.91-.61-2.05-1.45-2.24-2.61-.1-.64.13-1.2.53-1.69,7.87-9.79,65.54-12.11,79.19-12.54Z"/>
      <path class="cls-12" d="M29.62,144.93c.81.09,1.66.28,2.02,1.09,2.82,7.31,3.38,12.95,7.27,19.98,4.07,7.36,19.72,9.96,22.5,13.7-.16,1.28-4.28,2.57-5.51,3.01-6.23,2.12-11.3,4.1-15.84,8.92-5.19,5.51-5.42,17.16-8.74,22.1-.51.32-.66.33-1.24.51-1.98-.57-3.02-4.99-3.45-6.92-1.21-5.55-3.61-10.17-5.82-14.96-2.96-6.43-19.32-9.94-20.82-12.33.06-2.1,3.02-3.27,4.72-3.78,9.66-2.92,16.78-6.86,19.97-17.01,1.37-4.35,2.32-10.52,4.93-14.33Z"/>
      <path class="cls-12" d="M435.11,166.86c4.33,2.26,3.33,12.77,7.75,17.74,5.89,6.63,11.81,4.76,18.3,10.96-4.93,2.84-9.89,3.69-14.81,6.53-7.26,4.18-6.25,15.32-10.5,20.47-2.66-.56-3.93-8.5-4.98-11.45-.78-2.16-1.76-4.24-2.93-6.21-4.06-6.8-16.77-6.4-17.5-10.89,1.03-1.89,11.77-3.93,15.83-7.8,6.12-5.85,5.19-15.19,8.85-19.35Z"/>
      <path class="cls-12" d="M464.19,126.14c3.35,1.67,3.45,8.88,5.79,12.55,3.12,4.9,6.33,6.01,11.83,7.41,1.27.32,2.48.83,3.08,1.99l-.22.61c-2.09,1.88-5.41,2.27-8.05,3.35-8.23,3.35-7.92,10.74-10.74,17.15-.81.42-.75.42-1.65.4-.41-.29-.89-.57-.98-1.09-1.7-9.48-4.47-15.81-14.56-18.18-1.03-.24-2.64-1.06-3.27-2.09.21-2.57,8.15-3.02,11.64-6.28,5.06-4.73,4.4-12.62,7.14-15.81Z"/>
      <path class="cls-4" d="M87.77,217.97c-.44-.95-12.35-37.68-1.8-78.34C109.03,50.73,191.84,3.51,280.44,26.53c14.11,5.72,49.72,17.55,83.6,60.82,1.72,3.19,4.45,7.04,6.38,10.43,6.78,11.67,12.19,24.08,16.13,36.99,7.51,25.56,7.86,57.34-.7,83.12-.16.49-14.37,30.83-34.21,48.48.31-1.67,12.64-18.24,23.92-49.32,4.38-13.99,6.12-27.83,5.3-42.42-25.85-.39-46.76-7.8-56.74-33.96-2.8,2.29-5.35,4.44-8.41,6.39-11.16,7.1-24.38,10.24-37.54,8.91-12.19-1.24-23.39-6.41-31.39-15.91-5.01-5.95-6.62-10.8-10.32-16.99-2.74,5.85-5.32,11.84-9.47,16.87-18.96,22.99-58.09,20.2-78.58.68-8.29,26.01-30.07,34.04-55.21,34.04,0,33.92,11.03,71.9,26.05,88.97-21.54-13.14-30.74-44.92-31.48-45.66Z"/>
      <path class="cls-3" d="M351.63,266.36c23.9-41.18,30.81-63.27,29.23-91.74-25.85-.39-46.76-7.8-56.74-33.96-2.8,2.29-5.35,4.44-8.41,6.39-11.16,7.1-24.38,10.24-37.54,8.91-12.19-1.24-23.39-6.41-31.39-15.91-5.01-5.95-6.62-10.8-10.32-16.99-2.74,5.85-5.32,11.84-9.47,16.87-18.96,22.99-58.09,20.2-78.58.68-8.29,26.01-30.07,34.04-55.21,34.04-.06,13.5,4.51,62.32,27.2,89.95"/>
      <path d="M236.1,20.74c14.44,0,29.3,1.88,44.34,5.79,27.28,8.67,72.23,38.71,89.98,71.25,6.78,11.67,12.19,24.08,16.13,36.99,7.51,25.56,7.87,57.34-.7,83.12-10.65,28.68-34.86,64.29-100.5,80.19-15.64,3.73-31.71,4.89-47.78,4.89-5.86,0-11.72-.15-17.56-.39-105.28-6.64-130.35-74.52-134.42-93.8-5.41-22.74-5.28-46.46.39-69.14C105.12,65.82,165.46,20.74,236.1,20.74M236.1,13.74v7-7c-36.65,0-70.77,11.5-98.68,33.25-28.41,22.13-48.55,53.56-58.23,90.89v.03s-.02.03-.02.03c-5.91,23.64-6.06,48.66-.43,72.37,1.52,7.15,8.2,31.79,31.11,55.02,11.77,11.94,26.07,21.66,42.48,28.9,19.45,8.58,42.07,13.74,67.23,15.33h.08s.08,0,.08,0c6.55.27,12.39.4,17.84.4,19.17,0,34.87-1.61,49.4-5.08,30.7-7.43,55.59-19.87,74.02-36.98,14.13-13.12,24.41-28.69,31.43-47.58l.04-.11.04-.12c8.65-26.05,8.95-59.5.78-87.3v-.03s-.02-.03-.02-.03c-4.08-13.38-9.7-26.29-16.72-38.38-10.9-19.94-29.56-36.42-43.31-46.74-16.85-12.65-35.79-23.02-50.65-27.74l-.18-.06-.18-.05c-15.36-3.99-30.87-6.01-46.1-6.01h0Z"/>
      <g>
        <ellipse class="cls-11" cx="142.3" cy="229.08" rx="24.53" ry="21.63"/>
        <path class="cls-7" d="M133.01,236.74c-.37,0-.74-.05-1.11-.15-1.92-.54-2.99-2.36-2.37-4.05l3.48-9.63c.61-1.7,2.67-2.63,4.6-2.09,1.92.54,2.99,2.36,2.37,4.05l-3.48,9.63c-.5,1.37-1.93,2.25-3.48,2.25Z"/>
        <path class="cls-7" d="M146.83,238.72c-.37,0-.74-.05-1.11-.15-1.92-.54-2.99-2.36-2.37-4.05l3.48-9.63c.61-1.7,2.67-2.63,4.6-2.09,1.92.54,2.99,2.36,2.37,4.05l-3.48,9.63c-.5,1.37-1.93,2.25-3.48,2.25Z"/>
      </g>
      <g>
        <ellipse class="cls-11" cx="332.25" cy="229.08" rx="24.53" ry="21.63"/>
        <path class="cls-7" d="M322.96,236.74c-.37,0-.74-.05-1.11-.15-1.92-.54-2.99-2.36-2.37-4.05l3.48-9.63c.61-1.7,2.67-2.63,4.6-2.09,1.92.54,2.99,2.36,2.37,4.05l-3.48,9.63c-.5,1.37-1.93,2.25-3.48,2.25Z"/>
        <path class="cls-7" d="M336.78,238.72c-.37,0-.74-.05-1.11-.15-1.92-.54-2.99-2.36-2.37-4.05l3.48-9.63c.61-1.7,2.67-2.63,4.6-2.09,1.92.54,2.99,2.36,2.37,4.05l-3.48,9.63c-.5,1.37-1.93,2.25-3.48,2.25Z"/>
      </g>
      <path class="cls-5" d="M177.18,298.84c-4.58,7.79-9.2,16.82-12.76,26.35-10.21-5.18-22.94-12.39-30.86-17.15-18.08-10.88-52.52-35.32-57.67-56.57-1.35-5.58-1.02-11.31,2.07-16.26,2.68-4.3,6.51-6.94,11.42-8.07,9.19-.85,11.86,3.54,17.64,9.15,4.36,4.05,2.5-9.26,10.24-6.24,6.6,2.57,3.54,16.44,6.62,20.52,3.01,3.99,5.63,6.68,8.41,9.5,13.73,13.92,29.68,26.54,44.89,38.77Z"/>
      <path class="cls-5" d="M396.5,254.65c-7.98,16.85-26.23,32-41.46,42.54-12.47,8.63-32.36,21.08-46.22,26.77-4.56-11.7-11.53-25.03-11.86-25.36,25.95-11.16,53.1-48.69,53.7-50.49,2.02-6.08-.67-14.97,5.37-19.36,5.5-1.96,8.33,7.44,8.33,7.44,4.53-5.52,5.69-8.5,16.09-10.97,14.88-1.21,22,17.17,16.05,29.43Z"/>
      <path class="cls-2" d="M163.04,171.66s35.13,12.11,34.44,16.47c-.69,4.36-17.21,7.36-34.44,13.26"/>
      <path class="cls-2" d="M309.62,171.66s-35.13,12.11-34.44,16.47c.69,4.36,17.21,7.36,34.44,13.26"/>
      <g>
        <g>
          <path class="cls-8" d="M344.53,96c-6.19,0-12.32-2.75-16.38-7.36-1.92-2.18-3.11-3.87-4.27-5.8-.16.25-.32.5-.47.74-.26.41-.51.8-.76,1.17-3.27,4.83-7.3,7.56-12.7,8.61-1.48.28-2.96.42-4.43.42-4.66,0-8.89-1.39-12.22-4.01-12.84-10.1-6.87-21.14-2.11-28.05-1.02-.85-2.17-1.55-3.43-2.32-.86-.53-1.75-1.07-2.67-1.7-4-2.75-6.7-7.09-7.62-12.22-.88-4.94.13-9.95,2.79-13.73,1.87-2.67,4.56-4.85,7.77-6.28,2.52-1.13,5.09-1.7,7.62-1.7,5.11,0,9.16,2.29,12.11,3.96.73.41,1.63.92,2.34,1.25-.04-.57-.15-1.21-.26-1.84-.07-.4-.14-.8-.19-1.19-.55-3.91-.94-9.69,2.07-14.66,2.48-4.09,6.4-6.73,11.98-8.07l.19-.05.2-.02c.86-.09,1.72-.13,2.57-.13,6.12,0,11.58,2.3,15.36,6.47,3.72,4.11,5.45,9.7,4.85,15.76-.09.97-.46,2.24-.89,3.72-.15.53-.36,1.24-.53,1.89,1.06-.18,2.41-.58,3.64-.94,1.92-.57,3.74-1.11,5.26-1.11.27,0,.53.02.78.05,2.53.15,4.75.65,6.79,1.53,10.43,4.5,15.17,15.25,11.03,25-3.01,7.07-9.12,9.41-14.55,11.44,2.45,4.63,5.22,9.89,3.3,16.55-2.24,7.81-8.82,12.66-17.16,12.66Z"/>
          <path d="M326.65,6c10.42,0,18.33,7.73,17.23,18.94-.17,1.77-2.18,6.85-1.67,7.91.38.79,1.21,1.08,2.27,1.08,2.89,0,7.56-2.15,9.87-2.15.17,0,.33.01.47.04,2.03.11,4.02.48,5.9,1.29,8.4,3.62,13.2,12.26,9.46,21.07-3,7.05-9.58,8.41-15.99,11,2.75,5.68,6.55,10.61,4.62,17.32-2.06,7.18-8,10.49-14.28,10.49-5.13,0-10.49-2.22-14.13-6.35-2.69-3.06-3.82-5.05-5.8-8.61l-.39-.04c-1.72,1.09-2.92,3.41-4.04,5.07-2.69,3.98-6.03,6.42-10.78,7.34-1.26.24-2.56.37-3.86.37-3.69,0-7.39-1.02-10.37-3.37-10.82-8.51-6.34-17.24-.08-26-2.33-2.91-5.3-4.13-8.29-6.19-3.49-2.4-5.63-6.13-6.37-10.28-.7-3.91,0-8.2,2.29-11.48,1.63-2.32,3.96-4.11,6.54-5.26,2.31-1.03,4.44-1.44,6.39-1.44,7.22,0,12.15,5.53,15.41,5.53.2,0,.4-.02.59-.07,1.02-.24,1.33-1.14,1.43-2.07.16-1.51-.25-3.14-.46-4.64-.61-4.29-.66-8.85,1.66-12.68,2.29-3.78,5.92-5.7,10.11-6.7.76-.08,1.52-.12,2.26-.12M326.65,0h0c-.95,0-1.92.05-2.88.15l-.39.04-.38.09c-6.31,1.51-10.97,4.68-13.85,9.43-2.82,4.65-3.1,9.74-2.78,13.83-2.83-1.42-6.44-2.79-10.72-2.79-2.96,0-5.93.66-8.84,1.96-3.7,1.66-6.81,4.18-9,7.3-3.11,4.44-4.31,10.26-3.29,15.98,1.06,5.93,4.21,10.96,8.87,14.16.99.68,1.96,1.27,2.81,1.79.32.19.62.38.9.55-4.57,7.48-8.91,19.19,4.34,29.62,3.87,3.04,8.74,4.65,14.08,4.65,1.65,0,3.33-.16,4.97-.47,5.48-1.06,9.87-3.73,13.37-8.15.59.78,1.26,1.58,2.03,2.46,4.62,5.25,11.59,8.38,18.63,8.38,9.74,0,17.42-5.68,20.05-14.83,1.81-6.29.09-11.46-2-15.78,4.96-2.05,10.24-5.07,13.12-11.86,4.81-11.31-.6-23.75-12.6-28.93-2.33-1.01-4.85-1.58-7.7-1.76-.34-.04-.7-.06-1.06-.06-1.51,0-3.05.35-4.66.81.07-.37.13-.73.16-1.07.68-6.9-1.32-13.32-5.62-18.06-4.36-4.81-10.61-7.46-17.58-7.46h0Z"/>
        </g>
        <path class="cls-15" d="M322.97,37.92c8.15-.64,17.65,3.66,18.89,12.53.49,3.32-.37,6.7-2.38,9.38-2.73,3.62-6.47,4.86-10.73,5.5-8.36.5-18.91-3.88-19.62-13.28-.27-3.45.86-6.86,3.13-9.47,2.94-3.33,6.47-4.36,10.72-4.65Z"/>
      </g>
    </g>
  </g>
</svg>