<?xml version="1.0" encoding="UTF-8"?>
<svg id="Layer_2" data-name="Layer 2" xmlns="http://www.w3.org/2000/svg" viewBox="0 0 487.21 518.76">
  <defs>
    <style>
      .cls-1 {
        fill: #f9fbff;
        stroke-width: 6px;
      }

      .cls-1, .cls-2, .cls-3, .cls-4, .cls-5, .cls-6 {
        stroke-linejoin: round;
      }

      .cls-1, .cls-2, .cls-3, .cls-7, .cls-8, .cls-5, .cls-6 {
        stroke: #000;
      }

      .cls-2, .cls-3, .cls-4, .cls-6 {
        stroke-linecap: round;
      }

      .cls-2, .cls-3, .cls-7, .cls-8, .cls-5, .cls-6 {
        stroke-width: 7px;
      }

      .cls-2, .cls-4 {
        fill: #ffc6d5;
      }

      .cls-9 {
        fill: #fec6d4;
      }

      .cls-3, .cls-10, .cls-7, .cls-5 {
        fill: #fff;
      }

      .cls-11 {
        fill: #070606;
      }

      .cls-4 {
        stroke: #fc8da9;
        stroke-width: 4px;
      }

      .cls-7, .cls-8 {
        stroke-miterlimit: 10;
      }

      .cls-8 {
        fill: #fc8da9;
      }

      .cls-12 {
        fill: #9fe0ab;
      }

      .cls-13 {
        fill: #ffdce1;
      }

      .cls-6 {
        fill: none;
      }
    </style>
  </defs>
  <g id="Layer_1-2" data-name="Layer 1">
    <g>
      <g>
        <path class="cls-3" d="M291.92,444.18l-16.32,39.99s18.72,7.01,11.42,19.56c-7.31,12.55-25.95,8.28-25.95,8.28,0,0-21.22-.62-19.91-24.44,1.31-23.83,3.04-44.45,3.04-44.45l47.72,1.07Z"/>
        <path class="cls-7" d="M212.72,515.24c17.37.83,17.01-17.38,12.61-29.15,14.98-14.16,27.86-33.03,38.65-49.62-17.46,5.04-32.94-6.72-52.86-9.58-2.76,13.49-18.34,26.68-23.78,41.98-4.05,11.41-.6,24.84,8.03,35.96,2.94,3.44,10.18,9.8,17.34,10.41Z"/>
        <path class="cls-5" d="M277.72,356.06c-2.73-1.83-2.27-9.05-1.22-11.57,5.08-12.2,17.71-13.52,31.04-5.18,21.33,13.98,45.45,32.16,55.15,56.46,5.07,12.69-4.07,23.33-12.42,25.84-16.6,4.99-28.93-18.16-36.53-26.33-12.56-13.43-20.5-29.55-36.01-39.22Z"/>
        <path class="cls-8" d="M322.49,398.47c-2.73-54.73-37.69-77.88-37.69-77.88l-89.4,3.1s-23.84,25.19-22.78,79.98c1.34,68.98,153.31,63.76,149.86-5.19Z"/>
        <g>
          <path class="cls-10" d="M263.53,355.47c85.71-23.89,144.89-80.18,121-165.92-23.9-85.74-112.75-135.88-198.46-111.99l-.07.02c-85.71,23.89-135.81,112.76-111.91,198.5,23.9,85.74,103.67,103.3,189.38,79.41"/>
          <circle class="cls-2" cx="63.95" cy="181.55" r="60.44"/>
          <circle class="cls-2" cx="341.21" cy="104.27" r="60.44"/>
          <g>
            <circle class="cls-13" cx="170.14" cy="310.45" r="21.39"/>
            <path class="cls-9" d="M164.37,319.93c-.31.09-.64.13-.98.11-1.76-.07-3.14-1.55-3.07-3.31l.37-9.99c.07-1.76,1.54-3.14,3.31-3.07,1.76.07,3.14,1.55,3.07,3.31l-.37,9.99c-.05,1.42-1.03,2.59-2.33,2.96Z"/>
            <path class="cls-9" d="M176.51,318.58c-.31.09-.64.13-.98.11-1.76-.07-3.14-1.55-3.07-3.31l.37-9.99c.07-1.76,1.55-3.14,3.31-3.07,1.76.07,3.14,1.55,3.07,3.31l-.37,9.99c-.05,1.42-1.03,2.59-2.33,2.96Z"/>
          </g>
          <g>
            <circle class="cls-13" cx="346.89" cy="264.61" r="17.62"/>
            <path class="cls-9" d="M342.95,272.19c-.26.07-.53.1-.8.09-1.45-.05-2.58-1.27-2.53-2.72l.3-8.23c.05-1.45,1.27-2.58,2.72-2.53,1.45.05,2.58,1.27,2.53,2.72l-.3,8.23c-.04,1.17-.85,2.14-1.92,2.43Z"/>
            <path class="cls-9" d="M352.95,271.07c-.26.07-.53.1-.8.09-1.45-.05-2.58-1.27-2.53-2.72l.3-8.23c.05-1.45,1.27-2.58,2.72-2.53,1.45.05,2.58,1.27,2.53,2.72l-.3,8.23c-.04,1.17-.85,2.14-1.92,2.43Z"/>
          </g>
          <ellipse cx="305.43" cy="252.6" rx="13.91" ry="16.21" transform="translate(-37.67 54.17) rotate(-9.55)"/>
          <ellipse cx="205.71" cy="271.86" rx="14.68" ry="17.2" transform="translate(-42.25 37.89) rotate(-9.55)"/>
          <g id="_Mirror_Repeat_" data-name="&amp;lt;Mirror Repeat&amp;gt;">
            <path class="cls-4" d="M241.96,189.56c5.21,11.74,17.11,34.55,47.02,36,35.78,1.74,51.64-28.2,51.64-28.2,21.09,45.96,35.34,19.33,35.34,19.33,8.76,29.92-5.59,79.91-38.72,104.79,51.59-36.49,58.41-90.61,46.92-131.83-23.51-84.33-109.19-134.93-198.26-111.98l-.07.02c-88.1,26.44-135.25,114.06-111.74,198.39,11.49,41.22,45.32,84.01,108.35,88.55-41.23-4.16-83.34-38.7-87.69-96.15,0,0,52.29,7.72,56.4-42.1,0,0,25.36,23.63,58.65,11.31,27.82-10.3,31.22-35.45,32.1-48.12"/>
          </g>
          <path class="cls-6" d="M263.53,355.47c85.71-23.89,144.89-80.18,121-165.92-23.9-85.74-112.75-135.88-198.46-111.99l-.07.02c-85.71,23.89-135.81,112.76-111.91,198.5,23.9,85.74,103.67,103.3,189.38,79.41l.07-.02Z"/>
          <path class="cls-1" d="M306.11,61.17c-6.93-.21-13.14,2.82-16.93,7.62.25-2.22.1-4.51-.53-6.77-2.78-9.96-13.63-15.64-24.25-12.69-10.61,2.96-16.97,13.43-14.19,23.4,1.22,4.39,4.02,7.95,7.67,10.31-.12.23-3.21-.66-4.7-.87-11.14-1.51-21.26,6.44-22.71,17.09-1.44,10.65,6.42,20.51,17.56,22.02,1.87.25,3.71.25,5.5.03-1.26,3.44-1.51,7.21-.48,10.91,2.78,9.96,13.76,15.61,24.53,12.61,10.09-2.81,16.41-12.21,14.89-21.58,3.59,4.05,8.96,6.71,15.05,6.9,11.17.35,20.49-7.76,20.81-18.1.23-7.33-4.13-13.81-10.67-17.09,4.77-3.29,7.93-8.49,8.12-14.43.32-10.34-8.48-19-19.65-19.35Z"/>
          <ellipse class="cls-12" cx="280.86" cy="96.68" rx="16.08" ry="12.82" transform="translate(-15.64 78.97) rotate(-15.58)"/>
          <path class="cls-11" d="M278.52,290.8c.64,0,1.46,0,2.06.25.72.29,1.25.88,1.51,1.6.26.7.29,1.51-.09,2.17-.99,1.76-10.99,3.23-13.47,4.03-4.16,1.33-8.04,3.19-12.12,4.71-3.14.18-4.94-2.74-3.13-4.26,4.92-4.13,19.61-7.94,25.24-8.5Z"/>
        </g>
        <path class="cls-7" d="M95.43,300.64c2.31-9.48.73-17.04,9.91-29.75,19.45-26.92,51.59-17.77,26.64-3.09,18.52,6.57,17.03,31.26,1.8,39.32-5.2,28.34,25.83,49.36,56.69,57.62,2.98,9.08-.27,18.47-12.19,18.47,0,0-100.06-11.84-82.84-82.57Z"/>
      </g>
      <g>
        <path class="cls-11" d="M462.32,108c10.94,2,21.34,11.93,24.08,22.58,1.56,6.06.91,11.33-2.23,16.79-4.24,7.36-13.48,10.41-21.52,10.6-4.6.07-9.25-.58-13.82.25-4.22.73-7.28,4.21-11.4,5.25-3.12.79-6.56-1.49-7.11-4.67-.46-2.7.48-4.03,1.98-6.09,12.83-14.31,24.94-2.14,38.24-11.02,5.53-3.69,3.23-12.54-1.1-16.73-8.97-8.69-12.15-2.21-21.31-1.41-6.39.56-8.78-9.26-2.42-12.4,5.7-3.27,10.24-4.29,16.63-3.16Z"/>
        <path class="cls-11" d="M423.6,164.32c4.5.91,7.44,5.28,6.57,9.79-.86,4.52-5.2,7.49-9.72,6.67-2.97-.54-5.42-2.62-6.42-5.47-1-2.84-.39-6.01,1.58-8.28,1.98-2.27,5.03-3.31,7.98-2.72Z"/>
      </g>
      <g>
        <path class="cls-11" d="M83.46.1c9.66-.75,19.05,2.58,23.51,11.84,4.12,8.55,1.52,17.36-2.36,25.41-1.1,2.29-2.21,5.15-2.73,7.64-.92,3.18,3.26,9.62,1.56,12.38-4.34,7.04-11.18,4.2-13.28-2.45-2.97-9.42.03-15.19,3.67-23.28,1.32-3.48,2.47-8.02,1.74-11.73-.51-2.51-2.02-4.71-4.18-6.09-5.17-3.32-13.4-1.63-17.49,2.82-5.15,5.6-1.33,10.99-4.36,16.76-.82,1.57-3.16,2.42-4.78,2.66-4.33.76-6.98-3.3-7.41-7.21C55.6,13.16,69.37,2.04,83.46.1Z"/>
        <path class="cls-11" d="M104.67,66.18c4.39-.84,8.64,2.03,9.5,6.42.86,4.39-1.99,8.65-6.38,9.52-4.41.88-8.7-1.99-9.56-6.4-.86-4.41,2.02-8.69,6.44-9.54Z"/>
      </g>
    </g>
  </g>
</svg>