<?xml version="1.0" encoding="UTF-8"?>
<svg id="Layer_2" data-name="Layer 2" xmlns="http://www.w3.org/2000/svg" viewBox="0 0 399.85 465.18">
  <defs>
    <style>
      .cls-1 {
        fill: #f9fbff;
      }

      .cls-1, .cls-2, .cls-3, .cls-4, .cls-5, .cls-6, .cls-7 {
        stroke: #000;
      }

      .cls-1, .cls-3, .cls-4, .cls-8, .cls-7 {
        stroke-linejoin: round;
      }

      .cls-1, .cls-9 {
        stroke-width: 6px;
      }

      .cls-2, .cls-3, .cls-9, .cls-4, .cls-8, .cls-7 {
        stroke-linecap: round;
      }

      .cls-2, .cls-3, .cls-4, .cls-5, .cls-6, .cls-7 {
        stroke-width: 7px;
      }

      .cls-2, .cls-9, .cls-5, .cls-6 {
        stroke-miterlimit: 10;
      }

      .cls-2, .cls-10, .cls-6 {
        fill: #fefefe;
      }

      .cls-11 {
        fill: #010101;
      }

      .cls-3, .cls-12 {
        fill: #ffc6d5;
      }

      .cls-9 {
        stroke: #010101;
      }

      .cls-9, .cls-8, .cls-7 {
        fill: none;
      }

      .cls-13 {
        fill: #fec6d4;
      }

      .cls-4 {
        fill: #fff;
      }

      .cls-14 {
        fill: #92d2f3;
      }

      .cls-8 {
        stroke: #fc8da9;
        stroke-width: 4px;
      }

      .cls-5 {
        fill: #fc8da9;
      }

      .cls-15 {
        fill: #9fe0ab;
      }

      .cls-16 {
        fill: #fdd148;
      }

      .cls-17 {
        fill: #ffdce1;
      }
    </style>
  </defs>
  <g id="Layer_1-2" data-name="Layer 1">
    <g>
      <g>
        <path class="cls-4" d="M134.06,391.85l6.8,35.06s-15.4,8.28-9.95,20.86c5.44,12.58,24.16,10.99,24.16,10.99,0,0,20.75,2.12,22.64-20.17,1.9-22.29,2.96-41.67,2.96-41.67l-46.61-5.07Z"/>
        <path class="cls-4" d="M171.9,397.09l3.87,34.11s-14.28,10.09-7.35,21.91c6.93,11.83,25.32,7.97,25.32,7.97,0,0,20.85-.41,20.03-22.77-.82-22.36,3.69-41.72,3.69-41.72l-45.56.49Z"/>
        <path class="cls-5" d="M252.71,357c-.87-57.26-36.54-82.7-36.54-82.7h-93.47s-25.81,25.44-26.68,82.7c-1.1,72.09,157.79,72.13,156.69,0Z"/>
        <g>
          <path class="cls-6" d="M145.11,280.92c4.36-.37,5.91.19,10.04,1.48-11.51,11.44-8.14,29.41.06,41.71-32.69,56.34-85.19,16.52-46.34-32.74,4.58,1.2,9.17,2.64,13.39,4.82,3.43-5.46,6.49-11.91,22.86-15.27Z"/>
          <path class="cls-6" d="M167.18,281.72c21.57-1.84,23.48,24.61,37.59,34.94,5.24,4.3,5.71-2.26,7.8-4.64,7.63-11.46,29.83-17.3,31.22,1.41,1.42,32.58-37.78,54.36-64.02,33.99-18.31-13.16-47.33-55.35-12.58-65.7Z"/>
        </g>
      </g>
      <g>
        <circle class="cls-3" cx="61.16" cy="61.16" r="57.65"/>
        <path class="cls-10" d="M76.66,276.81s.06.06.06.06c.23.15.46.31.7.45-.26-.16-.51-.34-.76-.51Z"/>
        <path class="cls-10" d="M311.38,199.96c-2.37,75.35-59.85,99.3-71.97,104.12h-.01s-.09.02-.09.02c0,0-29.64,4.57-57.59,3.27-18.57-.86-42.7-4.46-56.37-8.4-17.55-5.04-33.59-12.29-47.86-21.6-.02-.01-.04-.03-.06-.04-.26-.16-.51-.34-.76-.51,0,0,0-.01-.01-.01-1.94-1.74-42.35-36.51-42.35-98.9,20.24-.79,40.24-14.32,46.41-33.91,22.71,27.14,70.54,20.93,85.39-11.29,9.43,38.13,59.46,47.51,88.38,25.26,4.48,26.67,31.27,42.58,56.91,41.99Z"/>
        <path class="cls-10" d="M217.79,188.85c2.49.26,3.26,3.59,3.93,5.58,6.76,4.05,2.74,7.11-.77,10.91-1.64,1.78-.58,2.31-3.41,3.94l-.9-.27c-.17-.15-6.4-9.84-6.5-10.12.39-2.12,5.89-8.73,7.65-10.04Z"/>
        <path class="cls-10" d="M229.21,204.31c1.03.61,1.66,2.92,2.08,4.09,1.53,1.21,2.37,1.95,3.75,3.34-.98.89-2.06,1.59-3.15,2.34-.68,1.66-1.41,3.59-2.32,5.11-1.6-1.38-1.36-2.78-2.51-4.52-.7-1.06-2.37-1.91-2.74-2.87.71-1.65,3.34-4.41,4.89-7.48Z"/>
        <g>
          <ellipse class="cls-17" cx="78.48" cy="228.1" rx="18.59" ry="19.78" transform="translate(-158.17 274.83) rotate(-82.19)"/>
          <path class="cls-13" d="M70.16,233.6c-.29-.04-.59-.12-.87-.25-1.47-.67-2.11-2.33-1.42-3.71l3.91-7.82c.69-1.38,2.44-1.95,3.92-1.28,1.47.67,2.11,2.33,1.42,3.71l-3.91,7.82c-.56,1.11-1.81,1.7-3.05,1.53Z"/>
          <path class="cls-13" d="M80.97,236.8c-.29-.04-.59-.12-.87-.25-1.47-.67-2.11-2.33-1.42-3.71l3.91-7.82c.69-1.38,2.44-1.95,3.92-1.28,1.47.67,2.11,2.33,1.42,3.71l-3.91,7.82c-.56,1.11-1.81,1.7-3.05,1.53Z"/>
        </g>
        <g>
          <ellipse class="cls-17" cx="240.91" cy="245.05" rx="18.59" ry="20.24" transform="translate(-10.89 478.9) rotate(-88.37)"/>
          <path class="cls-13" d="M233.06,251.42c-.3,0-.61-.06-.91-.16-1.57-.51-2.41-2.09-1.86-3.54l3.11-8.19c.55-1.44,2.27-2.2,3.84-1.69,1.57.51,2.41,2.09,1.86,3.54l-3.11,8.19c-.44,1.17-1.65,1.88-2.93,1.85Z"/>
          <path class="cls-13" d="M244.42,253.44c-.3,0-.61-.06-.91-.16-1.57-.51-2.41-2.09-1.86-3.54l3.11-8.19c.55-1.44,2.27-2.2,3.84-1.69,1.57.51,2.41,2.09,1.86,3.54l-3.11,8.19c-.44,1.17-1.65,1.88-2.93,1.85Z"/>
        </g>
        <g>
          <g>
            <ellipse class="cls-11" cx="110.98" cy="198.74" rx="24.48" ry="18.49" transform="translate(-97.64 289.82) rotate(-84.41)"/>
            <path class="cls-10" d="M111.27,181.07l.1.85c.67,5.5,4.29,10.2,9.44,12.25h0c.37.15.32.68-.07.76h0c-5.45,1.01-9.91,4.92-11.64,10.19l-.27.81c-.13.4-.72.34-.77-.08l-.1-.85c-.67-5.5-4.29-10.2-9.44-12.25h0c-.37-.15-.32-.68.07-.76h0c5.45-1.01,9.91-4.92,11.64-10.19l.27-.81c.13-.4.72-.34.77.08Z"/>
            <path class="cls-10" d="M118.97,204.12l.06.54c.21,2,1.48,3.74,3.34,4.53h0c.13.06.11.25-.03.27h0c-1.97.42-3.56,1.87-4.15,3.8l-.16.51c-.05.15-.27.13-.28-.03l-.06-.54c-.21-2-1.48-3.74-3.34-4.53h0c-.13-.06-.11-.25.03-.27h0c1.97-.42,3.56-1.87,4.15-3.8l.16-.51c.05-.15.27-.13.28.03Z"/>
          </g>
          <path class="cls-14" d="M113.61,220.85c-.46,4.69-7.32,3.2-15.88,2.36-8.56-.84-15.58-.71-15.12-5.4.46-4.69,7.77-7.81,16.33-6.97,8.56.84,15.12,5.32,14.66,10.01Z"/>
        </g>
        <g>
          <g>
            <ellipse class="cls-11" cx="213.51" cy="216.19" rx="24.48" ry="18.49" transform="translate(-22.46 407.61) rotate(-84.41)"/>
            <path class="cls-10" d="M213.8,198.52l.1.85c.67,5.5,4.29,10.2,9.44,12.25h0c.37.15.32.68-.07.76h0c-5.45,1.01-9.91,4.92-11.64,10.19l-.27.81c-.13.4-.72.34-.77-.08l-.1-.85c-.67-5.5-4.29-10.2-9.44-12.25h0c-.37-.15-.32-.68.07-.76h0c5.45-1.01,9.91-4.92,11.64-10.19l.27-.81c.13-.4.72-.34.77.08Z"/>
            <path class="cls-10" d="M221.5,221.56l.06.54c.21,2,1.48,3.74,3.34,4.53h0c.13.06.11.25-.03.27h0c-1.97.42-3.56,1.87-4.15,3.8l-.16.51c-.05.15-.27.13-.28-.03l-.06-.54c-.21-2-1.48-3.74-3.34-4.53h0c-.13-.06-.11-.25.03-.27h0c1.97-.42,3.56-1.87,4.15-3.8l.16-.51c.05-.15.27-.13.28.03Z"/>
          </g>
          <path class="cls-14" d="M240.48,240.99c-.47,4.8-7.49,3.28-16.24,2.42-8.76-.86-15.94-.73-15.47-5.52.47-4.8,7.95-7.99,16.71-7.14,8.76.86,15.47,5.44,15,10.24Z"/>
        </g>
        <path class="cls-9" d="M132.17,240.97c2.4,6.67,25.06,24.73,51.55,8.41"/>
        <path class="cls-12" d="M245.37,22.56C67.14-41.72-50.05,189.75,76.65,276.8c-1.94-1.74-42.35-36.51-42.35-98.9,20.24-.79,40.24-14.32,46.41-33.91,22.71,27.14,70.54,20.93,85.39-11.29,9.43,38.13,59.46,47.51,88.38,25.26,4.48,26.67,31.27,42.58,56.91,41.99-2.37,75.35-59.85,99.3-71.97,104.12,134.62-25.74,163.82-224.58,5.96-281.52Z"/>
        <path class="cls-8" d="M76.65,276.8c-1.94-1.74-42.35-36.51-42.35-98.9,20.24-.79,40.24-14.32,46.41-33.91,22.71,27.14,70.54,20.93,85.39-11.29,9.43,38.13,59.46,47.51,88.38,25.26,4.48,26.67,31.27,42.58,56.91,41.99-2.37,75.35-59.85,99.3-71.97,104.12"/>
        <path class="cls-7" d="M239.41,304.08h-.01s-.09.02-.09.02c0,0-29.64,4.56-57.59,3.27-18.57-.86-42.7-4.46-56.37-8.4-17.55-5.04-33.59-12.29-47.86-21.6-.02-.01-.04-.03-.06-.04-.26-.16-.51-.34-.76-.51,0,0,0-.01-.01-.01C-50.05,189.76,67.14-41.72,245.37,22.56c157.86,56.93,128.66,255.77-5.96,281.51Z"/>
        <g>
          <circle class="cls-12" cx="338.7" cy="79.25" r="57.65"/>
          <path class="cls-7" d="M307.08,127.47c9.57,6.28,21.1,9.79,33.41,9.41,31.83-.99,56.82-27.6,55.83-59.42s-27.6-56.82-59.42-55.83c-26.15.81-47.68,18.91-53.99,42.99"/>
        </g>
        <g>
          <path class="cls-1" d="M319.67,42.27c-5.17-4.12-11.65-5.35-17.29-3.85,1.46-1.55,2.65-3.39,3.46-5.48,3.57-9.2-1.49-19.74-11.29-23.54-9.8-3.8-20.64.58-24.2,9.78-1.57,4.06-1.47,8.37-.02,12.26-.23.11-2.07-2.34-3.1-3.35-7.65-7.51-19.93-7.22-27.11.09-7.19,7.32-6.81,19.34.84,26.85,1.29,1.26,2.7,2.31,4.19,3.16-2.93,1.9-5.27,4.65-6.59,8.06-3.57,9.2,1.6,19.79,11.54,23.64,9.31,3.61,19.51.04,23.7-7.99.43,5.14,3.02,10.24,7.56,13.86,8.34,6.64,20.09,5.77,26.24-1.95,4.36-5.47,4.73-12.92,1.61-19.15,5.52.22,10.91-1.95,14.44-6.39,6.15-7.72,4.37-19.36-3.97-26.01Z"/>
          <ellipse class="cls-15" cx="280.1" cy="54.99" rx="12.23" ry="15.34" transform="translate(127.57 296.27) rotate(-68.81)"/>
        </g>
      </g>
      <g>
        <path class="cls-2" d="M133.02,347.7c25.7-16.49,47.38-55.62,12.63-65.98-21.57-1.84-23.48,24.61-37.59,34.94"/>
        <path class="cls-2" d="M179.76,347.43c-18.31-13.16-47.33-55.35-12.58-65.7,21.57-1.84,23.48,24.61,37.59,34.94"/>
      </g>
      <g>
        <path class="cls-16" d="M42.43,268.71c1.8.54,2.58,2.75,3.15,4.38,2.71,7.78,3.68,15.72,11.28,20.39,5.6,3.44,12.27,4.02,17.03,8.42-4.6,3.32-12.49,5.26-17.53,8.33-8.49,5.17-7.66,16.98-12.69,24.9l-.64.11c-3.9-2.21-5.48-18.01-9.73-22.43-5.82-6.04-14.06-5.78-20.56-10.78l-.29-.22c6.21-4.75,13.63-4.76,20.05-10.63,6.54-5.97,5.49-18.62,9.92-22.48Z"/>
        <path class="cls-16" d="M336.9,289.38c.48.17.98.42,1.2.88,2.27,4.72,2.25,10.73,5.28,15.24,4.01,5.97,11.88,6.29,16.63,10.21l.3.25c-7.29,5.3-14.75,4.81-17.96,13.4-1.43,3.82-2.02,7.22-3.44,10.94-.42,1.1-1.05,1.33-2.11,1.69-3.55-3.46-3.85-13.96-8.4-18.3-2.49-2.37-14.63-5.55-14.74-7.41,1.72-3.37,11.31-5.08,15.1-9.04,4.97-5.19,4.58-13.81,8.13-17.83Z"/>
        <path class="cls-16" d="M307.8,341.19c2.6,1.02,3.62,8.45,5.09,11.33,2.89,5.66,7.62,5.63,12.93,7.53-4.15,5.92-7.45,3.28-11.97,8.14-2.44,2.62-3.48,12.3-6.09,13.73-3.06-2.08-2.95-10.59-6.25-14.06-3.31-3.49-7.96-3.23-11.55-6.48l-.24-.22c4.44-3.61,9.25-3.35,12.7-7.56,2.9-3.54,2.01-10.11,5.38-12.41Z"/>
      </g>
    </g>
  </g>
</svg>