<?xml version="1.0" encoding="UTF-8"?>
<svg id="Layer_2" data-name="Layer 2" xmlns="http://www.w3.org/2000/svg" viewBox="0 0 312.24 459.73">
  <defs>
    <style>
      .cls-1, .cls-2, .cls-3, .cls-4, .cls-5 {
        stroke-linecap: round;
        stroke-linejoin: round;
      }

      .cls-1, .cls-2, .cls-6, .cls-4, .cls-5 {
        stroke: #000;
      }

      .cls-1, .cls-2, .cls-6, .cls-5 {
        stroke-width: 7px;
      }

      .cls-1, .cls-3 {
        fill: #ffc6d5;
      }

      .cls-7 {
        fill: #fec6d4;
      }

      .cls-2, .cls-8 {
        fill: #fff;
      }

      .cls-9 {
        fill: #f9fbff;
      }

      .cls-3 {
        stroke: #fc8da9;
        stroke-width: 4px;
      }

      .cls-6 {
        fill: #fc8da9;
        stroke-miterlimit: 10;
      }

      .cls-4 {
        stroke-width: 6px;
      }

      .cls-4, .cls-5 {
        fill: none;
      }

      .cls-10 {
        fill: #9fe0ab;
      }

      .cls-11 {
        fill: #ffdce1;
      }
    </style>
  </defs>
  <g id="Layer_1-2" data-name="Layer 1">
    <g>
      <path class="cls-2" d="M120.4,430.96c-4.2,5.34-4.37,12.02-.06,17.08,7.33,8.6,20.19,8.89,31.68,7.64,11.51-1.26,18.4-10.18,18.48-21.43l.29-54.48c-6.07-2.83-4.48,5.54-16.34,11.06-8.17,3.8-17.35,3.2-25.8-.52l.85,33.59c-3.39,2.19-6.6,3.88-9.1,7.05h0Z"/>
      <path class="cls-6" d="M148.95,402.46s-75.94,9.16-78.63-45.41,42.22-81.78,42.22-81.78l27.08-1.75.41-.02,27.08-1.75s48.03,21.22,52.38,75.68-72.15,55.14-72.15,55.14"/>
      <path class="cls-2" d="M133.51,299.74c-7.38,15.7-8.5,46.32-11.26,70.45-3.32,29.06,39.04,35.42,45.83,7.12,4.26-17.76,5.31-48.19-8.79-80.18-4.69-10.64-21.38-8.04-25.79,2.61h0Z"/>
      <g>
        <path class="cls-8" d="M15.03,113.24c7.08-19.75,18.1-38.03,34.6-52.02,21.61-18.34,47.81-30.42,75.54-36.01,22.38-4.52,44.73-3.64,66.34,2.09,71.81,19,120.89,86.43,117.01,161.08-.9,17.26-4.12,34.31-11.4,50.13-11.43,24.88-31.37,44.59-56.06,56.51-14.52,7.01-29.6,11.69-45.66,14.21-27.86,4.38-56.51,4.68-84.36.63-5.43-.79-10.77-2.05-16.19-2.85-35.13-5.23-83.02-32.95-86.55-70.21-2.09-22.11-12.83-69.07,6.7-123.57h.01Z"/>
        <path class="cls-3" d="M138.72,205.36s-68.4,11.93-69.52-36.62c.02-.02-85.93,46.6-54.16-55.5,7.08-19.75,18.1-38.03,34.6-52.02,21.61-18.34,47.81-30.42,75.54-36.01,22.38-4.52,44.73-3.64,66.34,2.09,71.81,19,120.89,86.43,117.01,161.08-.9,17.26-4.12,34.31-11.4,50.13-11.43,24.88-31.37,44.59-56.06,56.51-14.52,7.01-29.6,11.69-45.66,14.21-27.86,4.38-56.51,4.68-84.36.63,9.82-4.23,29.31-49.01,27.65-104.51h0Z"/>
      </g>
      <path d="M33.56,240.52c3.95,2.24,7.67-.55,9.22-4.18,5.72-13.39.97-31.4-6.84-31.34-11.36.09-13.34,29.28-2.39,35.52h.01Z"/>
      <g>
        <path class="cls-11" d="M74.95,224.34c7.55,8.53,12.58,24.37,5.89,35.11-2.63,4.21-7.08,5.96-11.46,4.95-14.6-3.37-22.49-28.1-11.01-41.06,4.49-5.08,12.07-4.08,16.59,1.01h-.01ZM61.9,247.86c.51.33,2.4.08,2.55-.97.67-4.54.13-9.22-.7-13.52-.17-.88-1.15-1.33-1.72-1.43s-1.92.27-2.03,1.4c-.43,4.28-.29,8.54.29,12.55.15,1.12,1.11,1.63,1.63,1.97h-.01ZM70.89,252.19c.55.33,2.29.33,2.62-.59.72-1.98.01-3.95-.01-5.82-.07-4.51-.17-10.68-3.2-10.4-.96.09-1.89,1.06-2,2.41-.39,4.64,0,12.83,2.59,14.4Z"/>
        <path class="cls-7" d="M68.29,237.8c-.39,4.64,0,12.83,2.59,14.4.55.33,2.29.33,2.62-.59.72-1.98.01-3.95-.01-5.82-.07-4.51-.17-10.68-3.2-10.4-.96.09-1.89,1.06-2,2.41Z"/>
        <path class="cls-7" d="M60.28,245.89c.15,1.12,1.11,1.63,1.63,1.97s2.4.08,2.55-.97c.67-4.54.13-9.22-.7-13.52-.17-.88-1.15-1.33-1.72-1.43s-1.92.27-2.03,1.4c-.43,4.28-.29,8.54.29,12.55h-.01Z"/>
      </g>
      <g id="_Mirror_Repeat_-4" data-name=" Mirror Repeat -4">
        <path class="cls-4" d="M23.13,253.45s-.86,2.82-6.62,5.25"/>
      </g>
      <path class="cls-5" d="M15.03,113.24c7.08-19.75,18.1-38.03,34.6-52.02,21.61-18.34,47.81-30.42,75.54-36.01,22.38-4.52,44.73-3.64,66.34,2.09,71.81,19,120.89,86.43,117.01,161.08-.9,17.26-4.12,34.31-11.4,50.13-11.43,24.88-31.37,44.59-56.06,56.51-14.52,7.01-29.6,11.69-45.66,14.21-27.86,4.38-56.51,4.68-84.36.63-5.43-.79-10.77-2.05-16.19-2.85-35.13-5.23-83.02-32.95-86.55-70.21-2.09-22.11-12.83-69.07,6.7-123.57h.01Z"/>
      <circle class="cls-1" cx="204.61" cy="82.41" r="62.18"/>
      <g>
        <g>
          <path d="M139.65,72.41c-2.11,1.59-4.52,1.45-6.93,1.34-2.22-.11-1.02,4.54-3.43,10.02-2.52,5.71-5.5,11.08-10.71,14.79-3.72,2.64-9.42,2.38-11.82-1.67-1.94-3.27-1.5-7.49-.29-10.78l2.32-6.3c.31-.83-.33-1.35-.8-1.48-.75-.22-1.35-.2-1.79.53l-4.16,6.89c-1.13,1.86-5.67.84-7.35-.38-6.7-4.83-2.16-22.82,11.91-30.47,3.97-2.16-2.48-5.33-.75-14.31,2.81-14.64,14.58-21.95,18.85-16.88,1.11,1.32.69,3.72,1.02,5.15,5.15-.94,2.43-11.81,11.54-19.98,2.49-2.23,5.33-3.48,8.56-2.63,6.31,1.67,8.18,10.54,5.53,17.82-1.29,3.55-2.4,7.92-5.5,10.27-.84.52-3.12-.02-3.91.93-.64.77-1.11,2.93.04,3.51,3.95-.49,7.2.71,8.66,4.63,3.6,9.7-2.38,22.49-10.98,28.98v.02Z"/>
          <path d="M113.14,105.82c-4.71,0-8.87-2.28-11.13-6.1-1.29-2.18-1.99-4.71-2.09-7.42h-.42c-2.79,0-6.02-.98-8.04-2.44-3.78-2.73-5.66-7.46-5.3-13.34.51-8.05,5.47-18.58,15.41-25.06-1.02-2.61-2.19-6.52-1.16-11.92,2.76-14.37,12.68-22.97,20.68-22.97,1.57,0,3.05.32,4.38.93,1.3-3.9,3.47-8.6,8.09-12.74,3.2-2.86,6.63-4.31,10.22-4.31,1.15,0,2.31.15,3.45.45,3.69.97,6.77,3.51,8.66,7.13,2.61,5,2.85,11.88.64,17.93-.19.51-.36,1.03-.55,1.56-.92,2.65-1.99,5.77-4.02,8.43,1.68,1.38,3,3.25,3.85,5.53,4.66,12.53-2.86,27.8-12.84,35.32-2.31,1.75-4.74,2.3-6.71,2.45-.31,1.84-.81,4.19-1.92,6.71-2.59,5.86-6.1,12.46-12.57,17.07-2.5,1.78-5.56,2.75-8.65,2.75l.03.02Z"/>
          <g>
            <path class="cls-9" d="M113.13,103.31c-3.81,0-7.16-1.82-8.97-4.87-1.54-2.6-2.07-5.86-1.56-9.31-.77.38-1.79.66-3.12.66-2.26,0-4.96-.81-6.56-1.97-3.05-2.2-4.56-6.15-4.25-11.12.48-7.61,5.7-18.34,16.04-24.18-.11-.28-.24-.61-.35-.88-.94-2.28-2.52-6.11-1.47-11.6,2.48-12.92,11.37-20.92,18.19-20.92,2.29,0,4.34.9,5.78,2.53,1.19-4.24,2.84-10.02,8.39-14.99,2.71-2.43,5.58-3.67,8.53-3.67.93,0,1.87.12,2.8.37,3.05.8,5.49,2.83,7.08,5.87,2.29,4.39,2.48,10.48.51,15.89-.19.51-.37,1.04-.55,1.58-1.18,3.41-2.5,7.26-5.65,9.82,2.54,1.03,4.43,3.03,5.49,5.88,4.25,11.43-2.76,25.46-11.98,32.42-2.36,1.78-4.87,2-6.8,2-.19,0-.38,0-.56,0-.04.26-.08.54-.12.78-.28,1.91-.67,4.52-1.94,7.4-2.57,5.82-5.77,11.79-11.72,16.03-2.07,1.47-4.62,2.28-7.18,2.28Z"/>
            <path d="M143.78,6c.66,0,1.34.09,2.03.27,6.32,1.67,8.19,10.54,5.53,17.82-1.29,3.55-2.4,7.92-5.5,10.27-.84.52-3.12-.02-3.91.93-.64.76-1.11,2.93.04,3.51v.02c.53-.07,1.06-.1,1.57-.1,3.22,0,5.82,1.35,7.08,4.73,3.6,9.7-2.38,22.49-10.98,28.98-1.54,1.16-3.24,1.4-4.99,1.4-.64,0-1.29-.03-1.94-.06-.02,0-.05,0-.07,0-2.12,0-.97,4.61-3.36,10.02-2.52,5.71-5.5,11.08-10.71,14.79-1.59,1.13-3.54,1.73-5.44,1.73-2.55,0-5.01-1.08-6.38-3.4-1.93-3.27-1.5-7.49-.29-10.78l2.32-6.3c.31-.83-.33-1.34-.8-1.48-.26-.08-.5-.13-.73-.13-.42,0-.78.18-1.07.66l-4.16,6.89c-.44.74-1.42,1.03-2.55,1.03-1.72,0-3.79-.67-4.8-1.4-6.71-4.83-2.16-22.83,11.91-30.47,3.97-2.16-2.48-5.33-.75-14.31,2.21-11.51,9.95-18.49,15.24-18.49,1.44,0,2.7.52,3.61,1.61,1.12,1.32.7,3.7,1.02,5.15,5.15-.94,2.43-11.82,11.54-19.98,1.95-1.75,4.12-2.9,6.53-2.9M143.78,0c-3.71,0-7.26,1.49-10.53,4.44-4.51,4.04-6.72,8.6-8.06,12.46-1.27-.5-2.65-.77-4.1-.77-8.19,0-18.33,8.74-21.13,23.36-1.01,5.24.07,9.22,1.04,11.82-9.86,6.59-14.8,17.14-15.31,25.22-.38,6.04,1.57,10.92,5.49,13.74,2.08,1.51,5.41,2.52,8.28,2.53.16,2.61.87,5.06,2.13,7.17,2.36,3.97,6.67,6.34,11.55,6.34,3.18,0,6.34-1.01,8.91-2.84,6.55-4.67,10.11-11.34,12.72-17.26,1.07-2.42,1.58-4.67,1.9-6.48,1.97-.2,4.33-.81,6.59-2.51,10.11-7.62,17.73-23.12,12.99-35.86-.82-2.21-2.06-4.04-3.65-5.44,1.91-2.64,2.95-5.66,3.84-8.24.18-.52.36-1.04.54-1.53,2.26-6.17,2-13.19-.67-18.3-1.96-3.75-5.14-6.37-8.97-7.38-1.18-.31-2.38-.47-3.56-.47h0Z"/>
          </g>
        </g>
        <path class="cls-10" d="M109.32,59.87c.3,3.18,2.51,5.29,4.61,6.2,2.83,1.23,5.9.62,8.28-1.36,7.26-6.06,10.25-18.29,5.67-22.37-1.36-1.22-4.31-2.28-6.55-1.59-8.02,2.47-12.8,10.78-12.02,19.13h0Z"/>
      </g>
    </g>
  </g>
</svg>