<?xml version="1.0" encoding="UTF-8"?>
<svg id="Layer_2" data-name="Layer 2" xmlns="http://www.w3.org/2000/svg" viewBox="0 0 399.16 504.7">
  <defs>
    <style>
      .cls-1 {
        fill: #f9fbff;
      }

      .cls-1, .cls-2, .cls-3, .cls-4, .cls-5 {
        stroke-linejoin: round;
      }

      .cls-1, .cls-2, .cls-6, .cls-7, .cls-4, .cls-5 {
        stroke: #000;
      }

      .cls-1, .cls-8, .cls-6, .cls-9, .cls-4 {
        stroke-width: 6px;
      }

      .cls-2, .cls-3 {
        fill: #ffc6d5;
      }

      .cls-2, .cls-3, .cls-6, .cls-9, .cls-4, .cls-5 {
        stroke-linecap: round;
      }

      .cls-2, .cls-7, .cls-5 {
        stroke-width: 7px;
      }

      .cls-10 {
        fill: #fec6d4;
      }

      .cls-11, .cls-6 {
        fill: #fff;
      }

      .cls-8 {
        fill: #8bcbe7;
        stroke: #6ab6ed;
      }

      .cls-8, .cls-6, .cls-9, .cls-7 {
        stroke-miterlimit: 10;
      }

      .cls-3 {
        stroke: #fc8da9;
        stroke-width: 4px;
      }

      .cls-9 {
        stroke: #4f5962;
      }

      .cls-9, .cls-4, .cls-5 {
        fill: none;
      }

      .cls-7 {
        fill: #fc8da9;
      }

      .cls-12 {
        fill: #9fe0ab;
      }

      .cls-13 {
        fill: #ffdce1;
      }

      .cls-14 {
        fill: #4f5962;
      }
    </style>
  </defs>
  <g id="Layer_1-2" data-name="Layer 1">
    <g>
      <g>
        <path class="cls-7" d="M193.53,475.78s56.27,19.57,88.32-1.16c30.46-19.69,31.79-71.34,1.9-118.83l-102.41,13.59s-7.79,87.66,12.19,106.4Z"/>
        <g>
          <path class="cls-11" d="M353.57,262.2c-.08,111.56-126.09,134.23-212.07,114.92-73.05-15.91-108.76-75.27-93.59-147.57,42.58-180.94,302.28-153.42,305.66,32.65Z"/>
          <path class="cls-8" d="M145.22,377.4l-21.82-5.61c-.4-2.59-.77-9.82-.77-10.95.06-10.54,3.52-8.75,3.58-19.29.06-10.54-3.03-8.38-3.76-18.56-.42-5.81,1.1-10,2.5-13.17l17.85-4.1c-4.07,14.6,3.95,19.3,3.98,30.89.03,13.97-3.38,11.4-4.06,21.63-.34,5.04,1.8,12.52,2.5,19.16Z"/>
          <path class="cls-8" d="M247.64,378.38l-21.43,3.4c-1.3-3.21-2.2-7.02-2.98-13.04-1.93-14.91,2.49-18.05,3.68-26.58,1.18-8.54-1.83-8.36-5.27-23.89-.94-4.25.32-8.99,1.08-13.03l19.92,3.8c-.43,3.28-3,8.52-.35,14.17,6.14,13.11,7.11,20.18,2.6,36.62-1.96,7.14,1.01,12.91,2.75,18.55Z"/>
          <circle class="cls-2" cx="337.27" cy="169.15" r="57.92"/>
          <circle class="cls-2" cx="61.43" cy="173.2" r="57.92"/>
          <g>
            <circle class="cls-13" cx="273.94" cy="335.57" r="20.51"/>
            <path class="cls-10" d="M281.43,343.11c.31.01.62-.02.94-.11,1.63-.45,2.58-2.14,2.12-3.77l-2.58-9.23c-.45-1.63-2.14-2.58-3.77-2.12-1.63.45-2.58,2.14-2.12,3.77l2.58,9.23c.37,1.31,1.54,2.19,2.83,2.24Z"/>
            <path class="cls-10" d="M269.81,344.56c.31.01.62-.02.94-.11,1.63-.45,2.58-2.14,2.12-3.77l-2.58-9.23c-.45-1.63-2.14-2.58-3.77-2.12-1.63.45-2.58,2.14-2.12,3.77l2.58,9.23c.37,1.31,1.54,2.19,2.83,2.24Z"/>
          </g>
          <g>
            <circle class="cls-13" cx="101.5" cy="331.78" r="16"/>
            <path class="cls-10" d="M106.58,337.64c.24,0,.49-.02.73-.09,1.27-.35,2.01-1.67,1.66-2.94l-2.01-7.2c-.35-1.27-1.67-2.01-2.94-1.66-1.27.35-2.01,1.67-1.66,2.94l2.01,7.2c.29,1.02,1.2,1.71,2.21,1.74Z"/>
            <path class="cls-10" d="M97.52,338.77c.24,0,.49-.02.73-.09,1.27-.35,2.01-1.67,1.66-2.94l-2.01-7.2c-.35-1.27-1.67-2.01-2.94-1.66-1.27.35-2.01,1.67-1.66,2.94l2.01,7.2c.29,1.03,1.2,1.71,2.21,1.74Z"/>
          </g>
          <g id="_Mirror_Repeat_" data-name="&amp;lt;Mirror Repeat&amp;gt;">
            <path class="cls-3" d="M175.79,224.73c-1.61,12.2-6.37,36.4-33.47,45.83-32.43,11.29-55.12-11.94-55.12-11.94-6.94,47.96-27.25,27.34-27.25,27.34.05,29.88,26.78,71.95,63.98,85.86-57.32-19.57-78.24-67.48-78.85-108.49-1.23-83.9,63.83-153.63,151.94-156.66h.07c88.16.44,155.24,68.23,156.48,152.13.6,41.01-18.91,89.52-75.62,110.76,36.78-14.99,66.14-58.15,54.58-112.15,0,0-45.98,21.26-63.25-23.42,0,0-16.91,28.59-50.86,26.28-28.37-1.93-38.31-24.14-42.55-35.55"/>
          </g>
          <path class="cls-5" d="M353.57,262.2c-.08,111.56-126.09,134.23-212.07,114.92-73.05-15.91-108.76-75.27-93.59-147.57,42.58-180.94,302.28-153.42,305.66,32.65Z"/>
          <path class="cls-1" d="M312.34,124.07c-3.61-1.19-7.3-1.34-10.68-.6-2.53.54-4.9,1.57-6.95,3.01.84-1.97,1.31-4.12,1.35-6.37.14-9.91-8.3-18.07-18.86-18.23-10.06-.14-18.42,7.04-19.3,16.29-.02.12-.03.25-.03.38-.03.33-.05.66-.05,1-.07,4.37,1.54,8.4,4.26,11.55-.17.19-2.77-1.48-4.09-2.07-9.83-4.4-21.29.16-25.51,9.56-4.21,9.41.35,20.6,10.18,25.01,1.65.74,3.35,1.23,5.05,1.51-2.1,2.82-3.35,6.22-3.4,9.9-.15,9.91,8.42,18.07,19.13,18.23,7.72.12,14.44-3.95,17.65-9.94.97-1.8,1.62-3.78,1.88-5.87,2.21,4.7,6.43,8.6,11.97,10.42,10.18,3.34,20.94-1.58,24.04-11,2.19-6.68-.06-13.82-5.18-18.61.15-.05.3-.1.45-.16.01,0,.02,0,.02,0,5.07-1.79,9.17-5.64,10.9-10.89,3.09-9.42-2.65-19.77-12.83-23.11Z"/>
          <ellipse class="cls-12" cx="279.52" cy="149.88" rx="12.29" ry="15.41" transform="translate(125.55 427.16) rotate(-89.16)"/>
          <path class="cls-4" d="M165.78,348.1c-.92,1.43,13.53-14.19,34.22-.21"/>
          <line class="cls-4" x1="148.03" y1="304.5" x2="116.13" y2="311.93"/>
          <line class="cls-4" x1="249.97" y1="310.45" x2="212.65" y2="303.33"/>
        </g>
        <path class="cls-6" d="M257.84,424.19s8.12,4.34,14.47,13.61"/>
        <path class="cls-6" d="M183.58,460.32s14.31-1.48,21.93-8.25c10.81-9.6,13.26-22.57,10.81-28.86l-22.14-35.72s-16.11-22.39-41.76-10.48c-25.65,11.91-21.48,83.3-21.48,83.3,0,0-18.64,9.61-14.58,22.04,4.06,12.43,17.56,16.52,38.62,11.71,21.06-4.81,23.69-14,24.88-19.72,1.19-5.71,3.72-35.43,3.72-35.43"/>
        <path class="cls-6" d="M225.99,464.42s14.31-1.55,21.93-8.61c10.81-10.02,13.26-23.56,10.81-30.12l-22.14-37.28s-16.11-23.37-41.76-10.94c-25.65,12.43-21.48,86.96-21.48,86.96,0,0-18.64,10.03-14.58,23.01,4.06,12.97,17.56,17.24,38.62,12.23,21.06-5.02,23.69-14.61,24.88-20.58,1.19-5.97,3.72-36.98,3.72-36.98"/>
        <path class="cls-6" d="M174.93,409.93c-7.13,21,18.97,38.92,66.14,24,22.84-7.23,66.68-29.17,44.71-54.32-14.79-16.94-28.24,6.23-50.12,13.02-31.19,9.68-52.51-6.95-60.74,17.31Z"/>
        <path class="cls-6" d="M129.26,374.38s-14.3,1.47-20,21.02c-5.29,18.15,8.73,31.01,21.95,34.82,13.22,3.81,25.51-2.87,29.61-11.34s-3.03-21.88-21.64-29.66c0,0-.24-2.53,6.78-12.4l-16.7-2.44Z"/>
      </g>
      <path class="cls-14" d="M362.15,7.04c1.5-.11,2.39-.21,3.49.9.93,2.15,1.06,22.18,1.12,25.67.46,21.35.68,42.71.63,64.07l-.38,50.33-.03,26.71c.04,5.32.29,10.86-.04,16.16-.1,1.55-.46,1.72-1.64,2.68-.42.06-.86.15-1.28.11-.84-.06-1.67-.54-2.11-1.25-1.98-3.15-.12-64.25-.08-71.45.03-6.99-.15-13.99-.14-20.99.01-12.78.17-25.6-.12-38.38l-1.02-38.01c-.11-4.61-.36-10.23-.02-14.88.06-.84.92-1.28,1.62-1.69Z"/>
      <path class="cls-9" d="M337.42,19.05c0,3.58-.38,3.58-.38,7.15s.31,3.58.31,7.15-.27,3.58-.27,7.15.23,3.58.23,7.15-.28,3.58-.28,7.15.32,3.58.32,7.15-.55,3.58-.55,7.15.35,3.58.35,7.15-.54,3.58-.54,7.15.62,3.58.62,7.16-.19,3.58-.19,7.15.63,3.58.63,7.15-.77,3.58-.77,7.15.44,3.58.44,7.15-.4,3.58-.4,7.16.81,3.58.81,7.15-.73,3.58-.73,7.16-.04,3.58-.04,7.16.14,3.58.14,7.16"/>
      <path class="cls-9" d="M305.56,3c0,3.5.06,3.5.06,7s-.06,3.5-.06,7-.47,3.5-.47,7,.25,3.5.25,7-.08,3.5-.08,7,.22,3.5.22,7,.04,3.5.04,7-.47,3.5-.47,7,.24,3.5.24,7,.53,3.5.53,7-.15,3.5-.15,7.01.04,3.5.04,7.01"/>
      <path class="cls-9" d="M275.88,14.67q0,3.65,0,7.31c0,3.65.21,3.65.21,7.31s-.02,3.65-.02,7.31.06,3.66.06,7.31-.28,3.66-.28,7.31.01,3.66.01,7.31.11,3.66.11,7.32-.03,3.66-.03,7.32"/>
      <path class="cls-9" d="M253.15,24.89q0,3.45,0,6.9c0,3.45.12,3.45.12,6.9s-.04,3.45-.04,6.9.2,3.45.2,6.9-.23,3.45-.23,6.9.3,3.45.3,6.9-.22,3.45-.22,6.91.2,3.45.2,6.91-.35,3.45-.35,6.91"/>
      <path class="cls-9" d="M11.27,35.1c0,3.66.17,3.66.17,7.32s-.98,3.66-.98,7.32.02,3.66.02,7.32.94,3.66.94,7.32-.14,3.66-.14,7.32-.8,3.66-.8,7.32.26,3.66.26,7.32.36,3.66.36,7.32-.74,3.66-.74,7.33.68,3.66.68,7.32-.13,3.66-.13,7.32.53,3.66.53,7.32-.92,3.66-.92,7.32.59,3.66.59,7.33-.26,3.66-.26,7.33.15,3.66.15,7.33.42,3.67.42,7.33-.13,3.67-.13,7.33"/>
      <path class="cls-9" d="M39.15,53.3c0,3.55.07,3.55.07,7.11s.12,3.55.12,7.11-.18,3.55-.18,7.11.05,3.55.05,7.1.21,3.56.21,7.11.06,3.56.06,7.12-.14,3.56-.14,7.12"/>
      <path class="cls-9" d="M69.56,38.21c0,3.65-.08,3.65-.08,7.31s.07,3.65.07,7.31.22,3.65.22,7.31-.34,3.66-.34,7.31-.11,3.66-.11,7.31.17,3.66.17,7.31.08,3.66.08,7.32.17,3.66.17,7.32"/>
      <path class="cls-9" d="M98.07,64.35c0,3.72-.3,3.72-.3,7.45s.27,3.72.27,7.45-.12,3.72-.12,7.45.05,3.73.05,7.45.08,3.73.08,7.45"/>
      <path class="cls-9" d="M395.89,24.89c0,3.55-.13,3.55-.13,7.11s-.58,3.55-.58,7.1-.74,3.55-.74,7.11.89,3.56.89,7.11-1.11,3.55-1.11,7.11c0,3.55,1.69,3.55,1.69,7.11s-.41,3.56-.41,7.11-.11,3.55-.11,7.11-.55,3.56-.55,7.11-.33,3.55-.33,7.11.76,3.56.76,7.11-.58,3.56-.58,7.11.11,3.56.11,7.11,1,3.56,1,7.11-1.61,3.56-1.61,7.11,1.95,3.56,1.95,7.11-.07,3.56-.07,7.11-.22,3.56-.22,7.11-1.56,3.56-1.56,7.11,1.26,3.56,1.26,7.11-.8,3.55-.8,7.11.69,3.56.69,7.11.62,3.56.62,7.11-1.63,3.56-1.63,7.11.42,3.56.42,7.11.96,3.56.96,7.11,0,3.56,0,7.12-.16,3.56-.16,7.12-.87,3.56-.87,7.12"/>
    </g>
  </g>
</svg>