<?xml version="1.0" encoding="UTF-8"?>
<svg id="Layer_2" data-name="Layer 2" xmlns="http://www.w3.org/2000/svg" viewBox="0 0 416.31 500.62">
  <defs>
    <style>
      .cls-1 {
        fill: #f9fbff;
      }

      .cls-1, .cls-2, .cls-3, .cls-4, .cls-5 {
        stroke-linejoin: round;
      }

      .cls-1, .cls-2, .cls-6, .cls-7, .cls-4, .cls-8, .cls-5 {
        stroke: #000;
      }

      .cls-1, .cls-4 {
        stroke-width: 6px;
      }

      .cls-9 {
        fill: #fed745;
      }

      .cls-10 {
        fill: #f45a25;
      }

      .cls-2, .cls-3 {
        fill: #ffc6d5;
      }

      .cls-2, .cls-3, .cls-4, .cls-8, .cls-5 {
        stroke-linecap: round;
      }

      .cls-2, .cls-6, .cls-7, .cls-8, .cls-5 {
        stroke-width: 7px;
      }

      .cls-11 {
        fill: #fec6d4;
      }

      .cls-12, .cls-6, .cls-8 {
        fill: #fff;
      }

      .cls-13 {
        fill: #fca637;
      }

      .cls-3 {
        stroke: #fc8da9;
        stroke-width: 4px;
      }

      .cls-6, .cls-7, .cls-8 {
        stroke-miterlimit: 10;
      }

      .cls-7 {
        fill: #fc8da9;
      }

      .cls-4, .cls-5 {
        fill: none;
      }

      .cls-14 {
        fill: #9fe0ab;
      }

      .cls-15 {
        fill: #ffdce1;
      }
    </style>
  </defs>
  <g id="Layer_1-2" data-name="Layer 1">
    <g>
      <g>
        <path class="cls-10" d="M415.24,264.53c.39-.42.34-.85.32-1.35-16.85-3.05-33.23,12.03-43.23,24.28,5.04-28.04,17.68-56.16,7.96-84.83.14-6.3-3.1-68.01-49.08-103.85-15.54-12.11-49.38-26.39-61.91-32.83C244.88,54.54,224.55,3.95,252.1,0c-49.73,7.13-79.89,64-83.87,68.22-.48-18.2-7.05-35.43-23.18-46.32,11.23,68.21-111.46,61.28-97.19,267.6-9.71-14.56-14.71-26.54-31.23-34.47,13.32,33.74-33.28,76.24,14.82,133.09-7.36.61-14.08-2.64-21.19-.45,30.17,47.43,86.16,68.83,139.66,76.4,51.1,11.37,295.19,10.69,256.93-135.01-6.67-21.61-9.02-47.24,8.39-64.53Z"/>
        <path class="cls-10" d="M278.92,464.02c-.15.25-.23.45-.22.59-.02-.03-.81-.06-2.25-.09.73-.17,1.58-.34,2.47-.5Z"/>
        <path class="cls-13" d="M360.25,400.41c-14.12,24.39-38.98,36.67-64.81,45.1-6.31,2.06-17.78,4.61-23.12,6.91-.58-2.69-1.04-5.36-1.5-8.02-9.05,4.6-36.62,8.85-117.82,7.47-1.82-1.23-9.11-2.4-11.75-3.07-4.95-1.13-9.72-2.87-14.62-4.18-26.67-7.19-51.26-22.09-66.23-45.79-8.93-14.13-12.48-30.11-10.17-46.69.67-4.81,2.2-9.53,3.34-14.26,3.89,8.65,12.76,18.12,22.82,18.61,11.26.53,4.49-24.58,5.06-30.87.28-3.04-.58-17.53.84-19.05,19.22-159.4,222.66-112.16,252.38,8.67,1.13,1.03,1.08,2.92,1.15,4.43.3,6.94-.57,13.92-.51,20.85.03,4.48.76,14.48,7.24,13.79,5.9-.62,10.6-4.89,14.25-9.25,4.32-5.08,4.67-10.31,5.39-16.69,6.41,24.36,11.53,48.79-1.94,72.04Z"/>
        <path class="cls-10" d="M33.46,237.05c-.28.62-.15.4-.65.89-1.79-.05-5.65-2.87-7.44-3.69-7.23-3.29-12.71-6.69-15.73-14.38-3.01-7.66-2.88-15.57.4-23.16.68-1.59,2.89-5.98,4.49-6.63.13.18.44,3.32.69,4.23,1.13,3.48,2.71,6.8,4.7,9.88,5.52,7.02,13.76,14.02,14.26,23.84.43,2.94.09,6.17-.72,9.02Z"/>
        <path class="cls-10" d="M415.64,202.18l.6.21c-.06,1.62-2.23,2.13-2.33,6.66-.21,8.95,5.3,18.77.29,26.94-3.09,5.04-8.8,7.67-14.32,9.03-1.09.02-.69.22-1.34-.34-.95-2.25-.89-4.45-1.15-6.81-1.78-16.49,2.67-28.41,18.26-35.69Z"/>
      </g>
      <g>
        <path class="cls-12" d="M168.26,497.12c-5.03,0-10.44-.83-15.24-2.34l-.15-.05c-.94-.34-9.23-3.5-11.18-9.13-4.81-13.89,7.13-20.27,13.43-23.05.52-2.34.66-5.03.8-7.64.07-1.31.14-2.66.26-3.97.12-1.29.22-2.61.33-3.94.32-3.87.64-7.88,1.22-11.7l.29-1.91,1.77-.77c.9-.39,1.73-.44,6.01-.5,1.47-.02,3.49-.05,4.05-.12,10.04-1.27,18.7-4.04,28.95-9.28l6.07-3.1-1.02,6.74c-.88,5.79-1.83,11.62-2.85,17.32l-.45,2.4c-1.51,8.08-2.94,15.72-3.68,23.85-.54,5.93-1.01,11.05-4.6,16.85l-.07.12-.08.11c-4.79,6.52-13.26,10.12-23.87,10.12Z"/>
        <path d="M200.41,425.83c-.87,5.76-1.82,11.5-2.84,17.23-1.66,8.93-3.34,17.45-4.17,26.55-.53,5.85-.93,10.23-4.09,15.32-4.69,6.39-12.88,8.69-21.05,8.69-5.01,0-10.01-.86-14.19-2.18-2.95-1.07-7.97-3.82-9.07-6.99-3.79-10.95,5.07-15.97,13.07-19.35,1.37-4.26,1.2-9.37,1.61-13.84.45-5.04.77-10.44,1.53-15.43.6-.26,7.45-.15,9.1-.36,11.13-1.4,20.14-4.54,30.11-9.63M209.37,413.4l-12.14,6.21c-9.87,5.04-18.18,7.71-27.8,8.92-.49.05-2.4.08-3.67.1-4.41.07-5.74.09-7.36.79l-3.54,1.55-.58,3.82c-.6,3.94-.93,8.01-1.25,11.94-.11,1.32-.21,2.63-.33,3.91-.12,1.37-.2,2.76-.27,4.1-.1,1.85-.2,3.73-.43,5.43-3.51,1.69-7.26,3.95-10.09,7.1-4.85,5.4-6.07,12.13-3.52,19.49,2.43,7.01,11.5,10.62,13.29,11.27l.15.05.15.05c5.12,1.61,10.91,2.5,16.29,2.5,11.75,0,21.24-4.1,26.7-11.55l.16-.22.14-.23c4.03-6.5,4.56-12.27,5.11-18.37.73-7.97,2.14-15.53,3.64-23.53l.44-2.37v-.03s0-.03,0-.03c1.02-5.75,1.99-11.6,2.87-17.41l2.04-13.48h0Z"/>
      </g>
      <g>
        <path class="cls-12" d="M260.96,496.54c-10.73,0-20.05-3.88-24.93-10.38l-.12-.15-.1-.17c-1.53-2.57-2.65-5.36-3.33-8.27-.77-3.41-1.06-7.31-1.35-11.08-.22-2.96-.43-5.76-.85-8.19-.82-4.8-1.71-9.68-2.58-14.4-1.12-6.11-2.28-12.42-3.29-18.67l-1.18-7.24,6.37,3.64c7.66,4.37,19.26,8.4,27.58,9.58.74.1,1.76.16,3.04.16h0c2.07,0,4.41-.14,6.21-.27l2.24-.15,1.07,1.97c.66,1.22,1.02,3.44,2.75,20.98.28,2.84.55,5.56.74,7.32.02,0,.03.02.05.03,3.71,2.18,8.33,4.88,10.85,8.4,2.56,3.58,3.56,8.04,2.74,12.24-.78,4.01-3.13,7.43-6.61,9.63-5.02,3.18-12.06,5-19.31,5Z"/>
        <path d="M227.87,424.69c7.82,4.46,19.87,8.74,28.83,10.01.99.14,2.22.19,3.53.19,2.23,0,4.67-.15,6.45-.27.75,1.38,2.78,25.2,3.3,28.77,3.65,2.19,8.91,4.97,11.32,8.33,3.93,5.48,2.99,13.15-2.89,16.87-4.58,2.9-10.98,4.46-17.44,4.46-8.7,0-17.5-2.82-22.13-8.98-1.34-2.26-2.33-4.72-2.93-7.29-1.28-5.65-1.16-13.26-2.15-19.05-1.88-11.02-4.07-22-5.87-33.04M218.6,411.34l2.36,14.48c1.02,6.28,2.19,12.62,3.31,18.74.86,4.71,1.75,9.57,2.57,14.35.39,2.26.59,4.98.81,7.86.29,3.9.6,7.93,1.42,11.56v.03s.01.03.01.03c.77,3.26,2.02,6.37,3.73,9.25l.2.33.23.31c5.62,7.48,15.73,11.77,27.73,11.77,8.02,0,15.54-1.97,21.18-5.54,4.3-2.72,7.21-6.95,8.17-11.92,1-5.14-.21-10.58-3.33-14.94-2.6-3.63-6.76-6.32-10.45-8.52-.17-1.61-.36-3.59-.55-5.53-1.92-19.49-2.19-20.54-3.16-22.32l-2.15-3.95-4.48.31c-1.75.12-4.01.26-5.97.26-1.46,0-2.22-.08-2.55-.12-7.81-1.11-19.13-5.05-26.34-9.16l-12.74-7.27h0Z"/>
      </g>
      <path class="cls-7" d="M288.65,395.51c-.85-55.84-35.63-80.65-35.63-80.65h-91.16s-25.17,24.81-26.02,80.65c-1.07,70.31,153.89,70.35,152.81,0Z"/>
      <path class="cls-6" d="M154.07,396.41c-10.2,13.43-21.66,27.7-38.3,16.45-16.64-11.25-8.86-31.11,1.34-44.54,10.2-13.43,25.39-11.84,35.6-4.08,10.21,7.75,11.56,18.74,1.36,32.17Z"/>
      <g>
        <path class="cls-12" d="M214.3,355.91c88.99-1.91,160.31-41.81,158.39-130.83s-75.61-159.64-164.6-157.72h-.07c-88.99,1.92-159.58,75.64-157.66,164.66,1.92,89.02,74.88,125.81,163.87,123.9"/>
        <circle class="cls-2" cx="63.96" cy="137.88" r="60.46"/>
        <circle class="cls-2" cx="351.84" cy="131.69" r="60.46"/>
        <g>
          <circle class="cls-15" cx="116.16" cy="293.31" r="21.63"/>
          <path class="cls-11" d="M108.14,301.14c-.32,0-.66-.04-.98-.13-1.71-.51-2.68-2.3-2.18-4.01l2.87-9.7c.5-1.71,2.3-2.68,4.01-2.18,1.71.51,2.68,2.3,2.18,4.01l-2.87,9.7c-.41,1.38-1.66,2.28-3.02,2.31Z"/>
          <path class="cls-11" d="M120.37,302.86c-.32,0-.66-.04-.98-.13-1.71-.51-2.68-2.3-2.18-4.01l2.87-9.7c.5-1.71,2.3-2.68,4.01-2.18,1.71.51,2.68,2.3,2.18,4.01l-2.87,9.7c-.41,1.38-1.66,2.28-3.02,2.31Z"/>
        </g>
        <g>
          <circle class="cls-15" cx="306.56" cy="289.21" r="21.63"/>
          <path class="cls-11" d="M299.57,297.02c-.32,0-.66-.04-.98-.13-1.71-.51-2.68-2.3-2.18-4.01l2.87-9.7c.5-1.71,2.3-2.68,4.01-2.18,1.71.51,2.68,2.3,2.18,4.01l-2.87,9.7c-.41,1.38-1.66,2.28-3.02,2.31Z"/>
          <path class="cls-11" d="M311.79,298.74c-.32,0-.66-.04-.98-.13-1.71-.51-2.68-2.3-2.18-4.01l2.87-9.7c.5-1.71,2.3-2.68,4.01-2.18,1.71.51,2.68,2.3,2.18,4.01l-2.87,9.7c-.41,1.38-1.66,2.28-3.02,2.31Z"/>
        </g>
        <g id="_Mirror_Repeat_" data-name="&amp;lt;Mirror Repeat&amp;gt;">
          <path class="cls-3" d="M210.79,202.06c3.07,11.13,10.65,32.98,37.59,37.79,32.23,5.76,50.85-19.22,50.85-19.22,12.65,43.67,58.42,28.63,58.42,28.63,1.08,31.17-25.22,76.06-63.49,91.97,59.05-22.58,79.06-73.34,78.14-116.14-1.88-87.56-72.39-157.84-164.4-157.67h-.07c-91.94,3.79-159.35,77.04-157.47,164.59.92,42.8,23.1,92.66,83.07,112.67-38.93-14.25-67.12-57.96-67.39-89.15,0,0,46.37,13.06,57.13-31.12,0,0,19.68,24.15,51.63,17.02,26.7-5.96,33.34-28.12,35.93-39.37"/>
        </g>
        <path class="cls-5" d="M214.3,355.91c88.99-1.91,160.31-41.81,158.39-130.83s-75.61-159.64-164.6-157.72h-.07c-88.99,1.92-159.58,75.64-157.66,164.66,1.92,89.02,74.88,125.81,163.87,123.9h.07Z"/>
        <path class="cls-1" d="M328.49,81.22c-6.66-1.92-13.43-.52-18.3,3.19.8-2.09,1.21-4.35,1.16-6.7-.22-10.35-9.34-18.54-20.36-18.3-11.02.24-19.77,8.82-19.55,19.16.1,4.56,1.93,8.7,4.88,11.89-.17.2-2.95-1.44-4.34-2.01-10.42-4.22-22.2.97-26.24,10.94-4.04,9.97,1.14,21.47,11.56,25.69,1.75.71,3.54,1.16,5.32,1.39-2.08,3.02-3.25,6.61-3.17,10.45.22,10.35,9.47,18.54,20.65,18.3,10.47-.23,18.93-7.77,19.77-17.23,2.47,4.81,7.03,8.72,12.88,10.41,10.74,3.1,21.78-2.44,24.65-12.38,2.04-7.05-.58-14.41-6.11-19.21,5.44-2,9.79-6.26,11.44-11.97,2.87-9.94-3.51-20.52-14.25-23.62Z"/>
        <ellipse class="cls-14" cx="295.23" cy="109.38" rx="16.09" ry="12.82" transform="translate(-2.28 6.38) rotate(-1.23)"/>
        <g id="_Mirror_Repeat_-2" data-name="&amp;lt;Mirror Repeat&amp;gt;">
          <path class="cls-4" d="M195.88,320.28s7.63-11.98,17.5-11.98,17.5,11.98,17.5,11.98"/>
        </g>
        <g>
          <path class="cls-10" d="M144.82,238.41c2.82-7.15,11.01-15.79,18.53-17.9-5.19,8.47-1.23,16.99,4.35,24.11.36.52,1.72,2.54,2.07,2.86,1.32-.08,4.97-.18,5.84.76.73-.71,1.95-1.35,2.93-.9,2.94,10.47,8.46,16.71,7.44,28.38-1.82,20.88-24.64,28.48-41.63,18.74-1.44-.84-2.81-1.8-4.1-2.87l-.56-.77c-2.07-1.54-3.99-5.06-5.11-7.33-2.28-5.33-2.1-10.89-1.59-16.51.18-4.92,1.44-13,1.83-18.59,2.97,2.29,5.08,3.94,8.35,5.81-.18-3.89-.13-7.62.43-11.48.54-1.29.87-2.93,1.21-4.31Z"/>
          <path class="cls-13" d="M154.44,241.04c3.71,11.07,10.17,17.67,17.28,26.5,1.59-1.53,2.06-2.55,3.07-4.47,3.55,7.91,6.46,15.93,1.17,23.82-2.46,3.66-5.93,5.12-10.09,5.83-3.07.61-5.62.98-8.76.45-1.97.08-2.66.15-4.56-.55-13.76-5.07-14.64-18.26-10.18-30.46,1.71,1.37,3.72,3.22,5.42,4.68.51-3.29.66-6.73,1.18-10.02.88-5.59,3.01-10.75,5.48-15.79Z"/>
          <path class="cls-9" d="M157,263.82c3.11,6.62,9.64,9.9,12.64,16.75,2.06,4.71,1.51,10.01-3.76,12.15-3.07.61-5.62.98-8.76.45-4.22-1.22-6.35-3.6-7.51-7.8-1.65-6.02,1.48-7.89,3.75-12.28,1.44-2.78,1.74-6.02,3.65-9.26Z"/>
        </g>
        <g>
          <path class="cls-10" d="M275.4,238.41c-2.82-7.15-11.01-15.79-18.53-17.9,5.19,8.47,1.23,16.99-4.35,24.11-.36.52-1.72,2.54-2.07,2.86-1.32-.08-4.97-.18-5.84.76-.73-.71-1.95-1.35-2.93-.9-2.94,10.47-8.46,16.71-7.44,28.38,1.82,20.88,24.64,28.48,41.63,18.74,1.44-.84,2.81-1.8,4.1-2.87l.56-.77c2.07-1.54,3.99-5.06,5.11-7.33,2.28-5.33,2.1-10.89,1.59-16.51-.18-4.92-1.44-13-1.83-18.59-2.97,2.29-5.08,3.94-8.35,5.81.18-3.89.13-7.62-.43-11.48-.54-1.29-.87-2.93-1.21-4.31Z"/>
          <path class="cls-13" d="M265.77,241.04c-3.71,11.07-10.17,17.67-17.28,26.5-1.59-1.53-2.06-2.55-3.07-4.47-3.55,7.91-6.46,15.93-1.17,23.82,2.46,3.66,5.93,5.12,10.09,5.83,3.07.61,5.62.98,8.76.45,1.97.08,2.66.15,4.56-.55,13.76-5.07,14.64-18.26,10.18-30.46-1.71,1.37-3.72,3.22-5.42,4.68-.51-3.29-.66-6.73-1.18-10.02-.88-5.59-3.01-10.75-5.48-15.79Z"/>
          <path class="cls-9" d="M263.22,263.82c-3.11,6.62-9.64,9.9-12.64,16.75-2.06,4.71-1.51,10.01,3.76,12.15,3.07.61,5.62.98,8.76.45,4.22-1.22,6.35-3.6,7.51-7.8,1.65-6.02-1.48-7.89-3.75-12.28-1.44-2.78-1.74-6.02-3.65-9.26Z"/>
        </g>
      </g>
      <g>
        <g>
          <path class="cls-12" d="M151.32,350.33c-1.39,0-2.81-.11-4.23-.32l-.49-.07c-4.18-.63-8.13-1.22-11.17-2.36-6.17-2.31-6.52-6.39-6.19-8.62.95-6.32,8.93-13.67,17.78-13.67.81,0,1.64.06,2.44.18,9.4,1.42,18.84,7.6,17.71,15.11-.88,5.84-7.25,9.76-15.85,9.76Z"/>
          <path d="M147.02,328.78c.63,0,1.27.05,1.92.14,8.16,1.23,15.5,6.3,14.77,11.12-.61,4.07-5.85,6.79-12.39,6.79-1.2,0-2.44-.09-3.7-.28-8.16-1.23-15.64-2.25-14.91-7.08.67-4.44,6.95-10.69,14.32-10.69M147.02,321.78h0c-10.72,0-20.05,8.79-21.24,16.65-.31,2.06-.62,9.04,8.42,12.42,3.39,1.27,7.51,1.89,11.88,2.55l.49.07c1.58.24,3.18.36,4.75.36,10.4,0,18.16-5.12,19.31-12.74,1.47-9.78-9.34-17.38-20.65-19.09-.98-.15-1.97-.22-2.96-.22h0Z"/>
        </g>
        <path class="cls-6" d="M162.46,348.59c5.95,3.57,6.41,8.01,8.49,12.15,5.57,7.31,5.42,15.65-3.83,24.33-6.07,5.69-12.56,10.97-19.95,10.7-7.29-.27-15.94-6.08-21.54-12.59-5.3-6.15-10.7-14.15-10.67-21.52.04-8.34,4.18-13.83,10.62-19.79,9.54-8.81,18.61-9.1,22.98-3.8,7.01.52,11.6,4.49,13.91,10.52Z"/>
        <path class="cls-8" d="M150.13,339.1s-9.75,6.74-12.94,11.67"/>
        <path class="cls-8" d="M160.7,350.52s-6.01,5.51-11.62,10.16"/>
        <path class="cls-8" d="M169.57,361.26s-2.47,5.76-9.72,10.49"/>
      </g>
      <path class="cls-6" d="M276.36,393.33c11.36,12.53,24.03,25.82,38.6,14.12s4.76-30.59-6.6-43.12c-11.36-12.53-25.7-10.26-34.53-2.26-8.83,8.01-8.82,18.73,2.54,31.26Z"/>
      <g>
        <g>
          <path class="cls-12" d="M275.8,347.86c-8.6,0-14.97-3.92-15.85-9.76-1.13-7.51,8.31-13.69,17.71-15.1.8-.12,1.62-.18,2.44-.18,8.85,0,16.82,7.35,17.78,13.67.34,2.23-.02,6.31-6.19,8.62-3.04,1.14-6.99,1.73-11.17,2.36l-.49.07c-1.41.21-2.83.32-4.23.32h0Z"/>
          <path d="M280.1,326.31c7.36,0,13.65,6.25,14.32,10.69.73,4.82-6.75,5.85-14.91,7.08-1.27.19-2.51.28-3.7.28-6.53,0-11.77-2.71-12.39-6.79-.73-4.82,6.61-9.89,14.77-11.12.65-.1,1.29-.14,1.92-.14M280.1,319.31c-.99,0-1.99.07-2.96.22-11.31,1.7-22.12,9.31-20.65,19.09,1.15,7.62,8.91,12.74,19.31,12.74,1.57,0,3.16-.12,4.75-.36l.49-.07c4.37-.66,8.49-1.28,11.88-2.55,9.04-3.39,8.73-10.36,8.42-12.42-1.18-7.86-10.52-16.65-21.24-16.65h0Z"/>
        </g>
        <path class="cls-6" d="M264.66,346.12c-5.95,3.57-6.41,8.01-8.49,12.15-5.57,7.31-5.42,15.65,3.83,24.33,6.07,5.69,12.56,10.97,19.95,10.7,7.29-.27,15.94-6.08,21.54-12.59,5.3-6.15,10.7-14.15,10.67-21.52-.04-8.34-4.18-13.83-10.62-19.79-9.54-8.81-18.61-9.1-22.98-3.8-7.01.52-11.6,4.49-13.91,10.52Z"/>
        <path class="cls-8" d="M277,336.63s9.75,6.74,12.94,11.67"/>
        <path class="cls-8" d="M266.42,348.05s6.01,5.51,11.62,10.16"/>
        <path class="cls-8" d="M257.55,358.79s2.47,5.76,9.72,10.49"/>
      </g>
    </g>
  </g>
</svg>