<?xml version="1.0" encoding="UTF-8"?>
<svg id="Layer_2" data-name="Layer 2" xmlns="http://www.w3.org/2000/svg" viewBox="0 0 427.46 455.99">
  <defs>
    <style>
      .cls-1 {
        fill: #f9fbff;
        stroke-width: 6px;
      }

      .cls-1, .cls-2, .cls-3, .cls-4, .cls-5 {
        stroke: #000;
      }

      .cls-1, .cls-2, .cls-3, .cls-5 {
        stroke-linejoin: round;
      }

      .cls-2, .cls-3, .cls-4, .cls-5 {
        stroke-width: 7px;
      }

      .cls-2, .cls-3, .cls-5 {
        stroke-linecap: round;
      }

      .cls-2, .cls-6 {
        fill: #ffc6d5;
      }

      .cls-3 {
        fill: #fff;
      }

      .cls-4 {
        fill: #fc8da9;
        stroke-miterlimit: 10;
      }

      .cls-7 {
        fill: #9fe0ab;
      }

      .cls-5 {
        fill: none;
      }
    </style>
  </defs>
  <g id="Layer_1-2" data-name="Layer 1">
    <g>
      <path class="cls-1" d="M77.83,50.87c1.82,5.84,6.39,10.12,12.03,12.05-5.57,5.05-8.1,12.68-5.85,19.88,3.17,10.16,14.64,15.61,25.62,12.19,5.98-1.87,10.57-5.98,13-10.99,1.08,9.71,9.94,17.27,20.71,17.27,11.5,0,20.82-8.62,20.82-19.27,0-3.95-1.28-7.62-3.48-10.67,1.82-.27,3.66-.77,5.44-1.55,10.63-4.57,15.69-16.51,11.31-26.67-4.37-10.16-16.6-15.24-27.22-10.66-1.43.61-4.23,2.36-4.42,2.16,2.96-3.34,4.75-7.64,4.75-12.33,0-10.64-9.19-19.27-20.52-19.27s-20.52,8.62-20.52,19.27c0,2.42.48,4.73,1.34,6.86-5.09-3.7-12.09-5-18.89-2.87-10.98,3.43-17.3,14.44-14.13,24.6h.01Z"/>
      <ellipse class="cls-7" cx="126.78" cy="54.48" rx="16.54" ry="13.19"/>
      <path class="cls-3" d="M162.81,381.45l-3.44,36.63s-16.61,8.93-10.74,22.49c5.87,13.57,26.06,11.85,26.06,11.85,0,0,22.37,2.29,24.41-21.75,2.05-24.04,3.18-44.94,3.18-44.94l-39.5-4.29h.01Z"/>
      <path class="cls-3" d="M178.05,306.03s-16.74,32.54-20.57,48.31c-3.81,15.76-13.03,35.34-30.27,35.03-19.91-.36-27.04-15.45-24.65-35.03,3.16-25.98,32.66-58.74,32.66-58.74l42.82,10.43Z"/>
      <path class="cls-3" d="M264.65,381.45l3.44,36.63s16.61,8.93,10.74,22.49c-5.87,13.57-26.06,11.85-26.06,11.85,0,0-22.37,2.29-24.41-21.75-2.05-24.04-3.18-44.94-3.18-44.94l39.5-4.29h-.01Z"/>
      <path class="cls-3" d="M249.41,306.03s16.74,32.54,20.57,48.31c3.81,15.76,13.03,35.34,30.27,35.03,19.91-.36,27.04-15.45,24.65-35.03-3.16-25.98-32.66-58.74-32.66-58.74l-42.82,10.43Z"/>
      <path class="cls-4" d="M288.78,349.41c-.83-54.62-47.4-78.89-47.4-78.89h-54.69s-46.56,24.27-47.4,78.89c-1.04,68.37,150.55,69.25,149.48,0h.01Z"/>
      <path class="cls-6" d="M215.44,306.16c-91.53,0-165.74-39.44-165.74-131.01S123.9,9.35,215.44,9.35h.08c91.53,0,165.74,74.23,165.74,165.8s-74.21,131.01-165.74,131.01"/>
      <path class="cls-5" d="M215.51,306.16c91.53,0,165.74-39.44,165.74-131.01S307.04,9.35,215.51,9.35h-.08c-91.53,0-165.74,74.23-165.74,165.8s74.21,131.01,165.74,131.01h.08Z"/>
      <circle class="cls-2" cx="65.68" cy="76.48" r="62.18"/>
      <circle class="cls-2" cx="361.79" cy="76.48" r="62.18"/>
    </g>
  </g>
</svg>