<?xml version="1.0" encoding="UTF-8"?>
<svg id="Layer_2" data-name="Layer 2" xmlns="http://www.w3.org/2000/svg" viewBox="0 0 415.86 443.98">
  <defs>
    <style>
      .cls-1 {
        fill: #f9fbff;
      }

      .cls-1, .cls-2, .cls-3, .cls-4, .cls-5 {
        stroke-linejoin: round;
      }

      .cls-1, .cls-2, .cls-6, .cls-4, .cls-5 {
        stroke: #000;
      }

      .cls-1, .cls-4 {
        stroke-width: 6px;
      }

      .cls-2, .cls-3 {
        fill: #ffc6d5;
      }

      .cls-2, .cls-3, .cls-4, .cls-5 {
        stroke-linecap: round;
      }

      .cls-2, .cls-6, .cls-5 {
        stroke-width: 7px;
      }

      .cls-7 {
        fill: #fec6d4;
      }

      .cls-8 {
        fill: #fff;
      }

      .cls-3 {
        stroke: #fc8da9;
        stroke-width: 4px;
      }

      .cls-6 {
        fill: #fc8da9;
        stroke-miterlimit: 10;
      }

      .cls-4, .cls-5 {
        fill: none;
      }

      .cls-9 {
        fill: #9fe0ab;
      }

      .cls-10 {
        fill: #ffdce1;
      }
    </style>
  </defs>
  <g id="Layer_1-2" data-name="Layer 1">
    <g>
      <g>
        <g>
          <path class="cls-8" d="M180.81,440.48c-3.47,0-10.01-.48-14.73-3.69-3.09-2.1-5.13-5.45-5.73-9.45-.73-4.8.65-10.1,3.61-13.85.62-.88,2.22-3.15,2.18-4.02-.77-7.75-2.28-16.13-3.74-24.23l-1.87-10.47,6.4,3.49c6.53,3.56,21.71,5.65,30.79,6.9l5.53.77-.02,3.06c-.02,4.01.25,8.11.54,12.45.55,8.25,1.11,16.78-.48,24.89-.91,4.61-4.15,8.79-8.89,11.48l-.12.07-.13.06c-3.48,1.62-8.34,2.55-13.34,2.55Z"/>
          <path d="M165.25,381.33c7.75,4.23,25.47,6.37,34.48,7.64-.07,11.97,2.42,24.98.13,36.68-.78,3.96-3.7,7.13-7.18,9.11-3.05,1.42-7.45,2.22-11.86,2.22-4.8,0-9.62-.95-12.76-3.08-5.9-4.01-5.37-13.19-1.29-18.3,1.2-1.68,3.07-4.31,2.86-6.46-.89-8.99-2.78-18.93-4.36-27.8M155.8,368.2l2.56,14.36c.19,1.08.39,2.18.59,3.29,1.41,7.81,2.86,15.87,3.63,23.31-.31.64-1.04,1.68-1.43,2.24-3.49,4.49-5.12,10.78-4.26,16.47.75,4.97,3.32,9.17,7.23,11.82,5.49,3.73,12.81,4.29,16.69,4.29,5.49,0,10.89-1.05,14.82-2.88l.25-.12.24-.14c5.64-3.19,9.5-8.24,10.6-13.85,1.68-8.55,1.1-17.32.53-25.79-.28-4.27-.55-8.31-.53-12.2l.03-6.12-6.06-.85c-.78-.11-1.62-.23-2.52-.35-8.25-1.14-23.62-3.25-29.58-6.5l-12.8-6.98h0Z"/>
        </g>
        <g>
          <path class="cls-8" d="M235.72,440.42c-4.68,0-9.23-.91-12.82-2.55l-.12-.06c-13.35-6.75-12.06-19.09-10.93-29.97.2-1.94.41-3.94.53-5.85.25-4.01.37-8.21.37-13.21v-2.9s2.85-.54,2.85-.54c2.02-.38,4.27-.62,6.45-.85,1.7-.18,3.31-.35,4.78-.58,7.06-1.1,22.9-4.82,23.06-4.86l5.44-1.28-1.23,5.45c-1.81,8.05-3.09,15.88-4.45,24.16l-.33,1.98c.55,1.02,1.22,2.07,1.92,3.17,1.32,2.06,2.68,4.2,3.53,6.59,2.42,6.8.72,11.35-1.13,13.98-3.27,4.64-9.81,7.3-17.92,7.3Z"/>
          <path d="M250.69,382.45c-2.07,9.18-3.47,18.18-5,27.46,1.61,3.48,4.51,6.8,5.79,10.39,4.24,11.9-5.76,16.61-15.76,16.61-4.12,0-8.24-.8-11.36-2.23-13.34-6.74-9.26-20.15-8.49-32.48.28-4.53.37-8.89.38-13.43,3.38-.63,7.61-.87,11.12-1.42,7.27-1.14,23.32-4.91,23.32-4.91M259.97,373.08l-10.89,2.56c-.16.04-15.88,3.72-22.8,4.81-1.38.22-2.95.38-4.61.56-2.24.24-4.56.49-6.72.89l-5.7,1.07v5.8c0,4.93-.12,9.06-.37,13-.11,1.84-.31,3.71-.52,5.7-1.12,10.81-2.66,25.62,12.83,33.46l.12.06.12.06c4.04,1.85,9.11,2.87,14.28,2.87,9.27,0,16.84-3.2,20.78-8.79,2.33-3.3,4.49-8.97,1.57-17.18-.98-2.77-2.52-5.17-3.87-7.3-.43-.67-.85-1.33-1.22-1.95l.12-.75c1.35-8.24,2.62-16.01,4.41-23.97l2.46-10.91h0Z"/>
        </g>
        <path class="cls-6" d="M285.76,333.1c-.87-56.69-49.41-81.88-49.41-81.88h-57.02s-48.54,25.19-49.41,81.88c-1.09,71.37,156.94,71.42,155.84,0Z"/>
        <g>
          <path class="cls-8" d="M191.45,376.54c-6,0-12.45-2.75-18.16-7.74-11.79-9.8-17.32-21.76-22.85-35.23-6.1-14.9-7.96-26.83-8.97-41.25l-.41-5.76,5.3,2.31c4.33,1.89,12.6,3.3,19.26,4.44,3.11.53,6.04,1.03,8.39,1.54l1.72.37.73,1.61c.8,1.77,1.59,3.56,2.39,5.35,5.51,12.44,11.21,25.29,20.72,34.97,7.63,7.76,10.76,13.51,7.92,25.1-.03.35-.05,1.26,0,3.59l.02,1.3-.5.85c-1,1.71-1.36,2.19-2.73,3.62l-.13.14-.15.12c-3.7,3.1-7.92,4.67-12.54,4.67Z"/>
          <path d="M144.96,292.07c6.77,2.95,20.8,4.57,28.31,6.19,6.51,14.42,12.46,29.79,23.8,41.33,7.06,7.19,9.52,11.78,6.98,21.96-.16.63-.07,3.82-.06,4.66-.87,1.48-1.05,1.73-2.24,2.96-3.24,2.72-6.77,3.85-10.3,3.85-5.65,0-11.31-2.9-15.86-6.88-11.19-9.3-16.57-20.89-21.91-33.92-5.68-13.86-7.67-25.26-8.72-40.17M137.17,281.04l.81,11.53c1.04,14.77,2.95,27,9.23,42.33,5.48,13.38,11.43,26.25,23.85,36.6,6.34,5.51,13.58,8.55,20.4,8.55,5.39,0,10.51-1.9,14.79-5.49l.29-.25.27-.28c1.57-1.64,2.08-2.32,3.22-4.27l.99-1.69-.04-1.96v-.34c-.04-1.73-.04-2.59-.03-3.01,3.06-12.84-.78-19.79-8.9-28.06-9.06-9.22-14.63-21.79-20.02-33.94-.8-1.8-1.59-3.59-2.39-5.37l-1.45-3.22-3.45-.75c-2.42-.52-5.39-1.03-8.54-1.57-6.47-1.11-14.51-2.48-18.45-4.2l-10.59-4.62h0Z"/>
        </g>
        <g>
          <path class="cls-8" d="M223.06,376.74c-4.86,0-7.5-1.51-10.66-4.29l-.08-.08-.08-.08c-6.28-6.29-6.17-17.32-3.42-24.91.9-2.48,3.35-5.25,6.71-8.9.84-.92,1.64-1.78,2.18-2.42,6.32-7.55,10.56-14.32,13.76-21.95.92-2.11,1.88-4.13,2.8-6.08,1.71-3.62,3.33-7.04,4.68-10.74l.62-1.69,1.74-.48c1.54-.42,4.21-.87,6.56-1.27.96-.16,1.86-.31,2.54-.44,1.56-.29,3.15-.6,4.77-.92,4.74-.92,9.65-1.88,14.28-2.43l.24-.03,2.53.05.96,1.81c.4.75,1.13,2.13-.19,12.47-2.91,22.55-11.35,43.04-23.76,57.71-4.42,5.23-13.52,14.07-24.83,14.61-.49.02-.92.03-1.34.03Z"/>
          <path d="M269.85,293.56h.23c.52.99-.37,8.87-.57,10.39-2.57,19.85-9.93,40.49-22.96,55.89-5.46,6.46-13.52,12.95-22.32,13.38-.41.02-.8.03-1.17.03-3.59,0-5.41-.84-8.35-3.42-5.17-5.17-4.99-14.67-2.6-21.24,1.01-2.77,6.13-7.7,8.28-10.26,6.01-7.19,10.68-14.19,14.3-22.85,2.49-5.67,5.36-11.02,7.54-16.97,1.96-.54,6.53-1.21,8.81-1.64,6.04-1.12,12.75-2.59,18.82-3.31M269.51,286.55l-.49.06c-4.76.56-9.73,1.53-14.54,2.47-1.61.31-3.2.62-4.74.91-.67.13-1.54.27-2.49.43-3.05.51-5.32.91-6.91,1.35l-3.47.96-1.24,3.38c-1.3,3.55-2.88,6.9-4.56,10.44-.93,1.98-1.9,4.02-2.82,6.11l-.02.06-.02.06c-3.09,7.39-7.04,13.69-13.21,21.06-.48.58-1.25,1.41-2.07,2.3-3.64,3.94-6.3,6.98-7.42,10.07-3.23,8.88-3.17,21.16,4.23,28.57l.16.16.17.15c3.62,3.19,7.06,5.17,12.98,5.17.46,0,.95-.01,1.46-.03,12.68-.6,22.6-10.19,27.38-15.85,12.84-15.18,21.56-36.31,24.56-59.52,1.46-11.45.58-13.11-.19-14.57l-1.93-3.62-4.1-.09h-.23s-.49-.02-.49-.02h0Z"/>
        </g>
      </g>
      <g>
        <path class="cls-8" d="M209.57,297.78c89.01,0,161.17-38.35,161.17-127.39S298.58,9.16,209.57,9.16h-.07c-89.01,0-161.17,72.18-161.17,161.23s72.16,127.39,161.17,127.39"/>
        <circle class="cls-2" cx="63.96" cy="76.57" r="60.46"/>
        <circle class="cls-2" cx="351.91" cy="76.57" r="60.46"/>
        <g>
          <circle class="cls-10" cx="112.63" cy="241.59" r="21.63"/>
          <path class="cls-7" d="M104.44,249.25c-.32,0-.66-.05-.98-.15-1.7-.54-2.63-2.36-2.09-4.05l3.07-9.63c.54-1.7,2.36-2.63,4.05-2.09,1.7.54,2.63,2.36,2.09,4.05l-3.07,9.63c-.44,1.37-1.71,2.25-3.07,2.25Z"/>
          <path class="cls-7" d="M116.62,251.23c-.32,0-.66-.05-.98-.15-1.7-.54-2.63-2.36-2.09-4.05l3.07-9.63c.54-1.7,2.36-2.63,4.05-2.09,1.7.54,2.63,2.36,2.09,4.05l-3.07,9.63c-.44,1.37-1.71,2.25-3.07,2.25Z"/>
        </g>
        <g>
          <circle class="cls-10" cx="303.06" cy="241.59" r="21.63"/>
          <path class="cls-7" d="M295.9,249.25c-.32,0-.66-.05-.98-.15-1.7-.54-2.63-2.36-2.09-4.05l3.07-9.63c.54-1.7,2.36-2.63,4.05-2.09,1.7.54,2.63,2.36,2.09,4.05l-3.07,9.63c-.44,1.37-1.71,2.25-3.07,2.25Z"/>
          <path class="cls-7" d="M308.09,251.23c-.32,0-.66-.05-.98-.15-1.7-.54-2.63-2.36-2.09-4.05l3.07-9.63c.54-1.7,2.36-2.63,4.05-2.09,1.7.54,2.63,2.36,2.09,4.05l-3.07,9.63c-.44,1.37-1.71,2.25-3.07,2.25Z"/>
        </g>
        <ellipse cx="261.1" cy="211.02" rx="15.32" ry="17.2"/>
        <ellipse cx="154.59" cy="211.02" rx="15.32" ry="17.2"/>
        <g id="_Mirror_Repeat_" data-name="&amp;lt;Mirror Repeat&amp;gt;">
          <path class="cls-3" d="M209.38,143.9c2.83,11.2,9.94,33.2,36.77,38.59,32.1,6.45,51.25-18.12,51.25-18.12,11.71,43.93,57.79,29.88,57.79,29.88.4,31.19-26.85,75.5-65.46,90.58,59.52-21.3,80.62-71.63,80.62-114.43,0-87.58-68.97-159.36-160.97-161.17h-.07C117.31,11.04,48.33,82.81,48.33,170.39c0,42.81,21.1,93.13,80.62,114.43-38.61-15.08-65.86-59.39-65.46-90.58,0,0,46.08,14.05,57.79-29.88,0,0,19.15,24.57,51.25,18.12,26.83-5.39,33.94-27.39,36.77-38.59"/>
        </g>
        <path class="cls-5" d="M209.57,297.78c89.01,0,161.17-38.35,161.17-127.39S298.58,9.16,209.57,9.16h-.07c-89.01,0-161.17,72.18-161.17,161.23s72.16,127.39,161.17,127.39h.07Z"/>
        <g id="_Mirror_Repeat_-2" data-name="&amp;lt;Mirror Repeat&amp;gt;">
          <path class="cls-4" d="M228.71,243.15s-1.55,9.14-20.87,9.14c-19.31,0-20.87-9.14-20.87-9.14"/>
        </g>
        <path class="cls-1" d="M329.65,25.62c-6.62-2.07-13.41-.81-18.36,2.79.84-2.07,1.31-4.32,1.31-6.67,0-10.35-8.94-18.74-19.96-18.74s-19.96,8.39-19.96,18.74c0,4.56,1.74,8.74,4.62,11.99-.18.19-2.92-1.5-4.3-2.1-10.33-4.44-22.22.49-26.47,10.37-4.25,9.88.67,21.49,11,25.94,1.74.75,3.51,1.24,5.29,1.5-2.14,2.97-3.39,6.54-3.39,10.38,0,10.35,9.07,18.74,20.25,18.74,10.48,0,19.09-7.36,20.14-16.8,2.37,4.87,6.84,8.87,12.65,10.69,10.67,3.33,21.83-1.97,24.91-11.85,2.19-7-.27-14.42-5.69-19.34,5.48-1.88,9.93-6.05,11.7-11.72,3.09-9.88-3.07-20.59-13.74-23.92Z"/>
        <ellipse class="cls-9" cx="295.79" cy="53.05" rx="16.09" ry="12.82"/>
      </g>
    </g>
  </g>
</svg>