<?xml version="1.0" encoding="UTF-8"?>
<svg id="Layer_2" data-name="Layer 2" xmlns="http://www.w3.org/2000/svg" viewBox="0 0 427.46 455.97">
  <defs>
    <style>
      .cls-1 {
        fill: #f9fbff;
      }

      .cls-1, .cls-2, .cls-3, .cls-4, .cls-5, .cls-6 {
        stroke-linejoin: round;
      }

      .cls-1, .cls-2, .cls-3, .cls-7, .cls-5, .cls-6 {
        stroke: #000;
      }

      .cls-1, .cls-5 {
        stroke-width: 6px;
      }

      .cls-2, .cls-3, .cls-4, .cls-5, .cls-6 {
        stroke-linecap: round;
      }

      .cls-2, .cls-3, .cls-7, .cls-6 {
        stroke-width: 7px;
      }

      .cls-2, .cls-4 {
        fill: #ffc6d5;
      }

      .cls-8 {
        fill: #fec6d4;
      }

      .cls-3, .cls-9 {
        fill: #fff;
      }

      .cls-4 {
        stroke: #fc8da9;
        stroke-width: 4px;
      }

      .cls-7 {
        fill: #fc8da9;
        stroke-miterlimit: 10;
      }

      .cls-5, .cls-6 {
        fill: none;
      }

      .cls-10 {
        fill: #9fe0ab;
      }

      .cls-11 {
        fill: #ffdce1;
      }
    </style>
  </defs>
  <g id="Layer_1-2" data-name="Layer 1">
    <g>
      <path class="cls-3" d="M162.73,381.42l-3.44,36.63s-16.61,8.93-10.74,22.49c5.87,13.57,26.06,11.85,26.06,11.85,0,0,22.37,2.29,24.41-21.75,2.05-24.04,3.18-44.94,3.18-44.94l-39.5-4.29h.01Z"/>
      <path class="cls-3" d="M177.96,306s-16.74,32.54-20.57,48.31c-3.81,15.76-13.03,35.34-30.27,35.03-19.91-.36-27.04-15.45-24.65-35.03,3.16-25.98,32.66-58.74,32.66-58.74l42.82,10.43Z"/>
      <path class="cls-3" d="M264.56,381.42l3.44,36.63s16.61,8.93,10.74,22.49c-5.87,13.57-26.06,11.85-26.06,11.85,0,0-22.37,2.29-24.41-21.75-2.05-24.04-3.18-44.94-3.18-44.94l39.5-4.29h-.01Z"/>
      <path class="cls-3" d="M249.33,306s16.74,32.54,20.57,48.31c3.81,15.76,13.03,35.34,30.27,35.03,19.91-.36,27.04-15.45,24.65-35.03-3.16-25.98-32.66-58.74-32.66-58.74l-42.82,10.43Z"/>
      <path class="cls-7" d="M288.69,349.39c-.83-54.62-47.4-78.89-47.4-78.89h-54.69s-46.56,24.27-47.4,78.89c-1.05,68.78,150.53,68.82,149.48,0h.01Z"/>
      <g>
        <path class="cls-9" d="M215.41,306.14c91.53,0,165.74-39.44,165.74-131.01S306.96,9.32,215.41,9.32h-.08c-91.53,0-165.74,74.23-165.74,165.8s74.21,131.01,165.74,131.01"/>
        <circle class="cls-2" cx="65.68" cy="78.65" r="62.18"/>
        <circle class="cls-2" cx="361.79" cy="78.65" r="62.18"/>
        <g>
          <circle class="cls-11" cx="115.72" cy="238.43" r="22.24"/>
          <path class="cls-8" d="M107.31,246.3c-.33,0-.67-.06-1.01-.15-1.75-.55-2.71-2.42-2.16-4.17l3.16-9.91c.55-1.75,2.42-2.71,4.17-2.16,1.75.55,2.71,2.42,2.16,4.17l-3.16,9.91c-.45,1.4-1.76,2.31-3.16,2.31Z"/>
          <path class="cls-8" d="M119.83,248.34c-.33,0-.67-.06-1.01-.15-1.75-.55-2.71-2.42-2.16-4.17l3.16-9.91c.55-1.75,2.42-2.71,4.17-2.16,1.75.55,2.71,2.42,2.16,4.17l-3.16,9.91c-.45,1.4-1.76,2.31-3.16,2.31Z"/>
        </g>
        <g>
          <circle class="cls-11" cx="311.56" cy="238.43" r="22.24"/>
          <path class="cls-8" d="M304.2,246.3c-.33,0-.67-.06-1.01-.15-1.75-.55-2.71-2.42-2.16-4.17l3.16-9.91c.55-1.75,2.42-2.71,4.17-2.16,1.75.55,2.71,2.42,2.16,4.17l-3.16,9.91c-.45,1.4-1.76,2.31-3.16,2.31h0Z"/>
          <path class="cls-8" d="M316.73,248.34c-.33,0-.67-.06-1.01-.15-1.75-.55-2.71-2.42-2.16-4.17l3.16-9.91c.55-1.75,2.42-2.71,4.17-2.16,1.75.55,2.71,2.42,2.16,4.17l-3.16,9.91c-.45,1.42-1.76,2.31-3.16,2.31h0Z"/>
        </g>
        <ellipse cx="268.41" cy="219.82" rx="15.76" ry="17.69"/>
        <ellipse cx="158.88" cy="219.82" rx="15.76" ry="17.69"/>
        <g id="_Mirror_Repeat_" data-name=" Mirror Repeat ">
          <path class="cls-4" d="M215.21,147.88c2.91,11.51,10.23,34.14,37.82,39.68,33.01,6.63,52.71-18.64,52.71-18.64,12.04,45.18,59.42,30.73,59.42,30.73.42,32.08-27.61,77.64-67.32,93.16,61.2-21.9,82.91-73.65,82.91-117.67,0-90.06-70.93-163.88-165.54-165.74h-.08C120.53,11.26,49.6,85.08,49.6,175.14c0,44.02,21.71,95.77,82.91,117.67-39.71-15.51-67.73-61.08-67.32-93.16,0,0,47.38,14.45,59.42-30.73,0,0,19.69,25.27,52.71,18.64,27.59-5.54,34.9-28.17,37.82-39.68"/>
        </g>
        <path class="cls-6" d="M215.41,306.14c91.53,0,165.74-39.44,165.74-131.01S306.96,9.32,215.41,9.32h-.08c-91.53,0-165.74,74.23-165.74,165.8s74.21,131.01,165.74,131.01h.08Z"/>
        <g id="_Mirror_Repeat_-2" data-name=" Mirror Repeat -2">
          <path class="cls-5" d="M235.1,252.86s-1.59,9.41-21.46,9.4c-19.86,0-21.46-9.4-21.46-9.4"/>
        </g>
        <path class="cls-1" d="M338.9,26.25c-6.8-2.12-13.8-.84-18.89,2.87.86-2.13,1.34-4.45,1.34-6.86,0-10.64-9.19-19.27-20.52-19.27s-20.52,8.62-20.52,19.27c0,4.69,1.79,8.99,4.75,12.33-.19.2-3-1.55-4.42-2.16-10.63-4.57-22.86.51-27.22,10.66-4.37,10.16.7,22.1,11.31,26.67,1.78.76,3.62,1.27,5.44,1.55-2.2,3.05-3.48,6.72-3.48,10.67,0,10.64,9.32,19.27,20.82,19.27,10.77,0,19.64-7.57,20.71-17.27,2.43,5.01,7.03,9.12,13,10.99,10.98,3.43,22.45-2.02,25.62-12.19,2.24-7.2-.28-14.83-5.85-19.88,5.64-1.94,10.21-6.21,12.03-12.05,3.17-10.16-3.15-21.17-14.13-24.6h.01Z"/>
        <ellipse class="cls-10" cx="304.08" cy="54.46" rx="16.54" ry="13.19"/>
      </g>
    </g>
  </g>
</svg>