<?xml version="1.0" encoding="UTF-8"?>
<svg id="Layer_2" data-name="Layer 2" xmlns="http://www.w3.org/2000/svg" viewBox="0 0 312.24 442.99">
  <defs>
    <style>
      .cls-1, .cls-2, .cls-3, .cls-4, .cls-5 {
        stroke-linecap: round;
        stroke-linejoin: round;
      }

      .cls-1, .cls-2, .cls-6, .cls-4, .cls-5 {
        stroke: #000;
      }

      .cls-1, .cls-2, .cls-6, .cls-5 {
        stroke-width: 7px;
      }

      .cls-1, .cls-3 {
        fill: #ffc6d5;
      }

      .cls-7 {
        fill: #fec6d4;
      }

      .cls-2, .cls-8 {
        fill: #fff;
      }

      .cls-3 {
        stroke: #fc8da9;
        stroke-width: 4px;
      }

      .cls-6 {
        fill: #fc8da9;
        stroke-miterlimit: 10;
      }

      .cls-4 {
        stroke-width: 6px;
      }

      .cls-4, .cls-5 {
        fill: none;
      }

      .cls-9 {
        fill: #ffdce1;
      }
    </style>
  </defs>
  <g id="Layer_1-2" data-name="Layer 1">
    <g>
      <path class="cls-2" d="M191.84,414.22c4.2,5.34,4.37,12.02.06,17.08-7.33,8.6-20.19,8.89-31.68,7.64-11.49-1.25-18.4-10.18-18.48-21.43l-.29-54.48c6.07-2.83,4.48,5.54,16.34,11.06,8.17,3.8,17.35,3.2,25.8-.52l-.85,33.59c3.39,2.19,6.6,3.88,9.1,7.05h0Z"/>
      <path class="cls-6" d="M163.29,385.73s75.94,9.16,78.63-45.41c2.69-54.57-42.22-81.78-42.22-81.78l-27.08-1.75-.41-.02-27.08-1.75s-48.03,21.22-52.38,75.68c-4.35,54.46,72.15,55.14,72.15,55.14"/>
      <path class="cls-2" d="M178.72,283.01c7.38,15.7,8.5,46.32,11.26,70.45,3.32,29.06-39.04,35.42-45.83,7.12-4.26-17.76-5.31-48.19,8.79-80.18,4.69-10.64,21.38-8.04,25.79,2.61h0Z"/>
      <g>
        <path class="cls-8" d="M297.21,96.5c-7.08-19.75-18.1-38.03-34.6-52.02-21.61-18.34-47.81-30.42-75.54-36.01-22.38-4.52-44.73-3.64-66.34,2.09C48.92,29.55-.17,96.99,3.71,171.64c.9,17.26,4.12,34.31,11.4,50.13,11.43,24.88,31.37,44.59,56.06,56.51,14.52,7.01,29.6,11.69,45.66,14.21,27.86,4.38,56.51,4.68,84.36.63,5.43-.79,10.77-2.05,16.19-2.85,35.13-5.23,83.02-32.95,86.55-70.21,2.09-22.11,12.83-69.07-6.7-123.57h-.01Z"/>
        <path class="cls-3" d="M173.52,188.62s68.4,11.93,69.52-36.62c-.02-.02,85.93,46.6,54.16-55.5-7.08-19.75-18.1-38.03-34.6-52.02-21.61-18.34-47.81-30.42-75.54-36.01-22.38-4.52-44.73-3.64-66.34,2.09C48.91,29.55-.18,96.99,3.7,171.64c.9,17.26,4.12,34.31,11.4,50.13,11.43,24.88,31.37,44.59,56.06,56.51,14.52,7.01,29.6,11.69,45.66,14.21,27.86,4.38,56.51,4.68,84.36.63-9.82-4.23-29.31-49.01-27.65-104.51h0Z"/>
      </g>
      <path d="M278.69,223.78c-3.95,2.24-7.67-.55-9.22-4.18-5.72-13.39-.97-31.4,6.84-31.34,11.36.09,13.34,29.28,2.39,35.52h-.01Z"/>
      <g>
        <path class="cls-9" d="M253.86,206.59c11.47,12.96,3.58,37.69-11.01,41.06-4.38,1.01-8.82-.73-11.46-4.95-6.69-10.73-1.67-26.58,5.89-35.11,4.51-5.09,12.1-6.08,16.59-1.01h-.01ZM251.96,229.16c.58-4.02.72-8.28.29-12.55-.11-1.15-1.45-1.51-2.03-1.4-.59.11-1.56.54-1.72,1.43-.83,4.3-1.37,8.98-.7,13.52.15,1.05,2.05,1.3,2.55.97s1.46-.85,1.63-1.97h-.01ZM243.96,221.06c-.11-1.34-1.04-2.32-2-2.41-3.03-.28-3.13,5.89-3.2,10.4-.03,1.86-.73,3.84-.01,5.82.33.92,2.07.92,2.62.59,2.6-1.57,2.97-9.74,2.59-14.4Z"/>
        <path class="cls-7" d="M243.96,221.06c.39,4.64,0,12.83-2.59,14.4-.55.33-2.29.33-2.62-.59-.72-1.98-.01-3.95.01-5.82.07-4.51.17-10.68,3.2-10.4.96.09,1.89,1.06,2,2.41Z"/>
        <path class="cls-7" d="M251.96,229.16c-.15,1.12-1.11,1.63-1.63,1.97s-2.4.08-2.55-.97c-.67-4.54-.13-9.22.7-13.52.17-.88,1.15-1.33,1.72-1.43s1.92.27,2.03,1.4c.43,4.28.29,8.54-.29,12.55h.01Z"/>
      </g>
      <g id="_Mirror_Repeat_-3" data-name=" Mirror Repeat -3">
        <path class="cls-4" d="M289.11,236.72s.86,2.82,6.62,5.25"/>
      </g>
      <path class="cls-5" d="M297.21,96.5c-7.08-19.75-18.1-38.03-34.6-52.02-21.61-18.34-47.81-30.42-75.54-36.01-22.38-4.52-44.73-3.64-66.34,2.09C48.92,29.55-.17,96.99,3.71,171.64c.9,17.26,4.12,34.31,11.4,50.13,11.43,24.88,31.37,44.59,56.06,56.51,14.52,7.01,29.6,11.69,45.66,14.21,27.86,4.38,56.51,4.68,84.36.63,5.43-.79,10.77-2.05,16.19-2.85,35.13-5.23,83.02-32.95,86.55-70.21,2.09-22.11,12.83-69.07-6.7-123.57h-.01Z"/>
      <circle class="cls-1" cx="107.63" cy="65.68" r="62.18"/>
    </g>
  </g>
</svg>