<?xml version="1.0" encoding="UTF-8"?>
<svg id="Layer_2" data-name="Layer 2" xmlns="http://www.w3.org/2000/svg" viewBox="0 0 395.86 306.98">
  <defs>
    <style>
      .cls-1 {
        fill: #f1868e;
      }

      .cls-2 {
        fill: #f7b6ca;
      }

      .cls-3, .cls-4 {
        fill: #fff;
      }

      .cls-5 {
        fill: #0a0606;
      }

      .cls-6 {
        fill: #f9c5c3;
      }

      .cls-4 {
        stroke: #000;
        stroke-miterlimit: 10;
        stroke-width: 7px;
      }

      .cls-7 {
        fill: #1c0f0d;
      }
    </style>
  </defs>
  <g id="Layer_1-2" data-name="Layer 1">
    <g>
      <path class="cls-4" d="M95.43,186.25c-49.71-27.62-46.25-107.74-16.64-149.08C120-4.82,211.54-2.07,263.81,15.89c59.26,18.66,67.64,109.75,35.14,154.61-7.25,8.85-17.26,13.63-18.72,13.78-56.08,23.67-118.17,22.76-184.79,1.97Z"/>
      <ellipse class="cls-6" cx="189.16" cy="129.99" rx="91.15" ry="36.65"/>
      <circle class="cls-1" cx="110.49" cy="125.67" r="25.99"/>
      <circle class="cls-1" cx="271.99" cy="125.67" r="25.99"/>
      <path class="cls-5" d="M185.48,101.71c8.26-.42,16.89,3.74,17.44,12.83.48,7.88-6.39,12.05-13.46,12.4-7.58.01-16.68-1.67-17.73-10.79-.35-3.23.62-6.47,2.68-8.99,2.86-3.54,6.68-4.96,11.07-5.45Z"/>
      <path class="cls-7" d="M227.72,89.95c5.97-.55,11.24,3.86,11.75,9.83.5,5.97-3.96,11.21-9.93,11.66-5.91.45-11.07-3.95-11.56-9.85-.5-5.9,3.86-11.1,9.75-11.65Z"/>
      <path class="cls-7" d="M145.15,89.95c5.97-.55,11.24,3.86,11.75,9.83.5,5.97-3.96,11.21-9.93,11.66-5.91.45-11.07-3.95-11.56-9.85-.5-5.9,3.86-11.1,9.75-11.65Z"/>
      <g>
        <g>
          <path class="cls-3" d="M208.11,303.48c-3.4,0-6.22-.34-7.6-.55l-.22-.03-.21-.06c-8.82-2.47-8.68-9.64-8.57-14.87.01-.61.02-1.22.02-1.83,0-1.58,0-3.17.02-4.76,0-1.72.02-3.44.02-5.15v-3s2.96-.46,2.96-.46c1.77-.28,3.82-.4,5.81-.52,1.56-.09,3.18-.19,4.54-.36,3.78-.47,6.25-1.18,10-2.25l1.36-.39.69.08c1.16.11,2.06.6,2.72,1.46l.95,1.03-.06,1.35c0,.5-.02,1.08-.04,1.71-.06,2.49-.18,7.13.36,8.71.26.79.83,1.74,1.42,2.75,1.75,2.97,5.38,9.15-1.44,14.18-2.66,1.97-6.95,2.96-12.73,2.96Z"/>
          <path d="M216.53,272.8c.37.04.19-.02.5.31-.04,3.04-.37,9,.51,11.59,1.44,4.27,7.03,8.71,1.22,12.99-2.36,1.74-6.62,2.28-10.65,2.28-2.66,0-5.23-.23-7.09-.51-6.98-1.96-6-7.54-5.99-13.33,0-3.29.03-6.62.03-9.91,2.96-.46,7.04-.47,10.24-.87,4.3-.53,7.12-1.39,11.23-2.56M215.94,265.68l-1.33.38-.71.2c-3.58,1.03-5.95,1.71-9.46,2.14-1.24.15-2.74.24-4.32.34-2.07.13-4.21.26-6.14.56l-5.92.92v5.99c0,1.7-.01,3.41-.02,5.12,0,1.6-.01,3.19-.02,4.78,0,.59-.01,1.18-.02,1.77-.1,5.28-.3,15.11,11.13,18.31l.43.12.44.06c1.47.22,4.49.59,8.12.59,6.64,0,11.48-1.19,14.8-3.65,5.3-3.91,5.64-8.68,5.36-11.18-.34-3.09-1.8-5.59-2.98-7.59-.42-.72-.95-1.61-1.11-2.06-.34-1.34-.24-5.68-.19-7.54.02-.65.03-1.24.04-1.75l.04-2.79-1.79-1.94c-.91-1.11-2.47-2.4-4.97-2.64l-1.38-.16h0Z"/>
        </g>
        <g>
          <path class="cls-3" d="M165.49,303.48c-5.78,0-10.06-1-12.73-2.96-6.82-5.03-3.18-11.21-1.44-14.18.59-1.01,1.16-1.97,1.42-2.75.54-1.59.42-6.23.36-8.72-.02-.63-.03-1.21-.04-1.71l-.02-1.39.94-1.02c.62-.82,1.52-1.31,2.63-1.42l.69-.08.72.18.69.2c3.75,1.08,6.22,1.79,10.01,2.26,1.35.17,2.97.27,4.53.36,1.99.12,4.05.25,5.81.52l2.96.46v3c0,1.71.01,3.44.02,5.16,0,1.58.01,3.17.02,4.75,0,.61.01,1.23.03,1.83.1,5.23.25,12.4-8.57,14.87l-.21.06-.22.03c-1.38.21-4.2.55-7.6.55h0Z"/>
          <path d="M157.07,272.8c4.11,1.18,6.93,2.03,11.23,2.56,3.19.39,7.28.41,10.24.87,0,3.29.03,6.61.03,9.91,0,5.79.98,11.37-5.99,13.33-1.86.28-4.42.51-7.09.51-4.03,0-8.29-.54-10.65-2.28-5.81-4.28-.22-8.72,1.22-12.99.88-2.59.55-8.56.51-11.59.31-.33.13-.27.5-.31M157.67,265.69l-1.36.15c-2.51.24-4.08,1.53-4.98,2.64l-1.79,1.94.04,2.79c0,.51.02,1.11.04,1.75.05,1.86.15,6.2-.19,7.54-.17.46-.69,1.35-1.11,2.07-1.18,2-2.64,4.5-2.98,7.59-.27,2.5.06,7.27,5.36,11.18,3.32,2.45,8.17,3.64,14.8,3.64,3.63,0,6.64-.37,8.12-.59l.44-.06.43-.12c11.42-3.21,11.23-13.03,11.13-18.31-.01-.58-.02-1.17-.02-1.77,0-1.59,0-3.19-.02-4.78,0-1.71-.02-3.42-.02-5.12v-5.99s-5.92-.92-5.92-.92c-1.93-.3-4.07-.43-6.14-.56-1.58-.1-3.07-.19-4.32-.34-3.5-.43-5.87-1.11-9.46-2.14l-.71-.2-1.33-.38h0Z"/>
        </g>
      </g>
      <g>
        <path class="cls-3" d="M187.11,274.82c-32.53,0-52.16-5.52-56.2-33.76l-.02-.15c-1.27-12.92,1.03-34.63,5.12-39.14,1.22-1.34,2.58-1.54,3.29-1.54,6.38.14,18.63.22,36.52.22h0c23.32,0,49.62-.12,59.85-.18,3.92,0,4.57,4.68,5.14,8.81.44,3.15.86,7.52,1.25,12.97.66,9.22,1.02,18.56,1.02,18.65v.25s-.02.25-.02.25c-3.36,31.35-23.38,33.62-55.96,33.62Z"/>
        <path d="M139.3,203.72s0,0,.01,0c7.16.16,21.19.22,36.54.22,23.48,0,50.05-.13,59.85-.18h0c2.49,0,3.89,37.07,3.89,37.07-2.87,26.85-16.98,30.49-52.48,30.49s-49.42-7.58-52.74-30.76c-1.52-15.46,2.07-36.84,4.92-36.84M139.3,196.72c-2.22,0-4.3.96-5.88,2.69-.99,1.1-3.63,4.01-5.41,17.81-1.07,8.3-1.29,17.05-.6,24.02l.02.16.02.15c2.02,14.08,7.66,23.34,17.74,29.14,9.16,5.27,22.09,7.62,41.93,7.62,33.53,0,55.78-2.56,59.44-36.74l.05-.5-.02-.51c-.01-.38-.36-9.49-1.03-18.77-.4-5.53-.82-9.98-1.27-13.2-.3-2.15-.61-3.81-.96-5.08-1.66-6.09-5.89-6.75-7.63-6.75-10.25.05-36.52.18-59.86.18-17.88,0-30.12-.07-36.38-.21h-.08s-.09,0-.09,0h0Z"/>
      </g>
      <g>
        <path class="cls-1" d="M27.7,91.71c-7.16-1-13.26-4.77-17.23-7.51l-.09-.06-.08-.07c-7.26-5.85-8.2-12.59-6.66-16.96,1.45-4.11,5.1-6.66,9.53-6.66,2.18,0,5.33.63,8.98,3.25,2.4-3.92,5.46-6.24,9.27-7.06l.16-.03.16-.02c.44-.05.88-.07,1.31-.07,3.41,0,6.49,1.43,8.45,3.91,1.6,2.02,3.21,5.66,1.83,11.51-1.29,6.63-8.54,16.16-13.61,19.34l-.93.58-1.08-.15Z"/>
        <path d="M33.04,59.52c4.92,0,9.23,3.91,7.34,11.8-1.04,5.51-7.66,14.53-12.27,17.43-5.86-.82-11.14-3.69-15.94-7.01-9.91-7.98-6.64-18.28.99-18.28,2.85,0,6.31,1.44,9.92,4.98,1.76-4.11,4.4-7.87,8.96-8.86.33-.04.67-.05,1-.05M33.04,53.52h0c-.54,0-1.09.03-1.63.09l-.32.03-.32.07c-3.71.8-6.86,2.8-9.44,5.95-3.23-1.75-6.07-2.21-8.18-2.21-5.65,0-10.5,3.4-12.36,8.66-1.88,5.33-.87,13.46,7.61,20.29l.17.14.18.12c4.22,2.92,10.74,6.93,18.53,8.02l2.17.3,1.85-1.16c5.58-3.5,13.45-13.72,14.95-21.25,1.27-5.46.42-10.43-2.41-14.01-2.54-3.21-6.47-5.05-10.8-5.05h0Z"/>
      </g>
      <g>
        <path class="cls-1" d="M29.67,179.21c-4.69,0-9.66-1.07-15.65-3.37l-.1-.04-.1-.05c-8.68-4.08-11.42-11.04-10.28-16.14,1.06-4.76,5.16-7.84,10.44-7.84,2.09,0,4.27.46,6.54,1.38,1.4-4.37,3.82-7.35,7.34-9.05l.15-.07.15-.05c1.33-.48,2.69-.72,4.04-.72,5.36,0,10.79,3.99,10.86,12.9.31,6.75-4.48,17.72-8.65,22l-.76.78-1.09.11c-.94.09-1.9.14-2.87.14Z"/>
        <path d="M32.19,146.27c4.08,0,7.83,3.04,7.86,9.98.29,5.6-4,15.93-7.8,19.83-.86.09-1.72.13-2.57.13-5,0-9.92-1.38-14.58-3.17-12.59-5.92-10.53-18.26-1.11-18.26,2.41,0,5.31.81,8.57,2.75.73-4.41,2.41-8.69,6.61-10.72,1-.36,2.02-.54,3.03-.54M32.19,140.27h0c-1.7,0-3.4.3-5.05.89l-.3.11-.29.14c-3.41,1.66-6.01,4.34-7.76,8.01-1.63-.43-3.23-.64-4.8-.64-6.64,0-12.01,4.09-13.37,10.18-1.4,6.26,1.75,14.72,11.94,19.5l.2.09.2.08c6.34,2.43,11.66,3.57,16.73,3.57,1.07,0,2.13-.05,3.17-.16l2.18-.22,1.53-1.57c4.6-4.72,9.82-16.51,9.5-24.18-.11-10.87-7.24-15.82-13.85-15.82h0Z"/>
      </g>
      <g>
        <path class="cls-1" d="M343.68,41.34c-5.95-4.1-9.72-10.21-12.04-14.44l-.05-.1-.05-.1c-2.74-6-2.73-11.88.01-16.15,1.94-3.01,5.11-4.81,8.49-4.81,4.5,0,8.52,2.95,11.21,8.07,2.78-1.73,5.49-2.58,8.22-2.58,1.09,0,2.18.14,3.24.41l.16.04.15.06c3.51,1.32,6.02,3.98,6.88,7.3.97,3.71-.24,7.83-3.41,11.62-4.13,5.35-14.88,10.62-20.83,11.19l-1.09.1-.9-.62Z"/>
        <path d="M340.04,8.74c3.59,0,7.6,2.86,9.95,9.72,2.77-2.34,5.96-4.22,9.48-4.22.81,0,1.65.1,2.49.32,5,1.88,7.76,7.61,2.19,14.24-3.4,4.46-13.36,9.56-18.78,10.08-4.87-3.36-8.31-8.29-11.11-13.41-4.43-9.7.16-16.71,5.77-16.71M340.04,2.74c-4.4,0-8.52,2.31-11.01,6.19-3.31,5.14-3.39,12.07-.22,19.02l.09.2.11.19c2.47,4.5,6.49,11.01,12.97,15.47l1.8,1.24,2.18-.21c6.56-.63,18.17-6.24,22.88-12.29,5.1-6.13,4.68-11.56,3.97-14.26-1.12-4.28-4.3-7.69-8.73-9.35l-.3-.11-.31-.08c-1.31-.34-2.65-.51-3.99-.51-2.4,0-4.77.53-7.13,1.59-3.17-4.53-7.49-7.09-12.3-7.09h0Z"/>
      </g>
      <g>
        <path class="cls-1" d="M368.76,128.14c-6.39-3.37-10.86-8.98-13.67-12.91l-.06-.09-.06-.09c-3.56-5.85-4.16-12.07-1.59-16.64,1.85-3.29,5.1-5.25,8.71-5.25,4.09,0,7.95,2.42,10.93,6.75,3.04-2.43,6.13-3.62,9.38-3.62.58,0,1.16.04,1.74.12l.16.02.16.04c3.64.89,6.45,3.24,7.7,6.43,1.4,3.56.69,7.8-2,11.94-3.46,5.8-13.51,12.31-19.35,13.58l-1.07.23-.97-.51Z"/>
        <path d="M362.09,96.16c3.39,0,7.31,2.48,10.22,8.51,2.74-2.95,6.07-5.39,10.09-5.39.44,0,.89.03,1.34.09,5.19,1.27,8.61,6.64,3.87,13.88-2.84,4.83-12.13,11.08-17.45,12.24-5.23-2.76-9.23-7.25-12.62-12-5.81-9.54-1.45-17.33,4.56-17.33M362.09,90.16c-4.71,0-8.94,2.53-11.32,6.78-3.11,5.53-2.49,12.88,1.64,19.67l.11.19.13.18c2.98,4.18,7.75,10.16,14.71,13.82l1.94,1.02,2.14-.47c6.44-1.4,17.3-8.35,21.26-14.92,4.33-6.69,3.27-12.03,2.25-14.63-1.62-4.11-5.18-7.12-9.78-8.25l-.31-.08-.32-.04c-.71-.09-1.43-.14-2.14-.14-3.06,0-5.96.84-8.77,2.54-3.27-3.66-7.26-5.66-11.53-5.66h0Z"/>
      </g>
      <g>
        <path class="cls-1" d="M186.27,261.15c-32.2-11.57-56.85-34.25-72.59-50.31l-.09-.09-.08-.1c-18.92-22.39-24.91-47.17-16.03-66.3,6.51-14.03,20.41-22.74,36.26-22.74,11.14,0,32.49,4.32,53.26,32.44,16.65-19.06,34.34-28.34,53.96-28.34.44,0,.88,0,1.33.01h.17s.17.02.17.02c16.02,1.93,28.73,9.95,34.86,21.99,4.55,8.95,7.45,24.16-4.62,45.81-12.61,25.42-58.2,59.65-84.4,67.66l-1.11.34-1.09-.39Z"/>
        <path d="M133.74,125.1c16.56,0,36.13,10.01,53.03,34.64,13.49-16.5,30.85-30.55,54.2-30.55.42,0,.84,0,1.26.01,27.26,3.29,47.76,26.53,27.56,62.69-11.83,23.96-55.8,57.83-82.33,65.95-28.3-10.17-51.26-29.05-71.28-49.47-36.56-43.27-15.53-83.29,17.56-83.29M133.74,118.1c-17.23,0-32.34,9.49-39.43,24.77-4.48,9.64-5.53,20.92-3.05,32.61,2.68,12.63,9.27,25.22,19.58,37.43l.17.2.18.19c15.98,16.3,41.03,39.34,73.91,51.15l2.19.79,2.23-.68c27.06-8.28,73.11-42.57,86.47-69.38,12.77-22.96,9.57-39.33,4.64-49.02-6.67-13.1-20.36-21.81-37.56-23.88l-.34-.04h-.34c-.47-.02-.94-.02-1.41-.02-19.56,0-37.21,8.65-53.75,26.38-7.18-9.03-15.04-16.2-23.42-21.35-9.7-5.97-20.09-9.12-30.05-9.12h0Z"/>
      </g>
      <path class="cls-4" d="M255.12,201.1c3.44-.29,5.85.08,8.76,2.15,7.77,5.53,4.43,16.82-.4,23.11-2.94,3.82-6.65,6.7-11.5,7.35-15.36.15-16.19-15.83-8.61-25.54,3.38-4.32,6.29-6.42,11.74-7.08Z"/>
      <path class="cls-4" d="M116.42,201.05c4-.25,6.37.04,9.91,2.11,10.6,6.21,15.15,26.82-.36,30.25-5.66.44-8.06-.71-12.26-4.41-8.64-7.63-12.07-25.29,2.71-27.94Z"/>
      <path class="cls-2" d="M142.52,144.48c-4.94-14.42-25.55-6.92-29.94,3.14-4.39,10.06-7.46,19.92,4.16,23.52,8.87,2.16,8.3-8.96,12.95-13.77s15.04-6.03,12.84-12.89Z"/>
    </g>
  </g>
</svg>