<?xml version="1.0" encoding="UTF-8"?>
<svg id="Layer_1" xmlns="http://www.w3.org/2000/svg" version="1.1" viewBox="0 0 1921 819">
  <!-- Generator: Adobe Illustrator 30.3.0, SVG Export Plug-In . SVG Version: 2.1.3 Build 182)  -->
  <defs>
    <style>
      .st0 {
        fill: #fff;
      }

      .st1 {
        fill: #f16c8b;
      }

      .st2 {
        fill: #fea8b8;
      }

      .st3 {
        fill: #f47591;
      }

      .st4 {
        fill: #f16b89;
      }

      .st5 {
        fill: #e95c7f;
      }
    </style>
  </defs>
  <path class="st5" d="M1634.32,223.42c-8.87-11.09-21.67-20.24-36.12-21.79-2.26-.22-4.53-.39-6.8-.49-40.46,3.72-54.43,33.47-47,70.22,2.23,11.05,3.55,22.85,5.79,34.02-15.42-36.4-37.5-67.63-75.83-82.42-74.53-28.74-152.28,13.22-179.25,86.37-31.55,85.5-32.05,233.34,67.86,272.98,4.06,1.63,8.19,3.08,12.38,4.35,71.07,17.8,127.63-2.39,163.01-67.64-3.57,27.63-19.32,58.66.34,84.08,8.54,11.04,22.45,16.92,36.03,18.54,15.2,1.83,31.14-1.35,43.32-10.96,28.69-22.65,41.84-104.18,45.79-139.27,6.9-61.38,9.46-199.28-29.52-247.99ZM1443.16,466.51c-11.66,13.63-33.21,21.28-47.27,6.87-18.31-28.38-12.51-95.83,3.63-124.55,15.05-26.8,51.55-33.33,57.92,3.43,5.99,34.57,4.84,84.44-14.28,114.25Z"/>
  <path class="st2" d="M1512.2,259.27c-2.45-3.37-5.79-7.82-9.06-10.18-21.75-21.68-46.11-30.93-76.94-30.81-34.97.02-68.47,14.05-93.03,38.95-40.12,40.74-52.43,106.32-51.72,161.58.46,35.74,5.06,66.7,25.54,97.18.73,2.49,4.11,6.53,5.74,8.62,29.11,37.46,75.76,51.76,122,44.9,68.86-10.18,101.52-79.2,107.99-142.06,5.66-55.05,3.3-121.57-30.52-168.18ZM1399.52,348.83c15.05-26.8,51.55-33.33,57.92,3.43,5.99,34.57,4.84,84.44-14.28,114.25-11.66,13.63-33.21,21.28-47.27,6.87-18.31-28.38-12.51-95.83,3.63-124.55Z"/>
  <path class="st0" d="M1306.99,515.99c-20.48-30.49-25.08-61.44-25.54-97.18-.71-55.26,11.6-120.85,51.72-161.58,24.56-24.9,58.06-38.92,93.03-38.94,30.83-.13,55.19,9.13,76.94,30.8-.13,0-.25,0-.37,0-46.52-31.06-102.49-33.1-150.83,4.71-62.99,49.29-73.95,165.21-53.13,238.44,1.41,5.3,8.47,20.63,8.18,23.76Z"/>
  <path class="st5" d="M1464.26,338.38c-1.88-4.66-6.95-12.51-11.61-14.31-3.9-4.63-7.5-10.07-13.24-12.44-50.44-20.85-71.83,44.71-73.11,82.53-.9,26.76-2.39,61.61,18.79,80.76,1.16,1.05,3.75,2.85,4.56,3.92l-.27.55c1.65,4.46,11.17,8.82,15.6,10.7,7.67,3.33,23.25,2.28,30.76-1.18,29.2-13.41,34.81-55.27,36.59-83.69,1.4-22.17.15-46.3-8.07-66.84ZM1399.52,348.83c15.05-26.8,51.55-33.33,57.92,3.43,5.99,34.57,4.84,84.44-14.28,114.25-11.66,13.63-33.21,21.28-47.27,6.87-18.31-28.38-12.51-95.83,3.63-124.55Z"/>
  <path class="st0" d="M1472.33,405.22c-1.78,28.42-7.39,70.28-36.59,83.69-7.51,3.46-23.09,4.51-30.76,1.18-4.43-1.88-13.95-6.24-15.6-10.7l.27-.55.71-.12c1.32-1.52,3.95-3.86,5.53-5.34,14.06,14.41,35.61,6.76,47.27-6.87l2.64,3.34c24.09-32.53,24.82-109.95,6.85-145.78,4.66,1.8,9.73,9.65,11.61,14.31,8.22,20.54,9.47,44.67,8.07,66.84Z"/>
  <path class="st3" d="M1445.8,469.85c-14.94,16.23-36.15,20.27-55.44,8.87,1.32-1.52,3.95-3.86,5.53-5.34,14.06,14.41,35.61,6.76,47.27-6.87l2.64,3.34Z"/>
  <path class="st2" d="M1548.15,592.52c-.57-.4-1.13-.8-1.67-1.22-21.69-16.5-8.7-48.01-3.46-70.45,4.01-16.47,7.42-33.07,10.23-49.79,7.95-49.79,9.08-100.44,3.36-150.54-2.33-19.28-6.51-38.69-9.18-57.98-2.02-14.57-.49-28.16,8.82-40.15,7.34-9.32,18.07-15.34,29.84-16.76,12.48-1.54,21.57,1.74,31.21,9.32,14.4,4.68,23.52,62.91,25.5,78.25,11.16,86.44,9.17,176.46-17.17,260.1-10.47,33.27-29.92,56.01-67,44.72-2.3-.7-9.15-3.76-10.48-5.51Z"/>
  <path class="st0" d="M1548.15,592.52c-.57-.4-1.13-.8-1.67-1.22-21.69-16.5-8.7-48.01-3.46-70.45,4.01-16.47,7.42-33.07,10.23-49.79,7.95-49.79,9.08-100.44,3.36-150.54-2.33-19.28-6.51-38.69-9.18-57.98-2.02-14.57-.49-28.16,8.82-40.15,7.34-9.32,18.07-15.34,29.84-16.76,12.48-1.54,21.57,1.74,31.21,9.32l3.31,4.3-.16,1.11c-3.1-1.41-10.31-5.8-12.91-6.43-29.65-7.25-53.62,15.8-52.34,45.36.76,14.74,4.33,29.55,6.36,44.24,3.69,25.98,5.73,52.16,6.14,78.4.45,34.69-2.42,69.35-8.57,103.49-2.39,13.28-5.12,26.5-8.17,39.65-3.73,16.03-8.52,31.84-8.93,48.36-.18,7.69,5.41,13.77,6.12,19.09Z"/>
  <path class="st5" d="M1202.27,487.47c-40.33-39.9-95.27-47.54-149.2-48.72,52.11-31.77,66.54-88.29,37.41-141.72,40.24-12.04,47.87-56.29,20.1-84.79-20.99-20.19-47.96-18.14-74.73-18.22-2.22-.01-3.88.31-5.86-.76l-.74-3.45c-4.02-49.31-71.27-67.7-102.59-31.28-9.14,10.63-11.03,21.82-12.25,35.33-11.03.06-24.44.9-35.17.3-43.66-2.45-81.16,35.28-59.34,79.04,7,12.77,17.09,20.65,31.59,23.16-14.14,25.28-18.36,52.91-10.4,81.03.53,1.87,1.08,3.74,1.65,5.6,21.59,53.32,65.06,67.55,118.31,72.9-37.84,16.59-73.26,41.11-74.56,86.73-2.58,90.81,94.05,110.58,165.45,112.69,69.94,2.06,172.79-10.51,177.02-100,1.28-25.61-8.91-49.58-26.69-67.84ZM1012.67,331.64c-1.38,10.14-6.72,19.31-14.87,25.5-15.25,11.56-38.41,12.04-53.9.68-5.87-6.41-9.24-12.54-10.03-21.35-.85-10.38,2.5-20.68,9.29-28.59,16.36-19.32,43.05-19.26,61.76-3.23,6.37,8.4,9.21,16.23,7.75,26.99ZM1004.77,553.61c-.43-1.19-.82-2.4-1.18-3.61-3.87-13.73,13.71-23.19,24.78-25.73,25.34-5.82,59.61-6.72,82.77,6.53,6.67,6.62,8.32,13.68.85,21.1-18.79,18.63-89.74,18.94-107.22,1.71Z"/>
  <path class="st2" d="M1103.92,215.04c2.36-.81,4.39-1.77,6.66-2.8-20.99-20.19-47.96-18.14-74.73-18.22-2.22-.01-3.88.31-5.86-.76l-.74-3.45c-4.02-49.31-71.27-67.7-102.59-31.28-9.14,10.63-11.03,21.82-12.25,35.33-11.03.06-24.44.9-35.17.3-43.66-2.45-81.16,35.28-59.34,79.04,7,12.77,17.09,20.65,31.59,23.16-14.14,25.28-18.36,52.91-10.4,81.03.53,1.87,1.08,3.74,1.65,5.6l6.02-5.81c4.53,7.97,8.07,13.87,14.6,20.42.21.4.79,1.38,1.07,1.68,20.04,20.73,48.5,31.5,76.08,35.12,37.95,4.97,83.59.77,114.42-22.94,19.1-14.62,31.49-36.35,34.36-60.24,3.71-28.79-4.05-48.89-21.15-71.14,3.63-.31,8.15-.44,11.64-1.19,34.41-7.44,38.73-37.81,24.14-63.85ZM943.16,307.88c16.36-19.32,43.05-19.26,61.76-3.23,6.37,8.4,9.21,16.23,7.75,26.99-1.38,10.14-6.72,19.31-14.87,25.5-15.25,11.56-38.41,12.04-53.9.68-5.87-6.41-9.24-12.54-10.03-21.35-.85-10.38,2.5-20.68,9.29-28.59Z"/>
  <path class="st0" d="M914.41,193.86c1.22-13.51,3.11-24.71,12.25-35.33,31.32-36.42,98.57-18.03,102.59,31.28-1.01,3.73-1.49,4.73-3.3,8.16l-4.55.5c-11.76-1.25-2.44-27.36-16.05-39.38-2.21-.11-9.64-3.52-12.11-4.54-15.92-6.65-35.16-4.36-48.78,6.23-11.18,8.53-16.04,22.85-17.8,36.18-1.24,9.38-13.48,9.62-21.18,8.61-39.99-5.24-96.91,12.59-71.55,65.69l-1.32-.35c-3.49-.25-9.78.36-12.72,2.27-21.82-43.76,15.69-81.49,59.35-79.04,10.73.6,24.14-.24,35.17-.3Z"/>
  <path class="st1" d="M914.41,193.86c1.22-13.51,3.11-24.71,12.25-35.33,31.32-36.42,98.57-18.03,102.59,31.28-1.01,3.73-1.49,4.73-3.3,8.16l-4.55.5c-11.76-1.25-2.44-27.36-16.05-39.38-4.39-4.88-7.35-7.87-13.39-10.67-28.63-13.3-67.14,1.77-71.66,35.03-.66,4.87-1.05,9.6-1.43,14.46-35.22.44-101.3-4.57-99.76,48.71.23,7.96,3.66,15.5,9.51,20.9,1.29,1.18,2.62,2.31,3.99,3.4-3.49-.25-9.78.36-12.72,2.27-21.82-43.76,15.69-81.49,59.35-79.04,10.73.6,24.14-.24,35.17-.3Z"/>
  <path class="st0" d="M866.48,284.21c3.91,1.5,3.66.7,5.61,3.63-2.22,5.15-8.73,13.96-11.7,19.62-16.98,32.35-11.96,59.1,2.97,90.15-6.52-6.55-10.06-12.45-14.6-20.42l-6.01,5.81c-.57-1.86-1.12-3.73-1.65-5.6-7.96-28.12-3.74-55.75,10.4-81.03l4.35.73c3.61-5.03,6.02-8.73,10.63-12.88Z"/>
  <path class="st3" d="M851.49,296.36l4.35.73c-14.68,26.47-18.92,51.64-7.09,80.09l-6.01,5.81c-.57-1.86-1.12-3.73-1.65-5.6-7.96-28.12-3.74-55.75,10.4-81.03Z"/>
  <path class="st0" d="M1029.25,189.81l.74,3.45c1.98,1.07,3.64.75,5.86.76,26.77.09,53.74-1.97,74.73,18.23-2.27,1.03-4.3,1.98-6.66,2.79l-.66-.07c-2.06.47-16.91-6.25-21.33-7.6-10.48-3.21-52.52-.68-58.12-3.74-2.37-2.86-1.73-1.62-2.41-5.15l4.55-.5c1.81-3.44,2.29-4.43,3.3-8.16Z"/>
  <path class="st3" d="M1029.25,189.81l.74,3.45c1.98,1.07,3.64.75,5.86.76,26.77.09,53.74-1.97,74.73,18.23-2.27,1.03-4.3,1.98-6.66,2.79l-.66-.07c-15.75-20.04-54.31-17-77.31-16.99,1.81-3.44,2.29-4.43,3.3-8.16Z"/>
  <path class="st5" d="M819.9,273.19c2.94-1.91,9.23-2.52,12.72-2.27l1.32.35c8.82,9.53,32.33,4.28,32.54,12.93-4.61,4.15-7.03,7.85-10.63,12.88l-4.35-.73c-14.5-2.52-24.59-10.39-31.59-23.17Z"/>
  <path class="st0" d="M1020.74,310.31c-1.76-4.8-6.23-12.43-10.94-14.4l-.3-.3c-12.9-12.93-17.34-21.08-40.15-21.16-13.67-.07-26.8,5.3-36.51,14.92-9.76,9.7-15.23,22.9-15.2,36.66.09,11.86,3.68,22.12,12.61,29.92.63.54,5.4,4.8,5.44,4.87,1.21,4.18,10.41,10.29,14.48,11.88,42.53,16.62,87.51-15.94,70.57-62.39ZM933.87,336.47c-.85-10.38,2.5-20.68,9.29-28.59,16.36-19.32,43.05-19.26,61.76-3.23,6.37,8.4,9.21,16.23,7.75,26.99-1.38,10.14-6.72,19.31-14.87,25.5-15.25,11.56-38.41,12.04-53.9.68-5.87-6.41-9.24-12.54-10.03-21.35Z"/>
  <path class="st5" d="M1011.86,300.47c-1.57,2.24-4.35,3.06-6.94,4.18-18.71-16.03-45.4-16.09-61.76,3.23-6.79,7.91-10.14,18.21-9.29,28.59.79,8.81,4.16,14.94,10.03,21.35-1.38,1.4-3.32,3.49-4.75,4.71l-3.46-1.71c-.04-.07-4.81-4.33-5.44-4.87-8.93-7.8-12.52-18.06-12.61-29.92-.03-13.76,5.44-26.96,15.2-36.66,9.71-9.62,22.84-14.99,36.51-14.92,22.81.08,27.25,8.23,40.15,21.16l.3.3,2.06,4.56Z"/>
  <path class="st0" d="M950.17,372.7c-4.07-1.59-13.27-7.7-14.48-11.88l3.46,1.71c1.43-1.22,3.37-3.31,4.75-4.71,15.49,11.36,38.65,10.88,53.9-.68,8.15-6.19,13.49-15.36,14.87-25.5,1.46-10.76-1.38-18.59-7.75-26.99,2.59-1.12,5.37-1.94,6.94-4.18l-2.06-4.56c4.71,1.97,9.18,9.6,10.94,14.4,16.94,46.45-28.04,79.01-70.57,62.39Z"/>
  <path class="st3" d="M1013.9,342.41c-4.47,10.85-13.1,19.46-23.98,23.88-15.51,6.45-36.26,4.44-50.77-3.76,1.43-1.22,3.37-3.31,4.75-4.71,15.49,11.36,38.65,10.88,53.9-.68,8.15-6.19,13.49-15.36,14.87-25.5,1.46-10.76-1.38-18.59-7.75-26.99,2.59-1.12,5.37-1.94,6.94-4.18,5.82,13.63,7.77,27.85,2.04,41.94Z"/>
  <path class="st2" d="M1209.64,519.86c-1.65-8.18-11.01-28.78-18.75-33.4-21.42-21.16-38.44-27.22-67-35.55-68.99-20.12-234.48-1.59-233.33,94.48.36,16.8,7.35,32.78,19.44,44.44.44.43.89.85,1.33,1.26,1.15,3.78,16.21,13.89,20.67,16.48,75.05,43.54,305.03,48.51,277.64-87.71ZM1111.99,551.9c-18.79,18.63-89.74,18.94-107.22,1.71-.43-1.19-.82-2.4-1.18-3.61-3.87-13.73,13.71-23.19,24.78-25.73,25.34-5.82,59.61-6.72,82.77,6.53,6.67,6.62,8.32,13.68.85,21.1Z"/>
  <path class="st0" d="M911.33,591.08c-.45-.41-.89-.83-1.33-1.25-12.09-11.67-19.08-27.64-19.44-44.45-1.16-96.07,164.34-114.6,233.33-94.48,28.56,8.33,45.58,14.39,67,35.55-2.06-.07-26.56-15.91-32.84-18.36-68.6-26.73-153.42-23.87-217.57,13.59-34.33,20.24-51.87,61.34-34.04,98.06,1.49,3.22,4.04,8.04,4.89,11.33Z"/>
  <path class="st0" d="M1128.4,541.3c-.23-7.33-2.49-12.86-8.05-17.84l-1.51.09c-15.93-18.4-20.77-18.56-50.39-22.51-25-3.34-101.04,4.53-78.22,50.41,1.25,2.49,9.32,6.96,10.48,9.05.27,1.43-.02,1.4,1.04,2.32,16,12.71,41.46,14.49,61.31,14.48,22.02-.02,66.3-5.57,65.34-36ZM1028.37,524.27c25.34-5.82,59.61-6.72,82.77,6.53,6.67,6.62,8.32,13.68.85,21.1-18.79,18.63-89.74,18.94-107.22,1.71-.43-1.19-.82-2.4-1.18-3.61-3.87-13.73,13.71-23.19,24.78-25.73Z"/>
  <path class="st5" d="M1120.65,528.87c-3.56.51-6.04.8-9.51,1.93-23.16-13.25-57.43-12.35-82.77-6.53-11.07,2.54-28.65,12-24.78,25.73.36,1.21.75,2.42,1.18,3.61.2,1.65.37,2.83.71,4.46-1.11.67-2.47,1.55-3.61,2.08l-1.16.35c-1.16-2.09-9.23-6.56-10.48-9.05-22.82-45.88,53.22-53.75,78.22-50.41,29.62,3.95,34.46,4.11,50.39,22.51l1.81,5.32Z"/>
  <path class="st0" d="M1063.06,577.3c-19.85.01-45.31-1.77-61.31-14.48-1.06-.92-.77-.89-1.04-2.32l1.16-.35c1.14-.53,2.5-1.41,3.61-2.08-.34-1.63-.51-2.81-.71-4.46,17.48,17.23,88.43,16.92,107.22-1.71,7.47-7.42,5.82-14.48-.85-21.1,3.47-1.13,5.95-1.42,9.51-1.93l-1.81-5.32,1.51-.09c5.56,4.98,7.82,10.51,8.05,17.84.96,30.43-43.32,35.98-65.34,36Z"/>
  <path class="st3" d="M1079.02,568.88c-21.32,2.98-57.84,1.23-77.15-8.73,1.14-.53,2.5-1.41,3.61-2.08-.34-1.63-.51-2.81-.71-4.46,17.48,17.23,88.43,16.92,107.22-1.71,7.47-7.42,5.82-14.48-.85-21.1,3.47-1.13,5.95-1.42,9.51-1.93,4.11,28.94-17.73,36.68-41.63,40.01Z"/>
  <path class="st5" d="M569.63,362.76c-.18-18.02-.58-36.03-1.21-54.04-1.17-33.63-.94-66.03-26.83-91.57-26.99-26.62-75.42-25.35-111.3-24.65-3.04.06-6.09.13-9.13.23-37.83,2.11-81.56,5.97-108.25,36.31-23.34,26.53-31.2,68.46-33.79,103.15-4.11,55.08-3.25,112.5-1.29,167.74,1.09,30.97,12.31,70.88,35.97,91.92,30.28,26.45,75.08,25.72,113.07,25.88,122.95-1.21,137.22-16.89,141.63-139.84,1.34-38.36,1.72-76.75,1.13-115.13ZM452.96,495.21c-4.84,5.1-12.6,4.92-19.1,5.22-6.16.16-14.29.72-19.97-1.89-3.15-1.44-4.55-4.23-5.67-7.36-7.54-21.11-4.55-123.15-1.52-148.77.96-8.14,2.39-17.65,6.08-25.06,3.7-7.43,10.65-10.77,18.14-13.21l.62-.05c7.19-.54,17.98-1.57,23.73,3.64,4.72,4.28,4.53,18.81,4.84,24.93,1.09,22.09,3.51,151.36-7.15,162.55Z"/>
  <path class="st2" d="M553.51,366.52c0-36.75.7-77.01-3.95-113.43-1.13-8.8-8.77-28.53-16.12-33.74-21.4-21.95-53.64-22.35-82.9-22.69-41.41-.49-99.19,1.21-130.38,31.7-38.52,37.66-38.12,121.23-39.01,171.93-.44,24.72-.55,89.51,4.12,111.92,2.92,13.39,7.76,26.29,14.35,38.31,1.85,6.87,15.08,21.13,21.76,25.69,9.2,6.27,20.47,12.03,31.72,14.27,40.51,8.09,91.48,6.6,132.56,1.98,16.3-2.18,38.46-9.65,47.92-24.19,18.55-28.54,18.08-75.78,18.94-108.68.95-31.01,1.28-62.04.99-93.07ZM406.7,342.41c.96-8.14,2.39-17.65,6.08-25.06,3.7-7.43,10.65-10.77,18.14-13.21l.62-.05c7.19-.54,17.98-1.57,23.73,3.64,4.72,4.28,4.53,18.81,4.84,24.93,1.09,22.09,3.51,151.36-7.15,162.55-4.84,5.1-12.6,4.92-19.1,5.22-6.16.16-14.29.72-19.97-1.89-3.15-1.44-4.55-4.23-5.67-7.36-7.54-21.11-4.55-123.15-1.52-148.77Z"/>
  <path class="st0" d="M299.62,550.51c-6.59-12.02-11.43-24.92-14.35-38.31-4.67-22.41-4.55-87.19-4.12-111.92.89-50.7.49-134.26,39.01-171.93,31.19-30.49,88.97-32.19,130.38-31.7,29.25.34,61.5.75,82.9,22.7-8.14-.9-20.36-10.12-33.26-11.65-40.51-4.79-93.01-6.31-132.25,5.25-10.75,3.06-20.9,7.92-30.02,14.38-27.05,19.48-38.29,54.52-42.78,86.62-8.68,62.02-6.44,129.04-4.02,191.57.33,8.43,2.22,16.08,3.75,24.09.7,3.66,4.87,18.78,4.76,20.91Z"/>
  <path class="st5" d="M468.32,307.08c-2.03-4.72-4.91-9.31-9.84-11.3-6.08-7.28-12.99-11.71-22.59-12.36-30.69-2.07-45.08,17.96-47.21,47.84-3.49,49.32-6.94,105.3,1.93,154.26,1.09,6,7.84,12.13,12.88,15.05-.23.46-.5.67-.32,1.18,1.1,3.02,5.25,5.12,8.03,6.28,12.56,5.26,31.55,5.95,44.17.72.37-.16.74-.32,1.11-.49.11-.05.22-.1.33-.16.27-.13.55-.27.82-.41.67-.34,1.33-.72,1.96-1.14.1-.06.21-.13.3-.2.23-.14.45-.3.66-.45.2-.14.39-.29.58-.44.59-.45,1.15-.93,1.69-1.45.24-.23.47-.46.69-.7.18-.19.35-.38.51-.58.17-.19.32-.38.47-.57.16-.2.31-.4.45-.6.16-.23.32-.46.47-.69.5-.79.93-1.62,1.29-2.5,8.18-20.18,10.37-170.83,1.62-191.29ZM406.7,342.41c.96-8.14,2.39-17.65,6.08-25.06,3.7-7.43,10.65-10.77,18.14-13.21l.62-.05c7.19-.54,17.98-1.57,23.73,3.64,4.72,4.28,4.53,18.81,4.84,24.93,1.09,22.09,3.51,151.36-7.15,162.55-4.84,5.1-12.6,4.92-19.1,5.22-6.16.16-14.29.72-19.97-1.89-3.15-1.44-4.55-4.23-5.67-7.36-7.54-21.11-4.55-123.15-1.52-148.77Z"/>
  <path class="st0" d="M458.48,295.78c4.93,1.99,7.81,6.57,9.83,11.3,8.76,20.46,6.57,171.11-1.61,191.29-2.01,4.97-6.49,8.38-11.34,10.39-12.62,5.23-31.61,4.54-44.17-.72-2.77-1.16-6.92-3.26-8.02-6.28-.19-.51.09-.72.32-1.18,15.18,5.77,38.61,6.43,52.85-2.12,1.23-1.94,2.53-3.97,3.42-6.1,8.49-20.22,6.53-150.36,3.66-176.51-.79-7.22-2.05-13.38-4.95-20.06Z"/>
  <path class="st2" d="M691.33,325.52l-.03-65.79c-.05-17.06-1.49-37.91,3.41-54.1,9.69-32,54.68-39.78,79.65-21.57,6.39,4.66,9.74,8.61,14.63,14.85,4.3,8.2,8.22,16.03,9.12,25.36,2.29,23.56,2.3,48.03,2.66,71.73.47,45.2.62,90.41.46,135.61l-.26,97.78c-.2,19.73.72,47.83-3.75,66.28-10.19,41.99-80.95,45.32-99.98,7.75-.41-.81-.78-1.63-1.13-2.47l-2.33-7.21c-3.72-14.99-2.55-46.08-2.54-62.99l.07-96.09-12.09.05.02,94.16c0,20.97.58,39.97-2.16,60.89-5.96,45.48-76.19,50.54-95.16,13.25-1.47-3.45-2.6-7.39-3.73-11-.67-3.26-1.11-6.56-1.32-9.88-1.25-21.64-.35-51.93-.33-74.02l.19-137.73.26-95.51c.07-19.64-.47-38.85,1.62-58.4,4.21-39.5,54.33-54.8,82.71-29.17-2.36,2.2-3.11,2.25-6.26,3.04l2.05,3.4c2.43,2.11,1.15,2.72,2.45,4.39,4.38-.29,5.41-.45,9.55-1.9,12.45,21.41,10.21,41.59,10.21,65.47l-.05,63.68,12.06.11Z"/>
  <path class="st5" d="M788.98,198.91c4.3,8.2,8.22,16.03,9.12,25.36,2.29,23.56,2.3,48.03,2.66,71.73.47,45.2.62,90.41.46,135.61l-.26,97.78c-.2,19.73.72,47.83-3.75,66.28-10.19,41.99-80.95,45.32-99.98,7.75-.41-.81-.78-1.63-1.13-2.47l-2.33-7.21c2.95-.21,5.66-1.75,7.68-3.88l6.08,7.04,3.98,3c14.1,15.13,63.57,9.98,68.48-16.29,5.15-27.54,4.04-56.49,4.28-84.62l.58-92.72.13-112.61c-.02-21.17,1.83-76.56-6.11-93.56,4.65.16,5.64.1,10.09-1.19Z"/>
  <path class="st3" d="M701.46,589.87l6.08,7.04c-4.24,1.72-6.97,2.79-11.44,4.04l-2.33-7.21c2.95-.21,5.66-1.75,7.68-3.88Z"/>
  <path class="st5" d="M595.93,599.17c2.41,2.98,8.61,4.93,12.32,5.93,11.58,3.1,25.69,2.17,36.12-3.9,6.22-3.61,11.13-8.58,13.75-15.36,8.66-22.44,5.99-108.12,5.94-136.94-.01-8.14-1.74-19.44.48-27.17.63-2.17,2.11-3.61,4.1-4.57,3.91-1.9,19.9-1.47,24.12.27,2.34,2.1,2.58,2.4,3.45,5.42-1.3,45.2.3,91-.3,136.26-.14,10.58.58,21.26,5.54,30.77-2.02,2.12-4.73,3.67-7.68,3.88-3.72-14.99-2.55-46.08-2.54-62.99l.07-96.09-12.09.05.02,94.16c0,20.97.58,39.97-2.16,60.89-5.96,45.48-76.19,50.54-95.16,13.25-1.47-3.45-2.6-7.39-3.73-11,3.67,1.18,3.51,1.36,6.66.3l.99-2.11c2.95,3.05,6.03,6.39,9.25,9.11l.83-.16Z"/>
  <path class="st3" d="M585.85,590.22c2.95,3.05,6.03,6.39,9.25,9.11-4.89,1.75-8.13,2.53-13.17,3.7-1.47-3.45-2.6-7.39-3.73-11,3.67,1.18,3.51,1.36,6.66.3l.99-2.11Z"/>
  <path class="st0" d="M578.19,592.02c-.67-3.26-1.11-6.56-1.32-9.88-1.25-21.64-.35-51.93-.33-74.02l.19-137.73.26-95.51c.07-19.64-.47-38.85,1.62-58.4,4.21-39.5,54.33-54.8,82.71-29.17-2.36,2.2-3.11,2.25-6.26,3.04l2.05,3.4-.53-.21c-2.91-1.17-5.8-2.91-8.36-4.23-18.36-9.48-47.88,1.39-54.12,21.72-7.5,24.42-5.26,69.49-5.28,95.29l-.05,106.5-.06,101.94c-.01,22.03-2.16,54.41,3.76,75.87.46,1.65,3.65,7.16,3.44,8.53l-.83.16c-3.22-2.72-6.3-6.06-9.25-9.11l-.99,2.11c-3.15,1.05-2.99.88-6.66-.3Z"/>
  <path class="st4" d="M578.19,592.02c-.67-3.26-1.11-6.56-1.32-9.88-1.25-21.64-.35-51.93-.33-74.02l.19-137.73.26-95.51c.07-19.64-.47-38.85,1.62-58.4,4.21-39.5,54.33-54.8,82.71-29.17-2.36,2.2-3.11,2.25-6.26,3.04-25.21-24.81-68.18-7.56-71.92,26.66-1.88,17.2-1.61,33.31-1.64,50.57l-.08,73.34c-.07,75.64-.11,151.36-.18,227.02,0,9.01.76,14.24,4.59,22.28l-.99,2.11c-3.15,1.05-2.99.88-6.66-.3Z"/>
  <path class="st0" d="M691.33,325.52l-.03-65.79c-.05-17.06-1.49-37.91,3.41-54.1,9.69-32,54.68-39.78,79.65-21.57,6.39,4.66,9.74,8.61,14.63,14.85-4.46,1.3-5.44,1.36-10.09,1.19-.77-2.19-.84-3.01-2.62-4.5-3.17-1.36-5.75-3.38-8.86-4.96-11.41-5.78-25.57-6.4-37.65-1.82-9.43,3.59-17.01,10.83-21.06,20.07-11.79,26.29-1.35,92.11-5.83,122.54-1.33,9.02-29.09,6.74-31.48.07,4.72-2.04,16.6-.69,21.66-1.88-3.22-.46-10.39-.37-13.94-.41l.16-3.81,12.06.11Z"/>
  <path class="st3" d="M691.33,325.52l-.03-65.79c-.05-17.06-1.49-37.91,3.41-54.1,9.69-32,54.68-39.78,79.65-21.57,6.39,4.66,9.74,8.61,14.63,14.85-4.46,1.3-5.44,1.36-10.09,1.19-.77-2.19-.84-3.01-2.62-4.5-20.36-30.39-74.44-18.15-79.03,18.51-1.63,12.99-1.4,23.93-1.34,36.95l.26,49.27c.05,7.17,1.91,24.67-3.11,29.3-3.22-.46-10.39-.37-13.94-.41l.16-3.81,12.06.11Z"/>
  <path class="st5" d="M669.12,196.25c12.45,21.41,10.21,41.59,10.21,65.47l-.05,63.68-.16,3.81c-4.98.3-13.09,2.23-14.46-4.43-1.59-7.73.11-16.95-.5-24.51-2.21-27.06,5.68-78.17-4.58-102.13,4.38-.29,5.41-.45,9.55-1.9Z"/>
  <path class="st0" d="M696.23,422.83c3.31.67,3.76.77,6.06,3.21,5.42,10.44-2.8,136.11,2.77,156.12,1.67,6,4.91,12.39,6.47,17.76l-3.98-3-6.08-7.04c-4.96-9.51-5.68-20.2-5.54-30.77.61-45.26-.99-91.06.3-136.26Z"/>
  <path class="st2" d="M1136.4,424.56c-7.92-26.25-2.93-87.38-3.96-116.95-.92-26.3-.89-64.69,1.97-90.41,5.01-44.92,60.95-58.65,88.43-19.14,5.04,9.27,4.32,12.49,7.6,20.36,12.36-3.41,30.53,8.94,37.64,18.58,13.21,20.33,11.76,48.93-9.54,63.5-8.67,5.93-17.68,5.24-27.6,6.92-.37.63-.7,1.17-.97,1.62-.18,3.3-.24,5.55-.08,8.84,17.11,1,28.18,7.08,38.15,21.26,13.75,26.81,5.99,59.88-27.45,65.98-3.04.55-7.57.45-10.76.51-.18,14.07-2.71,28.73-13.75,38.31-26.89,23.36-67.18,13.56-79.68-19.38Z"/>
  <path class="st0" d="M1136.4,424.56c-7.92-26.25-2.93-87.38-3.96-116.95-.92-26.3-.89-64.69,1.97-90.41,5.01-44.92,60.95-58.65,88.43-19.14-3.11-.02-7.64.11-10.58-.38-1.3-2.88-1.52-3.37-3.63-5.74-3.28-.61-5.49-2.34-8.52-3.23-41.92-12.39-55.48,21.62-55.4,54.72.14,56.54-1.54,108.54.54,164.62.27,8.33,7.42,16.79,8.03,22.15-5.22-3.51-7.68-6.81-11.17-11.79l-5.71,6.16Z"/>
  <path class="st3" d="M1136.4,424.56c-7.92-26.25-2.93-87.38-3.96-116.95-.92-26.3-.89-64.69,1.97-90.41,5.01-44.92,60.95-58.65,88.43-19.14-3.11-.02-7.64.11-10.58-.38-1.3-2.88-1.52-3.37-3.63-5.74-6.3-7.67-12.25-11.86-22.62-12.99-11.48-1.3-23,2.1-31.94,9.41-10.69,8.82-15.77,22.67-16.15,36.16-.87,30.37-2.04,63.92-1.09,94.1.76,24.57-3.74,79.36,5.28,99.78l-5.71,6.16Z"/>
  <path class="st5" d="M1258.35,340.79c3.32.09,6.45-.86,9.69-1.66,13.75,26.81,5.99,59.88-27.45,65.98-3.04.55-7.57.45-10.76.51-.18,14.07-2.71,28.73-13.75,38.31-26.89,23.36-67.18,13.56-79.68-19.38l5.71-6.16c3.49,4.98,5.95,8.27,11.17,11.79.74,1.04,1.35,1.25,2.46,1.85,10.88,6,23.73,7.31,35.6,3.64,23.22-7.12,20.62-25.72,26.04-44.13.9-3.05,16.41-3.78,20.89-5.17,20.95-6.55,26.46-26.32,20.08-45.59Z"/>
  <path class="st5" d="M1259.08,239.11c2.19-.94,6.49-1.63,9-2.12,13.21,20.33,11.76,48.93-9.54,63.5-8.67,5.93-17.68,5.24-27.6,6.92-.37.63-.7,1.17-.97,1.62-.18,3.3-.24,5.55-.08,8.84l-.59,3.96-6.36.22c-3.47-.03-4.86-.86-6.89-3.47-.39-3.96-.28-8.3-.57-12.12-1.39-18.79,4.9-14.46,19.41-17.43,26.35-5.39,32.83-27.55,24.19-49.92Z"/>
  <path class="st5" d="M1212.26,197.67c2.94.48,7.47.36,10.58.38,5.04,9.27,4.32,12.49,7.6,20.36-.93,1.65-1.36,2.9-3.03,3.68l-5.51.58c-7.79-.93-6.7-17.16-9.64-25Z"/>
  <path class="st3" d="M1229.89,317.87c17.11,1,28.18,7.08,38.15,21.26-3.24.8-6.37,1.75-9.69,1.66-1-2.32-1.51-3.26-2.8-5.41-.33-.43-.68-.86-1.03-1.29-7.83-9.67-13.62-11.03-25.22-12.26l.59-3.96Z"/>
  <path class="st3" d="M1230.44,218.41c12.36-3.41,30.53,8.94,37.64,18.58-2.51.49-6.81,1.18-9,2.12-.81-2.12-.83-2.6-2.44-4.08-8.37-11.15-16.19-12.84-29.23-12.93,1.67-.78,2.1-2.03,3.03-3.68Z"/>
  <path class="st0" d="M1227.41,222.09c13.04.1,20.86,1.79,29.23,12.93-3.57-.39-11-5.08-14.9-5.93-5.13-1.11-11.63.38-16.7-1.24-2.08-.66-2.39-3.05-3.14-5.19l5.51-.58Z"/>
  <path class="st0" d="M1229.3,321.83c11.6,1.23,17.39,2.59,25.22,12.26.35.43.7.86,1.03,1.29-3.65.13-8.65-4.69-13.12-5.93-7.06-1.97-16.18,1.97-20.2-4.84l.71-2.55,6.36-.22Z"/>
  <path class="st2" d="M661.33,187.32c3.11,3.19,5.19,5.23,7.79,8.94-4.13,1.44-5.17,1.61-9.55,1.9-1.31-1.67-.02-2.28-2.45-4.39l-2.05-3.4c3.15-.79,3.9-.84,6.26-3.04Z"/>
</svg>