<?xml version="1.0" encoding="UTF-8"?>
<svg id="Layer_2" data-name="Layer 2" xmlns="http://www.w3.org/2000/svg" viewBox="0 0 350.53 363.77">
  <defs>
    <style>
      .cls-1 {
        fill: #f1868e;
      }

      .cls-2 {
        stroke-linejoin: round;
        stroke-width: 7px;
      }

      .cls-2, .cls-3 {
        stroke: #000;
        stroke-linecap: round;
      }

      .cls-2, .cls-4 {
        fill: #fff;
      }

      .cls-3 {
        fill: none;
        stroke-miterlimit: 10;
        stroke-width: 6px;
      }

      .cls-5 {
        fill: #fed871;
      }
    </style>
  </defs>
  <g id="Layer_1-2" data-name="Layer 1">
    <g>
      <g>
        <g>
          <g>
            <path class="cls-4" d="M248.66,360.27c-6.13,0-11.8-1.87-15.16-5.01-.11-.11-.22-.22-.32-.34-3.92-4.8-3.2-10.62-2.56-15.76.33-2.67.64-5.2.3-7.31-.16-.95.09-1.92.67-2.68.58-.76,1.45-1.26,2.4-1.36,2.67-.29,4.56-.56,6.01-1.4,0-.21,0-.43,0-.66-.32-.27-.59-.27-.95-.27-.71,0-1.68.2-2.71.4-.67.14-1.36.27-2.06.38-4.96.84-9.66,1.25-14.31,1.25-3.21,0-6.45-.2-9.65-.6-.04,0-.08-.01-.12-.02-1.52-.24-3.05-.74-4.54-1.22-1.61-.52-3.27-1.06-4.34-1.06-.24,0-.36.03-.38.04,0,0-.11.17-.24.6.19.45.74.88,2.62,1.36,1.14.29,2.05,1.13,2.44,2.24s.19,2.34-.53,3.27c-1.98,2.59-2.62,5.91-3.29,9.41-.69,3.59-1.4,7.3-3.57,10.74-.14.22-.3.43-.49.61-2.54,2.53-5.94,3.87-9.83,3.87-6,0-11.62-3.06-14.88-5.92-9.34-8.31-4.61-15.32-.43-21.51l.63-.94c.46-1.07.95-2.72,1.43-4.32.63-2.12,1.24-4.17,2.01-5.9-16.9-16.3-19.77-35.49-9.07-60.14.41-1.33,1.11-2.54,1.79-3.72.23-.4.55-.95.82-1.48-18.62-.23-43.76-2.86-60.31-19.05-.06-.06-.12-.12-.17-.18-15.58-17.56-24.91-44.08-25.59-72.74-.69-28.95,7.63-55.75,22.84-73.53.06-.07.13-.14.2-.21,32.23-31.95,80.32-37.47,122.86-40.13,3.71-.25,7.43-.37,11.05-.37,26.55,0,49.87,6.72,67.45,19.42,19.5,14.1,31.53,34.76,35.74,61.41,5.45,36.24,2.45,59.72-9.72,76.16-11.92,16.1-32.55,26.03-68.99,33.21-.22.04-.45.07-.68.07-.05,0-.42-.01-.55-.01-.65,0-1.06.07-1.3.13.01.33.19,1.29,1.57,2.6,17.63,15.59,19.56,43.78,12.42,62.41-2.72,7.6-8.84,13-14.23,17.78l-.1.09c.33,4.68-.01,9.38-.35,13.93-.14,1.95-.28,3.8-.37,5.64.26.67.71,1.51,1.16,2.32,1.65,3.05,4.72,8.71-.34,13.54-3.08,3.16-8.28,4.96-14.29,4.96Z"/>
            <path d="M241.23,50.12c49.92,0,91.23,24.07,99.74,77.88,10.33,68.7-9.22,92.25-75.92,105.38-.19,0-.37-.01-.55-.01-4.68,0-4.68,2.62-4.68,2.62,0,0-.97,2.85,2.59,6.19,15.66,13.8,18.77,39.66,11.51,58.58-2.67,7.45-9.05,12.62-14.71,17.67.79,7.09-.31,14.49-.59,21.5,1.07,3.91,6.33,8.71,1.87,12.89-2.58,2.68-7.16,3.95-11.83,3.95-4.92,0-9.93-1.41-12.77-4.07-4.76-5.83-.39-14.5-1.52-21.42,3.36-.37,6.57-.76,9.04-3.09.12-1.4.09-2.32.04-3.71-1.26-1.95-2.75-2.51-4.41-2.51-1.61,0-3.39.53-5.31.83-4.64.78-9.19,1.21-13.77,1.21-3.04,0-6.1-.19-9.21-.58-2.97-.48-6.62-2.32-9.43-2.32-2.03,0-3.62.97-4.2,4.11.41,3.02,2.66,4.09,5.34,4.78-4.67,6.1-3.16,14.25-7.05,20.41-2.03,2.03-4.63,2.85-7.36,2.85-4.53,0-9.4-2.26-12.57-5.05-7.47-6.64-3.73-11.1.96-18.12,1.54-3.32,2.75-10.28,4.81-12.58-19.02-16.95-20.02-35.84-10.22-58.29.83-3.04,4.84-6.69,2.82-9.87-.15,0-.3,0-.45,0-21.05,0-45.13-2.62-60.92-18.07-31.32-35.31-33.67-105.46-2.71-141.67,31.18-30.92,78.75-36.5,120.62-39.12,3.65-.24,7.26-.37,10.83-.37M241.23,43.12v7-7c-3.71,0-7.51.13-11.3.38-20.13,1.26-43.7,3.34-65.65,9.17-25,6.65-44.44,17.1-59.43,31.97-.14.14-.27.28-.39.42-15.76,18.43-24.39,46.09-23.68,75.89.7,29.47,10.35,56.8,26.47,74.97.11.12.22.24.34.36,15.78,15.44,38.62,19.16,57.08,19.9-.08.2-.15.41-.22.61-5.58,12.91-7.56,24.24-6.05,34.64,1.48,10.15,6.17,19.22,14.31,27.59-.45,1.29-.86,2.65-1.27,4.04-.39,1.3-.82,2.75-1.18,3.66-.15.22-.29.43-.43.64-2.49,3.69-4.84,7.17-5.45,11.41-.76,5.25,1.41,10.19,6.44,14.66,4.8,4.22,11.39,6.82,17.22,6.82,4.84,0,9.1-1.69,12.31-4.89.37-.37.7-.78.98-1.22,2.52-4,3.33-8.22,4.05-11.95.62-3.22,1.15-6.01,2.64-7.94.88-1.15,1.37-2.53,1.43-3.94.06.01.13.02.19.03.08.01.16.02.24.03,3.34.42,6.73.63,10.08.63,2.46,0,4.93-.11,7.44-.33-.05.58-.03,1.16.07,1.74.26,1.61-.02,3.89-.32,6.31-.65,5.25-1.54,12.45,3.32,18.4.2.24.41.47.64.69,3.99,3.73,10.55,5.96,17.55,5.96s13.01-2.18,16.75-5.97c3.03-2.91,4.33-6.73,3.67-10.76-.45-2.76-1.7-5.07-2.71-6.93-.21-.39-.48-.89-.69-1.32.08-1.53.2-3.09.32-4.72.3-4.13.62-8.37.44-12.69,5.39-4.79,11.19-10.28,14.04-18.18,4.08-10.69,5.21-23.06,3.17-34.84-2-11.53-6.76-21.4-13.87-28.79,35.27-7.31,55.63-17.52,67.73-33.87,12.77-17.24,15.96-41.52,10.37-78.73,0-.02,0-.03,0-.05-2.2-13.95-6.6-26.51-13.05-37.36-6.19-10.39-14.3-19.25-24.1-26.34-18.18-13.14-42.21-20.09-69.5-20.09h0Z"/>
          </g>
          <path d="M196.39,148.6c4.55-.73,9.81,1.24,13.55,3.96,5.46,3.77,6.11,12.99,2.1,17.99-2.95,3.68-7.07,5.27-11.61,5.77-22.25,1.84-25.48-24.34-4.03-27.72Z"/>
          <path d="M237,178.04c4.77-.78,7.09,4.76,2.52,7.59-3.95,2.44-7.53,4.77-11.92,6.45-1.9.73-3.95,2.02-5.97,2.8-14.08,5.25-29.29,6.74-44.12,4.32-4.4-.9-8.47-4.94-2.61-8.03.51-.27,3,0,3.59.1,15.64,2.62,31.85.45,46.23-6.23,4.07-1.89,8.28-4.82,12.3-7Z"/>
        </g>
        <circle class="cls-5" cx="127.53" cy="192.97" r="25.99"/>
        <circle class="cls-5" cx="280.46" cy="167.46" r="25.99"/>
        <path class="cls-3" d="M127.53,157.37s3.57,8.9,17.07,6.7c13.51-2.2,16.37-11.77,16.37-11.77"/>
        <path class="cls-3" d="M226.37,142.72s3.57,8.9,17.07,6.7c13.51-2.2,16.37-11.77,16.37-11.77"/>
      </g>
      <g>
        <path class="cls-1" d="M30.2,90.7c-7.89-1.1-14.64-5.27-19.04-8.31l-.09-.06-.08-.07c-7.94-6.4-8.98-13.75-7.31-18.5,1.56-4.43,5.51-7.19,10.29-7.19,2.43,0,5.98.72,10.09,3.77,2.65-4.47,6.04-7.1,10.29-8.02l.16-.03.16-.02c.47-.05.96-.08,1.43-.08,3.69,0,7.02,1.54,9.14,4.23,1.73,2.19,3.47,6.15,1.97,12.53-1.42,7.31-9.41,17.8-14.99,21.31l-.93.58-1.08-.15Z"/>
        <path d="M36.1,55.21c5.48,0,10.27,4.35,8.17,13.13-1.16,6.13-8.52,16.18-13.65,19.39-6.52-.91-12.4-4.11-17.75-7.8-11.03-8.88-7.39-20.35,1.1-20.35,3.17,0,7.03,1.6,11.05,5.54,1.95-4.57,4.89-8.76,9.97-9.86.37-.04.74-.06,1.11-.06M36.1,49.21h0c-.58,0-1.16.03-1.74.09l-.32.03-.32.07c-4.14.89-7.64,3.19-10.47,6.84-3.68-2.11-6.91-2.66-9.28-2.66-6,0-11.15,3.61-13.12,9.19-2.02,5.72-.91,14.45,8.25,21.83l.17.14.18.12c4.64,3.21,11.8,7.62,20.33,8.81l2.17.3,1.85-1.16c6.1-3.83,14.7-15,16.33-23.21,1.76-7.52-.41-12.32-2.55-15.02-2.69-3.41-6.88-5.37-11.49-5.37h0Z"/>
      </g>
      <g>
        <path class="cls-1" d="M76.64,147.11c-8.56-4.28-14.66-11.64-18.51-16.8l-.07-.09-.06-.09c-4.83-7.57-5.76-15.63-2.51-21.56,2.29-4.17,6.37-6.66,10.92-6.66,5.38,0,10.53,3.36,14.51,9.36,4.24-3.83,8.58-5.7,13.17-5.7.62,0,1.25.04,1.88.11l.16.02.16.04c4.61,1.03,8.21,3.9,9.87,7.87,1.32,3.16,1.99,8.38-2.31,15.29-4.32,7.61-17.65,16.65-25.18,18.46l-1.06.26-.98-.49Z"/>
        <path d="M66.43,104.91c4.55,0,9.83,3.27,13.89,11.25,3.7-4.14,8.23-7.59,13.8-7.59.51,0,1.02.03,1.54.09,7.07,1.58,11.86,8.75,5.63,18.7-3.72,6.62-16.13,15.35-23.3,17.07-7.17-3.59-12.71-9.56-17.44-15.91-8.21-12.87-2.36-23.61,5.88-23.61M66.43,98.91c-5.66,0-10.73,3.07-13.55,8.22-3.79,6.91-2.81,16.11,2.61,24.62l.12.18.13.18c4.03,5.4,10.44,13.12,19.57,17.69l1.96.98,2.13-.51c8.24-1.97,22.28-11.49,27.06-19.84,3.86-6.22,4.75-12.6,2.5-17.98-2.04-4.88-6.41-8.4-11.98-9.64l-.32-.07-.32-.04c-.74-.08-1.48-.13-2.21-.13-4.43,0-8.6,1.44-12.63,4.39-4.26-5.19-9.52-8.05-15.06-8.05h0Z"/>
      </g>
      <g>
        <path class="cls-1" d="M70.31,40.39c-6.08-4.55-9.79-11.11-12.06-15.66l-.05-.1-.04-.1c-2.57-6.27-2.39-12.35.52-16.68,2.07-3.09,5.26-4.86,8.75-4.86,4.9,0,9.14,3.31,11.82,9.03,2.85-1.65,5.59-2.46,8.32-2.46,1.31,0,2.61.19,3.88.57l.16.05.15.06c3.59,1.51,6.1,4.38,6.87,7.86.86,3.89-.57,8.14-4.03,11.97-4.54,5.45-16.03,10.54-22.3,10.9l-1.09.06-.88-.66Z"/>
        <path d="M67.42,6c3.86,0,8.11,3.15,10.37,10.65,2.91-2.27,6.21-4.08,9.77-4.08.99,0,1.99.14,3.02.44,5.2,2.19,7.88,8.34,1.74,15.1-3.76,4.56-14.47,9.54-20.21,9.87-5-3.74-8.42-9.08-11.17-14.59-4.21-10.25.68-17.4,6.49-17.4M67.42,0c-4.44,0-8.64,2.31-11.24,6.19-3.47,5.17-3.76,12.28-.8,19.49l.08.2.1.2c2.4,4.82,6.36,11.79,12.95,16.72l1.75,1.31,2.18-.13c6.88-.39,19.23-5.79,24.39-11.93,5.53-6.15,5.31-11.77,4.69-14.59-.98-4.45-4.13-8.09-8.63-9.98l-.3-.13-.31-.09c-1.55-.46-3.14-.7-4.73-.7-2.36,0-4.7.49-7.06,1.48-3.21-5.14-7.82-8.06-13.08-8.06h0Z"/>
      </g>
      <g>
        <path class="cls-1" d="M223.28,247.04c-9.56-.41-18.14-4.61-23.76-7.75l-.1-.05-.09-.06c-10.5-6.9-12.26-15.88-10.59-21.48,1.61-5.39,6.45-8.88,12.33-8.88,3.65,0,7.55,1.29,11.45,3.75,2.62-5.95,6.39-9.65,11.44-11.26l.15-.05.16-.03c1.04-.21,2.1-.32,3.13-.32,3.97,0,7.52,1.55,9.97,4.37,2.04,2.35,4.27,6.68,3.27,13.99-.83,8.72-9.29,22.42-15.41,27.15l-.87.67-1.09-.05Z"/>
        <path d="M227.41,203.92c6.18,0,11.68,4.78,10.26,15.01-.68,7.57-8.43,20.61-14.26,25.11-8.01-.34-15.51-3.52-22.43-7.37-14.94-9.81-11.11-24.85.09-24.85,3.65,0,8.07,1.59,12.88,5.47,1.83-5.77,4.9-11.2,10.92-13.12.85-.17,1.69-.26,2.53-.26M227.41,197.92c-1.24,0-2.49.13-3.73.38l-.32.06-.31.1c-4.93,1.58-8.88,4.92-11.78,9.97-3.45-1.72-6.9-2.61-10.2-2.61-7.24,0-13.2,4.33-15.21,11.02-1.97,6.59-.06,17.04,11.82,24.85l.18.12.19.11c5.89,3.28,14.9,7.69,25.09,8.12l2.19.09,1.73-1.34c6.71-5.17,15.62-19.61,16.56-29.18,1.13-8.39-1.55-13.49-3.99-16.3-3.03-3.48-7.38-5.4-12.23-5.4h0Z"/>
      </g>
      <path class="cls-2" d="M263.88,238.67c-6.32-6.61-10.7-15.03-16.94-21.77-7.86-11.93-26.25-6.77-27.99,7.11,1.08,13.09,13.02,22.89,22.31,30.64"/>
      <path class="cls-2" d="M185.47,241.23c6.75-6.17,11.7-14.26,18.38-20.56,8.65-11.37,26.65-4.96,27.44,9.01-1.97,12.99-14.55,21.94-24.36,29.05"/>
    </g>
  </g>
</svg>