<?xml version="1.0" encoding="UTF-8"?>
<svg id="Layer_2" data-name="Layer 2" xmlns="http://www.w3.org/2000/svg" viewBox="0 0 300.57 318.83">
  <defs>
    <style>
      .cls-1 {
        stroke-width: 7px;
      }

      .cls-1, .cls-2 {
        fill: #fff;
      }

      .cls-1, .cls-3, .cls-4 {
        stroke-linecap: round;
      }

      .cls-1, .cls-4 {
        stroke: #000;
        stroke-linejoin: round;
      }

      .cls-3 {
        stroke: #d1cdc8;
        stroke-miterlimit: 10;
        stroke-width: 4.71px;
      }

      .cls-3, .cls-4 {
        fill: none;
      }

      .cls-4 {
        stroke-width: 6px;
      }

      .cls-5 {
        fill: #fed871;
      }

      .cls-6 {
        fill: #eae5da;
      }
    </style>
  </defs>
  <g id="Layer_1-2" data-name="Layer 1">
    <g>
      <g>
        <g>
          <path class="cls-2" d="M116.01,315.33c-4.05,0-11.49-.6-15.88-4.62-2.33-2.14-2.64-4.97-2.74-5.9-.46-4.29,1.91-6.89,3.48-8.61.87-.95,1.44-1.6,1.67-2.28.22-2.9.12-6.4.01-9.79-.05-1.71-.1-3.38-.11-4.94l-.03-4.92,4.66,1.59c3.39,1.16,6.89,1.4,11.1,1.4.89,0,1.77-.01,2.66-.02.92,0,1.83-.02,2.75-.02,2.21,0,4.85.05,7.6.42l3.3.44-.28,3.32c-.22,2.62-.22,5.95-.22,9.47,0,6.04,0,12.28-1.08,16.95-.76,3.3-4.23,5.09-7.16,6.28l-.21.08-.22.06c-2.61.69-6.01,1.08-9.33,1.08Z"/>
          <path d="M105.95,279.18c4.03,1.37,8.11,1.58,12.23,1.58,1.8,0,3.61-.04,5.42-.04,2.38,0,4.75.07,7.13.39-.61,7.26.39,18.99-1.22,25.92-.42,1.83-3.34,3.13-5.07,3.83-2.23.59-5.27.97-8.43.97-5.11,0-10.56-.99-13.52-3.7-1.09-1-1.47-2.33-1.62-3.7-.51-4.74,4.2-5.97,5.14-9.9.4-4.64-.03-10.58-.06-15.36M98.9,269.38l.05,9.84c0,1.62.06,3.35.11,5.03.09,3,.19,6.09.04,8.67-.21.27-.55.63-.82.92-1.75,1.92-5.01,5.48-4.38,11.34.36,3.37,1.66,6.1,3.85,8.11,5,4.58,12.68,5.54,18.25,5.54,3.65,0,7.28-.43,10.22-1.2l.43-.11.42-.17c2.18-.89,7.99-3.24,9.26-8.74,1.17-5.06,1.17-11.51,1.17-17.74,0-3.44,0-6.69.21-9.17l.56-6.64-6.6-.89c-2.97-.4-5.87-.45-8.06-.45-.93,0-1.86.01-2.79.02-.88,0-1.75.02-2.63.02-3.86,0-7.03-.21-9.97-1.21l-9.31-3.18h0Z"/>
        </g>
        <g>
          <path class="cls-2" d="M169.22,315.33c-3.31,0-6.71-.4-9.33-1.08l-.22-.06-.21-.08c-2.93-1.19-6.4-2.98-7.16-6.28-1.08-4.67-1.08-10.92-1.08-16.95,0-3.52,0-6.84-.22-9.47l-.28-3.32,3.3-.44c2.75-.37,5.39-.42,7.6-.42.92,0,1.84.01,2.75.02.89,0,1.78.02,2.66.02,4.21,0,7.7-.24,11.1-1.4l4.66-1.59-.03,4.92c0,1.56-.06,3.23-.11,4.94-.1,3.39-.21,6.88.01,9.78.23.68.8,1.33,1.67,2.28,1.57,1.72,3.94,4.32,3.48,8.61-.1.93-.4,3.77-2.73,5.9-4.39,4.02-11.83,4.62-15.88,4.62h0Z"/>
          <path d="M179.28,279.18h0M179.28,279.18c-.03,4.78-.46,10.71-.06,15.36.94,3.92,5.64,5.16,5.14,9.9-.15,1.37-.52,2.69-1.62,3.7-2.96,2.71-8.41,3.7-13.52,3.7-3.17,0-6.2-.38-8.43-.97-1.73-.7-4.65-1.99-5.07-3.83-1.6-6.94-.6-18.67-1.22-25.92,2.38-.32,4.76-.39,7.13-.39,1.81,0,3.62.04,5.42.04,4.11,0,8.2-.21,12.23-1.58M186.33,269.38l-9.31,3.18c-2.94,1-6.11,1.21-9.97,1.21-.87,0-1.75,0-2.63-.02-.93-.01-1.86-.02-2.79-.02-2.19,0-5.09.05-8.06.45l-6.6.89.56,6.64c.21,2.48.21,5.73.21,9.17,0,6.23,0,12.68,1.17,17.74,1.27,5.5,7.07,7.85,9.26,8.74l.42.17.43.11c2.94.77,6.56,1.2,10.22,1.2,5.56,0,13.24-.96,18.24-5.54,2.2-2.01,3.49-4.74,3.85-8.11.63-5.86-2.63-9.43-4.38-11.34-.27-.29-.6-.66-.82-.92-.14-2.58-.05-5.67.04-8.67.05-1.68.1-3.42.11-5.03l.05-9.84h0ZM179.28,272.18h0,0ZM179.28,286.18h0,0Z"/>
        </g>
      </g>
      <path class="cls-1" d="M197.78,213.36c22.52-2.75,47.9-8.84,60.71-20.71,17.08-15.82,23.96-59.04,23.17-83.71-.72-22.46-7.74-59.3-24.1-75.18C233.46,10.48,178.8,3.52,142.62,3.5c-36.18.02-90.84,6.98-114.95,30.27C11.3,49.65,4.28,86.49,3.56,108.95c-.79,24.67,6.1,67.89,23.17,83.71,12.81,11.87,38.19,17.96,60.71,20.71"/>
      <g>
        <circle class="cls-5" cx="64.7" cy="121.94" r="27.82"/>
        <circle class="cls-5" cx="220.54" cy="121.94" r="27.82"/>
        <g>
          <circle cx="100.19" cy="94.71" r="10.74"/>
          <circle cx="185.05" cy="94.71" r="10.74"/>
        </g>
        <path class="cls-4" d="M126.7,142.2c4.1,11.28,25,12.33,31.84,0"/>
        <path d="M160.51,119.15c0,9.68-8.01,14.68-17.89,14.68s-17.89-5-17.89-14.68,8.01-14.67,17.89-14.67,17.89,5,17.89,14.67Z"/>
      </g>
      <path class="cls-1" d="M186.67,209.03c10.94-1.2,33.56-24.1,28.1-36.47-6.19-10.01,3.01-24.49,13.69-14.47,4.73-13.46,20.75-17.21,31.27-7.97,18.5,16.2-1.43,48.26-10.75,59.35-14.09,17.7-33.3,24.81-46.48,31.92h.13s10.46,46.77-60.14,46.77-60.14-46.78-60.14-46.77h.39c-13.19-7.1-32.39-14.22-46.48-31.92-9.32-11.09-29.25-43.15-10.75-59.35,10.52-9.24,26.54-5.49,31.27,7.97,10.68-10.02,19.89,4.46,13.69,14.47-5.46,12.38,17.16,35.27,28.1,36.47"/>
      <path class="cls-3" d="M259,234.4s26.63-12.81,30.45-42.34"/>
      <path class="cls-3" d="M259,249.16s30.02-7.52,39.21-38.58"/>
      <path class="cls-3" d="M7.16,197.67s10.17,32.47,39.12,38.34"/>
      <path class="cls-3" d="M7.16,225.05s11.74,16.82,25.43,18.39"/>
      <path class="cls-6" d="M112.56,206.34c2.1.56,6.09.89,8.36,1.17,13.43,1.54,26.92,1.64,40.36.3,3.09-.32,8.43-.81,11.39-1.5-1.33.72-3.08,2.08-4.4,3.03-5.74,3.89-11.81,6.46-18.02,7.64-11.06,2.01-22.27-.34-32.59-6.82-1.17-.75-4.14-2.64-5.09-3.82Z"/>
    </g>
  </g>
</svg>