<?xml version="1.0" encoding="UTF-8"?>
<svg id="Layer_2" data-name="Layer 2" xmlns="http://www.w3.org/2000/svg" viewBox="0 0 268.22 321.7">
  <defs>
    <style>
      .cls-1 {
        fill: #090909;
      }

      .cls-2 {
        fill: #ffd872;
      }

      .cls-3 {
        fill: #fefefe;
      }
    </style>
  </defs>
  <g id="Layer_1-2" data-name="Layer 1">
    <g>
      <path class="cls-1" d="M151.71,308.61c-.22,7.18-5.05,12.26-12.07,12.71-8.08.52-16.66.8-24.64-1.14-4.84-1.18-7.54-7.48-7.64-11.97l-.5-22.21c-7.54-1.52-14.42-2.94-20.67-6.38-22.28-11.85-19.92-35.41-15.66-59.74-15.13-3.52-30.16-7.72-43.07-16.96-8.44-6.05-13.65-15.58-17.17-25.52C-4.04,136.98-3.76,87.08,13.39,47.4,22.89,25.43,44.43,14.09,67.34,8.03c39.42-10.43,80.4-10.6,120.06-1.08,12.59,3.02,23.83,7.4,34.66,13.9,12.14,7.28,20.15,17.75,25.26,30.94,8.03,20.71,11.4,42.17,11.5,64.85,7.74,4.73,11.68,13.84,8.05,22.31-1.89,4.42-6.31,6.69-10.67,8.06-3.13,19.16-9.86,45.72-25.07,56.15-13.39,9.18-28.78,13.6-45.02,17.2l2.32,24.89c-.68,24.38-18.38,37.86-41.99,40.97-3.4,9.97,5.6,11.68,5.27,22.39ZM178.33,221.87l-6.06-.83c-2.1-.29-2.29-3.08-1.88-4.66.48-1.86,1.93-2.68,4.23-2.89,17.07-1.53,33.27-6.5,48.29-14.62,12.58-6.8,18.43-23.38,22.08-37.38l-6.11-2.1c-2.34-.8-2.85-2.88-2.13-4.5,1.67-3.77,5.14-.56,9.83-.2,6.82-32.87,5.58-66.49-6.06-97.74-3.04-8.16-6.63-15.77-12.99-21.58-10.12-9.25-22.32-14.99-35.77-18.78-40.48-11.4-83.02-11.31-123.6-.37-16.03,4.32-35.84,13.85-43.79,27.89-5.6,9.88-9.18,20.05-11.72,31.34-7.47,33.11-5.9,67.57,5.47,99.59,2.87,8.09,7.13,16.47,14.15,21.25,15.3,10.41,33.39,15.1,51.51,17.27,3.13.38,4.65,1.71,4.42,4.5-.23,2.64-2.67,4.07-5.72,3.29-.88-.22-3.88-.41-4.2.44-2.11,9.64-3.01,19.25-2.44,29,1.45,24.87,29.47,28.71,52.45,28.77,11.6.03,22.85-1.05,33.33-5.7,21.11-9.36,21.02-30.48,16.73-51.98ZM143.42,305.68l-5.05-7.45c-2.04-3.01-.19-7.4-.44-11.09l-22.8-.18.14,20.03c.01,2.09,1.1,5.77,3.48,5.84l19.63.56c1.82.05,3.62-1.02,4.29-1.98.89-1.3,2-3.89.75-5.74Z"/>
      <path class="cls-3" d="M178.33,221.87c4.28,21.5,4.38,42.63-16.73,51.98-10.48,4.64-21.73,5.72-33.33,5.7-22.98-.06-51-3.89-52.45-28.77-.57-9.75.33-19.36,2.44-29,.32-.86,3.32-.67,4.2-.44,3.05.78,5.49-.65,5.72-3.29.24-2.79-1.28-4.13-4.42-4.5-18.12-2.17-36.21-6.86-51.51-17.27-7.02-4.78-11.28-13.16-14.15-21.25-11.37-32.02-12.94-66.48-5.47-99.59,2.55-11.29,6.12-21.46,11.72-31.34,7.95-14.04,27.77-23.57,43.79-27.89,40.58-10.94,83.12-11.03,123.6.37,13.45,3.79,25.65,9.53,35.77,18.78,6.36,5.81,9.95,13.42,12.99,21.58,11.64,31.25,12.88,64.87,6.06,97.74-4.69-.36-8.16-3.57-9.83.2-.72,1.63-.21,3.7,2.13,4.5l6.11,2.1c-3.65,14-9.5,30.58-22.08,37.38-15.02,8.11-31.22,13.09-48.29,14.62-2.3.21-3.75,1.03-4.23,2.89-.41,1.59-.22,4.37,1.88,4.66l6.06.83ZM238.83,114.25c1.41-3.64,1.14-7.54-.31-10.71-1.36-2.97-3.89-4.41-6.8-4.23-5.66.36-8.47,7.58-6.24,14.43,1.02,3.13,3.46,4.92,6.36,5.1,2.68.17,5.71-1.31,6.99-4.6ZM221.32,155.52c8.17-12.01,7.76-28.35-.57-39.77-3.46-4.74-8.54-7.3-13.87-7.29-4.85,0-9.82,2.58-13.15,7.04-8.92,11.93-8.9,29.21.03,41.13,3.54,4.73,8.62,7.22,14.08,6.98,4.91-.21,10.02-2.99,13.49-8.08ZM144.39,253.59c-.84,8.27-6.56,15.59-15.02,16.02-18.9.97-17.04-26.54-12.94-44.69.64-2.84-.57-5.03-3.02-5.36-2.64-.35-4.4.9-4.98,3.79-2.99,14.94-5.39,38.21,4.32,47.88,6.54,6.52,16.48,8.34,25.2,4.49,18.64-8.23,15.97-33.03,12.1-52.46-.57-2.86-2.3-4.23-5.04-3.82-7.05,1.07,1.47,13.65-.61,34.15Z"/>
      <path class="cls-3" d="M143.42,305.68c1.26,1.85.14,4.45-.75,5.74-.66.96-2.47,2.03-4.29,1.98l-19.63-.56c-2.38-.07-3.47-3.75-3.48-5.84l-.14-20.03,22.8.18c.25,3.68-1.6,8.08.44,11.09l5.05,7.45Z"/>
      <path class="cls-2" d="M221.32,155.52c-3.47,5.09-8.58,7.87-13.49,8.08-5.46.24-10.53-2.25-14.08-6.98-8.92-11.91-8.95-29.2-.03-41.13,3.33-4.45,8.31-7.03,13.15-7.04,5.32,0,10.41,2.55,13.87,7.29,8.33,11.41,8.74,27.76.57,39.77Z"/>
      <path class="cls-1" d="M144.39,253.59c2.08-20.5-6.44-33.08.61-34.15,2.74-.41,4.47.96,5.04,3.82,3.87,19.43,6.54,44.23-12.1,52.46-8.71,3.85-18.66,2.03-25.2-4.49-9.7-9.67-7.31-32.94-4.32-47.88.58-2.88,2.34-4.14,4.98-3.79,2.44.33,3.66,2.52,3.02,5.36-4.11,18.15-5.96,45.66,12.94,44.69,8.46-.43,14.18-7.75,15.02-16.02Z"/>
      <path class="cls-1" d="M238.83,114.25c-1.28,3.29-4.31,4.77-6.99,4.6-2.91-.18-5.35-1.97-6.36-5.1-2.23-6.85.58-14.07,6.24-14.43,2.91-.19,5.43,1.26,6.8,4.23,1.45,3.16,1.72,7.06.31,10.71Z"/>
    </g>
  </g>
</svg>