<?xml version="1.0" encoding="UTF-8"?>
<svg id="Layer_2" data-name="Layer 2" xmlns="http://www.w3.org/2000/svg" viewBox="0 0 286.02 321.94">
  <defs>
    <style>
      .cls-1 {
        fill: #fff;
      }

      .cls-2 {
        stroke-linejoin: round;
        stroke-width: 8px;
      }

      .cls-2, .cls-3 {
        fill: none;
        stroke: #000;
        stroke-linecap: round;
      }

      .cls-4 {
        fill: #fed871;
      }

      .cls-3 {
        stroke-miterlimit: 10;
        stroke-width: 7px;
      }

      .cls-5 {
        fill: #eae5da;
      }
    </style>
  </defs>
  <g id="Layer_1-2" data-name="Layer 1">
    <g>
      <g>
        <g>
          <path class="cls-1" d="M120.66,318.44c-4.06,0-11.52-.6-15.92-4.63-1.57-1.44-2.47-3.38-2.74-5.92-.46-4.3,1.92-6.9,3.49-8.62.88-.96,1.45-1.61,1.68-2.29.22-2.9.12-6.41.01-9.8-.05-1.72-.1-3.41-.11-4.97l-.03-4.92,4.66,1.59c3.4,1.16,6.91,1.4,11.13,1.4.89,0,1.78,0,2.67-.02.92,0,1.84-.02,2.76-.02,2.22,0,4.86.05,7.62.42l3.3.44-.28,3.32c-.22,2.63-.22,5.96-.22,9.49,0,6.05,0,12.31-1.08,17-.76,3.31-4.24,5.1-7.18,6.29l-.21.08-.22.06c-2.62.69-6.03,1.09-9.35,1.09Z"/>
          <path d="M110.57,282.2c4.04,1.38,8.14,1.59,12.26,1.59,1.81,0,3.62-.04,5.43-.04,2.38,0,4.77.07,7.15.39-.61,7.28.39,19.04-1.22,26-.42,1.84-3.35,3.14-5.08,3.84-2.24.59-5.28.97-8.46.97-5.12,0-10.59-.99-13.56-3.71-1.1-1.01-1.48-2.33-1.62-3.71-.51-4.75,4.21-5.99,5.15-9.93.4-4.66-.03-10.61-.06-15.4M103.52,272.4l.05,9.84c0,1.62.06,3.36.11,5.05.09,3.01.19,6.11.04,8.7-.22.27-.55.64-.82.93-1.75,1.92-5.01,5.49-4.39,11.36.36,3.38,1.66,6.11,3.86,8.12,5.01,4.59,12.71,5.55,18.28,5.55,3.66,0,7.3-.43,10.24-1.2l.43-.11.42-.17c2.19-.89,8-3.25,9.27-8.75,1.17-5.08,1.17-11.54,1.17-17.79,0-3.45,0-6.71.21-9.2l.56-6.64-6.6-.89c-2.98-.4-5.89-.45-8.09-.45-.93,0-1.87.01-2.8.02-.88,0-1.76.02-2.63.02-3.87,0-7.05-.21-10-1.21l-9.31-3.18h0Z"/>
        </g>
        <g>
          <path class="cls-1" d="M174.02,318.44c-3.32,0-6.73-.4-9.35-1.09l-.22-.06-.21-.08c-2.94-1.19-6.41-2.99-7.18-6.29-1.08-4.69-1.08-10.95-1.08-17,0-3.53,0-6.86-.22-9.49l-.28-3.32,3.3-.44c2.76-.37,5.4-.42,7.62-.42.92,0,1.84,0,2.76.02.89.01,1.78.02,2.67.02,4.22,0,7.73-.24,11.13-1.4l4.66-1.59-.03,4.92c0,1.56-.06,3.24-.11,4.95-.1,3.4-.21,6.91.01,9.82.23.68.81,1.33,1.68,2.29,1.57,1.72,3.95,4.33,3.49,8.62-.1.94-.41,3.78-2.74,5.92-4.4,4.03-11.86,4.63-15.92,4.63h0Z"/>
          <path d="M184.11,282.2h0M184.11,282.2c-.03,4.79-.46,10.75-.06,15.4.94,3.93,5.66,5.18,5.15,9.93-.15,1.37-.53,2.7-1.62,3.71-2.97,2.72-8.43,3.71-13.56,3.71-3.18,0-6.22-.38-8.46-.97-1.73-.7-4.66-2-5.08-3.84-1.61-6.96-.61-18.72-1.22-26,2.38-.32,4.77-.39,7.15-.39,1.81,0,3.63.04,5.43.04,4.13,0,8.23-.21,12.26-1.59M191.16,272.4l-9.31,3.18c-2.95,1.01-6.13,1.21-10,1.21-.88,0-1.75,0-2.63-.02-.93-.01-1.87-.02-2.8-.02-2.2,0-5.1.05-8.09.45l-6.6.89.56,6.64c.21,2.49.21,5.75.21,9.2,0,6.25,0,12.71,1.17,17.79,1.27,5.5,7.08,7.86,9.27,8.75l.42.17.43.11c2.94.78,6.58,1.2,10.24,1.2,5.58,0,13.27-.96,18.28-5.55,2.2-2.01,3.49-4.75,3.86-8.12.63-5.87-2.63-9.44-4.39-11.36-.27-.29-.61-.67-.82-.93-.14-2.58-.05-5.69.04-8.7.05-1.68.1-3.43.11-5.05l.05-9.84h0ZM184.11,275.2h0,0ZM184.11,289.2h0,0Z"/>
        </g>
      </g>
      <g>
        <g>
          <path class="cls-1" d="M282.46,109.25c.79,24.73-6.11,68.08-23.24,83.95-9.41,8.73-25.6,14.34-42.47,17.79-2.95-2.57-5.82-5.01-8.44-7.28l-.08,8.85c-3.32.54-6.63,1.02-9.89,1.41h-110.65c-.4-.05-.81-.1-1.22-.16l-.09-10.1c-3.08,2.67-6.48,5.55-9.96,8.61-19.32-3.27-38.88-9.17-49.61-19.12C9.68,177.33,2.77,133.99,3.56,109.25c.72-22.52,7.76-59.47,24.17-75.39C51.91,10.5,106.72,3.52,143.01,3.5c36.29.02,91.1,7,115.28,30.36,16.41,15.92,23.45,52.87,24.17,75.39Z"/>
          <path class="cls-1" d="M246.46,250.49c.67,9.31-7.3,18.56-17.23,18.04-11.53-.09-16.64-8.63-21.37-15.57l.08-8.48.29-31.92c2.84-.46,5.7-.98,8.52-1.57,12.91,11.25,27.34,25.08,29.71,39.5Z"/>
          <path class="cls-1" d="M208.31,203.71c2.63,2.27,5.49,4.71,8.44,7.28-2.83.58-5.68,1.1-8.52,1.57l.08-8.85Z"/>
          <path class="cls-1" d="M198.34,213.97c3.26-.39,6.57-.87,9.89-1.41l-.29,31.92h-.08c0-2.7-.2-4.38-.2-4.38h-120.63s-.2,1.68-.2,4.38h-.08l-.28-30.51h111.87Z"/>
          <path class="cls-1" d="M207.65,240.1s.2,1.68.2,4.38c0,11.25-3.51,40.29-39.76,40.29-5.46,0-13.43-.84-20.76-.84s-12.62.84-20.76.84c-36.25,0-39.76-29.04-39.76-40.29,0-2.7.2-4.38.2-4.38h120.63Z"/>
          <path class="cls-1" d="M86.47,213.97l.28,30.51.08,8.48c-4.74,6.93-9.84,15.48-21.37,15.57-9.93.53-17.9-8.73-17.23-18.04,2.27-13.86,15.69-27.17,28.19-38.17,3.38.58,6.74,1.07,10.06,1.49v.16Z"/>
          <path class="cls-1" d="M86.37,203.71l.09,10.1c-3.31-.42-6.68-.91-10.06-1.49,3.48-3.06,6.89-5.94,9.96-8.61Z"/>
        </g>
        <g>
          <path class="cls-3" d="M86.82,252.96c-4.74,6.93-9.84,15.48-21.37,15.57-9.93.53-17.9-8.73-17.23-18.04,2.27-13.86,15.69-27.17,28.19-38.17"/>
          <path class="cls-3" d="M207.86,252.96c4.74,6.93,9.84,15.48,21.37,15.57,9.93.53,17.9-8.73,17.23-18.04-2.37-14.42-16.8-28.25-29.71-39.5"/>
          <path class="cls-3" d="M198.34,213.97c3.26-.39,6.57-.87,9.89-1.41,2.84-.46,5.7-.98,8.52-1.57,16.87-3.45,33.06-9.07,42.47-17.79,17.12-15.87,24.03-59.21,23.24-83.95-.72-22.52-7.76-59.47-24.17-75.39C234.11,10.5,179.3,3.52,143.01,3.5c-36.29.02-91.1,7-115.28,30.36C11.32,49.78,4.28,86.73,3.56,109.25c-.79,24.73,6.11,68.08,23.24,83.95,10.73,9.96,30.29,15.86,49.61,19.12,3.38.58,6.74,1.07,10.06,1.49.41.06.82.11,1.22.16"/>
          <path class="cls-3" d="M207.65,240.1s.2,1.68.2,4.38c0,11.25-3.51,40.29-39.76,40.29-5.46,0-13.43-.84-20.76-.84s-12.62.84-20.76.84c-36.25,0-39.76-29.04-39.76-40.29,0-2.7.2-4.38.2-4.38"/>
        </g>
      </g>
      <g>
        <circle class="cls-4" cx="64.87" cy="126.87" r="27.9"/>
        <circle class="cls-4" cx="221.15" cy="126.87" r="27.9"/>
        <g>
          <circle cx="100.46" cy="99.56" r="10.77"/>
          <circle cx="185.56" cy="99.56" r="10.77"/>
        </g>
        <path class="cls-2" d="M127.05,147.18c4.51,3.98,25.51,4.24,31.93,0"/>
        <path d="M160.95,124.07c0,9.71-8.03,14.72-17.94,14.72s-17.93-5.01-17.93-14.72,8.03-14.72,17.93-14.72,17.94,5.02,17.94,14.72Z"/>
      </g>
      <path class="cls-5" d="M95.92,211.51c3.27.56,9.49.89,13.03,1.17,20.93,1.55,41.94,1.65,62.88.3,4.82-.32,13.13-.81,17.74-1.51-2.08.73-4.8,2.08-6.86,3.04-8.94,3.9-18.4,6.48-28.08,7.66-17.23,2.01-34.7-.34-50.78-6.84-1.82-.75-6.45-2.65-7.93-3.83Z"/>
    </g>
  </g>
</svg>