<?xml version="1.0" encoding="UTF-8"?>
<svg id="Layer_2" data-name="Layer 2" xmlns="http://www.w3.org/2000/svg" viewBox="0 0 416.82 369.09">
  <defs>
    <style>
      .cls-1 {
        stroke-width: 7px;
      }

      .cls-1, .cls-2 {
        fill: #fff;
      }

      .cls-1, .cls-3 {
        stroke: #000;
        stroke-linecap: round;
        stroke-linejoin: round;
      }

      .cls-4 {
        fill: #eae5c6;
      }

      .cls-5 {
        fill: #d65a4d;
      }

      .cls-6 {
        fill: #f8d56b;
      }

      .cls-7 {
        fill: #060505;
      }

      .cls-8 {
        fill: #5eb4b9;
      }

      .cls-9 {
        fill: #f2918e;
      }

      .cls-10 {
        fill: #72a3d4;
      }

      .cls-11 {
        fill: #b671b3;
      }

      .cls-3 {
        fill: none;
        stroke-width: 6px;
      }

      .cls-12 {
        fill: #fed871;
      }

      .cls-13 {
        fill: #edab3d;
      }

      .cls-14 {
        fill: #4eb591;
      }
    </style>
  </defs>
  <g id="Layer_1-2" data-name="Layer 1">
    <g>
      <g>
        <path class="cls-2" d="M260.09,319.24c-8.15,0-19.1-5.32-23.9-11.62-.36-.48-.6-1.04-.68-1.64-1.12-8,4.06-10.17,7.16-11.46,1.5-.63,2.8-1.17,3.59-2.14,1.27-1.55,2.94-4.57,4.41-7.23.71-1.29,1.39-2.51,2-3.53.65-1.09,1.81-1.71,3.01-1.71.54,0,1.08.12,1.59.38,7.96,4.07,13.41,5.57,23.34,6.44,1.17.1,2.21.78,2.77,1.82s.57,2.28.01,3.31c-.75,1.41-1.59,3.15-2.47,5-4.03,8.41-9.05,18.88-16.67,21.82-.16.06-.32.11-.49.15-1.14.26-2.38.39-3.69.39Z"/>
        <path d="M255.68,283.43c8.81,4.51,14.84,5.95,24.63,6.81-3.96,7.44-9.43,22.16-17.31,25.2-.91.21-1.89.3-2.91.3-7.35,0-17.1-4.97-21.11-10.24-1.17-8.39,6.33-6.42,10-10.9,2.12-2.59,4.8-7.97,6.71-11.18M255.69,276.43c-2.39,0-4.71,1.23-6.02,3.42-.65,1.08-1.33,2.32-2.06,3.63-1.33,2.4-2.99,5.4-4.06,6.7-.24.29-1.44.79-2.24,1.13-3.22,1.35-10.77,4.51-9.28,15.18.17,1.19.64,2.32,1.37,3.27,5.46,7.16,17.43,12.99,26.68,12.99,1.57,0,3.07-.16,4.46-.48.33-.08.66-.17.98-.3,8.91-3.44,14.26-14.61,18.56-23.57.87-1.81,1.69-3.53,2.41-4.87,1.1-2.07,1.09-4.56-.03-6.63-1.12-2.06-3.2-3.43-5.54-3.63-9.53-.83-14.47-2.19-22.05-6.07-1.02-.52-2.11-.77-3.18-.77h0Z"/>
      </g>
      <g>
        <path class="cls-2" d="M357.69,300.83c-1.11,0-2.07-.26-3-.52-6.68-1.65-12.62-6.74-18.35-11.67-2.07-1.77-4.02-3.45-5.89-4.86-1.01-.76-1.53-2-1.37-3.25.16-1.25.98-2.32,2.15-2.79,7.85-3.19,13.92-7.37,20.27-13.95.68-.7,1.59-1.07,2.52-1.07.6,0,1.21.16,1.76.48,1.14.67,2.3,1.5,3.42,2.3,2.12,1.53,4.52,3.26,6.26,3.37.44.03.87.04,1.29.04.46,0,.92-.01,1.39-.02.52-.01,1.03-.02,1.55-.02,1.12,0,2.06.05,2.98.17.56.07,1.09.28,1.55.6,3.85,2.67,4.49,4.16,4.98,8.62.06.57-.02,1.15-.23,1.68-3.44,8.65-10.34,16.34-18,20.09-1.1.54-2.17.8-3.28.8Z"/>
        <path d="M354.02,266.23c3.34,1.95,7.3,5.89,11.2,6.15.52.04,1.03.05,1.53.05.98,0,1.95-.04,2.93-.04.82,0,1.66.03,2.53.14,2.98,2.07,3.11,2.61,3.5,6.13-2.92,7.32-9.01,14.68-16.29,18.24-.66.32-1.2.45-1.74.45-.65,0-1.29-.18-2.11-.41-8.18-1.99-16-10.66-23.03-15.94,8.64-3.51,14.99-8.05,21.47-14.76M354.03,259.23c-1.85,0-3.68.73-5.04,2.14-6.08,6.29-11.6,10.1-19.07,13.14-2.34.95-3.98,3.08-4.3,5.58-.32,2.5.72,4.98,2.74,6.5,1.78,1.34,3.69,2.98,5.72,4.71,5.75,4.94,12.27,10.53,19.74,12.4,1.05.29,2.33.64,3.89.64,1.65,0,3.23-.38,4.82-1.16,8.4-4.1,15.95-12.51,19.71-21.93.42-1.06.58-2.22.46-3.36-.58-5.3-1.65-7.77-6.47-11.12-.92-.64-1.99-1.05-3.1-1.19-1.06-.14-2.15-.2-3.42-.2-.55,0-1.09.01-1.63.02-.43,0-.87.02-1.3.02-.41,0-.74,0-1.05-.03-.87-.14-3.11-1.76-4.45-2.72-1.19-.85-2.41-1.74-3.7-2.49-1.1-.64-2.32-.95-3.52-.95h0Z"/>
      </g>
      <g>
        <path class="cls-2" d="M286.65,287.17c-9.22,0-17.2-1.32-23.71-3.92-9.86-3.94-17.58-12.07-22.33-23.52-.42-1.03-.81-2.07-1.17-3.1-.42-1.21-.15-2.56.72-3.51.17-.19.37-.36.58-.5.88-2.41,2.28-10.67,2.42-21.28.18-14.18-2.12-19.05-3.04-19.78-.06,0-.12,0-.17,0-1.59,0-2.99-1.08-3.38-2.65-.42-1.66-1.77-4.32-2.67-6.07l-.15-.3c-5.18-10.17-11.12-17.52-20.52-25.39-.04-.04-.08-.07-.12-.11-4.71-4.34-44.82-10.35-59.61-10.35-1.32,0-1.95.06-2.19.1-.44.19-.92.29-1.4.29-.39,0-.77-.06-1.15-.19-1.04-.36-1.85-1.2-2.19-2.25-8.33-26.25-12.51-68.31,3.09-100.45,15.86-31.31,57.52-45.63,69.91-49.28,17.71-5.21,45.2-11.42,75.63-11.42,26.37,0,49.37,4.68,68.38,13.9,24.82,12.04,36.92,38.07,42.7,57.79,4.86,16.55,14.32,58.64-2.66,91.85-12.04,23.46-38.43,35.96-58.45,42.31-2.09.66-3.35,1.22-4.09,1.63.08,0,.15.01.23.01.16,0,.32-.02.48-.06.64-.16,1.22-.35,1.92-.62.41-.16.83-.23,1.25-.23,1.36,0,2.65.8,3.21,2.11l.92,2.12c5.53,12.73,11.8,27.15,5.96,42.09-4.62,11.8-16.3,18.79-25.28,22.57-13.22,5.15-29.31,8.2-43.12,8.2Z"/>
        <path d="M295.2,7c23.6,0,46.88,3.86,66.85,13.55,21.69,10.53,34.33,33.34,40.87,55.63,8.05,27.44,11.03,62.96-2.42,89.27-10.91,21.27-34.55,33.64-56.39,40.57-3.96,1.26-9.37,3.45-6.64,6.75.95,1.14,2.37,1.74,3.83,1.74.45,0,.9-.06,1.35-.17.71-.18,1.42-.4,2.3-.74,5.59,12.95,12.46,27.17,6.83,41.55-3.9,9.95-13.84,16.6-23.38,20.62-11.45,4.45-27.18,7.92-41.76,7.92-8.14,0-15.92-1.08-22.41-3.67-9.93-3.97-16.44-12.07-20.39-21.61-.39-.96-.76-1.93-1.1-2.9.03,0,.06.01.09.01,3.45,0,7.58-47.43-2.62-47.44-.09,0-.18,0-.27.01-.54-2.15-2.06-5.08-3.1-7.11-5.62-11.03-11.98-18.61-21.39-26.48-6.17-5.68-49-11.28-61.98-11.28-1.93,0-3.2.12-3.59.39-9.42-29.7-11.04-69.16,2.9-97.86,12.33-24.34,42.43-40,67.75-47.45,22.63-6.66,48.83-11.28,74.64-11.28M295.2,0c-30.85,0-58.69,6.29-76.62,11.57-10.32,3.04-25.74,8.67-40.56,18.23-14.64,9.44-25.22,20.47-31.45,32.78-.02.04-.04.07-.05.11-6.96,14.33-10.73,32.15-10.91,51.55-.16,17.17,2.55,35.46,7.64,51.48.67,2.11,2.29,3.77,4.38,4.5.75.26,1.52.39,2.3.39s1.49-.12,2.19-.35c.26-.02.7-.04,1.39-.04,5.35,0,17.88,1.12,31.47,3.27,17.2,2.71,24.41,5.26,25.88,6.26.05.04.09.08.14.12,9.12,7.64,14.63,14.45,19.65,24.29l.15.3c.78,1.52,2.07,4.06,2.39,5.34.62,2.46,2.48,4.32,4.8,5.01.78,2.03,1.91,7.35,1.67,17.73-.2,8.49-1.24,15.45-1.96,18.15-.03.03-.06.07-.09.1-1.74,1.9-2.29,4.6-1.45,7.03.38,1.09.79,2.19,1.23,3.26,5.13,12.36,13.52,21.16,24.27,25.46,6.93,2.77,15.34,4.17,25.01,4.17,14.22,0,30.78-3.14,44.3-8.4.06-.02.12-.05.18-.07,9.61-4.05,22.12-11.59,27.18-24.52,6.37-16.29-.49-32.08-6.01-44.76-.29-.66-.58-1.32-.86-1.98,19.82-7.02,43.74-19.79,55.29-42.3,17.55-34.33,7.88-77.48,2.91-94.43-5.98-20.4-18.57-47.36-44.54-59.96-19.49-9.46-43.01-14.25-69.91-14.25h0Z"/>
      </g>
      <circle class="cls-12" cx="204.23" cy="156.47" r="27.82"/>
      <path class="cls-6" d="M353.78,106.94c14.51-2.13,27.99,7.92,30.1,22.43,2.11,14.51-7.95,27.98-22.46,30.07-14.49,2.09-27.93-7.95-30.04-22.44-2.1-14.49,7.92-27.94,22.41-30.07Z"/>
      <g>
        <g>
          <path class="cls-5" d="M278.7,181.12c-7.17,0-14.03-3.49-17.95-9.11-4.84-5.5-6.92-11.46-8.78-17.59-.28-.9-.11-1.88.45-2.65.56-.76,1.45-1.22,2.39-1.22,4.37-.04,7.56-.51,11.26-1.06,1.58-.23,3.23-.47,5.08-.7,9.76-1.2,18.78-2.95,28.34-4.81.19-.04.38-.05.57-.05.66,0,1.3.21,1.83.62.68.52,1.11,1.31,1.17,2.17.55,7.85-.24,13.05-3.03,19.88-.04.1-.09.2-.14.29-3.83,7.08-8.84,11.46-15.33,13.39-1.87.56-3.84.84-5.85.84Z"/>
          <path d="M300.06,146.92c.5,7.14-.12,11.94-2.81,18.54-3.08,5.69-7.2,10.05-13.55,11.94-1.62.48-3.31.71-5,.71-6.05,0-12.17-2.96-15.58-7.96-4.41-4.96-6.4-10.44-8.27-16.61,6.46-.06,10.45-1.02,16.67-1.78,9.77-1.2,18.87-2.96,28.55-4.84M300.06,140.92c-.38,0-.76.04-1.14.11-9.5,1.84-18.48,3.59-28.14,4.77-1.89.23-3.54.47-5.14.71-3.74.55-6.7.99-10.86,1.02-1.89.02-3.66.93-4.78,2.45-1.12,1.52-1.45,3.49-.9,5.29,1.87,6.16,4.13,12.66,9.29,18.58,4.49,6.34,12.23,10.26,20.31,10.26,2.31,0,4.56-.32,6.71-.96,7.29-2.17,12.89-7.02,17.12-14.84.1-.19.2-.39.28-.59,2.95-7.22,3.83-12.97,3.24-21.23-.12-1.71-.97-3.29-2.33-4.34-1.06-.81-2.34-1.24-3.65-1.24h0Z"/>
        </g>
        <path class="cls-9" d="M263.12,170.15c.89-1.57,6.45-4.04,8.23-4.62,9.07-2.95,17.15-4.17,25.9-.07-3.08,5.69-7.2,10.05-13.55,11.94-7.42,2.21-16.22-.85-20.58-7.25Z"/>
      </g>
      <path class="cls-7" d="M274.12,108.74c3.98-.47,8.34.15,11.79,2.28,3.33,2.04,5.69,5.33,6.55,9.13.77,3.7.06,7.56-2,10.73-3.06,4.62-7.99,6.17-13.13,7.18-4.33.49-8.86.04-12.55-2.41-8.16-5.4-8.33-18.27-.12-23.69,3.14-2.08,5.81-2.63,9.47-3.22Z"/>
      <path class="cls-4" d="M182.32,270.8c-2.13-.59-6.15-2.64-8.02-3.72-11.23-6.47-19.72-15.73-26.68-26.49-14.29-22.09-17.9-55.81,6.89-72.07,6.99-4.59,19.44-5.37,27.41-3.5,8.31.73,23.5,8.37,29.69,14.13,9.76,7.58,18.23,19.16,22.14,30.85,2.77,13.36,5.1,35.86,2.17,42.66-5.55,14.91-14.86,20.85-30.57,22.34-7.49.31-16.19-1.1-23.03-4.2Z"/>
      <g>
        <path class="cls-4" d="M165.17,161.18c-.98,0-1.89-.58-2.29-1.5-.46-1.05-.14-2.27.76-2.97l.22-.17c2.88-2.24,3.87-2.92,7.58-3.57.09-.02.18-.03.27-.03.36-.02.71-.03,1.05-.03,3.69,0,6.23,1.35,8.92,2.78.38.2.76.41,1.17.62,1.05.55,1.58,1.75,1.25,2.9-.3,1.08-1.29,1.82-2.41,1.82-.06,0-.12,0-.18,0-1.56-.11-3.15-.25-4.73-.4l-2-.18c-3.51,0-6.02.2-9.23.71-.13.02-.27.03-.4.03Z"/>
        <path d="M172.76,155.4c3.52,0,5.7,1.43,8.93,3.11-2.24-.16-4.55-.39-6.79-.58-3.54,0-6.24.19-9.73.75,2.78-2.17,3.35-2.66,6.7-3.25.31-.02.6-.03.89-.03M172.76,150.4h0c-.4,0-.8.01-1.21.04-.18.01-.36.03-.54.06-4.32.76-5.71,1.73-8.69,4.06l-.22.17c-1.8,1.4-2.42,3.85-1.51,5.94.8,1.85,2.62,3.01,4.58,3.01.26,0,.53-.02.79-.06,3.03-.49,5.42-.67,8.73-.68.63.05,1.26.11,1.89.17,1.56.14,3.18.29,4.76.4.12,0,.24.01.35.01,2.22,0,4.2-1.48,4.81-3.64.64-2.28-.41-4.7-2.51-5.79-.4-.21-.78-.41-1.15-.6-2.84-1.51-5.77-3.07-10.09-3.07h0Z"/>
      </g>
      <g>
        <path class="cls-8" d="M203.01,278.55c-7.75,0-15.82-1.62-22.18-4.45-2.82-.85-7.2-3.2-8.55-3.97-10.73-6.18-19.85-15.22-27.87-27.63-15.79-24.41-18.38-59.66,7.91-76.9,4.86-3.19,12.29-5.02,20.37-5.02,3.4,0,6.69.34,9.52.98,9.32.94,25.03,8.99,31.51,15.03,1.06.99,1.4,2.52.86,3.87-.53,1.33-1.82,2.19-3.25,2.19h-.05c-.94-.01-1.71-.17-2.34-.39-.01.22-.05.45-.11.67l-.12.48c-.26.98-.92,1.8-1.83,2.25-.49.24-1.02.36-1.56.36-.46,0-.92-.09-1.35-.27-.92-.38-5.1-3.34-5.14-3.37-4.03-2.91-7.72-4.05-12.4-5.49-1.02-.31-2.06-.64-3.14-.99-2.59-.51-4.7-.85-7.07-.99-.62-.04-1.23-.05-1.84-.05-12.94,0-22.93,7.95-25.45,20.25-5.06,24.68,12.56,50.24,31.7,61.76,1.75,1.05,3.97,1.96,6.12,2.84,1.07.44,2.17.89,3.23,1.37l.97.29c3.57,1.05,7.26,2.14,10.68,2.14.45,0,.89-.02,1.31-.06.1,0,.21-.01.31-.01.92,0,1.8.36,2.46,1.01.73.72,1.11,1.73,1.03,2.75-.03.45.36,1.7.65,2.61.45,1.41.96,3.02,1.16,4.8.11.96-.19,1.93-.82,2.67-.63.74-1.54,1.18-2.51,1.22-.73.03-1.46.05-2.21.05Z"/>
        <path d="M172.68,164.07c3.24,0,6.34.33,8.96.94,8.31.73,23.5,8.37,29.69,14.13-1.96-.03-2.43-1.11-3.26-1.11-.66,0-1.55.69-3.6,3.16.43.43.5.48.97.85l-.12.48c-.32-.13-3.93-2.61-4.44-2.97-5.49-3.96-10.48-5-16.71-7.03-2.67-.53-5.02-.93-7.75-1.09-.69-.04-1.37-.06-2.04-.06-14.16,0-25.93,8.62-28.88,23.04-5.22,25.46,12.01,52.63,33.33,65.46,2.97,1.78,6.75,3.05,9.93,4.5,4.14,1.21,8.53,2.64,12.88,2.64.54,0,1.08-.02,1.62-.07-.16,2.1,1.48,4.97,1.82,8.06-.68.03-1.37.04-2.07.04-6.99,0-14.74-1.43-20.97-4.25-2.13-.59-6.15-2.64-8.02-3.72-11.23-6.47-19.72-15.73-26.68-26.49-14.29-22.09-17.9-55.81,6.89-72.07,4.69-3.08,11.84-4.44,18.45-4.44M172.68,157.07c-8.75,0-16.87,2.04-22.29,5.59-13.19,8.65-20.74,22.67-21.26,39.49-.43,14.06,4.06,29.45,12.33,42.24,8.33,12.89,17.84,22.29,29.06,28.76,1.51.87,5.91,3.22,9.06,4.22,6.77,2.97,15.27,4.67,23.41,4.67.79,0,1.59-.02,2.36-.05,1.94-.08,3.76-.96,5.02-2.44,1.26-1.47,1.86-3.41,1.64-5.33-.24-2.13-.83-3.98-1.3-5.47-.17-.55-.41-1.28-.48-1.64.05-1.93-.7-3.8-2.08-5.16-1.32-1.3-3.08-2.02-4.92-2.02-.2,0-.41,0-.61.03-.32.03-.66.04-1.01.04-2.92,0-6.36-1.02-9.69-2l-.76-.22c-1.04-.46-2.09-.89-3.12-1.32-2.03-.83-4.12-1.69-5.65-2.61-18.11-10.89-34.81-34.95-30.07-58.05,2.21-10.76,10.65-17.45,22.03-17.45.54,0,1.09.02,1.64.05,2.12.12,3.98.42,6.4.89,1.02.33,2.02.64,2.98.94,4.55,1.4,7.83,2.41,11.39,4.98.04.03,4.37,3.15,5.84,3.76.86.36,1.78.54,2.69.54,1.07,0,2.13-.24,3.11-.73,1.2-.6,2.2-1.52,2.88-2.65h.02c2.85,0,5.42-1.73,6.49-4.39,1.08-2.69.4-5.76-1.72-7.73-6.86-6.39-23.08-14.79-33.33-15.93-3.04-.67-6.51-1.02-10.09-1.02h0Z"/>
      </g>
      <path class="cls-10" d="M188.75,264.37c4.65,1.36,9.62,3,14.5,2.57-.16,2.1,1.48,4.97,1.82,8.06-7.49.31-16.19-1.11-23.03-4.2,1.28-.5,5.82,1.97,8.32,2.26l.12-.29c-1.18-.04-1.5.05-2.24-.9-.04-1.33,1.64-3.31,2.78-3.79-.09-1.25.16-1.35.92-2.14-1.47-.71-2-.23-3.18-1.57Z"/>
      <path class="cls-10" d="M181.64,165.02c8.31.73,23.5,8.37,29.69,14.13-3.52-.05-2.25-3.5-6.86,2.05.43.43.5.48.97.85l-.12.48c-.32-.13-3.93-2.61-4.44-2.97-5.49-3.96-10.48-5-16.71-7.03l.03-.31c2.39.17,6.52,1.86,8.91,2.68.31-1.48-1.27-2.2.26-3.75.98-.24.52-.29,1.42.09.1-3.36-10.27-5.04-13.02-5.7l-.12-.52Z"/>
      <g>
        <path class="cls-11" d="M201.59,275.39c-.12-1.1-.5-2.3-.87-3.46-.54-1.7-1.09-3.45-.96-5.25l.21-2.79,2.77-.41c1.46-.21,2.96-.47,4.47-.75,7.13-1.38,11.62-4.13,15.49-9.51.69-.96,1.29-1.97,1.92-3.03.56-.95,1.14-1.94,1.82-2.93l2.25-3.27,2.93,2.28c1.74,1.36,3.28,2.18,5.51,3.22l2.92,1.37-1.13,3.02c-5.8,15.57-15.82,22.92-33.52,24.61l-3.43.33-.38-3.42Z"/>
        <path d="M229.47,249.03c2.03,1.58,3.84,2.54,6.17,3.63-5.55,14.91-14.86,20.85-30.57,22.34-.35-3.09-1.98-5.96-1.82-8.06,1.54-.23,3.08-.49,4.61-.78,7.65-1.48,13.05-4.48,17.68-10.9,1.44-1.99,2.44-4.06,3.79-6.04l.14-.2M227.91,238.95l-4.21,6.11-.14.2c-.76,1.11-1.37,2.15-1.96,3.15-.59,1-1.14,1.94-1.74,2.77-3.38,4.69-6.99,6.89-13.33,8.12-1.43.27-2.89.52-4.3.73l-5.54.82-.42,5.59c-.18,2.47.51,4.65,1.12,6.57.32,1,.64,2.03.73,2.79l.77,6.84,6.85-.65c18.97-1.8,30.21-10.09,36.46-26.87l2.25-6.05-5.85-2.73c-2.04-.95-3.35-1.65-4.84-2.81l-5.86-4.56h0Z"/>
      </g>
      <g>
        <path class="cls-11" d="M224.22,214.27c-3.33-8.58-8.15-16.18-14.73-23.22-1-1.07-2.55-2.42-4.05-3.73-.9-.79-1.77-1.55-2.51-2.24l-.13-.13s-.65-.67-1.07-1.09l-2.22-2.26,2.02-2.44c1.47-1.77,4.38-4.7,4.5-4.82l1.76-1.77,2.24,1.09c.49.24,1.61.92,3.58,2.82,10.45,8.17,19.1,20.27,23.16,32.39l1.03,3.09-3.01,1.25c-2.2.91-3.37,1.56-5.61,2.82l-3.52,1.98-1.46-3.76Z"/>
        <path d="M208.52,176.83s.84.41,2.81,2.32c9.76,7.58,18.23,19.16,22.14,30.85-2.4,1-3.75,1.75-5.99,3.01-3.58-9.21-8.68-17.11-15.43-24.34-1.75-1.88-4.74-4.3-6.73-6.15,0,0-.66-.68-1.08-1.11,1.39-1.67,4.29-4.58,4.29-4.58M207.08,168.35l-3.52,3.53c-.32.32-3.17,3.19-4.72,5.05l-4.05,4.87,4.44,4.51c.41.42,1.05,1.08,1.05,1.08l.12.13.13.12c.79.74,1.71,1.54,2.59,2.31,1.36,1.19,2.91,2.55,3.79,3.49,6.26,6.71,10.85,13.93,14.02,22.09l2.92,7.53,7.04-3.96c2.18-1.23,3.23-1.81,5.24-2.64l6.02-2.5-2.07-6.18c-4.25-12.69-13.27-25.35-24.18-33.93-1.72-1.64-3.18-2.76-4.35-3.32l-4.49-2.17h0Z"/>
      </g>
      <g>
        <path class="cls-5" d="M167.49,287.35c-.39,0-.78-.07-1.16-.2l-.67-.24c-4.94-1.73-7.91-2.78-12.85-6.07-.89-.6-1.46-1.57-1.55-2.63-.08-1.07.32-2.12,1.11-2.84l.08-.07c.97-.9,2.15-2,2.49-2.55-.11-.24-.44-.81-1.39-1.82-1.82-1.94-3.81-3.86-5.74-5.72-2.56-2.47-5.2-5.02-7.64-7.79-1.09-1.23-2.33-2.56-3.62-3.56-1.17.47-1.65,1.05-3.23,2.96-.67.81-1.66,1.27-2.7,1.27-.06,0-.12,0-.18,0-1.11-.06-2.12-.64-2.73-1.56-3.55-5.34-5.99-10.32-8.42-17.17-.37-1.03-.23-2.18.38-3.09s1.6-1.5,2.69-1.57c1.28-.08,2.46-.2,3.57-.32.11-.16.17-.28.19-.34-.2-2.58-.71-5.36-1.21-8.05-.35-1.91-.72-3.88-.98-5.82-.33-2.49-.59-4.99-.83-7.4-.14-1.42-.29-2.86-.45-4.31-.58-.21-1.16-.35-2.02-.54-.96-.21-1.78-.8-2.28-1.65-.5-.84-.62-1.85-.33-2.79,2.03-6.69,4.72-11.94,8.21-16.05l.4-.5c1.14-1.41,2.32-2.87,3.75-4.27.67-.66,1.56-1,2.45-1,.63,0,1.27.17,1.83.52,1.37.84,1.99,2.51,1.5,4.04-1.67,5.28-2.53,12.97-2.63,15.91-1.08,34.2,27.27,69.28,60.67,75.08,2.92.51,6.96.57,10.52.63.82.01,1.6.02,2.34.04,1.61.04,2.99,1.17,3.34,2.75.35,1.58-.43,3.19-1.88,3.89l-.13.06c-1.87.92-3.68,1.75-5.29,1.9-1.33.12-2.74.19-4.21.19-7.4,0-16.59-1.56-27.33-4.63,0,0,0,0-.01,0-.16.58-.31,1.2-.46,1.8l-.21.84c-.24.96-.87,1.77-1.74,2.23-.52.28-1.09.42-1.66.42Z"/>
        <path d="M132.84,185.16c-1.76,5.57-2.69,13.64-2.79,16.86-1.13,35.82,28.15,72.49,63.57,78.64,3.9.68,9.39.63,13.38.72-1.11.54-3.06,1.52-4.21,1.62-1.25.12-2.55.17-3.89.17-9.1,0-19.72-2.53-27.76-4.9-.78.45-1.69.93-2.49,1.36-.49,1.34-.81,2.82-1.15,4.21-5.38-1.89-7.97-2.73-12.73-5.91,3.74-3.47,5.47-5.01,1.35-9.4-4.3-4.58-9.13-8.69-13.3-13.43-1.65-1.86-3.55-3.86-5.7-5.11-3.51,1.04-4.17,1.82-6.47,4.59-3.61-5.44-5.88-10.32-8.04-16.41,1.77-.12,3.34-.28,5.1-.49.34-.34.65-.7.94-1.08.6-.78,1.06-1.77.99-2.76-.35-4.67-1.6-9.53-2.23-14.16-.61-4.54-.94-9.08-1.52-13.65-1.75-.84-2.65-1.15-4.51-1.55,1.62-5.32,3.91-10.54,7.53-14.8,1.29-1.58,2.47-3.1,3.93-4.53M132.84,178.16c-1.78,0-3.55.68-4.9,1.99-1.58,1.55-2.83,3.09-4.03,4.58l-.4.49c-3.78,4.47-6.67,10.11-8.84,17.23-.57,1.87-.33,3.89.66,5.58.91,1.55,2.37,2.68,4.09,3.18.07.64.13,1.27.19,1.9.25,2.44.5,4.97.85,7.51.28,2.03.65,4.05,1.01,6,.29,1.57.58,3.1.8,4.57-.04,0-.09,0-.13,0-2.19.14-4.18,1.3-5.39,3.14s-1.48,4.12-.75,6.19c2.54,7.14,5.09,12.34,8.81,17.94,1.23,1.84,3.25,3,5.46,3.12.12,0,.24,0,.37,0,2.08,0,4.06-.93,5.39-2.54.13-.16.28-.34.43-.52.45.48.84.91,1.1,1.21,2.52,2.86,5.22,5.46,7.83,7.98,1.71,1.65,3.33,3.22,4.88,4.82-.07.06-.13.12-.2.18l-.08.07c-1.57,1.46-2.39,3.55-2.22,5.69.17,2.14,1.31,4.08,3.09,5.27,5.3,3.54,8.44,4.64,13.64,6.46l.67.23c.75.26,1.54.4,2.32.4,1.15,0,2.29-.28,3.32-.84,1.48-.8,2.62-2.1,3.22-3.65,9.61,2.54,17.96,3.82,24.87,3.82,1.58,0,3.1-.07,4.54-.2,2.19-.21,4.32-1.18,6.49-2.24l.14-.07c2.9-1.42,4.45-4.64,3.76-7.79-.69-3.15-3.45-5.42-6.68-5.5-.74-.02-1.54-.03-2.37-.04-3.26-.05-7.32-.11-9.96-.57-31.81-5.53-58.81-38.95-57.78-71.53.08-2.69.92-10.08,2.47-14.97.97-3.06-.27-6.39-3.01-8.07-1.13-.7-2.4-1.04-3.67-1.04h0Z"/>
      </g>
      <g>
        <path class="cls-6" d="M143.71,280.25c-5.56,0-10.62-2.93-13.22-7.64-2.67-4.86-2.24-10.76,1.2-16.18l1.62-2.45c.57-.86,1.49-1.43,2.52-1.54.13-.02.27-.02.4-.02.89,0,1.75.34,2.4.95,1.09,1.03,6,5.94,7.49,7.82l.21.21c.87.86,1.77,1.76,2.65,2.7l.08.08c2.22,2.12,4.32,4.12,6.35,6.79,1.1,1.44.92,3.48-.42,4.71-3.28,3-7.18,4.58-11.29,4.58Z"/>
        <path d="M136.23,255.91c1.31,1.24,6.31,6.29,7.27,7.6,1.02,1.01,2.02,2,2.99,3.05,2.27,2.17,4.24,4.03,6.15,6.53-2.79,2.55-5.95,3.66-8.93,3.66-8.33,0-15.28-8.64-9.06-18.45l1.58-2.39M136.23,248.91c-.27,0-.53.02-.8.05-2.05.24-3.89,1.37-5.04,3.09l-1.58,2.39s-.05.08-.08.12c-4.14,6.53-4.62,13.73-1.31,19.75,3.21,5.83,9.45,9.46,16.28,9.46,4.93,0,9.78-1.95,13.66-5.5,2.68-2.45,3.04-6.53.84-9.41-2.2-2.89-4.4-4.98-6.73-7.2h0c-.89-.96-1.78-1.84-2.64-2.69l-.13-.13c-1.94-2.36-6.93-7.29-7.68-8-1.31-1.23-3.03-1.91-4.8-1.91h0Z"/>
      </g>
      <path class="cls-13" d="M137.83,264.82c.22.78-.18,1.6-.93,1.9-.75.3-1.6-.01-1.98-.73-.38-.72-.15-1.6.52-2.05.67-.45,1.57-.32,2.09.3.14.17.24.36.31.58Z"/>
      <g>
        <path class="cls-6" d="M124.3,236.5c-.09,0-.19,0-.29-.01-6.33-.52-13.28-2.2-16.83-10.78-.04-.1-.08-.21-.11-.32-1.98-6.5.45-12.43,6.66-16.27.21-.13.42-.23.65-.31l.44-.16c1.53-.56,3.62-1.33,5.64-1.33.31,0,.62.02.91.05.85.1,1.63.51,2.19,1.15,1.38,1.55,1.5,3.84,1.52,6.66,0,.26,0,.49,0,.68.08,2.95.77,6.31,1.44,9.56.5,2.41,1.01,4.9,1.26,7.2.11,1.04-.24,2.07-.97,2.82-.66.68-1.57,1.06-2.51,1.06Z"/>
        <path d="M120.45,210.81c.17,0,.33,0,.49.03.73.83.61,3.82.65,5.12.16,5.56,2.15,11.88,2.72,17.05-6.44-.53-11.24-2.25-13.88-8.63-1.6-5.26.66-9.5,5.15-12.28,1.39-.5,3.33-1.28,4.88-1.28M120.45,203.81h0c-2.64,0-5.07.9-6.85,1.55l-.42.15c-.45.16-.89.37-1.3.63-7.55,4.67-10.6,12.25-8.16,20.27.07.22.14.43.23.64,4.34,10.5,13.37,12.41,19.78,12.93.19.02.38.02.57.02,1.88,0,3.69-.76,5.02-2.12,1.46-1.5,2.17-3.57,1.94-5.64-.27-2.47-.8-5.04-1.31-7.52-.64-3.1-1.3-6.31-1.37-8.95,0-.17,0-.38,0-.61-.02-2.66-.04-6.29-2.4-8.95-1.13-1.28-2.69-2.1-4.39-2.31-.43-.05-.88-.08-1.34-.08h0Z"/>
      </g>
      <g>
        <path class="cls-6" d="M182.95,301.52c-1.87,0-3.7-.36-5.43-1.08-3.59-1.47-6.47-4.25-7.89-7.63-1.27-3.03-1.27-6.23-.02-9.27.26-.64.71-1.19,1.28-1.57l.17-.12c.3-.22,1.11-.81,2.33-.81.5,0,.89.1,1.1.16.05.01.13.03.24.06.1.02.19.04.28.07,2.51.71,5,1.37,7.4,1.96,2.53.65,4.78.9,7.16,1.16,1.39.15,2.82.31,4.39.55.94.14,1.77.66,2.32,1.44.55.77.76,1.74.58,2.67-.67,3.58-2.26,8.64-8.32,11.29-1.79.77-3.67,1.15-5.59,1.15Z"/>
        <path d="M173.39,284.53c.1,0,.25.07.67.15,2.49.7,4.99,1.37,7.51,1.99,4.23,1.09,7.63,1.12,11.86,1.78-.75,4.02-2.33,6.99-6.28,8.72-1.34.57-2.76.86-4.19.86s-2.78-.27-4.09-.82c-4.87-1.99-8.15-7.16-6.02-12.34.37-.25.43-.33.55-.33M173.39,277.53c-2.36,0-3.89,1.12-4.39,1.48l-.06.04c-1.15.77-2.04,1.87-2.56,3.14-1.59,3.86-1.58,8.11.03,11.96,1.77,4.23,5.35,7.71,9.81,9.53,2.12.88,4.4,1.34,6.73,1.34s4.74-.48,6.94-1.42c.02,0,.03-.02.05-.02,8.46-3.7,9.89-11.34,10.36-13.85.35-1.86-.07-3.79-1.17-5.33s-2.77-2.58-4.65-2.87c-1.64-.25-3.12-.42-4.54-.57-2.35-.26-4.38-.48-6.63-1.06-.02,0-.05-.01-.07-.02-2.34-.58-4.79-1.23-7.28-1.93-.19-.05-.37-.1-.56-.13-.33-.09-1.05-.28-2.01-.28h0Z"/>
      </g>
      <path class="cls-13" d="M175.25,287.7c2.05.7,2.45.89,3.54,2.78-.34,1.14-.49,1.27-1.54,1.62-2.11-.22-3.64-2.64-2-4.4Z"/>
      <g>
        <path class="cls-6" d="M124.19,189.23c-.25,0-.5-.03-.76-.08-1.07-.24-1.97-.96-2.43-1.96-2-4.37-3.06-10.8.35-14.83,2.49-4.21,6.43-6.43,11.42-6.43,1.09,0,2.27.11,3.5.31.24.04.47.1.69.19,2.08.81,2.7,1.17,4.49,2.37.95.63,1.53,1.68,1.56,2.82s-.49,2.22-1.41,2.9c-5.41,4.03-9.09,7.29-12.31,10.9l-.42.48c-.74.84-1.58,1.8-2.41,2.5-.64.55-1.45.84-2.27.84Z"/>
        <path d="M132.78,169.41c.93,0,1.9.09,2.91.27,1.8.71,2.21.94,3.83,2.02-4.65,3.47-8.96,7.04-12.83,11.37-.71.8-1.71,1.98-2.5,2.65-1.45-3.16-2.62-8.51.03-11.33,2.02-3.62,5.01-4.99,8.56-4.99M132.78,162.41h0c-6.11,0-11.15,2.8-14.28,7.9-4.25,5.26-3.19,12.83-.68,18.33.91,2,2.71,3.45,4.86,3.92.5.11,1.01.16,1.51.16,1.65,0,3.27-.58,4.55-1.68,1.02-.87,1.99-1.97,2.77-2.86l.4-.45c3.06-3.43,6.59-6.54,11.8-10.43,1.82-1.36,2.87-3.52,2.81-5.8-.06-2.27-1.22-4.38-3.12-5.64-1.98-1.32-2.85-1.81-5.15-2.71-.44-.17-.91-.3-1.38-.38-1.42-.24-2.79-.36-4.09-.36h0Z"/>
      </g>
      <path class="cls-13" d="M127.38,172.31c2.16-.21,5.57-1.11,7.08-.38.43.62.32.27.2,1.13-4.09.76-4.28,2.88-7.88,3.4-.45.06-.46-.11-.82-.48-.2-1.62.51-2.38,1.42-3.67Z"/>
      <g>
        <path class="cls-6" d="M221.81,287.71c-1.37,0-2.73-.2-4.17-.61-.31-.09-.6-.21-.87-.38l-.17-.1c-1.02-.62-2.08-1.26-2.9-3.12-.6-1.35-.29-2.93.78-3.95,1.27-1.21,3.27-2.54,5.2-3.83.94-.62,1.82-1.21,2.45-1.68,2.65-1.96,5.05-3.94,7.37-5.86.64-.53,1.43-.8,2.23-.8.46,0,.92.09,1.36.27,4.43,1.87,2.7,8.61,2.62,8.9-1.11,4.17-3.72,7.6-7.17,9.41-2.24,1.17-4.45,1.74-6.75,1.74Z"/>
        <path d="M231.75,270.89c1.24.52.87,3.76.6,4.77-.79,2.97-2.64,5.75-5.41,7.2-1.72.9-3.4,1.34-5.13,1.34-1.04,0-2.1-.16-3.21-.47-.96-.58-1.29-.74-1.69-1.65,1.62-1.55,5.35-3.77,7.32-5.22,2.66-1.96,4.97-3.87,7.52-5.98M231.75,263.89c-1.6,0-3.18.55-4.46,1.6-2.39,1.98-4.65,3.84-7.22,5.74-.56.41-1.41.98-2.31,1.58-2.06,1.37-4.19,2.79-5.68,4.21-2.14,2.04-2.77,5.2-1.57,7.9,1.17,2.64,2.76,3.76,4.29,4.69l.16.1c.54.33,1.12.58,1.73.76,1.73.49,3.45.74,5.12.74,2.84,0,5.66-.72,8.37-2.14,4.32-2.26,7.57-6.49,8.93-11.61,1.31-4.95.38-10.9-4.65-13.02-.88-.37-1.8-.55-2.72-.55h0Z"/>
      </g>
      <path class="cls-14" d="M56.7,164.66c5.29-.2,15.12,3.61,20.69,4.67,3.17.61,8.23,2.12,10.48,4.41-1.34,6.84-6.06,15.53-8.59,22.21-1.79,4.7-3.66,11.81-8.87,13.28-3.65,1.03-6.92.38-10.24-1.37-3.28-1.73-4.29-4.04-5.28-7.35.15-.58.32-1.17.53-1.74.91-2.38,2.76-4.29,5.11-5.27,4.56-1.88,8.34,0,12.47,1.75.97-2.61,1.98-5.2,3.01-7.79.8-1.81,1.56-3.74,2.32-5.58-6.39-1.93-15.38-3.76-21.93-4.92-2.59,6.64-5.42,14.57-8.62,20.81-2.79,5.45-13.03,4.88-16.81.85-1.61-1.72-2.05-2.49-2.96-4.69l.68-4.3c5.19-6.55,9.96-5.63,16.69-2.3,2.53-6.28,5.82-14.5,8.9-20.52.37-.72,1.7-1.63,2.41-2.13Z"/>
      <path class="cls-7" d="M313,316.8c5.88,0,10.35,7.42,11.44,12.56,1.21,5.67-.89,10.37-3.9,15.02,5.55,5.93,8.87,16.05,3.54,23.89-1.17,1.72-3.33.42-4.51-.78-.71-1.84.31-5.06.55-7.19.53-4.69-.9-7.57-3.68-11.11-4.87,4.09-7.41,5.59-13.43,7.69-7.99,2.66-20.97,3.62-22.77-7.5-.5-3.22.29-6.51,2.19-9.16,7.96-11.15,24.67-6.07,33.9.54,4.45-7.17,3.84-12.3-1.89-18.42-1-1.07-2.24-2.34-2.48-3.77.13-.94.39-1.09,1.05-1.77Z"/>
      <path class="cls-2" d="M295.55,339.43c7.04.06,10.88,2.4,16.71,5.93-3.56,3.29-6.55,4.61-11.03,6.22-3.94,1.37-9.79,2.67-13.49.04-2.85-2.03-2.84-6.09-.61-8.6,2.31-2.58,5.13-3.29,8.42-3.6Z"/>
      <path class="cls-5" d="M20.09,116.31c.97-2.81,10.36-25.59,12.16-26.32,1.3-.53,3.16.42,4.4.87l.07,5.41c2.69,4.75,9.3,10.68,7.57,16.32-.48,2.76-2.04,5.21-4.33,6.81-.68.49-.89.57-1.68.79-3.01-2.06,1.58-7.65-7.2-14.23-2.79,6.06-5.32,12.36-8.06,18.48-3.41,7.94-10.56,8.61-17.6,4.98-8.14-4.19-6.84-14.5,2-16.53,4.59-1.05,8.89.97,12.66,3.43Z"/>
      <path class="cls-5" d="M38.28,120.18c1.24-1.59,2.61-2.31,3.83-4.38.67-1.15,1.2-2.61,2.18-3.22-.48,2.76-2.04,5.21-4.33,6.81-.68.49-.89.57-1.68.79Z"/>
      <path class="cls-11" d="M95.62,90.17c3.04.22,5.45.04,8.05,2.34,3.07,2.7.87,10.35-3.29,10.43-1.51.03-3.29-1.36-4.35-2.46-2.22,5.44-6.61,19.68-13.61,19.37-4.05-.76-8.74-1.92-9.99-6.53-.46-1.7-.2-3.52.73-5.02,3.25-5.31,10.07-4.32,14.5-1.18,2.36-6.08,5.06-11.11,7.95-16.94Z"/>
      <path class="cls-10" d="M57.52,132.88c6.08-.22,6.19,3.95,5.28,8.53-1.5,1.66-2.24,2.02-4.21,2.83-6.54.03-7.99-5.96-3.91-10.65l2.85-.71Z"/>
      <path class="cls-6" d="M18.7,151.07c1.47-.15,2.29-.21,3.65.48,1.33.68,2.33,1.86,2.77,3.29.54,1.74.33,3.62-.58,5.19-.95,1.62-1.75,1.97-3.47,2.45-2.29.07-4.6-.93-5.83-2.92-.77-1.24-.98-2.74-.59-4.15.66-2.34,2.08-3.29,4.05-4.34Z"/>
      <polyline class="cls-3" points="317.16 88.27 303.85 101.68 321.06 106.66"/>
      <polyline class="cls-3" points="225.83 121.76 241.05 110.57 224.26 102.42"/>
      <path class="cls-1" d="M309.84,216.81s-24,3.52-53.94-3.81-32.41,8.51-32.66,14.2-3.96,23.51,28.95,26.72,56.66-3.22,56.66-3.22"/>
    </g>
  </g>
</svg>