<?xml version="1.0" encoding="UTF-8"?>
<svg id="Layer_2" data-name="Layer 2" xmlns="http://www.w3.org/2000/svg" viewBox="0 0 299.1 321.53">
  <defs>
    <style>
      .cls-1 {
        fill: #090909;
      }

      .cls-2 {
        fill: #f6f2ec;
      }

      .cls-3 {
        fill: #fefefe;
      }
    </style>
  </defs>
  <g id="Layer_1-2" data-name="Layer 1">
    <g>
      <path class="cls-1" d="M150.53,288.35c-.02-1.43-3.48-1.38-3.49-.46l-.41,20.06c-.09,4.5-2.82,11.15-7.77,12.28-7.97,1.81-16.35,1.44-24.34.33-4.31-.6-8.83-4.21-10.76-7.69-3.68-6.64-.43-13.01,3.4-18.61,2.21-3.23.5-8.92.31-12.66-7.13-3.35-11.82-8.02-16.13-14.3-7.4,12.3-21.95,14.92-32.98,7.95-19.29-18.33.48-39.2,18.43-56.12-16.12-3.9-31.56-7.53-45.42-16.35-8.81-5.61-15.07-14.65-19.15-24.53C-1.44,145.12-3.57,108.38,5.44,73.75c3.1-11.93,7.43-22.61,13.92-32.84C30.77,22.91,56.66,12.78,77.77,8.01c46.42-10.49,94.17-10.64,140.69-.65,14.58,3.13,27.78,7.68,40.51,14.76,11.88,6.61,20.42,15.8,26.17,28.26,13.58,29.45,17.01,62.35,11.37,94.39-3.77,21.44-11.91,48.91-30.86,59.44-13.4,7.44-27.76,11.32-43.22,14.97,14.74,14.17,33.32,32.55,23.59,49.68-3.37,5.93-9.78,10.49-17.51,10.2-8.37-.31-15.3-3.23-20.16-10.97-4.96,7.3-11,11.68-18.58,14.97l-.36,10.67c3.84,4.19,6.68,9.53,5.6,15.55-.95,5.31-5.83,9.96-11.49,11.04-8.14,1.55-17.23,1.8-25.38-.29-4.68-1.21-7.23-7.73-7.3-11.89l-.3-19.77ZM164.95,279.36c7.85-.01,14.93-1.6,21.55-4.39,15.03-6.35,19.89-20.35,18.5-36.39-.22-2.5,1.12-4.21,3.06-4.59,7.44-1.48,5.61,12.67,3.35,24.57,2.96,4.32,5.91,9.08,10.48,11.03,5.79,2.48,12.44,1.47,15.86-2.98,3.47-4.52,3.83-10.02.84-15.55-6.5-12.02-16.68-21.39-27.07-30.38l-8.93.82c-2.73.25-4.42-1.22-4.65-3.53-.2-2,1.09-4.08,3.77-4.32,20.83-1.86,41.06-6.72,59.68-16.39,15-7.79,22.49-31.48,26.11-48.55,6.68-31.53,4.05-64.1-9.06-93.44-4.93-11.04-12.09-19.52-22.49-25.45-11.1-6.33-22.47-10.64-35.25-13.62-46.61-10.88-94.64-10.82-141.33-.26-12.11,2.74-22.84,6.84-33.54,12.31-13.07,6.69-21.33,17.17-26.84,30.75-11.61,28.62-13.83,59.68-7.34,90.03,2.54,11.88,5.8,22.85,11.7,33.2,4.71,8.28,10.96,13.98,19.72,17.76,17.46,7.54,35.68,12.22,54.79,13.56,2.67.19,3.86,2.34,3.67,4.4-.21,2.31-1.91,3.87-4.66,3.57l-9.01-.97c-10.59,8.72-20.67,18.28-27.25,30.26-3.2,5.82-2.85,11.82,1.33,16.41,3.62,3.97,9.81,4.8,15.43,2.24,4.51-2.05,7.47-6.68,10.33-10.99-2.27-11.08-4.17-25.35,2.89-24.54,6.91.8-.28,13.01,7.07,27.53,6.55,12.95,22.69,17.96,37.28,17.94l30-.05ZM136.15,312.39c2.23-.62,2.62-5.28,2.6-7.03l-.2-17.84c-7.97.09-15.07-.81-22.6-2.7l-.15,13.63c-3.37,2.06-6.31,5.28-5.33,9.6,1.42,6.22,17.77,6.55,25.67,4.35ZM186.77,308.52c1.28-4.28-1.57-7.91-5.1-10.1l-.43-12.84-22.48,1.91v18.79c0,1.67.61,5.42,2.26,6.2,9.65,1.59,24.03,1.81,25.76-3.96Z"/>
      <path class="cls-3" d="M164.95,279.36l-30,.05c-14.59.02-30.73-4.99-37.28-17.94-7.35-14.52-.16-26.73-7.07-27.53-7.05-.81-5.16,13.46-2.89,24.54-2.86,4.31-5.82,8.94-10.33,10.99-5.62,2.56-11.81,1.72-15.43-2.24-4.19-4.58-4.54-10.58-1.33-16.41,6.59-11.98,16.67-21.54,27.25-30.26l9.01.97c2.75.3,4.44-1.26,4.66-3.57.19-2.06-1-4.21-3.67-4.4-19.11-1.34-37.34-6.02-54.79-13.56-8.76-3.78-15.01-9.49-19.72-17.76-5.9-10.36-9.16-21.32-11.7-33.2-6.49-30.35-4.28-61.41,7.34-90.03,5.51-13.59,13.77-24.07,26.84-30.75,10.7-5.47,21.43-9.57,33.54-12.31,46.68-10.56,94.72-10.62,141.33.26,12.78,2.98,24.15,7.29,35.25,13.62,10.4,5.93,17.56,14.41,22.49,25.45,13.12,29.34,15.74,61.91,9.06,93.44-3.62,17.07-11.11,40.76-26.11,48.55-18.63,9.67-38.85,14.53-59.68,16.39-2.68.24-3.97,2.31-3.77,4.32.23,2.31,1.92,3.79,4.65,3.53l8.93-.82c10.39,8.99,20.57,18.37,27.07,30.38,2.99,5.53,2.63,11.02-.84,15.55-3.41,4.45-10.06,5.46-15.86,2.98-4.57-1.95-7.52-6.72-10.48-11.03,2.26-11.89,4.09-26.04-3.35-24.57-1.94.39-3.27,2.09-3.06,4.59,1.4,16.05-3.47,30.05-18.5,36.39-6.63,2.8-13.7,4.38-21.55,4.39ZM193.61,215.75c-30.92,2.09-57.98,2.35-88.16-.18,27.27,14.58,61.2,14.11,88.16.18Z"/>
      <path class="cls-3" d="M136.15,312.39c-7.9,2.2-24.25,1.87-25.67-4.35-.99-4.32,1.96-7.53,5.33-9.6l.15-13.63c7.53,1.89,14.63,2.78,22.6,2.7l.2,17.84c.02,1.75-.37,6.41-2.6,7.03Z"/>
      <path class="cls-3" d="M186.77,308.52c-1.73,5.77-16.11,5.55-25.76,3.96-1.64-.78-2.25-4.52-2.25-6.2v-18.79s22.47-1.91,22.47-1.91l.43,12.84c3.54,2.2,6.39,5.82,5.1,10.1Z"/>
      <path class="cls-2" d="M193.61,215.75c-26.96,13.93-60.89,14.4-88.16-.18,30.17,2.53,57.24,2.27,88.16.18Z"/>
    </g>
  </g>
</svg>