<?xml version="1.0" encoding="UTF-8"?>
<svg id="Layer_2" data-name="Layer 2" xmlns="http://www.w3.org/2000/svg" viewBox="0 0 268.25 321.73">
  <defs>
    <style>
      .cls-1 {
        fill: #090909;
      }

      .cls-2 {
        fill: #ffd872;
      }

      .cls-3 {
        fill: #fefefe;
      }
    </style>
  </defs>
  <g id="Layer_1-2" data-name="Layer 1">
    <g>
      <path class="cls-1" d="M116.83,310.63c-.92-6.75,1.47-10.99,4.97-15.66,1.46-1.95.41-6.32-.21-8.7-6.8-1.3-12.75-2.54-18.67-5.52-25.1-12.26-25.31-34.34-20.79-60.54-16.11-3.22-30.85-7.87-44.15-16.44-15.91-10.26-22.74-37.41-25.97-56.75-4.82-1.61-9.33-4.25-11.04-9.01-2.94-8.24,1.06-16.7,8.49-21.34.02-22.72,3.52-44.35,11.63-65.19,5.05-12.97,12.95-23.24,24.88-30.46,9.42-5.71,19.1-9.84,30.06-12.77,39.87-10.67,81.43-10.91,121.54-1.1,12.11,2.96,22.88,7.16,33.33,13.31,13.16,7.75,21.47,19.02,26.74,33.44,11.4,31.22,13.26,64.72,7.28,97.56-2.33,12.82-5.57,24.69-11.39,36.1-4.8,9.4-11.79,16.17-21.27,20.69-11.01,5.26-22.2,9.17-34.49,11.77,3.9,22.67,6.63,45.55-12.95,57.99-7.09,4.61-14.91,6.66-23.63,7.95l-.4,22.89c-.08,4.39-3.15,10.41-7.77,11.41-8.2,1.78-16.67,1.7-24.81,1.01-6.03-.51-10.57-4.59-11.39-10.64ZM139.59,279.55c12.26-.02,24.28-.89,35.5-5.31,21.88-8.62,18.72-31.1,14.99-52.78-2.04-.49-3.78-.1-5.68.01-2.71.16-4.26-1.38-4.44-3.53-.17-1.95.84-4.03,3.47-4.28,17.3-1.62,33.71-6.48,48.91-14.79,14.97-8.19,20.99-30.25,24.35-47.47,6.29-32.26,4.39-65.23-7.16-95.85-4.61-12.22-11.59-21.6-22.83-28.13-9.64-5.6-19.54-9.58-30.7-12.35-39.33-9.76-80.1-9.44-119.14,1.35-9.3,2.57-17.38,6.26-25.46,10.85-11.72,6.66-18.89,16.54-23.56,29.27-11.59,31.55-13.07,65.66-6.02,98.36l4.98-1.47c2.33-.69,4.36-.02,4.86,1.92.47,1.82-.43,3.42-2.5,4.12l-5.88,2,6.61,19.01c2.2,6.32,6.4,12.5,12.34,16.25,15.67,9.88,33.43,14.98,51.78,16.8,2.5.25,3.94,1.44,4.15,3.69.13,1.31-.5,3.88-2.54,3.99l-5.59.29c-1.44,8.21-2.66,16.25-2.25,24.59,1.32,26.74,27.11,33.48,51.84,33.44ZM150.86,312.73c1.64-2.04,2.1-4.69,2.1-6.48v-19.28s-22.77.12-22.77.12c.05,4.58.76,7.68-.36,12.56-4.17,1.33-7.86,10.18-3.09,12.43,7.14,3.37,16.43.92,24.12.65Z"/>
      <path class="cls-3" d="M139.59,279.55c-24.73.04-50.52-6.7-51.84-33.44-.41-8.33.81-16.37,2.25-24.59l5.59-.29c2.04-.11,2.67-2.68,2.54-3.99-.22-2.26-1.66-3.45-4.15-3.69-18.35-1.81-36.1-6.92-51.78-16.8-5.94-3.75-10.14-9.93-12.34-16.25l-6.61-19.01,5.88-2c2.06-.7,2.97-2.3,2.5-4.12-.5-1.94-2.53-2.61-4.86-1.92l-4.98,1.47c-7.05-32.7-5.57-66.81,6.02-98.36,4.68-12.73,11.84-22.6,23.56-29.27,8.08-4.6,16.16-8.28,25.46-10.85,39.04-10.79,79.81-11.12,119.14-1.35,11.16,2.77,21.05,6.76,30.7,12.35,11.24,6.52,18.22,15.9,22.83,28.13,11.56,30.63,13.46,63.6,7.16,95.85-3.36,17.22-9.37,39.28-24.35,47.47-15.2,8.31-31.61,13.17-48.91,14.79-2.63.25-3.63,2.33-3.47,4.28.18,2.15,1.73,3.69,4.44,3.53,1.91-.12,3.64-.5,5.68-.01,3.73,21.68,6.9,44.16-14.99,52.78-11.21,4.42-23.23,5.29-35.5,5.31ZM42.51,114.3c1.47-3.43,1.14-7.25.03-10.37s-3.68-4.53-6.38-4.61-4.86,1.18-6.22,3.86c-1.84,3.6-1.99,8.01-.18,11.7,1.27,2.58,3.91,4.06,6.28,4,2.55-.07,5.18-1.55,6.48-4.57ZM74.92,155.98c8.56-11.91,8.27-28.65-.16-40.14-3.5-4.77-8.51-7.4-13.81-7.39-4.93,0-9.81,2.55-13.19,7.04-8.96,11.9-8.95,29.27.02,41.17,3.57,4.73,8.69,7.17,14.11,6.95,4.67-.19,9.53-2.76,13.03-7.62ZM153.55,257.07c-1.22,7.31-6.36,12.65-14.08,12.53-8.55-.13-14.63-7.31-15.57-15.8-2.27-20.59,6.63-33.67-.94-34.45-2.71-.28-4.21,1.33-4.81,4.35-3.95,19.89-6.27,44.93,13.25,52.47,8.64,3.34,18.13,1.17,24.38-5.21,9.43-9.63,7.14-33.68,3.74-48.53-.59-2.57-3.29-3.24-4.97-2.75-6.66,1.92,2.63,15.6-1,37.4Z"/>
      <path class="cls-3" d="M150.86,312.73c-7.68.27-16.98,2.72-24.12-.65-4.77-2.25-1.08-11.1,3.09-12.43,1.12-4.88.42-7.98.36-12.56l22.78-.12v19.28c-.01,1.79-.46,4.45-2.11,6.48Z"/>
      <path class="cls-2" d="M74.92,155.98c-3.5,4.86-8.36,7.43-13.03,7.62-5.42.22-10.55-2.22-14.11-6.95-8.97-11.89-8.98-29.27-.02-41.17,3.38-4.49,8.26-7.04,13.19-7.04,5.3,0,10.31,2.62,13.81,7.39,8.43,11.49,8.72,28.23.16,40.14Z"/>
      <path class="cls-1" d="M153.55,257.07c3.64-21.79-5.66-35.48,1-37.4,1.68-.48,4.38.18,4.97,2.75,3.4,14.85,5.69,38.91-3.74,48.53-6.25,6.38-15.74,8.55-24.38,5.21-19.52-7.54-17.21-32.57-13.25-52.47.6-3.02,2.1-4.63,4.81-4.35,7.58.78-1.33,13.86.94,34.45.94,8.48,7.02,15.66,15.57,15.8,7.72.12,12.86-5.21,14.08-12.53Z"/>
      <path class="cls-1" d="M42.51,114.3c-1.29,3.02-3.93,4.5-6.48,4.57-2.37.06-5.01-1.42-6.28-4-1.81-3.69-1.66-8.09.18-11.7,1.37-2.68,3.64-3.94,6.22-3.86s5.28,1.52,6.38,4.61,1.44,6.94-.03,10.37Z"/>
    </g>
  </g>
</svg>