<?xml version="1.0" encoding="UTF-8"?>
<svg id="Layer_2" data-name="Layer 2" xmlns="http://www.w3.org/2000/svg" viewBox="0 0 374.18 329.14">
  <defs>
    <style>
      .cls-1 {
        fill: #fff;
      }

      .cls-2 {
        fill: #fad35f;
      }

      .cls-3 {
        fill: #df8a3b;
      }

      .cls-4 {
        fill: #5bb0d2;
      }

      .cls-5 {
        fill: #638cca;
      }

      .cls-6 {
        fill: #f0615e;
      }

      .cls-7 {
        fill: #8abd93;
      }

      .cls-8 {
        fill: #dfdfd6;
      }

      .cls-9 {
        fill: #50649c;
      }

      .cls-10 {
        fill: #060605;
      }
    </style>
  </defs>
  <g id="Layer_1-2" data-name="Layer 1">
    <g>
      <path class="cls-10" d="M361.49,178.58c-9.26,19.46-27.07,31.82-47.22,38.4,13.86,8.07,23.83,22.72,14.65,38.55-2.15,3.7-4.2,5.67-7.13,8.71,3.04,8.7-2.53,16.21-10.69,19.01-7.76,2.66-16.47.11-22.85-4.66-4.27,3.52-6.05,4.94-10.74,7.88.28,4.87.21,9.3.61,14.27,2.88,2.95,4.53,7.32,4.58,11.42.16,13.68-11.56,17.42-23.23,16.95-11.49-.47-20.86-2.71-22.78-15.53-.44-6.07-.03-13.86-.17-20.17l-3.98-.04c-.11,6.55.04,13.23.03,19.79-.91,5.36-2.22,8.88-6.95,12.24-6.93,4.59-16.96,3.97-24.91,3.12-4.15-.45-9.35-3.67-11.7-7.08-4.38-6.32-1.99-14.91,1.98-21-.04-2.67-.41-11.92-.11-13.7l-.24-.21c-2-1.75-4.44-2.8-6.57-4.45-9.14-7.06-13.21-16.46-14.12-27.77-.09-1.19-.16-2.38-.21-3.57-2.69.17-5.35.33-8.06.29-5.15-.05-10.08-1.15-15.23-1.53-7.44,4.52-22.22,2.98-30.37.78-6.04-1.63-11.46-5.17-14.71-10.72-4.1-7-5.83-18.55-4.15-26.49.68-3.23,3.51-8.7,4.48-12.09,1.02-3.52,1.34-6.75,2.56-10.19.61-1.74,3.61-6.04,3.43-7.16-.7-4.49-4.64-9.93-6.15-14.07-7.13-19.45-9.9-40.24-8.12-60.88.22-2.67.67-8.3,1.39-10.74-9.98,2.92-20.62,5.23-30.42.12-6.33-3.3-7.81-10.74-4.41-16.75,1.82-3.21,4.81-5.37,7.63-7.69,12.97-10.52,27.42-19.09,42.89-25.41,2.47-8.14,7.09-19.15,12.05-26.27,1.18-1.7,3.66-3.8,5.6-4.74,13.42-6.53,28.85-8.91,43.51-11.02,3.17-.47,6.98-.38,10.19-.79,3.66-.49,7.2-1.17,10.81-1.76,4.93-.79,9.86-1.46,14.82-2,26.99-3.1,54.3-1.76,80.85,3.96,24.59,5.48,53.51,16.6,66.83,39.56,1.36,2.36,2.75,4.77,4.28,7.01,2.7,3.14,8.44,5.34,10.47,9.77,2.74,5.94,4.58,17.96,3.62,24.6-.11.81-1.43,2.11-2.01,2.67,5.44,28.98,2.79,62.5-10.02,89.38Z"/>
      <path class="cls-1" d="M306.69,64.97c4.96,1.19,12.75,4.59,17.67,6.56,8.72,3.5,17.37,7.15,25.97,10.95,3.73,1.65,7.97,3.42,11.58,5.21,2.44,10.87,3.66,21.99,3.64,33.13-.18,19.39-5.82,45.08-15.93,60.86-14.02,21.89-41.32,28.87-64.98,33.61-.32.07-1.47,1.41-1.76,1.79-1.82-.35-8.03.89-10.36,1.13-3.61.36-7.58,1.02-11.24,1.25-16.45,1.03-35.37,2.06-51.75.28-4.34-.47-8.68-.97-13.01-1.49-2.7-.32-5.47-.74-8.19-.77-.84,0-1.08.28-1.78.65-.57-1.15-.82-1.41-1.64-2.37-6.33-2.38-13.58-2.35-20.58-5.71-.31-.98-.62-2.42-.83-3.42-1.33-6.29-3.5-10.9-6.81-16.37-2.69-4.45-2.26-12.14-2.27-17.42-.11-4.93-.13-8.88-3.26-12.97-2.32-3.04-5.78-5-9.59-5.44-5-.59-8.76.44-12.68,3.5-7.38,7.31-6.08,12.26-7.19,21.19-1.92-.35-4-.76-5.91-1.04-3.51-4.53-7.89-15.26-9.38-21.02-4.59-17.75-5.59-36.84-3.52-55.03.74-6.43,1.98-13.33,3.41-19.6.85-3.72,2.54-7.59,3.28-11.29,5.42-.34,10.88-.79,16.3-.97,14.96-.5,28.58,1.43,43.26,4.27,8.23,1.66,16.42,3.53,24.55,5.59,28.57,7.39,49.66,13.41,79.05,3.44,12.29-4.17,23.77-10.42,33.94-18.49Z"/>
      <path class="cls-2" d="M128.89,157.92c-2.68-4.32-3.76-14.03-2.45-19,1.73-6.57,6.67-13.38,12.37-17.13,6.54-4.29,15.37-4.78,22.85-3.07,5.96,1.36,13.16,7.3,16.25,12.53,5.67,9.9,5.44,23.4-2.1,32.29-.81.96-2.67,2.04-3.66,2.91-4.56,4.02-11.56,6.64-17.75,6.36-.11-4.93-.13-8.88-3.26-12.97-2.32-3.04-5.78-5-9.59-5.44-5-.59-8.76.44-12.68,3.5Z"/>
      <path class="cls-2" d="M309.42,117.3c15.06-1.78,28.71,8.98,30.51,24.04,1.8,15.06-8.93,28.74-23.98,30.56-15.09,1.83-28.8-8.93-30.61-24.03-1.81-15.09,8.98-28.79,24.07-30.57Z"/>
      <path class="cls-10" d="M233.15,112.09c8.63.09,16.75,5,17.57,14.3.32,3.66-1.4,7.66-3.83,10.35-3.25,3.6-7.81,5.75-12.65,5.96-1.12-.02-2.23-.05-3.34-.11-7.19-.39-14.17-5.75-14.9-13.23-.4-4.02.82-8.03,3.39-11.14,3.47-4.15,8.52-5.7,13.77-6.13Z"/>
      <path class="cls-10" d="M187.2,97.41c16.59-1.21,20.56,22.32,4.25,26.95-17.45,2.57-20.66-23.86-4.25-26.95Z"/>
      <path class="cls-10" d="M287.69,93.4c1.27.11,2.11.54,2.77,1.2,1.41,1.4,1.46,3.7.28,5.31-1.74,2.37-4.12,2.79-7.35,4.8-1.39.87-2.71,1.78-4.04,2.75,3.97.07,13.62,1.99,15.83,5.64.65,1.08.81,2.38.44,3.59-1.5,4.97-6.5,1.57-9.13.67l-.26-.09c-4.49-1.25-10.38-1.61-14.95-.68-5.41,1.1-8.97-1.98-5.52-7,4.39-6.36,14.27-14.52,21.91-16.2Z"/>
      <path class="cls-10" d="M261.58,139.75c2.41.33,4.38,2.34,3.42,4.79-2.26,5.78-9.16,11.21-14.63,14.1-10.35,5.47-24.2,6.16-35.18,2.78-2.65-1-5.87-4.28-2.67-6.78,1.8-1.41,6.23.07,8.55.44,11.48,1.84,24.11.16,32.99-7.96,2.4-2.17,5-5.73,7.53-7.38Z"/>
      <path class="cls-1" d="M186.55,218.11c.69-.37.93-.66,1.78-.65,2.72.03,5.49.45,8.19.77,4.34.52,8.67,1.02,13.01,1.49,16.38,1.78,35.3.75,51.75-.28,3.66-.23,7.63-.89,11.24-1.25,2.33-.24,8.54-1.47,10.36-1.13l-.81,1.94c.61,3.9,2.39,5.5,6.61,4.67,4.07-.8,8.19-1.97,12.23-2.99,7.22,1.84,16.34,7.84,20.46,14.09,3.83,5.81,3.01,13.38-1.3,18.59-5.35,6.46-10.75,6.14-6.09,16.11-1.18,2.64-2.46,4.31-5.27,5.26-6.46,2.21-10.29-.21-15.17-3.93,3.68-7.08,4.65-15.56,5.3-23.59.61-4.26.53-12.19-6.03-10.32-3.6,1.02-3.11,9.96-3.16,13-.57,31.97-29.12,34.34-54.37,34.55-18.12.15-44.05-.29-53.58-19.36-3.75-7.8-2.78-16.99-3.24-25.43-1.9-2.36-4.91-3.9-7.66-1.75-1.4,1.1-1.56,2.67-1.77,4.32-4.67.03-9.14-.16-13.78-.21,1.33-2.08,3.06-4.46,4.23-6.54,2.43-4.3,3.68-10.87,4.13-15.81,6.8,1.79,14.57,4.37,21.49,4.06.81-1.23,1.23-1.8,1.65-3.24.03-.95-.05-1.45-.17-2.38Z"/>
      <path class="cls-8" d="M186.55,218.11c.69-.37.93-.66,1.78-.65,2.72.03,5.49.45,8.19.77,4.34.52,8.67,1.02,13.01,1.49,16.38,1.78,35.3.75,51.75-.28,3.66-.23,7.63-.89,11.24-1.25,2.33-.24,8.54-1.47,10.36-1.13l-.81,1.94-.31.19c-1.26.76-1.78,1.37-3.35,1.87-14.74,4.77-30.08,11.11-45.81,10.78-5.01-.11-10.42-1.04-15.36-1.86-9.7-2.27-19.22-5.82-28.87-8.3-.6-.16-1.09-.85-1.63-1.2.03-.95-.05-1.45-.17-2.38Z"/>
      <path class="cls-4" d="M225.74,46.54c8.64.6,15.33,1.82,23.83,3.38,10.82,1.88,21.55,4.25,32.16,7.09,4.91,1.3,11.07,2.76,15.64,4.6-7.83,6-19.29,11.75-28.63,14.74-11.47,3.67-26.04,5.24-38,3.66-7.08-.96-14.11-2.33-21.03-4.11-6.82-1.75-13.78-3.9-20.61-5.47,2.49-1.63,6.37-2.59,9.64-4.78,3.99-2.68,8.12-5.59,12.12-8.17l8.49-5.59c1.25-.81,6.48-3.82,6.75-4.99l-.36-.36Z"/>
      <path class="cls-2" d="M207.12,13.57c12.35.3,26.85,2.52,38.94,4.86,5.16,1,11.91,2.34,16.87,3.73-.01,1.86-.05,3.24-.23,5.07-.09.89-1.52,8.69-1.98,11.15-.22,1.18.03,4.27-.33,5.1l-.95.15c-14.99-2.81-29.42-5.35-44.67-6.56-9.71-.77-18.33-.97-28.06-.97,1.34-3.15,2.46-6.13,3.9-9.28,1.84-4.02,4.86-9.11,6-13.25,3.46.02,7.06.1,10.51,0Z"/>
      <path class="cls-1" d="M117.7,189.27c4.36-.53,10.26.3,13.9,2.89,10.89,7.75,8.33,23.6,7.43,35.11-.54,6.98-.95,10.39-4.76,16.31-2.19.19-4.42.16-6.61.17-5.17-.02-11.92-1.99-15.99-5.24-6.48-5.17-6.35-15.61-6.32-23.14,0-.85.71-3.12,1.05-4.01,4.17-6.33,1.86-14.43,6.1-20.55.92-1.33,3.9-1.44,5.19-1.54Z"/>
      <path class="cls-2" d="M158.18,46.26c5.73-1.22,11.09-1.23,16.9-1.46,15.24-.6,30.45-.41,45.62,1.27,1.63.18,3.4.38,5.03.48l.36.36c-.27,1.17-5.5,4.18-6.75,4.99l-8.49,5.59c-4,2.59-8.13,5.5-12.12,8.17-3.27,2.19-7.15,3.16-9.64,4.78-4.19-.53-11.58-2.58-16.12-3.54-13.26-2.79-23.78-4.13-37.26-4.54-1.42-.39-2.45.09-3.69-.61-.36-.62-.3-.3-.18-.99,7.65-4.14,15.53-7.62,22.85-12.41.95-.62,2.5-1.67,3.47-2.1Z"/>
      <path class="cls-6" d="M121.02,44.77c.55-4.29,6.26-16.41,9.56-19.33,5.56-4.93,26.64-8.86,34.56-10.08,5.19-.8,10.56-1.33,15.81-1.69,5.58-.38,11.04-.34,16.62-.27,3.18.04,6.37-.01,9.55.17-3.45.1-7.05.03-10.51,0-1.13,4.13-4.16,9.23-6,13.25-1.44,3.15-2.55,6.14-3.9,9.28-2.22-.07-4.66.07-6.9.14-12.18.4-24.46,1.74-36.5,3.63-7.48,1.17-14.96,3.09-22.29,4.89Z"/>
      <path class="cls-3" d="M262.93,22.16c5.4,1.22,39.2,9.89,41.2,13.47,1.14,2.05.08,15.68.28,19.17-5.66-1.34-10.97-3.02-16.57-4.5-9.41-2.45-18.87-4.67-28.39-6.66l.95-.15c.36-.83.11-3.92.33-5.1.45-2.46,1.89-10.26,1.98-11.15.18-1.83.22-3.21.23-5.07Z"/>
      <path class="cls-5" d="M312.47,40.04c4.52,2.33,9.78,3.95,14.49,5.99,5.76,2.49,32.39,15.02,35.06,19.09,1.82,2.78,3.84,12.18,3.11,15.36-12.23-5.53-24.27-11.24-36.81-16.14-3.91-1.53-12.1-5.07-15.93-5.91.1-6.24.65-12,.08-18.39Z"/>
      <path class="cls-1" d="M268.6,289.12c.53.23.27,1.92.29,2.56.35,8.38-1.52,10.78,4.36,17.13.2,1.48.64,4.25.31,5.6-2,7.99-17.16,6.35-22.55,5.07-2.47-.84-4.88-2.51-5.27-5.19-.95-6.63-.59-14.2-.64-20.9,7.66-.5,16.18-1.88,23.49-4.27Z"/>
      <path class="cls-1" d="M199.83,289.41c8.02,2.51,15.34,3.92,23.76,3.9,0,6.08.47,16.37-.78,22.25-.4,1.88-3.32,3.32-5.13,4.03-3.29.91-6.86,1.04-10.25.92-3.32-.11-7.38-.66-10.04-2.82-2.41-1.95-2.69-5.98-1.29-8.62.87-1.79,3.43-3.73,3.7-5.72.58-4.34.31-9.62.04-13.96Z"/>
      <path class="cls-1" d="M137.95,162.94c3.47,0,5.34.97,7.26,3.84-.37,5.51,0,18.22,2.01,22.96,4.36,10.3,9.16,15,7.86,27.54-1.05,10.14-2,15.91-10.33,23.03-.05-.98,1.33-6.16,1.49-7.73,1.7-16.86,5-42.29-15.84-48.64-.11-4.98,0-12.29,2.19-16.78,1.26-2.57,2.85-3.37,5.36-4.21Z"/>
      <path class="cls-1" d="M236.51,8.41c4.09-.63,13.12.37,17.6.76,27.01,2.39,54.93,7.35,77.71,23.02,3.13,2.15,12.7,10.22,13.49,13.4-1.66-.18-7.61-3.54-9.64-4.46-7.37-3.32-14.85-6.29-22.28-9.48-1.44-.62-3.23-2.37-4.71-3.18-3.37-1.85-6.95-3.19-10.53-4.57-14.69-5.45-28.83-8.78-44.06-12.02-3.64-.77-7.28-1.49-10.93-2.18-2-.37-4.77-.71-6.64-1.29Z"/>
      <path class="cls-9" d="M99.72,73.31c.14.7-1.37,5.45-1.66,6.62-.82,3.33-1.48,6.7-2,10.1-3.58-.2-8.8,1.86-12.54,2.41-5.6.83-9.51,1.85-14.64-1.13-11.35-8.48,26.1-17.36,30.84-18Z"/>
      <path class="cls-7" d="M131.86,60.78c-.11.69-.16.37.18.99,1.24.7,2.27.22,3.69.61-4.21.01-8.56-.21-12.75-.06-8.41.33-18,1.38-26.24,3.04-1.36.49-3.35.89-4.78,1.12,1.08-.85,3.16-1.85,4.44-2.52,14.36-8.24,44.93-18.38,61.78-17.69-.96.44-2.52,1.48-3.46,2.1-7.32,4.79-15.21,8.27-22.86,12.41Z"/>
      <path class="cls-2" d="M92.46,161.11c.04.98-.68,1.84-1.35,2.47-.27.27-.58.5-.88.73-12.29-.78-13.95-11.34-15.27-21.25-2.92,3.44-7.72,8.01-11.94,9.57-8.39,3.1-19.03-5.88-24.2-11.48.73,4.07,2.44,12.85,1.53,16.53-1.91,7.73-10.16,14.18-17.99,14.98-3.06.31-5.67.78-8.52,1.04,7.8,3.13,16.32,7.54,19.56,15.66,3.1,7.75.54,13.28-1.6,20.38,6.87-1.25,15.54-4.95,22.21-.27,4.87,3.42,6.69,10.13,8.22,15.57,2.18-3.91,4.13-7.49,7.25-10.8,1.64-1.73,3.94-3.42,5.5-5.05,5.95,2.26,2.68,5.12-.19,8.29-3.2,3.48-5.85,7.45-7.83,11.74-.87,1.91-1.53,3.78-2.28,5.71-.51,1.3-2.22,2.89-3.71,2.86-3.42-.06-3.47-4.59-3.8-6.99-.72-5.45-1.8-10.91-5.73-15.02-1.04-1.09-2.23-1.82-3.32-2.87-2.56.06-5.74.03-8.19.78-3.74,1.12-7.26,2.87-10.84,4.44-2.07.84-5.02,2.82-7.29,1.97-4.37-1.66,2.1-9.67,3.59-12.13.77-1.28,1.45-2.62,2.03-4,3.33-7.93,1.9-13.25-4.77-18.57-5.6-4.59-12.42-7.34-19.08-10.04-4.35-1.76-4.23-3.31-2.27-7.09,8.5-.72,22.73-.21,29.44-5.66,7.13-5.77.29-23.47-.11-30.99-.05-.85,1.14-1.55,1.79-2.02.96-.01,2.1.06,3.08.1,3.36,4.36,15.87,15.16,21.17,17.07,1.49.45,3.61.27,5.2.19,3.57-2.57,4.89-3.74,7.65-6.99.8-.94,1.63-1.9,2.33-2.93,1.16-1.67,2.17-3.86,3.69-5.21.68-.6,1.47-1,2.39-1.05.47-.03,1.34.04,1.71.36,1.78,1.56,1.28,10.55,1.46,13.21.15,2.3.4,4.79,1.09,7,2.11,6.77,10.14,6.48,10.29,9.76Z"/>
      <path class="cls-3" d="M92.46,161.11c.04.98-.68,1.84-1.35,2.47-.27.27-.58.5-.88.73-12.29-.78-13.95-11.34-15.27-21.25-2.92,3.44-7.72,8.01-11.94,9.57-8.39,3.1-19.03-5.88-24.2-11.48.73,4.07,2.44,12.85,1.53,16.53-1.91,7.73-10.16,14.18-17.99,14.98-3.06.31-5.67.78-8.52,1.04,7.8,3.13,16.32,7.54,19.56,15.66,3.1,7.75.54,13.28-1.6,20.38,6.87-1.25,15.54-4.95,22.21-.27,4.87,3.42,6.69,10.13,8.22,15.57,2.18-3.91,4.13-7.49,7.25-10.8,1.64-1.73,3.94-3.42,5.5-5.05,5.95,2.26,2.68,5.12-.19,8.29-3.2,3.48-5.85,7.45-7.83,11.74-.87,1.91-1.53,3.78-2.28,5.71-.51,1.3-2.22,2.89-3.71,2.86-3.42-.06-3.47-4.59-3.8-6.99-.72-5.45-1.8-10.91-5.73-15.02-1.04-1.09-2.23-1.82-3.32-2.87-2.56.06-5.74.03-8.19.78-3.74,1.12-7.26,2.87-10.84,4.44-2.07.84-5.02,2.82-7.29,1.97-4.37-1.66,2.1-9.67,3.59-12.13.77-1.28,1.45-2.62,2.03-4,3.33-7.93,1.9-13.25-4.77-18.57-5.6-4.59-12.42-7.34-19.08-10.04-4.35-1.76-4.23-3.31-2.27-7.09,8.5-.72,22.73-.21,29.44-5.66,7.13-5.77.29-23.47-.11-30.99-.05-.85,1.14-1.55,1.79-2.02.96-.01,2.1.06,3.08.1,3.36,4.36,15.87,15.16,21.17,17.07,1.49.45,3.61.27,5.2.19,3.57-2.57,4.89-3.74,7.65-6.99.8-.94,1.63-1.9,2.33-2.93,1.16-1.67,2.17-3.86,3.69-5.21.68-.6,1.47-1,2.39-1.05.47-.03,1.34.04,1.71.36,1.78,1.56,1.28,10.55,1.46,13.21.15,2.3.4,4.79,1.09,7,2.11,6.77,10.14,6.48,10.29,9.76Z"/>
      <path class="cls-2" d="M90.23,164.31c-.59.15-1.23.18-1.38.75-.46,1.83-.29,3.95-.57,5.87-2.23.49-3.71.47-5.95.44-.14,0-.74.75-.86.91-1.37,1.34-2.22,2.57-3.23,4.2-3.38,7.34-5.79,12.2-2.8,20.54.9,2.53,2.18,5.15,2.89,7.72-.66,1.28-3.29,4.29-3.34,4.45-1.55,1.63-3.86,3.32-5.5,5.05-3.12,3.31-5.07,6.89-7.25,10.8-1.52-5.44-3.35-12.15-8.22-15.57-6.66-4.67-15.34-.98-22.21.27,2.14-7.1,4.7-12.63,1.6-20.38-3.24-8.13-11.76-12.54-19.56-15.66,2.85-.25,5.47-.72,8.52-1.04,7.83-.8,16.08-7.25,17.99-14.98.9-3.68-.8-12.45-1.53-16.53,5.17,5.6,15.81,14.58,24.2,11.48,4.22-1.55,9.02-6.13,11.94-9.57,1.32,9.91,2.98,20.47,15.27,21.25Z"/>
    </g>
  </g>
</svg>