<?xml version="1.0" encoding="UTF-8"?>
<svg id="Layer_2" data-name="Layer 2" xmlns="http://www.w3.org/2000/svg" viewBox="0 0 329.57 332.22">
  <defs>
    <style>
      .cls-1 {
        fill: #fccb62;
      }

      .cls-2 {
        stroke: #000;
      }

      .cls-2, .cls-3 {
        fill: none;
        stroke-linecap: round;
        stroke-miterlimit: 10;
        stroke-width: 6px;
      }

      .cls-4 {
        fill: #fff;
      }

      .cls-3 {
        stroke: #050201;
      }

      .cls-5 {
        fill: #050201;
      }

      .cls-6 {
        fill: #f3776b;
      }

      .cls-7 {
        fill: #bfbfbc;
      }
    </style>
  </defs>
  <g id="Layer_1-2" data-name="Layer 1">
    <g>
      <path class="cls-5" d="M132.79,12.64c4.01-.25,8.3-.11,12.34-.15,39.92-.39,97.15,8.48,116.56,48.71,20.57,42.65,22.55,123.76-26.28,148.86,1.15.85,1.84,1.68,3.18,2.34,2.66,1.29,5.83,1.55,8.42,3.01,4.98,2.83,9.53,7.67,11.31,13.2,3.62,11.27-5.05,21.43-13.26,27.97-1.74,1.38-4.33,2.71-5.86,4.07-5.79,5.17-11.22,10.1-19.48,9.95-7.69.26-10.63-1.54-17.31-5.13-.55,3.47-1.71,6.78-3.21,9.94,3.03,3.29,6.97,6.68,8.95,10.64,3.74,7.47,2.88,13.96.48,21.5,3.72,2.95,5.11,5.71,5.72,10.38,1.07,8.22-8.46,13.52-15.54,13.92-7.89.44-19.07-.69-25.44-5.73-5.72-4.53-3.79-10.86-3.84-17.04-.05-2.38-1.52-4.36-3.34-5.79-1.34-1.06-6.92-4.96-8.36-4.82-8.25.76-18.06,1.08-26.23-.12-1.3,1.45-3.69,3.41-5.21,4.85-7.35,6.91,1.86,14.83-5.57,21.91-5.69,5.42-13.51,6.61-20.96,7.05-9.08.53-20.97-2.82-21.05-13.77-.04-4.58,2-7.2,5.09-10.33-.58-3.57-1.81-6.35-1.82-10.19-.03-9.28,3.58-14.57,9.59-20.98-2.88-4.99-3.38-5.95-4.95-11.47-3.32,1.62-6.66,4.42-10.34,4.88-2.59.23-6.08.64-8.62.41-7.49-.68-12.91-5.57-17.95-10.64-1.05-1.05-4.33-2.61-5.82-3.66-8.05-5.51-15.96-17.82-12.54-27.77,3.22-9.35,10.33-13.11,19.1-15.58.88-.25,3.44-2.29,4.75-2.95-4.72-1.53-10.44-5.99-14.21-9.32-8.32-7.34-12.26-14.31-16.79-24.03-7.14-15.33-9.28-29.54-9.93-46.28-1.09-28.13,5.86-65.32,25.71-86.49,21.15-22.56,63.15-30.21,92.69-31.37Z"/>
      <path class="cls-6" d="M102.17,217.04c-1.81-1.68-10.52-2.88-13.49-3.59-17.31-4.16-35.25-9.95-47.32-23.97-10.59-12.31-16.17-31.64-18.08-47.53-2.65-29.36,1.33-65.93,20.4-89.63,10.74-13.34,29.48-20.51,45.33-25.37,35.56-8.57,72.7-9.19,108.37-.93,4.5,1.05,8.7,3.01,13.1,4.34,19.33,5.82,37.33,18.51,45.42,37.74,15.13,35.97,17.84,89.54-7.65,121.65-9.93,12.51-31.66,20.59-46.65,23.78-2.5.56-13.25,2.22-14.33,3.84-.59.12-1.02.19-1.59.42-5.93.19-12.02,1.96-17.87,2.27-19.47,1.03-39.68,1.42-58.98-1.63-2.53-.4-3.83-1.21-6.66-1.37Z"/>
      <path class="cls-1" d="M71.23,131.89c13.32-.48,24.52,9.92,25.02,23.25.5,13.32-9.88,24.53-23.2,25.06-13.35.52-24.6-9.89-25.1-23.24-.5-13.35,9.93-24.58,23.29-25.06Z"/>
      <path class="cls-5" d="M142.41,127.31c3.6-.38,9.94.81,12.85,2.81,5.39,3.7,6.81,11.78,2.8,17.02-2.63,3.44-6.73,5.09-10.75,5.78-5.27.14-9.82-.22-14.05-3.55-5.28-4.15-5.75-12.07-1.46-17.06,2.7-3.14,6.69-4.6,10.6-5Z"/>
      <path class="cls-5" d="M99.94,117.78c3.76-.75,7.62.58,10.13,3.48,2.5,2.9,3.25,6.92,1.97,10.53-1.29,3.61-4.41,6.24-8.19,6.9-5.74,1-11.21-2.8-12.28-8.52-1.07-5.72,2.67-11.25,8.38-12.38Z"/>
      <path class="cls-5" d="M187.26,118.08c5.77.28,10.21,5.21,9.89,10.98-.32,5.77-5.28,10.17-11.05,9.81-5.71-.36-10.06-5.26-9.74-10.97.32-5.71,5.19-10.1,10.91-9.82Z"/>
      <path class="cls-4" d="M102.17,217.04c2.83.16,4.12.97,6.66,1.37,19.31,3.06,39.51,2.67,58.98,1.63,5.84-.31,11.94-2.08,17.87-2.27.57-.22,1-.29,1.59-.42-.07,1.86.12,2.94.79,4.71,2.47,1.79,4.09,1.6,7.08,1.13,3.48-.55,6.88-1.32,10.4-1.76,2.8,2.43,5.95,7.24,8.49,10.26-3.62,4.6-4.92,8.02-4.25,13.9.79,6.96,5.59,12.74,12.2,14.93.67.22,2.16.47,2.5.88-.06.29,0,.42-.28.52-7.44,2.59-14.14-1.36-20.17-4.99-.2-4.58-.71-19.85-3.69-22.69-.67-.64-1.51-.94-2.44-.88-1,.06-2.08.53-2.74,1.29-.77.89-.9,1.83-.77,2.97,1.38,12.61,3.59,26.58-4.88,37.37-7.76,9.88-20.92,13.86-32.93,15.25-15.48,1.8-38.24.69-50.95-9.37-6.94-5.49-10.53-12.94-11.51-21.63-.87-7.73.46-15.02,1.58-22.62-1.36-2.69-2.78-4.26-6.16-2.74-1.22.55-1.62,2.13-1.93,3.29-1.59,6.49-1.67,12.91-2.38,19.46-5.27,4.05-11.37,6.86-18.17,6.03-.83-.1-1.71-.23-2.28-.86l-.04-.42c1.2-.4,3.6-1.09,4.57-1.49,3.02-1.24,7.29-4.78,8.64-7.8,1.81-4.03,2.9-10.56,1.26-14.86-1.02-2.67-1.46-3.33-3.26-5.5,1.68-2.58,6.4-8.69,8.52-10.63,4.68.88,16.84,4.7,18.52-1.04-.14-1.11-.48-2-.83-3.06Z"/>
      <path class="cls-4" d="M193.84,282.35c2.97,1.72,6.05,5.06,7.38,8.24,2.19,5.25,1.71,13.81-2.11,18.23,1.64,4.69,3.52,3.76,6.09,7.55.34.5.96,2.25,1.2,2.9-4.24,6.2-12.87,4.48-19.33,3.56-4.17-.66-7.04-1.02-9.89-4.43-.53-3.32.21-7.19.08-10.54-.21-5.28-3.21-8.47-6.75-11.81,2.3-1.07,4.53-1.41,6.86-2.34,1.59-.63,3.06-1.57,4.55-2.4,5.01-2.8,8.07-4.63,11.92-8.97Z"/>
      <path class="cls-4" d="M96.87,283.51c.9.41,3.45,3.4,4.58,4.22,6.86,4.99,11.89,6.83,19.84,8.82-5.7,6.3-6.87,9.86-5.59,18.48.78,5.27-2.87,6.46-7.24,7.76-4.43,1.04-20.37,3.4-21.7-4.41-.47-2.79,4.31-5.25,6-7.77-.16-2.95-1.04-4.41-1.72-7.21-2.22-9.06-.48-13.71,5.84-19.9Z"/>
      <path class="cls-4" d="M238.64,220.88c1.69-.16,3.99.91,5.49,1.67,2.62,1.11,7.06,6.94,7.41,9.42,1.67,12.07-17.87,27.88-29.13,20.51-3.4-2.22-4.59-5.64-5.32-9.02.06-3.3,1.28-4.72,3.48-7.05,2.29,2.05,4.17,4.71,6.65,6.39,1,.68,4.24-1.41,4.33-2.74.45-6.1-10.77-6.96-1.61-11.62,3.06,1.42,3.94,3.29,6.36,5.44.55.49,1.65.6,2.37.51,1.15-.14,2.19-.76,2.86-1.71,2.7-3.85-4.06-7.31-6.65-9,1.41-1.56,1.89-1.88,3.75-2.8Z"/>
      <path class="cls-4" d="M50.7,221.36c.58,0,1.62.14,2.23.2.97.75,1.44,1.28,2.26,2.16-3.36,2.59-10.56,5.43-5.95,10.37,1.38.47,2.39.48,3.81.5,2.7-1.95,3.14-4.16,7.27-5.77,1.83.95,2.3,1.38,3.6,2.84-1.31,1.62-5.5,4.67-5.69,7.06-.24,2.9,2.54,5.53,5.34,3.59,2.02-1.4,3.9-3.96,5.68-5.95,1.26,1.51,2.92,3.3,3.12,5.3.09,14.52-14.39,15.73-23.68,8.56-6.57-5.08-14.92-14.7-7.84-22.93,3-3.49,5.13-5.39,9.87-5.93Z"/>
      <path class="cls-4" d="M230.21,215.91h.65s.27.27.27.27c-.16.88-1.08,1.6-1.75,2.16-2.64,2.22-5.34,4.21-7.61,6.82l-.32.05c-.66-.61-.62-2.54-.67-3.49,2.72-3.59,4.88-5.36,9.44-5.82Z"/>
      <path class="cls-4" d="M58.48,216.3c1.59-.04,2.96.05,4.55.14,2.79,1.81,4.2,2.92,5.86,5.82.02,1.32.07,1.92-.19,3.22-.5-.16-10.01-8.41-10.21-9.17Z"/>
      <path class="cls-4" d="M74.79,217.92c.67.04.64.01,1.23.31.47.54.39.99.43,1.72-.56-.05-.54-.08-1.05-.33-.52-.59-.49-.92-.61-1.7Z"/>
      <path class="cls-4" d="M214.01,217.89c.71.3.5.06.77.65-.07.72-.45,1.14-.85,1.75-.35-.05-.17.01-.51-.26-.06-.8.27-1.38.58-2.14Z"/>
      <path class="cls-7" d="M272.2,32.57c-3.99-7.08-7.25-10.46-4.83-19.38,1.25-4.6,4.39-8.52,8.54-10.91,3.94-2.28,9.96-2.87,14.32-1.67,2.27.63,5.77,2.66,7.88,3.86,4.72-3.26,9.64-4.52,15.38-3.5,5.17.95,9.75,3.91,12.73,8.24,2.64,3.85,3.97,9.48,3.06,14.09-.77,3.91-2.72,6.97-4.88,10.23,3.58,5.33,4.81,8.74,3.57,15.29-1.82,9.62-12.68,16.16-22.06,14.01-5.74-1.27-8.53-3.83-12.63-7.76-2.93,1.62-16.68,9.48-19.25,8.94-.98-.63-1.57-1.77-2.15-2.79,1.03-1.2,1.52-1.68,2.75-2.69-1.39-1.82-2.5-1.35-3.16-3.21-1.71-1.23-3.06-2.31-1.84-4.45-.77-1.04-2.18-2.09-3.5-2.17-6.27-1.51-1.93-5.38.35-8.69,1.75-2.53,4-4.88,5.72-7.45Z"/>
      <path d="M272.2,32.57c-3.99-7.08-7.25-10.46-4.83-19.38,1.25-4.6,4.39-8.52,8.54-10.91,3.94-2.28,9.96-2.87,14.32-1.67,2.27.63,5.77,2.66,7.88,3.86,4.72-3.26,9.64-4.52,15.38-3.5,5.17.95,9.75,3.91,12.73,8.24,2.64,3.85,3.97,9.48,3.06,14.09-.77,3.91-2.72,6.97-4.88,10.23,3.58,5.33,4.81,8.74,3.57,15.29-1.82,9.62-12.68,16.16-22.06,14.01-5.74-1.27-8.53-3.83-12.63-7.76-2.93,1.62-16.68,9.48-19.25,8.94-.98-.63-1.57-1.77-2.15-2.79,1.03-1.2,1.52-1.68,2.75-2.69,3.01-1.87,6.48-3.27,9.53-4.95,3.78-2.08,7.75-4.07,11.5-6.12,2.69,5.8,7.13,10.01,13.94,10.21,9.28.42,15.44-9.39,12.08-17.73-1.62-4.03-2.99-3.74-5.84-6.35,3.4-3.1,5.58-4.45,7.29-9.07,1.28-3.46.96-7.56-.61-10.88-1.57-3.33-4.4-5.9-7.87-7.13-3.93-1.4-8.51-.59-12.03,1.56-1.71,1.05-3.37,2.51-5.2,3.3-4.71-2.6-4.81-5.5-11.4-5.96-10.37-.73-17.34,9.85-12.44,19.01,1.42,2.65,3.99,4.42,5.98,6.62-1.19,3-10.7,16.09-13.44,17.64-6.27-1.51-1.93-5.38.35-8.69,1.75-2.53,4-4.88,5.72-7.45Z"/>
      <path d="M269.63,50.88c3.37-2.67,14.07-12.3,16.93-13.32,1.44.88,2.09,1.54,3.19,2.87-2.12,2.53-5.71,5.13-8.25,7.32-2.72,2.34-6.64,6.64-10.03,7.58-1.71-1.23-3.06-2.31-1.84-4.45Z"/>
      <path d="M3.96,130.6c1.18.33,2.07.78,2.38,2-.22.97-.89,1.83-1.46,2.69-2.31,3.47,1.31,4.63,1.89,7.78.84,4.59-.01,6.5-2.26,10.21,2.26,3.48,3.92,3.55,5.46,8.41-.57,1.9-1.62,3.57-2.29,5.73,1.09,3.38,1.93,3.18,4.59,5.42,2.64,1.99.61,4.24.86,6.76.2,2.02,2.64,3.98.93,5.96-5.23-.31-5.25-4.59-5.48-8.58-3.35-5.48-9.15-6.97-3.76-14.62-1.35-2.87-2.96-3.61-4.25-6.5-2.13-4.76,2.23-6.24,2.13-10.26-.05-2.09-2.47-4.18-2.53-6.86-.08-3.27,1.75-5.81,3.78-8.15Z"/>
      <path d="M286.16,133.62c1.7.18,3.42,1.43,3.71,3.18.51,3.14-1.72,6.06-3.36,8.51.82,2.6,2.58,5.21,3.03,7.87.62,3.73-3.96,6.79-5.91,9.44,2.06,4.26,3.68,7.54-.35,11.73-1.73,1.8-3.8,2.93-5.2,5.07-.21,1.8-.28,2.88-.05,4.67-.44,1.06-.72,1.47-1.34,2.41-.8.96-1.28,1.83-2.47,1.98-1.33-.93-.62-3.49-.64-4.97-.03-1.56-.17-3.62.16-5.12,1.07-4.82,5.54-4.61,7.12-9.5l.09-.29c-.36-.91-.71-1.82-1.05-2.73-2.82-7.55,2.69-6.99,5.17-12.72-3.46-6.79-3.47-7.51.15-14.28-.2-2.31-.35-3.24.94-5.24Z"/>
      <path class="cls-5" d="M22.1,222.08c1.61-.04,2.17,1.19,2.95,2.36-1.57,2.29-2.28,2.93-2.78,5.7.55,1.45,1.77,2.72,2.04,4.03.44,2.11-3.08,4.41-2.62,6.58.29,1.37,2.09,2.06,3.2,2.88,2.52,1.75,1.35,4.88,1.73,7.36.54,3.5,8.25,3.19,3.51,7.66-3.49-.2-6.43-2.54-8.14-5.47-.04-1.84-.05-3.43-.28-5.26-1.96-2.3-4.41-3.31-4.79-7.12-.25-2.54.69-4,2.19-5.83-2.9-4.72-1.87-10.03,2.99-12.88Z"/>
      <path class="cls-5" d="M267.15,221.3c1.97,1.17,3.97,4.11,4.31,6.36.38,2.57-.22,3.92-1.62,5.94,1.78,1.8,2.7,3.17,2.53,5.89-.24,3.7-2.46,5.1-5.02,7.22.18.76.43,1.72.52,2.49.47,4.29-3.9,8.19-7.97,8.57-3.83-2.92,1.17-4.97,3.56-7.73-.38-1.24-.72-2.53-1.06-3.79,1.2-4.78,3.81-3.56,5.05-7.24.43-1.26-1.74-3.67-2.7-4.72.01-.79.14-1.82.22-2.63.68-.96,1.43-1.67,2.24-2.52-1.16-2.05-2.03-3.69-3.04-5.82,1.13-1.01,1.68-1.29,2.99-2.03Z"/>
      <path class="cls-5" d="M214.31,278.08c.28,0,.55.02.83.05,1.18.15,2.52,1.4,3.22,2.33,3.96,5.2,4.33,12.13,3.73,18.39-.23,2.41-.92,5.81-2.85,7.32-1.57.17-3.52-.49-3-2.27,1.6-5.48,2.38-10.12.98-15.78-.89-3.58-6.52-7.08-2.9-10.04Z"/>
      <path class="cls-5" d="M76.67,278.13c3.03.87,1.45,3.84.36,5.58-3.68,5.86-3.32,11.45-1.79,17.94.21.91.4,2.59-.19,3.43-.68.49-.72.48-1.57.55-2.12-.64-2.28-1.69-2.99-3.74-1.92-5.56-.61-21.94,6.17-23.76Z"/>
      <path class="cls-5" d="M225.8,283.48c4.79.33,4.21,11.05,3.85,14.09-.41.56-.87.96-1.36,1.45-.91.39-1.55.71-2.5.28-1.14-1.18-.16-7.12-.54-9.02-.7-3.47-2.18-3.99.56-6.79Z"/>
      <path class="cls-5" d="M64.91,283.9c4.54.59,1.97,4.94,1.75,7.25-.24,2.52.23,5.42.12,8.06-.41.65-.31.45-1.19.8-1.28-.36-1.35-.38-2.5-1.11-1.8-4.5-1.14-11.07,1.82-15Z"/>
      <path class="cls-1" d="M216.61,131.89c13.32-.48,24.52,9.92,25.02,23.25.5,13.32-9.88,24.53-23.2,25.06-13.35.52-24.6-9.89-25.1-23.24-.5-13.35,9.93-24.58,23.29-25.06Z"/>
      <line class="cls-2" x1="96.55" y1="101.83" x2="114.8" y2="112.5"/>
      <line class="cls-2" x1="174.74" y1="112.5" x2="192.52" y2="101.35"/>
      <path class="cls-3" d="M121.87,172.24s6.71-8.5,24.17-8.28c17.46.22,22.95,8.31,22.95,8.31"/>
    </g>
  </g>
</svg>