<?xml version="1.0" encoding="UTF-8"?>
<svg xmlns="http://www.w3.org/2000/svg" viewBox="0 0 616.65 667.72">
  <defs>
    <style>
      .cls-1 {
        fill: #57b63f;
      }

      .cls-2, .cls-3 {
        stroke-miterlimit: 10;
      }

      .cls-2, .cls-4, .cls-5, .cls-6 {
        stroke-width: 7px;
      }

      .cls-2, .cls-6 {
        fill: none;
        stroke: #1c1c1d;
      }

      .cls-2, .cls-6, .cls-7 {
        stroke-linecap: round;
      }

      .cls-8 {
        fill: #8dd164;
      }

      .cls-9 {
        fill: #f89c87;
      }

      .cls-10 {
        fill: #8ed165;
      }

      .cls-11 {
        fill: #90a1a9;
      }

      .cls-12, .cls-5 {
        fill: #fff;
      }

      .cls-3, .cls-7 {
        stroke: #346d89;
        stroke-width: 6px;
      }

      .cls-3, .cls-7, .cls-13 {
        fill: #93daf0;
      }

      .cls-14 {
        fill: #6fa0c3;
        mix-blend-mode: multiply;
        opacity: .64;
      }

      .cls-15 {
        fill: #47914a;
      }

      .cls-16 {
        isolation: isolate;
      }

      .cls-17 {
        fill: #48904a;
      }

      .cls-4 {
        fill: #cfe3e6;
      }

      .cls-4, .cls-5 {
        stroke: #000;
      }

      .cls-4, .cls-5, .cls-6, .cls-7 {
        stroke-linejoin: round;
      }

      .cls-18 {
        fill: #acef59;
      }

      .cls-19 {
        fill: #1c1c1d;
      }

      .cls-20 {
        fill: #346d89;
      }

      .cls-21 {
        fill: #6a858e;
      }

      .cls-22 {
        fill: #8ec865;
      }
    </style>
  </defs>
  <g class="cls-16">
    <g id="Layer_2" data-name="Layer 2">
      <g id="Layer_1-2" data-name="Layer 1">
        <g>
          <path class="cls-5" d="M450.12,541.35c6.33,3.39,7.14,9.29,6.93,13.45-.26,5.08-4.96,7.81-9.15,11.04,2.23,11.28,3.4,20.6-15.98,20.78-4.28.04-7.94-1.21-11.78-2.55,3.67-8.58,6.12-24.57,4.44-33.54-.13-20.27,19.99-11.41,25.54-9.18Z"/>
          <path class="cls-3" d="M451.44,602.34c9.74-6.39,25.28-4.96,53.76-.52,41.85,8.63,81.29,3.7,102.39,22.01,18.17,14.16-8.92,31.4-22.64,33.42-13.07,2.91-24.31,1.02-37.34,2.22-33.38,5.04-140.23,12.05-130.97-9.42,3.89-17.44-17.51-11.37-26-20.31-16.17-10.97-7.73-25.48,32.8-26.5,10.9-.23,18.7,5.2,28-.9Z"/>
          <path class="cls-12" d="M426.39,646.16c1.36,0,15.73,3.2,18.43,3.7,4.53.84,20.85,2.57,23.58,3.91.59,1.09.46.5.24,1.85-10.13.98-32.26.28-40.69-6.15-1.48-1.12-1.48-1.77-1.56-3.3"/>
          <path class="cls-12" d="M601.84,632.98c.87.07.5-.1,1.11.53.49,2.55-3.58,6.97-5.59,8.33-6.1,4.14-13.99,7.45-21.47,6.28-.92-.72-1.14-1-1.39-1.98.5-.53,5.53-2.14,6.52-2.31,8.96-1.55,13.51-7.14,20.83-10.84"/>
          <path class="cls-12" d="M476.85,652.82c1.58,0,2.81.05,4.13.92.77,1.25.56.58.56,2.12-.66.04-1.32.08-1.98.1-1.26.04-2.01.1-2.95-.79-.31-1.34-.24-.88.24-2.35"/>
          <path class="cls-12" d="M563.43,620.8l.43.7c-.43,1.51-4.1,3.63-5.61,4.36-14.39,6.93-30.32,9.22-46.15,9.5-3.4.06-8.18.23-11.35-.81-7.55-7.99,12.53-5.8,15.33-6,16.55-1.19,31.74-1.21,47.35-7.75"/>
          <path class="cls-12" d="M512.38,542.6c5.93,2.77,6.86,25.62,5.5,31.89-.27,1.23-1.09,2.87-1.69,4.02-4.56-.4-5.33-8.58-5.26-12.06.14-5.96-1.93-19.04,1.45-23.85"/>
          <path class="cls-12" d="M65.81,622.87c-.09-1.44-.13-1.51.59-2.7,2.47-1.93,6.72.63,5.97,3.8-.19.18-.67.65-.86.77-1.9-.73-3.76-1.28-5.7-1.88"/>
          <path class="cls-12" d="M101.94,538.9l1.1.29c2.55,2.48,1.2,14.25,1.49,18.2.24,3.22-.56,12.11-4.3,13.12-1.43-1.46-2.52-3.12-2.72-5.17-.63-6.52,0-21.7,4.43-26.44"/>
          <path class="cls-12" d="M125.46,449.86c3.77,1.06,2.69,5.69,1.56,8.46-2.13,5.19-3.28,14.92-8.57,17.38-4.88-2.3-2.77-8.17-1.39-12.2,1.83-5.33,3.84-10.15,8.4-13.63"/>
          <path class="cls-12" d="M92.35,619.91c2.73.01,5.4-.05,7.32,2.21.23,2.11-1.88,2.25-3.58,2.56-2.29-.04-6.76-.18-7.62-2.86l.46-.76c1.45-.87,1.71-.84,3.42-1.16"/>
          <g>
            <path class="cls-13" d="M103.77,653.92c-11.1,0-20.17-1.17-26.96-3.48-2.99-1.02-5.18-2.18-7.29-3.3-3.3-1.75-6.42-3.41-12.64-4.34-4.97-.78-10.16-1.02-15.65-1.28-11.71-.55-23.82-1.12-34.19-7.12-.99-.54-4.69-3.76-3.94-6.97,3.5-15.01,35.35-18.99,46.6-19.93,11.7-9.31,47.28-11.11,84.12-11.65,4.84-.07,9.45-.14,11.46-.28l.3-.47,18.29,1.96c37.1,4.95,43.27,17.72,44.21,22.98.96,5.38-1.77,10.47-7.12,13.29-7.76,4.09-19.33,6-29.54,7.69-5.18.86-10.07,1.66-14.02,2.66-3.7.94-7.39,2.26-10.95,3.54-5.19,1.87-10.57,3.79-16.3,4.67-4.91.75-14.86,2.02-26.38,2.02Z"/>
            <path class="cls-20" d="M147.11,598.28l16.44,1.76c45.39,6.06,47.11,24.79,36.01,30.64-11.1,5.85-30.89,7.06-42.9,10.1-9.23,2.33-17.63,6.72-26.97,8.15-7.29,1.12-16.64,1.98-25.93,1.98s-18.86-.89-25.99-3.32c-7.44-2.54-9.77-6.16-20.46-7.77-15.86-2.48-34.41.29-48.78-8.03-.82-.45-2.78-2.6-2.52-3.69,3.09-13.27,36.32-17.04,44.89-17.69,15.19-14,95.22-10.6,96.2-12.13M144.06,591.92l-.47.74c-2.33.09-6.11.14-9.81.2-34.16.5-71.43,1.88-85.19,11.73-4.62.43-14.33,1.56-23.77,4.15-14.7,4.04-22.76,9.93-24.64,18-1.13,4.85,3.41,9.11,5.36,10.25h0c11,6.36,23.48,6.95,35.55,7.52,5.41.25,10.51.49,15.31,1.24,5.74.86,8.51,2.33,11.72,4.03,2.12,1.12,4.52,2.4,7.73,3.49,7.09,2.42,16.49,3.64,27.92,3.64s21.85-1.29,26.84-2.05c6.02-.92,11.53-2.9,16.86-4.81,3.66-1.31,7.11-2.55,10.67-3.45,3.83-.97,8.66-1.77,13.77-2.61,10.43-1.72,22.26-3.68,30.45-8,6.45-3.4,9.85-9.86,8.68-16.47-1.31-7.34-9.11-20.41-46.69-25.42h-.08s-.08-.02-.08-.02l-16.44-1.76-3.69-.4h0Z"/>
          </g>
          <path class="cls-12" d="M21,621.48c-3.53,7.6,10.41,8.61,16.82,9.12,1.04.08,1.39,1.77.46,2.23-10.04,4.99-35.51-4.24-18.48-12.12.62-.29,1.49.15,1.2.77Z"/>
          <g>
            <path class="cls-12" d="M315.19,636.48c-8.67,0-16.84-3.36-23.01-9.45-9.1-9-14.19-22.34-13.98-36.61.07-4.92.87-16.94,6.67-22.85,4.89-5.7,11.3-8.83,18.06-8.83,8.07,0,15.59,4.38,20.64,12.01.19.28.39.6.6.95.45.72,1.46,2.35,2.09,2.77.36-.08.61-.16.77-.23-.13-.67-.61-1.85-.93-2.61-.17-.4-.33-.8-.49-1.2-.42-1.09-.27-2.32.4-3.28.66-.93,1.73-1.49,2.86-1.49.03,0,.06,0,.09,0,.55.01,1.1.02,1.65.02,17.44,0,33.94-6.7,46.44-18.86,5.02-4.83,7.6-8.49,11.5-14.02.04-.06.08-.11.12-.16,1.2-1.5,1.46-2.54,1.48-2.99-.68.1-1.92.75-3.18,2.69-11.99,18.43-33.36,30.82-53.18,30.82-4.16,0-8.24-.54-12.13-1.59-.08-.02-.15-.04-.23-.07-5.92-2.06-12.94-7.78-14.89-14.73-5.49-19.5,15.76-35.68,29.18-42.17,8.53-4.12,9.28-6.3,10.63-10.26.92-2.69,2.06-6.04,5.36-10.44,7.01-9.35,27.18-10.08,33.19-10.08,8.31,0,15.86,1.09,20.71,2.99,7.63,2.99,12.31,18.83,16.99,41.7.24,1.17.45,2.18.62,2.99,0,.04.02.08.02.12,3.98,22.35,6.45,45.87-2.25,66.41-7.3,17.41-23.6,24.96-39.67,31.19-10.54,3.96-23.37,7.95-38.16,11.85-6.2,1.64-17.38,4.45-23.1,5.01-1.67.36-2.69.39-4.18.41-.22,0-.46,0-.71,0Z"/>
            <path d="M384.92,477.3c7.68,0,14.95.99,19.43,2.75,8.21,3.22,13.61,33.53,15.46,42.17,3.72,20.91,6.47,44.39-2.03,64.43-6.8,16.22-22.28,23.31-37.72,29.3-11.9,4.48-25.46,8.48-37.79,11.73-5.46,1.44-17.26,4.44-22.74,4.93-1.46.32-2.22.35-3.69.37-.22,0-.44,0-.66,0-7.69,0-15.07-3.03-20.55-8.44-8.91-8.81-13.12-21.68-12.94-34.06.09-6,1.28-16.08,5.75-20.53,4.43-5.21,9.98-7.71,15.48-7.71,6.63,0,13.2,3.61,17.72,10.44,1.21,1.82,2.96,5.33,5.56,5.33.07,0,.14,0,.21,0,6.34-1.09,3.87-5.2,2.46-8.84.58.01,1.16.02,1.74.02,18.23,0,35.78-7.11,48.88-19.86,5.19-4.99,7.84-8.73,11.92-14.51,3.95-4.95,2.1-8.7-1.15-8.7-1.89,0-4.25,1.27-6.23,4.3-10.51,16.17-30.39,29.22-50.24,29.22-3.76,0-7.52-.47-11.21-1.47-5.24-1.82-11.1-6.79-12.67-12.37-4.81-17.11,14.46-31.85,27.34-38.07,15.57-7.53,9.2-11,17.27-21.75,4.58-6.1,18.02-8.68,30.39-8.68M384.92,470.3v7-7c-8.24,0-28.22,1.12-36,11.48-3.63,4.84-4.93,8.64-5.88,11.41-1.15,3.36-1.62,4.76-8.84,8.24-4.11,1.99-14.52,7.58-22.5,16.62-8.37,9.48-11.32,19.73-8.53,29.65.82,2.93,2.33,5.6,4.23,7.93-1.47-.26-2.97-.39-4.48-.39-7.77,0-15.09,3.54-20.64,9.97-6.61,6.85-7.51,19.85-7.59,25.16-.22,15.22,5.25,29.48,15.02,39.14,6.83,6.75,15.88,10.46,25.47,10.46.26,0,.53,0,.79,0,1.59-.02,2.81-.07,4.64-.44,6.03-.63,17.22-3.44,23.46-5.09,14.9-3.93,27.84-7.96,38.46-11.95.02,0,.05-.02.07-.03,16.77-6.51,33.81-14.43,41.64-33.12,9.05-21.35,6.54-45.48,2.46-68.36-.01-.08-.03-.16-.05-.24-.17-.81-.38-1.81-.61-2.96-5.18-25.31-9.97-40.66-19.14-44.26-5.24-2.05-13.25-3.23-21.98-3.23h0Z"/>
          </g>
          <path class="cls-11" d="M319.54,632.6c-1.46.32-2.22.35-3.69.37-7.92.18-15.57-2.87-21.21-8.43-8.91-8.81-13.12-21.68-12.94-34.06.09-6,1.46-19.17,7.75-20.22,25.73-4.28,40.21,48.86,23.12,62.31,2.18,0,4.84-.07,6.98.03"/>
          <g>
            <path class="cls-12" d="M203.64,621.43c-1.41,0-2.8-.04-4.13-.12h-.23s-.22-.05-.22-.05c-2.73-.52-5.21-1.03-7.9-2.08-15.29-5.96-24.9-22.8-25.72-45.04-.16-4.47-.17-9.64,1.79-14.45.64-1.56,1.3-3.17,2.78-4.99,4.12-5.83,10.08-9.18,16.36-9.18,2.99,0,5.98.73,8.89,2.18,2.61,1.3,5.26,3.16,7.59,4.79l.57.4c1.07.75,1.72,1.09,2.08,1.24.22-.35.58-1.03,1.08-2.35l1.47-3.93,3.6,2.15c4.36,2.61,7.05,4.13,11.75,5.03,1.16.22,2.36.34,3.57.34,8.27,0,17.29-5.44,21.93-13.24,1-1.69,1.94-3.59,2.85-5.42l.35-.71c2.64-5.32,9.25-6.21,15.09-7.01,2.09-.28,4.06-.55,5.5-.98,11.02-3.29,15.52-8.72,20.4-18.23l4.32-8.41,2.2,9.2c1.43,5.97,3.98,8.62,7.22,11.98l1.97,2.05-1.58,2.38c-5.3,7.77-5.74,21.37-2.79,23.95l6.57,5.76-9.45.4c-2.45.1-4.76.19-6.85.78-14.77,4.12-19.23,21.78-18.56,35.64.21,4.28.87,8.24,2.14,12.84l1.27,4.58-4.75-.15c-1.71-.05-3.25-.08-4.72-.08-9.81,0-15.95,1.22-26.84,4.13-12.21,3.26-26.46,6.6-39.56,6.6Z"/>
            <path d="M296.19,511.39c1.65,6.91,4.79,10.16,8.12,13.62-5.74,8.42-7.07,24.29-2.21,28.56-2.8.12-5.65.18-8.36.93-16.54,4.62-21.86,23.9-21.12,39.18.23,4.78.99,9,2.26,13.6-1.71-.06-3.31-.08-4.83-.08-10.21,0-16.64,1.28-27.75,4.25-12.04,3.22-25.95,6.48-38.66,6.48-1.33,0-2.64-.04-3.93-.11-2.55-.48-4.85-.95-7.28-1.9-16.66-6.5-22.89-25.46-23.49-41.91-.16-4.36-.14-8.9,1.54-13,.68-1.66,1.17-2.81,2.32-4.19,3.42-4.9,8.26-7.8,13.57-7.8,2.37,0,4.84.58,7.33,1.82,2.58,1.29,5.35,3.27,7.71,4.92,1.89,1.32,3.29,2,4.43,2,1.7,0,2.8-1.52,4.01-4.75,4.54,2.71,7.65,4.46,12.88,5.47,1.4.27,2.82.4,4.23.4,10.03,0,19.91-6.51,24.94-14.95,1.21-2.04,2.28-4.25,3.33-6.37,2.6-5.23,12.81-4.51,18.45-6.19,12-3.58,17.18-9.58,22.52-19.98M298.6,491.37l-8.64,16.82c-4.62,9-8.36,13.51-18.29,16.47-1.18.35-3.11.61-4.97.87-6.03.82-14.29,1.94-17.75,8.92l-.35.72c-.88,1.78-1.79,3.61-2.73,5.2-4.03,6.77-11.82,11.51-18.92,11.51-.99,0-1.96-.09-2.9-.27-4.12-.8-6.47-2.12-10.61-4.6l-7.2-4.31-2.35,6.26c-2.19-1.53-4.6-3.15-7.08-4.39-3.4-1.69-6.91-2.55-10.45-2.55-7.4,0-14.36,3.85-19.15,10.56-1.75,2.18-2.53,4.09-3.22,5.78-2.23,5.44-2.23,11.06-2.05,15.9.87,23.68,11.31,41.69,27.94,48.17,2.97,1.16,5.62,1.71,8.53,2.25l.44.08.45.03c1.4.08,2.86.12,4.33.12,13.51,0,28.03-3.4,40.47-6.72,10.58-2.83,16.53-4.01,25.94-4.01,1.43,0,2.94.03,4.61.08l9.5.31-2.53-9.17c-1.2-4.34-1.82-8.07-2.01-12.08-.49-10.13,2.33-28.28,16.01-32.1,1.7-.48,3.82-.56,6.06-.65l.72-.03,17.45-.74-12.98-11.38c-1.52-2.51-.98-13.33,3.22-19.49l3.2-4.7-3.95-4.1c-3.11-3.23-5.15-5.35-6.36-10.39l-4.39-18.39h0Z"/>
          </g>
          <path class="cls-11" d="M170.47,561.02c.68-1.66,2.24-2.78,3.58-3.21,11.68-3.79,22.79,13.05,25.71,21.96,4.08,12.45,7.36,26.25-.06,38.05-2.55-.48-4.85-.95-7.28-1.9-16.66-6.5-22.89-25.45-23.49-41.9-.16-4.36-.14-8.9,1.54-13"/>
          <g>
            <path class="cls-12" d="M226.66,552.81c-4.29,0-8.23-1.3-11.41-3.76-19.22-14.87-4.71-46.61.19-55.99,3.1-5.93,11.09-16.9,15.38-22.79l.2-.27c.69-.94,1.75-1.44,2.83-1.44.71,0,1.44.22,2.06.67.64.46,1.07,1.11,1.29,1.81,2.02,1.55,8.54,4.86,12.98,7.11,6.07,3.08,11.81,5.99,14.51,8.1.73.57,1.2,1.41,1.31,2.33.11.92-.15,1.85-.72,2.58-3.58,4.56-8.4,11.24-10.22,15.07-.58,1.22-1.81,2-3.16,2h0c-1.35,0-2.58-.78-3.16-2-.73-1.53-1.59-2.39-2.18-2.8-.06.42-.08,1.06.02,1.93.31,2.68.83,5.47,1.39,8.41,2.19,11.62,4.68,24.79-6.66,34.31-.11.09-.23.18-.35.26-4.44,2.88-9.52,4.46-14.3,4.46Z"/>
            <path d="M233.85,472.06c-1.6,2.19,22.93,12.43,28.68,16.94-3.07,3.92-8.51,11.26-10.63,15.73-1.54-3.24-3.95-5.07-5.88-5.07-1.95,0-3.4,1.88-2.91,6.11,1.55,13.47,8.3,29.27-4.04,39.64-3.6,2.33-8.05,3.9-12.4,3.9-3.28,0-6.51-.89-9.27-3.03-15.31-11.84-6.17-37.6,1.15-51.6,3.03-5.79,11.35-17.19,15.31-22.62M233.85,465.06c-2.16,0-4.29,1-5.66,2.88l-.21.29c-4.34,5.96-12.42,17.06-15.64,23.21-5.22,9.98-20.6,43.85.77,60.38,3.8,2.94,8.48,4.49,13.55,4.49,5.45,0,11.2-1.78,16.21-5.02.24-.16.48-.33.7-.52,12.9-10.84,10.1-25.7,7.85-37.64-.09-.49-.18-.97-.27-1.44.25.03.5.04.76.04h0c2.7,0,5.16-1.55,6.32-3.99,1.59-3.34,6.08-9.65,9.82-14.41,1.15-1.46,1.67-3.32,1.44-5.16-.22-1.84-1.17-3.52-2.63-4.67-2.77-2.17-7.55-4.65-15.09-8.47-3.85-1.95-9.41-4.77-11.75-6.3-.48-.89-1.16-1.69-2.04-2.32-1.24-.91-2.69-1.34-4.11-1.34h0Z"/>
          </g>
          <path class="cls-15" d="M428.31,486.73c-5.2-8.09-17-14.36-26.24-16.05-13.68-2.51-26.5.14-39.53,4.17-7.27,2.13-15.43,3.37-22.75,5.48-4.85,1.01-10.41,3.26-15.29,3.68-3.19.28-9.38-2.89-12.84-3.1-1.05-.07-1.57-1.62-1.54-2.56,1.24-1.62,8.37-2.07,11.02-2.48,7.54-1.15,14.52-2.61,21.75-5.19,5.5-1.96,12.42-5.72,17.94-6.77,3.32-.63,10.91,1.67,14.61,2.27,18.7,3.01,33.64-1.66,50.03-10.13,15.63,19.06,21.19,40.59,20.71,64.91-.44-2.73-3.32-5.18-4.94-7.51-3.88-5.6-7.28-10.44-12.39-15.05-.48-.97-1.17-2.88-1.59-3.95,1.38-2.11,1.23-5.25,1.06-7.73"/>
          <path class="cls-10" d="M420.52,490.52c1.97,1.02,4.73,2.78,6.73,3.95.42,1.07,1.11,2.98,1.59,3.95,5.11,4.6,8.51,9.45,12.39,15.05,1.62,2.34,4.5,4.78,4.94,7.51.17,11.88-1.12,18.22-3.49,29.74-.2,1.08-.2,1.39-.77,2.35-1.59-.31-7.74-7.04-9.14-8.64-.28-.32-.53-1.47-.61-1.95-1.68-14.08-4.55-33.94-9.73-46.87-.92-1.57-1.35-3.34-1.89-5.09"/>
          <path class="cls-1" d="M420.52,490.52c1.97,1.02,4.73,2.78,6.73,3.95.42,1.07,1.11,2.98,1.59,3.95-1.52-1.09-4-2.3-5.73-3.19l-.69.38c-.92-1.57-1.35-3.34-1.89-5.09"/>
          <path class="cls-18" d="M432.15,542.48c2.15,1.89,8.12,7.83,10.52,8.24-.2,1.08-.2,1.39-.77,2.35-1.59-.31-7.74-7.04-9.14-8.64-.27-.32-.53-1.47-.61-1.95"/>
          <path class="cls-15" d="M246.73,464.14c2.89-.41,9.37,3.25,12.05,4.64,7.73,4.04,16.2,5.9,24.65,7.75-.46,1.25-1.15,2.66-1.72,3.89-3.13.47-6.2,1.23-9.19,2.26-1.88.66-4.7,1.9-6.55,1.63-8.86-1.3-23.99-11.36-29.36-18.1,3.39-.62,6.76-1.31,10.11-2.09"/>
          <path class="cls-15" d="M309.02,489.09c10.02.25,17.74,3.82,22.27,13.01-3.44,1.78-8.53,4.6-11.76,6.78-3.55,2.47-6.56,5.39-9.74,8.31-4.64-4.52-7.03-9.32-8.81-15.48,2-1.83,3.17-2.67,5.43-4.14,4.14,3.18,7.35,7.47,11.72,9.96,1.21-.55,1.61-.6,2.27-1.76,1.01-5.38-8.28-12.35-11.37-16.67"/>
          <path class="cls-15" d="M292.56,476.93c7.76-.37,12.29.25,10.57,10.55-.41,2.48-1.84,4.07-4.03,5.28-2.44.61-3.58.76-6.1,1.02-4.1-5.01-6.42-12.29-.44-16.85"/>
          <g>
            <g>
              <path class="cls-15" d="M253.25,527.43c-2.04-18.33,11.27-38.41,28.48-42.96l.4-.11h.52c1.27-.01,2.46.55,3.27,1.52,1.23,1.49,1.25,3.55,1.07,4.98l1.59-1.08,1.78.79c4.45,1.97,5.93,7.82,6.18,8.97l.28,1.29-.65,1.16c-.84,1.51-8.36,14.88-12.49,18.59l-.14.12c-9.43,7.64-13.79,8.19-22.48,9.29-1.18.15-2.46.31-3.86.51l-3.56.49-.4-3.57Z"/>
              <path d="M282.65,487.86c1.37,0,.79,3.06.79,3.06,0,0-14.96,10.55-12.5,16.67.47.2.96.3,1.46.3,5.5,0,12.67-11.46,16.55-14.1,3.05,1.35,4.18,6.51,4.18,6.51,0,0-7.96,14.26-11.78,17.7-9.87,7.99-13.09,7.46-24.61,9.05-1.78-15.97,9.63-34.88,25.9-39.19,0,0,.02,0,.02,0M282.65,480.86h-.2s-.82.02-.82.02l-.79.21c-9.42,2.49-17.88,8.96-23.82,18.21-5.65,8.79-8.29,19.19-7.25,28.52l.79,7.15,7.12-.99c1.39-.19,2.65-.35,3.82-.5,9.73-1.24,14.45-2.12,24.24-10.05l.14-.11.13-.12c4.35-3.91,11.21-15.91,13.21-19.49l1.29-2.31-.56-2.59c-.44-2.02-2.34-8.83-8.18-11.42l-1.59-.71c-.29-1.04-.78-2.07-1.56-3.01-1.47-1.78-3.65-2.81-5.96-2.81h0Z"/>
            </g>
            <g>
              <path class="cls-15" d="M439.18,553.08c-5.11-2.81-9.91-5.98-10.5-10.11v-.12c-1.31-12.05-4.52-34.7-11.39-50.98l-3.77-8.94,8.61,4.47c.79.41,1.67.91,2.58,1.45-.11-.58-.3-1.15-.58-1.72-2.83-5.84-13.74-10.83-22.74-13.02-3.13-.48-6.41-.72-9.75-.72-13.33,0-26.78,3.84-39.8,7.55-8.72,2.49-17.74,5.06-26.8,6.53l-.13.02h-.13c-.24.03-.51.04-.81.04-4,0-13.16-2.34-14.19-2.6l-1.67-.43-.68-1.59c-1.89-4.44-1.86-5.63-1.85-6.14l.03-1.15.7-.91c1.49-1.93,4.12-2.3,8.14-2.3.84,0,1.71.02,2.54.03.72.01,1.42.03,2.05.03.99,0,1.39-.04,1.55-.06l.11-.02h.12c9-.76,17.93-4.14,26.57-7.41,4.04-1.53,8.23-3.11,12.37-4.41l.83-.26.86.16c9.83,1.85,17.73,2.71,24.89,2.71,13.66,0,25.52-3.23,37.34-10.15l2.58-1.51,1.9,2.31c15.2,18.53,22.03,39.89,21.5,67.2,0,11.88-1.56,17.5-4.39,27.69l-1.85,6.7-4.24-2.35Z"/>
              <path d="M425.46,456.06c15.63,19.05,21.18,40.6,20.7,64.91,0,12.35-1.68,17.43-4.94,29.24-2.13-1.18-8.64-4.6-9.08-7.73-1.77-16.4-5.33-37.04-11.63-51.96,1.98,1.03,4.74,2.78,6.73,3.95,6.06-13.14-15.38-21.44-25.18-23.79-3.5-.54-6.97-.78-10.42-.78-22.82,0-44.72,10.49-67.16,14.12-.15.01-.32.02-.51.02-3.67,0-13.32-2.49-13.32-2.49,0,0-1.59-3.74-1.57-4.68.61-.79,2.9-.95,5.37-.95,1.58,0,3.25.06,4.6.06.83,0,1.55-.02,2.07-.1,13.83-1.16,26.8-7.93,39.68-11.95,8.97,1.69,17.38,2.77,25.53,2.77,13.26,0,25.85-2.86,39.11-10.63M427.08,446.99l-5.16,3.03c-11.25,6.6-22.55,9.67-35.56,9.67-6.93,0-14.63-.84-24.24-2.65l-1.72-.32-1.67.52c-4.24,1.32-8.47,2.92-12.56,4.47-8.8,3.33-17.11,6.47-25.62,7.19l-.23.02-.23.03s0,0,0,0c-.01,0-.29.02-1.02.02-.61,0-1.28-.01-1.98-.03-.86-.02-1.75-.03-2.62-.03-4.08,0-8.29.28-10.9,3.66l-1.4,1.81-.06,2.29c-.02.92-.07,2.46,2.13,7.61l1.35,3.17,3.34.86c2.46.64,10.83,2.71,15.07,2.71.39,0,.76-.01,1.11-.05l.26-.02.26-.04c9.26-1.5,18.38-4.1,27.2-6.62,13.37-3.81,26-7.41,38.84-7.41,3.1,0,6.15.22,9.07.65,2.56.63,5.25,1.51,7.81,2.54l5.55,13.15c6.69,15.86,9.84,38.13,11.12,49.99v.12s.03.12.03.12c.8,5.66,6.37,9.44,12.28,12.69l.34.19,7.77,4.31,2.37-8.57.67-2.41c2.91-10.47,4.51-16.25,4.52-28.63.53-27.78-6.76-50.49-22.29-69.42l-3.79-4.62h0Z"/>
            </g>
            <g>
              <path class="cls-15" d="M266.77,487.47c-13.43,0-28.4-14.4-32.67-18.81l-4.14-4.28,5.76-1.53c4.07-1.08,7.46-1.8,10.83-1.8,4.72,0,9.05,1.46,14.01,4.72,7.33,3.79,15.61,5.6,23.62,7.35l3.94.86-1.4,3.78c-.41,1.11-.96,2.29-1.45,3.33l-1.16,2.52-1.87.28c-2.85.43-5.67,1.12-8.38,2.05-2.15,1.01-4.54,1.53-7.08,1.53h0Z"/>
              <path d="M246.54,464.54c3.93,0,7.6,1.17,12.24,4.25,7.73,4.04,16.2,5.9,24.65,7.75-.46,1.25-1.15,2.66-1.72,3.89-3.13.47-6.2,1.23-9.19,2.26-1.8.88-3.74,1.27-5.76,1.27-10.88,0-23.98-11.36-30.15-17.74,3.82-1.02,6.95-1.69,9.93-1.69M246.54,457.54c-3.74,0-7.39.77-11.73,1.92l-11.51,3.07,8.28,8.56c5.78,5.98,20.78,19.87,35.18,19.87,3,0,5.82-.6,8.39-1.77,2.46-.83,5.01-1.45,7.6-1.84l3.74-.56,1.58-3.44.36-.77c.51-1.1,1.1-2.36,1.56-3.6l2.8-7.55-7.87-1.72c-7.73-1.69-15.73-3.44-22.61-6.96-5.51-3.59-10.39-5.2-15.78-5.2h0Z"/>
            </g>
            <g>
              <path class="cls-15" d="M307.35,519.7c-5.06-4.93-7.58-12.59-9.73-20.02l-.61-2.09,1.61-1.47c.61-.56.79-.8,1-1.08.66-.87,1.24-1.46,2.77-2.47l2.08-1.36,1.97,1.52c.75.57,1.5,1.22,2.28,1.92-1.6-1.6-2.95-3.03-3.73-4.3l-3.36-5.49,6.44.16c12.21.31,21.57,5.83,26.36,15.54l1.55,3.15-3.16,1.54c-8.06,3.94-15.16,8.92-20.54,14.4l-2.44,2.49-2.5-2.44Z"/>
              <path d="M307.98,488.52c10.02.25,18.78,4.4,23.31,13.59-7.79,3.81-15.41,8.89-21.5,15.09-4.64-4.52-7.03-12.32-8.81-18.48,2-1.83,1.08-1.72,3.33-3.2,4.14,3.18,9.44,9.53,13.81,12.01,7.79-4.04-7.46-14.63-10.15-19.01M295.28,481.2l5.19,8.46c-1.94,1.27-2.78,2.13-3.64,3.28-.13.17-.2.26-.57.6l-3.22,2.94,1.21,4.18c2.28,7.88,4.99,16.03,10.65,21.55l5,4.87,4.89-4.98c5.1-5.2,11.87-9.94,19.58-13.71l6.31-3.09-3.11-6.3c-5.39-10.94-15.84-17.15-29.41-17.49l-12.87-.32h0Z"/>
            </g>
            <g>
              <path class="cls-15" d="M296.26,496.73c-4.01,0-7.66-2.39-9.31-6.08-1.62-3.62-1.95-7.19-.98-10.32,1.3-4.17,5.24-6.97,9.79-6.97h.23c2.89.07,6.52.5,8.88,3.35,2.68,3.24,2.26,8.03,1.71,11.35-.37,2.66-1.91,6.3-7.03,8.11-1.06.37-2.17.56-3.29.56h0Z"/>
              <path d="M295.77,476.86c.05,0,.1,0,.16,0,5.65.12,8.66,1.91,7.21,10.62-.42,2.96-2.35,4.54-4.74,5.38-.7.25-1.42.36-2.13.36-2.57,0-5.01-1.54-6.11-4.01-1.15-2.58-1.61-5.34-.83-7.85.87-2.77,3.55-4.51,6.45-4.51M295.77,469.86c-6.09,0-11.37,3.79-13.13,9.43-1.24,3.95-.85,8.38,1.12,12.79,2.21,4.95,7.12,8.16,12.5,8.16,1.52,0,3.02-.26,4.45-.76,5.26-1.85,8.57-5.73,9.33-10.91.66-3.99,1.1-9.76-2.48-14.08-3.3-3.98-8.14-4.54-11.5-4.61-.1,0-.21,0-.31,0h0Z"/>
            </g>
            <path class="cls-8" d="M446.16,520.97c0,12.35-1.68,17.43-4.94,29.24-2.13-1.19-8.64-4.6-9.08-7.74-1.36-12.68-3.8-27.88-7.75-41.02,6.65,5.11,15.2,11,21.74,13,.06,2.15.06,4.31.03,6.51Z"/>
          </g>
          <g>
            <path class="cls-13" d="M553.09,559.79c-.75,0-1.48-.28-2.05-.81-.78-.73-1.12-1.82-.88-2.87,1.94-8.43,4.86-17.76,14.96-21.81.09-.04.18-.07.27-.09.17-.05,1.7-.48,3.63-.48,4.22,0,7.4,2.07,8.74,5.67,1.09,2.93,1,5.69-.25,8.22-2.88,5.81-11.25,8.36-16.25,9.88l-.79.24c-.06.02-.13.04-.19.05-1.34.32-3.1.87-4.66,1.35-.58.18-1.14.36-1.66.51-.29.09-.58.13-.87.13Z"/>
            <path class="cls-20" d="M569.03,536.73c2.09,0,4.79.65,5.93,3.71,3.4,9.17-9.47,12.62-15.36,14.43-1.95.46-4.53,1.32-6.5,1.92,1.95-8.46,4.6-16.27,13.15-19.7,0,0,1.22-.36,2.78-.36M569.03,530.73h0c-2.31,0-4.14.5-4.48.61-.18.05-.36.12-.54.19-12.41,4.98-15.24,17.3-16.77,23.92-.48,2.09.19,4.27,1.75,5.73,1.13,1.05,2.6,1.62,4.1,1.62.58,0,1.17-.08,1.74-.26.53-.16,1.1-.34,1.69-.52,1.51-.47,3.21-1,4.45-1.3.13-.03.26-.07.39-.11l.78-.24c5.46-1.66,14.61-4.44,18.06-11.42,1.61-3.25,1.74-6.92.38-10.6-1.77-4.78-6.09-7.63-11.55-7.63h0Z"/>
          </g>
          <g>
            <path class="cls-13" d="M66.02,560.64c-7.23-.18-21.47-7.99-23.31-15.66-.41-1.69-.77-5.94,4.57-8.84,2.03-1.1,4.07-1.65,6.08-1.65,3.12,0,6.1,1.36,8.62,3.94,4.85,4.96,7.25,13.46,7.12,19.29-.02.8-.35,1.55-.93,2.1-.56.53-1.3.83-2.07.83-.03,0-.05,0-.08,0Z"/>
            <path class="cls-20" d="M53.35,537.49c8.17,0,12.91,12.71,12.74,20.16-8.41-.21-28.38-12.91-17.39-18.86,1.65-.89,3.2-1.29,4.65-1.29M53.35,531.49h0c-2.51,0-5.04.68-7.51,2.02-4.98,2.7-7.24,7.25-6.06,12.18,1.34,5.58,6.78,9.93,11.11,12.61,5.26,3.25,10.89,5.25,15.04,5.35.05,0,.1,0,.15,0,1.54,0,3.02-.59,4.14-1.66,1.15-1.1,1.82-2.61,1.86-4.21.15-6.45-2.54-15.89-7.97-21.45-3.1-3.17-6.82-4.84-10.77-4.84h0Z"/>
          </g>
          <g>
            <path class="cls-13" d="M589.12,583.8c-1.76,0-3.43-.29-5.05-.57-.39-.07-.78-.14-1.16-.2-3.57-.6-5.63-.85-9.21-1.11-1.12-.08-2.09-.78-2.54-1.8-.44-1.03-.28-2.22.43-3.08,4.01-4.93,9.36-8.53,14.31-9.64.94-.21,1.89-.32,2.82-.32,3.33,0,6.37,1.34,8.36,3.69,1.43,1.69,2.05,3.79,1.74,5.93-.31,2.17-1.59,4.12-3.49,5.37-1.76,1.16-3.79,1.73-6.2,1.73Z"/>
            <path class="cls-20" d="M588.72,570.09c2.55,0,4.73,1.05,6.07,2.63,1.86,2.2,1.28,5.29-1.11,6.86-1.42.93-2.97,1.23-4.56,1.23-1.9,0-3.87-.43-5.73-.73-3.66-.62-5.79-.87-9.47-1.14,4.17-5.12,9.17-7.83,12.64-8.6.74-.17,1.47-.24,2.16-.24M588.72,564.09h0c-1.15,0-2.32.13-3.47.39-5.58,1.24-11.56,5.23-15.99,10.67-1.41,1.74-1.74,4.11-.85,6.17.89,2.05,2.84,3.44,5.08,3.61,3.51.25,5.43.48,8.91,1.07.41.07.79.13,1.17.2,1.66.29,3.54.62,5.56.62,2.97,0,5.62-.75,7.86-2.22,2.62-1.72,4.37-4.43,4.81-7.45.43-2.95-.45-5.97-2.41-8.29-2.56-3.02-6.44-4.75-10.65-4.75h0Z"/>
          </g>
          <g>
            <path class="cls-13" d="M30.95,585.58c-3.85,0-6.73-1.22-8.56-3.62-.14-.18-.25-.38-.35-.58-1.16-2.55-1.3-4.88-.43-6.91.98-2.29,3.16-4,6.65-5.21.86-.3,1.81-.45,2.81-.45,5.92,0,13.17,5.37,16.76,10.56.68.98.71,2.28.08,3.29-.55.89-1.52,1.41-2.54,1.41-.15,0-.3-.01-.45-.03-.28-.04-.61-.06-.98-.06-1.53,0-3.48.35-5.56.72-2.45.44-4.99.89-7.43.89Z"/>
            <path class="cls-20" d="M31.07,571.81c4.62,0,11.09,4.64,14.29,9.27-.45-.07-.93-.1-1.43-.1-3.7,0-8.77,1.6-12.98,1.6-2.53,0-4.75-.58-6.18-2.44-1.84-4.07-.1-6.46,4.47-8.05.56-.2,1.17-.29,1.82-.29M31.07,565.81h0c-1.34,0-2.61.21-3.79.62-4.33,1.51-7.09,3.75-8.42,6.86-.84,1.95-1.44,5.16.45,9.33.19.41.42.8.7,1.17,2.43,3.18,6.11,4.8,10.94,4.8,2.7,0,5.49-.5,7.95-.93,1.85-.33,3.77-.67,5.03-.67.29,0,.46.02.53.03.3.05.6.07.9.07,2.05,0,3.98-1.05,5.09-2.82,1.27-2.03,1.21-4.62-.15-6.59-3.97-5.75-12.06-11.86-19.23-11.86h0Z"/>
          </g>
          <g>
            <g>
              <path class="cls-17" d="M152.13,312.09c7.11-37.49,38.66-96,66.21-122.75l.14-.12c3.72-3.25,7.34-4.83,11.07-4.83,5.71,0,10.17,3.71,14.49,7.3,2.12,1.76,4.3,3.58,6.56,4.87,1.24-1.16,2.32-4.04,3.16-6.26.69-1.84,1.41-3.75,2.34-5.34,6.71-15.59,17.92-29.92,32.42-41.46,2.74-2.21,6.01-3.34,9.7-3.34,22.99,0,57.42,46.08,65.12,59.12l.07.12.06.12c2.71,5.55,5.11,7.53,6.46,7.53.94,0,2-.89,2.73-1.64l.13-.13.14-.12c.59-.49,1.25-1.11,1.94-1.76,2.85-2.68,6.41-6.02,10.91-6.02.51,0,1.03.04,1.53.13l.72.13.61.41c26.09,17.42,53.54,57.37,63.87,92.92l2.07,7.14-6.82-2.95c-6.62-2.86-11.59-3.63-16.39-4.38-4.45-.69-8.65-1.34-13.48-3.53-17.48-7.92-28.87-12.77-42.4-12.77-14.37,0-30.36,5.61-53.5,18.74l-.54.3-.61.1c-3.76.64-7.67.96-11.61.96-13.98,0-26.97-3.97-39.54-7.81-11.88-3.63-23.1-7.05-34.51-7.05-14.38,0-26.96,5.62-39.6,17.69-7.25,7.33-16,10.2-24.47,12.98-4.66,1.53-9.47,3.11-13.93,5.43l-6.4,3.34,1.34-7.1Z"/>
              <path d="M298.21,143.66c20.47,0,53.91,43.51,62.1,57.4,2.22,4.55,5.52,9.5,9.6,9.5,1.63,0,3.38-.79,5.24-2.7,2.97-2.48,6.59-6.97,10.61-6.97.31,0,.61.03.92.08,26.49,17.69,52.78,57.67,62.45,90.99-13.19-5.7-20.4-3.62-29.81-7.88-16.71-7.57-29.22-13.08-43.84-13.08-14.36,0-30.77,5.31-55.23,19.2-3.74.63-7.41.91-11.03.91-26.38,0-49.71-14.86-74.05-14.86-13.47,0-27.24,4.54-42.02,18.66-10.65,10.77-24.82,11.16-37.61,17.84,7.16-37.79,39.24-95.68,65.21-120.89,3.26-2.85,6.13-3.97,8.77-3.97,7.48,0,13.14,8.95,20.98,12.58,5.04-1.12,6.1-9.67,8.69-13.9,6.92-16.18,18.32-29.85,31.48-40.32,2.2-1.78,4.74-2.58,7.52-2.58M298.21,136.66c-4.5,0-8.51,1.39-11.9,4.12-14.89,11.85-26.41,26.57-33.35,42.61-1.02,1.79-1.76,3.77-2.48,5.68-.27.72-.62,1.65-.99,2.53-1.05-.8-2.12-1.69-3.21-2.6-4.57-3.8-9.75-8.11-16.73-8.11-4.55,0-9.05,1.92-13.37,5.69l-.14.12-.13.13c-27.96,27.15-60,86.54-67.21,124.61l-2.69,14.19,12.81-6.68c4.2-2.19,8.67-3.66,13.4-5.21,8.83-2.9,17.97-5.89,25.87-13.83,11.92-11.37,23.71-16.66,37.11-16.66,10.89,0,21.87,3.35,33.49,6.9,12.82,3.91,26.07,7.96,40.57,7.96,4.13,0,8.24-.34,12.2-1.01l1.21-.21,1.07-.61c22.27-12.65,38.24-18.29,51.77-18.29,12.81,0,23.91,4.73,40.96,12.46,5.26,2.38,9.9,3.1,14.39,3.8,4.58.71,9.32,1.45,15.53,4.13l13.65,5.9-4.15-14.28c-4.98-17.13-14.16-36.07-25.85-53.33-12.12-17.89-26.13-32.64-39.44-41.53l-1.22-.82-1.45-.26c-.7-.12-1.42-.19-2.14-.19-5.89,0-10.18,4.03-13.31,6.97-.66.62-1.28,1.2-1.79,1.62l-.29.24-.26.27c-.07.07-.14.14-.2.2-.67-.66-1.84-2.12-3.33-5.18l-.12-.25-.14-.24c-3.92-6.65-14.45-21.5-27.39-35.16-16.13-17.04-29.84-25.68-40.74-25.68h0Z"/>
            </g>
            <path class="cls-22" d="M250.44,200.46c.76-.21,2.25-.62,2.68-1.31,2.25-3.83,4.24-8.47,6.01-12.6,6.92-16.18,18.32-29.84,31.48-40.32,7.34-5.84,12.39-3.05,19.36,1.45,18.52,11.97,38.78,33.63,50.26,53.37-1.66,8.64-2.12,18.01-9.57,23.42-6.76,4.95-16.1,3.28-22.57-1.36-3.38-2.42-6.37-7.83-10.12-9.47-1.55.21-4.8,5.56-5.28,6.36-5.4,9.03-11.32,13.33-21.33,12.04-17.62-2.26-32.32-14.79-41.13-30.94l.22-.66h0Z"/>
            <path class="cls-4" d="M306.1,275.5c-21.28,2.08-43.38-11.21-63.54-14.41-32.7-3.41-55.32,10.76-72.42,32.52-33.45,7.67-39.53,39.78-32.3,61.22-21.59,29.62-16.38,83.59,41.67,88.63,20.21,18.96,42.36,24.5,68.61,16.16,17.82,9.77,37.83,14.18,57.98,14.12,20.15.06,40.16-4.35,57.98-14.12,26.25,8.34,48.4,2.8,68.61-16.16,58.06-5.05,63.26-59.01,41.67-88.63,7.23-21.44,1.15-53.55-32.3-61.22-17.1-21.76-39.72-35.92-72.42-32.52-20.17,3.2-42.26,16.5-63.54,14.41Z"/>
            <path class="cls-19" d="M301.27,383.99c0,2.98-4.13,5.39-9.22,5.39s-9.22-2.41-9.22-5.39,4.13-6.55,9.22-6.55,9.22,3.57,9.22,6.55Z"/>
            <path class="cls-6" d="M267.97,413.97c8.02-6.83,13.95-9.31,24.08-2.3,6.41-4.47,16.02-10.86,32.42,2.3"/>
            <path class="cls-9" d="M192.12,366.07c16.79.3,30.14,14.17,29.82,30.96-.32,16.79-14.2,30.13-30.99,29.79-16.76-.34-30.08-14.19-29.76-30.95s14.16-30.1,30.93-29.8"/>
            <path class="cls-9" d="M407.93,370.19c16.79.3,30.14,14.17,29.82,30.96-.32,16.79-14.2,30.13-30.99,29.79-16.76-.34-30.08-14.19-29.76-30.95.32-16.76,14.16-30.1,30.93-29.8"/>
            <g>
              <path class="cls-13" d="M513.55,646.77c-21.62,0-39-3.71-51.64-11.02-5.78-3.34-8.63-7.21-8.45-11.5.2-4.87,4.31-9.35,11.89-12.95,2.37-1.13,4.75-1.76,7.05-2.37.82-.22,1.61-.43,2.38-.65-.15-.49-.32-1.01-.49-1.53-1.47-4.51-3.3-10.13-1.24-14.08.88-1.69,2.38-2.89,4.33-3.47.6-.18,1.21-.27,1.8-.27,3.56,0,5.61,2.94,7.25,5.3.37.54.79,1.13,1.2,1.65.19-4.23,0-8.69-.19-13.01-.05-1.12-.1-2.22-.14-3.32-.85-18.71-2.67-37.59-5.4-56.09-.3-2.05-.6-4.16-.89-6.29-.75-5.39-1.52-10.96-2.55-16.07-7.86-39.12-26.49-90.89-70.6-115.35-5.13-2.84-11.49-4.94-17.65-6.97-3.62-1.19-7.37-2.43-10.79-3.79l-4.15-1.66,3.11-3.21c8.12-8.4,21.31-11.69,30.94-12.97,1.02-.14,2.17-.21,3.33-.21,7.5,0,12.41,2.76,13.47,7.58.45,2.06.18,3.83-.82,5.24-1.52,2.15-4.14,2.7-6.46,3.02,1.92,1,3.95,2,5.94,2.98,2.66,1.31,5.4,2.66,7.81,3.97,29.16,15.85,52.17,39.78,68.41,71.11,16.56,31.95,22.2,63.79,26.96,96.3.97,6.62,2.03,14.53,2.58,23.04.31,4.95.48,9.93.52,14.8,0,.48,0,1.11-.02,1.84-.03,1.34-.09,4.77.16,6.88.98-.8,1.93-1.71,2.93-2.67,2.78-2.66,5.93-5.68,10.61-6.79,1.15-.27,2.17-.4,3.11-.4,2.99,0,4.58,1.37,5.38,2.52,2.64,3.78.36,10.05-1.85,16.11-.49,1.35-1.14,3.14-1.55,4.51,2.06.5,4.15.91,6.18,1.31,7.96,1.56,16.19,3.17,22.51,10.18,3.04,3.37,3.09,8.5.13,11.94-7.04,8.17-22.29,13.25-46.63,15.53-6.33.57-12.54.86-18.47.86Z"/>
              <path class="cls-20" d="M412.65,359.92c4.15,0,9.62,1.03,10.54,5.22,1.42,6.43-8.32,3.47-10.35,6.37.06.64.08,1.43.69,1.78,5.29,3.06,12.25,6.13,17.61,9.05,29.66,16.12,51.68,39.95,67.18,69.85,16,30.87,21.68,61.38,26.65,95.36,1.12,7.69,2.05,14.97,2.56,22.8.3,4.87.48,9.75.51,14.63.02,2.65-.48,10.25,1.14,12.06.48.2.95.4,1.43.4.31,0,.63-.08.96-.3,4.74-3.24,7.82-8.56,13.83-9.98.93-.22,1.73-.32,2.42-.32,9.07,0-2.05,18.02-1.35,22.35,10.8,3.15,22,2.62,29.8,11.28,2.03,2.25,2.06,5.68.08,7.98-9.01,10.46-32.71,13.38-44.64,14.5-5.71.51-11.87.84-18.19.84-17.44,0-36.13-2.51-50.14-10.61-12.14-7.01-6.68-14.44,3.22-19.14,3.67-1.75,7.61-2.22,11.38-3.64l.37-.14c-.77-4.7-6.88-16.14-.15-18.15.33-.1.64-.14.94-.14,3.49,0,5.15,6.16,8.26,7.76.12.01.24.02.36.02,1.23,0,2.64-.68,2.74-1.97.43-5.96,0-12.31-.22-18.31-.86-18.89-2.67-37.72-5.43-56.42-1.08-7.31-2.01-15.29-3.47-22.52-9.14-45.47-29.66-93.85-72.09-117.38-8.48-4.71-19.69-7.29-28.78-10.92,7.2-7.45,19.21-10.76,29.18-12.09.81-.11,1.82-.18,2.93-.18M412.65,353.92h0c-1.29,0-2.58.08-3.72.23-10.11,1.35-23.99,4.85-32.7,13.86l-6.21,6.42,8.3,3.32c3.5,1.4,7.29,2.65,10.96,3.85,6.03,1.98,12.26,4.04,17.14,6.74,43.11,23.91,61.38,74.82,69.11,113.32,1.01,5.02,1.78,10.55,2.52,15.89.3,2.14.59,4.26.9,6.33,2.72,18.4,4.52,37.18,5.37,55.81.04,1.06.09,2.18.14,3.3.07,1.58.14,3.17.19,4.76-1.46-1.07-3.25-1.83-5.46-1.83-.89,0-1.78.13-2.66.39-2.75.82-4.87,2.53-6.14,4.95-2.4,4.58-.95,10.17.57,14.93-2.15.58-4.53,1.25-6.9,2.38-10.93,5.2-13.43,11.32-13.6,15.54-.15,3.77,1.45,9.3,9.95,14.21,13.11,7.58,30.99,11.42,53.15,11.42,6.03,0,12.33-.29,18.73-.87,25.17-2.35,41.08-7.77,48.65-16.56,3.95-4.58,3.87-11.42-.17-15.91-6.99-7.76-16.12-9.54-24.16-11.12-.97-.19-1.92-.38-2.86-.57.16-.45.32-.88.46-1.27,2.47-6.78,5.03-13.8,1.49-18.85-.99-1.42-3.33-3.8-7.84-3.8-1.18,0-2.42.16-3.79.48-4.3,1.02-7.45,3.37-10.01,5.68,0-.04,0-.09,0-.13.02-.76.03-1.42.02-1.93-.03-4.93-.21-9.97-.52-14.96-.57-8.65-1.64-16.63-2.61-23.29-4.79-32.78-10.49-64.89-27.26-97.25-16.51-31.87-39.94-56.22-69.64-72.36-2.42-1.31-5.14-2.65-7.78-3.95.55-.46,1.06-1,1.51-1.64,1.04-1.47,2.1-3.98,1.3-7.62-1.38-6.22-7.51-9.93-16.4-9.93h0Z"/>
            </g>
            <g>
              <path class="cls-13" d="M447.79,368.55c-.26,0-.52,0-.78-.03-2.08-.15-4.03-.9-5.49-2.11-1.72-1.43-2.62-3.4-2.48-5.41.26-3.6,3.78-6.32,8.19-6.32.26,0,.52,0,.78.03,2.08.15,4.03.9,5.49,2.11,1.72,1.43,2.62,3.4,2.48,5.41-.26,3.6-3.78,6.32-8.19,6.32Z"/>
              <path class="cls-20" d="M447.24,357.69c.19,0,.37,0,.56.02,3.02.22,5.35,2.15,5.19,4.31-.15,2.02-2.42,3.53-5.2,3.53-.19,0-.37,0-.56-.02-3.02-.22-5.35-2.15-5.19-4.31.15-2.02,2.42-3.53,5.2-3.53M447.24,351.69h0c-6,0-10.8,3.91-11.18,9.1-.4,5.55,4.31,10.26,10.74,10.73.33.02.67.04,1,.04,6,0,10.8-3.91,11.18-9.1.22-2.99-1.08-5.88-3.55-7.93-1.93-1.61-4.49-2.6-7.18-2.79-.33-.02-.67-.04-1-.04h0Z"/>
            </g>
            <g>
              <path class="cls-13" d="M105.46,635.12c-7.81,0-22.09-.53-30.15-4.05-1.56-.6-3.12-1.08-4.77-1.58l-.68-.21c-3.47-1.07-7.55-3.25-10.14-5.43-3.47-2.78-3.24-5.91-2.78-7.52,1.52-5.42,9.84-9.32,13.69-9.81h.11c1.96-.19,2.71-.54,2.94-.68.02-.72-.73-2.61-1.24-3.88-.46-1.16-.98-2.46-1.41-3.85-1.8-5.84-1.74-10.12.19-12.74,1.18-1.6,3.01-2.48,5.16-2.48,2.48,0,5.41,1.13,8.96,3.45,1.08.71,2.14,1.76,3.26,2.87.67.67,1.8,1.79,2.76,2.54.11-2.24.13-4.53.16-6.75.03-2.37.06-4.82.18-7.26.51-12.22,1.7-24.59,3.52-36.75,4.84-31.08,9.6-56.99,22.84-84.13,11.02-22.58,22.98-39.35,40.01-56.05,5.54-5.36,11.45-10.43,17.59-15.08.83-.62,2.04-1.43,3.46-2.37,2.57-1.71,8.94-5.95,10.75-8.31-.58-.3-1.43-.57-2.2-.82-2.43-.77-6.11-1.94-7.03-6.01l-.13-.58.1-.58c.74-4.39,5.66-7.01,13.15-7.01.23,0,.44,0,.65,0,9.85.27,19.83,4.53,26.03,11.1l.33.35,2.24,4.74-1.88,1.48c-1.78,1.4-4.18,2.45-6.5,3.47-1.26.55-2.45,1.07-3.39,1.59-10.08,5.46-19.17,12.73-27.03,21.61-26.62,30.08-42.15,72.65-47.46,130.15-.09,1.03-.23,2.4-.39,4.06-3.43,35.17-3.62,49.77-2.85,55.34.29-.4.58-.8.81-1.12,1.83-2.57,3.9-5.48,7.17-5.48.71,0,1.42.15,2.09.44,6.37,2.78,3.85,11.01,2.34,15.93-.13.42-.26.84-.37,1.23,1.1.87,2.26,1.58,3.4,2.28,2.33,1.43,4.73,2.91,6.42,5.57,1.78,2.81,1.47,6.55-.75,9.08-5.62,6.38-14.46,9.13-20.62,10.63-6.63,1.62-17.57,2.63-28.54,2.63Z"/>
              <path class="cls-20" d="M193.77,363.04c.2,0,.39,0,.56,0,8.66.24,17.95,3.83,23.93,10.16l1.02,2.15c-2.38,1.87-6.68,3.26-9.47,4.78-10.51,5.7-19.92,13.31-27.83,22.25-31.96,36.11-43.87,84.96-48.2,131.86-.97,10.52-6.11,58.09-2.02,64,.26.13.52.19.78.19,3.02,0,5.61-8.11,8.97-8.11.29,0,.59.06.89.19,5.03,2.2.47,11.8-.19,15.45,3.85,3.75,8.3,4.72,10.64,8.41,1.09,1.72.87,3.96-.47,5.5-4.75,5.4-12.3,8.04-19.08,9.7-6.39,1.56-17.12,2.54-27.83,2.54-11.44,0-22.86-1.11-29-3.82-1.9-.73-3.76-1.28-5.7-1.88-3.02-.93-6.74-2.88-9.1-4.86-6.54-5.24,4.98-11.51,9.36-12.07,9.23-.84,4.86-5.86,2.89-12.27-2.14-6.92-1.39-11.34,2.48-11.34,1.77,0,4.2.93,7.31,2.96,2.44,1.59,5.89,6.65,9.05,6.65h.02c1.12-.68,1.45-1.14,1.54-2.65.28-4.96.15-9.96.4-14.95.51-12.2,1.68-24.37,3.5-36.45,4.61-29.6,9.27-56.01,22.57-83.26,10.64-21.8,22.15-38.29,39.42-55.22,5.46-5.29,11.24-10.24,17.3-14.83,3.47-2.62,16.13-9.93,15.81-13.79-1.75-3.71-8.71-2.31-9.72-6.78.63-3.74,6.8-4.52,10.19-4.52M193.77,357.04c-9.08,0-15.1,3.56-16.11,9.51l-.2,1.17.26,1.15c.94,4.19,3.88,6.18,6.45,7.28-2.41,1.84-5.38,3.82-6.71,4.71-1.45.97-2.7,1.8-3.59,2.47-6.25,4.73-12.25,9.88-17.86,15.31-17.32,16.99-29.46,33.99-40.63,56.9-13.42,27.51-18.22,53.65-23.1,84.97-1.84,12.29-3.04,24.76-3.56,37.12-.12,2.45-.15,4.92-.18,7.32,0,.01,0,.03,0,.04-.49-.43-1-.82-1.54-1.17-4.05-2.65-7.52-3.94-10.6-3.94-3.12,0-5.81,1.32-7.57,3.7-2.56,3.47-2.77,8.51-.64,15.4.46,1.5,1.01,2.87,1.49,4.08.07.17.14.34.21.52-4.88.79-13.94,5.26-15.81,11.92-1.11,3.94.27,7.83,3.79,10.68,2.92,2.44,7.28,4.77,11.14,5.96l.68.21c1.57.48,3.06.94,4.51,1.49,8.57,3.71,23.26,4.27,31.28,4.27,11.2,0,22.41-1.04,29.26-2.71,6.56-1.6,15.99-4.55,22.16-11.57,3.1-3.53,3.53-8.74,1.04-12.67-2.06-3.25-4.88-4.98-7.38-6.52-.5-.31-.99-.61-1.47-.92.69-2.29,1.45-5,1.63-7.67.49-7.43-3.96-10.2-5.9-11.04-1.05-.46-2.16-.69-3.29-.69-2.13,0-3.87.76-5.31,1.86-.02-3.58.11-8.52.5-15.32.7-11.89,1.92-24.49,2.66-32.01.16-1.65.29-3.02.39-4.05,5.25-56.84,20.53-98.85,46.72-128.43,7.62-8.61,16.44-15.66,26.2-20.95.84-.46,1.98-.96,3.17-1.48,2.49-1.09,5.06-2.22,7.14-3.85l3.77-2.96-2.05-4.33-1.02-2.15-.41-.86-.65-.69c-6.84-7.24-17.35-11.75-28.13-12.04-.23,0-.47,0-.73,0h0Z"/>
            </g>
            <g>
              <path class="cls-13" d="M153.88,378.52c-4.17,0-7.39-2-8.21-5.1-1.08-4.07,2.42-8.4,7.97-9.88,1.2-.32,2.42-.48,3.61-.48,4.17,0,7.39,2,8.21,5.11.58,2.17-.13,4.52-1.95,6.44-1.48,1.58-3.62,2.79-6.02,3.43-1.2.32-2.42.48-3.61.48Z"/>
              <path class="cls-20" d="M157.25,366.06c2.68,0,4.84,1.08,5.31,2.87.64,2.4-1.98,5.18-5.84,6.21-.97.26-1.93.38-2.84.38-2.68,0-4.84-1.08-5.31-2.87-.64-2.4,1.98-5.18,5.84-6.21.97-.26,1.93-.38,2.84-.38M157.25,360.06h0c-1.45,0-2.92.2-4.38.58-7.29,1.94-11.64,7.76-10.1,13.55,1.18,4.46,5.54,7.34,11.11,7.34,1.45,0,2.92-.2,4.38-.58,7.29-1.94,11.64-7.76,10.1-13.55-1.18-4.46-5.54-7.33-11.11-7.33h0Z"/>
            </g>
            <path class="cls-2" d="M223.74,373.22s20.96,8.18,39.26-7.29"/>
            <path class="cls-2" d="M373.25,373.22s-20.96,8.18-39.26-7.29"/>
            <path class="cls-14" d="M486.04,389.95c-12.18,4.1-24.56,7.38-36.44,3.9-.45-2.13-14.54-6.45-15.96,13.18-18.09,11.81-48.14,29.4-72.94,6.9-7.08,4.77-69.85,42.13-118.31,2.21-17.07,10.69-38.57-.4-56.12-11.32,1.76-6.77-5.39-18.04-20.52-10.62-15.34,4.84-24.43,1.79-39.51-6.47.66-11.85,4.79-23.59,11.59-32.91-6.39-18.93-2.38-46.17,21.68-57.57,11.38-36.67,38.65-83.43,61.26-105.41,12.53-10.94,19.15,3.71,29.74,8.61,5.04-1.13,6.1-9.66,8.7-13.9,36.09-74.76,64.95-35.35,101.1,14.5,3.1,6.38,8.32,13.52,14.84,6.8,19.68-28.39,70.32,64.26,73.99,84.09-4.4-1.9-8.13-2.94-11.49-3.63,1.5,1.7,2.98,3.46,4.4,5.28,33.46,7.68,39.53,39.78,32.31,61.23,7.21,9.9,11.44,22.52,11.68,35.12Z"/>
            <line class="cls-7" x1="385.9" y1="265.64" x2="385.9" y2="323.48"/>
            <line class="cls-7" x1="408.85" y1="268.41" x2="408.85" y2="326.26"/>
            <line class="cls-7" x1="364.59" y1="287.22" x2="364.59" y2="312.42"/>
            <line class="cls-7" x1="460.79" y1="294.56" x2="460.79" y2="319.76"/>
            <line class="cls-7" x1="444.39" y1="297.34" x2="444.39" y2="328.68"/>
            <line class="cls-7" x1="425.74" y1="297.34" x2="425.74" y2="322.54"/>
          </g>
          <g>
            <g>
              <path class="cls-11" d="M301.7,181.29c-2.81,0-5.64-.13-8.42-.4-9.34-1.06-26.87-4.22-39.97-13.56-2.62-1.87-4.88-3.85-7.07-5.77-.46-.4-.92-.8-1.38-1.2-1.27.55-2.58,1.27-3.94,2.02-2,1.1-4.07,2.23-6.39,3.04-6.15,2.14-12.67,3.22-19.36,3.22-9.09,0-18.24-2.04-26.45-5.91-3.21-1.51-5.89-3.55-8.25-5.36-1.51-1.15-2.95-2.25-4.32-3.05-2.06.39-4.15,1.06-6.35,1.77-2.21.71-4.5,1.44-6.9,1.92-3.42.68-6.98,1.03-10.6,1.03-19.95,0-36.85-10-43.05-25.46-5.01-12.51-2.34-24.85,7.72-35.68,11.45-12.33,26.01-14.32,41.19-15.38,1.19-.19,1.99-3.1,2.58-5.23.33-1.18.64-2.3,1.06-3.3,8.24-19.56,26.27-31.71,47.03-31.71,7.72,0,15.38,1.65,22.76,4.91,1.57.67,4.72,2,6.2,2.31.26-.61.6-1.64.91-2.58.35-1.08.75-2.3,1.29-3.73,8.81-23.73,33.84-39.68,62.29-39.68,24.95,0,45.79,12.05,55.77,32.23l.26.52c.87,1.77,2.24,4.56,3.61,5.91,1.18-.38,3.1-1.42,3.82-1.81l.55-.3c9.3-4.94,19.67-7.56,29.98-7.56,28.37,0,52.95,19.22,59.86,46.77.04.11.09.22.13.34.15.37.47,1.21.76,1.75.46.03.96.05,1.51.05,1.09,0,2.22-.06,3.41-.13,1.23-.07,2.51-.14,3.79-.14.83,0,1.58.03,2.29.09,24.94,2.15,42.21,13.58,48.63,32.2,2.54,7.3,1.86,15.12-1.95,22.63-4.58,9-13.31,16.38-22.78,19.26-5.25,1.59-10.2,2.37-15.14,2.37s-9.57-.72-14.67-2.2c-1.08-.3-2.33-.72-3.65-1.18-2.1-.72-4.47-1.53-5.94-1.7-1.21.22-4.67,3.05-6.35,4.41-1.28,1.04-2.38,1.95-3.32,2.56-10.79,7.01-24.18,10.72-38.73,10.72-3.2,0-6.48-.18-9.74-.53-6.96-.73-13.47-2.5-19.9-5.42-1.59-.72-3.38-1.98-5.28-3.3-1.59-1.11-4.52-3.16-5.61-3.38-1.46.24-5.6,3.89-7.6,5.66-2,1.76-3.72,3.28-5.19,4.17-15.09,9.04-32.07,13.82-49.11,13.83Z"/>
              <path d="M302.29,7c21.38,0,42.47,9.71,52.63,30.28,1.38,2.79,3.32,6.99,6.03,8.5.1.01.21.02.33.02,1.93,0,5.1-1.83,6.67-2.67,9.15-4.86,18.86-7.15,28.34-7.15,25.7,0,49.72,16.77,56.53,44.36.49,1.17,1.48,4.19,2.89,4.38.93.13,1.89.17,2.85.17,2.38,0,4.83-.27,7.2-.27.67,0,1.34.02,1.99.08,19.73,1.7,38.77,9.99,45.62,29.85,5.57,16.02-7.63,32.9-22.45,37.4-4.86,1.48-9.49,2.22-14.13,2.22s-8.96-.69-13.7-2.06c-2.94-.81-7.45-2.73-10.31-3.01-.07,0-.15-.01-.23-.01-3.12,0-8.94,5.81-11.6,7.54-10.99,7.14-23.88,10.15-36.82,10.15-3.13,0-6.26-.18-9.36-.51-6.62-.69-12.8-2.39-18.83-5.13-3.27-1.48-8.94-6.67-12.03-6.99-.08,0-.17-.01-.26-.01-3.9,0-11.18,8.26-14.63,10.33-14.24,8.53-30.72,13.33-47.31,13.33-2.7,0-5.39-.13-8.08-.38-12.91-1.47-27.74-5.41-38.27-12.92-3.58-2.55-6.46-5.33-9.76-8.11l-.43.14c-4.01,1.32-7.62,4.16-11.77,5.6-5.87,2.04-12.04,3.03-18.21,3.03-8.58,0-17.17-1.91-24.96-5.58-5.35-2.52-9.24-6.85-13.47-8.89l-.52.08c-4.76.78-9.27,2.87-14.01,3.82-3.19.64-6.53.96-9.91.96-16.29,0-33.49-7.52-39.8-23.27-4.87-12.14-1.4-22.92,7.04-32,10.67-11.48,24.28-13.25,38.96-14.28,4.72-.51,5.15-7.4,6.52-10.65,8.03-19.06,25.19-29.57,43.81-29.57,7.04,0,14.3,1.5,21.35,4.61,4.14,1.76,6.55,2.66,8.11,2.66,2.72,0,2.81-2.78,4.99-8.65,9.04-24.34,34.22-37.39,59.01-37.39M302.29,0c-13.78,0-27.64,3.75-39.01,10.57-12.54,7.52-21.73,18.37-26.56,31.39-.43,1.16-.78,2.2-1.08,3.1-1.06-.42-2.11-.87-2.67-1.1-7.82-3.44-15.94-5.19-24.13-5.19-22.2,0-41.46,12.97-50.26,33.85-.51,1.21-.86,2.49-1.21,3.73-.22.79-.54,1.97-.85,2.77-15.4,1.15-30.15,3.52-42.1,16.39-11.05,11.9-13.96,25.51-8.41,39.37,6.74,16.8,24.91,27.66,46.3,27.66,3.85,0,7.64-.37,11.29-1.1,2.59-.52,4.97-1.28,7.28-2.02,1.6-.51,3.15-1.01,4.62-1.37.89.61,1.86,1.35,2.85,2.11,2.51,1.91,5.35,4.08,8.89,5.75,8.68,4.08,18.34,6.24,27.94,6.24,7.09,0,13.99-1.15,20.51-3.42,2.6-.9,4.9-2.16,6.92-3.28.58-.32,1.15-.63,1.7-.92,2.14,1.87,4.37,3.8,6.98,5.66,13.74,9.79,31.92,13.09,41.54,14.18h.06s.06.01.06.01c2.88.28,5.83.42,8.75.42,17.67,0,35.27-4.95,50.91-14.32,1.75-1.05,3.58-2.67,5.71-4.55,1.41-1.25,3.81-3.36,5.35-4.39,1.07.64,2.54,1.67,3.54,2.36,2.03,1.42,3.95,2.76,5.83,3.62,6.78,3.08,13.65,4.95,21,5.72,3.37.36,6.77.55,10.09.55,15.23,0,29.28-3.9,40.64-11.29,1.1-.72,2.27-1.67,3.63-2.78,1.14-.93,3.33-2.71,4.61-3.48,1.24.31,3.04.92,4.33,1.37,1.36.46,2.64.9,3.84,1.24,5.41,1.56,10.51,2.32,15.6,2.32s10.58-.82,16.16-2.52c10.35-3.14,19.89-11.2,24.89-21.02,4.2-8.25,4.96-17.27,2.14-25.37-6.89-19.98-25.23-32.25-51.63-34.52-.82-.07-1.66-.1-2.59-.1-1.38,0-2.71.08-3.99.15-.82.05-1.61.09-2.36.11-3.75-14.48-11.87-26.79-23.54-35.64-11.27-8.55-25.32-13.26-39.58-13.26-10.88,0-21.82,2.75-31.62,7.97l-.57.31c-.24.13-.6.33-1.02.54-.64-1.1-1.26-2.37-1.62-3.1l-.26-.52c-5.44-11.01-14.1-19.96-25.04-25.9-9.98-5.41-21.69-8.27-33.86-8.27h0Z"/>
            </g>
            <path class="cls-21" d="M513.37,114.55c5.57,16.02-7.64,32.9-22.45,37.4-9.54,2.9-18.16,2.96-27.82.16-2.94-.81-7.45-2.73-10.31-3.01-3.06-.3-9.1,5.76-11.83,7.53-13.64,8.87-30.22,11.37-46.19,9.64-6.62-.69-12.8-2.39-18.83-5.13-3.27-1.49-8.94-6.67-12.04-6.99-3.83-.39-11.37,8.2-14.89,10.31-16.55,9.92-36.13,14.79-55.39,12.95-12.91-1.47-27.74-5.41-38.27-12.92-3.58-2.55-6.46-5.33-9.76-8.11l-.43.14c-4.01,1.32-7.62,4.16-11.77,5.6-14.02,4.87-29.79,3.75-43.18-2.55-5.35-2.52-9.24-6.85-13.47-8.89l-.52.08c-4.76.78-9.27,2.87-14.01,3.82-18.6,3.73-42.09-3.29-49.71-22.3,3.18-.17,8.73,3.66,12.7,4.8,11.29,3.24,24.65,4,36.01.64,7.73-2.29,10.33-5.88,19.06-5.58,5.1,2.99,8.53,6.32,14.65,8.14,14.6,4.34,31.28,1.1,44.39-6.2,1.23-.69,4.9-2.27,5.92-1.87,3.09,1.22,8.02,6.27,10.7,8.42,1.61,1.27,3.29,2.45,5.03,3.52,3.39,2.11,7.31,3.65,11.21,4.93,23.95,7.82,51.59,5.38,73.84-6.4,5.69-3.01,10.88-8.35,15.82-12.44,3.97-3.29,7.17-1.1,10.85,1.42,3.95,2.7,7.89,5.5,12.55,6.86,4.31,1.33,8.45,2.9,12.96,3.51,12.66,1.53,29.12-.15,40.51-6.05,9.56-5.38,10.47-9.56,22.28-5.66,14.9,4.93,33.31,1.41,45.04-9.17,2.14-1.93,3.79-4.37,6.35-5.76.68-.37.55-.16.99-.83"/>
          </g>
          <path class="cls-12" d="M566.92,624.26l.43.7c-.43,1.51-4.1,3.63-5.61,4.36-14.39,6.93-30.32,9.22-46.15,9.5-3.4.06-8.18.23-11.35-.81-7.55-7.99,12.53-5.8,15.33-6,16.55-1.19,31.74-1.21,47.35-7.75"/>
          <path class="cls-12" d="M482.17,446.03c2.77-.16,4.44,1.24,6.06,3.52,4.91,6.95,10.45,16.17,10.76,24.89.03.94-1.05,1.47-1.7,1.92-2.01.04-3.98-.26-5.45-1.76-2.44-2.5-11.52-21.96-11.46-25.19.03-1.53.79-2.34,1.79-3.38"/>
          <path class="cls-12" d="M514.44,547.1c5.93,2.77,6.86,25.62,5.5,31.89-.27,1.23-1.09,2.87-1.69,4.02-4.56-.4-5.33-8.58-5.26-12.06.14-5.96-1.93-19.04,1.45-23.85"/>
          <path class="cls-12" d="M114.33,538.89l1.1.29c2.55,2.48,1.2,14.25,1.49,18.2.24,3.22-.56,12.11-4.3,13.12-1.43-1.46-2.52-3.12-2.72-5.17-.63-6.52,0-21.7,4.43-26.44"/>
          <path class="cls-12" d="M137.84,449.85c3.77,1.06,2.69,5.69,1.56,8.46-2.13,5.19-3.28,14.92-8.57,17.38-4.88-2.3-2.77-8.17-1.39-12.2,1.83-5.33,3.84-10.15,8.4-13.63"/>
          <path class="cls-12" d="M104.74,619.9c2.73.01,5.4-.05,7.32,2.21.23,2.11-1.88,2.25-3.58,2.56-2.29-.04-6.76-.18-7.62-2.86l.46-.76c1.45-.87,1.71-.84,3.42-1.16"/>
          <g>
            <g>
              <path class="cls-13" d="M72.43,219.6c-.64,0-1.31-.08-1.97-.23-1.8-.42-5.86-2.13-4.68-8.78,1.04-5.84,7.74-12.72,13.18-17.45.37-.32.84-.49,1.31-.49.27,0,.54.05.79.16.71.3,1.17.98,1.21,1.75.06,1.38.54,13.63-1.22,17.98-1.85,4.56-4.91,7.07-8.63,7.07Z"/>
              <path class="cls-20" d="M80.28,194.64s.58,13.07-1.07,17.14c-1.4,3.44-3.7,5.82-6.77,5.82-.49,0-.99-.06-1.51-.18-3.84-.9-3.5-4.6-3.17-6.48.98-5.56,8.31-12.63,12.53-16.29M80.28,190.64c-.95,0-1.88.34-2.63.98-5.69,4.95-12.7,12.19-13.84,18.61-1.52,8.57,4.35,10.64,6.19,11.08.81.19,1.63.29,2.43.29,4.52,0,8.34-3.03,10.48-8.31,1.88-4.65,1.47-16.5,1.36-18.82-.07-1.53-1.01-2.89-2.42-3.5-.51-.22-1.04-.32-1.58-.32h0Z"/>
            </g>
            <g>
              <path class="cls-13" d="M122.99,228.08c-1.1,0-2.21-.22-3.32-.66-3.19-1.27-6.55-4.66-4.44-13.6,2.3-9.72,13.46-20.98,19.91-26.83.38-.34.86-.52,1.34-.52.29,0,.59.06.86.2.73.35,1.18,1.11,1.13,1.92-.05.91-1.32,22.44-4.26,29.32-2.81,6.56-6.8,10.17-11.23,10.17Z"/>
              <path class="cls-20" d="M136.49,188.47s-1.26,22.01-4.1,28.65c-2.29,5.34-5.53,8.96-9.4,8.96-.83,0-1.69-.17-2.58-.52-5.01-1.99-3.97-8.15-3.23-11.28,2.18-9.21,13.1-20.17,19.31-25.8M136.49,184.47c-.97,0-1.94.36-2.69,1.04-8.09,7.33-18.21,18.12-20.52,27.85-2.58,10.87,2.43,14.64,5.64,15.92,1.34.53,2.71.8,4.06.8,5.28,0,9.92-4.04,13.07-11.38,3.03-7.08,4.29-27.67,4.42-30,.09-1.62-.8-3.14-2.27-3.84-.55-.26-1.14-.39-1.72-.39h0Z"/>
            </g>
            <g>
              <path class="cls-13" d="M481.75,218.48c-.96,0-1.94-.17-2.92-.5-3.25-1.11-6.79-4.32-5.13-13.35,1.8-9.82,12.37-21.64,18.51-27.81.38-.39.9-.59,1.42-.59.26,0,.52.05.77.15.75.31,1.24,1.05,1.23,1.86,0,.91-.16,22.48-2.75,29.5-2.56,6.93-6.51,10.74-11.12,10.74Z"/>
              <path class="cls-20" d="M493.62,178.22s-.13,22.05-2.63,28.82c-2.07,5.6-5.23,9.43-9.24,9.43-.73,0-1.49-.13-2.28-.4-5.1-1.73-4.39-7.94-3.81-11.1,1.71-9.31,12.04-20.82,17.96-26.76M493.62,174.22c-1.04,0-2.07.41-2.84,1.18-7.7,7.74-17.25,19.03-19.06,28.86-2.01,10.99,3.18,14.49,6.46,15.61,1.19.4,2.39.61,3.57.61,3.19,0,9.12-1.57,13-12.05,2.66-7.23,2.86-27.86,2.87-30.19,0-1.62-.96-3.09-2.46-3.72-.5-.21-1.02-.31-1.54-.31h0Z"/>
            </g>
            <g>
              <path class="cls-13" d="M482.98,294.51c-.84,0-1.67-.24-2.47-.71-4.48-2.65-3.04-10.52-2.57-13.11,1.74-9.53,9.02-20.97,13.21-26.94.38-.54,1-.85,1.64-.85.22,0,.45.04.67.12.85.3,1.39,1.13,1.33,2.03-.06.9-1.58,22.08-3.61,28.87-2.11,7.03-4.86,10.6-8.19,10.6Z"/>
              <path class="cls-20" d="M492.79,254.9s-1.54,21.78-3.53,28.44c-1.64,5.45-3.82,9.17-6.28,9.17-.47,0-.96-.14-1.45-.43-3.04-1.8-2.19-7.92-1.62-11.03,1.67-9.17,8.82-20.37,12.88-26.15M492.79,250.9c-1.28,0-2.51.61-3.28,1.7-4.28,6.11-11.73,17.83-13.54,27.73-.53,2.93-2.16,11.83,3.52,15.19,1.11.65,2.28.99,3.49.99,6.5,0,9.21-9.05,10.11-12.02,2.06-6.88,3.53-27.03,3.69-29.31.13-1.79-.96-3.45-2.65-4.05-.44-.16-.89-.23-1.34-.23h0Z"/>
            </g>
            <g>
              <path class="cls-13" d="M348.13,258.62c-.55,0-1.38-.16-2.18-.95-1.8-1.76-2.13-5.55-1.11-12.66,1.36-9.43,6.04-21.03,8.7-27.1.32-.74,1.05-1.2,1.83-1.2.16,0,.33.02.49.06.95.24,1.58,1.12,1.51,2.1-.07.89-1.77,22-3.2,28.76-1.65,7.8-3.41,10.98-6.04,10.98Z"/>
              <path class="cls-20" d="M355.38,218.72s-1.74,21.79-3.16,28.51c-1.18,5.57-2.63,9.39-4.09,9.39-.26,0-.52-.12-.78-.37-1.71-1.68-.98-7.81-.53-10.94,1.33-9.22,5.96-20.66,8.55-26.58M355.38,214.72c-1.56,0-3.01.91-3.66,2.39-2.71,6.17-7.45,17.95-8.85,27.62-1.14,7.92-.66,12.08,1.69,14.37,1,.98,2.27,1.52,3.58,1.52,4.42,0,6.4-5.02,8-12.56,1.46-6.89,3.17-28.12,3.24-29.02.16-1.95-1.12-3.72-3.01-4.2-.33-.08-.65-.12-.98-.12h0Z"/>
            </g>
            <g>
              <path class="cls-13" d="M429.37,262.11c-.97,0-1.9-.38-2.68-1.11-2.96-2.76-1.54-8.8-.21-13.11,2.85-9.2,10.52-19.78,14.84-25.27.39-.5.97-.76,1.57-.76.29,0,.58.06.85.19.84.39,1.3,1.32,1.11,2.23-.19.88-4.62,21.64-7.3,28.12-2.74,6.63-5.34,9.71-8.18,9.71Z"/>
              <path class="cls-20" d="M442.9,223.86s-4.55,21.38-7.19,27.77c-2.1,5.07-4.37,8.48-6.33,8.48-.46,0-.9-.18-1.31-.57-2.22-2.07-.59-8.03.34-11.06,2.76-8.91,10.31-19.29,14.5-24.62M442.9,219.86c-1.2,0-2.37.54-3.15,1.53-4.4,5.6-12.23,16.41-15.17,25.91-1.62,5.23-2.99,11.67.75,15.16,1.16,1.08,2.55,1.65,4.04,1.65,3.8,0,6.9-3.38,10.03-10.95,2.75-6.65,7.22-27.58,7.41-28.47.39-1.82-.53-3.67-2.21-4.46-.54-.26-1.12-.38-1.7-.38h0Z"/>
            </g>
            <g>
              <path class="cls-13" d="M293.16,241.57c-.83,0-1.64-.25-2.41-.73-3.77-2.37-3.15-8.64-2.35-13.15,1.69-9.6,8.59-21.17,12.56-27.21.38-.58,1.01-.9,1.67-.9.21,0,.43.03.64.11.86.29,1.42,1.13,1.35,2.04-.07.91-1.62,22.27-3.57,29.11-2.06,7.23-4.64,10.74-7.89,10.74Z"/>
              <path class="cls-20" d="M302.63,201.57s-1.59,21.98-3.5,28.71c-1.58,5.52-3.66,9.29-5.97,9.29-.44,0-.89-.14-1.34-.42-2.85-1.79-2-7.97-1.45-11.12,1.63-9.26,8.42-20.6,12.26-26.46M302.63,197.57c-1.32,0-2.59.66-3.34,1.81-4.05,6.17-11.11,18.01-12.86,27.96-.89,5.08-1.53,12.17,3.26,15.19,1.09.69,2.26,1.04,3.48,1.04,6.34,0,8.96-9.18,9.82-12.19,2.01-7.04,3.58-28.6,3.64-29.52.13-1.82-.98-3.49-2.71-4.08-.42-.14-.85-.21-1.28-.21h0Z"/>
            </g>
            <g>
              <path class="cls-13" d="M226.07,281.58c-.83,0-1.64-.25-2.41-.73-3.77-2.37-3.15-8.64-2.35-13.15,1.69-9.6,8.59-21.17,12.56-27.21.38-.58,1.01-.9,1.67-.9.21,0,.43.03.64.11.86.29,1.42,1.13,1.35,2.04-.07.91-1.62,22.27-3.57,29.11-2.06,7.23-4.64,10.74-7.89,10.74Z"/>
              <path class="cls-20" d="M235.54,241.59s-1.59,21.98-3.5,28.71c-1.58,5.52-3.66,9.29-5.97,9.29-.44,0-.89-.14-1.34-.42-2.85-1.79-2-7.97-1.45-11.12,1.63-9.26,8.42-20.6,12.26-26.46M235.54,237.59c-1.32,0-2.59.65-3.34,1.81-4.05,6.17-11.11,18.01-12.86,27.96-.89,5.08-1.53,12.17,3.26,15.19,1.09.69,2.26,1.04,3.48,1.04,6.34,0,8.96-9.18,9.82-12.19,2.01-7.04,3.58-28.6,3.64-29.52.13-1.82-.98-3.49-2.71-4.08-.42-.14-.85-.21-1.28-.21h0Z"/>
            </g>
            <g>
              <path class="cls-13" d="M99.69,302.42c-.94,0-1.88-.16-2.79-.48-4.68-1.64-5.1-7.35-4.25-10.78,1.51-6.06,8.5-11.61,13.61-15.66.53-.42,1.03-.81,1.49-1.19.36-.29.81-.44,1.26-.44.29,0,.59.06.86.19.7.33,1.14,1.03,1.14,1.8,0,1.54-.03,15.22-2.18,19.82-1.97,4.22-5.39,6.74-9.13,6.74Z"/>
              <path class="cls-20" d="M109,275.86s.03,14.64-1.99,18.97c-1.6,3.43-4.35,5.58-7.32,5.58-.7,0-1.41-.12-2.13-.37-3.75-1.32-3.48-6.37-2.97-8.41,1.5-6.01,9.87-12.11,14.41-15.77M109,271.86c-.9,0-1.79.3-2.51.89-.46.37-.95.76-1.47,1.18-5.33,4.23-12.63,10.02-14.3,16.74-1.03,4.14-.41,11.07,5.53,13.15,1.13.4,2.29.6,3.45.6,4.54,0,8.63-2.95,10.94-7.89,2.29-4.89,2.38-18.08,2.37-20.68,0-1.54-.89-2.94-2.28-3.6-.55-.26-1.14-.39-1.72-.39h0Z"/>
            </g>
            <path class="cls-20" d="M413.03,207.52c-.28-4.36,9.94-27.27,13.8-27.79,4.67,2.76-5.83,26.78-8.67,30.02-2.9,1.71-3.86.21-5.13-2.23"/>
            <path class="cls-20" d="M511.59,314.71c-.28-4.36,9.94-27.27,13.8-27.79,4.67,2.76-5.83,26.78-8.67,30.02-2.9,1.71-3.86.21-5.13-2.23"/>
            <path class="cls-20" d="M229.13,211.09c-.28-4.36,9.94-27.27,13.8-27.79,4.67,2.76-5.83,26.78-8.67,30.02-2.9,1.71-3.86.21-5.13-2.23"/>
          </g>
        </g>
      </g>
    </g>
  </g>
</svg>