<?xml version="1.0" encoding="UTF-8"?>
<svg id="Layer_2" data-name="Layer 2" xmlns="http://www.w3.org/2000/svg" viewBox="0 0 752.04 722.36">
  <defs>
    <style>
      .cls-1 {
        fill: #e96e6f;
      }

      .cls-2 {
        fill: #fac26a;
      }

      .cls-3 {
        fill: #57d7c5;
      }

      .cls-4 {
        fill: #e96ea2;
      }

      .cls-5, .cls-6 {
        fill: #f89c87;
      }

      .cls-7, .cls-8, .cls-9, .cls-10 {
        fill: #fff;
      }

      .cls-7, .cls-9, .cls-11, .cls-12, .cls-10, .cls-13 {
        stroke-linejoin: round;
      }

      .cls-7, .cls-9, .cls-11, .cls-12, .cls-10, .cls-13, .cls-14 {
        stroke: #000;
      }

      .cls-7, .cls-9, .cls-11, .cls-10, .cls-13, .cls-14 {
        stroke-width: 7px;
      }

      .cls-7, .cls-12, .cls-13 {
        stroke-linecap: round;
      }

      .cls-15 {
        fill: #42944b;
      }

      .cls-15, .cls-9, .cls-16, .cls-17, .cls-18, .cls-19, .cls-20, .cls-6 {
        fill-rule: evenodd;
      }

      .cls-21 {
        fill: #b0cd66;
      }

      .cls-16 {
        fill: #8dd164;
      }

      .cls-11, .cls-20 {
        fill: #47914a;
      }

      .cls-17 {
        fill: #8ed165;
      }

      .cls-18 {
        fill: #b95858;
      }

      .cls-22 {
        fill: #f49069;
      }

      .cls-12 {
        stroke-width: 6px;
      }

      .cls-12, .cls-13, .cls-14 {
        fill: none;
      }

      .cls-23 {
        fill: #c9e9a6;
      }

      .cls-24 {
        fill: #d49252;
      }

      .cls-25 {
        fill: #f4d169;
      }

      .cls-26 {
        fill: #fad36a;
      }

      .cls-27 {
        fill: #77a864;
      }

      .cls-14 {
        stroke-miterlimit: 10;
      }

      .cls-28 {
        fill: #8281dc;
      }
    </style>
  </defs>
  <g id="Layer_1-2" data-name="Layer 1">
    <g>
      <path class="cls-17" d="M141.31,535.63s-2.11,25.17,50.6,17.99c52.72-7.18,85.77-34.76,100.9-54.92,3.51-4.68-2.77-5.2-14.5-3.23l-137.01,40.16h0Z"/>
      <g>
        <path d="M746.16,248.45c1.38.45,4.72,1.4,5.25,2.84,2.03,5.52-1.42,13.8-2.44,19.28-1.74,9.34-2.73,14.18-12.32,7.56-6.44-3.99-15.98-4.96-22.86-1.52-25.47,12.75-47.77,33.34-78.46,30.63-18.18-1.61-34.23-10.45-51.34-16.1-4.92-1.62-14-4.31-19.49-2.82-21.33,10.09-35.63,35.66-45.77,55.71-4.59.12-13.17-1.69-19.69-1.75-2.5-.04-5.39.33-7.91.58-.63-1.44-1.18-3.28-1.68-4.81,10.74-23.88,26.81-43.35,50.83-54.56,22.05-10.3,45.67-18.48,70.01-11.61,8.59,2.43,17.96,6.21,26.32,9.26,31.82,11.62,42.3-20.6,66-32.03,15.22-7.34,28.11-5.92,43.54-.67"/>
        <path class="cls-2" d="M741.96,254.09c1.1.37,1.62.42,2.36,1.31.9,3.06-1.72,13.87-2.45,17.72-5.13-2.49-9.91-4.66-15.71-5.24-15.8-1.48-29.29,10.25-42.06,18.03-16.78,10.22-32.45,16.58-52.62,13.84-20.61-2.8-37.39-15.5-58.02-18.22l-8.79-.62c15.87-6.03,36.3-6.01,52.09-.2,7.08,2.72,14.11,5.86,21.33,8.1,36.68,11.38,48.27-31.74,79.55-37.47,8.62-1.58,15.8.32,24.33,2.76"/>
        <path class="cls-2" d="M551.9,287.26l.11.3c-.23.79-11.88,10.93-13.74,13.08-9.53,11.04-16.92,22.91-23.74,35.78-6.15-.93-10.1-1.09-16.2-1.12l-.11-.32c.04-.69.03-.71.37-1.32,11.21-19.93,30.38-40.63,53.3-46.41"/>
        <path d="M528.18,135.24c-8.58,24.29-32.01,31.83-41.51,55.53-7.54,18.78-1.83,39.04-5.47,58.01-.71-4.37-1.15-6.97-2.41-11.26-3.4-12.14-7.21-26.32-7.03-38.82.09-15.43,14.08-29.83,26.02-38.56,21.38-15.6,25.29-40.74,13.7-64.01-2.1-4.24-5.37-8.75-7.98-12.99,5.28-2.47,11.93-5.45,17.28-7.55,10.88,14.52,13.32,42.87,7.4,59.66Z"/>
        <path class="cls-4" d="M486.67,190.77c-7.54,18.78-1.83,39.04-5.47,58.01-.71-4.37-1.15-6.97-2.41-11.26-3.4-12.14-7.21-26.32-7.03-38.82.09-15.43,14.08-29.83,26.02-38.56,21.38-15.6,25.29-40.74,13.7-64.01-2.1-4.24-5.37-8.75-7.98-12.99,5.28-2.47,11.93-5.45,17.28-7.55,10.88,14.52,13.32,42.87,7.4,59.66-8.58,24.29-32.01,31.83-41.51,55.53Z"/>
        <g>
          <path d="M536.72,97.81c4.57,19.54,1.11,42.32-12,58.01-10.62,12.7-24.41,19.74-30.73,36.26-12.83,33.54,7.66,74.9-22.57,102.34-13.07,11.9-16.11,3.1-24.64-7.09-1.69-1.99-2.25-2.93-3.61-5.13,11.34-5.13,14.76-6.4,22.11-16.38,12.8-17.37,4.56-32.24,1-51.31-4.41-23.54,2.12-39.41,20.82-54.55,6.18-5.01,12.82-9.26,17.31-16,10.96-16.16,7.12-37.25-3.53-52.53-.74-1.96-8.84-9.52-5.87-11.34,6.45-3.9,21.76-11.67,28.77-12.19,4.15,2.01,11.74,24.84,12.92,29.92ZM528.18,135.24c5.92-16.79,3.48-45.14-7.4-59.66-5.36,2.09-12,5.08-17.28,7.55,2.61,4.25,5.88,8.76,7.98,12.99,11.59,23.27,7.68,48.41-13.7,64.01-11.94,8.72-25.93,23.12-26.02,38.56-.18,12.5,3.64,26.69,7.03,38.82,1.26,4.29,1.7,6.89,2.41,11.26,3.65-18.97-2.07-39.23,5.48-58.01,9.51-23.7,32.94-31.24,41.51-55.53ZM460.93,293.61c13.84-9.34,22.81-23.32,17.87-39.85-.86,3.45-2.2,17.75-21.41,28.94l-2.93,1.97c2.13,3.56,3.83,5.75,6.47,8.95Z"/>
          <path class="cls-4" d="M478.81,253.75c4.94,16.53-4.04,30.51-17.87,39.85-2.63-3.2-4.34-5.39-6.47-8.95l2.93-1.97c19.21-11.19,20.55-25.49,21.41-28.94Z"/>
        </g>
        <path d="M544.93,374.71c2.49.86,4.91,1.91,7.24,3.15,10.25,5.57,18.92,15.8,19.6,27.63.58,10.13-.63,13.48,2.4,23.75,7.11.73,13.8,1.41,20.83-.16,3.33-.75,6.57-1.87,9.64-3.35,4.09-1.93,8.29-5.94,12.16-5.39.8.53,1.92,1.28,2,2.36.86,11.43.99,20.01,4.24,31.18-.63.36-1.28.7-1.94,1.01-9.83,4.59-27.51,5.57-37.63,1.42-13.38-5.48-19.5-12.21-25.18-24.89-2.62-9.63-12.14-23.66-21.03-29.07-19.51-11.87-44.41-9.59-65.87-5.02-5.1,1.09-9.46,2.84-14.39,3.94-.74-1.09-3.45-5.15-2.55-6.2,3.67-4.3,12.72-8.84,17.67-11.44,23.34-12.21,47.11-17.13,72.77-8.93"/>
        <path class="cls-3" d="M548.17,384.05c1.25.41,2.9,1.44,4.04,2.13,14.57,8.88,12.98,23.55,13.48,38.52-4.33-5.16-6.72-10.77-10.68-15.96-10.44-13.67-26.6-19.73-43.21-21.93-15.06-.81-21.94-.11-36.47,2.71,21.97-12.08,49.61-16.13,72.84-5.47"/>
        <path class="cls-3" d="M612.14,429.08c.95,3.4,1.24,15.72,2.2,21.1-1.51.22-3.02.44-4.54.63-14,1.79-23.21,1.37-34.8-7.58-4.09-3.76-6.29-6.21-9.55-10.7,3.27,1.62,7.72,3.69,11.28,4.35,11.42,2.12,25.81-1.54,35.41-7.8"/>
        <path d="M425.75,254.65c-3.17-1.36-9.69,1.21-13.17,1.87-4.54.86-7.93,2.17-11.21,5.5.16,2.16.67,4.57,1.13,6.7,3.04,14.69,3.82,30.27.51,44.98-1.25,5.57-3.42,11.09-4.69,16.83-.36,2.11-.83,3.94-.38,6.06,1.01,1.41,1.49,1.57,3.31,1.29,9.51-2.17,16.82-21.25,20.63-29.54,3.89-8.48,9.88-46.74,3.89-53.68ZM410.48,316.72c-.6,1.21-.87,2.04-1.93,2.89-.29-1.21.28-2.71.63-3.98,2.19-12.45,3.67-22.06,2.18-34.99-.59-5.28-1.88-10.26-2.55-15.26,3.99-1.47,7.74-2.56,11.81-3.76,2.32,19.67-1.81,37.34-10.14,55.11Z"/>
        <path class="cls-23" d="M410.48,316.72c-.6,1.21-.87,2.04-1.93,2.89-.29-1.21.28-2.71.63-3.98,2.19-12.45,3.67-22.06,2.18-34.99-.59-5.28-1.88-10.26-2.55-15.26,3.99-1.47,7.74-2.56,11.81-3.76,2.32,19.67-1.81,37.34-10.14,55.11Z"/>
        <path d="M713.83,153.76c1.5.66,2.47,1.32,3.01,3.45,1.47,6.14,4.1,14.76,2.34,20.94-.86,2.99-13.99,0-16.93,1.23-.55.23-4.59.32-5.68.65-5.62,1.72-10.01,5.69-15.51,7.6-1.16.39-1.56-.15-2.56-.73-2.06-2.79-9.91-17.67-8.77-20.19,3.52-7.76,21.36-13.69,29.56-14.34,5.87-.47,9.45-.12,14.53,1.39"/>
        <path class="cls-3" d="M709.85,158.93c1.8,1.36,3.11,11.49,3.51,14.1-8.98-1.15-16.26-1.1-24.46,3.24-2.08,1.09-5.03,3.26-7.1,3.79-2.11-3.81-3.92-7.78-5.78-11.71,13.09-8.46,18.18-9.61,33.83-9.42"/>
        <path d="M372.35,134.01c2.94,1.87,1.95,4.84,1.58,8.02-1.35,11.67,2.97,19.94,8.84,29.64-3.68,2.49-21.22,10.13-25.09,8.41-8.08-9.56-15.15-29.58-9.1-42.51,1.3-2.79,20.02-3.6,23.78-3.56"/>
        <path class="cls-3" d="M367.2,140.83c.49,2.49.06,6.24.38,8.98.85,7.14,2.88,12.62,5.46,19.17-2.56,1.18-11.07,5.68-13.04,3.94-6.16-10.34-6.83-18.94-6.72-30.44,4.48-1.18,9.3-1.42,13.91-1.66"/>
        <path d="M394.9,54.84c9.95,4.08,16.43,9.3,22.69,18.07,3.27,4.58,2.54,7.77-1.63,11.39-5.11,4.43-10.47,9.52-16.18,13.11l-1.29-.06c-2.51-1.89-5.57-7.41-9.6-10.77-2.9-2.94-10.47-6.51-12.66-9.43-4.28-5.69,15.03-20.23,18.67-22.32"/>
        <path class="cls-21" d="M396.75,62.84c7.47,3.88,11.5,8.28,16.46,14.78-4.27,3.92-8.74,8.16-13.17,11.84-6.69-7.33-9.19-9.83-17.44-15.16,3.34-3.34,10.11-9.27,14.14-11.46"/>
        <path d="M591.14,177.33c4.58,2.27,17.06,7.33,19.74,10.7-.52,7.42-10.8,27.44-18.54,31.45-1.33.69-3.24-.52-4.49-1.2-6-3.42-12.6-5.77-18.26-9.6-4.72-3.19-.65-7.2,2.43-9.43,7.41-5.37,10.37-15.27,15.85-21.7,1.72-.72,1.17-.5,3.27-.23"/>
        <path class="cls-28" d="M591.02,184.31c4.03,1.82,8.42,4.11,12.41,6.1-2.57,5.51-7.37,17.24-12.55,21.08-.57.42-.92.1-1.85-.16-4.46-2.14-8.73-4.13-13.02-6.6,7.88-7.97,9.72-10.85,15-20.42"/>
        <path d="M493.08,416.69c19.66,9.26,29.62,14.25,14.34,36.8-2.07,3.06-4.61,4.24-7.96,5.29-8.55-9.74-13.91-10.96-21.78-18.53.66-3.78,4.63-11.01,6.4-14.78,2.41-5.14,2.35-11.21,9.01-8.79"/>
        <path class="cls-21" d="M491.99,423.82c2.32,1.04,4.62,2.09,6.92,3.16,5.31,2.51,7.33,4.45,9.27,9.92-1.85,5.25-3.33,8.39-6.26,13.12-5.86-4.5-10.08-7.6-16.11-11.86,1.26-3.73,4.47-10.57,6.18-14.34"/>
        <path d="M599.61,321.9c3.75,2.33,10.51,18.96,11.13,23.75-4.85,2.05-11.51,2.05-16.85,3.04-5.17.97-10.64,2.6-15.77,3.11-.29-.16-.36-.19-.65-.45-1.78-1.61-9.93-20.38-9.88-22.59.02-.85.11-1.25.74-1.84,3.36-3.13,25.79-4.98,31.27-5.04"/>
        <path class="cls-4" d="M595.97,329.31c2.31,1.75,4.68,7.83,5.89,10.66-7.71,1.64-12.41,2.18-20.25,4.56-1.72-4.13-4.09-8.93-6-13.05,6.62-.73,13.76-2.12,20.36-2.17"/>
        <path d="M474.66,0c-5.85,3.84-13.62,10.77-18.3,16.16.74,5.93,5.06,22.75,11.16,24.7,2.05-.51,3.65-1.48,5.07-2.71.4-.36.8-.73,1.18-1.12.38-.4.75-.79,1.13-1.21.94-1.05,1.86-2.18,2.87-3.31,2.77-2.51,6.98-6.12,9.42-8.78-2.58-5.33-9.24-19.79-12.52-23.73ZM463.66,18.85c2.81-2.95,5.69-5.57,8.68-8.32,1.83,2.19,5.13,9.08,6.39,11.77l-9.67,9.27c-1.74-1.54-4.53-10.08-5.4-12.72Z"/>
        <path class="cls-27" d="M478.73,22.3l-9.67,9.27c-1.74-1.54-4.53-10.08-5.4-12.72,2.81-2.95,5.69-5.57,8.68-8.32,1.83,2.19,5.13,9.08,6.39,11.77Z"/>
        <path class="cls-23" d="M478.73,22.3l-9.67,9.27c-1.74-1.54-4.53-10.08-5.4-12.72,2.81-2.95,5.69-5.57,8.68-8.32,1.83,2.19,5.13,9.08,6.39,11.77Z"/>
        <path d="M459.2,125.77c3.88,2.42,6.55,16.84,3.57,20.75-3.57,4.68-20.32,9.29-24.72,6.15-2.42-4.69-4.43-16.67-4.4-21.97,3.39-1.15,9.33-1.66,13.13-2.42,4.13-.82,8.29-1.78,12.41-2.5"/>
        <path class="cls-2" d="M456.31,133.09c1.08,1.25,1.51,8.18,1.71,10.26-5.03,1.7-10.43,2.99-15.59,4.32-.83-3.69-1.51-7.41-2.06-11.15,6.19-.87,10.07-1.74,15.94-3.43"/>
        <path d="M665.02,222.7c1.68.49,3.6,1.22,4.84,2.44,1.21,3.01.19,7.57-.82,10.58-5.54,16.53-8.63,17.06-23.54,11.3-2.59-.83-4.52-1.8-5.37-4.42.18-2.5,7.26-10.29,8.07-14.34.52-2.61-.11-6.62,1.3-8.35,4.3-1.66,11.06,1.31,15.51,2.79"/>
        <path class="cls-2" d="M660.64,227.85c1.09.39,1.7.46,2.31,1.41.52,3.65-3.14,10.89-4.73,14.64l-4.77-.84-4.93-1.43c2.44-5.21,4.95-10.38,7.53-15.52l4.59,1.74h0Z"/>
        <path d="M450.28,337.32c4.72,2.49,6.65,11.58,8.04,16.54-4.76,2.54-14.98,7.44-20.1,8.48-1.25-.3-3.78-1.04-4.61-1.9-3.36-3.51-2.93-11.05-3.01-15.75,5.16-3.28,13.65-6.41,19.68-7.36"/>
        <path class="cls-4" d="M448.3,344.09c.48,1.45.9,4.44,1.18,6.06-2.18,1.19-8.19,4.61-10.45,4.7l-1.95-6.54c4.33-1.28,7.16-2.38,11.23-4.22"/>
        <g>
          <path class="cls-25" d="M636.49,62.59l-4.33,22,14.68,16.96c1.12,1.3.34,3.33-1.36,3.53l-22.27,2.68-11.59,19.2c-.89,1.47-3.06,1.35-3.78-.21l-9.43-20.35-21.84-5.09c-1.67-.39-2.23-2.49-.97-3.66l16.44-15.26-1.91-22.34c-.15-1.71,1.68-2.89,3.18-2.05l19.59,10.92,20.66-8.72c1.58-.67,3.27.7,2.94,2.39Z"/>
          <path d="M609.28,131.05c-1.84-.18-3.45-1.31-4.23-3l-8.8-18.99-20.38-4.75c-1.88-.44-3.36-1.87-3.86-3.74-.5-1.87.08-3.85,1.49-5.16l15.34-14.24-1.78-20.85c-.16-1.93.74-3.77,2.37-4.82,1.62-1.05,3.68-1.12,5.37-.18l18.28,10.19,19.28-8.14c1.79-.75,3.82-.46,5.32.76,1.5,1.22,2.2,3.16,1.82,5.05l-4.04,20.53,13.69,15.82c1.26,1.46,1.62,3.49.92,5.29-.7,1.8-2.32,3.07-4.24,3.3l-20.78,2.5-10.82,17.91c-1,1.65-2.82,2.62-4.75,2.51-.07,0-.14,0-.22-.02ZM578.96,98.72l20.14,4.7c.92.21,1.69.84,2.09,1.7l8.7,18.76,10.69-17.7c.49-.81,1.32-1.35,2.26-1.46l20.53-2.47-13.53-15.64c-.62-.71-.87-1.67-.69-2.6l3.99-20.29-19.05,8.04c-.87.37-1.86.31-2.69-.15l-18.06-10.07,1.76,20.61c.08.94-.28,1.87-.97,2.51l-15.16,14.07ZM633.48,62s0,0,0,0h0s0,0,0,0Z"/>
        </g>
        <g>
          <path class="cls-25" d="M688.02,366.3l-10.6,11.89,2.85,15.67c.22,1.2-.99,2.16-2.11,1.67l-14.58-6.41-14.02,7.55c-1.07.58-2.36-.28-2.24-1.49l1.59-15.85-11.51-11c-.88-.84-.46-2.33.73-2.59l15.56-3.39,6.91-14.35c.53-1.1,2.07-1.16,2.69-.11l8.03,13.75,15.78,2.14c1.21.16,1.74,1.61.93,2.52Z"/>
          <path d="M648.39,399.9c-.74-.07-1.47-.32-2.11-.75-1.42-.95-2.19-2.58-2.02-4.28l1.44-14.36-10.43-9.97c-1.23-1.18-1.71-2.93-1.25-4.56s1.78-2.88,3.44-3.25l14.1-3.07,6.26-13c.74-1.53,2.25-2.53,3.95-2.6,1.71-.06,3.29.8,4.15,2.27l7.28,12.46,14.3,1.94c1.69.23,3.1,1.36,3.69,2.96s.25,3.38-.88,4.65l-9.6,10.77,2.58,14.19c.3,1.68-.34,3.37-1.68,4.43-1.33,1.05-3.14,1.28-4.69.6l-13.21-5.8-12.7,6.84c-.82.44-1.73.61-2.61.53ZM641.62,368.12l9.41,8.99c.68.65,1.03,1.59.93,2.53l-1.3,12.95,11.46-6.17c.83-.45,1.83-.49,2.69-.11l11.91,5.23-2.33-12.8c-.17-.93.1-1.89.73-2.59l8.66-9.71-12.89-1.75c-.94-.13-1.76-.68-2.24-1.5l-6.56-11.23-5.64,11.72c-.41.85-1.19,1.47-2.11,1.67l-12.71,2.77Z"/>
        </g>
        <g>
          <path class="cls-22" d="M434.51,202.4l-8.1,13.71,5.82,14.82c.45,1.14-.56,2.31-1.75,2.04l-15.54-3.47-12.3,10.12c-.94.77-2.37.18-2.48-1.03l-1.51-15.85-13.42-8.57c-1.03-.66-.9-2.19.21-2.68l14.61-6.33,4-15.41c.31-1.18,1.81-1.54,2.61-.62l10.54,11.94,15.9-.95c1.22-.07,2.02,1.24,1.4,2.29Z"/>
          <path d="M401.24,243.02c-.45-.04-.9-.15-1.33-.33-1.57-.65-2.65-2.11-2.81-3.81l-1.36-14.36-12.16-7.77c-1.43-.92-2.24-2.54-2.11-4.24.14-1.7,1.19-3.17,2.75-3.85l13.24-5.74,3.63-13.96c.43-1.65,1.72-2.92,3.38-3.31,1.66-.4,3.39.15,4.51,1.43l9.55,10.82,14.4-.86c1.7-.1,3.31.74,4.2,2.19.89,1.45.9,3.26.03,4.73l-7.34,12.42,5.27,13.43c.62,1.59.32,3.37-.79,4.67s-2.82,1.86-4.49,1.49l-14.08-3.14-11.14,9.16c-.95.78-2.16,1.14-3.35,1.03ZM389.34,213.15l10.97,7c.8.51,1.31,1.36,1.4,2.3l1.23,12.95,10.05-8.26c.73-.6,1.69-.83,2.62-.63l12.7,2.83-4.76-12.11c-.35-.88-.27-1.87.21-2.68l6.62-11.2-12.99.78c-.95.06-1.86-.33-2.49-1.03l-8.61-9.76-3.27,12.59c-.24.92-.88,1.67-1.75,2.05l-11.94,5.17Z"/>
        </g>
        <g>
          <path class="cls-23" d="M547.83,240.01l-10.71.59-6.12,8.8c-.47.67-1.5.55-1.8-.22l-3.87-10-10.27-3.1c-.79-.24-.99-1.26-.35-1.78l8.31-6.77-.22-10.72c-.02-.82.89-1.33,1.58-.88l9.01,5.81,10.13-3.52c.78-.27,1.54.44,1.33,1.23l-2.75,10.37,6.48,8.55c.5.65.06,1.6-.76,1.64Z"/>
          <path d="M529.76,252.9s-.06,0-.1-.01c-1.51-.18-2.79-1.17-3.34-2.59l-3.33-8.61-8.83-2.67c-1.45-.44-2.54-1.64-2.83-3.13-.29-1.49.25-3.01,1.43-3.97l7.15-5.83-.19-9.22c-.03-1.52.77-2.92,2.1-3.66,1.32-.74,2.94-.69,4.22.13l7.75,5,8.71-3.03c1.43-.5,3.02-.17,4.13.86,1.11,1.03,1.56,2.58,1.18,4.05l-2.36,8.92,5.58,7.35c.92,1.21,1.09,2.82.45,4.2-.64,1.38-1.98,2.29-3.49,2.37l-9.21.51-5.27,7.57c-.85,1.22-2.28,1.88-3.75,1.74ZM519.63,234.26l6.58,1.99c.9.27,1.63.95,1.98,1.83l2.48,6.41,3.93-5.64c.54-.78,1.41-1.26,2.35-1.31l6.86-.38-4.15-5.48c-.57-.75-.76-1.73-.52-2.64l1.76-6.65-6.49,2.26c-.89.31-1.88.19-2.67-.32l-5.78-3.73.14,6.87c.02.95-.4,1.85-1.13,2.44l-5.33,4.34ZM547.66,236.94s0,0,0,0h0s0,0,0,0Z"/>
        </g>
      </g>
      <g>
        <path class="cls-11" d="M107.02,533.02c-34.76,2.44-39.42,103.17-27.52,109.93,25.81,14.68,88.56-51.07,88.56-51.07,0,0-29.82-61.06-61.05-58.87Z"/>
        <path class="cls-13" d="M130.08,547.44s-40.75,28.4-45.51,82.59"/>
      </g>
      <g>
        <path class="cls-8" d="M157.64,718.86c-2.2,0-4.45-.05-6.89-.15-9.94-.52-42.21-3.39-41.67-18.66.31-8.85,4.84-13.87,7.85-16.25-1.62-5-5.23-16.08-6.79-20.85-1.5-4.59-2.33-9.31-3.14-13.87l-.14-.78c-1.27-7.18-2.6-15.64-2.85-23.94l-.48-19.17c-.69-27.49,16.15-52.48,41.88-62.17l151.14-56.91c.4-.15.82-.22,1.23-.22.59,0,1.18.15,1.71.45.9.5,1.53,1.38,1.73,2.39l14.24,73.65c6.71,36.85,4.57,65.87-7.66,103.55-.59,1.82-1.13,3.73-1.66,5.57-1.31,4.6-2.65,9.35-4.98,13.79.65,2.13,1.46,4.07,2.26,5.95,2.28,5.42,4.64,11.03.28,17.3-6.65,9.57-33.91,9.84-37,9.84-1.9,0-3.69-.05-5.32-.16-12.37-.91-27.47-3.08-34.75-11.93-5.5-6.7-4.52-14.99-3.66-22.31.17-1.4.32-2.71.43-3.99.13-1.58,1.31-2.87,2.87-3.15,4.54-.82,7.46-1.9,9.09-2.78-.41-.02-.88-.04-1.42-.04-5.43,0-13.46,1.38-16.89,1.97-1.67.34-3.57.46-5.58.59-4.91.32-8.54.72-10,2.89-.56,2.16-1.05,4.71-1.57,7.41-1.62,8.47-3.45,18.06-9.04,23.72-.05.05-.1.1-.15.14-6,5.39-17.13,8.13-33.09,8.13Z"/>
        <path d="M297.8,489.37l14.24,73.65c6.78,37.2,4.11,65.84-7.55,101.81-2.18,6.72-3.5,13.86-7.07,20.02,2.44,9.39,8.14,14.9,3.42,21.68-4.11,5.91-21.76,8.34-34.12,8.34-1.83,0-3.54-.05-5.08-.16-9.94-.73-25.6-2.53-32.27-10.66-5.49-6.69-3.11-15.97-2.45-23.79,5.69-1.02,13.96-3.44,13.54-7.57-.16-1.63-2.86-2.19-6.49-2.19-5.56,0-13.3,1.3-17.48,2.02-5.73,1.15-15.03-.35-18.24,5.56-2.42,8.82-3.2,23.33-9.84,30.04-6.69,6.02-20.17,7.23-30.75,7.23-2.44,0-4.73-.06-6.74-.15-13-.68-38.7-4.24-38.32-15.04.39-11.08,8.5-14.93,8.5-14.93,0,0-5.56-17.11-7.61-23.38-1.51-4.61-2.32-9.41-3.16-14.18-1.36-7.67-2.57-15.64-2.8-23.44l-.48-19.16c-.65-26.04,15.25-49.63,39.62-58.81l151.14-56.91M297.8,482.37c-.83,0-1.67.15-2.47.45l-151.14,56.91c-27.13,10.22-44.87,36.55-44.15,65.53l.48,19.16c.26,8.56,1.61,17.18,2.9,24.48l.14.77c.83,4.69,1.68,9.53,3.26,14.36,1.36,4.16,4.27,13.11,6.07,18.65-3.58,3.54-7.02,9.23-7.3,17.24-.2,5.74,2.96,13.57,19.18,18.28,10.03,2.91,21.36,3.76,25.77,3.99.02,0,.05,0,.07,0,2.48.1,4.78.16,7.03.16,17.09,0,28.67-2.95,35.43-9.03.1-.09.2-.19.3-.28,6.34-6.42,8.28-16.57,9.99-25.52.44-2.29.86-4.48,1.31-6.36,1.2-.72,5.36-.99,7.04-1.1,2-.13,4.07-.26,6.03-.65.62-.11,1.4-.24,2.27-.38-.04.22-.07.43-.09.66-.1,1.22-.25,2.51-.42,3.87-.9,7.61-2.01,17.09,4.43,24.94,8.11,9.89,24.13,12.25,37.17,13.2,1.75.12,3.61.18,5.59.18,5.34,0,32.36-.55,39.87-11.35,5.46-7.85,2.47-14.95.07-20.65-.59-1.4-1.19-2.83-1.71-4.32,2.08-4.33,3.34-8.79,4.57-13.12.54-1.9,1.05-3.7,1.62-5.45,12.42-38.29,14.6-67.79,7.78-105.22,0-.02,0-.05-.01-.07l-14.24-73.65c-.39-2.03-1.66-3.77-3.46-4.78-1.06-.59-2.23-.89-3.42-.89h0Z"/>
      </g>
      <path class="cls-10" d="M276.79,503.91c5.6-3.59,73.12-39.79,90.92-34.14,8.27,2.62,13.62,11.58,13.67,19.93-3.43,35.61-39.76,52.81-71.31,52.5"/>
      <g>
        <g>
          <g>
            <path class="cls-20" d="M170.57,557c-37.14,0-54.01-19.36-54.71-20.18l-3.35-3.94,181.02-60.87-.78,5.61c-.26,1.88-7.22,46.29-76.11,70.7-16.27,5.77-31.78,8.69-46.08,8.69Z"/>
            <path d="M289.28,477.13s-6.13,43.9-73.81,67.88c-17.47,6.19-32.4,8.49-44.91,8.49-35.95,0-52.05-18.95-52.05-18.95l170.76-57.42M297.78,466.89l-10.73,3.61-170.76,57.42-9.79,3.29,6.69,7.87c.74.87,18.64,21.41,57.38,21.41,14.7,0,30.59-2.99,47.24-8.89,70.87-25.11,78.13-71.55,78.4-73.51l1.57-11.21h0Z"/>
          </g>
          <path class="cls-17" d="M137.17,528.28s-.97,21.65,43.99,13.72c44.96-7.93,72.37-32.69,84.66-50.49,2.85-4.13-2.55-4.37-12.54-2.28l-116.12,39.05h0Z"/>
          <g>
            <path class="cls-20" d="M271.02,561.18c-7.95,0-15.99-2.05-22.63-5.78-11.25-6.31-17.04-15.3-19.36-30.07-.25-1.6.62-3.16,2.12-3.78,2.9-1.2,6.39-1.81,10.37-1.81,11.62,0,26.21,5.26,35.52,10.48,12.82,7.19,15.14,24.96,15.23,25.71.12.96-.16,1.92-.78,2.66-.61.74-1.51,1.2-2.47,1.26-.09,0-9.25.61-12.92,1.03-1.66.19-3.37.29-5.08.29Z"/>
            <path d="M241.52,523.24c11.09,0,25.04,5.12,33.81,10.04,11.42,6.4,13.47,23.09,13.47,23.09,0,0-9.3.61-13.1,1.05-1.53.18-3.09.27-4.68.27-7.04,0-14.54-1.75-20.92-5.33-11.42-6.4-15.72-15.55-17.61-27.56,2.6-1.08,5.69-1.54,9.04-1.54M241.52,516.24v7-7h0c-4.44,0-8.39.7-11.71,2.08-2.99,1.24-4.74,4.36-4.24,7.56,1.67,10.59,5.57,23.87,21.1,32.58,7.16,4.01,15.81,6.23,24.35,6.23,1.85,0,3.7-.11,5.49-.31,3.58-.42,12.66-1.01,12.75-1.02,1.92-.13,3.71-1.04,4.94-2.52,1.23-1.48,1.79-3.41,1.56-5.32-.1-.82-2.65-20.29-16.99-28.34-8.99-5.04-24.14-10.93-37.23-10.93h0Z"/>
          </g>
          <path d="M269,546.79c-.63.03-1.28-.12-1.87-.47-2.17-1.28-4.19-2.6-6.15-3.88-5.06-3.31-10.3-6.73-18.97-10.11-1.74-.68-2.61-2.65-1.93-4.39.68-1.74,2.64-2.61,4.39-1.93,9.33,3.63,14.86,7.25,20.22,10.75,1.98,1.29,3.85,2.52,5.89,3.72,1.61.95,2.14,3.03,1.19,4.64-.61,1.03-1.67,1.61-2.78,1.66Z"/>
          <g>
            <g>
              <path class="cls-20" d="M221.35,596.88c-.8,0-1.59-.27-2.24-.81-2.43-2.02-4.11-5.27-5.6-8.14-.73-1.4-1.42-2.73-2.07-3.69-5.36-7.85-8.28-17.73-8.02-27.09.36-12.89,5.63-22.19,17.63-31.11.62-.46,1.36-.69,2.09-.69.8,0,1.59.27,2.24.81,10.58,8.82,16.42,21.76,16.04,35.49-.38,13.74-6.94,26.33-18,34.54-.62.46-1.36.69-2.09.69Z"/>
              <path d="M223.15,528.84c9.34,7.79,15.15,19.62,14.78,32.71-.37,13.09-6.83,24.58-16.58,31.83-2.94-2.45-4.86-7.95-7.01-11.11-4.7-6.89-7.66-16.05-7.41-25.03.36-13.09,6.46-21.15,16.22-28.4M223.15,521.84c-1.47,0-2.93.46-4.18,1.38-8.61,6.4-18.55,16.02-19.04,33.82-.28,10.09,2.86,20.72,8.62,29.16.53.78,1.17,2.02,1.85,3.33,1.64,3.16,3.5,6.74,6.46,9.22,1.29,1.08,2.89,1.62,4.48,1.62,1.47,0,2.93-.46,4.18-1.38,11.92-8.86,18.99-22.44,19.41-37.26.41-14.82-5.89-28.77-17.3-38.28-1.29-1.08-2.89-1.62-4.48-1.62h0Z"/>
            </g>
            <path d="M223.92,576.16c-.31.17-.65.3-1.01.37-1.84.36-3.62-.84-3.98-2.67-2-10.18-.92-16.35.12-22.32,1.06-6.04,2.05-11.74,0-22.12-.36-1.84.83-3.62,2.67-3.98,1.84-.36,3.62.83,3.98,2.67,2.3,11.62,1.14,18.22.03,24.6-.98,5.61-1.91,10.91-.15,19.85.29,1.47-.42,2.91-1.66,3.61Z"/>
          </g>
        </g>
        <g>
          <path class="cls-19" d="M220.4,510.18c8.91-2.82,18.27,2.04,20.98,10.64,2.72,8.6-2.15,17.95-11.06,20.76-9.08,2.87-18.38.3-21.15-8.46-1.25-3.95-.85-8.96,1.08-13.28,2.06-4.61,5.78-8.28,10.14-9.66h0ZM222.59,517.11c-5.02,1.59-8.01,8.98-6.48,13.82s7.01,5.31,12.03,3.72c5.02-1.59,7.85-6.8,6.32-11.64-1.53-4.84-6.85-7.48-11.86-5.9h0Z"/>
          <path class="cls-20" d="M222.59,517.11c5.02-1.59,10.33,1.06,11.86,5.9,1.53,4.84-1.3,10.06-6.32,11.64-5.02,1.59-10.5,1.12-12.03-3.72s1.46-12.24,6.48-13.82h0Z"/>
        </g>
      </g>
      <g>
        <g>
          <path class="cls-15" d="M22.94,371.44c0-.51,0-.91-.04-1.28-2.53-29.82,25-104.78,39.14-120.94,2.28-2.61,4.65-4.94,8.57-4.94,1.35,0,2.83.28,4.8.89,1.6.5,3.45,1.2,5.79,2.08,2.27.85,4.99,1.88,8.33,3.04,1.74-3.37,4.96-11.65,7.88-20.44l.47-1.43c5.36-16.2,15.33-46.35,36.37-46.35,2.5,0,5.09.45,7.68,1.33,21.57,7.31,61.38,35.13,63.91,37.36l.06.05c3.13,2.27,7.06,5.49,9.68,7.7,2.5-3.29,6.44-8.02,9.64-9.86,1.89-1.09,4.15-1.64,6.72-1.64,18.64,0,53.88,29.53,72.95,50.5,15.98,17.57,15.46,23.02,15.29,24.81l-.38,3.94-3.87-.86c-4.04-.9-8.19-1.4-12.34-1.5-2.04.02-4.19.21-6.46.42-2.55.23-5.18.47-7.82.47-2.84,0-5.31-.28-7.54-.86-4.52-1.17-8.91-2.71-13.15-4.2-8.23-2.89-16-5.62-24.21-5.62-3.04,0-5.94.37-8.85,1.13-10.85,2.84-21.09,7.3-29.6,12.88-2.36,1.55-4.78,3.19-7.11,4.78-10.22,6.94-20.78,14.12-32.71,17.79l-.16.04c-6.34,1.63-13.39,2.38-22.18,2.38-5.02,0-10.1-.24-15-.47-2.82-.13-5.75-.27-8.57-.36-.86-.03-1.72-.04-2.58-.04-9.44,0-19.61,1.56-29.39,4.51-11.5,3.47-18.47,12.03-25.85,21.09-2.84,3.48-5.77,7.08-9.02,10.45-3.64,3.77-8.34,6.1-12.89,8.35-2.04,1.01-3.98,1.97-5.73,3.02-2.13,1.38-4.18,2.89-6.12,4.49l-5.78,4.79.04-7.5Z"/>
          <path d="M134.25,185.58c2.07,0,4.26.36,6.56,1.14,20.53,6.95,60.1,34.37,62.71,36.67l.12.11c5.04,3.62,12.54,10.12,12.54,10.12,0,0,6.63-9.55,10.78-11.94,1.39-.8,3.07-1.17,4.98-1.17,24.13,0,85.92,59.24,84.76,71.48-4.24-.94-8.62-1.48-13.08-1.59-4.58.04-9.52.88-14.31.88-2.27,0-4.51-.19-6.66-.75-13.02-3.38-24.97-9.93-38.23-9.93-3.16,0-6.39.37-9.74,1.25-10.65,2.79-21.43,7.3-30.63,13.34-12.42,8.14-24.79,17.8-38.93,22.15-6.89,1.77-14.06,2.27-21.31,2.27-7.84,0-15.75-.59-23.47-.83-.89-.03-1.79-.04-2.69-.04-10.18,0-20.72,1.74-30.4,4.66-17.19,5.19-24.8,20.46-36.37,32.45-4.78,4.95-12.16,7.36-17.95,10.83-2.28,1.47-4.44,3.06-6.5,4.76,0-.52,0-1.05-.05-1.59-2.43-28.66,24.6-102.69,38.28-118.34,2.29-2.61,3.76-3.75,5.94-3.75,1.04,0,2.23.26,3.76.73,3.33,1.04,8.22,3.14,16.37,5.89,1.96-.34,7.87-17.05,9.99-23.45,4.89-14.73,14.42-45.38,33.52-45.38M134.25,178.58h0c-23.56,0-34.05,31.71-39.69,48.75l-.47,1.42c-2.18,6.55-4.65,13.15-6.38,17.17-2-.72-3.73-1.38-5.27-1.95-2.4-.9-4.29-1.61-5.98-2.14-2.33-.73-4.13-1.05-5.85-1.05-5.39,0-8.61,3.17-11.21,6.14-8.82,10.09-19.81,36.82-26.55,56.65-4.6,13.55-15.12,47.18-13.44,66.89.02.26.03.56.03.95l-.1,15.02,11.56-9.58c1.81-1.5,3.74-2.92,5.73-4.21,1.62-.97,3.47-1.88,5.43-2.85,4.59-2.27,9.79-4.85,13.86-9.06,3.35-3.47,6.33-7.13,9.21-10.67,7.34-9.01,13.68-16.79,24.15-19.95,9.46-2.86,19.27-4.37,28.38-4.36.83,0,1.66.01,2.47.04,2.79.09,5.7.22,8.51.36,4.95.24,10.07.48,15.17.48,9.09,0,16.41-.79,23.05-2.49l.16-.04.16-.05c12.43-3.82,23.22-11.15,33.65-18.24,2.33-1.58,4.73-3.21,7.07-4.75,8.2-5.38,18.08-9.67,28.57-12.42,2.62-.69,5.22-1.02,7.96-1.02,7.61,0,15.11,2.63,23.05,5.42,4.31,1.51,8.76,3.08,13.43,4.29,2.52.65,5.27.97,8.41.97,2.8,0,5.51-.24,8.13-.48,2.18-.2,4.24-.38,6.13-.4,3.91.1,7.81.58,11.61,1.42l7.74,1.72.75-7.89c.35-3.64-1.15-7.76-4.84-13.35-2.7-4.08-6.52-8.85-11.34-14.15-10.58-11.63-24.52-24.21-37.31-33.65-16.18-11.94-29.04-18-38.23-18-3.19,0-6.04.71-8.47,2.1-2.79,1.6-5.89,4.87-8.42,7.92-2.23-1.83-4.78-3.86-6.98-5.46-3.23-2.72-43.23-30.6-65.02-37.98-2.96-1-5.92-1.51-8.8-1.51h0Z"/>
        </g>
        <path class="cls-16" d="M90.74,254.4c1.96-.34,7.87-17.05,9.99-23.45,5.43-16.33,16.53-52.21,40.08-44.24,20.53,6.95,60.1,34.37,62.71,36.67.07.07.12.11.12.11,0,0,5.15,15.7-3,25.31-9.06,10.68-24.09,4.77-32.8-3.01-3.6,12.86-10,27.41-25.86,27.57-15.3.16-37.83-13.21-51.24-18.96h0Z"/>
        <path class="cls-9" d="M316.71,291.99c.74.17,1.48.34,2.22.53,24.88,6.42,44.43,26.81,44.34,54.45-.01,3.51-.67,7.47-.56,10.75,2.18,2.79,4.84,4.9,7.08,7.78,18.32,23.59,17.8,56.14-6.4,75.43-8.56,6.83-14.39,6.54-23.99,9.94-4.82,22.08-38.97,51.83-83.48,45.76-5.34,6.81-17.42,20.94-31.78,24.06-.51.11-1.04.23-1.59.34-.53.19-1.04.37-1.54.54-13.87,4.83-31.56-.91-39.67-3.93-34.79,28.43-79.45,20.89-95.09,4.57-9.96,2.11-14.78,5.4-25.65,4.05-30.72-3.81-48.16-31.3-44.85-60.99.4-3.63,1.57-6.82,1.97-10.33-1.62-2.85-4.25-5.89-6.09-8.87-14.5-23.52-8.48-51.12,9.39-69.59,1.71-1.76,3.52-3.45,5.44-5.03,2.05-1.7,4.22-3.29,6.5-4.76,5.79-3.47,13.17-5.88,17.95-10.83,11.57-11.99,19.19-27.27,36.37-32.45,10.54-3.18,22.09-4.96,33.09-4.62,14.84.46,30.44,2.24,44.77-1.44,14.14-4.35,26.52-14.01,38.93-22.15,9.2-6.03,19.99-10.55,30.63-13.34,17.36-4.55,31.84,4.5,47.97,8.68,6.66,1.73,14.22-.08,20.97-.14,4.45.11,8.83.65,13.08,1.59h0Z"/>
        <path class="cls-5" d="M89.33,439.49c15.88-4.49,32.39,4.75,36.86,20.63,4.48,15.88-4.78,32.38-20.67,36.84-15.86,4.46-32.34-4.79-36.81-20.65-4.47-15.86,4.75-32.34,20.61-36.83"/>
        <path class="cls-5" d="M293.5,381.95c15.88-4.49,32.39,4.75,36.86,20.63,4.48,15.88-4.78,32.38-20.67,36.84-15.86,4.46-32.34-4.79-36.81-20.65-4.47-15.86,4.75-32.34,20.61-36.83"/>
        <g>
          <path class="cls-19" d="M193.53,392.55c6.83-1.93,13.36-.06,14.55,4.17,1.2,4.23-3.38,9.24-10.22,11.17-6.84,1.93-13.36.06-14.55-4.17-1.2-4.23,3.38-9.24,10.22-11.17h0Z"/>
          <g>
            <path class="cls-18" d="M199.25,426.67c13.67-5.86,11.75-2.61,27.71-16.95,0,0,4.93,15.37,6.37,31.29-20.07-1.49-38.18,3.59-54.31,15.26-7.27-14.13-12.38-26.54-12.38-26.54,0,0,18.94,2.81,32.61-3.05Z"/>
            <path class="cls-6" d="M179.02,456.26c16.13-11.67,34.24-16.74,54.31-15.26,1.74,19.19.03,41.38-15.94,45.96-16.06,4.6-29.51-13.47-38.37-30.7h0Z"/>
            <path class="cls-12" d="M166.64,429.72s5.11,12.41,12.38,26.54M179.02,456.26c8.86,17.23,22.31,35.3,38.37,30.7,15.98-4.58,17.68-26.77,15.94-45.96M233.33,441.01c-1.44-15.92-6.37-31.29-6.37-31.29"/>
            <path class="cls-12" d="M166.64,429.72c13.51,4.9,44.16-3.3,60.32-20"/>
          </g>
          <g>
            <g>
              <polyline class="cls-13" points="119.93 386.47 152.86 399.21 128.4 422.68"/>
              <line class="cls-13" x1="117.32" y1="406.15" x2="152.86" y2="399.21"/>
            </g>
            <g>
              <polyline class="cls-13" points="245.04 351.2 223.61 379.27 256.72 386.51"/>
              <line class="cls-13" x1="257.55" y1="366.63" x2="223.61" y2="379.27"/>
            </g>
          </g>
        </g>
      </g>
      <path class="cls-7" d="M109.13,594.92c-10.69-14.74-4.83-31.68,9.35-38.37,12.3-5.8,23.3-8.49,34.55-15.18,16.89-9.21,39.89-32.81,59.53-29.28,5.96.92,11.09,3.91,14.64,8.8,4.18,5.75,6.12,13.45,4.93,20.47-7.08,35.15-53.87,58.46-86.58,53.86"/>
      <line class="cls-7" x1="312.95" y1="549.44" x2="309.29" y2="532.9"/>
      <g>
        <polygon class="cls-26" points="430.91 436.87 430.73 436.96 386.64 460.94 355.33 477.97 343.88 484.2 313.2 500.88 286.59 515.36 300.41 480.99 300.42 480.98 319.19 434.29 324.31 421.53 347.81 363.12 347.88 362.94 430.91 436.87"/>
        <path class="cls-1" d="M386.64,460.94l-23.29,12.67c-18.48-13.66-30.52-45.22-32.08-69.37l16.54-41.12.07-.19h0c.6-1.48,1.42-2.82,2.47-4.01.43-.49.89-.93,1.38-1.34-.12,1.24-.37,4.18-.46,8.37-.12,5.96.07,14.46,1.41,24.27.67,4.94,1.64,10.22,3.01,15.67,5.61,22.42,15.97,40.82,30.95,55.04Z"/>
        <path class="cls-1" d="M336.53,488.2l-19.96,10.85c-6.97-4.74-12.97-14.71-13.19-25.45l10.87-27.03c1.06,4.26,4.33,24.65,22.28,41.62Z"/>
        <polyline class="cls-13" points="347.88 362.94 347.81 363.12 324.31 421.53 319.19 434.29 300.42 480.98 300.41 480.99 286.59 515.36 313.2 500.88 343.88 484.2 355.33 477.97 386.64 460.94 430.73 436.96 430.91 436.87"/>
        <path class="cls-24" d="M434.6,433.94c-1.05,1.18-2.29,2.15-3.7,2.92-.05.04-.11.07-.17.1-12.01,6.41-35.68-1.68-56.4-20.13-9.48-8.44-16.88-17.76-21.64-26.59-5.64-10.45-7.57-20.23-4.87-27.11.02-.06.04-.12.08-.18.6-1.49,1.42-2.83,2.47-4.02.43-.49.89-.93,1.38-1.34,10.95-9.23,36.63-1.37,58.9,18.46,23.26,20.71,33.99,46.64,23.96,57.89Z"/>
        <path class="cls-14" d="M434.6,433.94c-1.05,1.18-2.29,2.15-3.7,2.92-.05.04-.11.07-.17.1-12.01,6.41-35.68-1.68-56.4-20.13-9.48-8.44-16.88-17.76-21.64-26.59-5.64-10.45-7.57-20.23-4.87-27.11.02-.06.04-.12.08-.18.6-1.49,1.42-2.83,2.47-4.02.43-.49.89-.93,1.38-1.34,10.95-9.23,36.63-1.37,58.9,18.46,23.26,20.71,33.99,46.64,23.96,57.89Z"/>
      </g>
      <path class="cls-7" d="M330.7,515.31s-13.1-17.89-4.38-36.34c18.9-39.97,65.21-31.46,55.06,10.74"/>
      <g>
        <path class="cls-4" d="M390.73,381.69c-1.95-1.08-4.26-2.21-6.5-3.31-1.03-.51-2.04-1-2.99-1.48l-4.34-2.18,3.44-3.42c1.09-1.08,2.17-2.23,3.27-3.38,2.5-2.63,5.09-5.35,7.91-7.63.87-.7,1.95-1.07,3.14-1.07,2.37,0,4.75,1.41,7.62,3.26.6.39,1.18.76,1.52.94l3.76,2.02-2.71,3.29c-1.13,1.37-2.14,2.55-3.11,3.68-2.2,2.57-4.1,4.79-6.45,8.2l-1.8,2.61-2.77-1.53Z"/>
        <path d="M394.67,362.72c2.1,0,5.75,2.86,7.48,3.79-3.75,4.55-6.25,7.06-9.74,12.12-2.93-1.62-6.56-3.32-9.6-4.85,3.53-3.52,7.07-7.66,10.91-10.76.25-.2.57-.29.94-.29M394.67,355.72h0c-2,0-3.84.64-5.34,1.85-2.99,2.42-5.66,5.22-8.24,7.93-1.11,1.17-2.17,2.28-3.21,3.32l-6.88,6.85,8.67,4.37c.96.48,1.98.99,3.02,1.5,2.2,1.08,4.47,2.2,6.35,3.23l5.55,3.06,3.59-5.21c2.25-3.26,4-5.31,6.23-7.91.98-1.15,1.99-2.33,3.15-3.73l5.42-6.59-7.52-4.03c-.22-.12-.83-.51-1.28-.8-2.64-1.7-5.92-3.82-9.51-3.82h0Z"/>
      </g>
      <g>
        <path class="cls-4" d="M418.51,412.66c-.79-1.37-1.61-2.81-2.44-4.29-1.83-3.23-3.72-6.57-5.53-9.46l-2.53-4.02,4.59-1.22c6.18-1.65,10.21-3.19,14.86-4.96,2.03-.77,4.12-1.57,6.57-2.45l2.68-.96,1.49,2.43c.35.57.99,1.46,1.67,2.4,3.42,4.73,5.62,8.06,5.04,11.14-.25,1.3-.98,2.4-2.08,3.1-4.08,2.62-8.94,4.79-13.64,6.89-2.15.96-4.17,1.87-6.12,2.81l-2.93,1.41-1.63-2.81Z"/>
        <path d="M435.21,389.54c1.81,2.96,8.2,10.28,5.73,11.86-5.63,3.61-13.06,6.43-19.4,9.49-2.54-4.38-5.35-9.57-8.04-13.85,9.03-2.41,13.55-4.57,21.72-7.51M438.2,381.03l-5.36,1.92c-2.48.89-4.6,1.7-6.64,2.48-4.57,1.74-8.51,3.25-14.51,4.85l-9.17,2.45,5.05,8.04c1.77,2.82,3.64,6.12,5.45,9.32.84,1.48,1.66,2.94,2.46,4.31l3.25,5.63,5.85-2.83c1.9-.92,3.9-1.81,6.02-2.76,4.82-2.16,9.81-4.38,14.11-7.14,1.92-1.23,3.2-3.15,3.63-5.4.91-4.79-2.42-9.39-5.64-13.84-.61-.85-1.25-1.72-1.52-2.18l-2.98-4.85h0Z"/>
      </g>
    </g>
  </g>
</svg>