<?xml version="1.0" encoding="UTF-8"?>
<svg id="Layer_2" data-name="Layer 2" xmlns="http://www.w3.org/2000/svg" viewBox="0 0 544.33 554.99">
  <defs>
    <style>
      .cls-1, .cls-2 {
        fill: #f89c87;
      }

      .cls-3, .cls-4 {
        fill: #fff;
      }

      .cls-5 {
        fill: #42944b;
      }

      .cls-5, .cls-4, .cls-6, .cls-7, .cls-8, .cls-9, .cls-10, .cls-11, .cls-2 {
        fill-rule: evenodd;
      }

      .cls-12, .cls-4, .cls-13, .cls-14, .cls-15, .cls-16 {
        stroke: #000;
      }

      .cls-12, .cls-4, .cls-13, .cls-16 {
        stroke-linejoin: round;
      }

      .cls-12, .cls-13 {
        stroke-width: 6px;
      }

      .cls-12, .cls-15 {
        fill: #f4d169;
      }

      .cls-4, .cls-14, .cls-15, .cls-16 {
        stroke-width: 7px;
      }

      .cls-6 {
        fill: #8dd164;
      }

      .cls-7 {
        fill: #8ed165;
      }

      .cls-8 {
        fill: #b95858;
      }

      .cls-13, .cls-14, .cls-16 {
        fill: none;
        stroke-linecap: round;
      }

      .cls-14, .cls-15 {
        stroke-miterlimit: 10;
      }

      .cls-10 {
        fill: #131211;
      }

      .cls-11 {
        fill: #47914a;
      }
    </style>
  </defs>
  <g id="Layer_1-2" data-name="Layer 1">
    <g>
      <g>
        <path class="cls-3" d="M264.59,551.49c-15.22,0-28.18-2.52-38.52-7.5-4.48-2.16-7.46-5.65-8.86-10.37-2.96-9.99,2.18-23.75,7.48-32.5l1.37-2.26c-1.88-.43-3.81-.81-5.79-1.2-2.88-.56-5.85-1.14-8.74-1.93l-.12-.03-.12-.04c-6.09-2.14-12.42-3.22-18.79-3.22-15.02,0-28.86,5.92-38.97,16.68-4.21,4.32-9.7,9.39-15.16,10.61-1.83.41-3.78.62-5.82.62-6.76,0-14.3-2.29-20.19-6.14-10.03-6.1-41.71-27.57-32.37-50.01l.14-.34.21-.3c4.39-6.33,10.82-6.55,15.51-6.71,1.42-.05,2.78-.09,3.96-.28.97-1.02,2.09-2.31,3.26-3.66,2.71-3.13,5.52-6.36,8-8,2.06-1.37,3.81-2.42,5.21-3.27,2.71-1.64,4.02-2.47,4.24-3.19.38-1.26-.15-4.56-.95-9.56l-.03-.17c-2.05-12.71.17-28.74,2.7-38.6.35-1.38.99-3.06,1.72-5,.84-2.23,3.14-8.33,3.02-11.03-.43.67-.93,1.85-1.24,2.57-.14.34-.29.67-.43.99l-1.51,3.4-3.3-1.71c-19.57-10.15-79.13-41.03-65.4-78.92,2.83-7.81,8.88-11.21,13.83-13.29.68-.29,1.39-.43,2.1-.43,2.21,0,3.69,1.33,4.67,2.21.22.2.44.4.67.57,4.77,3.52,9.92,7.09,15.22,9.35,1.7.72,3.63,1.26,5.68,1.82,3.88,1.07,7.89,2.17,11.31,4.8,2.6,1.99,4.38,4.57,6.1,7.05.87,1.26,1.7,2.46,2.58,3.49,5.68,6.69,12.91,12.55,21.48,17.41,6.64,2.14,110.2,35.23,168.39,35.23,7.35,0,13.73-.53,18.96-1.58l3.97-.8,2.39,45.58c4.77,36.15-9.67,78.41-39.65,116.01-.25.75.48,2.39,1.13,3.85,1.3,2.94,3.08,6.97.59,11.03l-.12.18c-5.01,7.14-18.58,8.26-22.62,8.43-2.45.12-4.87.17-7.2.17ZM229.17,499.74c.9.3,1.82.61,2.6.74-1.33-.47-2.69-.87-4.1-1.23l1.49.49Z"/>
        <path d="M71.04,290.18c1.21,0,2.15,1.28,3.26,2.1,4.89,3.61,10.32,7.37,15.93,9.75,5.18,2.2,11.65,2.67,16.23,6.17,3.4,2.6,5.4,6.81,8.15,10.03,6.38,7.52,14.17,13.55,22.73,18.36,0,0,108.71,35.51,169.8,35.51,7.32,0,13.96-.51,19.65-1.65l2.19,41.67c5.4,40.43-14.24,82.68-39.12,113.78-2.69,4.55,4.69,10.08,1.69,14.96-3.57,5.09-14.31,6.7-19.9,6.94-2.32.11-4.68.17-7.05.17-12.62,0-25.74-1.73-37-7.15-14.07-6.78-5.87-28.07.09-37.9,1.54.51,3.23,1.12,4.82,1.12,1.37,0,2.67-.45,3.75-1.81,1.29-1.64-.43-3.94-1.99-4.56-6.88-2.73-14.64-3.37-21.8-5.32-6.53-2.29-13.28-3.42-19.95-3.42-15.44,0-30.49,6.04-41.52,17.78-3.34,3.43-8.63,8.53-13.38,9.6-1.62.36-3.32.53-5.06.53-6.39,0-13.26-2.28-18.32-5.6-13.7-8.32-38.56-27.56-31-45.7,4.85-7,12.64-4.31,18.34-5.77,3.25-3.16,8.12-9.75,11.45-11.96,11.93-7.9,12.37-4.89,9.99-19.66-1.79-11.1-.16-26.27,2.63-37.18,1.22-4.76,7.21-16.15,3.69-20.25-.82-.39-1.53-.55-2.15-.55-2.81,0-3.9,3.43-5.06,6.05-22.49-11.66-75.97-40.84-63.72-74.62,2.11-5.81,6.3-8.9,11.89-11.26.26-.11.51-.16.75-.16M71.04,283.18c-1.18,0-2.35.24-3.46.71-5.17,2.18-12.43,6.13-15.76,15.32-3.51,9.67-2.87,19.65,1.88,29.66,3.72,7.84,10.08,15.77,18.89,23.57,14.43,12.79,32.33,22.74,46.31,29.99l1.95,1.01c-.06.15-.11.3-.16.43-.77,2.04-1.43,3.8-1.83,5.37-2.61,10.19-4.9,26.78-2.76,40.03l.03.16c.5,3.11.98,6.07,1.03,7.51-.65.45-1.71,1.1-2.68,1.68-1.43.86-3.2,1.94-5.32,3.35-2.88,1.91-5.84,5.32-8.71,8.63-.81.94-1.6,1.84-2.31,2.63-.73.06-1.55.08-2.39.11-5.13.17-12.88.43-18.27,8.21l-.42.61-.29.69c-10.39,24.97,23.05,47.81,33.73,54.31,6.43,4.18,14.66,6.68,22.05,6.68,2.29,0,4.51-.24,6.59-.7,6.37-1.43,12.36-6.92,16.86-11.54l.04-.04.04-.05c9.44-10.04,22.38-15.57,36.42-15.57,5.98,0,11.91,1.02,17.63,3.03l.24.08.24.07c3.02.82,6.05,1.41,8.99,1.99.32.06.64.12.96.19-3.26,5.89-10.4,20.88-6.7,33.34,1.67,5.63,5.37,9.96,10.7,12.53,10.81,5.21,24.28,7.84,40.04,7.84,2.38,0,4.86-.06,7.38-.18,4.42-.19,19.38-1.47,25.31-9.92l.12-.18.11-.18c3.45-5.63.96-11.26-.38-14.28-.19-.43-.44-.99-.63-1.47,29.88-37.99,44.24-80.63,39.44-117.3l-2.17-41.39-.42-8.09-7.95,1.6c-5,1.01-11.15,1.52-18.27,1.52-56.84,0-157.83-32.02-166.97-34.95-8.08-4.62-14.88-10.15-20.22-16.45-.77-.91-1.55-2.03-2.37-3.22-1.79-2.58-3.81-5.51-6.85-7.84-3.96-3.04-8.5-4.29-12.51-5.39-1.93-.53-3.75-1.03-5.24-1.67-4.98-2.12-10.13-5.71-14.51-8.94-.07-.05-.27-.23-.41-.36-1.12-1.01-3.46-3.11-7.01-3.11h0Z"/>
      </g>
      <g>
        <g>
          <path class="cls-11" d="M256.13,394.99c-8.25,0-16.94-.62-25.83-1.85-40.56-5.59-62.92-21.58-74.53-34.01-12.8-13.7-15.78-26.1-15.9-26.62l-1.16-5.04,202.32,31.22-3.27,4.62c-.92,1.29-23.1,31.67-81.62,31.67Z"/>
          <path d="M143.27,331.73l191.62,29.57s-21.38,30.19-78.77,30.19c-7.78,0-16.22-.55-25.36-1.81-76.55-10.55-87.5-57.95-87.5-57.95M134.13,323.24l2.33,10.07c.13.56,3.31,13.84,16.75,28.22,12,12.84,35.04,29.35,76.61,35.09,9.05,1.25,17.9,1.88,26.31,1.88,60.31,0,83.52-31.79,84.48-33.15l6.54-9.24-11.19-1.73-191.62-29.57-10.21-1.58h0Z"/>
        </g>
        <path class="cls-7" d="M164.2,334.96s-11.63,20.22,35.26,34.88c46.89,14.66,85.34,4.55,105.9-6.38,4.77-2.54-.28-5.43-10.86-8.38l-130.3-20.11h0Z"/>
        <g>
          <path class="cls-11" d="M186.22,417.44c-4.69,0-9.33-.73-13.8-2.17-1.54-.5-2.54-1.98-2.42-3.59.24-3.16,1.91-6.43,3.39-9.32.72-1.41,1.41-2.75,1.81-3.84,3.29-8.96,9.66-17.1,17.46-22.35,6.49-4.36,13.12-6.48,20.28-6.48,4.7,0,9.6.87,15.42,2.75,1.54.5,2.54,1.98,2.42,3.59-1.04,13.78-8.2,26.1-19.64,33.8-7.4,4.98-16.02,7.61-24.92,7.61Z"/>
          <path d="M212.94,373.18c4.63,0,9.35.97,14.35,2.58-.92,12.17-7.2,23.82-18.11,31.16-7.05,4.74-15.05,7.01-22.96,7.01-4.32,0-8.62-.68-12.72-2,.29-3.83,3.67-8.61,4.99-12.21,2.89-7.86,8.65-15.62,16.13-20.65,6.22-4.18,12.19-5.89,18.33-5.89M212.94,366.18v7-7h0c-7.88,0-15.15,2.32-22.23,7.08-8.4,5.65-15.25,14.42-18.79,24.05-.33.9-.97,2.14-1.64,3.46-1.63,3.18-3.47,6.79-3.76,10.65-.24,3.23,1.76,6.2,4.83,7.19,4.81,1.55,9.82,2.34,14.87,2.34,9.59,0,18.89-2.84,26.87-8.21,12.34-8.3,20.06-21.58,21.18-36.44.24-3.22-1.76-6.2-4.83-7.19-6.09-1.96-11.49-2.92-16.49-2.92h0Z"/>
        </g>
        <g>
          <path class="cls-11" d="M271.38,433.04c-.48,0-.96-.1-1.41-.3-.08-.04-8.52-3.75-11.99-5.08-8.91-3.4-16.98-9.87-22.13-17.74-7.08-10.83-8.07-21.52-3.29-35.74.48-1.43,1.83-2.38,3.32-2.38.1,0,.21,0,.31.01,13.9,1.22,29.64,18.02,36.83,29.01,8.08,12.34,1.9,29.23,1.63,29.95-.34.9-1.03,1.62-1.92,2-.43.18-.9.27-1.36.27Z"/>
          <path d="M235.89,375.3c12.16,1.07,27.02,16.44,34.21,27.44,7.2,11,1.28,26.81,1.28,26.81,0,0-8.56-3.77-12.15-5.14-7.83-2.99-15.51-8.85-20.45-16.39-7.2-11-6.79-21.14-2.9-32.71M235.88,368.3c-2.98,0-5.67,1.9-6.63,4.77-3.43,10.2-6.11,23.82,3.68,38.77,5.55,8.47,14.22,15.43,23.81,19.1,3.38,1.29,11.74,4.97,11.82,5.01.9.4,1.86.59,2.82.59s1.85-.18,2.72-.55c1.77-.75,3.16-2.19,3.84-4,.29-.78,7.05-19.29-1.98-33.09-6.51-9.95-23.14-29.15-39.46-30.58-.21-.02-.41-.03-.62-.03h0Z"/>
        </g>
        <path class="cls-16" d="M226.91,375.09c-15.08,16-22.63,11.25-36.4,25.82M233.21,373.78c17.58,16.25,20.27,25.05,26.44,34.97"/>
        <path class="cls-11" d="M234.79,367.1c5.2.92,8.71,5.74,7.83,10.76-.88,5.02-5.83,8.35-11.03,7.44-5.21-.92-9.87-3.87-8.98-8.89.88-5.02,6.98-10.22,12.19-9.3h0Z"/>
        <path class="cls-9" d="M236.06,359.91c9.24,1.63,15.32,10.29,13.75,19.21s-10.24,14.98-19.48,13.36c-9.42-1.66-16.5-8.26-14.9-17.34.72-4.1,3.4-8.37,7.12-11.33,3.97-3.15,8.99-4.69,13.51-3.89h0ZM234.79,367.1c-5.21-.92-11.3,4.28-12.19,9.3-.88,5.02,3.78,7.97,8.98,8.89,5.2.92,10.15-2.42,11.03-7.44.88-5.02-2.62-9.84-7.83-10.76h0Z"/>
        <g>
          <path class="cls-5" d="M414.84,206.3c-3.21-2.53-6.7-4.77-10.35-6.64-1.83-.86-3.83-1.61-5.94-2.4-4.7-1.77-9.57-3.59-13.53-6.95-3.53-2.99-6.78-6.25-9.92-9.4-8.17-8.19-15.88-15.92-27.53-18.19-6.73-1.31-13.52-1.98-20.19-1.98-4.04,0-7.98.25-11.73.75-2.77.37-5.63.79-8.4,1.21-8.51,1.27-17.3,2.58-26.01,2.58-3.87,0-7.4-.25-10.81-.77l-.16-.03c-12.12-2.43-23.23-8.45-33.98-14.27-2.46-1.33-5.01-2.71-7.49-4-8.94-4.65-19.46-8.02-30.42-9.74-1.76-.28-3.54-.42-5.31-.42-9.47,0-17.88,3.94-26.78,8.11-4.03,1.89-8.2,3.84-12.53,5.44-4.88,1.8-10.07,1.86-15.1,1.91-2.26.02-4.39.05-6.4.23-2.48.31-4.96.77-7.38,1.37l-7.29,1.81,3.31-6.74c.22-.45.38-.81.51-1.15,10.55-27.68,67.33-82.71,86.88-91.05,2.23-.95,4.12-1.59,6.08-1.59,3.03,0,5.24,1.49,7.63,3.73,1.21,1.13,2.57,2.56,4.29,4.36,1.65,1.73,3.62,3.8,6.08,6.25,3.01-2.26,9.42-8.26,15.78-14.82l1.03-1.06c10.05-10.39,26.86-27.78,43.21-27.78,5.83,0,11.04,2.21,15.47,6.56,16.1,15.79,39.65,57.7,40.95,60.78l.03.07c1.81,3.36,3.92,7.9,5.31,10.99,3.64-1.86,9.18-4.38,12.82-4.64.26-.02.54-.03.8-.03,8.3,0,17.79,9.35,28.19,27.8,13.61,24.13,30.08,68.84,24.07,78.78l-2.05,3.39-3.11-2.45Z"/>
          <path d="M292.36,28.54c4.58,0,9,1.61,13.02,5.56,15.32,15.02,38.83,56.47,40.17,59.64l.05.15c2.94,5.39,6.84,14.42,6.84,14.42,0,0,10.02-5.67,14.75-6.02.18-.01.37-.02.55-.02,21.57,0,56,90.13,49.27,101.27-3.38-2.66-7.05-5.03-10.98-7.04-6.04-2.85-13.55-4.48-18.75-8.89-12.59-10.66-21.6-24.95-39.04-28.35-6.74-1.32-13.83-2.04-20.86-2.04-4.11,0-8.2.25-12.19.78-11.16,1.47-22.67,3.75-33.96,3.75-3.45,0-6.89-.21-10.28-.73-14.36-2.88-27.5-11.16-40.54-17.95-9.66-5.03-20.73-8.4-31.49-10.1-2-.31-3.95-.46-5.85-.46-14.78,0-26.82,8.7-40.53,13.77-6.39,2.36-14.01,1.34-20.66,1.95-2.66.33-5.28.82-7.84,1.46.23-.47.45-.94.64-1.44,10.15-26.61,66.06-81,84.99-89.08,1.98-.84,3.42-1.31,4.7-1.31,1.74,0,3.18.86,5.24,2.79,2.52,2.36,5.98,6.33,12.07,12.29.04.01.09.02.14.02,2.28,0,14.3-11.94,18.85-16.63,9.14-9.43,26.3-27.78,41.73-27.78M292.36,21.54v7-7c-17.84,0-35.3,18.06-45.73,28.85l-1.03,1.06c-4.73,4.88-9.74,9.67-13.02,12.52-1.44-1.48-2.7-2.79-3.8-3.94-1.75-1.84-3.14-3.29-4.43-4.49-2.47-2.31-5.59-4.67-10.02-4.67-2.7,0-5.18.9-7.45,1.87-12.21,5.21-33.51,24.33-48.03,39.12-9.93,10.11-33.76,35.59-40.75,53.9-.09.23-.21.51-.38.86l-6.59,13.48,14.56-3.61c2.27-.56,4.59-1,6.91-1.29,1.86-.16,3.9-.19,6.07-.21,5.07-.06,10.83-.12,16.27-2.13,4.48-1.66,8.71-3.64,12.8-5.56,8.54-4,16.61-7.78,25.3-7.78,1.58,0,3.19.13,4.76.37,10.6,1.67,20.74,4.91,29.35,9.39,2.46,1.28,4.99,2.65,7.44,3.98,10.98,5.95,22.33,12.1,34.96,14.63l.16.03.16.02c3.58.54,7.29.81,11.33.81,8.97,0,17.9-1.33,26.53-2.62,2.75-.41,5.6-.83,8.34-1.2,3.6-.47,7.39-.72,11.27-.72,6.44,0,13.01.64,19.52,1.91,10.6,2.07,17.61,9.09,25.72,17.23,3.19,3.2,6.49,6.51,10.14,9.59,4.43,3.75,9.81,5.78,14.57,7.56,2.02.76,3.94,1.48,5.63,2.27,3.44,1.77,6.71,3.87,9.73,6.25l6.22,4.91,4.1-6.78c1.35-2.23,4.93-8.15-3.92-35.76-5.07-15.83-12.58-33.23-20.09-46.54-11.23-19.91-21.45-29.59-31.24-29.59-.35,0-.71.01-1.06.04-3.17.23-7.31,1.8-10.87,3.42-1.2-2.58-2.59-5.46-3.85-7.81-1.73-3.84-25.42-45.89-41.68-61.83-5.11-5.01-11.14-7.56-17.92-7.56h0Z"/>
        </g>
        <path class="cls-6" d="M231.65,72.94c1.89.54,14.34-11.82,18.98-16.61,11.85-12.23,37.18-39.45,54.75-22.23,15.32,15.02,38.83,56.47,40.17,59.64.03.1.05.15.05.15,0,0-2.16,16.21-13.55,21.28-12.66,5.63-23.53-6.1-27.96-16.78-8.73,9.92-20.69,20.15-34.91,13.48-13.71-6.43-28.06-28.04-37.54-38.93h0Z"/>
        <path class="cls-4" d="M417,203.55c.59.47,1.18.94,1.75,1.43,19.43,16.42,28.1,43,16.15,67.6-1.52,3.12-3.81,6.38-5.12,9.34.75,3.42,2.21,6.45,2.97,9.98,6.2,28.91-8.24,57.71-38.12,64.51-10.57,2.41-15.64-.35-25.67-1.44-13.79,17.62-57.02,29.48-94.11,4.94-7.69,3.78-24.53,11.18-38.68,7.81-.5-.12-1.03-.25-1.57-.38-.55-.06-1.09-.12-1.6-.18-14.45-1.66-27.75-14.37-33.68-20.55-43.24,10.4-79.82-15.51-86.76-36.78-9.79-2.4-15.5-1.54-24.61-7.41-25.76-16.6-29.49-48.6-13.79-73.65,1.92-3.06,4.33-5.41,6.2-8.37-.22-3.23-1.26-7.08-1.62-10.53-2.83-27.21,14.4-49.22,38.27-58.02,2.28-.84,4.62-1.56,7.01-2.15,2.56-.63,5.18-1.12,7.84-1.46,6.65-.61,14.27.42,20.66-1.95,15.47-5.72,28.83-16.07,46.38-13.31,10.76,1.69,21.83,5.07,31.49,10.1,13.04,6.79,26.18,15.07,40.54,17.95,14.48,2.2,29.66-1.1,44.24-3.02,10.8-1.43,22.36-.82,33.05,1.27,17.44,3.4,26.46,17.69,39.04,28.35,5.2,4.4,12.71,6.04,18.75,8.89,3.93,2.01,7.6,4.37,10.98,7.04h0Z"/>
        <path class="cls-1" d="M150.87,237.39c16.09,2.82,26.84,18.15,24.01,34.24-2.83,16.09-18.18,26.83-34.26,23.97-16.06-2.84-26.78-18.16-23.95-34.22,2.83-16.06,18.13-26.8,34.2-23.99"/>
        <path class="cls-1" d="M357.65,273.79c16.09,2.82,26.84,18.15,24.01,34.24-2.83,16.09-18.18,26.83-34.26,23.97-16.06-2.84-26.78-18.16-23.95-34.22,2.83-16.06,18.13-26.8,34.2-23.99"/>
        <path class="cls-10" d="M257.34,251.09c6.46,1.14,11.13,5.31,10.43,9.31-.7,4-6.52,6.33-12.98,5.19-6.46-1.14-11.13-5.31-10.43-9.31.7-4,6.52-6.33,12.98-5.19h0Z"/>
        <g>
          <path class="cls-8" d="M248.52,286.35c15.22,1.46,13.71,2.54,34.56-1.03,0,0-3.35,15.19-8.55,27-18.19-9.25-37.24-13.08-57.15-11.45-1-12.92.97-26.11.97-26.11,0,0,14.95,10.14,30.17,11.6Z"/>
          <path class="cls-2" d="M217.38,300.87c19.91-1.63,38.96,2.2,57.15,11.45-6.26,14.22-16.99,29.16-33.84,25.85-16.94-3.32-22.1-21.55-23.32-37.3h0Z"/>
          <path class="cls-13" d="M218.35,274.76s-1.96,13.18-.97,26.11M217.38,300.87c1.21,15.75,6.38,33.98,23.32,37.3,16.85,3.3,27.57-11.63,33.84-25.85M274.53,312.31c5.2-11.8,8.55-27,8.55-27"/>
          <path class="cls-13" d="M218.35,274.76c9.52,9.93,41.65,16.64,64.73,10.56"/>
        </g>
      </g>
      <g>
        <path class="cls-3" d="M323,413.94c9.59-3.39,104.56-22.44,104.56-61.71,0-12.02-9.3-20.47-21-22.76-.62-.12-1.29-.18-2-.18-16.23,0-60.63,35.94-84.52,53.9l2.95,30.75Z"/>
        <path d="M407.96,322.3c-1.08-.21-2.22-.32-3.39-.32h0c-14.9,0-38.03,16.99-69.09,40.98-2.98,2.3-7.01,5.31-9.74,7.4.7,1.86-6.07,11.3-5.68,12.83,23.92-18.13,68.68-53.9,84.52-53.9.71,0,1.37.06,2,.18,11.7,2.29,21,10.73,21,22.76,0,36.52-77.4,54.34-95.91,59.33.06,2.5.61,4.67.66,7.17,1.34-.39,3.6-.98,5.97-1.6,12.37-3.22,35.4-9.21,55.82-18.93,27.05-12.87,40.76-28.34,40.76-45.98,0-14.75-10.81-26.77-26.89-29.92Z"/>
      </g>
      <path class="cls-14" d="M425.63,411.26s26.51-11.24,36.6-42.39"/>
      <path class="cls-14" d="M425.15,431.54s29.59-6.79,43.33-29.52"/>
      <path class="cls-14" d="M32.79,320.56s-.5,35.16,28.58,52.2"/>
      <path class="cls-14" d="M18.37,341.8s.72,24.66,11.53,30.93"/>
      <g>
        <path class="cls-15" d="M204.7,197.65l1.57,9.53c1.22,7.39,5.6,13.87,12,17.76l8.25,5.01c2.22,1.35,1.57,4.73-1,5.15l-9.53,1.57c-7.39,1.22-13.87,5.6-17.76,12l-5.01,8.25c-1.35,2.22-4.73,1.57-5.15-1l-1.57-9.53c-1.22-7.39-5.6-13.87-12-17.76l-8.25-5.01c-2.22-1.35-1.57-4.73,1-5.15l9.53-1.57c7.39-1.22,13.87-5.6,17.76-12l5.01-8.25c1.35-2.22,4.73-1.57,5.15,1Z"/>
        <path class="cls-15" d="M328.46,220.88l1.57,9.53c1.22,7.39,5.6,13.87,12,17.76l8.25,5.01c2.22,1.35,1.57,4.73-1,5.15l-9.53,1.57c-7.39,1.22-13.87,5.6-17.76,12l-5.01,8.25c-1.35,2.22-4.73,1.57-5.15-1l-1.57-9.53c-1.22-7.39-5.6-13.87-12-17.76l-8.25-5.01c-2.22-1.35-1.57-4.73,1-5.15l9.53-1.57c7.39-1.22,13.87-5.6,17.76-12l5.01-8.25c1.35-2.22,4.73-1.57,5.15,1Z"/>
      </g>
      <path class="cls-12" d="M489.28,21.71l5.93,21.39,20.51,8.49c1.57.65,1.78,2.79.36,3.73l-18.51,12.25-1.74,22.13c-.13,1.69-2.11,2.55-3.44,1.49l-17.37-13.82-21.58,5.18c-1.65.4-3.08-1.21-2.48-2.81l7.78-20.79-11.6-18.93c-.89-1.45.2-3.3,1.9-3.23l22.18.97,14.42-16.88c1.1-1.29,3.2-.83,3.66.81Z"/>
      <path class="cls-12" d="M57,3.79l13.94,17.28,22.2-.35c1.7-.03,2.74,1.86,1.81,3.28l-12.13,18.59,7.19,21c.55,1.61-.92,3.18-2.56,2.74l-21.43-5.79-17.75,13.33c-1.36,1.02-3.31.11-3.39-1.59l-1.12-22.17-18.16-12.76c-1.39-.98-1.12-3.11.46-3.72l20.74-7.92,6.53-21.22c.5-1.62,2.61-2.03,3.68-.71Z"/>
      <path class="cls-12" d="M24.51,102.74l13.25,11.89,17.52-3.12c1.34-.24,2.41,1.12,1.85,2.36l-7.21,16.27,8.38,15.7c.64,1.2-.32,2.63-1.68,2.49l-17.7-1.83-12.34,12.83c-.94.98-2.6.51-2.89-.82l-3.73-17.4-16.01-7.77c-1.23-.6-1.29-2.32-.11-3l15.4-8.93,2.44-17.63c.19-1.35,1.81-1.94,2.82-1.03Z"/>
      <path class="cls-12" d="M525.81,134.07l1.06,16.63,13.76,9.4c1.05.72.88,2.32-.31,2.8l-15.49,6.15-4.69,16c-.36,1.22-1.94,1.55-2.76.57l-10.64-12.83-16.66.49c-1.28.04-2.08-1.37-1.39-2.44l8.92-14.08-5.61-15.7c-.43-1.2.66-2.4,1.89-2.08l16.15,4.13,13.19-10.19c1.01-.78,2.48-.11,2.56,1.16Z"/>
      <path class="cls-14" d="M75.47,132.81s11.43.43,24.54,10.53"/>
      <path class="cls-14" d="M100,51.1s31.07,11.05,35.97,41.25"/>
      <path class="cls-14" d="M440.36,66.75s-24.69.09-47.39,29.01"/>
      <path class="cls-14" d="M479.93,156.11c-11.95,0-25.97,3.39-39.57,21.73"/>
    </g>
  </g>
</svg>