<?xml version="1.0" encoding="UTF-8"?>
<svg id="Layer_2" data-name="Layer 2" xmlns="http://www.w3.org/2000/svg" xmlns:xlink="http://www.w3.org/1999/xlink" viewBox="0 0 372.37 554.39">
  <defs>
    <style>
      .cls-1 {
        stroke: #120e0d;
        stroke-miterlimit: 10;
      }

      .cls-1, .cls-2, .cls-3 {
        stroke-width: 7px;
      }

      .cls-1, .cls-2, .cls-4 {
        fill: none;
        stroke-linecap: round;
      }

      .cls-5 {
        fill: #76b9d3;
      }

      .cls-6 {
        fill: #f89c87;
      }

      .cls-7, .cls-3 {
        fill: #fff;
      }

      .cls-8 {
        fill: #fefefe;
      }

      .cls-8, .cls-9, .cls-3, .cls-10, .cls-11, .cls-12, .cls-13, .cls-14 {
        fill-rule: evenodd;
      }

      .cls-9 {
        fill: #42944b;
      }

      .cls-2 {
        stroke: #171616;
      }

      .cls-2, .cls-3, .cls-4 {
        stroke-linejoin: round;
      }

      .cls-3, .cls-4 {
        stroke: #000;
      }

      .cls-10 {
        fill: #8dd164;
      }

      .cls-15 {
        fill: url(#radial-gradient);
        opacity: .8;
      }

      .cls-11 {
        fill: #8ed165;
      }

      .cls-4 {
        stroke-width: 6px;
      }

      .cls-13 {
        fill: #131211;
      }

      .cls-16 {
        fill: #120e0d;
      }

      .cls-17 {
        fill: #b4dceb;
      }

      .cls-14 {
        fill: #47914a;
      }
    </style>
    <radialGradient id="radial-gradient" cx="185.92" cy="357.91" fx="185.92" fy="357.91" r="104.4" gradientTransform="translate(0 -16.61) scale(1 1.07)" gradientUnits="userSpaceOnUse">
      <stop offset=".12" stop-color="#ff9c1f"/>
      <stop offset=".21" stop-color="#fe9c20" stop-opacity=".99"/>
      <stop offset=".3" stop-color="#fd9e26" stop-opacity=".94"/>
      <stop offset=".39" stop-color="#fba12e" stop-opacity=".87"/>
      <stop offset=".48" stop-color="#f9a53b" stop-opacity=".76"/>
      <stop offset=".56" stop-color="#f6ab4b" stop-opacity=".62"/>
      <stop offset=".65" stop-color="#f2b25f" stop-opacity=".46"/>
      <stop offset=".73" stop-color="#edba76" stop-opacity=".26"/>
      <stop offset=".82" stop-color="#e8c391" stop-opacity=".04"/>
      <stop offset=".83" stop-color="#e8c596" stop-opacity="0"/>
    </radialGradient>
  </defs>
  <g id="Layer_1-2" data-name="Layer 1">
    <g>
      <g>
        <path class="cls-8" d="M252.72,550.89c-14.53,0-29.68-2.85-36.18-6.79-9.05-4.51-9.37-13.08-9.63-19.98-.26-6.92-.63-10.94-5.23-13.24-2.56-1.28-5.8-1.93-9.64-1.93-3.6,0-7.73.57-12.27,1.7-6.9,1.72-8.26,5.71-10.25,13.21-.9,3.39-1.92,7.22-3.92,10.79-5.1,11.9-23.86,16.12-38.46,16.12-15.54,0-28.63-4.14-35.03-11.07-3.34-3.62-3.93-9.08-1.45-13.28.79-1.34,1.87-2.38,2.82-3.3,1.64-1.58,1.99-2.09,1.88-2.72-.51-3.03-1.14-6.07-1.88-9.58-4.27-20.31-10.71-51-4.88-145.05.14-2.19.19-3.1,14.93-8.84,5.53-2.15,17.1-6.46,32.45-11.07,23.63-7.1,58.27-15.56,89.16-15.56,38.4,0,61.02,12.93,67.24,38.42l.06.25.02.25c4.93,51.53,1.22,126.08-11.82,153.94,4.61,6.35,5.8,11.98,3.53,16.74-4.33,9.07-19.49,10.98-31.44,10.98Z"/>
        <path d="M225.14,333.81c31.17,0,57.28,8.83,63.84,35.75,5.23,54.74.71,129.25-12.44,154,14.53,17.94-3.65,23.82-23.81,23.82-13.91,0-28.76-2.8-34.49-6.36-14.42-7.03-1.43-26.5-14.99-33.28-3.35-1.67-7.24-2.3-11.21-2.3-4.51,0-9.11.81-13.11,1.8-13.73,3.42-10.82,16-16.48,25.85-3.89,9.46-19.62,14.17-35.31,14.17-13.18,0-26.35-3.32-32.46-9.94-2.3-2.49-2.73-6.2-1.01-9.12,1.64-2.77,5.8-4.48,5.14-8.38-3.52-21.04-13.53-44.05-6.72-153.83.11-1.81,75.27-32.18,133.05-32.18M225.14,326.81v7-7c-31.32,0-66.32,8.54-90.17,15.71-15.46,4.65-27.13,8.99-32.71,11.16-3.89,1.51-7.25,2.92-9.72,4.05-3.35,1.55-7.16,3.3-7.44,7.83-5.86,94.52.64,125.49,4.95,145.99.64,3.06,1.21,5.76,1.68,8.39-.22.23-.48.48-.69.67-1.05,1.02-2.36,2.29-3.39,4.03-3.27,5.52-2.5,12.69,1.89,17.43,7.05,7.64,21.11,12.19,37.6,12.19s35.75-4.76,41.6-18.07c2.16-3.9,3.23-7.9,4.17-11.44,1.86-6.99,2.75-9.48,7.72-10.71,4.26-1.06,8.1-1.6,11.42-1.6,3.29,0,6.01.52,8.08,1.56,2.59,1.3,3.03,3.35,3.29,10.24.26,6.97.66,17.46,11.44,22.91,8.31,4.96,25.38,7.23,37.87,7.23s29.49-2.25,34.6-12.97c2.65-5.56,1.74-11.8-2.69-18.61,12.79-29.99,16.27-101.96,11.3-153.91l-.05-.5-.12-.49c-3.59-14.72-12.46-25.68-26.38-32.58-11.39-5.65-26.28-8.51-44.25-8.51h0Z"/>
      </g>
      <g>
        <path class="cls-14" d="M281.83,320.83s-19.97,42.21-95.56,45.03c-75.59,2.82-94.18-41.01-94.18-41.01l189.74-4.02h0Z"/>
        <path class="cls-12" d="M288.29,323.89s-20.91,46.1-101.75,49.11c-81.48,3.04-101.02-45.36-101.02-45.36-.93-2.18-.71-4.68.58-6.67,1.29-1.99,3.48-3.21,5.85-3.26l189.74-4.02c2.47-.05,4.8,1.18,6.15,3.26,1.35,2.08,1.52,4.7.46,6.94h0ZM281.83,320.83l-189.74,4.02s18.6,43.83,94.18,41.01c75.59-2.82,95.56-45.03,95.56-45.03h0Z"/>
        <path class="cls-11" d="M112.81,324.42s-7.78,21.46,39.91,27.63c47.69,6.17,83.04-10.1,101-24.13,4.17-3.26-1.19-5.19-11.89-6.24l-129.02,2.73h0Z"/>
        <path class="cls-14" d="M134.84,397.05c-.37-3.74,2.07-8.92,2.74-12.62,1.45-8.07,5.69-16.53,12.04-22.65,9.27-8.92,19.1-10.37,30.94-8.73,1.18,11.89-2.9,24.19-12.17,33.11-9.27,8.92-21.72,12.53-33.55,10.89h0Z"/>
        <path class="cls-12" d="M127.73,397.75c-.22-2.24.12-4.84.8-7.49.64-2.48,1.64-5.03,2.01-7.1,1.7-9.46,6.67-19.36,14.12-26.53,11.07-10.65,22.73-12.62,36.87-10.66,3.27.45,5.8,3.08,6.13,6.37,1.39,13.99-3.41,28.47-14.32,38.97-10.91,10.5-25.55,14.75-39.48,12.82-3.27-.45-5.8-3.08-6.13-6.37h0ZM134.84,397.05c11.84,1.64,24.28-1.97,33.55-10.89,9.27-8.92,13.35-21.22,12.17-33.11-11.84-1.64-21.67-.19-30.94,8.73-6.36,6.12-10.59,14.57-12.04,22.65-.67,3.7-3.11,8.88-2.74,12.62h0Z"/>
        <path class="cls-14" d="M232.19,397.4s-8.89-2.18-12.59-2.9c-8.05-1.55-16.46-5.9-22.49-12.33-8.8-9.38-10.13-19.23-8.35-31.04,11.9-1.03,28.83,11.26,37.64,20.64,8.8,9.38,5.79,25.62,5.79,25.62h0Z"/>
        <path class="cls-12" d="M230.48,404.34s-8.65-2.13-12.24-2.82c-9.44-1.82-19.28-6.92-26.35-14.45-10.51-11.2-12.33-22.89-10.2-37,.49-3.26,3.16-5.76,6.45-6.05,5.9-.51,12.86,1.38,19.71,4.87,9.04,4.6,17.99,11.87,23.75,18,10.96,11.68,7.6,31.82,7.6,31.82-.36,1.93-1.5,3.63-3.15,4.7-1.65,1.07-3.67,1.4-5.58.94h0ZM232.19,397.4s3.02-16.24-5.79-25.62c-8.8-9.38-25.73-21.68-37.64-20.64-1.79,11.82-.46,21.66,8.35,31.04,6.04,6.43,14.44,10.77,22.49,12.33,3.69.71,12.59,2.9,12.59,2.9h0Z"/>
        <path class="cls-2" d="M180.07,352.46c-11.82,17.98-19.9,14.69-30.7,31.07M185.92,350.12c19.7,12.68,23.8,20.71,31.43,29.22"/>
        <path class="cls-14" d="M186.32,343.42c5.17,0,9.37,4.05,9.37,9.04s-4.2,9.04-9.37,9.04-10.17-2.06-10.17-7.05,4.99-11.03,10.17-11.03h0Z"/>
        <path class="cls-12" d="M186.32,336.27c9.18,0,16.51,7.32,16.51,16.18s-7.33,16.18-16.51,16.18-17.31-5.16-17.31-14.19c0-4.07,1.85-8.65,4.95-12.13,3.3-3.71,7.87-6.05,12.37-6.05h0ZM186.32,343.42c-5.17,0-10.17,6.04-10.17,11.03s4.99,7.05,10.17,7.05,9.37-4.05,9.37-9.04-4.2-9.04-9.37-9.04h0Z"/>
        <path class="cls-9" d="M246.77,61.24c3.75,4.7,9.04,12.74,9.04,12.74,0,0,8.69-7.17,13.19-8.3,20.49-5.16,69.85,77.17,65.21,89.15-3.71-1.99-7.65-3.65-11.78-4.92-6.31-1.72-13.83-2.02-19.59-5.38-13.94-8.14-25.06-20.38-42.45-20.7-10.66-.2-21.9,1.18-32.07,4.39-13.72,4.33-27.8,10.08-42.13,10.42-14.33-.34-28.41-6.09-42.13-10.42-10.17-3.21-21.41-4.58-32.07-4.39-17.39.32-28.51,12.56-42.45,20.7-5.76,3.36-13.28,3.67-19.59,5.38-2.51.77-4.95,1.69-7.31,2.73.14-.49.27-.98.37-1.5,5.26-27.37,49.93-89.3,66.81-100.3,4.16-2.71,5.82-2.88,9.83-.26,2.83,1.85,6.84,5.09,13.72,9.8,1.92.2,11.82-13.83,15.48-19.24,9.35-13.8,29.14-44.34,49-30.72,17.32,11.88,47.02,47.85,48.85,50.68l.08.14h0Z"/>
        <g>
          <path class="cls-9" d="M332.55,157.91c-3.52-1.89-7.25-3.45-11.09-4.64-1.91-.52-3.96-.9-6.13-1.31-4.84-.91-9.85-1.84-14.25-4.42-3.91-2.28-7.6-4.87-11.16-7.38-9.25-6.5-17.99-12.64-29.59-12.85-.64-.01-1.29-.02-1.93-.02-10.19,0-20.23,1.47-29.02,4.24-2.61.82-5.29,1.72-7.89,2.59-11.36,3.79-23.11,7.71-35.21,8h-.16c-12.11-.29-23.85-4.21-35.21-8-2.6-.87-5.28-1.76-7.89-2.59-8.8-2.78-18.83-4.24-29.02-4.24-.65,0-1.29,0-1.93.02-11.6.21-20.34,6.35-29.59,12.85-3.56,2.5-7.25,5.09-11.16,7.38-4.41,2.57-9.41,3.51-14.25,4.42-2.17.41-4.22.79-6.12,1.31-2.34.72-4.65,1.59-6.87,2.57l-6.87,3.04,2.09-7.22c.13-.46.23-.84.29-1.19,5.48-28.49,50.89-91.2,68.33-102.57,2.56-1.67,4.63-2.7,7.06-2.7s4.66,1.17,6.6,2.44c1.36.89,2.9,2.02,4.86,3.46,1.87,1.38,4.12,3.03,6.89,4.97,2.53-2.72,7.66-9.55,12.64-16.9l.82-1.21c8.71-12.89,23.29-34.47,40.69-34.47,4.31,0,8.47,1.36,12.37,4.04,18.22,12.5,48.04,48.92,49.81,51.67l.03.05c2.3,2.91,5.08,6.89,6.95,9.64,3.2-2.41,8.08-5.74,11.53-6.61.89-.22,1.83-.34,2.8-.34,13.63,0,31.72,23.44,41.29,37.41,12.13,17.7,28.85,47.42,25.24,56.74l-1.43,3.69-3.49-1.88Z"/>
          <path d="M187.45,7c3.42,0,6.91,1.03,10.39,3.42,17.32,11.88,47.02,47.85,48.85,50.68l.08.14c3.75,4.7,9.04,12.74,9.04,12.74,0,0,8.69-7.17,13.19-8.3.62-.16,1.27-.23,1.94-.23,21.49,0,67.77,77.76,63.27,89.39-3.71-1.99-7.65-3.65-11.78-4.92-6.31-1.72-13.83-2.02-19.59-5.38-13.94-8.14-25.06-20.38-42.45-20.7-.66-.01-1.33-.02-2-.02-10.06,0-20.54,1.4-30.08,4.41-13.72,4.33-27.8,10.08-42.13,10.42-14.33-.34-28.41-6.09-42.13-10.42-9.54-3.01-20.02-4.41-30.08-4.41-.67,0-1.33,0-2,.02-17.39.32-28.51,12.56-42.45,20.7-5.76,3.36-13.28,3.67-19.59,5.38-2.51.77-4.95,1.69-7.31,2.73.14-.49.27-.98.37-1.5,5.26-27.37,49.93-89.3,66.81-100.3,2.16-1.41,3.65-2.13,5.15-2.13,1.38,0,2.76.61,4.69,1.87,2.83,1.85,6.84,5.09,13.72,9.8.01,0,.03,0,.04,0,2.01,0,11.8-13.87,15.44-19.24,7.71-11.38,22.52-34.14,38.61-34.14M187.45,0h0c-19.26,0-34.49,22.54-43.59,36.01l-.81,1.2c-3.69,5.44-7.65,10.86-10.33,14.16-1.6-1.15-2.99-2.18-4.23-3.08-2-1.47-3.58-2.64-5.02-3.58-2.28-1.49-5.07-3.01-8.51-3.01-3.65,0-6.54,1.69-8.97,3.27-10.91,7.11-28.2,29.17-39.71,45.91-7.86,11.44-26.53,40.07-30.15,58.93-.05.24-.12.52-.22.88l-4.17,14.43,13.73-6.08c2.08-.92,4.24-1.73,6.42-2.41,1.76-.47,3.72-.84,5.8-1.23,4.89-.92,10.44-1.96,15.37-4.83,4.04-2.36,7.79-4.99,11.41-7.54,9.18-6.45,17.11-12.02,27.64-12.21.62-.01,1.24-.02,1.87-.02,9.84,0,19.51,1.41,27.97,4.08,2.58.81,5.26,1.71,7.84,2.57,11.6,3.87,23.6,7.88,36.23,8.18h.17s.17,0,.17,0c12.63-.3,24.63-4.3,36.24-8.18,2.58-.86,5.26-1.75,7.84-2.57,8.46-2.67,18.13-4.08,27.97-4.08.62,0,1.25,0,1.87.02,10.53.19,18.46,5.76,27.64,12.21,3.62,2.55,7.37,5.18,11.41,7.54,4.93,2.88,10.48,3.92,15.37,4.83,2.08.39,4.04.76,5.8,1.23,3.6,1.12,7.11,2.58,10.41,4.36l6.98,3.75,2.86-7.39c1.33-3.43,1.84-9.53-6.05-26.32-4.87-10.36-12-22.63-19.57-33.67-7.28-10.62-14.62-19.67-21.25-26.16-8.77-8.59-16.27-12.77-22.93-12.77-1.25,0-2.48.15-3.65.45-3,.75-6.69,2.93-9.82,5.08-1.57-2.25-3.37-4.74-4.96-6.76-2.36-3.46-32.32-39.95-50.71-52.56-4.5-3.08-9.33-4.65-14.35-4.65h0Z"/>
        </g>
        <path class="cls-10" d="M133.36,60.38c1.92.2,11.82-13.83,15.48-19.24,9.35-13.8,29.14-44.34,49-30.72,17.32,11.88,47.02,47.85,48.85,50.68.05.09.08.14.08.14,0,0,.67,15.99-9.45,22.81-11.25,7.58-23.72-1.88-29.8-11.43-6.74,11.05-16.52,22.93-31.36,18.92-14.31-3.87-31.81-22.27-42.8-31.15h0Z"/>
        <path class="cls-3" d="M334.21,154.83c.65.35,1.29.71,1.93,1.08,21.51,12.53,34.39,36.68,27.04,62.43-.93,3.27-2.59,6.79-3.35,9.87,1.3,3.17,3.22,5.84,4.56,9.12,10.88,26.82,1.85,57.03-25.8,68.66-9.78,4.12-15.14,2.32-24.99,2.97-10.3,19.33-49.97,38.1-89.88,20.73-6.77,4.94-21.75,14.95-35.96,14.09-.51-.03-1.03-.06-1.58-.1-.54.04-1.07.07-1.58.1-14.21.86-29.19-9.15-35.96-14.09-39.92,17.37-79.58-1.4-89.88-20.73-9.85-.65-15.2,1.15-24.99-2.97-27.65-11.63-36.68-41.84-25.8-68.66,1.33-3.28,3.25-5.95,4.56-9.12-.76-3.08-2.42-6.61-3.35-9.87-7.34-25.75,5.53-49.9,27.04-62.43,2.06-1.2,4.19-2.29,6.39-3.26,2.36-1.05,4.8-1.96,7.31-2.73,6.31-1.72,13.83-2.02,19.59-5.38,13.94-8.14,25.06-20.38,42.45-20.7,10.66-.2,21.9,1.18,32.07,4.39,13.72,4.33,27.8,10.08,42.13,10.42,14.33-.34,28.41-6.09,42.13-10.42,10.17-3.21,21.41-4.58,32.07-4.39,17.39.32,28.51,12.56,42.45,20.7,5.76,3.36,13.28,3.67,19.59,5.38,4.13,1.27,8.07,2.93,11.78,4.92h0Z"/>
        <path class="cls-6" d="M83.4,239.7c15.99-.02,28.96,12.94,28.96,28.93s-12.97,28.94-28.96,28.93c-15.97-.01-28.9-12.96-28.9-28.93s12.93-28.91,28.9-28.93"/>
        <path class="cls-6" d="M288.92,239.7c15.99-.02,28.95,12.94,28.96,28.93,0,15.99-12.97,28.94-28.96,28.93-15.97-.01-28.9-12.96-28.9-28.93s12.93-28.91,28.9-28.93"/>
        <path class="cls-13" d="M188.36,241.25c6.42,0,11.63,3.23,11.63,7.21s-5.21,7.21-11.63,7.21-11.63-3.23-11.63-7.21,5.21-7.21,11.63-7.21h0Z"/>
        <path class="cls-4" d="M150.84,272.27c15.59,14.44,24.17,6.95,36.12-1.68,13.93,13.88,25.65,9.82,34.2,1.68"/>
        <g>
          <g>
            <ellipse class="cls-16" cx="123.82" cy="230.01" rx="25.87" ry="26.04"/>
            <circle class="cls-7" cx="119.36" cy="221.22" r="8.79"/>
            <path class="cls-7" d="M143.88,239.93c-.64,3.08-4.67,4.84-8.99,3.94-4.32-.9-7.3-4.13-6.66-7.2s4.96-6.26,9.28-5.36c4.32.9,7.01,5.55,6.36,8.62Z"/>
            <path class="cls-7" d="M121.36,246.4c-1.76,2.6-5.39,3.22-8.11,1.38-2.72-1.84-3.5-5.44-1.74-8.04,1.76-2.6,6.21-4.42,8.93-2.58,2.72,1.84,2.68,6.65.92,9.25Z"/>
            <g>
              <g>
                <path class="cls-17" d="M115.57,259.88c-1.96,0-4.07-.09-6.3-.18-2.26-.1-4.6-.2-6.79-.2-1.86,0-3.64.09-5.36.17-1.51.07-2.94.14-4.26.14-2.97,0-4.85-.37-6.28-1.24-1.86-1.12-2.8-3.07-2.8-5.79,0-8.27,8.39-15,18.7-15,9.77,0,22.74,12.15,22.74,17.7,0,4.39-6.52,4.39-9.65,4.39Z"/>
                <path class="cls-5" d="M102.48,239.29c9.5,0,21.24,11.88,21.24,16.2,0,2.35-3.46,2.89-8.15,2.89-3.94,0-8.75-.38-13.1-.38-3.56,0-6.88.32-9.62.32-4.57,0-7.58-.87-7.58-5.53,0-7.45,7.7-13.5,17.2-13.5M102.48,236.29c-11.14,0-20.2,7.4-20.2,16.5,0,8.53,7.96,8.53,10.58,8.53,1.36,0,2.8-.07,4.34-.15,1.7-.08,3.46-.17,5.29-.17,2.16,0,4.48.1,6.73.19,2.25.1,4.38.19,6.37.19,3.34,0,11.15,0,11.15-5.89,0-6.35-13.33-19.2-24.24-19.2h0Z"/>
              </g>
              <path class="cls-7" d="M111.49,248.19c-.66,1.68-2.08,1.27-4.97.13-2.89-1.14-6.17-2.57-5.5-4.26.66-1.68,3.55-2.13,6.44-.98,2.89,1.14,4.7,3.43,4.03,5.11Z"/>
            </g>
            <path class="cls-1" d="M92.93,212.44s29.66.7,51.04-18.9"/>
          </g>
          <g>
            <g>
              <ellipse class="cls-16" cx="248.56" cy="230.01" rx="25.87" ry="26.04"/>
              <circle class="cls-7" cx="244.1" cy="221.22" r="8.79"/>
              <path class="cls-7" d="M268.62,239.93c-.64,3.08-4.67,4.84-8.99,3.94s-7.3-4.13-6.66-7.2c.64-3.08,4.96-6.26,9.28-5.36,4.32.9,7.01,5.55,6.36,8.62Z"/>
              <path class="cls-7" d="M246.1,246.4c-1.76,2.6-5.39,3.22-8.11,1.38-2.72-1.84-3.5-5.44-1.74-8.04s6.21-4.42,8.93-2.58,2.68,6.65.92,9.25Z"/>
            </g>
            <g>
              <g>
                <path class="cls-17" d="M256.8,259.88c-3.13,0-9.65,0-9.65-4.39,0-5.56,12.98-17.7,22.74-17.7,10.31,0,18.7,6.73,18.7,15,0,7.03-6.13,7.03-9.08,7.03-1.32,0-2.75-.07-4.26-.14-1.72-.08-3.5-.17-5.36-.17-2.19,0-4.53.1-6.79.2-2.23.1-4.34.18-6.3.18h0Z"/>
                <path class="cls-5" d="M269.9,239.29c9.5,0,17.2,6.04,17.2,13.5,0,4.66-3,5.53-7.58,5.53-2.75,0-6.06-.32-9.62-.32-4.34,0-9.15.38-13.1.38-4.68,0-8.15-.54-8.15-2.89,0-4.33,11.75-16.2,21.24-16.2M269.9,236.29c-10.91,0-24.24,12.86-24.24,19.2,0,5.89,7.81,5.89,11.15,5.89,1.99,0,4.11-.09,6.37-.19,2.25-.1,4.57-.19,6.73-.19,1.82,0,3.58.09,5.29.17,1.53.08,2.98.15,4.34.15,2.62,0,10.58,0,10.58-8.53,0-9.1-9.06-16.5-20.2-16.5h0Z"/>
              </g>
              <path class="cls-7" d="M260.88,248.19c.66,1.68,2.08,1.27,4.97.13,2.89-1.14,6.17-2.57,5.5-4.26s-3.55-2.13-6.44-.98c-2.89,1.14-4.7,3.43-4.03,5.11Z"/>
            </g>
            <path class="cls-1" d="M279.44,212.44s-30.79,0-51.39-17.81"/>
          </g>
        </g>
      </g>
      <ellipse class="cls-15" cx="185.92" cy="366.32" rx="104.4" ry="111.7"/>
      <g>
        <g>
          <path class="cls-7" d="M113.76,408.27c-8.4,0-16.51-2.09-24.11-6.22-8.78-4.76-14.67-11.76-17.03-20.25-2.61-9.38-.79-20.1,5.13-30.18,3.67-6.24,10.69-13.95,16.49-15.93,3.87-1.32,7.45-1.99,10.65-1.99,4.46,0,8.18,1.35,10.19,3.71,1.13,1.32,1.62,2.85,1.39,4.32-.07.42-.21.83-.42,1.2,1.87-2.36,3.68-4.75,5.48-7.12,3.1-4.09,6.31-8.31,9.73-12.3,6.09-7.09,14.88-11.33,23.51-11.33,6.72,0,12.91,2.49,17.88,7.19,5.44,5.06,8.62,12.25,8.71,19.71.35,17.72-14.22,38.53-22.88,48.02-12.57,13.46-28.86,21.16-44.73,21.17ZM106.14,352.77c-.94,1.08-1.26,1.87-1.34,2.28.28-.06.61-.23.97-.57,3.42-3.28,6.58-6.92,9.59-10.68-1.94,1.99-8.26,8.06-9.21,8.97Z"/>
          <path d="M154.77,315.68c5.47,0,10.92,1.92,15.48,6.24,4.78,4.45,7.53,10.67,7.62,17.21.3,15.23-12.1,34.81-21.97,45.62-11.35,12.16-26.5,20.02-42.15,20.02-7.49,0-15.09-1.8-22.45-5.79-18.52-10.05-20.23-29.08-10.54-45.58,3.58-6.1,10.12-12.86,14.6-14.39,3.83-1.31,6.99-1.8,9.52-1.8,5.81,0,8.34,2.61,8.13,3.99-1.75,1.82-9.41,9.16-9.41,9.16-4.17,4.7-2.07,8.23,1.02,8.23,1.14,0,2.4-.48,3.54-1.56,9.79-9.36,16.96-21,25.75-31.23,5.42-6.31,13.17-10.11,20.86-10.11M154.77,308.68c-9.64,0-19.42,4.69-26.17,12.55-3.5,4.07-6.73,8.34-9.87,12.47-.35.46-.7.92-1.05,1.38-2.73-3.15-7.27-4.88-12.8-4.88-3.59,0-7.55.73-11.78,2.18-6.67,2.28-14.29,10.52-18.37,17.47-6.41,10.91-8.35,22.59-5.49,32.89,2.62,9.42,9.1,17.16,18.73,22.39,8.12,4.4,16.79,6.64,25.78,6.64,16.84,0,34.07-8.11,47.27-22.25.02-.02.04-.04.06-.06,9.01-9.88,24.16-31.63,23.79-50.48-.1-8.35-3.69-16.45-9.82-22.17-5.64-5.32-12.65-8.13-20.27-8.13h0Z"/>
        </g>
        <g>
          <path class="cls-7" d="M253.99,408.27c-15.87,0-32.17-7.7-44.71-21.13-8.69-9.53-23.25-30.34-22.91-48.08.09-7.43,3.28-14.62,8.73-19.7,4.96-4.69,11.14-7.17,17.87-7.17,8.63,0,17.42,4.24,23.51,11.33,3.43,3.99,6.64,8.22,9.74,12.31,1.79,2.36,3.6,4.75,5.47,7.11-.21-.37-.35-.77-.42-1.2-.23-1.47.26-3.01,1.39-4.32,2.02-2.35,5.73-3.71,10.19-3.71,3.2,0,6.78.67,10.65,1.99,5.8,1.98,12.82,9.69,16.49,15.93,5.92,10.08,7.74,20.8,5.13,30.18-2.36,8.49-8.25,15.49-17.03,20.25-7.6,4.12-15.71,6.22-24.11,6.22ZM252.39,343.81c3.01,3.76,6.17,7.41,9.6,10.69.36.34.71.51.95.56-.08-.41-.4-1.2-1.34-2.29-.95-.91-7.26-6.97-9.21-8.96Z"/>
          <path d="M212.97,315.68c7.69,0,15.44,3.8,20.86,10.11,8.79,10.23,15.96,21.87,25.75,31.23,1.14,1.08,2.41,1.56,3.54,1.56,3.09,0,5.19-3.54,1.02-8.23,0,0-7.66-7.34-9.41-9.16-.22-1.38,2.31-3.99,8.13-3.99,2.53,0,5.69.5,9.52,1.8,4.48,1.53,11.02,8.29,14.6,14.39,9.69,16.5,7.98,35.53-10.54,45.58-7.36,3.99-14.96,5.79-22.45,5.79-15.65,0-30.8-7.86-42.15-20.02-9.86-10.82-22.27-30.39-21.97-45.62.08-6.54,2.83-12.75,7.62-17.21,4.56-4.31,10.01-6.24,15.48-6.24M212.97,308.68c-7.63,0-14.63,2.81-20.27,8.13-6.14,5.73-9.72,13.83-9.83,22.22-.37,18.79,14.78,40.54,23.79,50.43.02.02.04.04.06.06,13.2,14.14,30.43,22.25,47.27,22.25,8.99,0,17.67-2.23,25.78-6.64,9.63-5.23,16.11-12.97,18.73-22.39,2.87-10.3.92-21.98-5.49-32.89-4.08-6.96-11.71-15.19-18.38-17.47-4.23-1.45-8.2-2.18-11.78-2.18-5.53,0-10.08,1.73-12.81,4.88-.35-.46-.7-.92-1.05-1.38-3.13-4.13-6.37-8.4-9.87-12.47-6.75-7.86-16.53-12.55-26.17-12.55h0Z"/>
        </g>
      </g>
    </g>
  </g>
</svg>