<?xml version="1.0" encoding="UTF-8"?>
<svg id="Layer_2" data-name="Layer 2" xmlns="http://www.w3.org/2000/svg" viewBox="0 0 515.88 517.03">
  <defs>
    <style>
      .cls-1 {
        fill: #76b9d3;
      }

      .cls-2 {
        fill: #f89c87;
      }

      .cls-3, .cls-4 {
        fill: #fff;
      }

      .cls-5 {
        fill: #f09a88;
      }

      .cls-4, .cls-6, .cls-7, .cls-8, .cls-9, .cls-10 {
        fill-rule: evenodd;
      }

      .cls-6 {
        fill: #42944b;
      }

      .cls-7 {
        fill: #8dd164;
      }

      .cls-8 {
        fill: #8ed165;
      }

      .cls-11 {
        fill: #b75755;
      }

      .cls-12 {
        fill: #161516;
      }

      .cls-13 {
        fill: #b4dceb;
      }

      .cls-10 {
        fill: #47914a;
      }
    </style>
  </defs>
  <g id="Layer_1-2" data-name="Layer 1">
    <g>
      <g>
        <path class="cls-3" d="M215.02,513.46c-5.36,0-10.22-1.3-14.84-3.99-19.1-11.1-34.92-35.85-27.17-56.47l.15-.38.23-.34c3.53-5.29,8.43-8.09,14.16-8.09,4.12,0,8.67,1.42,13.87,4.32.95-.87,1.78-1.72,2.64-2.6,2.2-2.26,4.48-4.59,8.82-7.29,2.73-1.69,5.77-2.84,8.71-3.96,2.11-.8,4.12-1.56,5.72-2.42-9.81,2.12-18.36,6.84-24.17,13.35l-1.72,1.93-2.37-1.03c-4.39-1.91-8.14-2.84-11.46-2.84-5.35,0-10.03,2.51-14.73,7.91l-1.63,1.86-2.32-.86c-12.85-4.8-23.27-7.04-32.78-7.04-6.05,0-11.03.91-15.85,1.79-4.55.83-9.25,1.69-14.54,1.69-4.04,0-8.06-.49-12.3-1.51l-.21-.05-.2-.07c-10.94-4.04-17.79-16.19-20.9-23.06-3.81-8.92-14.73-38.64,3.36-49.3l.21-.13.23-.1c1.96-.82,3.8-1.21,5.62-1.21,4.47,0,7.57,2.4,10.3,4.53,1.24.96,2.42,1.88,3.67,2.54,12.57-5.75,20.86-6.4,25.89-6.79,1.89-.15,4.04-.32,4.33-.73.98-1.37,1.03-7.52,1.06-9.84v-.16s.02-.16.02-.16c1.29-13.04,6.91-26.26,17.12-40.27-.89,1.09-1.72,2.25-2.39,3.16-.62.85-1.19,1.65-1.73,2.32l-2.34,2.95-3.1-2.73c-15.43-13.59-32.93-28.99-36.98-50.81-1.64-9.35.24-18.38,5.27-25.47,4.74-6.66,12.05-11.09,20.58-12.48.99-.16,1.8-.17,2.51-.17.39,0,.78,0,1.21-.05l1.58-.16,1.18,1.06c1.4,1.27,3.26,2.2,5.04,3.09,2.11,1.06,4.28,2.15,5.85,3.88,2.05,2.26,3.66,5.52,5.21,8.67,1.1,2.22,2.23,4.52,3.39,6.18,3.45,3.16,39.61,22.59,87.2,45.15,52.29,24.79,89.46,39.6,99.43,39.6.66,0,.92-.08.92-.08,2.17-.85,4.12-1.96,6.18-3.14,3.77-2.16,7.68-4.39,13.15-4.92,7.91-.77,15.72-4.23,23.27-7.58l2.75-1.21,1.27.39c5.72,1.76,11.49,2.65,17.15,2.65,8.87,0,17.64-2.18,26.05-6.47l3.82-1.95,1.23,4.11c3.3,11.08,1.96,21.2-4,30.09-12.25,18.28-42.15,27.36-64.12,29.6-2.6.52-5.39.71-8.08.89-3.78.25-7.68.52-10.64,1.7-.58,1.26-1.21,4.5-1.86,9.65-.1.75-.17,1.37-.24,1.79-8.62,62.85-52.49,86.1-94.29,100.53-2.34.92-4.7,1.96-7.19,3.06-8.4,3.69-17.09,7.51-26.23,7.51Z"/>
        <path d="M127.35,242.93c3.5,3.16,8.38,4.23,10.64,6.72,3.12,3.44,5.41,10.44,8.45,14.67,4.54,6.32,164.09,86.09,189.43,86.09.88,0,1.6-.1,2.14-.3,6.72-2.62,10.99-7.13,18.45-7.86,9.04-.88,17.74-4.94,25.9-8.54,6.12,1.88,12.21,2.81,18.21,2.81,9.51,0,18.79-2.33,27.67-6.86,11,36.91-37.18,52.32-65.23,55.13-6.32,1.3-14.43.42-20.27,3.13-2.23,1.03-3.15,11.33-3.54,13.88-7.6,55.41-42.16,80.53-92,97.72-10.26,4.04-21.19,10.35-32.17,10.35-4.35,0-8.72-.99-13.05-3.51-16.65-9.68-33.04-32.37-25.62-52.13,3.18-4.76,7.09-6.5,11.19-6.5,4.79,0,9.83,2.38,14.25,5.11,5.02-3.97,6.35-7.12,12.97-11.22,4.67-2.89,10.97-4.24,15.12-6.76,3.04-1.7,1.62-6.42-1.64-6.42-.16,0-.32.01-.49.03-11.07,2.15-20.79,7.45-27.28,14.71-4.7-2.05-8.95-3.14-12.89-3.14-6.37,0-11.95,2.85-17.42,9.13-15.01-5.61-25.58-7.26-34.03-7.26-12.24,0-20.02,3.47-30.39,3.47-3.45,0-7.19-.39-11.47-1.41-8.72-3.22-15.16-12.94-18.88-21.18-5.23-12.27-12.32-36.36,1.92-44.76,1.59-.66,2.98-.94,4.24-.94,5.59,0,8.59,5.46,14.02,7.42,30.5-14.54,34.59,1.9,34.81-21.25,1.59-16.01,10.04-30.55,19.76-42.88,1.19-1.91-.09-4.7-2.31-4.7-.14,0-.29.01-.43.03-4.25.77-7.82,6.97-10.36,10.19-15.07-13.27-32.26-28.3-36.11-49.03-2.84-16.24,6.23-31.06,22.92-33.77,1.27-.21,2.24-.06,3.51-.19M129.79,235.51l-3.15.32c-.23.02-.52.03-.88.03-.76,0-1.8.02-3.06.22-9.49,1.54-17.62,6.49-22.92,13.94-5.59,7.87-7.68,17.85-5.89,28.12v.04s.01.04.01.04c4.28,23.03,22.26,38.86,38.13,52.83l.28.25,1.14,1c-5.84,10.32-9.19,20.33-10.18,30.29l-.03.32v.32c-.04,3.68-.19,5.74-.34,6.89-.56.05-1.19.1-1.76.15-5.03.39-13.17,1.03-25.34,6.32-.56-.4-1.14-.85-1.76-1.33-2.87-2.23-6.79-5.28-12.49-5.28-2.27,0-4.62.5-6.99,1.49l-.46.19-.42.25c-13.9,8.19-15.71,28.27-4.86,53.71l.03.07.03.07c3.34,7.39,10.75,20.45,22.91,24.94l.4.15.41.1c4.51,1.08,8.81,1.61,13.13,1.61,5.61,0,10.48-.89,15.18-1.74,4.88-.89,9.48-1.73,15.21-1.73,9.07,0,19.09,2.17,31.53,6.81l.68.25c-2.29,9.87-.37,20.87,5.57,31.46,5.69,10.13,14.61,19.23,24.48,24.96,5.11,2.97,10.71,4.47,16.64,4.47,9.88,0,19.33-4.15,27.66-7.81,2.44-1.07,4.74-2.08,6.99-2.98,28.74-9.93,49.19-21.41,64.33-36.11,17.86-17.34,28.41-39.35,32.26-67.29.07-.44.15-1.07.24-1.82.42-3.33.82-5.76,1.18-7.27,2.29-.58,5.19-.77,8.02-.96,2.76-.18,5.6-.38,8.37-.91,22.72-2.34,53.64-11.88,66.56-31.14,6.58-9.81,8.08-20.95,4.46-33.1l-2.45-8.22-7.64,3.9c-7.9,4.03-16.12,6.08-24.42,6.08-5.31,0-10.73-.84-16.11-2.5l-2.55-.78-2.44,1.08-1.53.68c-7.3,3.23-14.84,6.58-22.18,7.29-6.23.61-10.66,3.14-14.57,5.37-1.79,1.02-3.49,2-5.31,2.75,0,0-.02,0-.02,0-7.24,0-36.44-10.16-96.7-38.69-45.69-21.62-81.98-40.96-87.27-44.95-.92-1.42-1.9-3.39-2.84-5.31-1.66-3.37-3.38-6.86-5.77-9.49-2.02-2.22-4.61-3.52-6.9-4.67-1.65-.83-3.21-1.61-4.25-2.55l-2.35-2.12h0Z"/>
      </g>
      <g>
        <g>
          <path class="cls-10" d="M285.64,359.82c-13.67,0-28.34-2.09-43.62-6.21-38.72-10.44-58.47-28.74-68.22-42.25-10.75-14.9-12.11-27.32-12.16-27.84l-.52-5.14,192.83,55.35-3.83,4.17c-.82.9-20.64,21.93-64.48,21.93Z"/>
          <path d="M165.12,283.16l182.42,52.36s-19.09,20.79-61.9,20.79c-12.26,0-26.45-1.7-42.71-6.09-73.03-19.7-77.81-67.07-77.81-67.07M157.12,273.58l1.04,10.28c.06.56,1.51,13.89,12.81,29.54,10.08,13.97,30.44,32.87,70.14,43.58,15.57,4.2,30.55,6.33,44.53,6.33,45.36,0,66.19-22.12,67.06-23.06l7.66-8.34-10.88-3.12-182.42-52.36-9.93-2.85h0Z"/>
        </g>
        <path class="cls-8" d="M185.04,288.88s-13.79,18.19,29.94,38.22c43.73,20.02,82.31,14.95,103.62,6.87,4.95-1.88.4-5.31-9.51-9.48l-124.04-35.6h0Z"/>
        <g>
          <path class="cls-10" d="M201.76,372.11c-6.41,0-12.86-1.44-18.68-4.17l-2.5-1.17.55-2.7c.62-3.05,2.66-6.03,4.45-8.66.88-1.28,1.7-2.49,2.23-3.5,4.31-8.3,11.51-15.44,19.75-19.58,5.46-2.74,10.77-4.08,16.22-4.08,5.87,0,11.9,1.54,18.97,4.85l2.5,1.17-.55,2.7c-2.71,13.28-11.2,24.38-23.29,30.45-6.17,3.1-12.78,4.67-19.65,4.67Z"/>
          <path d="M223.78,331.76c5.83,0,11.5,1.72,17.49,4.52-2.39,11.71-9.93,22.25-21.43,28.02-5.81,2.92-11.99,4.3-18.08,4.3s-11.84-1.33-17.2-3.83c.75-3.68,4.62-7.91,6.35-11.25,3.78-7.28,10.33-14.1,18.21-18.06,5.14-2.58,9.94-3.7,14.65-3.7M223.78,324.76h0c-6.01,0-11.83,1.46-17.79,4.45-8.88,4.46-16.64,12.15-21.28,21.09-.43.82-1.19,1.95-2.01,3.14-1.98,2.9-4.22,6.19-4.99,9.93l-1.1,5.4,4.99,2.34c6.28,2.94,13.25,4.5,20.17,4.5,7.42,0,14.56-1.7,21.22-5.04,13.05-6.56,22.21-18.54,25.14-32.88l1.1-5.4-4.99-2.34c-7.55-3.54-14.05-5.19-20.46-5.19h0Z"/>
        </g>
        <g>
          <path class="cls-10" d="M275.64,396.95c-.08-.05-7.81-4.7-11.01-6.41-8.25-4.42-15.29-11.7-19.33-19.99-5.55-11.41-5.19-21.93,1.22-35.18l1.2-2.48,2.69.59c13.37,2.91,26.6,21.18,32.24,32.75,6.33,13.01-1.76,28.69-2.11,29.35l-1.73,3.28-3.17-1.91Z"/>
          <path d="M249.67,336.89c11.68,2.54,24.2,19.3,29.83,30.87,5.63,11.57-2.06,26.19-2.06,26.19,0,0-7.85-4.72-11.16-6.49-7.23-3.87-13.97-10.51-17.83-18.44-5.63-11.57-3.98-21.37,1.22-32.12M245.77,328.88l-2.4,4.96c-4.6,9.51-8.9,22.45-1.22,38.23,4.35,8.94,11.94,16.79,20.82,21.54,3.12,1.67,10.78,6.27,10.86,6.32l6.35,3.82,3.45-6.56c.38-.72,9.26-17.92,2.16-32.51-5.11-10.49-18.92-31.22-34.64-34.64l-5.39-1.17h0Z"/>
        </g>
        <path d="M268.62,375.88c-1.35,0-2.65-.77-3.25-2.08-1.03-2.25-1.93-4.46-2.79-6.59-3.21-7.9-6.52-16.08-18.06-29.82-.1-.12-.19-.24-.27-.37-.22.5-.55.96-1,1.33-9.02,7.42-15.29,9.51-21.36,11.52-5.29,1.76-10.28,3.41-17.17,9.07-1.53,1.25-3.77,1.03-5.03-.5-1.25-1.53-1.03-3.77.5-5.03,7.91-6.5,13.78-8.44,19.46-10.32,5.7-1.89,11.07-3.68,19.07-10.25,1.52-1.26,3.77-1.03,5.03.49.09.11.17.22.25.34.21-.49.54-.94.98-1.3,1.51-1.27,3.76-1.07,5.03.44,12.26,14.61,15.95,23.71,19.21,31.73.87,2.15,1.7,4.19,2.67,6.3.82,1.79.03,3.91-1.76,4.74-.48.22-.99.33-1.49.33Z"/>
        <path class="cls-10" d="M249.62,328.8c4.94,1.53,7.75,6.65,6.27,11.41-1.48,4.77-6.69,7.39-11.63,5.86-4.94-1.53-9.1-4.98-7.62-9.74,1.48-4.77,8.04-9.06,12.98-7.53h0Z"/>
        <path class="cls-9" d="M251.74,321.98c8.77,2.72,13.6,11.89,10.98,20.35s-11.79,13.29-20.57,10.57c-8.94-2.77-15-10.06-12.33-18.68,1.21-3.89,4.33-7.71,8.32-10.12,4.25-2.57,9.3-3.45,13.6-2.11h0ZM249.62,328.8c-4.94-1.53-11.5,2.76-12.98,7.53-1.48,4.77,2.68,8.21,7.62,9.74,4.94,1.53,10.15-1.09,11.63-5.86,1.48-4.77-1.33-9.88-6.27-11.41h0Z"/>
        <g>
          <path class="cls-6" d="M444.24,194.93c-2.8-2.85-5.91-5.45-9.22-7.72-1.67-1.06-3.51-2.03-5.47-3.06-4.35-2.3-8.86-4.68-12.3-8.44-3.06-3.34-5.81-6.91-8.48-10.35-6.91-8.95-13.44-17.4-24.45-21.04-10.17-3.36-20.69-5.13-30.43-5.13h-.39c-2.74.01-5.57.08-8.31.13-3.19.07-6.5.14-9.77.14-7.88,0-17.15-.35-26.23-2.93l-.16-.05c-11.48-3.86-21.54-11.08-31.26-18.07-2.22-1.6-4.52-3.25-6.77-4.81-8.1-5.61-17.89-10.18-28.32-13.2-3.08-.89-6.17-1.33-9.45-1.33-7.6,0-14.89,2.35-22.62,4.84-4.15,1.34-8.43,2.72-12.85,3.74-1.91.44-3.97.66-6.3.66-2.92,0-5.82-.34-8.62-.66-2.19-.25-4.26-.5-6.24-.57h-.06c-2.42,0-4.87.14-7.26.42l-7.45.87,4.12-6.27c.27-.42.47-.74.63-1.04,13.68-25.59,75.62-72.04,95.65-77.73,2.14-.61,3.62-.87,4.95-.87,3.57,0,5.85,1.86,8.17,4.66,1.04,1.25,2.17,2.79,3.62,4.75,1.38,1.87,3.03,4.12,5.11,6.79,3.22-1.85,10.14-6.85,17.08-12.4l1.14-.91c10.19-8.17,27.24-21.84,42.43-21.84,7.01,0,12.82,2.86,17.27,8.49,13.69,17.33,31.39,60.95,32.27,64.1l.02.07c1.34,3.46,2.81,8.09,3.78,11.26,3.55-1.27,8.87-2.92,12.38-2.92.21,0,.41,0,.6.02,7.67.41,15.04,8.7,22.54,25.33,11.35,25.18,23.47,75.24,15.89,84.8l-2.46,3.1-2.78-2.83Z"/>
          <path d="M344.73,7c5.43,0,10.46,2.02,14.53,7.16,13.02,16.47,30.74,59.62,31.65,62.87l.03.15c2.19,5.59,4.86,14.84,4.86,14.84,0,0,9.84-4.03,14.65-4.03.14,0,.28,0,.41.01,21.1,1.14,43.86,94.39,35.88,104.47-2.95-3-6.23-5.75-9.79-8.19-5.52-3.51-12.61-6.02-17.11-10.94-10.91-11.9-17.9-26.89-34.41-32.35-10-3.3-20.99-5.31-31.53-5.31-.14,0-.27,0-.4,0-5.94.03-12.01.27-18.06.27-8.61,0-17.17-.49-25.27-2.8-13.59-4.57-25.33-14.23-37.15-22.43-8.76-6.08-19.09-10.72-29.34-13.69-3.57-1.04-7.04-1.47-10.43-1.47-12.44,0-23.89,5.8-36.25,8.67-1.79.41-3.64.57-5.51.57-4.93,0-10.06-1.06-14.79-1.23-.04,0-.08,0-.12,0-2.58,0-5.15.15-7.67.45.28-.42.55-.86.8-1.32,13.13-24.58,74.14-70.5,93.52-76.01,1.64-.47,2.91-.73,4-.73,2.07,0,3.47.97,5.47,3.4,2.16,2.61,5.02,6.88,10.2,13.42.06.03.14.04.23.04,2.48,0,15.33-9.89,20.26-13.83,9.47-7.58,26.86-21.99,41.38-21.99M344.73,0v7V0h0c-16.42,0-34.07,14.16-44.62,22.62l-1.13.9c-5.13,4.11-10.53,8.1-14.06,10.47-1.19-1.57-2.22-2.97-3.12-4.2-1.47-2-2.64-3.58-3.74-4.9-2.43-2.93-5.62-5.93-10.86-5.93-2.11,0-4.17.51-5.91,1-12.52,3.56-35.58,19.51-51.52,32.09-10.89,8.6-37.2,30.42-46.26,47.36-.11.21-.26.46-.47.77l-8.26,12.55,14.92-1.74c2.26-.26,4.56-.4,6.85-.4,1.82.07,3.8.3,5.9.54,2.9.34,5.9.69,9.02.69,2.6,0,4.92-.24,7.09-.75,4.56-1.06,8.92-2.46,13.13-3.82,7.45-2.4,14.5-4.67,21.54-4.67,2.94,0,5.72.39,8.48,1.19,10.07,2.92,19.51,7.32,27.3,12.72,2.22,1.54,4.51,3.19,6.73,4.78,9.94,7.14,20.21,14.51,32.19,18.54l.16.05.16.05c9.54,2.71,19.54,3.06,27.18,3.06,3.31,0,6.63-.07,9.85-.14,2.72-.06,5.54-.12,8.24-.13h.37c9.38,0,19.52,1.71,29.33,4.96,10,3.3,15.92,10.97,22.78,19.85,2.71,3.5,5.51,7.13,8.67,10.58,3.86,4.21,8.85,6.84,13.25,9.17,1.87.99,3.63,1.92,5.17,2.89,3.11,2.13,6.02,4.57,8.65,7.25l5.56,5.65,4.92-6.21c1.68-2.12,6.14-7.75.09-38.15-3.52-17.69-9.33-36.48-15.54-50.27-8.08-17.94-16.44-26.9-25.54-27.39-.25-.01-.51-.02-.79-.02-2.93,0-6.76.94-10.1,1.97-.84-2.62-1.81-5.53-2.74-7.93-1.23-4.01-19.04-47.73-32.86-65.22-5.08-6.42-12-9.82-20.02-9.82h0Z"/>
        </g>
        <path class="cls-7" d="M282.87,42.78c1.77.76,15.38-9.71,20.48-13.79,13.02-10.41,40.97-33.72,55.9-14.83,13.02,16.47,30.74,59.62,31.65,62.87.02.1.03.15.03.15,0,0-4.09,15.48-15.78,18.99-12.99,3.9-22.09-8.82-25.08-19.75-9.71,8.56-22.58,17.01-35.56,8.78-12.52-7.94-23.79-30.69-31.65-42.43h0Z"/>
        <g>
          <path class="cls-4" d="M446.74,192.48c.52.53,1.02,1.06,1.52,1.6,16.84,18.34,21.98,45.22,7.34,67.64-1.86,2.84-4.49,5.72-6.12,8.44.3,3.42,1.35,6.53,1.65,10.06,2.45,28.84-15.13,55.02-44.98,57.94-10.56,1.04-15.15-2.27-24.74-4.57-15.56,15.41-59.01,21.59-91.99-6.82-7.93,2.72-25.2,7.83-38.52,2.81-.48-.18-.97-.37-1.47-.56-.53-.12-1.04-.25-1.54-.37-13.82-3.39-25.17-17.38-30.17-24.11-43.27,4.76-75.59-24.91-79.71-46.42-9.21-3.54-14.86-3.41-22.99-10.24-22.96-19.3-22.64-50.83-4.3-73.22,2.24-2.74,4.87-4.71,7.05-7.36.19-3.17-.35-7.03-.28-10.42.61-26.77,20.06-46.02,44.32-51.62,2.32-.53,4.68-.94,7.07-1.22,2.57-.3,5.17-.45,7.79-.45,6.53.23,13.8,2.17,20.3.66,15.73-3.64,29.97-12.05,46.68-7.2,10.24,2.97,20.57,7.61,29.34,13.69,11.82,8.2,23.56,17.87,37.15,22.43,13.79,3.92,28.94,2.59,43.33,2.52,10.66-.05,21.81,1.96,31.93,5.31,16.52,5.46,23.51,20.44,34.41,32.35,4.51,4.92,11.6,7.43,17.12,10.94,3.56,2.43,6.84,5.18,9.79,8.19h0Z"/>
          <path d="M342.3,350.18c-.13,0-.25,0-.38,0-19.3-.09-38.14-6.96-53.28-19.39-15.92,5.17-29.04,5.89-39.01,2.13-.41-.15-.84-.32-1.28-.49-.46-.11-.9-.22-1.33-.32-10.34-2.54-20.75-10.55-30.96-23.82-19.52,1.68-38.93-3.31-54.9-14.15-13.35-9.07-23.21-21.67-26.22-33.34-1.89-.66-3.64-1.19-5.34-1.7-5.45-1.64-10.59-3.19-16.89-8.48-23.24-19.53-25.29-53.16-4.77-78.22,1.27-1.55,2.6-2.84,3.89-4.08.84-.81,1.65-1.59,2.4-2.4,0-1.21-.07-2.55-.15-3.94-.1-1.7-.2-3.47-.16-5.18.61-26.55,19.53-48.66,47.09-55.02,2.45-.56,4.96-1,7.46-1.29,2.71-.32,5.5-.47,8.21-.47,2.39.08,4.73.35,6.98.61,4.29.5,8.73,1.01,12.51.14,4.12-.96,8.27-2.29,12.27-3.58,11.3-3.64,22.99-7.41,36.2-3.57,11.15,3.23,21.66,8.14,30.37,14.18,2.29,1.59,4.58,3.23,6.87,4.88,9.28,6.66,18.87,13.55,29.3,17.08,10.6,3,22.41,2.74,33.83,2.5,2.83-.06,5.64-.12,8.42-.13.14,0,.28,0,.43,0,10.49,0,21.77,1.9,32.65,5.49,13.07,4.32,20.57,14.03,27.83,23.43,2.57,3.33,5.23,6.78,8.09,9.9,2.62,2.86,6.57,4.94,10.39,6.96,2.01,1.06,4.08,2.16,6,3.38,3.81,2.6,7.29,5.5,10.42,8.7,0,0,0,0,0,0,.54.55,1.08,1.12,1.6,1.69,19.13,20.83,22.22,49.77,7.7,72.01-.94,1.44-2.02,2.83-3.06,4.18-.85,1.1-1.67,2.16-2.36,3.16.15,1.09.38,2.19.61,3.34.36,1.75.73,3.56.9,5.56,2.74,32.28-17.97,58.84-48.19,61.8-8.19.81-13.31-.83-18.72-2.56-1.7-.54-3.43-1.1-5.37-1.62-9.01,7.86-24.11,12.65-40.1,12.65ZM289.42,323.19c.84,0,1.67.3,2.33.87,30.75,26.49,72.15,21.84,87.14,6.99.88-.87,2.14-1.22,3.34-.94,2.95.71,5.48,1.51,7.71,2.23,5.3,1.69,9.14,2.91,15.85,2.26,26.65-2.61,44.21-25.35,41.77-54.08-.13-1.58-.45-3.11-.78-4.73-.35-1.69-.7-3.43-.87-5.31-.07-.75.11-1.51.5-2.16.99-1.64,2.25-3.26,3.46-4.84,1-1.3,1.95-2.52,2.73-3.71,12.91-19.76,10.17-44.59-6.98-63.27-.47-.51-.95-1.02-1.44-1.51h0c-2.81-2.86-5.93-5.47-9.26-7.74-1.58-1-3.44-1.99-5.41-3.02-4.36-2.3-8.87-4.68-12.32-8.45-3.06-3.34-5.82-6.91-8.48-10.36-6.91-8.94-13.43-17.38-24.42-21.01-10.3-3.4-20.91-5.16-30.8-5.13-2.74.01-5.52.07-8.3.13-11.98.26-24.36.52-36.02-2.79-.05-.02-.11-.03-.16-.05-11.49-3.86-21.55-11.09-31.27-18.07-2.26-1.63-4.52-3.25-6.78-4.81-8.09-5.61-17.88-10.17-28.3-13.19-11.11-3.23-21.27.05-32.02,3.51-4.15,1.34-8.44,2.72-12.85,3.74-4.98,1.16-10.05.57-14.94,0-2.21-.26-4.3-.5-6.29-.57-2.3.01-4.83.14-7.25.42-2.24.26-4.49.65-6.69,1.16-24.7,5.7-41.01,24.63-41.55,48.22-.03,1.43.06,2.97.15,4.6.11,1.98.23,4.04.12,5.95-.05.76-.33,1.48-.81,2.06-1.2,1.46-2.48,2.69-3.72,3.89-1.19,1.15-2.32,2.23-3.32,3.46-18.27,22.31-16.66,51,3.84,68.23,5.17,4.34,9.02,5.5,14.35,7.11,2.24.67,4.78,1.44,7.62,2.53,1.15.44,2,1.45,2.23,2.66,3.96,20.72,35.47,48,75.81,43.54,1.26-.14,2.5.4,3.26,1.42,9.44,12.69,19.18,20.57,28.16,22.77.49.12.99.24,1.51.36.16.04.32.09.47.15.49.19.97.37,1.43.55,8.66,3.27,21.14,2.29,36.11-2.84.38-.13.77-.19,1.16-.19Z"/>
        </g>
        <path class="cls-2" d="M177.69,190.49c15.27,4.72,23.82,20.93,19.09,36.21-4.74,15.27-20.96,23.81-36.22,19.05-15.24-4.74-23.76-20.94-19.03-36.19,4.73-15.25,20.92-23.78,36.17-19.07"/>
        <path class="cls-2" d="M390.11,256.36c15.27,4.72,23.82,20.93,19.09,36.21-4.74,15.27-20.96,23.81-36.22,19.05-15.24-4.74-23.76-20.94-19.03-36.19,4.73-15.25,20.92-23.78,36.17-19.07"/>
        <g>
          <path class="cls-9" d="M285.78,211.75c6.57,2.03,10.89,6.99,9.63,11.06-1.26,4.07-7.62,5.73-14.2,3.7-6.58-2.03-10.89-6.99-9.63-11.06,1.26-4.07,7.62-5.73,14.2-3.69h0Z"/>
          <g>
            <g>
              <path d="M213.38,202.26c-1.68,0-3.18-1.19-3.5-2.9-.37-1.94.9-3.81,2.84-4.18l26.75-5.12-16.77-23.18c-1.16-1.6-.8-3.83.8-4.99,1.6-1.16,3.83-.8,4.99.8l20.06,27.72c.71.99.88,2.28.43,3.41-.45,1.14-1.45,1.96-2.65,2.19l-32.26,6.18c-.23.04-.45.06-.68.06Z"/>
              <path d="M245.64,196.08c-.44,0-.89-.08-1.33-.26l-32.56-13.09c-1.83-.74-2.72-2.82-1.98-4.65.74-1.83,2.82-2.72,4.65-1.98l32.56,13.09c1.83.74,2.72,2.82,1.98,4.65-.56,1.39-1.9,2.24-3.31,2.24Z"/>
            </g>
            <g>
              <path d="M352.87,245.51c-.92,0-1.84-.35-2.54-1.06l-23.1-23.35c-.86-.87-1.21-2.11-.94-3.3.27-1.19,1.13-2.16,2.28-2.57l32.23-11.51c1.85-.67,3.9.3,4.56,2.16.66,1.86-.3,3.9-2.16,4.56l-26.94,9.62,19.16,19.36c1.39,1.4,1.38,3.66-.03,5.05-.7.69-1.6,1.03-2.51,1.03Z"/>
              <path d="M364.03,229.79c-.26,0-.52-.03-.78-.09l-34.25-7.62c-1.93-.43-3.14-2.34-2.71-4.26.43-1.93,2.34-3.14,4.26-2.71l34.25,7.62c1.93.43,3.14,2.34,2.71,4.26-.37,1.66-1.85,2.8-3.48,2.8Z"/>
            </g>
          </g>
          <g>
            <path class="cls-11" d="M217.51,272.8c-1.39-3.4-3.36-8.25-3.96-11.8-2.04-12.3-1.56-25.02,2.87-36.91,1.26-3.38,4.52-7.67,8.13-5.47,9.33,5.68,17.96,11.6,28.02,16.06,18.84,8.29,38.72,13.94,59.12,16.81,7.3.97,14.59,1.02,21.82,2.06,2.14.31,3.62,2.33,3.39,4.58-1.72,16.79-14.45,35.56-28.07,43.47-.38.23-.77.45-1.15.67-15,8.63-34.33,9.15-50.21,4.3-17.9-5.47-31.24-16.78-39.97-33.76"/>
            <path class="cls-5" d="M217.51,272.8c1.57-1.62,11.27-4.51,13.88-4.92,18.03-2.84,41.58,2.24,56.21,13.02,3.28,2.42,19.64,18.3,21.24,20.69-.38.23-.77.45-1.15.67-15,8.63-34.33,9.15-50.21,4.3-17.9-5.47-31.24-16.78-39.97-33.76"/>
            <path d="M278.14,313.23c-7.2,0-14.56-1.07-21.71-3.26-18.75-5.73-32.92-17.69-42.1-35.54l-.13-.28c-1.4-3.42-3.51-8.59-4.18-12.56-2.33-14.03-1.31-27.07,3.04-38.75,1.14-3.07,3.61-6.78,7.09-7.99,2.08-.72,4.3-.47,6.25.71,2.09,1.27,4.14,2.56,6.18,3.83,7.12,4.45,13.84,8.65,21.43,12.01,18.53,8.15,38.1,13.72,58.17,16.54,3.39.45,6.91.71,10.31.95,3.76.27,7.65.55,11.52,1.11,4.04.58,6.86,4.3,6.44,8.48-1.79,17.5-14.61,37.36-29.82,46.2-.37.22-.77.45-1.17.68-9.05,5.2-19.98,7.87-31.32,7.87ZM220.76,271.3c8.27,16,20.97,26.71,37.76,31.84,16.3,4.98,34.46,3.45,47.39-3.98.37-.22.74-.43,1.11-.65,13.23-7.69,24.79-25.59,26.34-40.77.04-.37-.15-.65-.34-.68-3.62-.52-7.21-.78-11.02-1.05-3.51-.25-7.14-.52-10.76-1-20.75-2.92-40.95-8.66-60.09-17.08-8.06-3.57-15.31-8.11-22.33-12.49-2.02-1.26-4.05-2.53-6.11-3.79-.12-.07-.17-.08-.17-.08-.49.07-1.94,1.54-2.76,3.75-3.91,10.5-4.81,22.3-2.69,35.08.53,3.14,2.41,7.77,3.68,10.89Z"/>
          </g>
        </g>
      </g>
      <g>
        <g>
          <path class="cls-13" d="M405.51,280.47c-3.14,0-6.11-1.27-9.09-3.88-4.22-3.7-5.27-7.39-6.5-11.67-1.22-4.27-2.74-9.58-7.98-17.17-.37-.53-.42-1.21-.14-1.79.28-.58.85-.96,1.49-1,.85-.06,1.72-.08,2.59-.08,13.93,0,28.09,7.33,32.24,16.69,2.28,5.15,1.32,10.43-2.71,14.87-.08.08-.16.16-.25.23-3.41,2.56-6.57,3.81-9.65,3.81Z"/>
          <path class="cls-1" d="M385.87,246.65c20.19,0,39.82,15.78,28.21,28.58-2.98,2.24-5.8,3.45-8.58,3.45s-5.24-1.09-7.91-3.44c-7.78-6.82-3.55-13.1-14.19-28.52.82-.05,1.65-.08,2.47-.08M385.87,243.08h0c-.9,0-1.81.03-2.7.09-1.28.08-2.42.85-2.98,2.01-.56,1.16-.45,2.53.28,3.58,5.08,7.35,6.49,12.29,7.73,16.65,1.25,4.36,2.42,8.47,7.04,12.52,3.27,2.87,6.73,4.33,10.27,4.33s6.99-1.36,10.72-4.17c.18-.14.35-.29.5-.46,4.53-5,5.6-10.96,3.02-16.8-4.49-10.12-19.05-17.76-33.87-17.76h0Z"/>
        </g>
        <path class="cls-3" d="M405.03,263.28c2.07-1.61,6.38.22,7,2.04.62,1.82.7,3.32-1.05,4.66-1.76,1.34-7.43-1.33-7.71-4.64.27-1.08.87-1.37,1.77-2.07Z"/>
      </g>
      <path class="cls-12" d="M107.43,107.17c1.45.02,2.65.71,3.13,2.12-.33,3.18-6.81,5.64-9.19,7.6-4.43,3.64-8.62,7.85-12.47,12.11,4.99,4.7,10.36,7.54,14.17,13.12-1.1,1.93-1.73,2.71-3.14,4.45-5.36-3.42-10.29-7.45-14.7-12.02-5.98,6.54-12.1,16.9-14.58,25.53,5.59,1.64,11.57,3.64,16.97,5.89,1.31.55,2.22,1.54,2.53,2.95-.99,5.91-18.1-.98-22.2-1.95-3.53,9.55-3.11,18.86-4.36,28.72-.16,1.24-2.3,2.18-3.36,2.71-2.2-.84-2.64-3.43-3.51-5.56.41-2.17.62-6.23.78-8.64.48-7.23,1.16-12.59,3.56-19.49-4.15-1.63-26.42-4.65-14.8-12.15,3.74,1.8,12.47,3.96,16.83,5.18,2.33-4.51,4.61-10.4,7.09-14.62,2.57-4.36,6.08-8.95,8.9-13.46-3.38-2.6-13.88-8.33-14.36-12.42.42-1.64,2.36-3.06,4.06-3.05,3.14,1.09,12.3,8.07,14.44,11.11,5.81-7.09,14.93-16.46,24.23-18.13"/>
      <g>
        <g>
          <path class="cls-13" d="M488.15,312.31c-9.04,0-14.91-12.51-19.2-21.64-1.07-2.28-1.99-4.25-2.83-5.74-.33-.59-.3-1.32.08-1.88.34-.49.89-.78,1.47-.78.08,0,.17,0,.25.02.81.11,19.98,2.9,26.39,11.99,1.68,2.24,2.37,3.59,3.17,6.23.04.13.06.27.07.4.23,3.59-.08,7.99-4.59,10.22-1.6.79-3.22,1.19-4.82,1.19Z"/>
          <path class="cls-1" d="M467.68,284.05s19.14,2.69,25.18,11.25c1.54,2.05,2.16,3.18,2.92,5.71.22,3.41-.14,6.8-3.6,8.5-1.4.69-2.75,1.01-4.03,1.01-9.97,0-16.27-18.98-20.47-26.47M467.68,280.48c-1.17,0-2.28.57-2.95,1.55-.77,1.12-.83,2.58-.17,3.76.81,1.44,1.76,3.47,2.77,5.63,4.49,9.57,10.64,22.67,20.81,22.67,1.87,0,3.76-.46,5.61-1.37,6.16-3.04,5.73-9.73,5.59-11.94-.02-.27-.07-.54-.14-.8-.85-2.83-1.63-4.36-3.45-6.79-6.76-9.52-25.45-12.39-27.57-12.68-.17-.02-.33-.03-.5-.03h0Z"/>
        </g>
        <path class="cls-3" d="M491.66,299.47c.97,1.77.19,4.15-2.82,4.84-3.42.78-7.16-2.67-4.91-5.91,1.54-2.22,6.76-.69,7.73,1.08Z"/>
      </g>
      <g>
        <path class="cls-12" d="M47.24,77.08c-3.42-2.46-7.89-2.28-11.95-2.71-7,1.84-13.4,5.11-17.11,11.58-2.18,3.74-2.79,8.2-1.69,12.39,1.09,3.93,3.71,7.26,7.27,9.25,3.7,2.1,7.68,2.35,11.85,2.01,6.38-1.26,12.24-5.1,16.12-10.49,5.18-7.19,2.41-17.05-4.49-22.03ZM34.21,100.25l-.44.07c-7.09,1.2-10.56-5.89-6.46-11.08,2.36-2.94,5.76-4.87,9.49-5.37,1.74-.03,3.69.65,5.16,1.54,1.53.92,2.58,2.47,2.88,4.23,1.22,6.86-5.11,9.66-10.64,10.61Z"/>
        <path class="cls-12" d="M102.43,51.43c-3.8-2.3-9.45-2.59-13.77-2.38-4.37,1.7-9.07,3.37-12.18,6.92-10.64,12.15.06,28.65,15.57,25.05,9.92-2.31,19.51-9.67,16.69-21.03-.88-3.58-3.14-6.67-6.3-8.57ZM90.26,72.36c-3.53.39-7.5-.32-8.53-4.33-.45-1.75-.14-3.61.85-5.12,2.07-3.19,5.53-4.25,8.97-5.03,1.24-.1,2.78-.07,4.05-.08,9.2,5.97,2.42,12.48-5.33,14.56Z"/>
        <path class="cls-12" d="M147.9,26.78c-9.93,2.43-19.89,8.65-16.95,20.45.98,3.85,3.49,7.13,6.95,9.08,3.33,1.91,8.35,2.61,12.06,1.96,5.78-.93,11.01-3.25,14.54-8.14,2.2-3.07,3.08-6.89,2.43-10.61-1.48-8.84-10.63-14.02-19.02-12.74ZM148.89,50.22c-1.7.2-3.42,0-5.03-.57-3.67-1.26-5.56-4.61-3.83-8.35,1.55-3.34,5.31-4.62,8.56-5.74,3.69-.2,4.68-.03,7.73,1.78,4.33,7.54-.29,11.23-7.43,12.88Z"/>
        <path class="cls-12" d="M491.43,114.33c9.21-11.14.32-25.39-13.31-24.63-15.15.53-25.92,13.78-13.94,26.46,2.87,3.04,8.73,3.83,12.67,3.9,5.09-.08,11.31-1.78,14.58-5.73ZM476.09,98.41c1.5-.13,3.55-.02,5.09,0,4.96,2.75,4.39,4.51,4.17,9.7-2.82,2.38-4.34,2.83-7.87,3.54-10.4.92-14.11-11.15-1.39-13.25Z"/>
        <path class="cls-12" d="M507.42,165.71c-2.96-2.32-9.34-4.37-13-4.15-6,1.37-11.75,2.34-15.32,8.04-4.64,7.4-1.16,15.66,6,19.64,3.37,1.88,6.62,1.99,10.44,1.99,5.35-.29,9.52-1.95,13.17-5.91,5.16-5.58,4.76-14.88-1.29-19.61ZM496.03,182.88l-5.51-.14c-7.87-5.1-4.88-11.27,3.64-12.38,4.19-.84,7.46,1.54,9.88,4.66-1.44,5.42-2.33,7.06-8.01,7.86Z"/>
        <path class="cls-12" d="M42.83,54.46c-1.23-.72-14.55,6.29-16.42,7.32-2.76-3.35-8.45-11.63-12.57-12.15-1.9,1.03-3.35,1.75-3.98,4.06-1.1,4.03,3.85,6.98,5.96,9.68.8,1.02,1.49,2.04,2.16,3.08-4.43,1.9-9.39,3.98-13.69,6.18-5.91,3.03-5.84,7.72.92,9.87,4.76-1.66,13.31-6.31,17.76-9,5.95-3.11,32.12-11.84,19.86-19.05Z"/>
        <path class="cls-12" d="M104.02,36.52c.44-1.12.6-2.69.07-3.81-.38-.82-1.12-1.32-1.98-1.54-4.83-1.22-12.44,3.09-16.75,5.18-1.86-2.76-6.55-10.96-9.74-11.67-.3-.07-1.98-.07-2.41-.07-1.25.88-2.7,1.63-2.89,3.2-.44,3.66,4.78,8.5,6.97,11.51-3.27,1.62-17.84,6.01-17.98,9.32-.44,10.54,18.82-.05,23.06-2,4.28-1.98,20.18-6.4,21.64-10.14Z"/>
        <path class="cls-12" d="M475.16,85.63c5.4-.68,24.16-.34,23.43-7.73-.86-1.4-1.87-1.94-3.35-2.67-5.12-.1-10.25.75-15.37,1.08-.89-3.79-2.27-11.16-5.7-13.28-1.09-.68-2.4-.44-3.68-.34-8.19,1.89.03,10.77,1.61,14.55-5.46.83-10.63.35-15.96,1.09-3.6.5-5.7,6.74-1.98,8.2,5.72,2.24,15.09-.26,20.99-.9Z"/>
        <path class="cls-12" d="M164.36,15.71c1.42-1.44-.85-4.5-1.82-5.83-5.32.61-10.95,2.46-16.02,4.18-1.74-3.21-5.29-11.45-8.44-12.31-.96-.25-1.95-.37-2.94-.35-6.62,4-.31,10.16,3.3,14.2-5.07,1.99-20.64,3.63-18.27,10.2.36.98,1.14,1.75,2.12,2.11,3.09,1.16,16.73-3.04,20.45-4.27,5.88-1.58,17.22-3.47,21.63-7.92Z"/>
        <path class="cls-12" d="M514.49,148.78c-1.92-2.63-12.95.59-15.81-1.14-2.43-2.06-1.36-12.09-7.78-12.8-8.87,2.75-2.58,8.88-.48,14.54-4.51.47-15.25-.42-18.17,2.98-2.28,2.66-.86,4.61,1.6,6.38,6.66.28,11.36-.45,17.91-1.22,4.2-.26,7.43-.48,12.77-.82,2.78-.18,15.49-.34,9.95-7.92Z"/>
      </g>
      <path class="cls-12" d="M86.84,308.07c-.99,0-1.98-.41-2.68-1.21-18.44-20.98-6.48-53.1-5.97-54.45.7-1.84,2.77-2.77,4.61-2.06,1.84.7,2.77,2.77,2.06,4.61-.13.35-10.9,29.49,4.66,47.19,1.3,1.48,1.16,3.74-.32,5.04-.68.6-1.52.89-2.36.89Z"/>
      <path class="cls-12" d="M65.67,308.07c-.99,0-1.97-.41-2.67-1.2-10.63-11.97-7.09-34.87-6.93-35.84.31-1.95,2.15-3.28,4.09-2.96,1.95.31,3.27,2.15,2.96,4.09-.05.31-3.13,20.56,5.22,29.97,1.31,1.48,1.18,3.73-.3,5.04-.68.6-1.53.9-2.37.9Z"/>
      <path class="cls-12" d="M317.64,494.91c-1.34,0-2.62-.76-3.23-2.05-.84-1.78-.08-3.91,1.7-4.75h0c.29-.14,28.73-13.99,42.58-48.34.74-1.83,2.81-2.72,4.65-1.98,1.83.74,2.71,2.82,1.98,4.65-14.93,37.04-44.88,51.52-46.15,52.12-.49.23-1.01.34-1.52.34Z"/>
      <path class="cls-12" d="M339.82,508.3c-1.36,0-2.66-.78-3.26-2.11-.81-1.79-.01-3.9,1.78-4.72.23-.11,14.32-6.84,29.91-30.21,1.1-1.64,3.31-2.08,4.95-.99,1.64,1.09,2.08,3.31.99,4.95-16.91,25.34-32.26,32.46-32.9,32.75-.48.21-.97.32-1.46.32Z"/>
    </g>
  </g>
</svg>