<?xml version="1.0" encoding="UTF-8"?>
<svg id="Layer_2" data-name="Layer 2" xmlns="http://www.w3.org/2000/svg" viewBox="0 0 403.25 533.77">
  <defs>
    <style>
      .cls-1, .cls-2 {
        fill: #f89c87;
      }

      .cls-3 {
        fill: #42944b;
      }

      .cls-3, .cls-4, .cls-5, .cls-6, .cls-7, .cls-8, .cls-9, .cls-10, .cls-2 {
        fill-rule: evenodd;
      }

      .cls-4 {
        fill: #fff;
        stroke-width: 7px;
      }

      .cls-4, .cls-11 {
        stroke: #000;
        stroke-linejoin: round;
      }

      .cls-5 {
        fill: #8dd164;
      }

      .cls-6 {
        fill: #8ed165;
      }

      .cls-7 {
        fill: #b95858;
      }

      .cls-11 {
        fill: none;
        stroke-linecap: round;
        stroke-width: 6px;
      }

      .cls-9 {
        fill: #131211;
      }

      .cls-12 {
        fill: #fefefe;
      }

      .cls-10 {
        fill: #47914a;
      }
    </style>
  </defs>
  <g id="Layer_1-2" data-name="Layer 1">
    <g>
      <g>
        <path class="cls-12" d="M282.41,530.27c-15.29,0-31.59-3.06-37.43-6.99-9.15-4.62-9.48-13.34-9.74-20.37-.26-6.92-.66-11.28-5.41-13.65-2.64-1.32-5.98-1.99-9.92-1.99-3.71,0-7.95.59-12.6,1.75-7.11,1.77-8.59,6.1-10.58,13.61-.92,3.48-1.97,7.41-4.03,11.07-5.38,12.12-23.74,16.45-39.2,16.45-12.52,0-28.55-2.98-36.04-11.35-3.36-3.64-3.97-9.19-1.43-13.46.68-1.15,1.4-2.12,2.1-3.06,1-1.35,1.88-2.54,2.57-4.12-5.34-31.69-.07-63.68,5.02-94.63l.64-3.89.13-.74c.11-.61.28-1.52.31-2.15-.71,1.33-1.27,4.41-1.48,5.52-.15.79-.27,1.48-.42,2.06-2.44,9.99-3.71,20.25-4.8,29.91-.95,8.4-5.51,11.3-10.79,14.67l-1.15.73c-5.31,4.06-12.05,6.3-19.02,6.3-11.78,0-24.15-6.77-25.26-21.89-1.62-18.5,20.76-43.31,38.74-63.25,5.34-5.92,10.39-11.52,13.76-15.87.43-.56,1.03-.97,1.7-1.19l190.99-61.14c.35-.11.71-.17,1.07-.17.62,0,1.24.16,1.78.49.86.51,1.46,1.36,1.65,2.34l12.58,64.18c.34,1.75-.68,3.47-2.38,4.01-.35.11-.71.17-1.06.17-.44,0-.87-.08-1.26-.24,1.45,42.18,2.5,93.06-11.04,138.32,4.84,6.76,6.08,12.68,3.67,17.62-4.43,9.07-19.66,10.98-31.66,10.98Z"/>
        <path d="M310.13,295.92l12.57,64.18c-.83-1.86-1.91-3.54-3.59-3.54-.43,0-.9.11-1.41.36,1.67,47.35,3.16,98.95-11.18,145.44,14.54,18.65-3.82,24.42-24.13,24.42-14.92,0-30.9-3.11-35.65-6.51-14.78-7.21-1.47-27.17-15.37-34.13-3.43-1.72-7.42-2.36-11.49-2.36-4.62,0-9.34.83-13.45,1.85-14.08,3.5-11.1,16.41-16.9,26.5-4.23,9.85-20.18,14.52-36.06,14.52-13.75,0-27.46-3.51-33.43-10.19-2.36-2.55-2.8-6.36-1.03-9.35,1.68-2.84,3.9-4.77,5.27-8.6-5.74-32.73.19-65.94,5.5-98.33.57-3.28,1.56-6.77-3.14-7.29-3.87,0-4.49,7.92-5.16,10.57-2.44,9.96-3.74,20.18-4.89,30.37-.82,7.29-4.72,9.21-10.48,12.93-4.85,3.76-11.02,5.67-17,5.67-10.72,0-20.85-6.12-21.77-18.65-1.97-22.53,37.62-58.46,51.77-76.73l190.99-61.14M310.13,288.92c-.72,0-1.44.11-2.13.33l-190.99,61.14c-1.35.43-2.53,1.26-3.4,2.38-3.29,4.25-8.3,9.8-13.59,15.67-18.42,20.42-41.34,45.84-39.62,65.9,1.1,14.78,12.92,25.09,28.75,25.09,7.68,0,15.14-2.46,21.04-6.93.35-.22.68-.44,1.02-.65,1.61-1.02,3.23-2.06,4.75-3.26-1.41,16.25-1.52,32.64,1.12,49.02-.47.85-1.04,1.62-1.75,2.57-.72.97-1.53,2.06-2.3,3.36-3.3,5.58-2.53,12.81,1.87,17.62,7.02,7.82,21.45,12.48,38.61,12.48s36.19-4.84,42.33-18.38c2.23-4,3.32-8.11,4.28-11.75,1.92-7.25,2.85-9.82,8.04-11.11,4.38-1.09,8.34-1.64,11.76-1.64,3.4,0,6.21.54,8.36,1.62,2.74,1.37,3.2,3.5,3.47,10.65.27,7.07.67,17.69,11.48,23.26,7.45,4.85,25.57,7.46,39.2,7.46,18.9,0,30.61-4.35,34.81-12.94,2.84-5.81,1.83-12.44-2.98-19.76,12.84-44.14,12.2-93.14,10.83-134.38,3.25-1.16,5.19-4.53,4.52-7.94l-12.57-64.18c-.38-1.96-1.59-3.66-3.31-4.68-1.09-.64-2.32-.97-3.56-.97h0Z"/>
      </g>
      <g>
        <path class="cls-3" d="M213.23,48.62c4.79,3.87,11.86,10.76,11.86,10.76,0,0,7.12-9.1,11.38-11.23,19.38-9.69,86.98,61.85,84.98,74.87-4.15-1.18-8.47-1.97-12.88-2.33-6.7-.33-14.29,1.03-20.8-1.06-15.76-5.07-29.59-14.88-47.08-11.36-10.72,2.16-21.67,6.02-31.15,11.47-12.78,7.36-25.61,16.24-39.88,19.74-14.43,2.83-29.79.17-44.49-1.14-10.89-.97-22.45.14-33.08,2.69-17.34,4.16-25.77,18.87-37.94,30.1-5.03,4.64-12.49,6.6-18.43,9.71-2.34,1.33-4.58,2.78-6.72,4.35.03-.52.05-1.05.04-1.58-.77-28.57,30.28-100.44,44.75-115.18,3.57-3.63,5.19-4.17,9.79-2.43,3.24,1.22,7.97,3.58,15.9,6.78,1.96-.22,8.78-16.46,11.25-22.68,6.32-15.89,19.39-50.84,42.29-41.58,19.96,8.07,57.64,37.53,60.1,39.96l.11.12h0Z"/>
        <g>
          <g>
            <path class="cls-10" d="M180.86,375.88c-47.33,0-66.38-26.02-67.17-27.13-.67-.95-.83-2.16-.43-3.25.41-1.09,1.33-1.9,2.45-2.18l189.1-45.91c.27-.07.55-.1.83-.1.91,0,1.8.35,2.46,1.01.86.85,1.22,2.09.95,3.27-.12.51-3,12.68-15.47,27.27-11.32,13.25-33.14,31.21-72.8,41.52-14.03,3.65-27.47,5.5-39.93,5.5Z"/>
            <path d="M305.65,300.82s-10.68,46.68-85.74,66.18c-14.78,3.84-27.75,5.38-39.05,5.38-46.07,0-64.32-25.65-64.32-25.65l189.1-45.91M305.65,293.82c-.55,0-1.1.06-1.65.2l-189.1,45.91c-2.26.55-4.09,2.18-4.91,4.35-.81,2.18-.49,4.61.85,6.5.83,1.17,20.91,28.6,70.02,28.6,12.76,0,26.49-1.89,40.81-5.61,40.54-10.54,62.93-29,74.58-42.64,13.02-15.24,16.1-28.22,16.22-28.76.54-2.36-.18-4.84-1.91-6.54-1.33-1.31-3.1-2.02-4.92-2.02h0Z"/>
          </g>
          <path class="cls-10" d="M305.65,300.82s-10.68,46.68-85.74,66.18c-75.06,19.51-103.36-20.27-103.36-20.27l189.1-45.91h0Z"/>
          <path class="cls-6" d="M137.2,341.71s-3.05,23.21,46.07,18.86c49.12-4.35,80.92-28.45,95.81-46.46,3.46-4.18-2.34-4.93-13.28-3.62l-128.59,31.22h0Z"/>
          <path d="M211.35,355.42c3.81,11.64,2.44,24.86-4.87,35.84-7.31,10.98-18.98,17.34-31.19,18.31-1.2-3.66.11-9.39-.04-13.24-.33-8.4,2.05-17.81,7.06-25.34,7.31-10.98,16.83-14.6,29.05-15.57M211.35,348.42c-.19,0-.37,0-.56.02-10.76.86-24.38,3.76-34.32,18.67-5.63,8.46-8.63,19.2-8.23,29.49.04.96-.08,2.36-.2,3.84-.29,3.57-.62,7.62.58,11.31.95,2.9,3.65,4.82,6.65,4.82.19,0,.37,0,.56-.02,14.9-1.19,28.19-8.99,36.46-21.41,8.27-12.42,10.35-27.69,5.7-41.9-.95-2.89-3.65-4.82-6.65-4.82h0Z"/>
          <path d="M225.49,350.83c11.58,0,26.81,7.01,35.9,13.24,10.89,7.45,11.45,24.38,11.45,24.38,0,0-6.22-.15-10.61-.15-1,0-1.91,0-2.63.03-.34,0-.69.01-1.04.01-8.13,0-17.05-2.49-24.21-7.39-10.89-7.45-14.39-17.01-15.21-29.24,1.92-.6,4.06-.87,6.34-.87M225.49,343.83h0c-3.07,0-5.9.4-8.43,1.19-3.09.97-5.11,3.92-4.89,7.15.72,10.77,3.45,24.43,18.24,34.55,8,5.48,18.27,8.62,28.16,8.62.41,0,.82,0,1.22-.02.61-.02,1.43-.02,2.44-.02,4.26,0,10.39.14,10.45.15.06,0,.11,0,.17,0,1.87,0,3.66-.75,4.97-2.07,1.36-1.37,2.09-3.23,2.02-5.16-.03-.84-.84-20.58-14.49-29.92-10.52-7.2-26.92-14.46-39.86-14.46h0Z"/>
          <path class="cls-10" d="M175.28,409.58c-1.2-3.66.11-9.39-.04-13.24-.33-8.4,2.05-17.81,7.06-25.34,7.31-10.98,16.83-14.6,29.05-15.57,3.81,11.64,2.44,24.86-4.87,35.84-7.31,10.98-18.98,17.34-31.19,18.31h0Z"/>
          <path class="cls-10" d="M272.84,388.44s-9.39-.22-13.24-.12c-8.41.22-17.78-2.27-25.25-7.38-10.89-7.45-14.39-17.01-15.21-29.24,11.69-3.66,31.36,4.91,42.24,12.36,10.89,7.45,11.45,24.38,11.45,24.38h0Z"/>
          <path d="M186.85,396.5c-.44,0-.88-.08-1.31-.24-1.89-.72-2.83-2.84-2.11-4.73,3.76-9.8,8-14.51,12.1-19.07,4.12-4.57,8-8.9,11.79-18.81.72-1.89,2.84-2.84,4.73-2.12.14.05.27.11.4.18-.06-.54,0-1.11.21-1.65.7-1.9,2.81-2.86,4.71-2.16,18.34,6.79,26.24,13.03,33.21,18.52,1.87,1.48,3.64,2.87,5.57,4.26,1.64,1.18,2.02,3.47.84,5.11-1.18,1.64-3.47,2.02-5.11.84-2.07-1.49-3.98-3-5.83-4.46-6.87-5.42-13.97-11.01-31.22-17.41-.15-.05-.29-.12-.43-.19.06.55,0,1.13-.22,1.69-4.27,11.19-8.8,16.23-13.18,21.1-3.82,4.25-7.43,8.26-10.7,16.79-.56,1.46-1.95,2.35-3.42,2.35Z"/>
          <path class="cls-10" d="M215,344.51c5.18-1.14,10.28,1.99,11.38,6.98,1.1,5-2.21,9.98-7.39,11.12-5.18,1.14-10.64.18-11.74-4.81-1.1-5,2.56-12.15,7.75-13.29h0Z"/>
          <path class="cls-8" d="M213.42,337.36c9.2-2.03,18.15,3.69,20.11,12.56,1.96,8.87-3.77,17.82-12.96,19.85-9.37,2.07-18.47-1.35-20.47-10.39-.9-4.08-.05-9.07,2.27-13.24,2.48-4.45,6.54-7.79,11.05-8.79h0ZM215,344.51c-5.18,1.14-8.85,8.3-7.75,13.29,1.1,5,6.56,5.95,11.74,4.81,5.18-1.14,8.49-6.13,7.39-11.12-1.1-5-6.2-8.13-11.38-6.98h0Z"/>
        </g>
        <path d="M145.57,7c2.36,0,4.84.48,7.45,1.54,19.96,8.07,57.64,37.53,60.1,39.96l.11.12c4.79,3.87,11.86,10.76,11.86,10.76,0,0,7.12-9.1,11.38-11.23,1.22-.61,2.64-.9,4.21-.9,23.41,0,82.64,63.57,80.76,75.77-4.15-1.18-8.47-1.97-12.88-2.33-.79-.04-1.6-.05-2.41-.05-2.88,0-5.88.19-8.85.19-3.28,0-6.53-.23-9.54-1.2-13.45-4.33-25.5-12.1-39.6-12.1-2.42,0-4.91.23-7.47.75-10.72,2.16-21.67,6.02-31.15,11.47-12.78,7.36-25.61,16.24-39.88,19.74-4.65.91-9.41,1.25-14.2,1.25-10.07,0-20.33-1.5-30.29-2.39-2.64-.23-5.32-.35-8.01-.35-8.43,0-17.02,1.1-25.07,3.04-17.34,4.16-25.77,18.87-37.94,30.1-5.03,4.64-12.49,6.6-18.43,9.71-2.34,1.33-4.58,2.78-6.72,4.35.03-.52.05-1.05.04-1.58-.77-28.57,30.28-100.44,44.75-115.18,2.29-2.33,3.78-3.39,5.76-3.39,1.11,0,2.38.33,4.02.95,3.24,1.22,7.97,3.58,15.9,6.78,1.96-.22,8.78-16.46,11.25-22.68,5.6-14.07,16.5-43.11,34.83-43.11M145.57,0c-22.51,0-34.4,30.02-40.79,46.15l-.55,1.38c-2.53,6.35-5.34,12.73-7.3,16.63-1.91-.82-3.58-1.56-5.06-2.22-2.33-1.04-4.17-1.85-5.83-2.48-1.73-.65-4.03-1.4-6.5-1.4-4.96,0-8.16,2.83-10.76,5.48-9.33,9.51-21.77,35.4-29.58,54.68-5.34,13.18-17.7,45.94-17.17,65.59,0,.25,0,.55-.03.95l-.95,14.97,12.09-8.89c1.89-1.39,3.88-2.68,5.92-3.84,1.66-.86,3.55-1.67,5.55-2.52,4.69-1.99,10-4.25,14.27-8.2,3.52-3.25,6.69-6.71,9.75-10.05,7.79-8.51,14.52-15.86,25.07-18.39,7.75-1.86,15.86-2.84,23.44-2.84,2.52,0,5,.11,7.39.32,2.77.25,5.64.55,8.42.84,7.33.77,14.9,1.57,22.48,1.57,5.71,0,10.8-.45,15.55-1.38l.16-.03.16-.04c12.56-3.08,23.67-9.73,34.43-16.17,2.4-1.43,4.88-2.92,7.28-4.3,8.44-4.86,18.48-8.55,29.03-10.68,2.03-.41,4.03-.61,6.09-.61,8.22,0,16.07,3.28,24.39,6.75,4.19,1.75,8.52,3.55,13.07,5.02,4.23,1.36,8.47,1.54,11.68,1.54,1.61,0,3.19-.05,4.72-.1,1.45-.05,2.82-.09,4.14-.09.72,0,1.36.01,1.96.04,3.87.32,7.71,1.02,11.42,2.07l7.62,2.16,1.2-7.83c.41-2.66,1.5-9.74-18.48-33.02-15.08-17.58-48.95-50.81-69.2-50.81-2.7,0-5.17.55-7.35,1.64-2.85,1.43-6.11,4.47-8.79,7.35-2.1-1.94-4.5-4.08-6.58-5.79-3.07-2.9-41.14-32.84-62.33-41.4-3.36-1.36-6.75-2.05-10.08-2.05h0Z"/>
        <path class="cls-3" d="M213.23,48.62c4.79,3.87,11.86,10.76,11.86,10.76,0,0,7.12-9.1,11.38-11.23,19.38-9.69,86.98,61.85,84.98,74.87-4.15-1.18-8.47-1.97-12.88-2.33-6.7-.33-14.29,1.03-20.8-1.06-15.76-5.07-29.59-14.88-47.08-11.36-10.72,2.16-21.67,6.02-31.15,11.47-12.78,7.36-25.61,16.24-39.88,19.74-14.43,2.83-29.79.17-44.49-1.14-10.89-.97-22.45.14-33.08,2.69-17.34,4.16-25.77,18.87-37.94,30.1-5.03,4.64-12.49,6.6-18.43,9.71-2.34,1.33-4.58,2.78-6.72,4.35.03-.52.05-1.05.04-1.58-.77-28.57,30.28-100.44,44.75-115.18,3.57-3.63,5.19-4.17,9.79-2.43,3.24,1.22,7.97,3.58,15.9,6.78,1.96-.22,8.78-16.46,11.25-22.68,6.32-15.89,19.39-50.84,42.29-41.58,19.96,8.07,57.64,37.53,60.1,39.96l.11.12h0Z"/>
        <path class="cls-5" d="M99.48,72.8c1.96-.22,8.78-16.46,11.25-22.68,6.32-15.89,19.39-50.84,42.29-41.58,19.96,8.07,57.64,37.53,60.1,39.96.07.08.11.12.11.12,0,0,4.2,15.87-4.43,24.93-9.59,10.07-24.16,3.35-32.36-4.87-4.31,12.55-11.48,26.61-27.23,25.87-15.19-.72-36.76-15.27-49.73-21.75h0Z"/>
        <path class="cls-4" d="M321.45,123.03c.73.21,1.45.42,2.17.66,24.31,7.8,42.53,29.14,40.86,56.54-.21,3.48-1.1,7.37-1.17,10.63,2,2.89,4.52,5.13,6.57,8.13,16.82,24.45,14.44,56.7-10.67,74.45-8.89,6.28-14.65,5.66-24.36,8.49-6.05,21.63-41.62,49.18-85.42,40.6-5.69,6.44-18.48,19.77-32.9,22.05-.51.08-1.05.16-1.6.24-.54.16-1.06.31-1.56.45-14.04,3.99-31.25-2.71-39.12-6.17-36.13,26.2-79.99,16.16-94.58-.92-10,1.52-14.97,4.51-25.67,2.54-30.25-5.54-45.97-33.8-40.99-63.06.61-3.58,1.95-6.67,2.55-10.14-1.44-2.92-3.88-6.08-5.53-9.15-13.04-24.16-5.48-51.18,13.3-68.48,1.79-1.65,3.69-3.22,5.68-4.68,2.13-1.57,4.38-3.03,6.72-4.35,5.94-3.11,13.4-5.07,18.43-9.71,12.16-11.23,20.59-25.94,37.94-30.1,10.63-2.55,22.19-3.66,33.08-2.69,14.7,1.31,30.06,3.96,44.49,1.14,14.28-3.5,27.1-12.37,39.88-19.74,9.47-5.46,20.43-9.32,31.15-11.47,17.48-3.52,31.32,6.29,47.08,11.36,6.51,2.1,14.11.74,20.8,1.06,4.41.36,8.73,1.15,12.88,2.33h0Z"/>
        <path class="cls-1" d="M87.48,256.29c16-3.55,31.85,6.56,35.38,22.57,3.53,16.01-6.59,31.85-22.61,35.36-15.99,3.51-31.8-6.6-35.32-22.58-3.52-15.99,6.57-31.8,22.55-35.35"/>
        <path class="cls-1" d="M293.27,210.92c16-3.55,31.85,6.57,35.38,22.57,3.53,16.01-6.59,31.85-22.61,35.36-15.99,3.51-31.8-6.6-35.32-22.58-3.52-15.99,6.57-31.8,22.55-35.35"/>
        <path class="cls-9" d="M133.05,219.57c8.48-1.87,16.88,3.5,18.75,11.97s-3.5,16.88-11.97,18.75c-8.48,1.87-16.88-3.5-18.75-11.97-1.87-8.48,3.5-16.88,11.97-18.75h0Z"/>
        <path class="cls-9" d="M237.32,196.58c8.48-1.87,16.88,3.5,18.75,11.97,1.87,8.48-3.5,16.88-11.97,18.75-8.48,1.87-16.88-3.5-18.75-11.97-1.87-8.48,3.5-16.88,11.97-18.75h0Z"/>
        <path class="cls-9" d="M191.51,228.25c6.43-1.42,12.36.66,13.24,4.65.88,3.98-3.63,8.37-10.06,9.78-6.43,1.42-12.36-.66-13.24-4.65-.88-3.98,3.63-8.37,10.06-9.78h0Z"/>
        <path class="cls-7" d="M169.9,266.75c7.56.59,17.9-.91,26.48-10.54,0,0,12,7.63,28.25-3.19,0,0,1.82,11.98,1.16,22.14-17.24-.64-33.56,2.89-48.96,10.61-4.61-8.93-6.94-19.01-6.94-19.01h0Z"/>
        <path class="cls-2" d="M176.84,285.76c15.4-7.72,31.72-11.24,48.96-10.61-.79,12.25-4.93,26.47-19.34,29.64-14.49,3.19-23.99-8.16-29.61-19.04h0Z"/>
        <path class="cls-11" d="M159.37,264.36s21.39,9.35,37.02-8.16c0,0,14.77,9.39,33.73-7.44M169.9,266.75s2.33,10.09,6.94,19.01M176.84,285.76c5.62,10.88,15.13,22.23,29.61,19.04,14.41-3.18,18.55-17.4,19.34-29.64M225.8,275.15c.66-10.16-1.16-22.14-1.16-22.14"/>
      </g>
      <g>
        <path d="M370.62,190.77c-1.09,0-2.29.06-3.4.14-10.79,2.78-15.98,9.57-20.17,15.25-6.88-3.86-16.53-.04-19.42,4.87-4.2,6.19-2.31,13.67-.64,20.26.66,2.62,1.9,7.5,1.43,8.93-8.14,23.36-18.22,59-31.51,75.85,4.5,15.46,23.07,57.67,23.07,57.67,40.15-32.12,70.96-78.51,81.24-126.03,5.98-21.89-.3-57.06-30.59-56.94ZM392.89,245.74c-9.76,44.1-36.2,85.07-70.18,114.35-1.05-2.34-2.49-4.39-4.99-3.18-1.61-5.48-4.32-14.78-6.85-23.44-1.77-6.08-3.46-11.85-4.59-15.76,11.65-15.94,23.86-56.16,30.23-74.77,3.29-9.76-10.39-27.99,3.42-29.8.21-.03.42-.04.63-.04,3.89,0,6.92,4.64,7.66,4.64,7.72-7.09,9.3-15.18,20.47-18.36.66-.04,1.3-.06,1.93-.06,23.48,0,26.84,28.39,22.27,46.43Z"/>
        <path class="cls-12" d="M370.62,199.32c-.63,0-1.27.02-1.93.06-11.17,3.18-12.76,11.27-20.47,18.36-.66-.03-4.47-5.27-8.29-4.6-13.8,1.81-.13,20.04-3.42,29.8-6.37,18.61-18.58,58.83-30.23,74.77-2.66,3.35-2.34,4.7-7.23,10.66,2.74,9.39,15.54,40.11,19.31,48.3-.09-12.4-1.8-18.15-.64-19.76,2.51-1.21,3.95.85,4.99,3.18,33.98-29.28,60.42-70.26,70.18-114.35,4.57-18.03,1.21-46.42-22.27-46.43Z"/>
      </g>
    </g>
  </g>
</svg>