<?xml version="1.0" encoding="UTF-8"?>
<svg id="Layer_2" data-name="Layer 2" xmlns="http://www.w3.org/2000/svg" viewBox="0 0 526.92 683.06">
  <defs>
    <style>
      .cls-1 {
        fill: #0c0b0b;
      }

      .cls-2 {
        fill: #828f93;
      }

      .cls-3 {
        fill: #8b6851;
      }

      .cls-4 {
        fill: #636263;
      }

      .cls-5 {
        fill: #4a934c;
      }

      .cls-6 {
        fill: #4d3222;
      }

      .cls-7 {
        fill: #47914a;
      }

      .cls-8 {
        fill: #f4bab1;
      }

      .cls-9 {
        fill: #f5a73e;
      }

      .cls-10 {
        fill: #d0b1a3;
      }

      .cls-11 {
        fill: #d7cdc9;
      }

      .cls-12 {
        fill: #a8492a;
      }

      .cls-13 {
        fill: #feffff;
      }
    </style>
  </defs>
  <g id="Layer_1-2" data-name="Layer 1">
    <g>
      <g>
        <polygon class="cls-4" points="222.4 619.14 262.88 606.13 255.29 600.2 235.33 598.91 261.28 585.33 280.17 595.53 291.86 598.86 372.38 594.33 429.89 585.33 432.36 591.37 379.38 612.99 417.55 630.33 353.5 628.86 332.67 636.36 286.27 628 259.06 636.36 254.34 630.64 222.4 619.14"/>
        <path class="cls-1" d="M428.99,588.99c-2.63-4.25-7.81-7.19-5.58-12.69,3.77-1.83,9.42-2.49,13.65-2.95,11.15-1.22,22.09-3.29,33.16-5.02,2.83-.45,7.15-.58,6.2,3.68-1.57,1.98-3.94,2.43-6.3,2.99-12.58,2.96-25.78,4.17-38.38,6.85,7.99,16.66,18.85,13.88,33.96,19.5,5.58,1.81,12.91-1.11,18.42-2.21,7.57-.97,31.74-10.31,36.7-5.53-.41,8.82-46.69,15.69-52.87,16.11-10.77-1.88-24.6-6.9-35.26-9.24-6.83-1.15-45.17,9.57-52.17,13.65-5.75,2.61-8.7-5.85-3.49-7.71,11.98-4.27,24.56-7.55,36.8-10.98,4.44-1.24,10.79-1.96,14.82-3.58.58-.77.38-1.82.35-2.87"/>
        <path class="cls-1" d="M253.98,602.63c-15.31-.27-43.06-1.85-58.83-2.12-4.01-.7-18.1,1.21-19.66-2.63-3.36-6.3,15.97-10.82,17.37-15.06-3.41-3.56-33.47-3.09-30.99-11.19,2.53-2.51,30.36,4.71,35.33,5.25,2.55.28,7.97,2.29,8.32,5.4-1.49,5.27-14.15,6.94-13.55,10.7,1.67.94,41.97,1.44,47.02,1.54,8.81.75,24.79,1.01,25.99,12.86-2.17,5.24-8.76-2.71-11.01-4.76"/>
        <path class="cls-1" d="M441.98,663.62c-11.53-3.64-23.05-6.7-34.34-10.72,2.32-3.07,4.8-6.08,7.14-9.14,7.47-9.75,12.84-9.45,1.32-14-7.61.46-56.93-5-71.21-3.72-4.81,1.29-9.63,3.25-16.49,3.13-1.49.19-3.55-.42-4.91.69.68,2.49,1.47,5.45,1.01,7.8,3.8.21,12.88,4.27,16.07,6.58-13.49,15.22-9.33,14.39,7.41,20.57-3.55,1.81-24.47,12.14-25.41,14.65-1.41,3.73,3.31,4.27,5.75,2.97,9.89-5.31,21.14-9.83,29.51-17.43-1.43-3.28-12.66-8.05-16.61-10.8,2.41-4.5,10.05-10.72,9.47-13.49-2.33-3.01-7.98-2.53-9.77-4.58,3.94-1.59,8.82-2.84,12.73-4.94,18.15,3.13,36.19,6.38,54.65,6.98-2.75,4.53-18.27,16.98-8.39,20.42,4.92,1.07,43.27,13.19,47.23,13,6.69-4.84-3.57-7.47-5.15-7.97Z"/>
        <path class="cls-1" d="M290.58,629.68c-1.56-1.52-3.65-2.6-5.63-3.55.84.48-2.23-.09,0,0-1.02-.23-2.06-.36-2.98-.74-4.98,2.5-14.49,5.63-19.74,6.55-6.41-9.6-26.4-8.31-35.81-15.01h0c-9.63-3.07-16.48-6.45-25.95-1.29-10.81,5.79-20.92,12.1-31.93,17.75-21.47-7.41-28.41-17.78-52.1-7.9-6.55,1.83-14.02,4.87-20.69,6.84-1.65.49-1.77,1.77-1.47,3.31,3.43,3.74,12.27-2.01,16.86-2.47,7.84-2.15,15.72-4.12,23.64-5.93,11.13,4.42,22.91,9.82,33.9,13.9,14.58-5.26,28.73-13.22,42.74-19.75,12.72,5.37,27.24,6.87,39.57,12.45-2.19,3.72-39.56,6.81-25.37,16.03,3.06,1.99,13.42,4.9,17.69,6.81-23.15,7.2-46.87,13.55-70.32,19.65-5.71.8-8.24,6.3-1.46,6.59,1.33.06,7.51-1.93,9.37-2.44,13.78-4.15,65.16-14.58,74.37-21.01.57-8.15-10.44-9.95-16.41-12.54,16.78-5.42,33.75-10.92,50.49-16.38.41.24.83.45,1.25.68-.03-.51-.03-1.03,0-1.55Z"/>
        <path class="cls-1" d="M501.51,593.24c-7.12,1.55-14.17,3.54-21.27,5.19-5.35,1.08-12.46,3.94-17.87,2.16-7.13-2.4-14.53-4.09-21.68-6.37-4.75-1.51-8.85-8.49-11.28-12.69,12.23-2.62,25.03-3.8,37.24-6.69,2.28-.54,4.59-.99,6.11-2.92.93-4.17-3.26-4.03-6.01-3.6-10.74,1.68-21.36,3.71-32.18,4.9-4.1.45-9.58,1.1-13.24,2.89-2.1,5.23,2.58,8.06,5.19,12.06l.22.34h0c.01.39.05.77.05,1.14.02.62-.04,1.19-.39,1.66-.49.2-1.01.38-1.56.56-.55.17-1.13.34-1.73.49-3.58.92-7.86,1.55-11.09,2.46-8.91,2.51-18.01,4.95-26.9,7.77-2.96.94-5.91,1.92-8.81,2.97-.63.23-1.14.55-1.53.95-.99.99-1.26,2.39-.99,3.69.49,2.34,2.77,4.33,5.91,2.89,0,0,0,0,0,0,6.8-3.99,44-14.47,50.63-13.35,3.18.54,6.35,1.7,9.45,2.57l15.55,4.24c3.1.86,5.99,1.97,9.22,2.22,6.39.5,38.31-7.41,45.16-9.96,1.56-.58,3.14-1.48,4.38-2.61.99-.91,1.71-1.8,1.77-3.17-2.03-3-11.25-.45-14.34.21Z"/>
      </g>
      <g>
        <g>
          <path class="cls-13" d="M401.42,549.88c4.29-10.73,4.88-19.83,5.3-32.48l.12-3.59,3.58.21c1.29.08,2.66.2,4.07.38,5.23.72,9.38,3.98,11.73,9.19,2.97,6.58,2.45,15.07-1.25,20.64-2.15,3.24-3.51,4.5-6.5,6.63l-.15.11-.16.09c-5.38,3.06-7.4,3.6-13.49,3.62l-5.19.02,1.92-4.82Z"/>
          <path d="M410.22,517.51c1.28.07,2.56.2,3.83.36,10.72,1.49,13.11,16.73,8.01,24.42-1.86,2.79-2.9,3.78-5.62,5.72-4.82,2.74-6.27,3.15-11.77,3.16,4.64-11.62,5.15-21.52,5.55-33.67M403.46,510.11l-.24,7.17c-.42,12.65-.97,21.08-5.05,31.3l-3.85,9.63,10.37-.04c6.65-.02,9.34-.75,15.2-4.08l.32-.18.3-.21c3.18-2.27,4.9-3.82,7.37-7.54,4.33-6.53,4.96-16.4,1.53-24.02-2.82-6.25-8.06-10.33-14.4-11.21h-.04s-.04,0-.04,0c-1.48-.19-2.93-.33-4.31-.41l-7.17-.42h0Z"/>
        </g>
        <g>
          <path class="cls-7" d="M413.35,510.53c-1.82-.04-3.31-1.46-3.42-3.27-.67-10.31-6.06-29.49-9.69-39.38-.54-1.47-.04-3.12,1.23-4.04.46-.33.98-.54,1.52-.62-4.57-4.14-9.96-8.31-13.25-10.24-8.37-4.94-17.12-7.34-26.75-7.34s-20.22,2.46-32.42,7.51c-.43.18-.88.27-1.34.27-.43,0-.86-.08-1.26-.24-3.26-.98-34.77-2.91-57.77-4.33-32.78-2.01-47.6-3-50.55-3.85-4.99-1.4-6.36-7.66-7.68-13.72-.55-2.53-1.56-7.17-2.58-8.13-1.71-.21-3.02-1.63-3.07-3.37-.05-1.8,1.27-3.35,3.06-3.57.45-.06.97-.09,1.59-.09,6.2,0,23.92,3.08,44.44,6.64,24,4.17,51.2,8.89,61.75,8.89,2.17,0,2.8-.21,2.83-.22,2.14-.84,4.04-1.24,5.99-1.24,2.43,0,4.62.63,7.16,1.35l.28.08c5.1,1.46,11.04,3.11,17.18,4.32,5.68.62,9.91.9,13.67.9,8.84,0,16.22-1.58,24.67-5.29l.97-.42c3.04-1.33,5.92-2.58,8.37-4.54.62-.5,1.41-.77,2.2-.77,1.59,0,2.57,1.02,3.03,1.52,3.38,3.56,26.83,34.3,25.64,57.43-.25,4.91-4.11,12.24-5.76,15.17-5.96,10.6-8.65,10.6-9.95,10.6-.02,0-.06,0-.08,0Z"/>
          <path d="M210.95,419.61c13.12,0,86.48,15.53,106.19,15.53,1.9,0,3.3-.14,4.1-.46,1.81-.71,3.29-1,4.71-1,2.01,0,3.91.57,6.47,1.3,5.89,1.68,11.6,3.24,17.61,4.42,5.13.57,9.76.94,14.2.94,8.65,0,16.58-1.42,26.07-5.59,3.55-1.56,7.03-2.96,10.12-5.44,0,0,0,0,.01,0,.87,0,26.36,32.28,25.18,55.27-.33,6.43-9.76,22.45-12.21,22.45,0,0,0,0-.01,0-.69-10.63-6.18-30.24-9.9-40.36,1.74,1.38,9.43,8.14,10.77,8.18,4.07-5.45-18.26-22.24-22.77-24.9-9.41-5.55-18.95-7.83-28.53-7.83-11.26,0-22.57,3.14-33.76,7.78-5.47-2.12-103.03-6.53-108.62-8.28-6.09-1.67-4.44-21.53-10.79-21.96.31-.04.69-.06,1.15-.06M210.95,412.61c-.76,0-1.43.04-2.03.11-3.57.45-6.22,3.55-6.12,7.15.08,2.78,1.78,5.16,4.2,6.21.55,1.45,1.15,4.18,1.53,5.94,1.48,6.76,3.15,14.42,10.21,16.36h0c3.33.91,14.95,1.73,51.25,3.96,22.25,1.37,52.66,3.24,57.05,4.22.71.23,1.45.35,2.18.35.91,0,1.82-.18,2.68-.53,11.77-4.88,21.94-7.25,31.08-7.25,8.99,0,17.16,2.24,24.97,6.85,1.25.74,5.26,3.56,9.54,7.12-1.05,1.77-1.29,3.96-.55,5.98,3.47,9.44,8.84,28.55,9.48,38.4.24,3.65,3.24,6.5,6.9,6.55.03,0,.07,0,.1,0,3.72,0,7.2-2.07,13-12.39,2.2-3.9,5.92-11.26,6.2-16.71,1.27-24.71-22.9-56.13-26.6-60.02-.61-.64-2.48-2.61-5.57-2.61-1.59,0-3.14.54-4.38,1.53-2.1,1.68-4.64,2.79-7.59,4.07l-.98.43c-7.98,3.5-14.93,5-23.26,5-3.6,0-7.66-.27-13.14-.86-5.36-1.07-10.59-2.46-16.75-4.23l-.28-.08c-2.68-.77-5.2-1.49-8.12-1.49-2.31,0-4.54.44-6.99,1.37-.22.03-.77.08-1.82.08-10.25,0-37.29-4.69-61.15-8.84-23.89-4.15-38.85-6.69-45.04-6.69h0Z"/>
        </g>
        <g>
          <path class="cls-5" d="M439.73,264.21l-1.97-.87c-3.05-1.35-5.93-2.63-8.97-3.65-1.35-.45-2.78-.83-4.3-1.25-3.25-.88-6.6-1.79-9.7-3.44-4.64-2.47-9.02-5.39-13.26-8.22-3.3-2.2-6.71-4.48-10.15-6.46-.84-.48-1.7-.95-2.55-1.4-.9-.48-1.79-.96-2.64-1.45-8.24-4.75-17.75-7.16-28.28-7.16-7.25,0-14.67,1.15-22.05,3.42-3.11.96-6.37,2.12-9.52,3.24-2.64.94-5.37,1.91-8.04,2.77-6.04,1.93-11.58,2.87-16.97,2.87-13.29,0-23.64-5.63-36.74-12.75l-1.03-.56c-5.56-3.02-13.36-6.66-18.59-7.81-2.56-.56-5.73-.86-9.17-.86-5.42,0-11.1.72-15.58,1.96-2.99.83-6.62,2.37-10.13,3.85-1.5.63-2.95,1.25-4.3,1.78-3.13,1.25-6.32,2.58-9.41,3.86-7.56,3.15-15.38,6.41-23.38,8.9l-7.05,2.19,2.77-6.84c4.33-10.69,10.3-19.04,16.63-27.87.85-1.19,1.71-2.38,2.57-3.6,9.22-13,31.78-38.1,36.36-42.76,1.14-1.73,3.82-2.24,6.82-2.8,2.89-.54,7.04-1.17,12.36-1.85,9.99-1.29,23.95-2.77,39.32-4.18,25.97-2.38,63.22-5.16,82.75-5.16,9.31,0,11.84.63,13.18,1.32,14.51,7.39,18.32,12.95,26.23,25.9,17.81,26.41,35.54,54.74,39.67,85.22l.84,6.18-5.71-2.51Z"/>
          <path d="M365.53,151.6c6.16,0,10.31.28,11.6.94,13.49,6.87,16.9,11.61,24.87,24.67,16.68,24.73,35.06,53.63,39.14,83.8-3.75-1.65-7.36-3.34-11.23-4.64-4.4-1.45-9.36-2.28-13.47-4.46-8.09-4.3-15.36-10.04-23.29-14.62-1.71-.99-3.53-1.9-5.19-2.86-9.22-5.32-19.59-7.63-30.03-7.63-7.8,0-15.64,1.29-23.08,3.57-5.8,1.78-11.8,4.15-17.61,6.02-5.87,1.88-11.07,2.7-15.89,2.7-12.73,0-22.9-5.72-36.1-12.89-5.31-2.89-13.67-6.87-19.51-8.15-2.95-.65-6.38-.94-9.93-.94-5.76,0-11.81.78-16.52,2.09-4.54,1.26-10.25,3.95-14.79,5.76-10.79,4.29-21.44,9.23-32.53,12.67,4.74-11.72,11.65-20.66,18.81-30.76,9.99-14.08,35.34-41.89,36.42-42.75.23-2.98,102.72-12.52,138.33-12.52M365.54,144.6v7-7c-19.66,0-57.04,2.79-83.08,5.17-15.41,1.41-29.42,2.9-39.45,4.19-5.38.69-9.61,1.33-12.56,1.88-2.91.55-6.92,1.31-8.96,4.1-5.91,6.09-27.79,30.69-36.43,42.87-.86,1.21-1.71,2.4-2.55,3.58-6.45,9.01-12.55,17.52-17.03,28.6l-5.54,13.68,14.1-4.37c8.16-2.53,16.05-5.82,23.69-9.01,3.07-1.28,6.25-2.61,9.36-3.84,1.4-.56,2.84-1.17,4.37-1.81,3.41-1.44,6.93-2.93,9.71-3.7,4.13-1.15,9.6-1.84,14.64-1.84,3.19,0,6.1.27,8.42.78,4.88,1.07,12.57,4.69,17.67,7.47l1.02.56c13.01,7.07,24.24,13.18,38.42,13.18,5.75,0,11.65-.99,18.02-3.03,2.74-.88,5.49-1.86,8.16-2.81,3.12-1.11,6.34-2.25,9.38-3.19,7.06-2.17,14.13-3.27,21.03-3.26,9.91,0,18.83,2.25,26.53,6.69.91.53,1.83,1.02,2.72,1.5.87.47,1.69.91,2.47,1.36,3.34,1.93,6.55,4.08,9.96,6.35,4.31,2.88,8.76,5.85,13.56,8.4,3.45,1.83,7.15,2.84,10.42,3.72,1.47.4,2.86.78,4.13,1.2,2.86.96,5.66,2.21,8.64,3.53.66.29,1.31.58,1.98.87l11.43,5.02-1.68-12.37c-4.23-31.2-22.16-59.91-40.19-86.64-8.04-13.16-12.29-19.33-27.59-27.12-2.12-1.08-5.21-1.7-14.76-1.7h0Z"/>
        </g>
        <path class="cls-3" d="M264.83,112.69c3.55-7.45,7.1-15.31,11.14-22.53.67-1.2,3.1-4.37,4.43-4.45,5.7-.37,11.6,3.27,17.36,3.88,10.41,1.42,21.18.92,31.4-1.38,2.53-.57,11.57-3.69,12.94-2.36,3.19,3.07,14.37,27.9,15.35,30.76-4.59,1.67-3.69,6.37-2.66,10.19,4.99,8.62,13.63,21.32,22.33,25.75,13.49,6.87,16.9,11.61,24.87,24.67-8.4,4.08-22.37-1.19-30.95-.86-6.07.24-14.04,7.12-21.01,7.77-7.16.66-16.69-2.3-22.5-6.33-3.23,1.16-8.52,3.22-11.18,5.04-8.78,6.01-14.13,9.65-25.31,8.29-7.11-.86-12.5-2.38-18.48-7.03-3.39-2.64-6.54-7.46-10.62-8.9-2.19-.52-7.3,2.04-10.46,2.5-6.63.96-13.9,1.63-20.56.82-4.95-.61-9.99-7.84-8.91-8.71.28-3.5,3.03-8.93-.24-10.7,3.64-4.33,9.03-4.68,12.64-7.32,13.65-9.96,22.97-24.33,30.4-39.11h0Z"/>
        <path class="cls-3" d="M264.83,112.69c3.55-7.45,7.1-15.31,11.14-22.53.67-1.2,3.1-4.37,4.43-4.45,5.7-.37,11.6,3.27,17.36,3.88,10.41,1.42,21.18.92,31.4-1.38,2.53-.57,11.57-3.69,12.94-2.36,3.19,3.07,8.06,15.64,9.93,19.84,1.68,3.78,4.44,8.06,5.42,10.92-4.59,1.67-3.69,6.37-2.66,10.19,4.99,8.62,13.63,21.32,22.33,25.75,13.49,6.87,16.9,11.61,24.87,24.67-8.4,4.08-22.37-1.19-30.95-.86-6.07.24-14.04,7.12-21.01,7.77-7.16.66-16.69-2.3-22.5-6.33-3.23,1.16-8.52,3.22-11.18,5.04-8.78,6.01-14.13,9.65-25.31,8.29-7.11-.86-12.5-2.38-18.48-7.03-3.39-2.64-6.54-7.46-10.62-8.9-2.19-.52-7.3,2.04-10.46,2.5-6.63.96-13.9,1.63-20.56.82-4.95-.61-9.99-7.84-8.91-8.71.28-3.5,3.03-8.93-.24-10.7,3.64-4.33,9.03-4.68,12.64-7.32,13.65-9.96,22.97-24.33,30.4-39.11h0Z"/>
        <path class="cls-12" d="M264.83,112.69c3.55-7.45,7.1-15.31,11.14-22.53.67-1.2,3.1-4.37,4.43-4.45,5.71-.37,11.6,3.27,17.36,3.88,10.41,1.42,21.18.92,31.4-1.38,2.53-.57,11.57-3.69,12.94-2.36,3.19,3.07,8.06,15.64,9.93,19.84,1.68,3.78,4.44,8.06,5.42,10.92-4.59,1.67-3.69,6.37-2.66,10.19-4.44.93-15.09-3.53-21.07-5.93-1.55-.62-3.31-.35-4.61.7-2.29,1.85-4.04,4.3-6.73,5.77-1.59.87-3.06,1.49-4.51,2.21-2.71,1.34-5.91,1.26-8.53-.24-5.32-3.03-9.3-6.38-13.12-11.67-.99-1.37-2.95-1.53-4.2-.39-5.65,5.16-14.11,7.83-21.38,8.85-1.32-.92-1.96-1.61-3.09-2.73-3.31-4.15.37-8.25-2.72-10.68h0Z"/>
        <path class="cls-9" d="M282.1,93.25c15.46,6.39,40.9,5.96,56.43.05,2.18,6.18,8.82,20.27,11.92,26.22-6.98-.84-18.49-8.43-21.16-6.83-5.62,3.37-7.48,7.64-12.75,10.52-1.4.77-3.1.87-4.59.27-8.27-3.33-7.95-10.47-16.56-13.82-5.26-2.04-19.99,12.29-23.09,7.31-.05-.93.04-1.97.47-2.8,3.5-6.84,6.38-13.84,9.34-20.92h0Z"/>
        <path class="cls-6" d="M264.83,112.69c3.09,2.43-.59,6.53,2.72,10.68-5.66,8.82-11.85,20.33-19.57,27.39-7.75,7.09-16.24,15.2-25.96,19.05.28-3.5,3.03-8.93-.24-10.69,3.64-4.33,9.03-4.68,12.64-7.32,13.65-9.96,22.97-24.33,30.4-39.11"/>
        <g>
          <path class="cls-13" d="M287.31,436.02c-16.23,0-32.93-3.32-48.3-9.6-3.36-1.37-6.38-2.99-9.3-4.56-2.12-1.14-4.14-2.22-6.21-3.17-1.45.59-2.9,1.17-4.36,1.74-7.94,3.08-16.68,4.64-25.99,4.64-11.31,0-22.64-2.33-32.75-6.73-17.58-7.65-31.18-23.56-36.38-42.57-4.96-18.1-1.75-36.85,8.79-51.45,1.13-1.56,2.46-3.1,3.75-4.59,1.77-2.04,3.58-4.13,4.72-6.14-7.36-16.95-5.36-36.56,5.25-50.41,11.46-14.96,27.38-20.88,42.77-26.61,3.41-1.27,6.93-2.58,10.38-3.97,2.96-1.2,5.57-2.39,8.1-3.54,6.97-3.18,12.99-5.93,22.53-7.21,1.92-.26,3.83-.39,5.68-.39,6.44,0,12.62,1.55,18.88,4.73,3.04,1.54,5.99,3.14,8.84,4.69,11.07,6,21.52,11.66,34.56,12.65,1.11.08,2.24.13,3.37.13,9.26,0,17.69-2.8,26.62-5.77,8.12-2.7,16.51-5.49,25.76-6.12,1.36-.09,2.72-.14,4.06-.14,19.74,0,35,10.17,48.94,20.59,2.96,2.04,7.81,4.62,11.57,5.52,19.43,4.64,35.37,16.11,43.72,31.49,7.26,13.37,8.24,28.52,2.81,43.8-1.45,4.09-3.27,6.53-5.49,9.09.45,1.13.99,2.32,1.53,3.49.49,1.06,1,2.16,1.43,3.23,8.35,20.51,1.85,44.03-15.8,57.2-8.93,6.67-17.72,9.64-28.5,9.64-2.74,0-5.65-.19-8.88-.58-.79.69-1.55,1.5-2.35,2.34-.76.81-1.55,1.65-2.43,2.46-13.92,12.71-27.3,15.32-43.09,15.32h-.94c-6.42-.19-11.88-.95-18.93-2.62-1.46-.35-3.42-.98-5.49-1.66-3.37-1.1-7.99-2.6-10.03-2.6-.07,0-.13,0-.2,0-3.49.35-6.94,1.64-10.59,3.01-3.94,1.47-8.02,3-12.76,3.65-4.95.69-10.09,1.03-15.29,1.03Z"/>
          <path d="M235.99,224.96c6.03,0,11.65,1.48,17.29,4.35,14.94,7.59,27.48,16.39,44.72,17.71,1.23.09,2.44.14,3.64.14,18.59,0,33.96-10.62,52.63-11.9,1.29-.09,2.57-.13,3.82-.13,18.29,0,32.51,9.16,46.9,19.93,3.5,2.42,8.68,5.1,12.8,6.08,32.8,7.83,56.16,36.6,44.04,70.72-1.48,4.17-3.28,6.24-6.16,9.48.83,2.89,2.55,6.01,3.7,8.83,7.72,18.97,1.76,40.82-14.66,53.07-8.76,6.54-16.99,8.95-26.41,8.95-3.14,0-6.41-.27-9.88-.74-2.35,1.63-4.06,3.97-6.14,5.87-12.75,11.64-24.65,14.4-40.73,14.4-.31,0-.61,0-.92,0-6.54-.19-11.87-1.04-18.15-2.53-3.89-.92-12.38-4.35-16.33-4.35-.19,0-.37,0-.54.03-7.81.78-14.69,5.46-23.48,6.68-4.87.67-9.83,1-14.81,1-16.05,0-32.38-3.37-46.98-9.34-5.9-2.41-10.82-5.69-16.34-8.1l-.45-.2c-1.89.78-3.79,1.54-5.69,2.29-7.72,3-16.19,4.4-24.71,4.4-10.86,0-21.8-2.28-31.36-6.44-33.56-14.61-48.06-58.41-26.15-88.76,2.95-4.09,7.64-8.23,9.51-12.72-7.26-15.34-6.34-34.64,4.16-48.34,13.28-17.33,32.58-21.74,51.68-29.47,11.04-4.47,17.35-8.86,29.78-10.53,1.78-.24,3.51-.36,5.22-.36M235.99,217.96c-2.01,0-4.08.14-6.15.42-10.05,1.35-16.59,4.34-23.52,7.5-2.49,1.14-5.07,2.31-7.96,3.48-3.4,1.38-6.9,2.68-10.28,3.94-15.86,5.9-32.25,12.01-44.33,27.76-11.02,14.38-13.4,34.5-6.41,52.19-.96,1.34-2.21,2.78-3.44,4.2-1.34,1.55-2.72,3.14-3.94,4.83-11.17,15.46-14.57,35.3-9.33,54.42,5.48,20.02,19.82,36.78,38.36,44.85,10.55,4.59,22.36,7.02,34.15,7.02,9.75,0,18.91-1.64,27.24-4.87.99-.39,1.98-.78,2.99-1.18,1.54.75,3.08,1.58,4.68,2.44,3,1.61,6.1,3.27,9.63,4.71,15.79,6.45,32.94,9.86,49.62,9.86,5.36,0,10.67-.36,15.78-1.07,5.12-.71,9.58-2.37,13.5-3.84,3.54-1.32,6.61-2.47,9.61-2.79,1.58.04,6.33,1.59,8.9,2.42,2.23.73,4.16,1.35,5.76,1.73,7.3,1.73,12.96,2.51,19.55,2.71h.08s.08,0,.08,0c.32,0,.64,0,.96,0,16.61,0,30.7-2.76,45.45-16.23.98-.89,1.85-1.82,2.62-2.64.35-.37.69-.74,1.03-1.08,2.72.28,5.25.42,7.65.42,11.43,0,21.15-3.29,30.6-10.34,18.93-14.13,25.9-39.34,16.95-61.32-.47-1.15-.99-2.28-1.5-3.38-.22-.47-.44-.95-.65-1.42,1.81-2.27,3.41-4.8,4.73-8.52,5.77-16.25,4.72-32.38-3.03-46.64-8.83-16.25-25.59-28.36-45.98-33.22-2.78-.66-7.11-2.74-10.34-4.95-14.4-10.76-30.2-21.24-50.98-21.24-1.42,0-2.87.05-4.3.15-9.69.66-18.3,3.53-26.63,6.29-8.66,2.88-16.83,5.59-25.52,5.59-1.04,0-2.08-.04-3.1-.12-12.3-.94-21.96-6.17-33.16-12.24-2.87-1.56-5.84-3.17-8.92-4.73-6.77-3.44-13.46-5.11-20.46-5.11h0Z"/>
        </g>
        <path class="cls-1" d="M262.18,347.86c4.94-.27,5.44-.21,10.03,1.26,8.46,2.72,6.05,11.49-2.11,7.56-3.31-1.59-8.18-3.45-10.05,1.12-3.81,9.3,17.24,8.46,6.36,17.87-2.98,2.57-7.46,9.53-1.41,11.38,2.45.72,4.7.61,6.93-.7,1.25-1.05,2.76-2.3,4.49-1.59.66.26,1.18.79,1.43,1.45,2.54,6.81-10.56,11.26-17.73,6.84-2.69-1.64-4.56-4.33-5.17-7.42-1.01-5.16,1.58-9.91,4.29-14.04-10.07-6.69-10.15-19.96,2.95-23.73"/>
        <path class="cls-1" d="M325.14,308.65c6.95-.94,13.34,3.95,14.27,10.91.92,6.96-3.97,13.34-10.93,14.25-6.94.9-13.3-3.98-14.22-10.91-.92-6.93,3.95-13.31,10.88-14.24"/>
        <path class="cls-1" d="M229.75,305.97c6.67-1.84,13.56,2.1,15.35,8.79,1.79,6.68-2.21,13.54-8.9,15.28-6.62,1.72-13.39-2.22-15.16-8.83-1.77-6.61,2.12-13.41,8.72-15.23"/>
        <g>
          <path class="cls-13" d="M321.6,634.14c-13.82,0-33.01-1.51-40.1-14.61-1.38-2.55-1.36-5.72.06-8.28,2.05-3.69,4.24-5.79,6.78-8.22.68-.65,1.38-1.33,2.14-2.08,1.16-8.08,2.49-15.61,4.04-22.98.05-.42.14-.87.24-1.43.09-.48.27-1.38.35-2.12-1.58-.52-3.17-1.03-4.76-1.53-5.96-1.9-12.12-3.87-18.04-6.55-.19-.08-.37-.13-.57-.13-.1,0-.2.01-.29.03,3.17,2.55,10.36,5.68,19.54,8.45l3.14.95-.74,3.2c-.56,2.44-1.09,5.81-1.59,9.07-.31,2.01-.6,3.91-.91,5.6l-.68,3.79-3.71-1.04c-11.59-3.26-29.01-10.74-39.88-19.47-3.47-2.79-7.02-6.85-9.88-10.11l-.31-.36c-15.17-18.75-19.52-27.7-24.49-50.38l-1.07-4.89,4.96.67c3.66.49,7.4.75,11.11.75,13.08,0,26.43-3.01,40.82-9.21l1.4-.6,1.39.61c22.02,9.66,40.16,14.15,57.1,14.15,4.83,0,9.65-.38,14.32-1.12,20.57-3.56,36.99-14.35,45.01-29.58.22-.41.31-.77.34-1.08-12.53,20.08-33.03,30.69-59.31,30.69-20.24,0-38.43-6.18-50.13-11.36l-6.11-2.71,5.65-3.44c3.33-2.68,18.48-29.62,22.71-39.05l-6.24-1.86,9.37-3.72c5.11-2.03,25.28-4.17,45.49-6.18,3.69-.37,6.61-.66,8.02-.83,2.46-.29,4.75-.44,7-.44,7.16,0,13.65,1.44,21.04,4.67,10.92,4.76,12.17,7.9,14.2,15.14.43,1.54.92,3.28,1.61,5.34,13.11,39.01,11.65,68.64-4.46,90.58-2.4,4.16-7.06,8.32-11.58,12.34-4.19,3.73-8.52,7.6-9.93,10.54-2.06,4.29-3.81,8.71-5.49,12.97-7.17,18.12-13.94,35.24-41.47,35.75h-.2c-1.77.04-3.76.07-5.91.07Z"/>
          <path d="M363.78,450.24c6.79,0,12.89,1.43,19.64,4.37,12.2,5.33,10.18,7.34,13.9,18.39,9.48,28.21,14.92,61.85-4.08,87.56-4.21,7.54-18.34,16.24-21.72,23.28-10.71,22.3-12.47,46.16-43.87,46.74-1.8.03-3.84.07-6.04.07-12.76,0-30.82-1.32-37.03-12.78-.83-1.53-.8-3.4.04-4.92,2.45-4.43,5.08-6.16,9.16-10.35,1.14-8.09,2.51-16.08,4.2-24.07.1-1.32,1.61-6.28-.24-6.9-7.96-2.67-16.2-4.93-23.97-8.45-.67-.31-1.36-.44-2.01-.44-3.06,0-5.57,2.88-4.17,4.62,3.8,4.69,16.58,8.95,22.41,10.71-.95,4.08-1.74,10.4-2.53,14.84-12.04-3.38-28.8-10.93-38.63-18.83-3.32-2.67-6.82-6.7-9.66-9.94-14.4-17.79-18.82-26.23-23.8-48.93,3.89.53,7.75.78,11.57.78,14.57,0,28.6-3.64,42.21-9.5,18.62,8.17,38.17,14.45,58.51,14.45,4.91,0,9.87-.37,14.87-1.16,19.26-3.34,38.22-13.66,47.56-31.41,1.91-3.62-.11-7.07-2.5-7.08-.99,0-2.05.59-2.92,2.01-13.18,21.54-34.38,29.55-56.64,29.55-16.6,0-33.79-4.45-48.71-11.06,4.68-2.85,26.68-43.91,25.25-44.34,6.45-2.56,45.79-5.97,52.64-6.79,2.29-.27,4.47-.41,6.58-.41M363.79,443.24h0c-2.4,0-4.82.15-7.42.46-1.38.17-4.29.45-7.96.82-25.61,2.55-41.41,4.42-46.43,6.41l-18.76,7.46,11.96,3.56c-5.23,10.48-16.45,30.48-19.91,34.09l-5.22,3.18-.87-.38-2.79,1.2c-13.94,6.01-26.84,8.93-39.44,8.93-3.55,0-7.13-.24-10.64-.71l-9.92-1.34,2.14,9.77c5.06,23.09,9.77,32.77,25.19,51.84l.08.1.09.1.21.24c2.95,3.37,6.62,7.56,10.33,10.55,11.25,9.04,29.2,16.77,41.12,20.12l.97.27c-.21.2-.41.39-.61.59-2.63,2.52-5.12,4.89-7.42,9.05-2.02,3.64-2.05,8-.07,11.64,7.98,14.74,28.47,16.44,43.18,16.44,2.19,0,4.2-.04,5.98-.07h.19c13.4-.25,23.56-4.39,31.04-12.64,6.4-7.07,9.91-15.94,13.62-25.32,1.67-4.21,3.39-8.57,5.39-12.74,1.11-2.31,5.54-6.26,9.1-9.44,4.66-4.16,9.48-8.45,12.18-13.04,16.74-22.91,18.32-53.54,4.85-93.62-.67-1.98-1.14-3.67-1.56-5.17-2.39-8.55-4.41-12.27-16.17-17.41-7.75-3.38-14.88-4.96-22.44-4.96h0Z"/>
        </g>
        <g>
          <path class="cls-13" d="M227.53,511.7c-11.99,0-23.28-2.87-33.55-8.52-13.79-7.59-20.92-23.05-18.6-40.36,2.53-18.86,15.13-34.16,31.36-38.07.27-.06.61-.11.89-.11,2.25,0,4.04,1.54,10.67,9.18.64.74,1.15,1.32,1.43,1.63,1.31,1.41,1.24,3.61-.16,4.93-7.19,6.78-6.61,9.5-6.42,9.98.17.42,2.1,4.12,18.28,4.12,13.37,0,28.23-2.56,34.06-4.29,9.9-2.94,18.19-4.31,26.08-4.31,12.85,0,24.39,3.76,37.76,9.4,1.07.45,1.85,1.4,2.07,2.54.23,1.14-.13,2.32-.94,3.14-2.74,2.77-7.03,5.83-10.48,8.29-.58.41-19.21,13.72-19.21,13.72-26.25,19.04-50.89,28.71-73.23,28.71Z"/>
          <path d="M207.62,428.15c1.4,0,8.1,8.16,9.54,9.7-16.71,15.75-3.25,20.15,14.26,20.15,13.03,0,28.31-2.44,35.06-4.44,9.56-2.84,17.55-4.17,25.08-4.17,11.83,0,22.54,3.28,36.4,9.12-2.96,3-8.16,6.55-11.69,9.1l-17.54,12.52c-20.3,14.73-45.79,28.06-71.2,28.06-10.77,0-21.52-2.39-31.86-8.08-29.32-16.13-18.44-64.64,11.89-71.96.02,0,.04,0,.07,0M207.62,421.15c-.58,0-1.16.07-1.71.2-17.62,4.25-31.29,20.73-34,41.01-2.51,18.77,5.3,35.59,20.39,43.89,10.79,5.94,22.65,8.95,35.24,8.95,23.08,0,48.41-9.88,75.28-29.38l17.52-12.51c.54-.39,1.09-.78,1.66-1.19,3.56-2.54,8-5.7,10.95-8.69,1.63-1.65,2.34-4.01,1.89-6.28s-2.01-4.18-4.14-5.09c-13.76-5.81-25.68-9.67-39.12-9.67-8.24,0-16.84,1.42-27.07,4.45-5.64,1.67-20.04,4.15-33.06,4.15-9.2,0-13.11-1.26-14.57-1.96.51-1.01,1.82-3,5.11-6.09,2.8-2.64,2.94-7.05.32-9.87-.22-.23-.8-.9-1.36-1.55-6.81-7.85-9.34-10.38-13.3-10.38h0Z"/>
        </g>
        <g>
          <path class="cls-13" d="M221.12,462.26c-4.73,0-8.08-1.47-9.94-4.37-2.59-4.04,1.65-9.99,1.69-10.05,5.75-7.95,14.15-10.38,19.97-11.52,1.78-.35,3.74-.52,5.81-.52,8.41,0,18.97,3.03,26.28,7.54l5.95,3.67-6.51,2.56c-6.13,2.42-16.34,6.05-23.24,8.27l-7.33,2.14c-2.62.75-7.9,2.27-12.68,2.27Z"/>
          <path d="M238.65,439.31c8.26,0,18.02,3.06,24.44,7.02-6.41,2.53-16.56,6.11-23.03,8.19l-7.24,2.12c-2.38.69-7.36,2.13-11.7,2.13-2.98,0-5.66-.68-6.99-2.76-.91-1.43.61-4.77,1.58-6.11,4.42-6.1,10.64-8.73,17.8-10.13,1.61-.31,3.34-.46,5.14-.46M238.65,432.31h0c-2.3,0-4.48.2-6.48.59-6.4,1.25-15.65,3.94-22.13,12.9-.23.32-5.67,7.97-1.8,13.99,1.75,2.73,5.41,5.98,12.88,5.98,5.28,0,10.88-1.61,13.56-2.38l.07-.02,7.27-2.12.09-.03.09-.03c6.96-2.24,17.26-5.9,23.45-8.34l13.02-5.13-11.91-7.34c-7.94-4.9-18.97-8.06-28.12-8.06h0Z"/>
        </g>
        <path class="cls-10" d="M277.46,17.6c1.37-2.37,2.64-4.65,4.51-6.69,6.24-6.8,15.73-10.39,24.78-10.88,6.31-.34,16.18,2.57,20.9,6.82,2.59,2.33,5.17,5.34,7.88,7.84,14.64-6.17,29.82.54,36.58,14.75,11.31,23.82-10.92,41.72-34.47,33.01-3.09,4.79-7.8,21.86-13.14,21.6-1.83-.81-2.21-1.62-3.01-3.47-1.33-.68-7.52.21-9.22.46-.65.46-.56.26-.91.88-2.11,2.52-5.86,1.5-7.81-.9-1.76-.27-4.44-.73-6.07-.08-1.88,6.68-7.87,1.59-8.83-3.93-.83-4.78-3.14-11.02-6.54-14.45-11.97,2.8-22.02,2.83-31.23-6.77-6.26-6.52-7.27-14.81-4.75-23.25,2.01-6.73,7.94-12,14.54-14.08,5.56-1.84,11.07-1.19,16.79-.85"/>
        <path class="cls-11" d="M252.41,38.07c1.49-10.99,8.43-13.88,18.74-13.58,2.07.06,8.32,2.03,9.84.78,2.3-1.9,3.47-7.37,5.66-9.77,1.87-1.93,4.62-4.21,7.11-5.27,16.99-7.2,30.03-2.35,38.05,13.38,2.76-1.26,5.35-2.36,8.19-3.44,12.03-4.56,24.92,6.22,28.27,17.57-6.34.83-6.84,1.69-12.5,3.74-5.4,1.96-15.89-1.4-20.79-3.96-7.63,4.86-11.5,6.27-20.76,6.54-11.54.33-18.11-5.77-30.19-5.72-5.19,2.96-9.08,6.6-15.39,6.65-6.05.05-11.26-.8-15.82-5.04-.2-.74-.3-1.13-.41-1.88"/>
        <path class="cls-3" d="M277.46,17.6c1.37-2.37,2.64-4.65,4.51-6.69,6.24-6.8,15.73-10.39,24.78-10.88,6.31-.34,16.18,2.57,20.9,6.82,2.59,2.33,5.17,5.34,7.88,7.84,14.64-6.17,29.82.54,36.58,14.75,11.31,23.82-10.92,41.72-34.47,33.01-3.09,4.79-7.8,21.86-13.14,21.6-1.83-.81-2.21-1.62-3.01-3.47.87-1.3,1.42-3.35,2.1-4.77,3.6-7.52,5.21-17.89,13.16-21.79,5.94,1.73,8.71,4.11,15.65,3.53,11.15-.93,16.34-8.98,15.87-19.81-3.34-11.34-16.23-22.12-28.26-17.57-2.84,1.07-5.43,2.18-8.19,3.44-8.01-15.74-21.05-20.58-38.05-13.38-2.49,1.06-5.24,3.34-7.11,5.27-2.19,2.4-3.37,7.87-5.66,9.77-1.52,1.25-7.77-.72-9.84-.78-10.31-.31-17.25,2.59-18.74,13.58-.31,4.87.29,9.33,3.64,12.87,3.87,4.1,8.81,5.63,14.34,6.03,4.7.34,10.2-2.02,14.91-1.82,5.1,2.71,8.89,16.06,10.82,21.11.81,2.11.77,3.58,1.38,4.68-1.88,6.68-7.87,1.59-8.83-3.93-.83-4.78-3.14-11.02-6.54-14.45-11.97,2.8-22.02,2.83-31.23-6.77-6.26-6.52-7.27-14.81-4.75-23.25,2.01-6.73,7.94-12,14.54-14.08,5.56-1.84,11.07-1.19,16.79-.85"/>
        <path class="cls-3" d="M303.56,81.01l-.02-.38c-.32-5.86-6.17-26.04-2.76-29.89.55-.62,1.13-.94,1.96-1.03.92-.1,1.92.32,2.55.97,1.65,1.72,5.4,27.16,6.08,31.23-2.11,2.52-5.86,1.5-7.81-.9"/>
        <path class="cls-2" d="M39.68,380.8c11.29-.83,21.58,4.42,25.41,15.66.87,2.54.14,4.94-2.64,5.69-2.66-.72-4.89-5.88-6.98-8.22-6.52-6.59-16.47-7.84-23.91-1.95-6.04,4.79-.65,17.31-3.52,18.22-4.45,1.4-9.62-1.59-15.29,3.55-3.19,2.89-5.07,6.96-5.21,11.26-.23,5.76,2.37,10.25,7.04,13.45,2.83,1.94,4.24,1.51,7.62,1.57,1.57,1.38,1.84,1.73,3.08,3.39-2.15,4.9-4.39,9.52-3.56,15.19,1.41,9.73,11.54,14.57,20.23,10.6,3.13-1.43,5.72-6.17,9.13-6.92,1.54-.34,4.32,4.51,5.85,5.31,8.32,5.98,14.58,5.1,20.75-2.77,2.82-4.88,3.85-9.53,3.21-15.16-.2-1.72-.54-3.37-.16-5.03.73-.93.96-.97,1.99-1.49,3,0,4.73,3.43,5.43,6.02,2.93,10.89-4.23,25.14-15.26,28.3-8.7,2.49-15.8-.9-23.14-4.9-3.27,1.99-6.76,4.97-10.71,5.41-11.59,1.29-22.04-5.63-24.59-17.2-1.12-5.08-.46-8.47.65-13.43-1.89-.83-3.68-1.87-5.34-3.11-16.96-12.65-10.81-38.01,10.49-41.08.28-12.46,6.86-20.71,19.42-22.37"/>
        <path class="cls-2" d="M103.71,398.81c2.67-.39,5-.37,5.58,2.76-.29,1.05-.83,2.09-1.74,2.69-12.69,8.29-33.91,15.01-48.64,14.43-2.43-.52-6.87-3-5.6-5.91,1.81-4.14,10.21-1.32,13.92-2.17,12.06-2.75,25.41-6.68,36.47-11.81"/>
        <path class="cls-1" d="M509.13,248.49c3.99.11,21.17,1.91,16.09,10.45-1.09,1.84-6.4.11-8.17-.58-8.55-3.3-14.44-1.83-20.7,4.73-2.87,3.39-5.76,12.48-11,7.3-3-2.96.94-8.25,3.01-10.72,5.45-6.47,12.29-10.45,20.77-11.18"/>
        <path class="cls-2" d="M108.42,412.88c.65,0,1.3.05,1.94.16,1.19.21,2.09.55,2.8,1.53.14.65.2,1.09-.05,1.73-2.25,5.68-36,22.12-43.19,25.05-1.78.29-2.87.64-4.29-.59-2.93-5.57,9.14-9.68,13-11.76l29.79-16.12h0Z"/>
        <path class="cls-1" d="M476.81,216.13c10.96,3.69,14.9,24.33,8.42,33.29-3.78,5.22-5.1,8.16-11.31,10.77-.21-.04-.42-.09-.63-.14-1.51-.38-2.16-.78-2.92-2.05-.73-3.91,4.18-7.47,6.58-10.96,1.51-2.24,2.61-4.73,3.26-7.36,2.92-11.82-13.7-18.78-3.4-23.55"/>
        <path class="cls-1" d="M494.18,208.57c6.89-.77,5.2,6.43,7.33,11.15.95,2.75,1.68,4,3.45,6.43,5,6.9,16.17,1.04,21.28,5.01,1.57,1.22.2,4.32-1.91,5.83-8.11,2.87-18.68,1.84-24.9-4.84-4.14-4.43-10.45-18.82-5.25-23.59"/>
        <circle class="cls-8" cx="185.77" cy="358.1" r="37.71"/>
        <circle class="cls-8" cx="372.38" cy="364.64" r="37.71"/>
        <ellipse class="cls-1" cx="275.69" cy="332.82" rx="8.55" ry="5.6"/>
        <path class="cls-1" d="M250.28,305.22c-.48,0-.96-.1-1.42-.31-15.47-6.95-22.94-18.78-23.25-19.28-1.01-1.63-.51-3.78,1.12-4.8,1.63-1.01,3.78-.51,4.79,1.12.08.13,6.76,10.57,20.19,16.6,1.76.79,2.54,2.85,1.75,4.6-.58,1.29-1.85,2.06-3.18,2.06Z"/>
        <path class="cls-1" d="M308.4,307.35c-1.33,0-2.6-.77-3.18-2.06-.79-1.76,0-3.82,1.75-4.6,14.05-6.31,22.62-13.68,22.7-13.75,1.45-1.26,3.65-1.11,4.91.35s1.11,3.65-.35,4.91c-.38.33-9.44,8.12-24.42,14.85-.46.21-.95.31-1.42.31Z"/>
        <path class="cls-1" d="M308.39,407.42c-.79,0-1.58-.27-2.23-.81-.63-.52-15.46-13.11-17.4-34.05-2-21.51,15.05-33.76,15.78-34.27,1.57-1.11,3.74-.73,4.85.85,1.1,1.57.73,3.74-.84,4.85-.62.44-14.47,10.54-12.86,27.94,1.68,18.1,14.79,29.23,14.92,29.34,1.48,1.23,1.68,3.43.44,4.91-.69.83-1.68,1.25-2.68,1.25Z"/>
        <path class="cls-6" d="M405.3,168.64c-2.4,1.72-1.59,7.81-3.3,8.58-6.18-9.75-13.06-18.66-24.88-24.67-8.7-4.43-17.35-17.14-22.33-25.75-1.03-3.82-1.93-8.52,2.66-10.19,4.63,9.01,13.49,23.23,21.93,28.42,7.15,4.39,11.9,5.48,18.31,12.62,3.22,3.58,6.47,9.19,7.61,11Z"/>
        <path class="cls-6" d="M269.07,169.57c-.7,0-1.41-.25-1.97-.77-1.18-1.09-1.25-2.92-.16-4.1,11.71-12.69,16.72-29.29,16.77-29.46.46-1.54,2.07-2.41,3.61-1.96,1.54.45,2.41,2.07,1.96,3.6-.22.73-5.42,18.03-18.07,31.75-.57.62-1.35.93-2.13.93Z"/>
        <path class="cls-6" d="M346.22,168.44c-.63,0-1.26-.2-1.79-.62-15.53-12.16-17.49-28.35-17.56-29.03-.18-1.59.97-3.03,2.57-3.2,1.58-.19,3.02.97,3.2,2.56.03.23,1.88,14.54,15.37,25.11,1.26.99,1.48,2.81.5,4.07-.57.73-1.43,1.11-2.29,1.11Z"/>
        <path class="cls-6" d="M303.43,176.16c-.48,0-.97-.12-1.42-.37-1.4-.78-1.89-2.55-1.11-3.95.08-.14,5.13-9.32,4.6-17.26-.11-1.6,1.1-2.98,2.7-3.09,1.58-.11,2.98,1.1,3.09,2.7.65,9.71-5.09,20.05-5.33,20.48-.53.95-1.52,1.48-2.53,1.48Z"/>
      </g>
    </g>
  </g>
</svg>