<?xml version="1.0" encoding="UTF-8"?>
<svg id="Layer_2" data-name="Layer 2" xmlns="http://www.w3.org/2000/svg" viewBox="0 0 433.51 598.97">
  <defs>
    <style>
      .cls-1 {
        fill: #fff;
      }

      .cls-2 {
        fill: #49944a;
      }

      .cls-3 {
        fill: #f1a68f;
      }

      .cls-4 {
        fill: #8ed165;
      }

      .cls-4, .cls-5, .cls-6 {
        fill-rule: evenodd;
      }

      .cls-7 {
        fill: #8ecb63;
      }

      .cls-8 {
        fill: #d4756a;
      }

      .cls-9 {
        fill: #3e8b43;
      }

      .cls-10 {
        fill: #0a0a0a;
      }

      .cls-11 {
        fill: #9bc8d2;
      }

      .cls-6 {
        fill: #47914a;
      }
    </style>
  </defs>
  <g id="Layer_1-2" data-name="Layer 1">
    <g>
      <g>
        <path class="cls-1" d="M216,595.47c-7.64,0-21.62-1.12-29.52-8.59-2.71-2.57-4.16-5.85-4.2-9.5-.05-4.37,1.24-7.91,4.12-11.26-.92-5.44-2.76-10.89-4.55-16.19-.61-1.81-1.22-3.61-1.79-5.41-5.19-16.26-7.79-29.61-8.18-42-.37-11.56.56-23.85,2.7-35.54.38-2.08,1.02-4.47,1.69-7,.99-3.69,2.09-7.82,2.23-10.66-.98,1.83-1.6,4.88-2.1,7.35-.19.95-.38,1.87-.57,2.69-5.33,22.63-5.79,42.85-1.46,65.57l.76,3.98-4.05.17c-2.01.08-3.83.16-5.73.16-3.06,0-7.64-.17-12.09-1.63-5.09-1.68-11.59-5.7-14.57-11.95-3.25-6.82-.87-13.38.88-18.17l1.53-4.22c-6.49-4.62-13.52-10.81-18.23-19.47-4.74-8.88-5.8-19.06-2.99-28.7,5.05-16.93,21.72-32.19,36-39.81.58-.31,1.36-.73,94.87-16.19,34.89-5.77,93.8-15.45,96.21-15.45h.57l.58.18c1.75.58,2.53,2.21,2.79,2.74,4.09,8.48,11.45,66.07,6.01,84.5,4.29,12.7,4.08,34.56,2.84,46.51-.22,2.12-.57,4.23-.9,6.27-.51,3.08-.98,5.99-1.05,8.85-.07,3,.4,6.02.91,9.22.28,1.8.57,3.66.77,5.54.14,1.34.12,2.76.11,4.12-.02,1.73-.03,3.51.28,4.69.25.91,1.69,2.17,3.08,3.38,2.16,1.88,4.85,4.21,6.12,7.71,1.26,3.44.92,7.3-.95,10.85-4.13,7.85-15.39,12.3-21.73,14.25-6.43,1.98-13.52,3.07-19.96,3.07-7.43,0-13.8-1.39-18.91-4.12-3.92-2.1-7-4.5-9.15-7.13-4.91-6-8.2-16.98-10.59-25.01l-1.51-5.01c-8.42,1.74-20.51,4.28-21.89,4.63l-.54.18c-.84.27-2,.65-2.46,1.01-2.24,1.79-2.62,6.56-3.02,11.61-.54,6.85-1.22,15.38-7,21.7-8.3,9.07-21.76,11.52-31.59,11.98-1.24.06-2.5.09-3.76.09ZM145.06,495.97c.25.18.52.34.77.5-.09-.05-.6-.38-.77-.5Z"/>
        <path d="M346.96,377.17s.04,0,.04,0c3.7,1.23,12.34,67.24,6.2,83.97,4.42,11.67,4.36,33.59,3.06,46.1-.53,5.11-1.85,10.27-1.97,15.4-.12,5.12,1.17,10.13,1.69,15.19.3,2.89-.24,6.64.49,9.36,1.08,4.03,7.43,6.25,9.3,11.38.98,2.69.56,5.52-.76,8.02-3.38,6.42-13.1,10.52-19.66,12.54-5.56,1.71-12.3,2.92-18.93,2.92-6.19,0-12.29-1.05-17.26-3.71-2.94-1.57-5.97-3.66-8.09-6.26-4.86-5.93-8.28-18.26-10.51-25.67,1.62-.41,3.92-.91,5.05-2.26.57-.67.88-1.4.74-2.29-.13-.84-.77-1.84-1.5-2.29-.26-.16-.79-.37-1.08-.4h0c-.13,0-28.68,5.9-30.39,6.39-1.35.45-3.05.91-4.17,1.8-7.29,5.81-1.03,23.4-10.43,33.68-7.16,7.82-19.01,10.37-29.18,10.85-1.13.05-2.34.08-3.59.08-9.11,0-20.75-1.61-27.12-7.63-2-1.89-3.08-4.23-3.1-6.99-.04-4.26,1.4-7.15,4.33-10.08-1.09-8.16-4.22-15.98-6.72-23.81-4.19-13.15-7.58-27.19-8.02-41.04-.37-11.52.57-23.46,2.64-34.8,1.01-5.54,4.21-14.27,3.98-19.43-.04-.84-.29-1.55-1-2.06-.59-.42-1.34-.61-2.07-.61-.32,0-.63.03-.93.1-.96.21-1.77.69-2.29,1.54-1.85,3-2.48,7.99-3.29,11.41-5.45,23.13-5.91,43.8-1.5,67.02-1.84.08-3.71.15-5.58.15-3.73,0-7.47-.3-11-1.46-4.94-1.63-10.22-5.35-12.5-10.13-2.53-5.29-.86-10.34,1.01-15.47.56.41,1.14.76,1.74,1.11,2.4,1.38,5.5,2.86,8.43,2.86.67,0,1.33-.08,1.96-.25.39-.35.71-.5.83-1.03.25-1.11-.11-2.28-.9-3.08-1.96-2-5.08-3.41-7.45-4.94-8.65-5.58-16.53-12.04-21.53-21.22-4.27-8-5.24-17.34-2.7-26.05,4.59-15.37,20.33-30.25,34.29-37.7,1.05-.56,185.92-31.22,189.44-31.22M346.96,370.17h0c-.84,0-3.06,0-96.78,15.49-23.51,3.89-46.93,7.79-64.27,10.71q-30.3,5.1-31.68,5.84c-14.92,7.96-32.36,24-37.7,41.88-3.08,10.56-1.93,21.68,3.23,31.34v.02s.03.02.03.02c4.51,8.29,10.92,14.4,17.11,19.07l-.64,1.75c-1.85,5.07-4.63,12.74-.75,20.88,3.46,7.25,10.86,11.86,16.63,13.76,4.93,1.62,9.89,1.81,13.19,1.81,1.96,0,3.82-.07,5.88-.16l1.73-.07c1.06,4.16,2.32,8.51,3.78,13.07.59,1.84,1.21,3.69,1.81,5.47,1.64,4.86,3.21,9.5,4.13,14.13-2.69,3.63-3.94,7.59-3.89,12.23.05,4.62,1.88,8.77,5.29,12,8.34,7.89,21.97,9.55,31.93,9.55,1.31,0,2.63-.03,3.92-.09,10.49-.49,24.91-3.17,34.01-13.12,6.6-7.21,7.33-16.4,7.91-23.78.24-3.01.63-7.97,1.62-9.05.33-.15.99-.36,1.45-.51.15-.05.3-.1.44-.14,1.59-.39,10.74-2.31,18.49-3.92l.02.08c.18.59.36,1.21.56,1.86,2.48,8.31,5.89,19.69,11.24,26.23,2.44,2.99,5.87,5.68,10.2,8,5.63,3.01,12.55,4.54,20.57,4.54,6.78,0,14.23-1.15,20.99-3.23,8.38-2.58,19.31-7.45,23.8-15.97,2.34-4.43,2.74-9.29,1.14-13.68-1.58-4.35-4.78-7.13-7.12-9.15-.68-.59-1.66-1.45-2.05-1.92-.13-.81-.12-2.27-.1-3.47.01-1.47.03-2.98-.13-4.52-.2-1.97-.5-3.87-.79-5.72-.48-3.04-.93-5.91-.86-8.6.06-2.62.52-5.41,1-8.36.34-2.09.7-4.25.93-6.47,1.07-10.32,1.78-32.66-2.67-46.96,2.76-10.79,1.86-30,.54-44.8-1.4-15.68-4.21-35.24-7.05-41.14-1.12-2.32-2.74-3.85-4.83-4.55l-1.08-.36h-1.18Z"/>
      </g>
      <g>
        <g>
          <path class="cls-6" d="M248.74,434.01c-58.41,0-77.62-33.54-78.41-34.97-.56-1.02-.58-2.25-.06-3.28.53-1.04,1.53-1.74,2.68-1.89l190.59-23.95c.15-.02.29-.03.44-.03,1.05,0,2.05.47,2.72,1.3.76.94.98,2.21.58,3.36-.17.49-4.36,12.11-18.23,25.04-12.59,11.74-36,26.93-76.05,32.62-8.38,1.19-16.54,1.79-24.26,1.79Z"/>
          <path d="M363.98,373.4s-15.68,44.59-91.47,55.35c-8.58,1.22-16.49,1.76-23.76,1.76-57.02,0-75.35-33.16-75.35-33.16l190.59-23.95M363.98,366.4c-.29,0-.58.02-.87.05l-190.59,23.95c-2.3.29-4.31,1.7-5.37,3.77-1.05,2.07-1.01,4.53.11,6.56.83,1.5,21.03,36.78,81.48,36.78,7.88,0,16.21-.62,24.75-1.83,40.95-5.82,64.99-21.44,77.95-33.52,14.49-13.51,18.96-25.92,19.14-26.44.8-2.29.37-4.83-1.16-6.72-1.34-1.66-3.35-2.6-5.45-2.6h0Z"/>
        </g>
        <path class="cls-6" d="M363.98,373.4s-15.68,44.59-91.47,55.35c-75.79,10.77-99.11-31.4-99.11-31.4l190.59-23.95h0Z"/>
        <path class="cls-4" d="M194.21,394.74s-5.58,22.42,43.08,23.63c48.66,1.21,82.54-18.88,99.14-34.88,3.86-3.72-1.75-5.1-12.62-5.03l-129.6,16.28h0Z"/>
        <path d="M263.02,416.41c.79,0,1.58.01,2.39.04,2.44,11.85-.38,24.65-8.77,34.61-8.08,9.58-19.63,14.51-31.25,14.51-.46,0-.92,0-1.38-.02-.77-3.72,1.15-9.2,1.43-12.99.62-8.28,3.99-17.24,9.75-24.06,7.84-9.29,16.85-12.08,27.84-12.08M263.02,409.41v7-7h0c-14.46,0-24.69,4.49-33.19,14.56-6.48,7.68-10.62,17.91-11.38,28.06-.07.94-.34,2.29-.62,3.73-.69,3.48-1.46,7.42-.69,11.19.65,3.17,3.39,5.48,6.62,5.59.54.02,1.08.03,1.62.03,14.15,0,27.49-6.19,36.6-16.99,9.51-11.28,13.26-26.05,10.28-40.53-.65-3.17-3.39-5.48-6.62-5.58-.89-.03-1.77-.05-2.62-.05h0Z"/>
        <path d="M276.97,413.35c11.74,0,27.63,9.43,36.55,17.15,9.85,8.52,8.51,25.19,8.51,25.19,0,0-9.18-1.27-12.97-1.6-8.27-.72-17.19-4.21-23.94-10.05-9.85-8.52-12.22-18.29-11.66-30.37,1.12-.22,2.29-.32,3.51-.32M276.97,406.35h0c-1.68,0-3.31.15-4.83.44-3.18.61-5.52,3.32-5.67,6.55-.49,10.66.66,24.39,14.07,35.99,7.6,6.57,17.77,10.85,27.91,11.73,3.57.31,12.53,1.54,12.62,1.56.32.04.64.07.96.07,1.59,0,3.13-.54,4.38-1.54,1.5-1.21,2.44-2.98,2.59-4.9.07-.82,1.47-20.32-10.91-31.04-8.09-7-25.87-18.86-41.13-18.86h0Z"/>
        <path class="cls-6" d="M224,465.54c-.77-3.72,1.15-9.2,1.43-12.99.62-8.28,3.99-17.24,9.75-24.06,8.4-9.95,18.14-12.44,30.23-12.04,2.44,11.85-.38,24.65-8.77,34.61-8.4,9.95-20.55,14.89-32.63,14.48h0Z"/>
        <path class="cls-6" d="M322.03,455.68s-9.18-1.27-12.97-1.6c-8.27-.72-17.19-4.21-23.94-10.05-9.85-8.52-12.22-18.29-11.66-30.37,11.88-2.29,30.21,8.31,40.05,16.83,9.85,8.52,8.51,25.19,8.51,25.19h0Z"/>
        <path d="M236.8,454c-.43-.05-.85-.18-1.26-.38-1.77-.92-2.46-3.1-1.54-4.87,4.78-9.2,9.46-13.34,13.99-17.36,4.55-4.03,8.84-7.83,13.66-17.14.92-1.77,3.1-2.47,4.87-1.55.13.07.25.14.37.22,0-.54.13-1.09.39-1.6.9-1.78,3.07-2.5,4.86-1.6,17.23,8.71,24.28,15.7,30.51,21.87,1.67,1.66,3.25,3.22,4.99,4.8,1.48,1.34,1.59,3.63.25,5.11-1.34,1.48-3.62,1.59-5.11.25-1.86-1.69-3.57-3.38-5.22-5.02-6.13-6.08-12.47-12.36-28.68-20.55-.14-.07-.27-.15-.4-.23,0,.55-.13,1.11-.41,1.63-5.43,10.5-10.44,14.94-15.28,19.23-4.22,3.74-8.21,7.27-12.37,15.28-.71,1.37-2.17,2.09-3.62,1.93Z"/>
        <path class="cls-6" d="M270.2,406.15c5.21-.54,9.86,3.1,10.38,8.12.52,5.02-3.28,9.54-8.49,10.08-5.21.54-10.45-1-10.97-6.03-.52-5.02,3.87-11.63,9.08-12.17h0Z"/>
        <path class="cls-5" d="M269.45,398.96c9.25-.96,17.39,5.64,18.32,14.56.93,8.92-5.68,17.06-14.93,18.02s-17.97-3.38-18.91-12.47c-.43-4.1.96-8.9,3.71-12.73,2.93-4.08,7.28-6.91,11.81-7.39h0ZM270.2,406.15c-5.21.54-9.6,7.15-9.08,12.17.52,5.02,5.77,6.57,10.97,6.03,5.21-.54,9.01-5.06,8.49-10.08-.52-5.02-5.18-8.66-10.38-8.12h0Z"/>
      </g>
      <g>
        <path class="cls-1" d="M182.93,409.43c-9.84,0-20.02-2.58-29.46-7.47-1.49-.69-3.25-2.03-5.28-3.58-1.6-1.22-4.55-3.46-5.63-3.77-.25,0-.49-.01-.74-.01-2.71,0-5.35.42-8.14.85-2.91.46-5.92.93-9.14.93-2.52,0-4.88-.29-7.19-.89-13.43-3.48-23.98-11.11-31.37-22.66-10.05-15.74-7.04-30.54-3.78-44.87-.77-1.51-1.7-3.1-2.61-4.66-.76-1.31-1.55-2.66-2.26-3.97-3.91-7.35-6.19-15.63-6.58-23.94-.93-16.98,4.59-27.27,15.09-40.32,6.47-8.04,13.44-12.21,20.18-16.25,3.9-2.33,7.93-4.75,11.89-7.93,3.54-2.85,6.76-5.87,9.88-8.79,5.76-5.4,11.71-10.99,19.83-15.63,8.91-5.1,18.4-7.47,29.86-7.47,7.45,0,14.76.96,22.5,1.98,3.34.44,6.79.89,10.24,1.26,2.86.31,5.38.46,7.72.46,9.28,0,16.27-2.34,24.13-8.09,2.66-1.94,5.16-3.85,7.59-5.71,13.15-10.03,24.51-18.7,44.6-19.75.31-.02.62-.02.94-.02,1.1,0,2.13.09,3.14.18l.92.08c8.47.72,16.9,3.1,25.06,5.4,3.37.95,6.55,1.85,9.73,2.64,5.29,1.23,10.71,2.58,15.95,3.89,4.28,1.07,8.57,2.14,12.84,3.16,31,7.4,46.68,29.66,44.29,62.75,7.51,8.92,11.53,15.96,15.13,26.36,7.68,22.17-1.42,48.76-21.16,61.84-3.48,2.31-6.83,3.45-9.78,4.45-2.89.98-5.38,1.83-7.85,3.6-1.01.72-1.9,2.58-2.68,4.21-.32.67-.64,1.33-.96,1.94-7.68,14.37-18.85,20.36-34.38,25.37-4.16,1.29-10.29,2.79-17.38,4.54-9.5,2.34-20.26,4.98-29.09,7.79-11.5,3.65-14.48,5.98-15.22,6.78l1.09,2.94-3.6,1.06c-9.24,2.71-19.45,4.15-29.54,4.15-10.12,0-19.72-1.38-28.54-4.1-.9-.28-1.64-.41-2.26-.41-.99,0-1.98.34-3.77,1.3-5.62,2.9-11.93,6.16-18.85,8.22-4.92,1.46-10.1,2.21-15.38,2.21Z"/>
        <path d="M295.23,172.62c1.26,0,2.53.15,3.79.24,11.45.97,23.12,5.2,34.22,7.95,9.6,2.24,19.23,4.77,28.81,7.05,30.92,7.38,44.22,29.5,41.5,60.51,7.36,8.57,11.61,15.31,15.43,26.34,7.25,20.93-1.45,45.62-19.79,57.77-6.3,4.18-12.04,4.03-17.73,8.12-2.26,1.62-3.39,4.91-4.69,7.34-7.39,13.83-18.26,19.14-32.37,23.69-16.22,5.01-67.28,14.48-64.11,23.07-8.95,2.63-18.76,4-28.55,4s-18.86-1.28-27.51-3.94c-1.25-.39-2.31-.57-3.3-.57-1.83,0-3.38.62-5.42,1.71-5.88,3.03-11.79,6.04-18.2,7.95-4.72,1.41-9.56,2.06-14.38,2.06-9.66,0-19.28-2.62-27.92-7.12-2.87-1.28-9.38-7.6-12.21-7.69-.33-.01-.65-.02-.98-.02-5.96,0-11.37,1.78-17.28,1.78-2.03,0-4.12-.21-6.31-.78-12.56-3.26-22.33-10.26-29.29-21.15-9.25-14.48-6.61-27.78-3.04-43.41-1.5-3.22-3.76-6.66-5.46-9.85-3.69-6.94-5.8-14.6-6.17-22.45-.88-16.1,4.49-25.75,14.32-37.96,9.73-12.1,20.49-14.76,31.54-23.65,10.2-8.2,17.17-17.2,29.26-24.11,9.39-5.37,18.68-7.01,28.12-7.01,10.49,0,21.17,2.03,32.37,3.21,2.85.31,5.53.47,8.09.47,9.56,0,17.43-2.36,26.2-8.77,17.16-12.54,27.76-23.61,50.31-24.79.25-.01.5-.02.75-.02M295.23,165.62c-.37,0-.74,0-1.12.03-21.18,1.11-32.94,10.08-46.55,20.47-2.41,1.84-4.9,3.74-7.53,5.66-7.21,5.27-13.6,7.42-22.07,7.42-2.21,0-4.61-.14-7.34-.43-3.41-.36-6.84-.81-10.16-1.25-7.51-.99-15.28-2.01-22.96-2.01-12.1,0-22.14,2.52-31.6,7.93-8.48,4.85-14.59,10.58-20.49,16.12-3.21,3.01-6.24,5.85-9.67,8.61-3.77,3.03-7.53,5.28-11.5,7.66-7,4.19-14.25,8.53-21.11,17.06-10.79,13.41-16.85,24.7-15.86,42.74.42,8.77,2.83,17.56,6.98,25.36.74,1.39,1.55,2.77,2.33,4.1.68,1.17,1.34,2.3,1.93,3.38-3.17,14.07-5.98,29.82,4.53,46.26,7.87,12.32,19.12,20.45,33.44,24.16,2.6.67,5.24,1,8.07,1,3.49,0,6.64-.5,9.68-.97,2.63-.41,5.11-.8,7.54-.81,1.07.6,3.06,2.12,4.31,3.07,2.16,1.64,4.04,3.07,5.85,3.93,9.91,5.12,20.63,7.83,31,7.83,5.62,0,11.13-.79,16.38-2.35,7.23-2.15,13.71-5.49,19.42-8.44l.04-.02.04-.02c1.11-.59,1.81-.88,2.12-.88.15,0,.51.03,1.24.26,9.15,2.82,19.1,4.25,29.57,4.25s20.97-1.48,30.52-4.29l7.19-2.11-1.46-3.95c1.9-1.06,5.81-2.82,13.66-5.24,8.42-2.59,18.43-5.05,27.27-7.23,7.14-1.76,13.31-3.28,17.53-4.58h.04s.04-.03.04-.03c16.36-5.28,28.16-11.65,36.39-27.06.37-.7.71-1.4,1.03-2.07.45-.93,1.19-2.48,1.62-2.92,2.03-1.44,4.17-2.17,6.88-3.09,3.15-1.07,6.72-2.29,10.59-4.85,10.18-6.74,18.07-17.09,22.24-29.14,4.19-12.14,4.3-25.2.3-36.76-3.61-10.43-7.62-17.61-14.86-26.38.93-16.07-2.25-29.74-9.49-40.65-8.03-12.11-20.67-20.3-37.57-24.33-4.25-1.01-8.6-2.1-12.8-3.15-5.24-1.31-10.65-2.66-16-3.9-3.11-.77-6.25-1.66-9.58-2.6-8.31-2.35-16.91-4.78-25.69-5.52h-.03s-.03,0-.03,0c-.29-.02-.59-.05-.88-.07-1.03-.09-2.19-.19-3.44-.19h0Z"/>
      </g>
      <path class="cls-3" d="M162.69,313.21c16.15-1.56,30.49,10.33,31.95,26.49,1.46,16.16-10.51,30.43-26.68,31.8-16.04,1.36-30.16-10.5-31.61-26.53-1.45-16.03,10.32-30.22,26.34-31.76"/>
      <path class="cls-3" d="M356.07,269.04c15.98-1.81,30.4,9.66,32.23,25.63,1.83,15.97-9.63,30.41-25.6,32.26-15.99,1.85-30.46-9.63-32.29-25.63-1.83-16,9.66-30.45,25.66-32.27"/>
      <path class="cls-10" d="M269.38,314.5c2.81.1,5.53,1.05,7.8,2.72,11.81,8.8,10.3,38.66-9.13,40.58-9.1-.79-14.16-5.83-15.22-14.75-1.49-12.6,2.31-26.62,16.55-28.55"/>
      <path class="cls-8" d="M267.96,321.68c.73-.2,2.34.1,2.94.35,8.09,3.3,8.4,17.57,4.14,24.01-1.77,2.67-2.73,3.48-5.3,4.78-11.42,1.13-11.19-13.04-8.81-20.53,1.37-4.31,3.01-6.58,7.03-8.59"/>
      <path class="cls-10" d="M300.81,251.41c7.27-1.45,14.36,3.19,15.92,10.44,1.56,7.24-2.98,14.4-10.2,16.08-4.77,1.11-9.76-.44-13.07-4.05-3.31-3.61-4.41-8.72-2.89-13.38,1.52-4.65,5.43-8.12,10.23-9.08"/>
      <path class="cls-10" d="M203.3,274.3c7.4-.72,14,4.66,14.78,12.06.78,7.39-4.55,14.03-11.95,14.87-7.47.84-14.2-4.56-14.98-12.04-.79-7.48,4.67-14.16,12.15-14.89"/>
      <path class="cls-10" d="M191.79,240.73c2.79-.17,12.09-1.04,9.51,5-1.52,3.56-7.7,1.86-11.03,3.02-5.74,2.01-8.93,7.08-11.57,12.27-1.29,2.35-2.31,3.1-5.08,2.9-.56-.33-1.32-.73-1.33-1.47-.19-11.45,10.42-19.26,19.49-21.72"/>
      <ellipse class="cls-10" cx="259.17" cy="293.5" rx="9.17" ry="5.5" transform="translate(-34.46 34.48) rotate(-7.14)"/>
      <g>
        <path class="cls-2" d="M87.18,243.31c.06-7.49.77-15.03,2.11-22.41,3.63-19.27,20.55-77.12,37.16-93.38,3.69-3.61,7.35-5.45,10.89-5.46,4.07,0,7.23,1.95,10.03,3.67,2.23,1.38,4.16,2.57,6.19,2.67,1.16-.96,2.05-6.26,2.49-8.84.41-2.43.79-4.72,1.42-6.5,4.07-11.51,9.72-22.14,16.78-31.58,3.59-4.79,8.5-10.43,14.75-11.44l.18-.03h.18c.31-.03.62-.04.94-.04,4.11,0,8.31,1.56,11.68,2.81l.83.31c13.31,4.9,26.62,12.72,41.88,24.59,2.76,2.15,5.42,4.4,7.99,6.58,1.39,1.18,2.78,2.35,4.19,3.52l.18.12c1,.68,1.9,1.41,2.77,2.12.91.74,1.76,1.45,2.58,1.95.47.29,1.17.64,1.76.64,1.38,0,3.15-2.18,4.71-4.11,1.06-1.31,2.16-2.66,3.42-3.78,1.77-1.56,3.94-2.35,6.44-2.35,5.12,0,10.47,3.33,14.77,6.01,1.08.67,2.1,1.31,2.89,1.74l.16.09.15.1c21.96,15.11,40.76,33.37,52.67,46.02,4.52,4.81,11.4,14.97,13.84,21.36l2.06,5.41-5.75-.69c-10.03-1.2-19.91-3.93-29.46-6.56-12.81-3.54-24.92-6.88-37.39-6.88-1.04,0-2.08.02-3.09.07-13.68.64-31.11,11.15-41.5,20.64-9.42,8.6-18.99,12.43-31.04,12.44-5.78,0-11.83-.83-18.23-1.71-2.19-.3-4.45-.61-6.79-.9-4.9-.61-9.57-.92-13.89-.92-16.59,0-29.59,4.42-39.72,13.52-2.4,2.06-4.83,4.28-7.4,6.64-5.12,4.69-10.42,9.54-15.6,13.18-3.47,2.44-6.83,4.31-10.07,6.13-4.23,2.36-8.22,4.6-12.45,7.99l-5.75,4.6.06-7.37Z"/>
        <path d="M190.29,73.49c3.79,0,7.92,1.66,11.31,2.91,15.02,5.53,28.37,14.29,40.94,24.07,4.2,3.27,8.14,6.77,12.24,10.15l.33.22c1.85,1.25,3.57,2.98,5.44,4.13,1.32.82,2.51,1.16,3.59,1.16,4.45,0,7.13-5.84,10.44-8.76,1.19-1.05,2.6-1.48,4.12-1.48,5.35,0,12.16,5.24,15.99,7.33,18.47,12.71,36.74,29.21,52.11,45.54,4.51,4.8,10.94,14.5,13.12,20.2-22.74-2.72-44.57-13.46-67.26-13.47-1.08,0-2.16.02-3.25.08-14.74.69-33.09,11.87-43.7,21.55-9.87,9.01-18.85,11.52-28.68,11.52-7.46,0-15.4-1.44-24.59-2.58-4.77-.59-9.57-.94-14.32-.94-15.24,0-30.02,3.6-42.06,14.41-7.08,6.07-15.14,14.27-22.67,19.56-7.68,5.4-14.84,7.96-22.7,14.25.06-7.32.75-14.62,2.05-21.82,4.01-21.28,21.02-76.67,36.17-91.5,2.19-2.14,5.28-4.45,8.45-4.46,0,0,.02,0,.03,0,5.99,0,10.08,6.11,16.11,6.35.05,0,.1,0,.15,0,5.5,0,5.33-12.57,7.13-17.68,3.89-11,9.28-21.29,16.28-30.65,2.88-3.85,7.39-9.25,12.51-10.08.24-.01.48-.02.73-.02M190.29,66.49c-.38,0-.77.01-1.14.03l-.35.02-.35.06c-7.49,1.22-13.02,7.48-17,12.8-7.27,9.73-13.08,20.66-17.27,32.51-.73,2.07-1.14,4.51-1.57,7.09-.23,1.38-.59,3.53-1.01,5.17-.74-.39-1.55-.89-2.38-1.4-3.03-1.87-6.8-4.2-11.83-4.2-4.53.01-9.02,2.18-13.38,6.46-17.16,16.8-34.47,75.67-38.15,95.21v.02s0,.02,0,.02c-1.37,7.57-2.1,15.31-2.17,23l-.13,14.73,11.5-9.21c4.01-3.21,7.88-5.37,11.97-7.66,3.33-1.86,6.76-3.78,10.38-6.32,5.37-3.77,10.75-8.7,15.95-13.47,2.55-2.33,4.96-4.54,7.25-6.51l.06-.05.06-.05c9.47-8.49,21.69-12.62,37.39-12.62,4.18,0,8.71.3,13.46.89,2.31.29,4.57.6,6.75.9,6.52.9,12.69,1.74,18.71,1.74,12.99,0,23.29-4.12,33.4-13.35,10.26-9.37,27.06-19.15,39.31-19.73.96-.04,1.94-.07,2.92-.07,12,0,23.88,3.28,36.46,6.75,9.68,2.67,19.68,5.43,29.97,6.66l11.5,1.38-4.13-10.82c-2.66-6.96-9.81-17.45-14.56-22.5-12.02-12.78-31.02-31.22-53.24-46.51l-.3-.21-.32-.17c-.7-.38-1.68-.99-2.71-1.64-4.43-2.76-10.5-6.54-16.62-6.54-3.34,0-6.37,1.12-8.76,3.23-1.48,1.31-2.72,2.84-3.82,4.2-.6.74-1.51,1.87-2.18,2.52-.56-.38-1.23-.93-1.92-1.5-.89-.73-1.89-1.55-3.01-2.3l-.02-.02h-.02s-.03-.03-.03-.03c-1.34-1.11-2.7-2.26-4.02-3.38-2.6-2.2-5.29-4.48-8.1-6.67-15.55-12.1-29.16-20.08-42.82-25.12l-.82-.3c-3.64-1.35-8.17-3.04-12.91-3.04h0Z"/>
      </g>
      <path class="cls-7" d="M153.5,131.91c4.7-3.16,5.46-12.53,7.28-17.67,3.89-11,9.28-21.29,16.28-30.65,2.88-3.85,7.39-9.25,12.51-10.08,3.98-.24,8.43,1.56,12.04,2.89,15.02,5.53,28.37,14.29,40.94,24.07,4.2,3.27,8.14,6.77,12.24,10.15-1.07,2.09,1.04,6.25.58,8.98-1.99,11.76-12.14,19.24-23.89,14.94-3.59-1.31-8.84-5.14-12.22-7.22-5.15,19.75-17.23,26.63-37,21.69-9.55-2.38-16.65-7.36-24.13-13.5-.62-.51-4.33-3.23-4.62-3.6"/>
      <path class="cls-9" d="M159.09,141.81c2.08.4,4.7,1.94,5.2,4.12-2.61-.38-4.71-1.39-5.2-4.12"/>
      <g>
        <path class="cls-1" d="M347.87,457.79c-15.63,0-30.64-8.55-41.18-23.47-7.34-10.38-10.22-16.95-12.98-29.9-.8-.79-1.74-1.55-2.72-2.35-2.95-2.38-6.62-5.34-7.54-10.69-.72-4.16,1.03-12.45,2.19-17.23-8.34-2.22-19.33-6.37-20.67-12.95-.53-2.63.58-5.17,3.05-6.94,3.44-2.48,7.57-3.69,12.62-3.69,4.49,0,9.3.92,14.39,1.89,5.93,1.13,12.07,2.31,18.69,2.31h0c3.43,0,6.64-.31,9.78-.96.05-.13.1-.26.15-.38,1.36-3.47,3.9-9.93,9.91-11.88,1.94-.63,3.63-.94,5.15-.94,2.86,0,5.19,1.16,6.56,3.28,3.65,5.63-.57,16.27-5.22,26.68-.58,1.31-1.19,2.66-1.33,3.1-.56,1.73-.39,3.64.46,5.24,1.2,2.3,2.54,4.6,3.92,6.88-1.78-3.18-2.47-5.24-2.09-7.04l.27-1.29,1.06-.79c1.36-1.01,3.29-1.62,5.17-1.62,1.51,0,2.88.4,3.97,1.14,18.58,12.85,36.89,47.34,24.11,68.64l-.07.12-.08.11c-4.44,6.24-10.54,10.11-18.66,11.84-2.99.6-5.97.9-8.91.9ZM349.44,396.04c.77,1.28,1.53,2.62,2.26,3.92.79,1.41,1.6,2.84,2.45,4.22-1.27-2.51-3.08-5.53-4.71-8.14Z"/>
        <path d="M338.71,344.1c11.2,0-2.14,24.8-3.32,28.49-.85,2.63-.59,5.5.7,7.95,3.07,5.89,6.89,11.56,10.32,17.25,2.29,3.79,4.4,8.06,7.01,11.61.62.85,1.6,1.86,2.68,2.07.14.03.28.04.43.04.66,0,1.42-.23,1.9-.62,5.06-4.12-14.86-27.4-14-31.42.75-.56,1.95-.93,3.08-.93.74,0,1.45.16,1.98.52,16.79,11.62,34.85,44.37,23.09,63.96-4.11,5.77-9.65,8.98-16.53,10.44-2.78.56-5.51.82-8.18.82-15.59,0-29.18-9.05-38.32-21.99-7.52-10.63-9.97-16.83-12.62-29.56-3.43-3.92-9.01-5.99-10.03-11.95-.59-3.4,1.07-12.14,3.01-19.18-17.83-4.08-25.23-10.63-19.85-14.51,3.11-2.24,6.65-3.03,10.57-3.03,9.09,0,20.27,4.2,33.08,4.2,3.88,0,7.91-.38,12.07-1.39,1-.24,2.61-9.98,8.85-12.01,1.62-.53,2.96-.77,4.07-.77M338.71,337.1h0c-1.9,0-3.94.36-6.24,1.11-6.71,2.18-9.86,8.49-11.51,12.5-2.33.37-4.72.55-7.25.55-6.29,0-12.26-1.14-18.04-2.24-5.26-1-10.23-1.95-15.05-1.95-5.81,0-10.61,1.42-14.66,4.35-3.58,2.58-5.23,6.5-4.43,10.48,1.46,7.22,10.59,11.84,19.93,14.71-1.11,5.1-2.14,11.48-1.47,15.37,1.14,6.65,5.56,10.22,8.79,12.82.61.49,1.2.97,1.73,1.44,2.82,12.79,5.86,19.56,13.32,30.11,11.2,15.86,27.25,24.95,44.04,24.95,3.17,0,6.39-.32,9.56-.96h.04s.04-.02.04-.02c9.01-1.92,15.81-6.25,20.78-13.23l.16-.22.14-.23c6.48-10.8,6.34-25.47-.4-41.31-5.55-13.03-15.01-25.3-24.71-32-1.68-1.16-3.74-1.77-5.96-1.77-1.51,0-3.03.28-4.42.79.05-.12.1-.23.15-.35,5.25-11.76,9.57-22.9,4.96-30.01-2.04-3.14-5.41-4.87-9.49-4.87h0Z"/>
      </g>
      <path class="cls-10" d="M393.08,20.44c13.15-.4,23.76,4.47,32.44,14.23,10.63,12.21,11.02,30-1.04,41.32-9.72,9.12-17.99,6.88-29.13,11.22-5.24,2.04-7.47,10.92-15.35,9.44-5.52-1.04-8.74-3-12.06-7.32-3.28-5.93.9-12.27,4.72-16.68,5.86-7.01,13.63-9.82,22.33-11.56,6.93-1.39,10.17-1.82,11.79-9.08-4.83-6.72-11.36-5.77-17.63-1.65-5.91,3.88-11.18,4.46-17.19.35-7.5-5.14-6.25-13.41-.9-19.62,5.99-6.95,13.04-9.8,22.03-10.66"/>
      <path class="cls-11" d="M392.19,27.38c17.17-2.47,36.86,12.71,34.54,30.84-1.22,9.56-8.66,16.79-17.87,18.93-5.06,1.17-10.36.83-15.15,3.21-5.93,2.72-7.77,6.38-12.5,10.08-4.49-1.55-9.13-4.08-6.54-9.44,6.37-9.88,13.84-11.54,24.78-13.75,7.06-1.42,12.42-5.25,12.99-12.88.42-5.66-1.31-8.91-6.25-11.65-5.72-3.17-12.26-3.31-17.8.37-1.87,1.23-4.47,2.99-6.59,3.54-1.95.5-4.01.18-5.72-.9-4.42-2.76-2.72-6.5-.25-9.77,4.38-5.8,9.4-7.61,16.36-8.58"/>
      <path class="cls-10" d="M36.03,117.12c3.2-.31,6.43-.13,9.58.53,19.01,4,26.51,24.51,19.18,41.09-1.21,2.74-3.44,7.69-3.75,10.52-.53,4.76,2.77,10.29,1.51,15.19-.68,4.73-11.21,11.22-15.65,9.25-13.52-5.99-12.51-22.24-9.51-33.12,1.55-3.84,3.48-7.86,3.44-12.11-.02-2.8-2.29-6.24-5.51-5.58-13.32,2.75-4.77,15.96-11.57,23.82-5.02,5.8-12.64,6.5-18.66,1.61C.08,164.17-.29,156.63.12,150.59c.85-12.3,9.65-23.45,20.3-29.12,5.28-2.81,9.78-3.83,15.6-4.35"/>
      <path class="cls-11" d="M36.64,123.43c4.73-.22,8.61-.05,12.89,2.31,9.09,4.2,13.84,18.17,10.15,27.37-5.16,12.87-7.41,14.77-3.03,29.18-1.48,1.82-6.29,6.17-8.21,5.36-6.07-2.55-7.14-13.43-6.18-18.23,1.52-7.62,4.35-12.72,4.93-19.38.12-8.19-5.14-15-14.23-13.35-4.71.86-8.95,4.55-10.95,8.8-2.49,3.8-.59,13.84-3.47,16.98-5.37,5.86-10.69,1.46-11.58-4.92-2.58-18.36,11.94-32.08,29.69-34.13"/>
      <path class="cls-10" d="M322.38.13c9.95-.79,20.74,1.93,27.8,9.35,5.38,5.66,7.56,11.7,7.44,19.38-.17,10.78-7.02,17.42-15.46,23.11-1.77,1.22-5.3,3.64-6.65,5.2-2.63,3.2-2.25,7.96-5.4,10.8-4.59,4.13-14.01,3.73-17.87-1.3-2.25-2.94-2.34-5.45-1.93-8.97,1.55-9.59,6.39-15.85,14.22-21.29,2.47-1.8,4.98-3.31,6.8-5.84,1.48-2.06,1.71-4.73-.92-6.03-10.39-5.14-11.43,9.48-19.84,11.11-3.36.65-7.37-.14-10.28-1.98-7.3-4.63-4.74-15.95-.38-21.77,5.77-7.71,13.23-10.37,22.47-11.76"/>
      <path class="cls-11" d="M324.13,6.46c11.02-.31,22.87,4.59,26.32,16,2.59,7.62-1.97,17.31-8.31,21.49-8.31,5.49-12.86,7.92-16.19,17.74-.92,2.71-8.76,3.42-8.92-1.5-.16-4.79,2.42-9.07,5.32-12.72,3.94-4.45,10.36-8.07,13.61-12.25,2.15-2.72,3.07-6.22,2.53-9.65-.43-2.86-2.04-5.41-4.44-7.03-2.28-1.57-4.57-1.94-7.26-1.84-12.73.48-12.25,11.69-18.65,12.61-1.46.21-3.04-.17-4.21-1.08-1.03-.8-1.65-1.9-1.8-3.2-.38-3.42,1.89-7.68,3.96-10.34,4.43-5.68,11.19-7.45,18.04-8.24"/>
      <path class="cls-10" d="M367.23,94.55c7.84-.23,14.43,5.86,14.81,13.7.39,7.84-5.57,14.55-13.4,15.09-5.21.36-10.21-2.12-13.06-6.49-2.86-4.37-3.13-9.94-.72-14.57,2.42-4.63,7.14-7.59,12.37-7.74"/>
      <path class="cls-11" d="M366.9,101.33c4.16-.38,7.87,2.63,8.34,6.78.47,4.16-2.47,7.92-6.61,8.48-2.76.37-5.5-.78-7.17-3-1.67-2.23-2.01-5.18-.88-7.73,1.13-2.54,3.55-4.28,6.32-4.54"/>
      <path class="cls-10" d="M61.76,190.86c7.69-.95,14.7,4.51,15.66,12.2.96,7.69-4.5,14.7-12.19,15.66-7.7.96-14.72-4.5-15.68-12.2-.96-7.7,4.51-14.71,12.21-15.67"/>
      <path class="cls-11" d="M62.86,197.58c3.96-.33,7.47,2.54,7.93,6.49.46,3.95-2.28,7.55-6.21,8.15-2.67.41-5.34-.67-6.98-2.81-1.64-2.14-1.97-5.01-.88-7.47,1.1-2.46,3.45-4.13,6.13-4.36"/>
      <path class="cls-10" d="M315.76,71.49c6.82-2.06,14.02,1.81,16.07,8.64,2.04,6.83-1.86,14.02-8.7,16.03-6.81,2.01-13.95-1.87-15.98-8.67-2.03-6.8,1.82-13.96,8.61-16.01"/>
      <path class="cls-11" d="M318.59,77.81c1.27-.08,2.24-.06,3.45.47,1.48.63,2.65,1.83,3.23,3.33.59,1.57.52,3.32-.22,4.83-.92,1.88-2.01,2.68-3.9,3.38-1.34.03-3.7.2-4.71-.6-5.35-4.25-4.19-9.73,2.15-11.41"/>
    </g>
  </g>
</svg>