<?xml version="1.0" encoding="UTF-8"?>
<svg id="Layer_2" data-name="Layer 2" xmlns="http://www.w3.org/2000/svg" viewBox="0 0 577.42 599.51">
  <defs>
    <style>
      .cls-1 {
        fill: #f6adde;
      }

      .cls-2 {
        fill: #fff;
      }

      .cls-3 {
        fill: #60bed7;
      }

      .cls-4 {
        fill: #44924a;
      }

      .cls-5 {
        fill: #050505;
      }

      .cls-6 {
        fill: #e575b7;
      }

      .cls-7 {
        fill: #bab9b9;
      }

      .cls-8 {
        fill: #70af5d;
      }

      .cls-9 {
        fill: #9c314e;
      }

      .cls-10 {
        fill: #d85654;
      }

      .cls-11 {
        fill: #f28584;
      }

      .cls-12 {
        fill: #8bcd62;
      }

      .cls-13 {
        fill: #f99dab;
      }

      .cls-14 {
        fill: #f5658c;
      }

      .cls-15 {
        fill: #bc607c;
      }

      .cls-16 {
        fill: #f9d9f5;
      }

      .cls-17 {
        fill: #f2cfd1;
      }

      .cls-18 {
        fill: #c790de;
      }

      .cls-19 {
        fill: #ae435f;
      }

      .cls-20 {
        fill: none;
        stroke: #d85654;
        stroke-linecap: round;
        stroke-miterlimit: 10;
        stroke-width: 6px;
      }
    </style>
  </defs>
  <g id="Layer_1-2" data-name="Layer 1">
    <g>
      <g>
        <path class="cls-2" d="M196.61,515.01c-1.26,0-2.43-.68-3.05-1.79l-2.6-4.65c-3.13-5.46-7.43-12.98-2.98-21.26,3.24-6.03,8.97-8.05,14.09-9.47.31-.08.62-.13.93-.13.26,0,.51.03.77.08l.4.09c1.06.24,1.95.96,2.41,1.94l.23.49c.28.61.38,1.29.29,1.95-1.37,9.84-3.43,22.22-7.29,30.69-.55,1.2-1.72,1.99-3.04,2.04-.05,0-.1,0-.15,0Z"/>
        <path d="M202.99,481.22l.4.09.23.49c-1.25,8.99-3.26,21.5-7.01,29.72l-2.6-4.65c-3.19-5.57-6.42-11.44-2.95-17.89,2.54-4.73,7.09-6.41,11.94-7.75M202.99,474.22c-.63,0-1.26.08-1.87.25-4.2,1.16-12.02,3.33-16.24,11.19-5.36,9.97-.32,18.8,3.03,24.65l2.59,4.62c1.24,2.22,3.58,3.58,6.11,3.58.1,0,.19,0,.29,0,2.63-.11,4.98-1.69,6.08-4.09,4.05-8.88,6.18-21.58,7.58-31.66.18-1.33-.02-2.69-.58-3.91l-.23-.49c-.92-1.98-2.7-3.41-4.83-3.89l-.4-.09c-.5-.11-1.01-.17-1.52-.17h0Z"/>
      </g>
      <g>
        <path class="cls-2" d="M329.66,471.05c-1.33-.43-2.92-.97-4.6-1.54-3.39-1.15-7.23-2.46-9.69-3.06l-.74-.18-.59-.47c-1.51-1.2-3.6-2.04-5.72-2.81-3.62,2.51-7.65,4.51-12.26,6.09-.7.24-1.41.36-2.1.36h0c-7.18,0-7.71-10.51-8.07-17.47-.04-.89-.08-1.63-.13-2.16-.33-3.12,1.26-6.54,3.06-10.07l.07-.14c1.69-5.55,2.09-9.08,1.65-14.37-.65-7.28-4.09-13.91-9.66-18.67-4.88-4.08-9.1-4.92-13.92-4.92-1.5,0-3.2.09-5.35.29-.97.27-1.98.5-2.96.72-1.46.33-2.98.68-4.01,1.1l-6.62,2.68,2.08-7.41c.07-.51.09-1.59.07-2.78-8.37,4.86-18.98,7.49-30.51,7.49-5.52,0-10.94-.6-16.11-1.79-6.73-1.55-12.38-5.42-17.85-9.17-2.41-1.65-4.7-3.22-6.98-4.52-.53.09-1.04.18-1.55.27-5.32.95-9.92,1.76-14.86,1.76-4.15,0-8.19-.61-12.36-1.86-12.42-3.7-23.03-12.39-29.1-23.85-8.83-16.72-6-30.89-1.32-46.17-.21-.21-.42-.44-.61-.71-1.36-1.92-2.19-3.81-2.98-5.64-.39-.89-.75-1.72-1.17-2.53-5.24-10.22-6.93-22.93-4.64-34.86,3.13-18,16.92-34.51,35.96-43.03l1.56-.7c11.63-5.19,15.98-7.13,24.9-17,6.59-7.29,18.26-15.84,29.45-18.51,4.64-1.11,9.58-1.65,15.09-1.65,7.92,0,15.93,1.13,23.67,2.21,7.46,1.05,15.18,2.13,22.52,2.13,8.61,0,15.61-1.45,22.04-4.56,6.33-3.04,12.17-7.6,17.83-12.01,2-1.56,4.07-3.18,6.14-4.71,9.12-6.75,18.9-10.03,29.92-10.03s21.12,2.97,32.11,6.12c3.81,1.09,7.75,2.22,11.68,3.2,3.43.86,6.9,1.63,10.25,2.38,19.03,4.23,37,8.23,49.61,27.53,9.98,15.28,9.39,29.93,7.15,42.42,10.63,12.41,16.19,22.29,17.01,39.89.68,14.44-4.15,27.49-13.96,37.75-8.25,8.63-18.32,13.96-27.84,14.8-1.32,1.57-2.53,3.43-3.82,5.4-1.09,1.68-2.22,3.41-3.48,5.05-7.03,9.41-16.16,16.3-27.11,20.43-1.51.57-3.04.84-4.51,1.11-.03,0-.07.01-.1.02.76,1.67,1.88,4.69-.31,7.14-1.56,4.11-8.85,30.31-12.84,44.61-2.13,7.64-3.51,12.59-4.14,14.74,1.3,5.31,1.95,10.35,2.63,15.68l.55,4.28-4.3-.34c-5.56-.44-9.5-.92-14.4-2.12-1.22.88-4.1,2.97-5.01,3.76l-.41.73-1.19.45c-.54.25-2.38,1.65-3.17,2.24-.43.33-.82.62-1.12.84-3.82,2.75-6.24,4.27-10.46,6.04l-1.19.5-1.23-.39Z"/>
        <path d="M339.23,170.32c13.98,0,28.07,5.5,42.94,9.22,22.32,5.59,43.77,6.97,57.78,28.43,8.73,13.38,9.26,26.3,6.34,41.52,10.83,12.42,16.46,21.77,17.26,39.04.62,13.25-3.81,25.56-12.99,35.17-6.94,7.26-16.69,13.44-26.98,13.82l-.41.46c-2.9,3.2-5.17,7.58-8,11.26-6.6,8.83-15.26,15.39-25.56,19.28-2.37.9-5.23.95-7.77,1.84-.27,2.84,3.35,5.82,1.19,7.64-1.11.94-16.56,57.82-17.71,61.32,1.4,5.43,2.08,10.66,2.79,16.21-5.7-.45-9.76-.93-15.4-2.44-1.12.83-6.75,4.8-7.13,5.47-1.16.44-3.9,2.65-5.09,3.51-3.54,2.55-5.74,3.97-9.76,5.64-4.1-1.31-10.68-3.71-14.52-4.67-2.4-1.9-5.56-2.94-8.44-3.99-3.9,2.96-8.2,5.11-12.85,6.71-.34.12-.67.17-.97.17-4.59,0-4.37-12.96-4.72-16.47-.26-2.52,1.74-6.26,2.9-8.55,1.79-5.81,2.39-9.79,1.88-15.98-.73-8.17-4.64-15.72-10.88-21.04-5.37-4.49-10.34-5.76-16.19-5.76-1.89,0-3.88.13-6,.33-2.44.72-5.49,1.17-7.63,2.03l.16-.57c.38-1.1.22-8.82-.58-9.74-8.99,7.02-21.31,10.05-33.24,10.05-5.29,0-10.51-.6-15.32-1.71-9.19-2.12-16.75-9.43-24.6-13.72l-.41-.22c-6.36,1.1-11.57,2.2-17.02,2.2-3.56,0-7.21-.47-11.36-1.71-11.61-3.46-21.34-11.43-27.01-22.14-8.38-15.85-5.56-29.16-.54-45.18.26-.84-1.11-1.37-1.62-2.09-1.78-2.51-2.56-5.15-3.89-7.74-4.96-9.67-6.4-21.77-4.32-32.61,3.18-18.3,17.39-33.08,33.95-40.49,12.89-5.77,17.81-7.68,27.63-18.55,6.66-7.37,17.8-15.1,27.67-17.45,4.71-1.12,9.48-1.55,14.28-1.55,15.32,0,30.99,4.35,46.19,4.35,8.02,0,15.92-1.21,23.56-4.91,8.95-4.31,16.57-11.17,24.53-17.06,9.36-6.93,18.58-9.34,27.83-9.34M339.23,163.32c-11.79,0-22.26,3.5-32,10.71-2.11,1.56-4.2,3.19-6.22,4.77-5.76,4.49-11.2,8.73-17.18,11.61-5.95,2.88-12.47,4.22-20.53,4.22-7.1,0-14.35-1.02-22.03-2.1-7.86-1.11-16-2.25-24.16-2.25-5.79,0-10.99.57-15.91,1.74-11.93,2.84-24.28,11.88-31.24,19.57-8.43,9.32-12.29,11.05-23.74,16.16l-1.56.7c-20.07,8.98-34.62,26.45-37.98,45.62-2.41,12.67-.6,26.18,4.98,37.06.36.71.71,1.5,1.07,2.34.75,1.73,1.6,3.66,2.93,5.67-4.44,14.93-6.98,29.91,2.09,47.09,6.51,12.29,17.88,21.61,31.2,25.58,4.49,1.34,8.86,2,13.35,2,5.25,0,10.21-.88,15.46-1.81.09-.02.19-.03.29-.05,1.82,1.1,3.7,2.39,5.66,3.73,5.47,3.75,11.67,7.99,19.04,9.69,5.43,1.25,11.11,1.88,16.9,1.88,9.38,0,18.21-1.67,25.85-4.82l-2.79,9.93,13.22-5.36c.77-.31,2.15-.63,3.48-.93.92-.21,1.86-.42,2.8-.68,1.89-.17,3.4-.25,4.72-.25,4.16,0,7.57.69,11.67,4.11,4.86,4.16,7.85,9.95,8.42,16.32.39,4.7.06,7.77-1.42,12.72-1.55,3.03-3.81,7.54-3.35,11.91.03.35.07,1.12.12,1.94.13,2.63.34,6.61,1.09,10.08,2.02,9.33,7.43,10.72,10.48,10.72,1.08,0,2.17-.19,3.24-.55,4.27-1.47,8.08-3.27,11.55-5.49,1.23.5,2.34,1.03,3.11,1.64l1.19.94,1.47.36c2.32.57,6.09,1.85,9.41,2.98,1.69.57,3.28,1.11,4.65,1.55l2.45.79,2.38-.99c4.52-1.88,7.2-3.57,11.16-6.42.33-.24.74-.55,1.2-.89.66-.5,1.98-1.5,2.58-1.86l2.09-.8.71-1.26c.74-.59,1.99-1.51,3.04-2.27,4.41.99,8.22,1.43,13.36,1.84l8.6.68-1.1-8.56c-.63-4.9-1.28-9.95-2.49-15.14.7-2.43,1.94-6.89,3.89-13.89,3.82-13.71,10.75-38.62,12.57-43.84,1.3-1.77,1.88-3.95,1.63-6.23.47-.14.95-.29,1.42-.47,11.57-4.36,21.22-11.63,28.67-21.61,1.33-1.74,2.49-3.51,3.61-5.23.93-1.43,1.83-2.8,2.72-3.99,9.9-1.32,20.14-6.91,28.54-15.7,10.49-10.97,15.65-24.91,14.92-40.33-.84-17.89-6.55-28.54-16.78-40.74,2.11-12.8,2.26-27.68-7.95-43.32-13.39-20.5-32.9-24.84-51.78-29.04-3.33-.74-6.77-1.51-10.16-2.35-3.87-.97-7.78-2.09-11.56-3.17-10.74-3.08-21.85-6.26-33.07-6.26h0Z"/>
      </g>
      <path class="cls-4" d="M289.24,449.48c4.41,2.41,15.18,7.21,18.53,9.59-3.9,2.96-8.2,5.11-12.85,6.71-5.59,1.92-5.32-12.55-5.69-16.29"/>
      <path class="cls-4" d="M365.31,439.32c1.4,5.43,2.08,10.66,2.79,16.21-5.7-.45-9.76-.93-15.4-2.44.76-2.26,9.29-10.73,11.2-13.16.25-.32,1-.52,1.41-.61"/>
      <g>
        <path class="cls-10" d="M301.63,350.11c-2.33,0-4.78-.46-7.28-1.38-10.08-3.68-16.52-13.65-20.16-21.42-3.69-6.24-6.33-18.73-7.13-25.19-.1-.83.15-1.67.69-2.32s1.34-1.02,2.18-1.05c14.95-.53,36.32-1.93,49.33-7.98.4-.19.83-.28,1.27-.28.5,0,.99.12,1.43.37.84.46,1.41,1.28,1.54,2.22,1.53,11.02.72,27.32-1.84,37.12-.24.86-.48,1.66-.74,2.47-3.61,11.09-10.64,17.44-19.28,17.44Z"/>
        <path d="M320.53,293.49c1.43,10.27.8,26.09-1.77,35.94-.22.77-.45,1.54-.7,2.3-2.77,8.51-8.19,15.37-16.42,15.37-1.93,0-4.01-.38-6.25-1.19-8.72-3.18-14.8-11.99-18.53-20.01-3.37-5.59-6.02-17.82-6.8-24.15,15.04-.53,36.85-1.92,50.49-8.26M320.53,287.49c-.86,0-1.73.19-2.53.56-12.51,5.82-33.48,7.18-48.17,7.7-1.68.06-3.26.82-4.35,2.1-1.09,1.28-1.6,2.96-1.39,4.63.82,6.65,3.56,19.54,7.45,26.22,3.89,8.27,10.8,18.83,21.79,22.84,2.83,1.03,5.63,1.56,8.31,1.56,10.02,0,18.09-7.11,22.13-19.51.28-.87.54-1.73.77-2.55,0-.03.02-.06.02-.09,2.69-10.29,3.52-26.75,1.91-38.29-.26-1.88-1.4-3.53-3.07-4.44-.89-.49-1.88-.73-2.87-.73h0Z"/>
      </g>
      <path class="cls-10" d="M320.06,322.95c-.35,2.34-.79,4.52-1.3,6.49-.21.78-.45,1.54-.69,2.3-3.42,10.51-10.87,18.49-22.68,14.17-8.57-3.14-14.6-11.71-18.35-19.63,5.86-2.33,14.14-4.94,22.45-5.39,6.92-.38,14.42.73,20.58,2.06Z"/>
      <path class="cls-11" d="M320.06,322.95c-.35,2.34-.79,4.52-1.3,6.49-.21.78-.45,1.54-.69,2.3-3.42,10.51-10.87,18.49-22.68,14.17-8.57-3.14-14.6-11.71-18.35-19.63,5.86-2.33,14.14-4.94,22.45-5.39,6.92-.38,14.42.73,20.58,2.06Z"/>
      <path class="cls-13" d="M326.52,231.46c.7.05.7.12,1.38.35,1.99,1.92,2.2,4.82.76,7.19-.47.77-1.5.63-2.3.68-.24-.03-.49-.06-.73-.1-5.92-.92-2.59-6.12.89-8.12"/>
      <path class="cls-5" d="M291.7,267.99c13.36-1.24,12.96,9.45,2.26,12.15-10.97,1.39-16.13-9.25-2.26-12.15"/>
      <g>
        <path class="cls-2" d="M191.74,596.01c-4.02,0-7.95-1.92-11.36-5.55-9.76-10.41-11.39-27.44-11.49-36.67-.04-3.79.37-16.67,7.46-23.24,3.96-3.62,7.78-4.1,11-4.1,1.14,0,2.25.07,3.42.14.58.03,1.17.07,1.78.1,7.58-7.24,9.88-23.28,11.59-35.11.38-2.66.74-5.17,1.14-7.44.47-2.71.67-5.73.53-7.9l-.45-7.01,5.87,3.86c6.68,4.39,14.15,6.62,22.18,6.62,16.55,0,34.8-9.89,46.52-25.19l6.41-8.37-.13,10.54c-.1,8.22,1.29,12.58,2.52,13.82.27.27.42.29.6.29.06,0,.11,0,.17-.01,7.74-.88,18.86-4.75,24.23-10.19l1.4-1.42,1.93.48c2.75.68,6.74,2.04,10.26,3.23,1.14.39,2.24.76,3.25,1.09,3.05-1.37,4.94-2.62,7.89-4.75.26-.19.6-.45.99-.74,2.08-1.57,3.64-2.72,4.9-3.2,1.35-.52,2.9-.78,4.59-.78,4.1,0,8.64,1.51,13.03,2.96,3.55,1.18,7.22,2.4,9.76,2.44,1.03-2.68-.34-12.38-1.52-15.61l-4.62-12.68,10.2,8.84c2.08,1.8,4.29,3.37,6.42,4.88,1.93,1.37,3.92,2.78,5.82,4.37l1.17.98.08,1.53c.52,10.14.35,18.17-2.01,28.6.56.31,1.3.64,1.74.84.76.34,1.42.64,2,1,1.32.72,2.68,1.39,4.12,2.09,4.96,2.44,10.08,4.96,13.89,9.67l.47.57c1.64,1.99,1.83,2.07,2.3,2.07.23,0,.52-.03.85-.1,1.68-.33,3.38-.81,5.03-1.28,3.07-.88,6.25-1.78,9.62-1.78,3.63,0,6.92,1.06,10.06,3.23,2.73,1.88,5.04,5.82,5.39,9.16v.13s.02.14.02.14c.45,17.42-11.27,30.53-21.61,42.1l-.14.16c-2.69,3.01-14.59,13.64-22.26,13.64-.65,0-1.28-.07-1.86-.21-6.94-1.65-9.91-3.35-13.35-5.32-1.91-1.09-3.88-2.22-6.92-3.58-11.01-4.74-25.49-10.64-39.4-14.1-.3-.07-.84-.16-1.77-.16-4.28,0-11.46,1.86-16.71,3.22-2.4.62-4.47,1.16-6.12,1.5-2.5.52-5.08.99-7.57,1.46-9.71,1.8-19.74,3.66-28.07,8.25-.65.6-2.04,2.91-2.87,4.3-1.17,1.96-2.19,3.66-3.23,4.75-11.1,13.69-26.86,21.22-44.4,21.22-1.17,0-2.35-.03-3.53-.1-1.68-.09-3.46-.25-5.34-.41-3.22-.28-6.55-.56-9.5-.56-.64,0-1.24.01-1.8.04-.22.53-.4,1.07-.59,1.64-.67,1.98-1.44,4.21-3.8,6.78-2.92,3.17-6.43,4.84-10.15,4.84Z"/>
        <path d="M373.48,443.11c4.13,3.58,8.42,6.05,12.29,9.28.55,10.69.25,18.53-2.21,28.88-.52,2.19,4.27,3.47,5.64,4.4,5.92,3.24,12.71,5.54,17.07,10.95,2.01,2.4,3.05,3.94,5.5,3.94.45,0,.95-.05,1.52-.16,4.94-.96,9.41-3,13.98-3,2.62,0,5.28.67,8.07,2.6,1.81,1.25,3.65,4.21,3.9,6.64.41,16.11-10.69,28.46-20.87,39.84-3.13,3.51-13.88,12.47-19.65,12.47-.37,0-.72-.04-1.05-.12-10.14-2.4-10.87-4.77-19.66-8.69-12.69-5.46-26.63-10.98-39.98-14.3-.74-.18-1.62-.27-2.61-.27-6.65,0-18.13,3.68-23.53,4.79-12.29,2.54-25.68,3.99-36.75,10.14-1.99,1.1-5.08,7.91-6.91,9.72-10.5,13.02-25.32,20.05-41.78,20.05-1.1,0-2.21-.03-3.33-.09-4.53-.26-10.2-.98-15.05-.98-1.44,0-2.81.06-4.06.22-2.05,3.51-1.61,6.01-4.7,9.36-2.34,2.54-4.96,3.72-7.58,3.72-3.05,0-6.12-1.58-8.8-4.45-8.01-8.54-10.42-22.98-10.54-34.32-.07-6.54,1.28-15.95,6.34-20.64,2.87-2.62,5.6-3.17,8.62-3.17,1.99,0,4.11.24,6.47.28,11.25-9.15,12.58-32.11,14.9-45.49.46-2.65.75-6.04.58-8.72,7.62,5.01,15.87,7.2,24.11,7.2,18.85,0,37.71-11.42,49.3-26.56-.05,4.41.18,17.65,6.62,17.65.18,0,.37-.01.57-.03,8.43-.96,20.3-5.1,26.32-11.2,3.84.95,10.42,3.35,14.52,4.67,4.02-1.68,6.22-3.09,9.76-5.64,1.2-.86,3.93-3.07,5.09-3.51,1.01-.39,2.13-.55,3.34-.55,6.92,0,16.56,5.4,22.92,5.4.25,0,.49,0,.72-.02,5.46-.39,2.02-17.28.92-20.28M357.67,420.14l9.23,25.36c.66,1.87,1.53,6.9,1.66,10.36-1.72-.45-3.69-1.1-5.52-1.71-4.66-1.54-9.47-3.14-14.13-3.14-2.12,0-4.08.34-5.84,1.01-1.69.65-3.38,1.88-5.76,3.68-.36.27-.69.52-.93.7-2.51,1.8-4.08,2.85-6.05,3.82-.61-.21-1.25-.42-1.9-.64-3.76-1.28-7.65-2.6-10.55-3.32l-3.87-.96-2.8,2.83c-4.27,4.33-13.35,7.77-20.42,8.93-.52-1.57-1.18-4.83-1.11-10.34l.26-21.08-12.82,16.74c-11.07,14.47-28.24,23.82-43.74,23.82-7.34,0-14.16-2.03-20.26-6.05l-11.74-7.72.91,14.02c.12,1.88-.07,4.66-.49,7.07-.4,2.32-.77,4.85-1.15,7.54-1.55,10.75-3.62,25.14-9.54,32.03-.05,0-.1,0-.15,0-1.17-.07-2.39-.14-3.63-.14-3.66,0-8.49.57-13.34,5l-.02.02-.02.02c-7.92,7.34-8.64,20.52-8.58,25.85.11,9.74,1.87,27.76,12.44,39.03,4.09,4.36,8.9,6.66,13.91,6.66,3.29,0,8.18-1.04,12.73-5.97,2.56-2.77,3.6-5.33,4.3-7.32,2.64.04,5.63.3,8.53.54,1.91.16,3.71.32,5.44.42,1.24.07,2.49.11,3.73.11,18.58,0,35.27-7.96,47.04-22.42,1.26-1.36,2.34-3.17,3.59-5.25.6-1,1.54-2.58,2.11-3.34,7.74-4.1,17.25-5.87,26.47-7.58,2.51-.47,5.1-.95,7.64-1.47,1.73-.36,3.84-.91,6.28-1.54,5.06-1.31,12-3.11,15.83-3.11.65,0,.93.06.93.06,13.65,3.39,27.93,9.22,38.85,13.92,2.85,1.28,4.74,2.36,6.57,3.4,3.52,2.02,6.85,3.93,14.29,5.69.84.2,1.74.3,2.66.3,10.78,0,24.74-14.66,24.87-14.81l.14-.16c10.77-12.06,22.98-25.72,22.5-44.52v-.27s-.04-.27-.04-.27c-.45-4.39-3.29-9.2-6.88-11.68-3.74-2.59-7.68-3.85-12.05-3.85-3.86,0-7.28.98-10.58,1.92-1.39.4-2.71.77-4.01,1.06-.17-.2-.35-.42-.51-.61l-.48-.58c-4.28-5.29-9.99-8.1-15.03-10.58-1.38-.68-2.68-1.32-3.91-1.98-.49-.3-.99-.55-1.49-.79,1.89-9.51,1.99-17.26,1.5-26.8l-.16-3.06-2.35-1.96c-2.01-1.68-4.06-3.13-6.04-4.53-2.16-1.53-4.2-2.97-6.15-4.67l-20.39-17.68h0Z"/>
      </g>
      <path class="cls-7" d="M439.24,506.64c.41,16.11-10.69,28.46-20.86,39.84-3.33,3.73-15.29,13.65-20.7,12.36l.71-.41c.51-1.64-.17-1.86-.37-3.17-1.02-6.55,5.69-17.84,9.04-23.32,5.21-8.52,14.48-18.5,23.29-23.1,2.75-1.2,5.9-1.38,8.44-2.08l.46-.13h0Z"/>
      <g>
        <path class="cls-4" d="M127.94,233.89c-.48-12.76,3.36-24.46,7.07-35.78.73-2.23,1.47-4.47,2.17-6.72,3.98-12.75,8.7-23.22,15.52-36.99,1.23-2.48,2.43-5.05,3.59-7.53,4.51-9.66,9.18-19.65,16.96-27.93,3.92-4.29,7.76-5.93,12.66-7.18l.97-.25.95.3c3.45,1.09,6.37,2.68,8.94,4.08,2.88,1.57,5.42,2.96,8.26,3.5,0,0,0-.02,0-.02,7.34-26.8,18.21-44.94,33.24-55.45,2.02-1.41,4.68-2.16,7.71-2.16,2.05,0,4.17.33,6.14.97,17.53,5.65,35.26,16.93,52.69,33.53,4.19,4.01,6.95,7.09,8.23,9.16,2.33,2.58,3.44,3.81,5.77,4.98,1.26-.78,2.71-2,4.12-3.19,3.37-2.84,7.19-6.07,11.55-6.07,1.54,0,3.01.4,4.37,1.19,26.54,15.3,57.84,47.76,69.77,72.37l2.8,5.77-6.37-.77c-10.76-1.3-21.08-4.26-31.06-7.12-12.37-3.54-24.06-6.89-35.56-6.89-12.42,0-22.93,3.94-33.08,12.41-5.42,4.51-10.97,8.65-16.07,11.96l-.16.1c-7.29,4.18-16.11,6.22-26.96,6.22-4.7,0-9.82-.38-15.65-1.18l-3.06-.41c-8.84-1.19-17.98-2.41-26.6-2.41-14.57,0-25.77,3.62-35.24,11.4-3.21,2.63-6.01,5.39-8.98,8.32-2.59,2.55-5.28,5.19-8.23,7.71-5.33,4.56-11.53,7.29-17.53,9.93-1.97.87-4.01,1.77-5.96,2.71-1.15.56-2.45,1.34-3.71,2.1-1.43.86-2.9,1.75-4.29,2.38l-4.76,2.18-.2-5.23Z"/>
        <path d="M245.98,65.26c1.75,0,3.53.31,5.06.8,19.35,6.24,36.75,18.83,51.36,32.73,2.21,2.12,6.46,6.32,7.81,8.71,3.01,3.34,4.46,5.02,8.7,6.78l.44-.2c4.76-2.2,10.04-9.45,15.13-9.45.88,0,1.76.22,2.63.72,24.52,14.14,56.15,45.67,68.36,70.86-23.65-2.86-45.5-14.03-67.04-14.03-11.79,0-23.48,3.34-35.32,13.22-4.93,4.11-10.36,8.22-15.74,11.72-7.56,4.34-16.39,5.75-25.21,5.75-5.15,0-10.3-.48-15.19-1.15-10.15-1.35-20.28-2.85-30.13-2.85-13.22,0-25.92,2.72-37.46,12.2-6.26,5.14-11.16,10.85-17.27,16.07-6.65,5.69-14.95,8.39-22.74,12.15-2.65,1.28-5.57,3.37-7.93,4.45-.55-14.57,4.85-27.77,9.08-41.32,4.11-13.18,9.19-24.11,15.32-36.48,5.92-11.97,10.59-24.65,19.96-34.62,3.28-3.58,6.33-5,10.97-6.18,7.39,2.33,12.09,7.22,19.15,7.91.03,0,.06,0,.1,0,1.07,0,2.1-1.72,2.39-2.76,5.41-19.74,14.57-41.41,31.87-53.52,1.55-1.09,3.61-1.53,5.71-1.53M245.98,58.26c-3.75,0-7.11.97-9.72,2.79-15.05,10.53-26.07,28.19-33.62,53.92-1.31-.57-2.68-1.32-4.2-2.15-2.71-1.48-5.79-3.16-9.56-4.35l-1.9-.6-1.93.49c-5.37,1.36-9.87,3.28-14.38,8.21-8.15,8.69-12.93,18.92-17.55,28.81-1.15,2.47-2.34,5.01-3.55,7.46-6.9,13.93-11.68,24.54-15.72,37.5-.69,2.21-1.43,4.48-2.15,6.67-3.81,11.61-7.74,23.61-7.24,37l.39,10.46,9.51-4.35c1.56-.72,3.13-1.66,4.64-2.57,1.19-.72,2.42-1.46,3.43-1.94,1.89-.91,3.81-1.76,5.85-2.66,6.23-2.74,12.67-5.58,18.39-10.48,3.05-2.61,5.78-5.29,8.41-7.88,2.91-2.86,5.67-5.57,8.75-8.1,8.93-7.34,19.11-10.61,33.02-10.61,8.39,0,17.01,1.16,26.14,2.38l3.07.41c5.97.81,11.25,1.21,16.11,1.21,11.48,0,20.86-2.19,28.7-6.68l.17-.1.16-.11c5.21-3.39,10.88-7.61,16.4-12.21,9.49-7.91,19.29-11.59,30.84-11.59,11.01,0,22.47,3.28,34.59,6.75,10.11,2.9,20.57,5.89,31.6,7.23l12.74,1.54-5.6-11.54c-12.19-25.14-44.11-58.28-71.17-73.87-1.9-1.1-3.96-1.65-6.12-1.65-5.64,0-10.17,3.82-13.81,6.9-.65.55-1.34,1.13-2,1.65-.8-.65-1.58-1.5-2.81-2.87-.86-1.35-2.95-4.15-8.62-9.58-17.83-16.98-36.01-28.53-54.05-34.34-2.31-.74-4.8-1.14-7.21-1.14h0Z"/>
      </g>
      <path class="cls-12" d="M205.92,123.06c.93-.61,2.19-1.69,2.48-2.75,5.41-19.74,14.57-41.41,31.87-53.52,2.85-1.99,7.41-1.81,10.77-.73,19.35,6.24,36.74,18.83,51.36,32.73,2.21,2.12,6.46,6.32,7.81,8.71-2.1,6.91.17,17.01-7.76,21.47-3.81,2.14-10.36,2.24-14.55,1.06-5.12-1.41-9.01-5.23-13.44-7.07-1.95,1.1-4.42,6.57-5.39,8.65-11.74,25.22-44.54,9.49-59.4-3.85-1.31-1.18-3.22-2.51-4.14-3.93.17-.51.07-.53.39-.79"/>
      <g>
        <path class="cls-8" d="M166.99,490.61c-.53,0-1.05-.12-1.54-.36-1.1-.54-1.84-1.62-1.95-2.84-.87-10.18-1.2-15.15.14-25.19.04-3.65,1.17-7.86,2.08-11.26l.23-.87c3.94-14.92,13.37-36.68,26.96-48.88.66-.59,1.49-.9,2.34-.9.57,0,1.14.14,1.66.42,5.16,2.79,12.27,4.27,20.56,4.27h0c7.25,0,15.11-1.18,21.57-3.24,1.61-.51,3.31-1.29,5.11-2.1,2.76-1.25,5.62-2.55,8.65-3.15.22-.04.45-.07.67-.07.97,0,1.91.41,2.58,1.14.82.9,1.12,2.17.78,3.34l-.17.57c-.26.88-.85,1.63-1.65,2.08-.53.29-1.46.85-2.62,1.53-8.53,5.02-11.46,6.55-13.03,6.85-2.06.39-4.09.75-6.11,1.1-14.75,2.6-27.49,4.85-38.29,15.3-.25.25-.56.53-.9.84.21.05.41.12.61.22,1.46.68,2.27,2.27,1.96,3.85-.77,3.91-.84,6.59-.88,10.57.35,3.92.75,6.6,1.6,10.53.19.89.03,1.81-.45,2.58-1.81,2.91-3.34,5.52-4.7,7.83-6.04,10.27-9.68,16.47-23.33,25.28-.58.37-1.24.56-1.9.56Z"/>
        <path d="M253.49,399.94l-.17.57c-2.34,1.31-12.73,7.64-14.6,8-16.97,3.19-33.04,4.6-46.18,17.32-2.12,2.06-8.2,6.76-7.18,10.31.85,1.1,1.34,1.59,2.83,1.9,1.8-1.84,3.39-3.44,5.02-5.47-.82,4.19-.91,7.11-.95,11.38.36,4.16.79,7,1.68,11.13-9.77,15.72-11.02,21.73-26.96,32.02-.84-9.84-1.2-14.68.16-24.64-.01-3.53,1.28-8.03,2.2-11.47,4.22-15.96,13.69-36.2,25.92-47.18,6.17,3.34,14.16,4.69,22.23,4.69s16.17-1.34,22.64-3.41c4.34-1.38,8.86-4.27,13.37-5.15M193.21,432.58h0M253.49,392.94c-.45,0-.9.04-1.35.13-3.44.67-6.62,2.12-9.43,3.4-1.7.77-3.31,1.51-4.72,1.96-6.13,1.96-13.6,3.08-20.51,3.08-7.71,0-14.25-1.33-18.9-3.85-1.05-.57-2.19-.84-3.33-.84-1.69,0-3.36.61-4.68,1.79-14.17,12.72-23.94,35.2-28.01,50.6l-.23.85c-.95,3.53-2.11,7.88-2.2,11.91-1.36,10.25-1,15.64-.14,25.75.21,2.45,1.69,4.6,3.89,5.69.98.48,2.03.72,3.08.72,1.33,0,2.65-.38,3.8-1.12,14.35-9.26,18.37-16.1,24.45-26.44,1.35-2.29,2.87-4.89,4.66-7.76.96-1.54,1.28-3.39.9-5.16-.8-3.72-1.19-6.27-1.52-9.94.04-3.61.11-6.1.77-9.54.11-.5.18-1.03.18-1.56,0-1.25-.33-2.43-.9-3.44,9.66-8.25,21.26-10.3,34.57-12.64,2-.35,4.06-.72,6.14-1.11,2.13-.4,4.91-1.83,14.17-7.28,1.13-.66,2.04-1.2,2.56-1.49,1.6-.9,2.79-2.39,3.3-4.15l.17-.57c.68-2.35.09-4.88-1.56-6.68-1.34-1.46-3.22-2.28-5.17-2.28h0ZM253.49,406.94h0,0Z"/>
      </g>
      <path class="cls-12" d="M188.2,438.05c1.81-1.85,3.39-3.44,5.01-5.47-.82,4.19-.9,7.11-.94,11.39.36,4.16.79,6.99,1.68,11.13-9.78,15.72-11.02,21.73-26.96,32.01-.84-9.83-1.2-14.68.16-24.64,4.8-.65,7.26-5.83,10.14-9.21,3.63-4.25,10.91-15.2,10.91-15.2h0Z"/>
      <g>
        <path class="cls-9" d="M442.61,32.92c25.2-1.62,37.58,11.56,44.07,34.74,12.58-11.53,29.79-15.84,46.08-9.91,22.29,8.12,26.71,33.7,19.05,53.85-6.37,16.75-23.44,29.8-39.42,36.99-19.44,8.78-36.41,14.41-57.25,19.52-5.27-2.96-9.96-10.01-13.81-14.73-22.59-27.62-49.31-70.54-24.57-104.88,6.03-8.37,15.75-13.93,25.85-15.58"/>
        <path class="cls-14" d="M444.51,39.88c6.46-.55,11.8.26,17.78,2.97,3.42,1.55,5.88,4.2,8.37,6.84,5.84,6.2,8.33,12.88,10,21.14.54,2.68,1.2,6.43,2.13,8.98l.16.43c5.9-4.29,10.8-10.75,16.84-14.09,8.29-4.31,18.1-6.09,27.15-3.73,19.61,5.1,24.95,25.67,19.78,43.45-4.43,15.21-17.01,25.55-30.54,33-16.24,9.39-41.19,17.59-59.75,21.66-14.37-17.66-28.68-33.94-37.31-55.49-2.15-5.17-3.81-10.45-4.71-15.98-3.45-21.36,5.74-45.97,30.1-49.19"/>
        <path class="cls-19" d="M52.46,113.31c1.42-11.09,8.6-23.25,18.99-28.09,29.02-13.55,49.69,15.52,47.46,42.4-.51,6.1-.6,11.19-2.78,17.2-.79,2.95-1.51,5.7-2.52,8.59-1.23,7.15-16.03,33.21-21.04,39.49-4.42.15-9.96-.65-14.47-1.16-16.47-1.87-33.71-4.9-48.81-11.99-12.93-6.1-22.43-15.31-27.26-28.98-5.82-16.47,1.06-36.3,18.53-41.94,12.2-3.94,20.82-1.1,31.9,4.48"/>
        <path class="cls-13" d="M86.09,88.59c4.29-.19,9.55,1.58,12.81,4.36,26.82,22.92,6.81,71.08-10.37,93.37-18.65-2.49-36.68-4.27-54.2-11.79-10.97-5.01-17.01-9.2-23.51-19.72-3.57-5.73-4.95-16.62-3.26-22.97,5-18.81,26.74-21.76,41.52-12.38,1.79,1.14,6.79,4.77,8.49,5.22,2.6-1.85,1.7-10.95,2.96-15.83,1.18-4.43,3.39-8.51,6.45-11.93,5.52-6.09,11.25-7.95,19.11-8.33"/>
        <path class="cls-17" d="M23.23,128.9c1.55-.16,3.79-.14,5.26.37,1.63.57,2.95,1.77,3.68,3.34,1.9,4.19-.88,10.41-4.94,12.17-11.07,0-13.31-11.39-4-15.88"/>
        <path class="cls-19" d="M500.21,206.07c16.66-1.38,25.89,5.36,29.86,21.74,1.86-.93,3.55-1.81,5.56-2.44,18.06-5.59,36.74,11.83,29.31,30.17-4.62,11.41-11.85,16.83-22.94,22.01-12.07,5.21-29.24,8.57-42.42,8.24-12.36-18.97-28.46-46.81-14.65-68.81,3.47-5.5,8.95-9.41,15.27-10.92"/>
        <path class="cls-11" d="M501.43,212.37c10.4-.23,17.91,2.47,21.18,13.17,1.23,4.04,1.29,8.33,2.56,12.2l.14.42c1.6-.75,5.16-2.84,6.73-3.79,5.2-3.25,9.96-4.09,15.88-2.47,8.94,2.45,13.96,11.54,11.1,20.41-2.48,7.72-9.09,13.62-16.03,17.35-11.9,5.13-26.43,9.33-39.49,9.19-9.76-16.17-23-36.81-13.69-56.47,2.08-4.39,6.96-8.58,11.61-10.02"/>
        <path class="cls-15" d="M332.47.17c7.72-1.08,14.81,2.96,18.86,9.41.72-.61,1.44-1.21,2.18-1.79,15.87-12.28,34.93-1.63,32.11,18.06-1.67,11.64-9.89,19.47-18.84,25.99-6.63,4.74-11.49,8.04-19.33,10.7-4.08-1.68-8.82-6.13-12.77-9.27-13.71-10.91-25.23-31.54-12.98-47.74,2.52-3.34,6.52-5.04,10.76-5.36"/>
        <path class="cls-13" d="M333.85,6.12c8.3.47,13.06,7.43,16.69,13.98,3.31-2.98,5.43-6.22,9.42-8.48,8.53-4.83,19.69-1.27,19.25,9.76-.4,9.98-6.08,15.79-13.06,22.11-6.28,5.63-11.72,8.01-19.07,11.82-3.31-3.44-7.08-6.24-10.49-9.49-8.7-8.29-19.7-24.08-10.26-35.67,2.22-2.72,4.2-3.59,7.51-4.03"/>
        <path class="cls-19" d="M58.16,222.34c11.61-1.22,19.07,4.17,22.05,15.45,3,11.34.27,23.01-3.19,33.89-1.01,3.16-2.17,7.01-3.85,9.86-8.65,1.07-21.91.86-30.28-1.07-8.66-2.02-17.52-6.79-21.81-14.92-2.31-4.34-2.75-9.44-1.22-14.12,3.24-10.03,13.18-13.7,22.7-10.45,2.03-10.58,3.75-16.17,15.59-18.65"/>
        <path class="cls-14" d="M61.26,228.24c7.53-.41,10.96,5.35,12.39,11.86,2.33,10.65-.93,25.08-5.38,35-7.75,1.38-22.01-.37-29.53-2.92-1.15-.42-2.26-.93-3.33-1.53-3.91-2.17-8.41-6.48-9.59-10.92-1.55-5.86,1.48-12.63,7.87-13.72,5.05-.86,9.19.76,13.27,3.57,6.2-7.74-2.72-17.24,14.3-21.34"/>
        <path class="cls-15" d="M540.68,151.06c7.24-.41,12.94,2.63,15.58,9.52.53-.26,1.07-.5,1.61-.72,7.35-3,16.18.77,18.96,8.52,3,8.33-5.99,19.96-13.61,22.5-4.9,1.91-14.43,5.87-19.85,5.05-3.86-1.54-8.18-10.07-9.77-13.4-6.2-12.95-7.42-24.65,7.09-31.48"/>
        <path class="cls-13" d="M540.38,157.72c8.72-.52,9.71,4.66,11.59,11.49,3.46-1.61,8.97-5.09,12.61-4.07,10.63,2.97,5.08,13.96-.9,18.21-4.89,2.89-11.92,5.68-17.52,6.71-4.95-4.99-11.31-17.19-10.37-24.38.38-3.16,2.04-6.03,4.58-7.95"/>
      </g>
      <g>
        <ellipse class="cls-13" cx="197.6" cy="323.35" rx="42.04" ry="35.92" transform="translate(-56.86 42.55) rotate(-10.75)"/>
        <line class="cls-20" x1="178.32" y1="313.68" x2="171.43" y2="332.48"/>
        <line class="cls-20" x1="194.45" y1="310.03" x2="184.88" y2="336.13"/>
        <line class="cls-20" x1="210.3" y1="309.51" x2="200.34" y2="336.65"/>
        <line class="cls-20" x1="223.77" y1="313.68" x2="216.88" y2="332.48"/>
      </g>
      <g>
        <g>
          <path class="cls-14" d="M236.6,295.01c-10.11,0-31.91-5.96-39.36-17.82-3.27-5.21-3.5-11.07-.66-16.95l.08-.17.1-.16c2.85-4.37,7.09-6.69,12.26-6.69,3.87,0,8.33,1.29,13.28,3.85.03-.1.07-.21.1-.31,1.66-5.2,4.76-14.89,15.72-14.89.71,0,1.46.04,2.21.13,8.68,1,12.02,6.24,13.3,10.46,4.09,13.53-7.25,35.53-14.7,41.83l-.82.69-1.51.02Z"/>
          <path class="cls-19" d="M238.12,244.87c.59,0,1.22.04,1.87.11,22.6,2.61,6.57,38.93-3,47.02-.13,0-.26,0-.39,0-12.71,0-46.94-10.54-37.32-30.47,2.54-3.9,6.01-5.32,9.74-5.32,4.97,0,10.42,2.53,14.75,5.1,2.11-2.54,2.65-16.45,14.35-16.45M238.12,238.87h0c-11.02,0-15.47,8.35-17.58,14.04-4.17-1.79-8.02-2.7-11.51-2.7-6.24,0-11.34,2.78-14.77,8.05l-.21.32-.17.34c-3.31,6.85-3.02,13.72.82,19.85,8.42,13.42,31.82,19.23,41.9,19.23.17,0,.34,0,.5,0l2.13-.04,1.63-1.38c8.18-6.91,20.13-30.12,15.64-44.99-2.17-7.18-7.79-11.64-15.82-12.57-.87-.1-1.73-.15-2.56-.15h0Z"/>
        </g>
        <path class="cls-13" d="M204.3,259.69c7.09-.46,7.64,7.63,2.01,10.08-4.18-.01-6.92-2.47-5.57-7.03.52-1.75,1.99-2.3,3.56-3.05"/>
      </g>
      <g>
        <g>
          <path class="cls-14" d="M333.58,472.86c-21.58-4.68-67.33-29.01-77.8-58.82-4.4-12.52-2.12-24.43,6.77-35.4l.12-.15.14-.13c6.64-6.34,15.05-9.69,24.31-9.69,12.92,0,25.63,6.76,32.7,16.79,4.4-10.78,15.25-26.07,33.92-26.07,4.33,0,8.87.85,13.5,2.52,13.57,4.9,21.16,14.36,21.96,27.37,1.91,30.87-34.62,73.66-53.62,83.32l-.95.48-1.04-.23Z"/>
          <path class="cls-19" d="M353.74,362.41c3.81,0,7.96.71,12.48,2.34,49.93,18.04-5.94,91.95-32,105.19-28.25-6.13-102.19-48.88-69.33-89.39,6.49-6.19,14.39-8.86,22.23-8.86,14.3,0,28.43,8.87,33.51,21.48,1.29-8.34,11.72-30.75,33.11-30.75M353.75,356.41v6-6h0c-16.94,0-28.64,11.96-34.63,23.33-7.86-8.63-19.68-14.06-31.99-14.06-10.04,0-19.16,3.64-26.38,10.52l-.28.26-.24.3c-9.46,11.66-11.97,24.9-7.27,38.28,10.84,30.84,57.83,55.95,79.99,60.76l2.09.45,1.9-.97c10.66-5.42,24.78-19.1,35.96-34.85,7.72-10.88,20.49-32.01,19.3-51.32-.62-9.97-5.27-23.26-23.94-30-4.96-1.79-9.84-2.69-14.51-2.69h0Z"/>
        </g>
        <path class="cls-13" d="M276.08,383.73c16.34,2.75,13.27,21.43-.83,23.96-9.48-2.27-14.38-9.32-8.88-18.95,2.11-3.69,5.76-4.17,9.71-5.02"/>
      </g>
      <g>
        <ellipse class="cls-13" cx="397" cy="286.76" rx="42.04" ry="35.92" transform="translate(-46.53 79.11) rotate(-10.75)"/>
        <line class="cls-20" x1="377.72" y1="277.09" x2="370.82" y2="295.89"/>
        <line class="cls-20" x1="393.85" y1="273.44" x2="384.27" y2="299.54"/>
        <line class="cls-20" x1="409.69" y1="272.92" x2="399.73" y2="300.06"/>
        <line class="cls-20" x1="423.17" y1="277.09" x2="416.27" y2="295.89"/>
      </g>
      <g>
        <g>
          <path class="cls-14" d="M352.74,274.7c-9.31-3.06-28.39-15.98-31.67-29.76-1.44-6.07.26-11.74,4.92-16.4l.14-.14.15-.12c2.71-2.09,5.67-3.16,8.78-3.16,5.21,0,10.67,2.99,16.26,8.9.07-.09.13-.17.19-.26,2.75-3.65,7.34-9.76,14.79-9.76,2.27,0,4.62.58,7,1.73,7.87,3.81,9.3,9.85,9.11,14.26-.6,14.12-18.55,31.16-27.66,34.65l-1,.38-1.01-.33Z"/>
          <path class="cls-19" d="M366.3,227.01c1.72,0,3.61.42,5.7,1.43,20.48,9.91-6.63,38.93-18.32,43.41-11.77-3.87-41.38-25.38-25.57-41.19,2.31-1.79,4.65-2.53,6.95-2.53,6.22,0,12.1,5.46,16.25,10.39,2.47-1.49,6.65-11.51,15-11.51M366.3,221.01h0c-7.26,0-12.16,4.7-15.29,8.51-5.36-4.91-10.71-7.39-15.96-7.39-3.8,0-7.37,1.27-10.62,3.78l-.3.23-.27.27c-5.44,5.44-7.41,12.08-5.72,19.21,3.59,15.06,23.51,28.58,33.65,31.92l2.03.67,1.99-.76c10-3.83,28.93-21.8,29.59-37.33.32-7.49-3.52-13.56-10.8-17.08-2.79-1.35-5.59-2.03-8.31-2.03h0Z"/>
        </g>
        <path class="cls-13" d="M333.45,230.57c6.84,1.9,4.7,9.72-1.42,10.18-3.94-1.39-5.72-4.61-2.94-8.47,1.06-1.48,2.64-1.52,4.36-1.71"/>
      </g>
      <g>
        <path class="cls-2" d="M233.28,478.09c-2.37,0-4.69-.21-6.91-.62-6.26-1.15-11.19-3.34-16.49-7.32l-.09-.07-.09-.07c-6.38-5.46-9.01-9.69-11.29-18.13-1.67-6.2-1.46-19.56,2.65-25.58,4.47-6.53,15.97-9.33,26.4-11.44l10.09-2.06-5.43,7.34c-.77,1.04-1.71,2.03-2.61,2.98-1.12,1.18-2.35,2.48-2.98,3.65,2.72-1.61,5.13-3.97,7.67-6.47,1.82-1.79,3.71-3.65,5.79-5.28,7.06-5.62,13.75-10.95,24.26-12.4.73-.1,1.49-.15,2.24-.15,10.74,0,22.05,10.7,22.83,21.61.82,11.42-4.05,23.43-13.73,33.83-11.58,12.45-27.79,20.18-42.31,20.18h0Z"/>
        <path d="M266.49,405.97c9.24,0,18.71,9.62,19.34,18.36,1.81,25.18-27.49,50.26-52.55,50.26-2.13,0-4.23-.18-6.28-.56-5.85-1.08-10.26-3.1-15.02-6.68-5.94-5.08-8.16-8.86-10.19-16.38-1.57-5.84-1.1-17.92,2.16-22.69,4.26-6.23,18.48-8.81,25.35-10.22-2.1,2.84-6.16,5.7-6.64,9.38-.22,1.75,1.99,2.95,3.77,2.95.5,0,.96-.09,1.32-.29,5.49-3.02,9.47-8.47,14.39-12.32,7.24-5.76,13.26-10.4,22.58-11.69.58-.08,1.17-.12,1.76-.12M266.49,398.97h0c-.91,0-1.83.06-2.72.19-8.58,1.19-14.88,4.78-20.5,8.9l-15.36,3.15-1.13.23c-11.1,2.25-23.39,5.28-28.59,12.89-4.81,7.03-5.07,21.32-3.15,28.47,2.43,9.01,5.56,14.03,12.39,19.88l.17.15.18.14c5.76,4.32,11.13,6.7,17.96,7.96,2.43.45,4.97.68,7.55.68,15.45,0,32.64-8.16,44.86-21.29,10.35-11.12,15.56-24.07,14.66-36.47-.92-12.78-13.71-24.86-26.32-24.86h0Z"/>
      </g>
      <g>
        <path class="cls-2" d="M402.29,451.07c-12.07,0-21.38-7.38-28.89-14.61-.04-.03-.07-.07-.11-.11-8.47-8.89-12.33-18.28-11.79-28.73.04-.59.05-1.13.05-1.68.01-1.42.03-3.03.46-4.56,3.21-11.32,11.42-18.07,21.95-18.07,6.28,0,12.91,2.5,18.68,7.04.93.73,1.83,1.65,2.79,2.62,1.23,1.25,3.52,3.58,4.57,3.58h0s.09,0,.23-.08c-.08-.29-.32-.81-.79-1.32-4.31-4.97-11.15-10.45-17.58-11.09-1.14-.11-2.15-.78-2.71-1.78-.56-1-.59-2.21-.08-3.24l.19-.39c.72-1.47,1.23-2.53,2.45-4.17.67-.9,1.71-1.42,2.81-1.42.2,0,.41.02.61.05,11.34,2.01,18.63,9.96,25.12,17.94,11.2,13.77,15.5,36.54,1.41,51.62-4.77,5.18-11.58,8.25-18.65,8.38-.23,0-.48,0-.72,0Z"/>
        <path d="M394.52,376.56c10.12,1.79,16.78,9.05,23.02,16.71,10.53,12.94,13.87,33.85,1.57,47.02-4.17,4.53-10.01,7.15-16.16,7.27-.22,0-.44,0-.66,0-10.68,0-19.05-6.5-26.46-13.63-6.95-7.29-11.36-15.8-10.83-26.13.13-1.68-.08-3.84.39-5.47,3-10.57,10.33-15.53,18.58-15.53,5.43,0,11.26,2.16,16.51,6.29,2.61,2.05,5.96,6.96,9.52,6.96.75,0,1.51-.22,2.28-.73,2.52-1.69,1.41-4.7-.24-6.53-4.8-5.54-12.26-11.46-19.82-12.22.81-1.65,1.19-2.51,2.31-4.02M394.52,369.56c-2.19,0-4.29,1.03-5.62,2.83-1.41,1.9-2.04,3.2-2.78,4.71l-.19.39c-.37.75-.59,1.54-.68,2.34-.43-.02-.85-.03-1.28-.03-12.19,0-21.65,7.71-25.31,20.62-.56,1.98-.58,3.92-.6,5.48,0,.52,0,1.02-.04,1.34,0,.06,0,.13-.01.19-.59,11.3,3.7,21.84,12.75,31.33.07.07.14.14.21.21,8.01,7.71,18,15.58,31.31,15.58.27,0,.55,0,.83-.01,7.98-.15,15.69-3.62,21.12-9.51,7.01-7.52,10.43-17.77,9.63-28.86-.7-9.72-4.67-19.69-10.9-27.34-6.91-8.49-14.71-16.97-27.23-19.18-.41-.07-.82-.11-1.22-.11h0Z"/>
      </g>
      <g>
        <path class="cls-13" d="M524.26,361.79c-12.67-1.67-27.7-1.53-39.9,2.2-10.83,3.55-30.49,14.61-36.52,24.53-1.03,1.84-4.01,5.98-1.69,7.48,2.71.04,6.89-3.61,8.71-5.6,18.82-16.53,44.76-20.21,68.84-19.37,4.39-3.66,3.35-5.01.56-9.23Z"/>
        <path class="cls-6" d="M555.75,334.34c1.91.51,2.95,8.42,2.86,11.55,12.73,3.06,13.76,11.55-.05,12.77,1.73,15.11-7.54,13.31-13.48,3.25-12.03,6.68-13.2-1.62-6.45-10.48-8.9-12.02-3.54-14.76,8.48-9.09,1.64-4.41,6.74-8.51,8.65-8Z"/>
        <path class="cls-1" d="M497.09,444.69c-8.75-10.63-19.14-20.57-32.98-23.14-2.28-.42-10.54-1.48-10.82,1.7,1.72,2.67,6.51,4.53,9.58,5.51,9.03,3.17,16,10.85,22.29,17.72,2.3,3.47,4.7,6.46,7.06,9.94.93,1.75,2.65,4.43,4.61,4.44,12.33.05,2.86-13.01.26-16.17Z"/>
        <path class="cls-6" d="M60.93,526.93c2.34-2.08,5.93,2.58,8.6,4.93,9.86-9.23,9.26-1.79,8.63,6.54,4.39,2.85,9.84,7.58.5,9.41-1.49.29-3.4.05-5.07.26l-.31.53c-3.79,11.79-6.78,5.88-9.96-1.41-12.23-.5-9.9-4.53-2.4-10.88-1.1-3.16-2.75-6.93,0-9.38Z"/>
        <path class="cls-6" d="M528.5,404.86c2.83.36,2.88,4.16,3.2,7.91,10.09-.56,12.5,3.05,3.39,9,.41.92,1.84,16.79-8.38,4.29-5.46,8.4-12.32,3.17-6.71-4.86-9.53-5.23-5.35-9.89,3.89-8.81.73-2.37,1.77-7.88,4.6-7.52Z"/>
        <path class="cls-18" d="M45.14,436.07c1.84-2.75,5.35,3.18,7.13,5.63,2.13-2,4.82-4.83,7.98-3.85,2.41,2.35.1,5.54-1.26,7.95,1.2.96,8.31,6.1,4.67,8.64-1.22.85-4.94.13-6.48-.31l-.9-.29c-1.35.49-2.29,6.15-5.08,7.68-3.11-.12-3.61-5.19-3.96-7.58-2.79-.42-5.54-.49-7.69-2.23-1.3-2.81,2.72-5.37,4.85-6.67-.44-3.39-1.18-6.1.74-8.97Z"/>
        <path class="cls-3" d="M505.58,469.14c1.58-.09,4.15,7.84,4.15,7.84,0,0,6.18,1.73,6.18,3.59,0,1.86-6.55,4.4-6.55,4.4,0,0-1.45,8.12-3.27,8.12s-4.11-8.08-4.11-8.08c0,0-6.65-2.31-6.65-3.9s6.18-3.74,6.18-3.74c0,0,2.49-8.15,4.07-8.24Z"/>
        <path class="cls-6" d="M22.66,381.5c1.96-.11,5.15,9.72,5.15,9.72,0,0,7.66,2.14,7.66,4.45,0,2.3-8.12,5.46-8.12,5.46,0,0-1.8,10.07-4.05,10.07s-5.09-10.02-5.09-10.02c0,0-8.25-2.86-8.25-4.83s7.67-4.63,7.67-4.63c0,0,3.08-10.1,5.04-10.21Z"/>
        <path class="cls-16" d="M123.73,419.4c-14.53-11.23-35-19-53.57-16.68-5.47.79-12.98,1.02-15.58,7.02-.87,2,.6,4.62,2.62,4.73,16.3-2.15,33.91-1.58,49.44,4.52,0-.27,0-.49,0-.69,0,.2,0,.42,0,.69,3.05.95,5.65,1.76,8.57,3.07,3.25.93,11.59,7.51,13.89,3.76.03-3.16-2.77-5.23-5.38-6.42Z"/>
        <path class="cls-3" d="M130.87,494.51c2.12-.61,4.4-.04,5.97,1.51,1.57,1.54,2.19,3.82,1.62,5.95-.57,2.13-2.25,3.79-4.38,4.33-3.23.83-6.54-1.09-7.41-4.31-.88-3.22.99-6.55,4.2-7.48"/>
        <path class="cls-6" d="M127.7,527.26c2.11-.6,4.38-.02,5.94,1.52,1.56,1.54,2.17,3.8,1.59,5.92-.57,2.12-2.24,3.75-4.37,4.29-3.22.82-6.5-1.1-7.36-4.3-.86-3.21,1-6.51,4.2-7.42"/>
        <path class="cls-6" d="M146.1,458.51c-5.94.04-18.69,5.36-18.69,5.36-9.52,3.67-74.09,38.45-52.65,51.16,3.67,2.18,10.68-10.31,14.1-14.02,9.04-9.13,19.91-17.74,31.12-24.38,5.66-3.83,24.16-11.87,26.62-17.78l-.5-.33Z"/>
        <path class="cls-6" d="M83.13,377.35c2.97-.58,5.86,1.34,6.48,4.29.63,2.96-1.23,5.88-4.18,6.55-1.95.45-3.99-.19-5.34-1.67-1.35-1.48-1.79-3.58-1.16-5.48.63-1.9,2.24-3.31,4.2-3.7"/>
        <ellipse class="cls-13" cx="111.4" cy="445.2" rx="5.63" ry="5.98"/>
        <circle class="cls-6" cx="456.84" cy="476.4" r="7.36"/>
        <circle class="cls-6" cx="488.39" cy="401.91" r="5.56"/>
        <ellipse class="cls-3" cx="488.12" cy="341.69" rx="5.82" ry="5.94" transform="translate(-58.9 105.51) rotate(-11.64)"/>
      </g>
    </g>
  </g>
</svg>