<?xml version="1.0" encoding="UTF-8"?>
<svg id="Layer_2" data-name="Layer 2" xmlns="http://www.w3.org/2000/svg" viewBox="0 0 96.27 143.38">
  <defs>
    <style>
      .cls-1 {
        fill: #fff;
      }

      .cls-2 {
        fill: #90de63;
      }

      .cls-3 {
        fill: #f6977e;
      }

      .cls-4 {
        fill: #95b7e1;
      }

      .cls-5 {
        fill: #a52249;
      }
    </style>
  </defs>
  <g id="_디자인" data-name="디자인">
    <g>
      <g>
        <g>
          <path class="cls-1" d="M38.95,142.12c-6.24-.26-9.74-2.92-10.57-6.54-1.32-5.7.05-21.75,1.69-26.98,1.48-4.73,14.04-3.87,13.06,1.71-2.22,12.56-.61,20.66-.61,20.66,0,0,4.67,1.37,3.98,6.64-.41,3.1-2.97,4.69-7.54,4.5Z"/>
          <path d="M39.66,143.38c-.25,0-.5,0-.77-.02-6.42-.27-10.7-3-11.74-7.5-1.43-6.18.08-22.42,1.71-27.63,1.1-3.53,6.28-4.61,10.46-3.6,3.59.87,5.51,3.13,5.02,5.9-1.79,10.14-1.03,17.38-.72,19.53,1.99.91,4.68,3.31,4.1,7.71-.28,2.13-1.71,5.6-8.06,5.6ZM36.29,106.78c-2.45,0-4.61.86-5.03,2.2-1.51,4.84-2.95,20.78-1.66,26.32.77,3.32,4.2,5.35,9.41,5.57h0c3.83.16,5.93-.99,6.25-3.41.53-4.04-2.73-5.17-3.1-5.28-.44-.14-.78-.5-.87-.95-.07-.34-1.63-8.48.6-21.12.35-1.96-2.09-2.77-3.15-3.03-.81-.2-1.64-.29-2.45-.29Z"/>
        </g>
        <path d="M42.5,132.23c-.15,0-.29-.03-.44-.08,0,0-.88-.33-1.74-.44-.69-.09-1.17-.72-1.08-1.4.09-.68.72-1.17,1.4-1.08,1.15.15,2.25.56,2.3.58.65.24.97.96.73,1.61-.19.5-.66.81-1.17.81Z"/>
      </g>
      <g>
        <g>
          <path class="cls-1" d="M57.33,142.12c6.24-.26,9.74-2.92,10.57-6.54,1.32-5.7-.05-21.75-1.69-26.98-1.48-4.73-14.04-3.87-13.06,1.71,2.22,12.56.61,20.66.61,20.66,0,0-4.67,1.37-3.98,6.64.41,3.1,2.97,4.69,7.54,4.5Z"/>
          <path d="M56.61,143.38c-6.35,0-7.78-3.47-8.06-5.6-.58-4.41,2.1-6.81,4.1-7.71.31-2.16,1.07-9.4-.72-19.53-.49-2.76,1.44-5.02,5.02-5.9,4.17-1.02,9.36.07,10.46,3.6,1.63,5.22,3.14,21.45,1.71,27.63-1.04,4.5-5.32,7.24-11.74,7.5h0c-.26.01-.52.02-.77.02ZM59.99,106.78c-.8,0-1.64.09-2.45.29-1.06.26-3.5,1.07-3.15,3.03,2.24,12.64.67,20.78.6,21.12-.09.46-.43.82-.87.96-.37.11-3.62,1.24-3.09,5.28.32,2.42,2.41,3.57,6.25,3.41h0c5.21-.22,8.64-2.24,9.41-5.57,1.28-5.55-.15-21.49-1.66-26.32-.42-1.34-2.58-2.2-5.03-2.2Z"/>
        </g>
        <path d="M53.77,132.23c-.51,0-.98-.31-1.17-.81-.24-.65.08-1.37.73-1.61.05-.02,1.14-.43,2.3-.58.68-.09,1.31.39,1.4,1.08s-.39,1.31-1.08,1.4c-.86.11-1.73.43-1.74.44-.14.05-.29.08-.44.08Z"/>
      </g>
      <g>
        <path class="cls-2" d="M86.21,48.98c-15.28-20.66-38.07-25.63-38.07-25.63,0,0-22.8,4.97-38.07,25.63C1.1,61.1-.59,77.09,3.13,90.5c5,18.04,18.26,25.52,26.86,27.3,7.34,1.52,13.2.07,18.15.07s10.81,1.44,18.15-.07c8.59-1.78,21.85-9.26,26.86-27.3,3.72-13.41,2.03-29.4-6.93-41.52Z"/>
        <path d="M59.21,119.74c-2.27,0-4.38-.18-6.35-.35-1.67-.14-3.26-.28-4.72-.28s-3.05.13-4.72.28c-3.94.33-8.42.71-13.68-.38-10.25-2.12-22.94-10.64-27.81-28.19-4.16-15.01-1.5-30.93,7.13-42.6,15.38-20.8,37.86-25.9,38.81-26.11.17-.04.36-.04.53,0,.95.21,23.43,5.31,38.81,26.11,8.63,11.67,11.29,27.59,7.13,42.6-4.87,17.55-17.56,26.06-27.81,28.19-2.63.54-5.06.72-7.33.72ZM48.14,116.62c1.57,0,3.2.14,4.93.28,3.77.32,8.05.68,12.96-.33,9.53-1.97,21.34-9.94,25.9-26.41,3.9-14.06,1.32-29.55-6.73-40.44-13.92-18.83-34.49-24.45-37.07-25.09-2.58.64-23.14,6.26-37.07,25.09C3.02,60.61.44,76.1,4.34,90.16c4.57,16.46,16.38,24.43,25.9,26.41,4.91,1.02,9.19.65,12.96.33,1.73-.15,3.36-.28,4.93-.28Z"/>
      </g>
      <rect x="34.63" y="52.24" width="6.33" height="6.33" rx="2.93" ry="2.93"/>
      <rect x="55.31" y="52.24" width="6.33" height="6.33" rx="2.93" ry="2.93"/>
      <circle class="cls-3" cx="26.89" cy="63.57" r="7.11"/>
      <circle class="cls-3" cx="69.39" cy="63.57" r="7.11"/>
      <g>
        <path class="cls-5" d="M55.58,63.19c-1.96-2.61-6.75-2.68-7.44-2.68s-5.49.07-7.44,2.68c-1.79,2.39.71,5,3.2,3.48,1.87-1.15,3.66-1.33,4.25-1.33s2.37.18,4.25,1.33c2.49,1.52,4.99-1.08,3.2-3.48Z"/>
        <path d="M53.89,68.01c-.62,0-1.28-.17-1.96-.59-1.94-1.19-3.72-1.2-3.79-1.2s-1.85.01-3.79,1.2c-1.74,1.07-3.43.54-4.33-.45-.89-.97-1.24-2.68-.02-4.3,2.11-2.81,6.77-3.03,8.15-3.03s6.04.22,8.15,3.03c1.21,1.62.86,3.32-.02,4.3-.55.61-1.4,1.04-2.37,1.04ZM48.14,64.47c.24,0,2.39.04,4.71,1.46.95.58,1.73.29,2.12-.14.39-.43.57-1.2-.08-2.07-1.7-2.26-6.23-2.33-6.74-2.33s-5.05.07-6.74,2.33c-.66.87-.47,1.64-.08,2.07.39.43,1.17.72,2.12.14,2.31-1.42,4.47-1.46,4.71-1.46Z"/>
      </g>
      <g>
        <path class="cls-1" d="M46.65,70.99c2.98,4.04-.49,9.82-2.35,12.21-7.91,10.18-19.89,10.89-26.21,9.09-5.77-1.65-4.59-9.9.13-9.9,3.62,0,9.17.29,13.56-5.01,2.47-2.98,2.96-6.13,5.68-8.03,2.79-1.95,7.14-1.15,9.19,1.64Z"/>
        <path d="M24.04,94.29c-2.51,0-4.69-.34-6.29-.8-3.8-1.09-5.11-4.56-4.72-7.33.41-2.95,2.55-5.02,5.19-5.02h.56c3.47.02,8.24.03,12.04-4.56.95-1.14,1.59-2.34,2.22-3.5.92-1.71,1.88-3.48,3.71-4.76,3.34-2.33,8.44-1.43,10.92,1.93h0c2.97,4.04.73,9.74-2.37,13.72-6.29,8.1-14.83,10.32-21.25,10.32ZM18.22,83.64c-1.6,0-2.52,1.44-2.71,2.86-.23,1.66.4,3.86,2.93,4.58,5.14,1.47,16.95,1.56,24.88-8.65.54-.69,5.16-6.85,2.33-10.7-1.67-2.28-5.24-2.92-7.47-1.36-1.35.94-2.09,2.31-2.94,3.9-.65,1.21-1.39,2.57-2.49,3.91-4.55,5.49-10.22,5.47-13.97,5.46h-.55Z"/>
      </g>
      <g>
        <path class="cls-1" d="M48.94,70.99c-2.98,4.04.49,9.82,2.35,12.21,7.91,10.18,19.89,10.89,26.21,9.09,5.77-1.65,4.59-9.9-.13-9.9-3.62,0-9.17.29-13.56-5.01-2.47-2.98-2.96-6.13-5.68-8.03-2.79-1.95-7.14-1.15-9.19,1.64Z"/>
        <path d="M71.55,94.29c-6.42,0-14.96-2.22-21.25-10.32-3.09-3.98-5.34-9.67-2.37-13.72h0c2.48-3.36,7.58-4.26,10.92-1.93,1.83,1.28,2.79,3.05,3.71,4.76.62,1.16,1.27,2.36,2.22,3.5,3.79,4.58,8.56,4.57,12.04,4.56h.56c2.64,0,4.78,2.06,5.19,5.02.39,2.77-.92,6.25-4.72,7.33-1.6.46-3.78.8-6.29.8ZM49.95,71.74h0c-2.83,3.85,1.79,10.01,2.33,10.7,7.93,10.21,19.74,10.12,24.88,8.65,2.54-.73,3.16-2.92,2.93-4.58-.2-1.43-1.12-2.86-2.71-2.86h-.55c-3.75.02-9.42.03-13.97-5.46-1.11-1.33-1.84-2.7-2.49-3.91-.85-1.59-1.59-2.95-2.94-3.9-2.23-1.56-5.8-.91-7.47,1.36Z"/>
      </g>
      <path d="M41.63,49.41c-.4,0-.77-.28-.85-.69-.1-.47.2-.93.67-1.04.07-.02,1.18-.29,2.03-1.51.28-.4.82-.49,1.22-.21.4.28.49.82.21,1.22-1.27,1.81-3.01,2.2-3.09,2.21-.06.01-.12.02-.18.02Z"/>
      <path d="M54.64,49.41c-.06,0-.12,0-.18-.02-.07-.02-1.82-.4-3.09-2.21-.28-.4-.18-.94.21-1.22.4-.28.94-.18,1.22.21.86,1.22,1.98,1.5,2.03,1.51.47.11.76.57.66,1.04-.09.41-.45.69-.85.69Z"/>
      <g>
        <path class="cls-1" d="M51.63,17.75c0-2.65-.17-6.47-3.52-6.47-3.35,0-3.52,3.82-3.52,6.47"/>
        <path class="cls-4" d="M51.63,18.62c-.48,0-.88-.39-.88-.88,0-4.03-.74-5.59-2.65-5.59s-2.65,1.57-2.65,5.59c0,.48-.39.88-.88.88s-.88-.39-.88-.88c0-2.2,0-7.34,4.4-7.34s4.4,5.15,4.4,7.34c0,.48-.39.88-.88.88Z"/>
      </g>
      <g>
        <path class="cls-1" d="M31.37,20.1c-.99-2.49-2.78-5.31-5.6-4.05-2.82,1.26-1.9,4.61-.48,6.97"/>
        <path class="cls-4" d="M25.3,23.9c-.3,0-.59-.15-.75-.42-.62-1.03-1.99-3.65-1.29-5.88.33-1.04,1.07-1.85,2.16-2.34,1.06-.47,2.1-.51,3.07-.12,1.46.59,2.71,2.16,3.7,4.64.18.45-.04.96-.49,1.14-.45.18-.96-.04-1.14-.49-.8-2-1.74-3.27-2.73-3.67-.52-.21-1.08-.18-1.7.1-.63.28-1.03.7-1.2,1.26-.34,1.07.08,2.74,1.12,4.45.25.41.12.95-.3,1.2-.14.09-.3.13-.45.13Z"/>
      </g>
      <g>
        <path class="cls-1" d="M31.18,7.8c-.95-2.48-1.25-5.87,1.78-6.76,3.27-.96,4.72,2.45,5.15,4.64"/>
        <path class="cls-4" d="M31.18,8.68c-.35,0-.68-.21-.82-.56-.41-1.06-1.25-3.76-.22-5.83.5-1.02,1.39-1.74,2.58-2.08,1.23-.36,2.37-.24,3.36.36,1.97,1.19,2.68,3.86,2.9,4.95.09.47-.21.93-.69,1.03-.47.09-.93-.21-1.03-.69-.27-1.39-.97-3.11-2.08-3.79-.57-.34-1.21-.4-1.96-.18-.72.21-1.21.6-1.5,1.18-.5,1.01-.39,2.66.29,4.43.17.45-.05.96-.5,1.13-.1.04-.21.06-.31.06Z"/>
      </g>
      <g>
        <path class="cls-1" d="M9.99,34.38c-1.9-2.17-2.92-5.44-.85-6.8,2.08-1.37,4.53.57,6.05,2.57"/>
        <path class="cls-4" d="M9.99,35.26c-.24,0-.49-.1-.66-.3-1.23-1.41-2.45-3.64-2.17-5.69.14-1.03.66-1.87,1.5-2.42,2.52-1.65,5.38.35,7.23,2.77.29.38.22.93-.17,1.23-.38.29-.93.22-1.23-.17-.47-.62-2.92-3.65-4.87-2.37-.42.28-.66.67-.73,1.2-.16,1.19.54,2.91,1.75,4.3.32.36.28.92-.08,1.23-.17.15-.37.22-.58.22Z"/>
      </g>
      <g>
        <path class="cls-1" d="M15.72,14.51c-1.35-2.08-4.12-4.71-6.49-2.86-2.17,1.69-1.13,4.75.79,6.91"/>
        <path class="cls-4" d="M10.01,19.43c-.24,0-.48-.1-.65-.29-1.53-1.72-2.36-3.74-2.21-5.4.1-1.12.63-2.08,1.53-2.78.86-.67,1.87-.93,2.91-.76,2.47.42,4.34,3.04,4.85,3.83.26.41.15.95-.26,1.21-.41.26-.95.15-1.21-.26-.82-1.26-2.27-2.82-3.68-3.06-.56-.09-1.07.04-1.55.41-.52.41-.8.92-.86,1.56-.11,1.17.57,2.73,1.77,4.08.32.36.29.91-.07,1.24-.17.15-.37.22-.58.22Z"/>
      </g>
      <g>
        <path class="cls-1" d="M64.9,20.1c.99-2.49,2.78-5.31,5.6-4.05,2.82,1.26,1.9,4.61.48,6.97"/>
        <path class="cls-4" d="M70.98,23.9c-.15,0-.31-.04-.45-.13-.41-.25-.55-.79-.3-1.2,1.03-1.71,1.45-3.38,1.12-4.45-.18-.57-.57-.98-1.2-1.26-.62-.28-1.17-.31-1.7-.1-.99.4-1.93,1.67-2.73,3.67-.18.45-.69.67-1.14.49-.45-.18-.67-.69-.49-1.14.99-2.49,2.24-4.05,3.7-4.64.97-.4,2.01-.36,3.07.12,1.09.49,1.83,1.29,2.16,2.34.7,2.23-.67,4.85-1.29,5.88-.16.27-.45.42-.75.42Z"/>
      </g>
      <g>
        <path class="cls-1" d="M65.1,7.8c.95-2.48,1.25-5.87-1.78-6.76-3.27-.96-4.72,2.45-5.15,4.64"/>
        <path class="cls-4" d="M65.1,8.68c-.1,0-.21-.02-.31-.06-.45-.17-.68-.68-.5-1.13.68-1.77.78-3.42.29-4.43-.29-.58-.78-.97-1.5-1.18-.76-.22-1.4-.16-1.96.18-1.12.68-1.81,2.4-2.08,3.79-.09.47-.55.78-1.03.69-.47-.09-.78-.55-.69-1.03.22-1.09.93-3.76,2.89-4.95,1-.6,2.13-.73,3.36-.36,1.18.35,2.07,1.07,2.58,2.08,1.02,2.07.19,4.77-.22,5.83-.13.35-.47.56-.82.56Z"/>
      </g>
      <g>
        <path class="cls-1" d="M86.28,34.38c1.9-2.17,2.92-5.44.85-6.8-2.08-1.37-4.53.57-6.05,2.57"/>
        <path class="cls-4" d="M86.28,35.26c-.2,0-.41-.07-.58-.22-.36-.32-.4-.87-.08-1.23,1.21-1.39,1.92-3.11,1.75-4.3-.07-.53-.31-.92-.73-1.2-1.94-1.28-4.4,1.75-4.87,2.37-.29.38-.84.46-1.23.17-.38-.29-.46-.84-.17-1.23,1.84-2.42,4.71-4.42,7.23-2.77.84.55,1.36,1.39,1.5,2.42.28,2.04-.94,4.28-2.17,5.69-.17.2-.42.3-.66.3Z"/>
      </g>
      <g>
        <path class="cls-1" d="M80.56,14.51c1.35-2.08,4.12-4.71,6.49-2.86,2.17,1.69,1.13,4.75-.79,6.91"/>
        <path class="cls-4" d="M86.26,19.43c-.21,0-.41-.07-.58-.22-.36-.32-.39-.87-.07-1.24,1.2-1.35,1.88-2.91,1.77-4.08-.06-.64-.34-1.15-.86-1.56-.48-.37-.98-.51-1.55-.41-1.4.24-2.86,1.8-3.68,3.06-.26.41-.8.52-1.21.26-.41-.26-.52-.8-.26-1.21.52-.79,2.39-3.42,4.85-3.83,1.04-.18,2.05.09,2.91.76.9.7,1.43,1.66,1.53,2.78.15,1.66-.67,3.68-2.21,5.4-.17.19-.41.29-.65.29Z"/>
      </g>
    </g>
  </g>
</svg>