<?xml version="1.0" encoding="UTF-8"?>
<svg id="Layer_2" data-name="Layer 2" xmlns="http://www.w3.org/2000/svg" viewBox="0 0 137.14 135.82">
  <defs>
    <style>
      .cls-1 {
        fill: #1d50a2;
      }

      .cls-2 {
        fill: #ca5089;
      }

      .cls-3 {
        fill: #fff;
      }

      .cls-4 {
        fill: #90de63;
      }

      .cls-5 {
        fill: #6e411d;
      }

      .cls-6 {
        fill: #e8810f;
      }

      .cls-7 {
        fill: #f6977e;
      }

      .cls-8 {
        fill: #f3981c;
      }

      .cls-9 {
        fill: #3b82c5;
      }

      .cls-10 {
        fill: #cf651c;
      }

      .cls-11 {
        fill: #f092b5;
      }

      .cls-12 {
        fill: #dcdcdc;
      }

      .cls-13 {
        fill: #c56619;
      }

      .cls-14 {
        fill: #a52249;
      }
    </style>
  </defs>
  <g id="_디자인" data-name="디자인">
    <g>
      <g>
        <path class="cls-8" d="M75.13,12.19c1.47,7.74-6.07,8.89-15.32,10.65-9.24,1.76-16.68,3.45-18.15-4.29-1.47-7.74,4.83-15.44,14.07-17.19,9.24-1.76,17.93,3.1,19.4,10.84Z"/>
        <path class="cls-13" d="M49.32,25.33c-.67,0-1.32-.04-1.93-.12-3.78-.49-5.97-2.6-6.71-6.48-1.57-8.27,5.1-16.51,14.87-18.36,9.77-1.85,18.99,3.36,20.56,11.63h0c.74,3.87-.53,6.65-3.86,8.48-2.82,1.55-6.77,2.3-11.35,3.16l-1.8.34c-3.69.7-6.98,1.33-9.78,1.33ZM59.51,2c-1.18,0-2.38.11-3.59.34-8.69,1.65-14.64,8.84-13.28,16.02.58,3.03,2.07,4.49,5,4.87,2.87.37,6.68-.36,11.09-1.2l1.8-.34c4.41-.83,8.21-1.55,10.75-2.95,2.58-1.42,3.44-3.33,2.87-6.36h0c-1.17-6.18-7.39-10.38-14.64-10.38Z"/>
      </g>
      <g>
        <path class="cls-9" d="M75.13,12.19c-.13-.71-.33-1.39-.58-2.04-2.79-1.9-9.63-2.36-17.32-.9-7.68,1.46-13.88,4.39-15.78,7.18,0,.7.08,1.41.21,2.11,1.47,7.74,8.91,6.05,18.15,4.29s16.79-2.91,15.32-10.65Z"/>
        <path class="cls-1" d="M49.32,25.33c-.67,0-1.32-.04-1.93-.12-3.78-.49-5.97-2.6-6.71-6.48-.14-.75-.22-1.52-.23-2.28,0-.2.06-.41.17-.57,2.13-3.13,8.57-6.11,16.42-7.6,7.85-1.49,14.94-1.08,18.07,1.05.17.12.3.28.37.47.27.72.48,1.47.63,2.21.74,3.87-.53,6.65-3.86,8.48-2.82,1.55-6.77,2.3-11.35,3.16l-1.8.34c-3.69.7-6.98,1.33-9.78,1.33ZM42.46,16.75c.02.54.08,1.08.18,1.61.58,3.03,2.07,4.49,5,4.87,2.87.37,6.68-.36,11.09-1.2l1.8-.34c4.41-.83,8.21-1.55,10.75-2.95,2.58-1.42,3.44-3.33,2.87-6.36h0c-.1-.53-.24-1.05-.42-1.57-2.79-1.64-9.4-1.89-16.31-.57-6.91,1.31-12.96,3.96-14.96,6.51Z"/>
      </g>
      <g>
        <ellipse class="cls-8" cx="59.86" cy="22.22" rx="28.21" ry="9.41" transform="translate(-3.1 11.56) rotate(-10.75)"/>
        <path class="cls-13" d="M47.53,33.86c-8.6,0-15.54-1.83-16.37-6.19-.56-2.97,1.98-6.13,7.37-9.14,4.99-2.79,11.88-5.11,19.38-6.54,13.91-2.64,29.38-1.87,30.64,4.78h0c1.26,6.64-12.84,13.03-26.75,15.68-4.79.91-9.76,1.41-14.27,1.41ZM71.95,12.59c-4,0-8.62.42-13.66,1.37-7.3,1.39-13.97,3.63-18.78,6.32-4.37,2.44-6.75,5.06-6.38,7.02.74,3.91,12.55,6.18,28.3,3.18,15.75-2.99,25.9-9.43,25.16-13.34-.5-2.66-6.13-4.56-14.64-4.56Z"/>
      </g>
      <g>
        <g>
          <path class="cls-3" d="M122.72,114.31c-3.84,4.93-8.04,6.22-11.46,4.8-5.41-2.24-17.66-12.69-20.97-17.06-2.99-3.95,5.02-13.68,8.98-9.63,8.93,9.11,16.46,12.51,16.46,12.51,0,0,3.83-3,7.72.63,2.29,2.14,2.08,5.14-.72,8.75Z"/>
          <path d="M113.99,120.92c-1.08,0-2.16-.21-3.21-.65-5.86-2.43-18.19-13.1-21.49-17.46-2.23-2.95-.1-7.8,3.15-10.6,2.79-2.41,5.75-2.66,7.72-.66,7.23,7.38,13.54,10.95,15.47,11.94,1.9-1.1,5.41-1.88,8.66,1.15,1.63,1.52,3.72,4.9-.59,10.43h0c-2.98,3.82-6.39,5.84-9.72,5.84ZM96.99,92.72c-1.14,0-2.33.89-2.91,1.39-2.56,2.21-3.92,5.71-2.79,7.2,3.06,4.04,15.19,14.48,20.45,16.66,3.15,1.31,6.8-.3,10-4.42h0c2.35-3.02,2.64-5.4.86-7.07-2.98-2.78-5.79-.79-6.1-.55-.37.28-.86.34-1.28.15-.32-.14-7.85-3.6-16.84-12.77-.42-.43-.9-.59-1.39-.59Z"/>
        </g>
        <path d="M114.14,107.54c-.31,0-.61-.11-.85-.34-.51-.47-.53-1.26-.06-1.77.79-.85,1.76-1.5,1.8-1.53.57-.38,1.35-.23,1.73.34.38.57.23,1.35-.34,1.73,0,0-.78.53-1.37,1.16-.25.26-.58.4-.92.4Z"/>
      </g>
      <g>
        <g>
          <path class="cls-3" d="M54.74,134.56c6.25-.1,12.01-1.48,12.58-4.54.64-3.37-2.7-11.11-2.91-13.49-.06-.74,1.54-5.66,6.01-10.98,2.15-2.56-8.83-7.98-12.61-4.29-4.13,4.04-7.31,10.67-7.28,14.37.02,3.51,2.12,8.4,2.12,8.4,0,0-5.5,1.13-5.18,6.21.2,3.12,2.06,4.39,7.26,4.3Z"/>
          <path d="M54.22,135.82c-3.86,0-7.69-.76-7.98-5.48-.25-3.98,2.51-6.16,4.77-7.08-.65-1.76-1.7-4.99-1.72-7.61-.02-4.19,3.48-11.18,7.66-15.27,3.46-3.39,10.86-.73,13.58,1.78,2.29,2.12,1.23,3.75.86,4.2-4.09,4.87-5.66,9.37-5.72,10.15.06.64.54,2.2,1.05,3.86,1.08,3.48,2.3,7.43,1.83,9.89-.91,4.82-9.95,5.49-13.79,5.56l-.02-1.25.02,1.25c-.18,0-.36,0-.54,0ZM61.54,101.27c-1.23,0-2.23.3-2.84.9-4.09,4.01-6.93,10.31-6.91,13.47.02,3.21,2,7.87,2.02,7.92.15.35.13.74-.04,1.07-.17.33-.49.57-.86.65-.18.04-4.43.99-4.18,4.91.12,1.83.62,3.22,5.99,3.13,6.32-.1,11-1.55,11.38-3.52.35-1.85-.87-5.8-1.76-8.68-.6-1.94-1.07-3.47-1.16-4.46-.12-1.39,1.94-6.7,6.3-11.89-.05-.3-1.29-1.68-4.05-2.7-1.4-.52-2.74-.78-3.89-.78Z"/>
        </g>
        <path d="M52.66,125.3c-.57,0-1.08-.39-1.22-.97-.16-.67.26-1.34.94-1.5.28-.06,1.69-.38,2.41-.38s1.25.56,1.25,1.25-.56,1.25-1.25,1.25c-.29,0-1.18.17-1.85.32-.09.02-.19.03-.28.03Z"/>
      </g>
      <path d="M42.33,26.08c-.39,0-.78-.18-1.02-.53-.4-.56-.26-1.34.3-1.74,6.21-4.39,28.06-8.56,35.43-6.77.67.16,1.08.84.92,1.51-.16.67-.84,1.08-1.51.92-6.61-1.61-27.83,2.45-33.4,6.38-.22.15-.47.23-.72.23Z"/>
      <g>
        <path class="cls-4" d="M100.55,33.25c-8.79-8.13-18.54-12.6-26.46-15.07-.42-.13-.91-.23-1.45-.31-7.43-.04-19.68,2.29-26.61,5.08-.48.28-.92.56-1.27.85-6.44,5.19-13.84,12.92-19.02,23.67-6.54,13.58-5.22,29.61.94,42.08,8.28,16.79,22.7,21.66,31.48,21.81,7.5.12,12.99-2.39,17.84-3.31,4.86-.92,10.89-.6,17.82-3.46,8.11-3.35,19.74-13.17,21.29-31.83,1.15-13.87-3.49-29.26-14.56-39.5Z"/>
        <path d="M58.69,112.6c-.18,0-.37,0-.55,0-10.47-.17-24.52-6.17-32.58-22.5-6.89-13.97-7.24-30.11-.94-43.18,4.44-9.21,10.95-17.32,19.36-24.1.39-.31.86-.63,1.43-.96.05-.03.1-.06.16-.08,7.02-2.82,19.27-5.17,26.89-5.17.13,0,.25,0,.38.01.63.09,1.17.21,1.63.36,10.35,3.22,19.41,8.39,26.93,15.34h0c10.65,9.85,16.24,25,14.95,40.52-1.51,18.15-12.38,28.88-22.06,32.88-4.97,2.05-9.43,2.52-13.37,2.92-1.67.17-3.25.34-4.69.61-1.44.27-2.97.7-4.59,1.15-3.68,1.03-7.84,2.19-12.96,2.19ZM46.58,24.07c-.42.25-.77.48-1.04.7-8.12,6.55-14.41,14.36-18.68,23.24-5.88,12.2-5.52,27.9.93,40.99,7.56,15.32,20.65,20.95,30.38,21.11,5.01.08,9.15-1.07,12.8-2.09,1.67-.47,3.25-.91,4.79-1.2,1.54-.29,3.17-.46,4.9-.64,3.77-.39,8.04-.83,12.67-2.75,8.99-3.71,19.11-13.75,20.52-30.78,1.21-14.54-4.22-29.28-14.16-38.48h0c-7.25-6.71-15.99-11.68-25.98-14.79-.32-.1-.71-.19-1.17-.26-7.35-.02-19.15,2.24-25.97,4.95Z"/>
      </g>
      <g>
        <path class="cls-3" d="M110.12,70.44c-1.58-5.91-5.77-12.23-2.01-14.72,1.4-.93,5.6-.39,10,4.3,3.61,3.85,4.07,9.11,2.21,11.47-2.67,3.37-8.6,4.93-10.2-1.04Z"/>
        <path d="M114.64,75.72c-.41,0-.8-.04-1.19-.12-2.21-.46-3.83-2.17-4.54-4.83h0c-.42-1.56-1.03-3.17-1.63-4.74-1.68-4.42-3.42-8.99.14-11.35,2.21-1.47,7.03-.4,11.6,4.48,4.1,4.37,4.49,10.3,2.28,13.1-1.69,2.14-4.3,3.46-6.66,3.46ZM109.68,56.59c-.43,0-.74.07-.88.17-1.77,1.17-.87,3.95.82,8.38.62,1.62,1.26,3.3,1.71,4.98h0c.47,1.75,1.35,2.77,2.63,3.03,1.69.35,4.01-.7,5.38-2.44,1.35-1.71,1.2-6.29-2.14-9.84-3.27-3.48-6.1-4.28-7.52-4.28Z"/>
      </g>
      <g>
        <path class="cls-14" d="M72.08,51.11s-1.86-.23-6.76.7c-4.9.93-6.54,1.83-6.54,1.83,0,0,1.63,9.57,8.46,8.28,6.83-1.3,4.84-10.8,4.84-10.8Z"/>
        <path class="cls-3" d="M59.65,56.43c.67-.29,2.51-.98,6.23-1.68s5.68-.74,6.41-.72l.05.07c0-1.7-.27-2.99-.27-2.99,0,0-1.86-.23-6.76.7-4.9.93-6.54,1.83-6.54,1.83,0,0,.23,1.32.86,2.92v-.12Z"/>
        <path d="M66,62.91c-1.32,0-2.54-.38-3.64-1.14-3.46-2.4-4.4-7.76-4.44-7.98-.06-.37.12-.74.44-.92.07-.04,1.82-.97,6.8-1.92,4.98-.95,6.95-.72,7.03-.71.37.05.67.32.75.69.05.23,1.13,5.55-1.21,9.06-1,1.49-2.45,2.43-4.32,2.79-.48.09-.95.14-1.41.14ZM59.79,54.15c.35,1.4,1.36,4.64,3.57,6.18,1.09.75,2.3.99,3.72.72,1.41-.27,2.46-.94,3.2-2.04,1.5-2.25,1.25-5.63,1.06-7.05-.89,0-2.74.12-5.85.71-3.11.59-4.87,1.17-5.7,1.48Z"/>
      </g>
      <g>
        <circle class="cls-7" cx="44.99" cy="58.65" r="7.11"/>
        <circle class="cls-7" cx="86.74" cy="50.72" r="7.11"/>
      </g>
      <g>
        <path d="M75.72,48.24c-.08,0-.16-.01-.24-.03l-5.82-1.68c-.31-.09-.55-.35-.61-.67-.06-.32.06-.65.31-.85l4.77-3.84c.38-.3.93-.24,1.23.13.3.38.24.93-.13,1.23l-3.46,2.79,4.21,1.22c.46.13.73.62.6,1.08-.11.38-.46.63-.84.63Z"/>
        <path d="M54.02,52.37c-.26,0-.52-.12-.69-.34-.29-.38-.22-.93.16-1.23l3.47-2.67-4.24-1.32c-.46-.14-.72-.63-.57-1.1.14-.46.64-.72,1.1-.57l5.85,1.82c.31.1.54.36.6.68.06.32-.07.65-.33.85l-4.8,3.7c-.16.12-.35.18-.53.18Z"/>
      </g>
      <g>
        <g>
          <path class="cls-8" d="M52.91,121.33c-5.64,4-13.37,3.99-19.43.92-2.65-1.34-4.86-3.92-6.67-6.2-4.03-5.07-7.63-11.04-9.38-17.33-2.24-8.04,1.52-17.34,9.08-21.17,3.64-1.65,7.8-2.06,11.76-1.91,3.98.19,8.68,1.01,11.77-2.12,2.83-2.9,5.34-6.36,9.24-7.88,3.9-1.78,8.33-.98,11.95,1.08,2.84,1.62,5.15,4.03,6.98,6.71,1.74,2.55,3.52,5.56,4.37,8.54,1.58,5.48.98,12.27-3.84,15.95-2.38,2-5.39,3-8.37,3.7-2.05.5-4.23,1-5.85,2.45-2.55,2.6-3.56,6.23-5.23,9.38-1.68,2.92-3.66,5.84-6.38,7.9Z"/>
          <path class="cls-13" d="M42.67,125.46c-3.25,0-6.57-.77-9.63-2.32-2.75-1.39-4.99-3.93-7.01-6.47-4.74-5.98-7.96-11.93-9.56-17.68-2.43-8.73,1.69-18.33,9.59-22.33,3.37-1.53,7.48-2.2,12.25-2.01.54.03,1.07.06,1.62.1,3.46.23,7.03.47,9.41-1.93.58-.59,1.14-1.21,1.71-1.83,2.24-2.45,4.56-4.99,7.87-6.28,3.79-1.73,8.48-1.32,12.81,1.14,2.73,1.55,5.19,3.91,7.31,7.01,2.29,3.35,3.76,6.23,4.51,8.83,1.5,5.22,1.31,12.82-4.2,17.02-2.66,2.23-6.08,3.25-8.75,3.88l-.14.03c-1.91.46-3.88.94-5.27,2.19-1.6,1.64-2.56,3.79-3.58,6.07-.45,1-.91,2.04-1.44,3.04-1.53,2.65-3.65,5.95-6.66,8.22,0,0-.02.01-.02.02-3.1,2.2-6.91,3.31-10.83,3.31ZM36.78,76.61c-3.84,0-7.15.62-9.86,1.85-6.91,3.5-10.67,12.29-8.53,19.99,1.53,5.49,4.62,11.2,9.2,16.97,1.88,2.36,3.94,4.72,6.34,5.93,6.09,3.09,13.31,2.76,18.38-.84,2.72-2.06,4.69-5.14,6.1-7.59.48-.9.93-1.91,1.36-2.88,1.04-2.34,2.12-4.76,4.02-6.7,1.81-1.63,4.13-2.19,6.18-2.69l.14-.04c2.47-.58,5.59-1.5,7.96-3.49,4.74-3.62,4.85-10.29,3.53-14.9-.69-2.38-2.07-5.08-4.24-8.25-1.95-2.85-4.18-5-6.65-6.4-3.77-2.14-7.79-2.52-11.04-1.04-2.92,1.15-4.99,3.4-7.17,5.79-.58.64-1.17,1.27-1.76,1.88-3.02,3.06-7.24,2.77-10.97,2.52-.53-.04-1.06-.07-1.57-.1-.49-.02-.97-.03-1.44-.03ZM52.91,121.33h0,0Z"/>
        </g>
        <circle class="cls-10" cx="61.72" cy="86.28" r="10.12"/>
        <circle class="cls-5" cx="61.72" cy="86.28" r="8.1"/>
        <g>
          <polygon class="cls-6" points="96.92 70.83 122.36 54.84 120.41 51.58 120.06 51 118.11 47.74 91.99 62.58 66.04 77.71 68.67 82.12 71.31 86.54 96.92 70.83"/>
          <path class="cls-13" d="M71.31,87.41c-.07,0-.14,0-.21-.03-.23-.06-.42-.2-.54-.4l-5.28-8.82c-.12-.2-.15-.44-.1-.67.06-.23.2-.42.41-.54l25.95-15.13,26.13-14.85c.41-.24.94-.1,1.18.31l4.25,7.1c.24.41.12.94-.29,1.19l-25.44,15.99s0,0,0,0l-25.61,15.7c-.14.09-.3.13-.46.13ZM67.24,78.02l4.37,7.3,24.85-15.24,24.71-15.53-3.37-5.63-25.38,14.42-25.18,14.68ZM96.92,70.83h0,0Z"/>
        </g>
        <g>
          <g>
            <g>
              <rect class="cls-5" x="127.63" y="37.07" width="1.67" height="8.17" transform="translate(-2.91 71.77) rotate(-30.88)"/>
              <ellipse class="cls-5" cx="126.18" cy="37.32" rx="1.87" ry="1.54" transform="translate(-1.27 70.05) rotate(-30.88)"/>
            </g>
            <g>
              <rect class="cls-5" x="124.17" y="38.63" width="1.67" height="8.64" transform="translate(-4.32 70.25) rotate(-30.88)"/>
              <ellipse class="cls-5" cx="122.59" cy="38.91" rx="1.87" ry="1.54" transform="translate(-2.59 68.44) rotate(-30.88)"/>
            </g>
            <g>
              <rect class="cls-5" x="120.71" y="40.18" width="1.67" height="9.12" transform="translate(-5.73 68.73) rotate(-30.88)"/>
              <ellipse class="cls-5" cx="119.01" cy="40.5" rx="1.87" ry="1.54" transform="translate(-3.92 66.82) rotate(-30.88)"/>
            </g>
            <g>
              <rect class="cls-5" x="132.22" y="44.74" width="1.67" height="8.17" transform="translate(-6.2 75.21) rotate(-30.88)"/>
              <ellipse class="cls-5" cx="135.35" cy="52.66" rx="1.87" ry="1.54" transform="translate(-7.84 76.94) rotate(-30.88)"/>
            </g>
            <g>
              <rect class="cls-5" x="129" y="46.71" width="1.67" height="8.64" transform="translate(-7.78 73.87) rotate(-30.88)"/>
              <ellipse class="cls-5" cx="132.26" cy="55.07" rx="1.87" ry="1.54" transform="translate(-9.52 75.69) rotate(-30.88)"/>
            </g>
            <g>
              <rect class="cls-5" x="125.78" y="48.67" width="1.67" height="9.12" transform="translate(-9.37 72.53) rotate(-30.88)"/>
              <ellipse class="cls-5" cx="129.16" cy="57.48" rx="1.87" ry="1.54" transform="translate(-11.19 74.44) rotate(-30.88)"/>
            </g>
          </g>
          <g>
            <path class="cls-8" d="M128.41,54.2l6.9-5.26c.79-.61.93-1.84.33-2.85l-1.77-2.95-1.77-2.95c-.6-1.01-1.76-1.47-2.67-1.06l-7.9,3.59c-.94.42-1.72,1.11-2.26,2.02-.16.26-.27.55-.38.84l-.79,2.18,2.12,3.55,2.12,3.55,2.29.33c.31.04.61.08.91.06,1.05-.05,2.03-.41,2.85-1.04Z"/>
            <path class="cls-13" d="M125.42,56.12c-.32,0-.63-.04-.9-.08l-2.29-.33c-.26-.04-.49-.19-.62-.42l-4.25-7.1c-.13-.23-.16-.5-.07-.75l.79-2.18c.11-.3.25-.65.45-.99.64-1.06,1.55-1.88,2.65-2.37l7.9-3.59c1.33-.59,2.95.02,3.78,1.41l3.53,5.91c.83,1.39.6,3.11-.54,3.99l-6.9,5.27c-.95.74-2.1,1.16-3.34,1.22-.06,0-.13,0-.19,0ZM122.9,54.03l1.88.27c.23.03.51.07.75.06.87-.04,1.69-.34,2.35-.85,0,0,0,0,0,0l6.9-5.26c.43-.33.48-1.09.11-1.71l-3.53-5.91c-.37-.62-1.06-.93-1.56-.71l-7.9,3.59c-.78.35-1.42.92-1.87,1.67-.12.21-.22.46-.3.68l-.65,1.79,3.82,6.39Z"/>
          </g>
          <g>
            <rect class="cls-5" x="121.35" y="44.41" width="9.87" height="2.17" rx="1.09" ry="1.09" transform="translate(-5.45 71.27) rotate(-30.88)"/>
            <path class="cls-5" d="M122.99,49.06c-.54,0-1.07-.28-1.36-.77-.22-.36-.28-.79-.18-1.2.1-.41.36-.76.72-.97l6.61-3.95c.75-.45,1.73-.2,2.18.55.22.36.28.79.18,1.2-.1.41-.36.76-.72.97l-6.61,3.95c-.25.15-.53.22-.81.22ZM129.6,42.93c-.1,0-.21.03-.3.08l-6.61,3.95c-.13.08-.23.21-.27.36-.04.15-.02.31.07.44h0c.17.28.52.37.8.2l6.61-3.95c.13-.08.23-.21.27-.36.04-.15.02-.31-.07-.44-.11-.18-.3-.28-.5-.28Z"/>
          </g>
          <g>
            <rect class="cls-5" x="123.27" y="47.61" width="9.87" height="2.17" rx="1.09" ry="1.09" transform="translate(-6.82 72.7) rotate(-30.88)"/>
            <path class="cls-5" d="M124.9,52.26c-.13,0-.26-.02-.39-.05-.41-.1-.76-.36-.97-.72-.45-.75-.2-1.73.55-2.17l6.61-3.95c.36-.22.79-.28,1.2-.18.41.1.76.36.97.72.45.75.2,1.73-.55,2.18l-6.61,3.95c-.25.15-.53.23-.81.23ZM131.51,46.13c-.1,0-.21.03-.3.08l-6.61,3.95c-.28.17-.37.53-.2.8h0c.08.13.21.23.36.27.15.04.31.02.44-.07l6.61-3.95c.28-.17.37-.53.2-.8-.08-.13-.21-.23-.36-.27-.05-.01-.1-.02-.14-.02Z"/>
          </g>
        </g>
        <path class="cls-5" d="M45.14,105.43l-8.14-13.61c-.21-.35-.67-.47-1.02-.26l-1,.6c-.35.21-.47.67-.26,1.02h0c.7,1.16.66,2.62-.08,3.76l-.67,1.02c-.16.24-.16.55-.02.79l3.64,6.09c.15.25.42.39.71.36l1.21-.11c1.35-.12,2.65.54,3.35,1.7h0c.21.35.67.47,1.02.26l1-.6c.35-.21.47-.67.26-1.02Z"/>
        <g>
          <path class="cls-12" d="M39.02,99.29c-.13,0-.25-.07-.32-.18-.11-.18-.05-.41.13-.51l91.12-54.49c.18-.11.41-.05.51.13.11.18.05.41-.13.51l-91.12,54.49c-.06.04-.13.05-.19.05Z"/>
          <path class="cls-12" d="M38.19,97.91c-.13,0-.25-.07-.32-.18-.11-.18-.05-.41.13-.51l88.71-53.05c.18-.11.41-.05.51.13.11.18.05.41-.13.51l-88.71,53.05c-.06.04-.13.05-.19.05Z"/>
          <path class="cls-12" d="M40.68,102.07c-.13,0-.25-.07-.32-.18-.11-.18-.05-.41.13-.51l88.71-53.05c.18-.11.41-.05.51.13.11.18.05.41-.13.51l-88.71,53.05c-.06.04-.13.05-.19.05Z"/>
          <path class="cls-12" d="M39.85,100.68c-.13,0-.25-.07-.32-.18-.11-.18-.05-.41.13-.51l91.12-54.49c.18-.11.41-.05.51.13.11.18.05.41-.13.51l-91.12,54.49c-.06.04-.13.05-.19.05Z"/>
        </g>
      </g>
      <g>
        <path class="cls-3" d="M113.23,64.14s-2.76-3.15-6.81-3.95c-3.73-.74-7.59.94-8.51,5.3-.68,3.22,1.16,6.57,5.51,8.84,5.33,2.78,13.85,1.92,16.91-2.84"/>
        <path d="M110.34,77.14c-2.68,0-5.36-.59-7.51-1.71-4.68-2.45-6.98-6.26-6.15-10.21,1.09-5.2,5.85-7.09,9.98-6.27,4.41.88,7.38,4.21,7.51,4.35.46.52.4,1.31-.11,1.76-.52.45-1.31.4-1.76-.11h0s-2.56-2.84-6.12-3.55c-2.93-.58-6.24.53-7.04,4.33-.59,2.79,1.23,5.58,4.86,7.48,4.66,2.43,12.51,1.9,15.28-2.41.37-.58,1.15-.75,1.73-.38.58.37.75,1.15.38,1.73-2.18,3.4-6.62,4.99-11.03,4.99Z"/>
      </g>
      <g>
        <path class="cls-3" d="M40.74,80.83c7.28,2.08,11.37-2.65,15.76,1.18,3.68,3.2,3.29,10.01-2.48,12.48-6.42,2.74-15,1.92-20.64-1.85-6.63-4.42-10.05-11.41-10.91-16.31-.86-4.9,4.79-7.51,8.09-3.28,3.28,4.21,6.16,6.63,10.18,7.78Z"/>
        <path d="M45.61,97.36c-4.62,0-9.3-1.26-12.93-3.69-7.06-4.71-10.58-12.17-11.45-17.13-.49-2.77.78-5.35,3.16-6.4,2.47-1.1,5.28-.26,7.14,2.14,3.33,4.27,6,6.33,9.54,7.34h0c3.08.88,5.49.44,7.82.01,2.88-.53,5.6-1.03,8.42,1.43,2.13,1.85,3.16,4.81,2.71,7.71-.48,3.06-2.49,5.56-5.52,6.85-2.72,1.16-5.8,1.73-8.89,1.73ZM26.61,72.18c-.44,0-.85.1-1.2.25-1.01.45-2.06,1.68-1.71,3.68.78,4.47,3.97,11.21,10.37,15.48,5.32,3.55,13.5,4.28,19.45,1.74,2.22-.95,3.69-2.75,4.03-4.94.33-2.06-.4-4.15-1.88-5.44-1.91-1.66-3.67-1.34-6.33-.85-2.37.43-5.31.98-8.96-.07h0c-4.05-1.16-7.18-3.53-10.82-8.21-.94-1.21-2.01-1.64-2.95-1.64Z"/>
      </g>
      <g>
        <path class="cls-2" d="M9.57,46.01c-.4,0-.76-.28-.85-.68l-3.82-17.14c-.1-.47.19-.94.66-1.04.47-.11.94.19,1.04.66l3.82,17.14c.1.47-.19.94-.66,1.04-.06.01-.13.02-.19.02Z"/>
        <g>
          <path class="cls-11" d="M13.54,32.68c3.46,1.52,4.05,5.28,1.99,8.92,0,0-.47-3.78-4.07-4.8-2.11-.6-4.21-2.08-4.42-3.03s-1.29-5.77-1.29-5.77c0,0,4.38,3.18,7.79,4.68Z"/>
          <path class="cls-2" d="M15.53,42.47c-.06,0-.11,0-.17-.02-.37-.07-.65-.38-.7-.75-.02-.13-.46-3.22-3.44-4.07-2.17-.62-4.72-2.24-5.04-3.68l-1.29-5.77c-.08-.35.07-.72.37-.92.3-.2.7-.19.99.02.04.03,4.34,3.14,7.63,4.59,1.68.74,2.85,1.98,3.38,3.59.65,1.96.3,4.29-.99,6.56-.16.28-.45.44-.76.44ZM7.09,29.99l.8,3.59c.11.42,1.7,1.78,3.81,2.38,2.09.59,3.26,1.97,3.92,3.2.31-1.12.31-2.2,0-3.13-.37-1.13-1.21-2-2.43-2.54-2.08-.92-4.48-2.42-6.1-3.49Z"/>
        </g>
        <g>
          <ellipse class="cls-11" cx="5.87" cy="48.79" rx="5.57" ry="3.62" transform="translate(-27.4 12.62) rotate(-35.75)"/>
          <path class="cls-2" d="M3.94,54.06c-1.38,0-2.58-.5-3.3-1.5-1.47-2.05-.33-5.3,2.6-7.41,2.93-2.11,6.38-2.16,7.86-.11.74,1.03.84,2.4.28,3.86-.51,1.33-1.54,2.59-2.88,3.55-1.5,1.08-3.12,1.62-4.56,1.62ZM7.82,45.27c-1.07,0-2.38.44-3.55,1.29-2.06,1.49-3.07,3.76-2.2,4.97.87,1.21,3.35.97,5.41-.51,1.07-.77,1.88-1.75,2.27-2.77.2-.51.45-1.48-.07-2.2-.38-.52-1.05-.77-1.86-.77Z"/>
        </g>
      </g>
      <g>
        <path class="cls-1" d="M113.84,16.54c-.08,0-.15,0-.23-.03-.54-.13-.87-.66-.74-1.2l2.69-11.44c.13-.54.66-.87,1.2-.74.54.13.87.66.74,1.2l-2.69,11.44c-.11.46-.52.77-.97.77Z"/>
        <path class="cls-1" d="M123.25,21.52c-.08,0-.15,0-.23-.03-.54-.13-.87-.66-.74-1.2l2.84-12.08c.13-.54.66-.87,1.2-.74.54.13.87.66.74,1.2l-2.84,12.08c-.11.46-.52.77-.97.77Z"/>
        <g>
          <polygon class="cls-9" points="125.05 12.83 115.41 8.88 116.53 4.1 126.18 8.06 125.05 12.83"/>
          <path class="cls-1" d="M125.05,13.83c-.13,0-.26-.02-.38-.07l-9.65-3.95c-.45-.19-.71-.68-.59-1.15l1.12-4.78c.07-.28.26-.53.52-.66.26-.13.57-.15.84-.04l9.65,3.95c.45.19.71.68.59,1.15l-1.12,4.78c-.07.28-.26.53-.52.66-.14.07-.3.11-.46.11ZM116.58,8.28l7.77,3.19.66-2.81-7.77-3.19-.66,2.81Z"/>
        </g>
        <g>
          <ellipse class="cls-9" cx="110.25" cy="17.13" rx="4.13" ry="2.69" transform="translate(-1.31 15.58) rotate(-8.03)"/>
          <path class="cls-1" d="M109.74,20.86c-2.39,0-4.31-1.21-4.56-3.01-.29-2.05,1.72-3.97,4.56-4.37,1.28-.18,2.55-.02,3.56.46,1.14.53,1.88,1.44,2.03,2.48s-.31,2.11-1.26,2.94c-.85.74-2.02,1.24-3.3,1.42-.35.05-.69.07-1.03.07ZM110.75,15.41c-.24,0-.49.02-.73.05-1.77.25-2.97,1.32-2.86,2.11.11.79,1.56,1.48,3.33,1.23.89-.13,1.71-.47,2.26-.95.43-.38.65-.8.6-1.16h0c-.05-.36-.38-.7-.9-.95-.48-.22-1.07-.34-1.7-.34Z"/>
        </g>
        <g>
          <ellipse class="cls-9" cx="119.2" cy="21.75" rx="4.13" ry="2.69" transform="translate(-1.97 20.81) rotate(-9.9)"/>
          <path class="cls-1" d="M118.59,25.49c-.84,0-1.64-.15-2.33-.45-1.16-.5-1.93-1.38-2.11-2.41-.18-1.04.25-2.12,1.17-2.98.82-.76,1.98-1.31,3.25-1.53,1.27-.22,2.54-.1,3.58.34,1.16.5,1.93,1.38,2.11,2.41h0c.18,1.04-.24,2.12-1.17,2.98-.82.76-1.98,1.31-3.25,1.53-.42.07-.84.11-1.24.11ZM119.81,20.01c-.29,0-.6.03-.9.08-.89.15-1.7.53-2.23,1.02-.42.39-.62.82-.56,1.18.06.36.4.69.93.92.67.29,1.56.36,2.45.21.89-.15,1.7-.53,2.23-1.02.42-.39.62-.82.56-1.18,0,0,0,0,0,0-.06-.36-.4-.69-.93-.92-.44-.19-.98-.29-1.55-.29Z"/>
        </g>
      </g>
    </g>
  </g>
</svg>