<?xml version="1.0" encoding="UTF-8"?>
<svg id="Layer_2" data-name="Layer 2" xmlns="http://www.w3.org/2000/svg" viewBox="0 0 162.38 158.34">
  <defs>
    <style>
      .cls-1 {
        fill: #1d50a2;
      }

      .cls-2 {
        fill: #fff;
      }

      .cls-3 {
        fill: #90de63;
      }

      .cls-4 {
        fill: #f6977e;
      }

      .cls-5 {
        fill: #f3981c;
      }

      .cls-6 {
        fill: #84878b;
      }

      .cls-7 {
        fill: #3b82c5;
      }

      .cls-8 {
        fill: #e84388;
      }

      .cls-9 {
        fill: #79a7d9;
      }

      .cls-10 {
        fill: #51ba97;
      }

      .cls-11 {
        fill: #ea5457;
      }

      .cls-12 {
        fill: #b92c36;
      }

      .cls-13 {
        fill: #ffda2a;
      }

      .cls-14 {
        fill: #a67eb7;
      }
    </style>
  </defs>
  <g id="_디자인" data-name="디자인">
    <g>
      <g>
        <path class="cls-2" d="M31.31,70.62c.98,7.84,5.79,15.39,10.77,18.94,4.75,3.38,9.54,1.23,9.98-2.43.34-2.82-2.02-4.91-3.99-6.64s-7.26-8.61-6.71-17.35l-10.05,7.49Z"/>
        <path d="M46.92,92.49c-1.84,0-3.78-.65-5.56-1.92-5.69-4.05-10.33-12.19-11.29-19.8-.06-.45.13-.89.49-1.16l10.05-7.49c.39-.29.92-.33,1.34-.1.43.23.68.69.65,1.18-.54,8.52,4.82,15.05,6.28,16.34,2.03,1.78,4.82,4.23,4.4,7.73-.24,2.03-1.56,3.76-3.51,4.63-.89.4-1.87.59-2.87.59ZM32.65,71.18c1.21,7.82,6.05,14.44,10.15,17.36,2.02,1.44,4.25,1.84,5.97,1.08,1.16-.51,1.91-1.48,2.04-2.64.24-2.03-1.4-3.65-3.57-5.55-1.85-1.62-6.69-7.69-7.14-15.8l-7.46,5.56Z"/>
      </g>
      <g>
        <path class="cls-13" d="M52.92,48.47c-.51-1.97-2.52-3.14-4.49-2.63l-.63.16.52-.39c1.62-1.23,1.94-3.53.71-5.15s-3.53-1.94-5.15-.71l-.54.41.34-.58c1.03-1.75.44-4.01-1.32-5.03-1.75-1.03-4.01-.44-5.03,1.32l-.33.56.09-.64c.28-2.01-1.13-3.87-3.14-4.15-2.01-.28-3.87,1.13-4.15,3.14l-.09.67-.17-.65c-.51-1.97-2.52-3.14-4.49-2.63s-3.14,2.52-2.63,4.49l.16.63-.39-.52c-1.23-1.62-3.53-1.94-5.15-.71-1.62,1.23-1.94,3.53-.71,5.15l.41.54-.58-.34c-1.75-1.03-4.01-.44-5.03,1.32-1.03,1.75-.44,4.01,1.32,5.03l.56.33-.64-.09c-2.01-.28-3.87,1.13-4.15,3.14-.28,2.01,1.13,3.87,3.14,4.15l.67.09-.65.17c-1.97.51-3.14,2.52-2.63,4.49s2.52,3.14,4.49,2.63l.63-.16-.52.39c-1.62,1.23-1.94,3.53-.71,5.15h0c1.23,1.62,3.53,1.94,5.15.71l.54-.41-.34.58c-1.03,1.75-.44,4.01,1.32,5.03s4.01.44,5.03-1.32l.33-.56-.09.64c-.28,2.01,1.13,3.87,3.14,4.15,2.01.28,3.87-1.13,4.15-3.14l.09-.67.17.65c.51,1.97,2.52,3.14,4.49,2.63s3.14-2.52,2.63-4.49l-.16-.63.39.52c1.23,1.62,3.53,1.94,5.15.71h0c1.62-1.23,1.94-3.53.71-5.15l-.41-.54.58.34c1.75,1.03,4.01.44,5.03-1.32,1.03-1.75.44-4.01-1.32-5.03l-.56-.33.64.09c2.01.28,3.87-1.13,4.15-3.14h0c.28-2.01-1.13-3.87-3.14-4.15l-.67-.09.65-.17c1.97-.51,3.14-2.52,2.63-4.49Z"/>
        <path class="cls-5" d="M28.21,77.89c-.21,0-.43-.01-.64-.04-1.83-.25-3.27-1.54-3.81-3.2-1.44.97-3.37,1.09-4.97.15-1.08-.63-1.85-1.65-2.16-2.85-.14-.52-.18-1.04-.14-1.56-1.71.34-3.54-.29-4.66-1.76s-1.22-3.41-.44-4.95c-1.7-.34-3.15-1.62-3.62-3.41-.47-1.79.17-3.62,1.5-4.75-.43-.29-.82-.65-1.14-1.08-.75-1-1.08-2.23-.9-3.46.25-1.83,1.54-3.27,3.19-3.81-.29-.43-.5-.91-.64-1.42-.32-1.21-.14-2.47.49-3.55.63-1.08,1.64-1.85,2.85-2.16.52-.14,1.05-.18,1.56-.14-.34-1.71.28-3.54,1.76-4.66,1-.75,2.23-1.08,3.46-.9.53.07,1.03.23,1.49.46.1-.51.29-1,.56-1.46.63-1.08,1.65-1.85,2.85-2.16,1.21-.32,2.47-.14,3.55.49.46.27.87.61,1.2,1.01.96-1.45,2.71-2.3,4.54-2.05,1.83.25,3.27,1.54,3.81,3.2,1.44-.97,3.37-1.09,4.97-.15,1.08.63,1.85,1.65,2.16,2.85.14.52.18,1.04.14,1.56,1.71-.34,3.54.29,4.66,1.76,1.12,1.48,1.22,3.41.44,4.95,1.7.34,3.15,1.62,3.62,3.41.47,1.79-.17,3.62-1.5,4.75.43.29.82.65,1.14,1.08.75,1,1.08,2.23.9,3.46-.25,1.83-1.54,3.27-3.19,3.81.29.43.5.91.64,1.42.32,1.21.14,2.47-.49,3.55-.63,1.08-1.64,1.85-2.85,2.16-.52.14-1.05.18-1.56.14.34,1.71-.28,3.54-1.76,4.66-1,.75-2.23,1.08-3.46.9-.53-.07-1.03-.23-1.49-.46-.1.51-.29,1-.55,1.46-.63,1.08-1.65,1.85-2.85,2.16-1.21.32-2.47.14-3.55-.49-.46-.27-.87-.61-1.2-1.01-.85,1.28-2.3,2.09-3.89,2.09ZM24.65,71.07c.11,0,.22.02.33.06.45.16.73.61.66,1.08l-.09.64c-.2,1.46.82,2.82,2.29,3.02,1.47.2,2.82-.82,3.02-2.29l.09-.67c.06-.47.45-.83.93-.86.45-.03.91.28,1.03.74l.17.65c.18.69.62,1.27,1.24,1.64s1.34.46,2.03.28c1.43-.37,2.29-1.84,1.92-3.27l-.16-.63c-.12-.46.1-.94.53-1.15.43-.21.95-.09,1.23.3l.39.52c.43.57,1.06.94,1.77,1.04.71.1,1.41-.09,1.98-.52,1.18-.89,1.41-2.57.52-3.75l-.41-.54c-.29-.38-.27-.91.05-1.27.32-.36.84-.44,1.25-.2l.58.34c.62.36,1.34.46,2.03.28.69-.18,1.27-.62,1.63-1.24.36-.62.46-1.34.28-2.03-.18-.69-.62-1.27-1.24-1.63l-.56-.33c-.41-.24-.6-.74-.44-1.19.16-.45.61-.73,1.08-.66l.64.09c1.47.2,2.82-.82,3.02-2.29.1-.71-.09-1.41-.52-1.98-.43-.57-1.06-.94-1.77-1.04l-.67-.09c-.47-.07-.83-.46-.86-.93s.28-.91.75-1.03l.65-.17c.69-.18,1.27-.62,1.63-1.24s.46-1.34.28-2.03c-.37-1.43-1.84-2.29-3.27-1.91l-.63.16c-.46.12-.94-.1-1.15-.53-.21-.43-.08-.95.3-1.23l.52-.39c1.18-.89,1.41-2.57.52-3.75-.89-1.18-2.58-1.41-3.75-.52l-.54.41c-.38.29-.91.27-1.27-.05-.36-.32-.44-.84-.2-1.25l.34-.58c.36-.62.46-1.34.28-2.03s-.62-1.27-1.24-1.63c-1.27-.75-2.92-.32-3.67.96l-.33.56c-.24.41-.74.6-1.19.44-.45-.16-.73-.61-.66-1.08l.09-.64c.2-1.46-.82-2.82-2.29-3.02-1.46-.2-2.82.82-3.02,2.29l-.09.67c-.06.47-.45.83-.93.86-.46.03-.91-.28-1.03-.74l-.17-.65c-.18-.69-.62-1.27-1.24-1.64-.62-.36-1.34-.46-2.03-.28-1.43.37-2.29,1.84-1.92,3.27l.16.63c.12.46-.1.94-.53,1.15-.43.21-.95.09-1.23-.3l-.39-.52c-.43-.57-1.06-.94-1.77-1.04-.71-.1-1.41.09-1.98.52-1.18.89-1.41,2.57-.52,3.75l.41.54c.29.38.27.91-.05,1.27-.32.36-.84.44-1.25.2l-.58-.34c-.62-.36-1.34-.46-2.03-.28-.69.18-1.27.62-1.63,1.24-.36.62-.46,1.34-.28,2.03.18.69.62,1.27,1.24,1.63l.56.33c.41.24.6.74.44,1.19-.16.45-.62.73-1.08.66l-.64-.09c-1.46-.2-2.82.82-3.02,2.29-.1.71.09,1.41.52,1.98.43.57,1.06.94,1.77,1.04l.67.09c.47.07.83.46.86.93s-.28.91-.75,1.03l-.65.17c-.69.18-1.27.62-1.63,1.24s-.46,1.34-.28,2.03c.37,1.43,1.85,2.29,3.27,1.91l.63-.16c.46-.12.94.1,1.15.53.21.43.08.95-.3,1.23l-.52.39c-1.18.89-1.41,2.57-.52,3.75.89,1.18,2.58,1.41,3.75.52l.54-.41c.38-.29.91-.27,1.27.05.36.32.44.84.2,1.25l-.34.58c-.36.62-.46,1.34-.28,2.03s.62,1.27,1.24,1.63c1.27.75,2.92.32,3.67-.96l.33-.56c.18-.31.52-.49.86-.49Z"/>
      </g>
      <g>
        <path class="cls-2" d="M63.78,148.25c3.85-2.99,6.66-7.79,4.75-11.17-1.17-2.08-3.91-5.1-4.02-5.6-.17-.74.66-5.3,6.1-12.33,3.03-3.92-7.48-8.29-11.64-4.43-3.85,3.58-9.24,13.85-8.16,18.18.65,2.61,4.57,6.89,4.57,6.89,0,0-3.1,4.97-.58,8.54,1.78,2.53,5.26,2.82,8.97-.08Z"/>
        <path d="M58.67,151.58c-.32,0-.64-.02-.95-.07-1.61-.24-2.97-1.09-3.94-2.46-2.31-3.28-.77-7.35.09-9.09-1.19-1.38-3.7-4.48-4.27-6.76-1.24-4.97,4.43-15.6,8.52-19.4,3.41-3.16,9.96-1.72,12.71.79,1.76,1.61,2.05,3.65.76,5.32-4.74,6.13-5.8,10.23-5.86,11.23.2.29.66.88,1.05,1.37.95,1.2,2.12,2.69,2.83,3.95,2.27,4.03-.84,9.48-5.08,12.77h0c-1.98,1.54-3.99,2.34-5.88,2.34ZM63.38,114.49c-1.38,0-2.67.34-3.55,1.15-3.77,3.5-8.69,13.38-7.8,16.96.47,1.89,3.25,5.22,4.28,6.35.38.41.44,1.03.14,1.51-.03.04-2.62,4.32-.62,7.16.57.81,1.33,1.29,2.26,1.42,1.43.21,3.18-.41,4.92-1.77h0c3.31-2.57,5.99-6.8,4.43-9.57-.61-1.09-1.72-2.5-2.62-3.63-1.11-1.4-1.43-1.83-1.54-2.3-.3-1.31.86-6.3,6.33-13.37.21-.27.69-.89-.47-1.95-1.22-1.11-3.6-1.96-5.78-1.96Z"/>
      </g>
      <g>
        <path class="cls-2" d="M93.94,156.29c4.53-1.8,8.57-6.85,7.52-10.41-1.8-6.12-4.14-11.24-3.66-27,.15-4.95-11.26-2.01-11.91,3.62-1.32,11.31,2.36,23.32,2.36,23.32,0,0-4.36,3.91-2.95,8.04,1.01,2.93,4.26,4.17,8.64,2.43Z"/>
        <path d="M90.2,158.34c-1.08,0-2.09-.21-2.98-.62-1.48-.68-2.55-1.88-3.09-3.46-1.34-3.9,1.46-7.46,2.72-8.81-.78-2.81-3.36-13.12-2.19-23.1.54-4.6,6.63-7.51,10.49-7.23,2.48.18,3.98,1.63,3.91,3.79-.42,13.64,1.28,19.11,2.93,24.39.23.74.46,1.47.68,2.21,1.29,4.36-3.38,9.99-8.26,11.93-1.49.59-2.91.89-4.21.89ZM94.6,117.61c-2.8,0-7.13,2.15-7.46,5.04-1.27,10.93,2.27,22.69,2.31,22.81.14.47,0,.97-.36,1.3-.04.03-3.73,3.41-2.6,6.7.32.93.92,1.61,1.77,2,1.32.61,3.17.49,5.22-.32h0c4.17-1.66,7.59-6.14,6.78-8.9-.22-.73-.44-1.45-.67-2.17-1.71-5.48-3.48-11.15-3.04-25.22,0-.33.03-1.1-1.59-1.22-.12,0-.24-.01-.37-.01Z"/>
      </g>
      <g>
        <path class="cls-3" d="M127.42,68.42c-11.39-23.03-32.95-31.95-32.95-31.95,0,0-23.32.86-42,18.5-10.96,10.35-15.45,25.79-14.16,39.64,1.74,18.64,13.47,28.34,21.61,31.61,6.96,2.79,12.98,2.41,17.85,3.28s10.38,3.33,17.88,3.13c8.77-.23,23.14-5.25,31.26-22.12,6.03-12.54,7.2-28.58.52-42.09Z"/>
        <path d="M94.78,133.89c-4.97,0-9.03-1.09-12.64-2.06-1.62-.44-3.16-.85-4.6-1.11-1.44-.26-3.02-.41-4.7-.56-3.94-.37-8.41-.78-13.4-2.79-9.71-3.9-20.7-14.53-22.39-32.66-1.45-15.51,3.99-30.71,14.54-40.67,18.81-17.75,41.84-18.8,42.82-18.84.17,0,.36.03.52.09.9.37,22.12,9.37,33.59,32.56,6.43,13.01,6.24,29.15-.51,43.19-7.89,16.41-21.89,22.55-32.35,22.83-.3,0-.6.01-.9.01ZM94.25,37.73c-2.65.18-23.89,2.07-40.92,18.14-9.85,9.29-15.13,24.09-13.77,38.62,1.59,17.01,11.8,26.94,20.83,30.57,4.65,1.87,8.93,2.27,12.7,2.62,1.73.16,3.36.31,4.9.59,1.54.28,3.13.7,4.8,1.15,3.66.98,7.8,2.09,12.82,1.96,9.73-.26,22.76-6.02,30.16-21.41,6.32-13.15,6.52-28.86.52-40.99h0c-10.38-20.99-29.63-30.16-32.05-31.24Z"/>
      </g>
      <g>
        <path class="cls-2" d="M109.06,28.12c-3.82-2.52-4.07-7.24-2.28-10.14,1.53-2.47,4.56-2.36,5.34-.33.5,1.28-.32,2.7-.32,2.7,0,0,1.89-3.73,4.39-1.97,2.12,1.49.73,3.82-.54,4.84,0,0,2.07-1.92,3.75-.43,3.48,3.1-4.21,9.39-10.35,5.34Z"/>
        <path class="cls-6" d="M113.37,30.31c-1.57,0-3.22-.42-4.79-1.46h0c-4.19-2.76-4.58-8.04-2.54-11.34.95-1.54,2.53-2.4,4.12-2.25,1.29.12,2.33.89,2.79,2.06.04.09.07.19.09.28.33-.22.7-.4,1.1-.5.87-.22,1.75-.03,2.57.54,1.17.82,1.45,1.83,1.47,2.53.01.39-.05.78-.16,1.15.67,0,1.35.22,1.99.79,1.47,1.31,1.54,3.29.18,5.06-1.29,1.68-3.91,3.12-6.81,3.12ZM109.82,17c-.71,0-1.63.37-2.29,1.44-1.61,2.61-1.3,6.77,2.01,8.95h0c3.58,2.36,7.67.78,9.25-1.27.46-.6,1.09-1.76.04-2.69-.88-.78-2.04-.02-2.44.3-.06.06-.13.11-.19.16-.37.29-.9.24-1.21-.11-.31-.36-.28-.89.07-1.21.07-.06.15-.13.23-.2.6-.55,1.14-1.4,1.12-2.12-.01-.45-.25-.82-.73-1.16-.52-.37-.9-.33-1.13-.27-.87.21-1.63,1.32-1.92,1.83-.03.07-.06.11-.07.14-.24.41-.76.56-1.17.33-.42-.23-.58-.74-.36-1.17.01-.02.03-.07.06-.12.18-.36.47-1.2.22-1.86-.21-.55-.69-.89-1.31-.95-.06,0-.12,0-.18,0Z"/>
      </g>
      <g>
        <path class="cls-7" d="M80.66,38.49c-.05,0-.07-.07-.02-.09,0,0,24.77-12.74,29.02-10.76,3.28,1.53,6.5,24.08,6.5,24.08,0,0-16.12-11.02-35.5-13.22Z"/>
        <path class="cls-1" d="M116.16,52.72c-.2,0-.39-.06-.56-.17-.16-.11-16.15-10.9-35.05-13.05,0,0,0,0,0,0-.45-.05-.86-.45-.92-.91-.06-.45.22-.94.65-1.11,4.12-2.13,25.36-12.82,29.81-10.74,3.5,1.63,6.3,19.43,7.07,24.84.06.39-.12.78-.46.99-.16.1-.35.15-.53.15ZM83.81,37.92c14.3,2.32,26.51,9.04,31.03,11.79-1.55-9.99-4.01-20.41-5.61-21.16-2.41-1.12-15.47,4.44-25.42,9.37Z"/>
      </g>
      <circle class="cls-4" cx="54.63" cy="73.29" r="7.11"/>
      <circle class="cls-4" cx="96.46" cy="80.8" r="7.11"/>
      <path d="M87.38,74.54c-.18,0-.37-.06-.53-.18l-4.83-3.65c-.26-.2-.39-.52-.33-.84.05-.32.28-.59.59-.69l5.83-1.88c.46-.15.95.1,1.1.56.15.46-.1.95-.56,1.1l-4.23,1.37,3.49,2.64c.39.29.46.84.17,1.23-.17.23-.43.35-.7.35Z"/>
      <path d="M65.64,70.63c-.38,0-.72-.24-.84-.62-.14-.46.12-.95.59-1.09l4.19-1.26-3.49-2.75c-.38-.3-.44-.85-.15-1.23s.85-.45,1.23-.15l4.81,3.79c.26.2.38.53.32.85-.06.32-.29.58-.61.67l-5.8,1.74c-.08.03-.17.04-.25.04Z"/>
      <g>
        <path class="cls-2" d="M110.99,76.9c-1.87,7.68-.06,16.44,3.34,21.53,3.24,4.84,7.85,4.2,9.56.93,1.32-2.52.49-4.97-.74-7.28-1.25-2.35-3.72-10.63-.1-18.6l-12.06,3.43Z"/>
        <path d="M119.77,103.18c-2.4,0-4.75-1.47-6.49-4.06-3.88-5.81-5.33-15.07-3.51-22.52.11-.44.44-.78.87-.91l12.06-3.43c.47-.13.97.02,1.29.39.32.37.39.89.19,1.33-3.53,7.78-.85,15.78.07,17.5,1.21,2.28,2.39,5.3.74,8.45-1,1.92-2.84,3.13-4.91,3.24-.11,0-.21,0-.32,0ZM112.04,77.9c-1.64,7.74.53,15.65,3.32,19.83,1.31,1.96,2.96,3.03,4.59,2.95,1.2-.06,2.23-.76,2.83-1.9.88-1.69.67-3.46-.74-6.12-1.15-2.17-3.52-9.57-1.06-17.3l-8.94,2.54Z"/>
      </g>
      <g>
        <path class="cls-2" d="M74.26,80.8c-.1-.02-21.41-5.22-35.5-11.19-6.06-2.57-12-5.78-13.48-11.51-1.87-7.28,3.55-13.23,10.45-12.83,4.26.25,6.97,3.16,7.76,5.62.85,2.62.39,5.24-1.86,7.15-1.9,1.62-4.52,1.82-6.7.48-1.33-.82-1.74-2.55-.93-3.88.82-1.33,2.56-1.74,3.88-.93.03.02.05.03.07.04.06-.07.17-.26.05-.55-.15-.35-1.01-1.1-2.31-1.27-1.14-.15-2.04.23-2.75,1.07-2.26,2.65-.77,6.94,11.61,12.2,14.81,6.29,30.09,10.17,30.26,10.22,1.49.45.85,5.64-.54,5.37Z"/>
        <path class="cls-11" d="M60.01,76.93c2.68.79,5.16,1.48,7.28,2.06l1.55-5.23c-2.05-.6-4.54-1.36-7.3-2.26l-1.54,5.43Z"/>
        <path class="cls-11" d="M44.59,71.9c2.41.89,4.9,1.74,7.37,2.54l1.68-5.67c-2.29-.84-4.64-1.74-7.01-2.71l-2.05,5.83Z"/>
        <path class="cls-11" d="M37.31,68.98l2.83-5.84c-2.03-1.06-3.62-2.07-4.83-3.03l-4.48,5.3c1.93,1.38,4.17,2.53,6.49,3.56Z"/>
        <path class="cls-11" d="M32.45,53.72l-6.77-2.4c-.83,1.98-1.04,4.31-.4,6.79.05.19.12.38.18.57l7.13-1.55c-.85-.98-.5-2.73-.14-3.41Z"/>
        <path class="cls-11" d="M34.8,51.93c.28-.04.58-.04.9,0,.6.08,1.1.28,1.49.52l4.23-4.75c-1.35-1.28-3.27-2.28-5.68-2.42-1.16-.07-2.28.05-3.33.32l2.4,6.34Z"/>
        <path class="cls-11" d="M38.05,53.35c.04.2-.04.34-.09.4-.02,0-.04-.02-.07-.04-.29-.18-.61-.29-.93-.35l3.21,5.59c.52-.22,1.01-.52,1.46-.91,1.54-1.31,2.24-2.95,2.26-4.69h-5.85Z"/>
        <path class="cls-12" d="M74.35,81.81c-.11,0-.2-.01-.27-.02h0s.05,0,0,0c-.27-.06-21.46-5.21-35.7-11.25-6.37-2.7-12.48-6.04-14.06-12.18-.95-3.68-.2-7.35,2.05-10.08,2.27-2.76,5.71-4.21,9.43-3.99,4.63.27,7.73,3.46,8.66,6.31,1.03,3.17.24,6.17-2.17,8.22-1.42,1.2-3.17,1.74-4.91,1.57,1.74,1.16,4.17,2.47,7.56,3.9,12.99,5.51,26.23,9.15,29.98,10.14l.17.05c1.74.53,1.75,3.35,1.34,5-.5,2.04-1.53,2.34-2.09,2.34ZM35.07,46.26c-2.84,0-5.42,1.18-7.16,3.28-1.87,2.27-2.45,5.22-1.66,8.31,1.36,5.29,7,8.34,12.9,10.83,13.19,5.59,32.57,10.45,35.06,11.07.17-.28.4-.97.44-1.9.04-.84-.11-1.34-.21-1.5h-.03c-3.78-1-17.14-4.67-30.25-10.24-7.86-3.33-12.22-6.66-12.98-9.88-.33-1.39.02-2.74,1-3.89.97-1.13,2.19-1.61,3.64-1.41,1.52.2,2.77,1.11,3.1,1.86.24.56.17,1.16-.2,1.59-.3.35-.8.45-1.21.25-.02-.01-.12-.06-.14-.08-.86-.53-1.99-.26-2.51.6-.53.86-.26,1.98.6,2.51,1.81,1.11,3.93.97,5.53-.39,2.29-1.95,2.11-4.38,1.56-6.08-.72-2.22-3.18-4.71-6.87-4.93-.2-.01-.41-.02-.61-.02Z"/>
      </g>
      <path class="cls-3" d="M73.46,82.88c-1.29-5.84,2.53-8.43,2.53-8.43,0,0,3.95-.17,2.45,5.49s-4.97,2.95-4.97,2.95Z"/>
      <g>
        <path class="cls-3" d="M75.99,74.45s-3.82,2.59-2.53,8.43"/>
        <path d="M73.46,83.76c-.4,0-.76-.28-.85-.69-1.4-6.35,2.72-9.23,2.89-9.35.4-.27.94-.17,1.21.23.27.4.17.94-.23,1.21-.15.1-3.3,2.38-2.17,7.52.1.47-.19.94-.67,1.04-.06.01-.13.02-.19.02Z"/>
      </g>
      <g>
        <polygon class="cls-8" points="6.9 117.66 6.6 127.47 12.14 128.13 12.77 118.17 6.9 117.66"/>
        <polygon class="cls-8" points="138.37 16.3 143.25 24.81 148.32 22.47 143.64 13.65 138.37 16.3"/>
        <polygon class="cls-13" points="140.91 119.12 132.39 114.25 129.2 118.83 137.7 124.07 140.91 119.12"/>
        <polygon class="cls-13" points="30.77 104.38 26.07 95.77 20.96 98 25.45 106.91 30.77 104.38"/>
        <polygon class="cls-10" points="64.26 .75 54.48 0 53.56 5.51 63.48 6.6 64.26 .75"/>
        <polygon class="cls-10" points="159.98 51.4 151.25 55.88 153.36 61.05 162.38 56.78 159.98 51.4"/>
        <polygon class="cls-10" points="10.7 76.05 .92 75.3 0 80.8 9.92 81.9 10.7 76.05"/>
        <polygon class="cls-9" points="19.82 18.45 26.3 11.08 22.45 7.04 15.61 14.32 19.82 18.45"/>
        <polygon class="cls-9" points="149.27 145.15 150.93 135.48 145.53 134.06 143.52 143.84 149.27 145.15"/>
        <polygon class="cls-14" points="69.83 29.7 63.9 21.88 59.17 24.85 64.94 32.99 69.83 29.7"/>
        <polygon class="cls-14" points="149.44 84.65 153.98 93.36 159.14 91.22 154.82 82.22 149.44 84.65"/>
      </g>
      <g>
        <path class="cls-13" d="M139.06,63.87c.22-2.02-1.24-3.83-3.26-4.05l-.64-.07.62-.18c1.95-.57,3.07-2.61,2.5-4.56-.57-1.95-2.61-3.07-4.56-2.5l-.65.19.52-.42c1.58-1.27,1.83-3.59.56-5.17-1.27-1.58-3.59-1.83-5.17-.56l-.5.41.31-.57c.98-1.78.32-4.02-1.46-4.99-1.78-.98-4.02-.32-4.99,1.46l-.32.59.07-.67c.22-2.02-1.24-3.83-3.26-4.05-2.02-.22-3.83,1.24-4.05,3.26l-.07.64-.18-.62c-.57-1.95-2.61-3.07-4.56-2.5-1.95.57-3.07,2.61-2.5,4.56l.19.65-.42-.52c-1.27-1.58-3.59-1.83-5.17-.56s-1.83,3.59-.56,5.17l.41.5-.57-.31c-1.78-.98-4.02-.32-4.99,1.46-.98,1.78-.32,4.02,1.46,4.99l.59.32-.67-.07c-2.02-.22-3.83,1.24-4.05,3.26s1.24,3.83,3.26,4.05l.64.07-.62.18c-1.95.57-3.07,2.61-2.5,4.56h0c.57,1.95,2.61,3.07,4.56,2.5l.65-.19-.52.42c-1.58,1.27-1.83,3.59-.56,5.17s3.59,1.83,5.17.56l.5-.41-.31.57c-.98,1.78-.32,4.02,1.46,4.99,1.78.98,4.02.32,4.99-1.46l.32-.59-.07.67c-.22,2.02,1.24,3.83,3.26,4.05s3.83-1.24,4.05-3.26l.07-.64.18.62c.57,1.95,2.61,3.07,4.56,2.5h0c1.95-.57,3.07-2.61,2.5-4.56l-.19-.65.42.52c1.27,1.58,3.59,1.83,5.17.56,1.58-1.27,1.83-3.59.56-5.17l-.41-.5.57.31c1.78.98,4.02.32,4.99-1.46h0c.98-1.78.32-4.02-1.46-4.99l-.59-.32.67.07c2.02.22,3.83-1.24,4.05-3.26Z"/>
        <path class="cls-5" d="M114.3,85.14c-.17,0-.34,0-.51-.03-1.84-.2-3.32-1.45-3.91-3.09-1.42,1.01-3.35,1.19-4.97.3-1.62-.89-2.51-2.6-2.43-4.34-.5.12-1.03.15-1.56.09-1.24-.13-2.36-.74-3.14-1.72-1.16-1.44-1.33-3.37-.58-4.95-1.72-.29-3.21-1.52-3.73-3.3-.52-1.78.07-3.62,1.35-4.78-.44-.27-.83-.62-1.17-1.04-.78-.97-1.14-2.19-1.01-3.44.13-1.24.74-2.36,1.72-3.14.42-.33.88-.59,1.37-.77-.3-.42-.53-.9-.68-1.41-.35-1.2-.21-2.46.39-3.56.89-1.62,2.61-2.51,4.34-2.43-.12-.5-.15-1.03-.09-1.56.13-1.24.75-2.36,1.72-3.14.97-.78,2.19-1.14,3.44-1.01.53.06,1.04.2,1.51.43.29-1.72,1.52-3.21,3.3-3.73,1.2-.35,2.46-.21,3.56.39.47.25.88.58,1.22.96.27-.44.62-.83,1.04-1.16.97-.78,2.2-1.14,3.44-1.01,1.24.13,2.36.74,3.14,1.72.33.42.59.88.77,1.37.42-.3.9-.53,1.41-.68,1.2-.35,2.46-.21,3.56.39s1.89,1.59,2.25,2.79c.15.51.21,1.03.18,1.55,1.69-.39,3.54.18,4.7,1.62,1.16,1.44,1.32,3.37.58,4.94.51.09,1.01.26,1.48.51,1.1.6,1.89,1.59,2.25,2.79.52,1.78-.07,3.62-1.35,4.78,1.47.92,2.37,2.63,2.17,4.47h0c-.2,1.84-1.45,3.32-3.09,3.91.3.42.54.9.69,1.41.35,1.2.21,2.46-.39,3.56-.6,1.1-1.59,1.89-2.79,2.24-.51.15-1.04.21-1.55.19.39,1.69-.18,3.54-1.62,4.7-1.44,1.16-3.38,1.32-4.95.58-.29,1.72-1.52,3.21-3.3,3.73-1.78.52-3.62-.07-4.79-1.35-.84,1.34-2.32,2.2-3.97,2.2ZM110.71,78.39c.1,0,.2.01.3.05.46.14.75.59.7,1.06l-.07.67c-.16,1.47.91,2.79,2.38,2.95,1.47.16,2.79-.91,2.95-2.38l.07-.64c.05-.47.43-.85.91-.89.47-.04.91.26,1.05.72l.18.62c.42,1.42,1.91,2.23,3.32,1.82,1.42-.42,2.23-1.91,1.82-3.32l-.19-.64c-.13-.46.07-.95.5-1.17.42-.22.94-.11,1.24.26l.42.52c.93,1.15,2.62,1.33,3.77.41,1.15-.93,1.33-2.62.41-3.77l-.41-.5c-.3-.37-.29-.9.01-1.27.31-.37.83-.46,1.25-.24l.57.31c.63.34,1.35.42,2.04.22.69-.2,1.25-.66,1.6-1.28.34-.63.42-1.35.22-2.04s-.66-1.25-1.29-1.6l-.59-.32c-.42-.23-.62-.72-.47-1.18.14-.46.59-.74,1.06-.69l.67.07c1.47.16,2.79-.91,2.95-2.37h0c.16-1.47-.91-2.79-2.38-2.95l-.64-.07c-.47-.05-.85-.43-.89-.91-.04-.48.26-.91.71-1.05l.62-.18c1.42-.41,2.23-1.91,1.82-3.32-.2-.69-.66-1.25-1.29-1.6-.63-.34-1.35-.42-2.04-.22l-.65.19c-.46.14-.95-.07-1.17-.5s-.11-.94.26-1.24l.52-.42c1.15-.93,1.33-2.62.41-3.77-.92-1.15-2.62-1.33-3.77-.41l-.5.41c-.37.3-.9.29-1.27-.01-.37-.31-.46-.83-.24-1.25l.31-.57c.34-.63.42-1.35.22-2.04s-.66-1.25-1.28-1.6c-.63-.34-1.35-.42-2.04-.22-.69.2-1.25.66-1.6,1.28l-.32.59c-.23.42-.72.62-1.18.47-.46-.14-.75-.59-.69-1.06l.07-.67c.08-.71-.13-1.41-.58-1.97-.45-.56-1.09-.91-1.8-.98-.71-.08-1.41.13-1.97.58-.56.45-.91,1.09-.98,1.8l-.07.65c-.05.47-.43.85-.91.89-.48.04-.91-.26-1.05-.72l-.18-.62c-.2-.69-.66-1.25-1.29-1.6-.63-.34-1.35-.42-2.04-.22-1.42.42-2.23,1.91-1.82,3.32l.19.64c.13.46-.07.95-.5,1.17-.42.22-.94.11-1.24-.26l-.42-.52c-.45-.56-1.09-.91-1.8-.98-.71-.08-1.41.13-1.97.58-.56.45-.91,1.09-.98,1.8-.08.71.13,1.41.58,1.97l.41.5c.3.37.29.9-.01,1.27-.31.37-.83.46-1.25.24l-.57-.31c-1.29-.71-2.93-.23-3.64,1.06-.34.63-.42,1.35-.22,2.04s.66,1.25,1.29,1.6l.59.32c.42.23.62.72.47,1.18-.14.46-.59.75-1.06.69l-.67-.07c-.72-.08-1.41.13-1.97.58-.56.45-.91,1.09-.98,1.8-.08.71.13,1.41.58,1.97s1.09.91,1.8.98l.64.07c.47.05.85.43.89.91.04.48-.26.91-.71,1.05l-.62.18c-1.42.41-2.23,1.91-1.82,3.32.42,1.42,1.91,2.23,3.32,1.82l.65-.19c.46-.14.95.07,1.17.5.22.42.11.94-.26,1.24l-.52.42c-1.15.93-1.33,2.62-.41,3.77.45.56,1.09.91,1.8.98.72.08,1.41-.13,1.97-.58l.5-.41c.37-.3.9-.29,1.27.01.37.31.46.83.23,1.25l-.31.57c-.71,1.29-.23,2.93,1.07,3.64,1.29.71,2.93.23,3.64-1.06l.32-.59c.18-.33.52-.52.88-.52ZM139.06,63.87h0,0Z"/>
      </g>
    </g>
  </g>
</svg>