<?xml version="1.0" encoding="UTF-8"?>
<svg id="Layer_2" data-name="Layer 2" xmlns="http://www.w3.org/2000/svg" viewBox="0 0 101.38 104.55">
  <defs>
    <style>
      .cls-1 {
        fill: #fff;
      }

      .cls-2 {
        fill: #90de63;
      }

      .cls-3 {
        fill: #c9c7c5;
      }

      .cls-4 {
        fill: #f6977e;
      }

      .cls-5 {
        fill: #95b7e1;
      }
    </style>
  </defs>
  <g id="_디자인" data-name="디자인">
    <g>
      <ellipse class="cls-3" cx="46.79" cy="98.48" rx="46.79" ry="6.07"/>
      <g>
        <g>
          <path class="cls-2" d="M91.32,26.88C76.04,6.22,53.24,1.25,53.24,1.25c0,0-22.8,4.97-38.07,25.63-8.96,12.12-10.65,28.11-6.93,41.52,5,18.04,18.26,25.52,26.86,27.3,7.34,1.52,13.2.07,18.15.07s10.81,1.44,18.15-.07c8.59-1.78,21.85-9.26,26.86-27.3,3.72-13.41,2.03-29.4-6.93-41.52Z"/>
          <path d="M64.31,97.64c-2.27,0-4.38-.18-6.35-.35-1.67-.14-3.26-.28-4.72-.28s-3.05.13-4.72.28c-3.95.33-8.42.71-13.68-.38-10.25-2.12-22.94-10.64-27.81-28.19-4.16-15.01-1.5-30.93,7.13-42.6C29.54,5.34,52.03.24,52.98.03c.18-.04.36-.04.53,0,.95.21,23.43,5.31,38.81,26.11h0c8.63,11.67,11.29,27.59,7.13,42.6-4.87,17.55-17.56,26.06-27.81,28.19-2.63.54-5.06.72-7.33.72ZM53.24,94.52c1.57,0,3.2.14,4.93.29,3.77.32,8.05.68,12.96-.33,9.53-1.97,21.34-9.94,25.9-26.41,3.9-14.06,1.32-29.55-6.73-40.44h0C76.39,8.79,55.82,3.18,53.24,2.54c-2.58.64-23.14,6.26-37.07,25.09-8.05,10.89-10.63,26.38-6.73,40.44,4.57,16.46,16.38,24.43,25.9,26.41,4.91,1.02,9.19.65,12.96.33,1.73-.15,3.36-.29,4.93-.29Z"/>
        </g>
        <circle class="cls-4" cx="25.98" cy="45.65" r="7.11"/>
        <circle class="cls-4" cx="68.48" cy="45.65" r="7.11"/>
        <g>
          <path class="cls-1" d="M31.47,78.81c0-2.91.78-4.56,1.34-5.75.43-.92.67-1.42.67-2.76s-.24-1.85-.67-2.76c-.57-1.2-1.34-2.84-1.34-5.75s.78-4.56,1.34-5.76c.43-.92.67-1.42.67-2.76s-.24-1.85-.67-2.77c-.57-1.2-1.34-2.84-1.34-5.76s.78-4.56,1.34-5.76c.2-.43.35-.73.46-1.1l7.21-1.67c0,2.92-.78,4.56-1.34,5.76-.43.92-.67,1.42-.67,2.77s.24,1.85.67,2.77c.57,1.2,1.34,2.84,1.34,5.76s-.78,4.56-1.34,5.76c-.43.92-.67,1.42-.67,2.76s.24,1.85.67,2.76c.57,1.2,1.34,2.84,1.34,5.75s-.78,4.56-1.34,5.75c-.43.92-.67,1.42-.67,2.76h-7Z"/>
          <path class="cls-5" d="M38.47,79.68h-7c-.48,0-.88-.39-.88-.88,0-3.11.86-4.93,1.43-6.13.42-.88.59-1.24.59-2.39s-.17-1.51-.59-2.39c-.57-1.2-1.43-3.02-1.43-6.13s.86-4.93,1.43-6.13c.42-.88.59-1.24.59-2.39s-.17-1.51-.59-2.39c-.57-1.2-1.43-3.02-1.43-6.13s.86-4.93,1.43-6.13l.05-.1c.17-.36.28-.59.37-.87.09-.3.33-.53.64-.6l7.21-1.67c.26-.06.53,0,.74.17.21.17.33.42.33.68,0,3.11-.86,4.93-1.43,6.13-.42.88-.59,1.24-.59,2.39s.17,1.51.59,2.39c.57,1.2,1.43,3.02,1.43,6.13s-.86,4.93-1.43,6.13c-.42.88-.59,1.24-.59,2.39s.17,1.51.59,2.39c.57,1.2,1.43,3.02,1.43,6.13s-.86,4.93-1.43,6.13c-.42.88-.59,1.24-.59,2.39,0,.48-.39.88-.88.88ZM32.37,77.93h5.26c.1-.95.36-1.51.71-2.26.56-1.19,1.26-2.66,1.26-5.38s-.7-4.2-1.26-5.38c-.46-.96-.75-1.6-.75-3.14s.3-2.18.75-3.14c.56-1.19,1.26-2.66,1.26-5.38s-.7-4.2-1.26-5.38c-.46-.96-.75-1.6-.75-3.14s.3-2.18.75-3.14c.48-1.01,1.06-2.24,1.22-4.27l-5.63,1.3c-.08.21-.18.41-.28.62l-.05.1c-.56,1.19-1.26,2.66-1.26,5.38s.7,4.2,1.26,5.38c.45.96.75,1.6.75,3.14s-.3,2.18-.75,3.14c-.56,1.19-1.26,2.66-1.26,5.38s.7,4.2,1.26,5.38c.45.96.75,1.6.75,3.14s-.3,2.18-.75,3.14c-.5,1.05-1.1,2.33-1.23,4.5Z"/>
        </g>
        <g>
          <path class="cls-1" d="M58.45,78.77h-7c0-2.91.78-4.54,1.34-5.74.43-.91.67-1.41.67-2.74s-.24-1.83-.67-2.74c-.57-1.19-1.34-2.83-1.34-5.74s.78-4.54,1.34-5.74c.43-.91.67-1.41.67-2.74s-.24-1.83-.67-2.74c-.57-1.19-1.34-2.83-1.34-5.74s.78-4.54,1.34-5.74c.43-.91.67-1.41.67-2.73l6.91,1.6c-.22,1.95-.81,3.18-1.26,4.14-.43.91-.67,1.4-.67,2.73s.24,1.83.67,2.74c.57,1.19,1.34,2.83,1.34,5.74s-.78,4.54-1.34,5.74c-.43.91-.67,1.41-.67,2.74s.24,1.83.67,2.74c.57,1.19,1.34,2.83,1.34,5.74s-.78,4.54-1.34,5.74c-.43.91-.67,1.41-.67,2.74Z"/>
          <path class="cls-5" d="M58.45,79.65h-7c-.48,0-.88-.39-.88-.88,0-3.1.86-4.92,1.43-6.11.41-.87.58-1.23.58-2.36s-.17-1.49-.58-2.36c-.57-1.2-1.43-3.01-1.43-6.11s.86-4.91,1.43-6.11c.41-.87.58-1.23.58-2.36s-.17-1.49-.58-2.36c-.57-1.2-1.43-3.01-1.43-6.11s.86-4.91,1.43-6.11c.41-.87.58-1.23.58-2.36,0-.27.12-.52.33-.68.21-.17.48-.23.74-.17l6.92,1.6c.43.1.72.51.67.95-.23,2.09-.87,3.44-1.34,4.42-.41.87-.58,1.23-.58,2.36s.17,1.49.58,2.36c.57,1.2,1.43,3.01,1.43,6.11s-.86,4.92-1.43,6.11c-.41.87-.58,1.23-.58,2.36s.17,1.49.58,2.36c.57,1.2,1.43,3.01,1.43,6.11s-.86,4.92-1.43,6.11c-.41.87-.58,1.23-.58,2.36,0,.48-.39.88-.88.88ZM52.35,77.9h5.26c.1-.94.36-1.49.71-2.24.56-1.18,1.26-2.65,1.26-5.36s-.7-4.18-1.26-5.36c-.45-.96-.75-1.59-.75-3.11s.3-2.16.75-3.11c.56-1.18,1.26-2.65,1.26-5.36s-.7-4.18-1.26-5.36c-.45-.95-.75-1.58-.75-3.11s.3-2.16.75-3.11c.37-.78.82-1.72,1.07-3.09l-5.12-1.18c-.11.81-.36,1.33-.69,2.02-.56,1.18-1.26,2.65-1.26,5.36s.7,4.18,1.26,5.36c.45.95.75,1.58.75,3.11s-.3,2.16-.75,3.11c-.56,1.18-1.26,2.65-1.26,5.36s.7,4.18,1.26,5.36c.45.96.75,1.59.75,3.11s-.3,2.16-.75,3.11c-.5,1.05-1.1,2.32-1.24,4.49Z"/>
        </g>
        <g>
          <g>
            <path class="cls-1" d="M35.39,84.42c3.25,6.06,7.81,8.52,12.14,6.56,4.66-2.12,3.63-7.84.96-11.85-2.23-3.35-6.8-6.45-10.94-5.78-4.69.76-4.31,7.08-2.16,11.08Z"/>
            <path d="M44.6,92.89c-3.83,0-7.57-2.79-10.3-7.88h0c-1.47-2.75-2.39-7.05-.93-10,.79-1.6,2.18-2.61,3.99-2.9,4.73-.77,9.71,2.6,12.18,6.32,2.15,3.23,2.97,6.8,2.19,9.53-.54,1.87-1.81,3.31-3.67,4.15-1.14.52-2.3.77-3.46.77ZM38.7,74.51c-.32,0-.63.02-.94.07-1.02.16-1.72.67-2.15,1.54-.9,1.82-.53,5.06.89,7.71h0c2.91,5.43,6.85,7.68,10.52,6.01,1.21-.55,1.97-1.39,2.3-2.57.58-2.01-.14-4.86-1.87-7.46-1.83-2.75-5.47-5.31-8.76-5.31Z"/>
          </g>
          <g>
            <path class="cls-1" d="M40.29,73.41c-3.69-.67-8.35.83-9.08,5.4-.63,3.99-.37,11.28-.37,11.28,0,0-4.73,1.15-4.29,6.45.26,3.12,2.75,4.82,7.32,4.85,6.25.04,10.14-2.27,10.87-5.04.63-2.39.82-7.61.77-12.1"/>
            <path d="M34.01,102.63c-.05,0-.1,0-.15,0-7.01-.04-8.37-3.77-8.55-5.99-.36-4.29,2.25-6.55,4.26-7.43-.05-2.12-.1-7.35.41-10.6.33-2.06,1.37-3.77,3.03-4.94,2-1.42,4.81-1.98,7.5-1.49.68.12,1.13.77,1.01,1.45-.12.68-.76,1.13-1.45,1.01-2.02-.37-4.17.04-5.61,1.07-1.11.79-1.79,1.9-2.01,3.3-.61,3.83-.36,10.97-.36,11.04.02.59-.38,1.12-.95,1.26-.37.1-3.67,1.07-3.34,5.13.2,2.43,2.25,3.68,6.08,3.7,5.92.04,9.13-2.1,9.65-4.1.51-1.92.79-6.54.73-11.77,0-.69.54-1.26,1.23-1.27h.02c.68,0,1.24.55,1.25,1.23.03,2.1.04,9.19-.81,12.44-.96,3.63-5.63,5.97-11.94,5.97Z"/>
          </g>
          <path d="M30.84,91.34c-.53,0-1.03-.34-1.19-.88-.2-.66.17-1.36.83-1.56.11-.04,2.81-.85,5.56-.55.69.07,1.18.69,1.11,1.38-.07.69-.69,1.18-1.38,1.11-2.25-.25-4.53.45-4.56.46-.12.04-.25.06-.37.06Z"/>
        </g>
        <g>
          <g>
            <path class="cls-1" d="M49.62,87.32c2.84,5.47,6.87,7.44,11.07,6.43,7.01-1.68,6.7-9.63,3.95-13.58-3.17-4.55-7.5-7.37-12.48-6.4-4.66.91-5.56,7.75-2.54,13.55Z"/>
            <path d="M58.63,95.25c-4.03,0-7.63-2.58-10.12-7.36h0c-2.11-4.05-2.49-8.7-.97-11.85.92-1.91,2.43-3.12,4.38-3.5,5.07-.99,9.95,1.46,13.74,6.91,2.04,2.92,2.62,7.18,1.42,10.35-.71,1.86-2.34,4.26-6.1,5.16-.8.19-1.58.29-2.35.29ZM50.73,86.74c2.45,4.72,5.79,6.72,9.67,5.79,2.17-.52,3.63-1.74,4.34-3.62,1.04-2.73.22-6.11-1.13-8.04-1.85-2.65-5.77-6.95-11.21-5.88-1.16.23-2.04.94-2.61,2.13-1.17,2.43-.79,6.29.93,9.61h0Z"/>
          </g>
          <g>
            <path class="cls-1" d="M56.41,73.86c-4.03-1.03-9.61.41-10.6,5.38-.79,3.96-.37,11.28-.37,11.28,0,0-4.73,1.15-4.29,6.45.26,3.12,2.75,4.82,7.32,4.85,6.25.04,10.14-2.27,10.87-5.04.56-2.11.77-6.45.78-10.54"/>
            <path d="M48.61,103.06c-.05,0-.1,0-.15,0-7.01-.04-8.37-3.77-8.55-5.99-.36-4.27,2.23-6.54,4.24-7.42-.08-2.14-.21-7.4.44-10.66.43-2.18,1.66-3.96,3.55-5.15,2.36-1.49,5.65-1.95,8.58-1.2.67.17,1.07.85.9,1.52-.17.67-.86,1.07-1.52.9-2.26-.58-4.86-.23-6.63.89-1.32.83-2.13,2.01-2.44,3.52-.75,3.76-.36,10.9-.35,10.97.03.6-.37,1.14-.95,1.29-.37.1-3.67,1.07-3.34,5.13.2,2.43,2.25,3.68,6.08,3.7.05,0,.09,0,.14,0,5.79,0,8.99-2.12,9.51-4.1.46-1.74.73-5.56.74-10.22,0-.69.56-1.25,1.25-1.25h0c.69,0,1.25.56,1.25,1.25,0,2.34-.09,8.07-.82,10.85-.96,3.63-5.63,5.97-11.93,5.97Z"/>
          </g>
          <path d="M45.43,91.77c-.55,0-1.05-.36-1.2-.92-.18-.67.21-1.35.87-1.54.09-.03,2.26-.61,4.67-.5.69.03,1.22.61,1.19,1.3-.03.69-.61,1.22-1.3,1.19-2.03-.09-3.88.41-3.9.42-.11.03-.22.04-.33.04Z"/>
        </g>
        <g>
          <path class="cls-1" d="M45.47,78.35c-1.72,4.72-7.34,4.69-10.37,4.59-7.22-.24-13.46-3.35-18.31-7.84-3.5-3.24-5.76-6.99-6.13-8.95-.83-4.47,3.37-6.9,5.91-5.96,1.02.38,3.06,2.89,6.07,5.1,2.98,2.19,4.64,3.31,7.79,4.2,5.58,1.57,8.44.19,11.47,1,2.79.74,4.74,4.6,3.56,7.86Z"/>
          <path d="M36.44,84.22c-.53,0-1-.02-1.38-.03-6.99-.23-13.6-3.06-19.12-8.17-3.74-3.47-6.1-7.47-6.51-9.64-.45-2.42.31-4.67,2.09-6.17,1.61-1.36,3.77-1.83,5.49-1.19.74.27,1.51.99,2.67,2.08,1,.94,2.24,2.11,3.71,3.18,3.01,2.21,4.52,3.19,7.39,4,3.06.86,5.24.78,7.17.71,1.46-.05,2.83-.1,4.28.28,1.6.42,3.04,1.65,3.93,3.36,1.02,1.95,1.19,4.18.48,6.14h0c-1.78,4.9-7.08,5.44-10.2,5.44ZM15.4,61.25c-.75,0-1.6.32-2.27.88-.63.53-1.62,1.72-1.24,3.8.27,1.47,2.24,5.01,5.75,8.26,5.07,4.69,11.12,7.29,17.5,7.5,3.8.13,7.86-.22,9.15-3.77h0c.47-1.28.34-2.82-.35-4.13-.57-1.09-1.43-1.85-2.35-2.1-1.08-.29-2.17-.25-3.55-.2-2.01.07-4.5.17-7.94-.8-3.43-.97-5.26-2.23-8.19-4.39-1.59-1.16-2.89-2.39-3.94-3.37-.68-.64-1.54-1.44-1.83-1.56-.23-.08-.48-.12-.74-.12Z"/>
        </g>
        <g>
          <path class="cls-1" d="M43.8,78.35c1.72,4.72,7.34,4.69,10.37,4.59,7.22-.24,15.09-3.7,19.69-6.89,4.87-3.37,7.73-7.22,8.37-8.85,1.95-5.01-3.2-8.17-5.47-6.46-1.11.84-4.4,3.64-7.51,5.25-3.28,1.69-7.87,2.68-11.55,3.26-3.82.6-7.21-.04-10.34,1.24-2.68,1.09-4.74,4.6-3.56,7.86Z"/>
          <path d="M52.82,84.22c-3.12,0-8.42-.54-10.2-5.44h0c-1.44-3.95,1.09-8.15,4.26-9.45,2.12-.87,4.25-.94,6.51-1.01,1.33-.04,2.71-.09,4.12-.31,4.85-.76,8.61-1.82,11.17-3.13,2.44-1.25,5.08-3.35,6.5-4.48.34-.27.62-.49.83-.65,1.45-1.09,3.71-.92,5.49.43,1.8,1.36,3.24,4.04,1.9,7.48-.71,1.83-3.65,5.85-8.82,9.42-4.5,3.11-12.54,6.85-20.36,7.11-.38.01-.85.03-1.38.03ZM44.97,77.93c1.29,3.55,5.34,3.89,9.15,3.77,6.81-.23,14.47-3.51,19.03-6.67,4.85-3.35,7.42-7.02,7.91-8.28,1.05-2.7-.56-4.18-1.07-4.58-.87-.66-1.93-.84-2.47-.43-.2.15-.46.36-.78.61-1.49,1.18-4.25,3.38-6.91,4.74-2.8,1.44-6.81,2.58-11.93,3.38-1.56.24-3.02.29-4.42.34-2.11.07-3.94.13-5.64.83-2.11.86-3.78,3.73-2.85,6.28h0Z"/>
        </g>
        <path d="M49.39,44.53h-7.27c-.48,0-.88-.39-.88-.88s.39-.88.88-.88h7.27c.48,0,.87.39.87.88s-.39.88-.87.88Z"/>
        <path d="M61.68,39.17c-.07,0-.13,0-.2-.02l-9.2-2.13c-.47-.11-.76-.58-.66-1.05.11-.47.58-.77,1.05-.66l9.2,2.13c.47.11.76.58.66,1.05-.09.4-.45.68-.85.68Z"/>
        <path d="M31.46,39.17c-.4,0-.76-.27-.85-.68-.11-.47.18-.94.66-1.05l9.17-2.12c.47-.11.94.18,1.05.66.11.47-.18.94-.66,1.05l-9.17,2.12c-.07.02-.13.02-.2.02Z"/>
      </g>
    </g>
  </g>
</svg>