<?xml version="1.0" encoding="UTF-8"?>
<svg id="Layer_2" data-name="Layer 2" xmlns="http://www.w3.org/2000/svg" viewBox="0 0 108.42 142.81">
  <defs>
    <style>
      .cls-1 {
        fill: #fff;
      }

      .cls-2 {
        fill: #90de63;
      }

      .cls-3 {
        fill: #f6977e;
      }

      .cls-4 {
        fill: #84878b;
      }

      .cls-5 {
        fill: #a52249;
      }
    </style>
  </defs>
  <g id="_디자인" data-name="디자인">
    <g>
      <g>
        <g>
          <path class="cls-1" d="M21.58,141.56c6.65.09,9.97-1.5,11.14-4.52,1.31-3.38,5.49-21.96,6.06-26.97.56-4.92-12.48-5.63-13.17,0-.91,7.54-6.31,20.57-6.31,20.57,0,0-4.99,1.2-5.23,6.07-.16,3.13,2.94,4.79,7.51,4.85Z"/>
          <path d="M22.09,142.81c-.17,0-.35,0-.52,0-3.37-.04-5.94-.9-7.41-2.47-.94-1-1.4-2.28-1.33-3.7.21-4.14,3.43-6.29,5.55-7.03,1.02-2.53,5.22-13.27,6-19.69.47-3.9,5.26-5.47,9.52-4.97,3.97.47,6.44,2.58,6.13,5.26-.59,5.17-4.78,23.78-6.14,27.28-1.41,3.62-5.16,5.32-11.8,5.32ZM32.34,107.36c-2.66,0-5.26.98-5.49,2.86-.92,7.63-6.17,20.36-6.4,20.9-.15.37-.47.64-.86.74-.16.04-4.08,1.07-4.28,4.92-.04.74.18,1.35.66,1.86.97,1.03,3.02,1.64,5.62,1.68h0c7.61.09,9.32-2.08,9.96-3.72,1.28-3.3,5.42-21.74,5.98-26.66.16-1.38-1.93-2.26-3.94-2.49-.41-.05-.83-.07-1.25-.07Z"/>
        </g>
        <path d="M19.3,131.88c-.57,0-1.08-.39-1.22-.97-.16-.67.26-1.34.93-1.5.05-.01,1.18-.27,2.34-.27h0c.69,0,1.25.56,1.25,1.25,0,.69-.56,1.25-1.25,1.25,0,0,0,0,0,0-.86,0-1.76.21-1.77.21-.09.02-.19.03-.28.03Z"/>
        <g>
          <path class="cls-1" d="M69.05,141.56c-6.65.09-9.97-1.5-11.14-4.52-1.31-3.38-3.22-21.96-3.79-26.97-.56-4.92,12.65-5.65,13.17,0,1.46,16.1,4.04,20.57,4.04,20.57,0,0,4.99,1.2,5.23,6.07.16,3.13-2.94,4.79-7.51,4.85Z"/>
          <path d="M68.55,142.81c-6.64,0-10.39-1.7-11.8-5.32-1.05-2.71-2.34-13.47-3.58-24.7-.12-1.05-.21-1.93-.29-2.58-.17-1.44.47-2.76,1.79-3.72,2.53-1.84,7.37-2.18,10.56-.74,1.97.89,3.14,2.38,3.3,4.2,1.17,12.89,3.08,18.21,3.69,19.64,2.12.73,5.38,2.88,5.59,7.04.07,1.42-.39,2.7-1.33,3.7-1.47,1.57-4.03,2.42-7.41,2.47h0c-.18,0-.35,0-.52,0ZM60.63,107.36c-1.73,0-3.46.4-4.5,1.15-.78.57-.82,1.08-.78,1.42.08.65.17,1.54.29,2.59.7,6.37,2.35,21.28,3.43,24.07.64,1.65,2.36,3.82,9.96,3.72h0c2.6-.03,4.65-.64,5.62-1.68.48-.51.69-1.12.66-1.86-.19-3.85-4.12-4.88-4.28-4.92-.33-.08-.61-.3-.78-.59-.11-.19-2.74-4.89-4.21-21.08-.08-.91-.7-1.64-1.85-2.15-1-.45-2.28-.67-3.56-.67Z"/>
        </g>
        <path d="M71.33,131.88c-.09,0-.19-.01-.28-.03,0,0-.91-.21-1.77-.21,0,0,0,0,0,0-.69,0-1.25-.56-1.25-1.25,0-.69.56-1.25,1.25-1.25h0c1.16,0,2.29.26,2.34.27.67.16,1.09.83.93,1.5-.13.58-.65.97-1.22.97Z"/>
        <g>
          <path class="cls-1" d="M87.18,71.92s2.99-5.99,4.87-14.25c.78-3.44,1.2-9.69,2.32-12.64,1.43-3.77,4.37-6.19,7.74-5.49,6.62,1.38,6.21,10.27,1.76,22.66-2.87,7.99-8.7,17.1-11.58,18.28-3.96,1.62-7.83-3.55-5.1-8.55Z"/>
          <path d="M90.79,82.02c-1.48,0-2.91-.65-4.01-1.88-1.7-1.9-2.57-5.35-.71-8.8.18-.36,2.99-6.17,4.77-13.96.3-1.31.55-3.06.81-4.92.41-2.94.84-5.97,1.56-7.89,1.75-4.6,5.34-7.06,9.16-6.27,2.16.45,3.77,1.6,4.79,3.42,2.21,3.95,1.52,10.78-2.11,20.88-2.73,7.58-8.69,17.54-12.29,19.01-.65.27-1.31.39-1.97.39ZM100.99,40.67c-2.23,0-4.31,1.79-5.45,4.8-.63,1.65-1.03,4.55-1.43,7.35-.27,1.91-.52,3.72-.84,5.13-1.9,8.31-4.85,14.28-4.97,14.53,0,.01-.01.03-.02.04-1.3,2.39-.76,4.71.36,5.96.42.47,1.57,1.49,3.17.84,2.34-.96,8.04-9.64,10.88-17.54,4.14-11.53,3.53-16.59,2.29-18.82-.66-1.18-1.68-1.9-3.12-2.2-.29-.06-.58-.09-.87-.09ZM87.18,71.92h0,0Z"/>
        </g>
        <g>
          <path class="cls-2" d="M87.32,50.77c-14.42-21.27-36.99-27.17-36.99-27.17,0,0-22.98,4.03-39.1,24.04C1.79,59.38-.56,75.29,2.61,88.83c4.26,18.23,17.2,26.25,25.71,28.38,7.27,1.82,13.19.62,18.13.82s10.74,1.89,18.14.67c8.66-1.42,22.21-8.35,27.96-26.17,4.27-13.24,3.24-29.29-5.22-41.77Z"/>
          <path d="M59.1,120.39c-2.92,0-5.56-.33-8-.64-1.67-.21-3.24-.41-4.7-.47-1.46-.06-3.05,0-4.73.08-3.95.17-8.44.37-13.65-.94-10.16-2.54-22.48-11.57-26.62-29.31-3.54-15.16-.23-30.96,8.87-42.27,16.22-20.15,38.9-24.32,39.85-24.49.18-.03.36-.02.53.02.94.25,23.19,6.27,37.71,27.68,8.14,12.01,10.15,28.03,5.37,42.85-5.59,17.33-18.61,25.32-28.94,27.02-2.01.33-3.9.46-5.69.46ZM45.2,116.76c.44,0,.88,0,1.31.03,1.57.06,3.19.27,4.92.49,3.76.48,8.02,1.01,12.97.2,9.6-1.58,21.73-9.06,26.97-25.32,4.47-13.89,2.54-29.47-5.06-40.68-13.16-19.42-33.46-25.85-36.01-26.59-2.6.53-23.38,5.3-38.07,23.54C3.72,58.97.51,74.34,3.83,88.55c3.89,16.64,15.36,25.09,24.8,27.45,4.87,1.22,9.15,1.03,12.94.87,1.26-.05,2.47-.11,3.63-.11Z"/>
        </g>
        <circle class="cls-3" cx="32.31" cy="65.7" r="7.11"/>
        <circle class="cls-3" cx="74.77" cy="67.44" r="7.11"/>
        <path d="M41.04,55.9c-.38.47-.63,1.07-.65,1.72l-.02.48c-.07,1.61,1.19,2.98,2.8,3.04l.48.02c1.54.06,2.85-1.08,3.02-2.58l-5.63-2.68Z"/>
        <path d="M66.87,56.96c.34.5.54,1.11.51,1.77l-.02.48c-.07,1.61-1.43,2.87-3.04,2.8l-.48-.02c-1.54-.06-2.75-1.31-2.8-2.82l5.84-2.21Z"/>
        <polygon class="cls-5" points="47.65 63.44 47.28 81.92 50.08 80.57 52.45 82.22 55.16 81.07 57.36 82.51 59.86 64.94 58.03 66.31 56.19 64.49 53.83 65.7 51.76 63.94 49.56 65.32 47.65 63.44"/>
        <polygon class="cls-1" points="56.19 64.49 53.83 65.7 51.76 63.94 49.56 65.32 47.65 63.44 47.56 67.93 59.27 69.15 59.86 64.94 58.03 66.31 56.19 64.49"/>
        <path d="M57.36,83.38c-.17,0-.33-.05-.48-.14l-1.82-1.18-2.28.97c-.28.12-.59.09-.84-.09l-1.96-1.36-2.34,1.13c-.27.13-.6.11-.85-.05-.26-.16-.41-.45-.4-.75l.37-18.48c0-.35.22-.66.54-.79.32-.13.69-.06.94.19l1.42,1.39,1.62-1.01c.32-.2.74-.17,1.03.07l1.63,1.38,1.84-.94c.34-.17.75-.11,1.02.16l1.3,1.29,1.23-.92c.28-.21.67-.23.97-.05.3.18.47.53.42.88l-2.5,17.57c-.04.3-.23.55-.5.67-.12.05-.24.08-.36.08ZM50.08,79.7c.18,0,.35.05.5.16l1.98,1.37,2.26-.96c.27-.11.57-.09.82.07l1.06.69,2.01-14.13-.15.11c-.35.26-.83.22-1.14-.08l-1.38-1.37-1.8.92c-.31.16-.69.12-.96-.11l-1.59-1.34-1.66,1.03c-.34.21-.79.16-1.08-.12l-.46-.45-.3,15.03,1.51-.73c.12-.06.25-.09.38-.09Z"/>
        <g>
          <path class="cls-1" d="M7.19,66.18s2.99-5.99,4.87-14.25c.78-3.44,1.2-9.69,2.32-12.64,1.43-3.77,4.37-6.19,7.74-5.49,6.62,1.38,6.21,10.27,1.76,22.66-2.87,7.99-8.7,17.1-11.58,18.28-3.96,1.62-7.83-3.55-5.1-8.55Z"/>
          <path d="M10.8,76.28c-1.48,0-2.91-.65-4.01-1.88-1.7-1.9-2.57-5.35-.71-8.8.18-.36,2.99-6.17,4.77-13.96.3-1.31.55-3.06.81-4.92.41-2.94.84-5.97,1.56-7.89,1.75-4.6,5.34-7.06,9.16-6.27,2.16.45,3.77,1.6,4.79,3.42,2.21,3.95,1.52,10.78-2.12,20.88-2.73,7.58-8.69,17.54-12.29,19.01-.65.27-1.31.39-1.97.39ZM21,34.93c-2.23,0-4.31,1.79-5.45,4.8-.63,1.65-1.03,4.55-1.43,7.35-.27,1.91-.52,3.72-.84,5.13-1.9,8.31-4.85,14.28-4.97,14.53,0,.01-.01.03-.02.04-1.3,2.39-.76,4.71.36,5.96.42.47,1.57,1.49,3.17.84,2.34-.96,8.04-9.64,10.88-17.54,4.14-11.53,3.53-16.59,2.29-18.82-.66-1.18-1.68-1.9-3.12-2.2-.29-.06-.58-.09-.87-.09ZM7.19,66.18h0,0Z"/>
        </g>
        <path d="M50.41,56.15c-.29,0-.57-.14-.73-.4l-1.51-2.32c-.26-.4-.15-.95.25-1.21.41-.26.95-.15,1.21.25l1.51,2.32c.26.4.15.95-.25,1.21-.15.1-.31.14-.48.14Z"/>
        <path d="M58.71,56.77c-.18,0-.37-.06-.53-.18-.39-.29-.46-.84-.17-1.23l1.51-1.99c.29-.39.84-.46,1.23-.17.39.29.46.84.17,1.23l-1.51,1.99c-.17.23-.43.35-.7.35Z"/>
      </g>
      <g>
        <g>
          <polyline class="cls-1" points="36.09 24.02 35.23 10.83 28.66 12.22 32.33 24.17"/>
          <path class="cls-4" d="M32.33,25.04c-.37,0-.72-.24-.84-.62l-3.66-11.95c-.07-.23-.04-.49.08-.7.12-.21.33-.36.57-.41l6.57-1.39c.25-.05.51,0,.71.16.2.15.33.39.34.64l.85,13.19c.03.48-.33.9-.82.93-.48.03-.9-.33-.93-.82l-.79-12.18-4.65.99,3.38,11.03c.14.46-.12.95-.58,1.09-.09.03-.17.04-.26.04Z"/>
        </g>
        <g>
          <path class="cls-1" d="M34.18,14.6c2.37,1.7,5.66,1.15,7.36-1.22,1.7-2.37,1.15-5.66-1.22-7.36-1.03-.74-2.23-1.05-3.4-.97-.26-1.24-.97-2.39-2.08-3.19-2.37-1.7-5.66-1.15-7.36,1.22-.64.89-.96,1.91-.98,2.93-1.2.28-2.32.98-3.09,2.06-1.7,2.37-1.15,5.66,1.22,7.36,1.87,1.34,4.31,1.28,6.1.03"/>
          <path class="cls-4" d="M27.69,17.29c-1.26,0-2.51-.38-3.58-1.15-2.76-1.97-3.4-5.82-1.42-8.58.74-1.03,1.78-1.81,2.98-2.22.13-.99.5-1.94,1.1-2.76.96-1.34,2.37-2.22,3.99-2.49,1.62-.27,3.25.11,4.58,1.07,1.05.75,1.83,1.81,2.24,3.02,1.16.06,2.29.46,3.25,1.14,2.76,1.97,3.4,5.82,1.42,8.58-1.97,2.76-5.82,3.4-8.58,1.42-.39-.28-.48-.83-.2-1.22.28-.39.83-.48,1.22-.2,1.97,1.41,4.73.95,6.14-1.02,1.41-1.97.96-4.73-1.02-6.14-.83-.6-1.81-.88-2.84-.81-.42.03-.82-.27-.91-.69-.23-1.08-.85-2.02-1.74-2.66-.96-.68-2.12-.95-3.28-.76-1.16.19-2.17.82-2.86,1.78-.51.72-.8,1.56-.82,2.44-.01.4-.29.74-.68.83-1.04.24-1.96.85-2.58,1.72-1.41,1.97-.96,4.73,1.02,6.14,1.51,1.08,3.56,1.1,5.08.03.4-.28.94-.18,1.22.21s.18.94-.21,1.22c-1.06.74-2.29,1.11-3.53,1.11Z"/>
        </g>
      </g>
      <g>
        <g>
          <polyline class="cls-1" points="71.69 26.61 76.86 14.44 82.6 17.93 75.19 27.99"/>
          <path class="cls-4" d="M75.19,28.86c-.18,0-.36-.06-.52-.17-.39-.29-.47-.83-.19-1.22l6.84-9.29-4.06-2.47-4.77,11.24c-.19.44-.7.65-1.15.46-.44-.19-.65-.7-.46-1.15l5.16-12.17c.1-.23.3-.41.54-.49.24-.08.5-.05.72.08l5.74,3.49c.21.13.36.34.4.58.05.24,0,.49-.15.69l-7.41,10.06c-.17.23-.44.36-.71.36Z"/>
        </g>
        <g>
          <path class="cls-1" d="M76.6,18.35c-2.8.82-5.72-.79-6.54-3.58-.82-2.8.79-5.72,3.58-6.54,1.21-.35,2.45-.25,3.53.21.66-1.08,1.71-1.94,3.02-2.32,2.8-.82,5.72.79,6.54,3.58.31,1.05.27,2.12-.04,3.09,1.04.66,1.86,1.69,2.24,2.97.82,2.8-.79,5.72-3.58,6.54-2.21.64-4.49-.22-5.76-1.98"/>
          <path class="cls-4" d="M83.88,23.37c-1.95,0-3.83-.93-5-2.56-.28-.39-.19-.94.2-1.22.39-.28.94-.19,1.22.2,1.09,1.51,3.02,2.18,4.81,1.66,2.33-.68,3.67-3.13,2.99-5.46-.3-1.02-.96-1.9-1.87-2.47-.34-.21-.49-.63-.36-1.01.27-.84.28-1.73.03-2.57-.33-1.13-1.08-2.06-2.11-2.62-1.03-.56-2.22-.69-3.35-.36-1.05.31-1.94.99-2.52,1.94-.23.37-.69.52-1.09.35-.94-.4-1.96-.46-2.95-.17-1.13.33-2.06,1.08-2.62,2.11-.56,1.03-.69,2.22-.36,3.35s1.08,2.06,2.11,2.62c1.03.56,2.22.69,3.35.36.46-.14.95.13,1.09.59.14.46-.13.95-.59,1.09-1.58.46-3.24.28-4.68-.51-1.44-.79-2.49-2.09-2.95-3.67-.46-1.58-.28-3.24.51-4.68s2.09-2.49,3.67-2.95c1.12-.33,2.32-.33,3.44,0,.79-1.01,1.87-1.75,3.11-2.11,1.58-.46,3.24-.28,4.68.51,1.44.79,2.49,2.09,2.95,3.67.28.97.32,1.99.12,2.97.99.79,1.72,1.86,2.08,3.08.95,3.25-.92,6.68-4.18,7.63-.57.17-1.15.25-1.72.25Z"/>
        </g>
      </g>
    </g>
  </g>
</svg>