<?xml version="1.0" encoding="UTF-8"?>
<svg id="Layer_2" data-name="Layer 2" xmlns="http://www.w3.org/2000/svg" viewBox="0 0 139.77 128.64">
  <defs>
    <style>
      .cls-1 {
        fill: #fff;
      }

      .cls-2 {
        fill: #90de63;
      }

      .cls-3 {
        fill: #f6977e;
      }

      .cls-4 {
        fill: #f3981c;
      }

      .cls-5 {
        fill: #ffda2a;
      }

      .cls-6 {
        fill: #a52249;
      }
    </style>
  </defs>
  <g id="_디자인" data-name="디자인">
    <g>
      <g>
        <path class="cls-1" d="M80.9,126.7c4.58.58,7.27-4.31,8.09-7.93,1.44-6.4,1.82-14.91,1.17-27.24-.26-4.95-13-3.8-13.03,1.87-.12,22.14-1.92,24.62-1.2,28.76.47,2.67,2.34,4.21,4.97,4.54Z"/>
        <path d="M81.66,128c-.3,0-.6-.02-.92-.06h0c-3.29-.42-5.49-2.45-6.04-5.57-.34-1.93-.18-3.49.11-6.34.38-3.72,1-9.95,1.07-22.64.02-3.92,4.52-6.14,8.74-6.24,4-.09,6.65,1.6,6.79,4.31.66,12.47.29,20.98-1.2,27.58-1.03,4.58-4.05,8.95-8.55,8.96ZM84.9,89.65c-.07,0-.15,0-.22,0-3.02.07-6.29,1.53-6.3,3.75-.07,12.81-.7,19.11-1.08,22.88-.27,2.71-.41,4.07-.13,5.65.45,2.56,2.37,3.33,3.89,3.52h0c3.95.5,6.12-4.34,6.71-6.97,1.42-6.28,1.78-14.83,1.15-26.9-.07-1.35-2.09-1.94-4.02-1.94Z"/>
      </g>
      <g>
        <path class="cls-1" d="M64.57,127.25c-5.86-1.14-6.56-7.35-6.86-11.05-.56-6.85.08-13.86,1-17.31,1.27-4.79,14.89-5.84,14.1-.22-2.51,18.03-.14,21.87-1.05,24.49-1.03,2.96-3.78,4.76-7.19,4.1Z"/>
        <path d="M65.95,128.64c-.53,0-1.07-.05-1.62-.16h0c-6.98-1.36-7.6-8.94-7.87-12.18-.59-7.27.12-14.29,1.04-17.73,1.08-4.09,8-5.55,12.1-4.73,3.13.63,4.79,2.5,4.45,5-1.62,11.62-1.19,17.17-.94,20.49.14,1.85.24,3.08-.17,4.24-1.1,3.17-3.81,5.07-7,5.07ZM64.81,126.03c2.63.51,4.9-.77,5.77-3.28.23-.67.16-1.63.04-3.22-.26-3.42-.7-9.14.96-21.03.15-1.1-.68-1.84-2.46-2.2-3.66-.74-8.64.84-9.19,2.92-.89,3.35-1.5,10.23-.96,16.89.38,4.64,1.35,9.05,5.85,9.93h0Z"/>
      </g>
      <g>
        <path class="cls-2" d="M105.18,30.71C85.25,11.54,60.16,10.38,60.16,10.38c0,0-23.29,9.39-35.77,34.06-7.32,14.48-6.23,31.75.14,45.3,8.56,18.23,23.98,23.78,33.42,24.11,8.06.29,14.02-2.3,19.27-3.2,5.25-.89,11.73-.42,19.24-3.35,8.8-3.44,21.51-13.77,23.57-33.81,1.53-14.9-3.15-31.56-14.84-42.8Z"/>
        <path d="M59.2,115.13c-.43,0-.86,0-1.3-.02-11.23-.4-26.19-7.13-34.5-24.83-7.11-15.14-7.16-32.49-.12-46.4C35.83,19.07,58.73,9.61,59.7,9.22c.17-.07.34-.1.52-.09,1.04.05,25.78,1.4,45.83,20.67h0c11.24,10.8,16.93,27.19,15.22,43.83-1.99,19.45-13.89,30.75-24.36,34.84-5.38,2.1-10.18,2.5-14.42,2.86-1.8.15-3.51.29-5.07.56-1.56.26-3.21.69-4.97,1.15-3.8.98-8.08,2.09-13.26,2.09ZM60.38,11.65c-2.54,1.11-23.45,10.78-34.87,33.36-6.59,13.03-6.53,29.97.15,44.21,7.83,16.68,21.84,23.02,32.33,23.4,5.4.19,9.89-.97,13.84-1.99,1.81-.47,3.51-.91,5.17-1.19,1.66-.28,3.42-.43,5.28-.59,4.07-.34,8.68-.73,13.72-2.7,9.78-3.82,20.9-14.44,22.78-32.77,1.6-15.65-3.94-31.65-14.47-41.77h0C86.07,14.07,63.14,11.86,60.38,11.65Z"/>
      </g>
      <g>
        <path class="cls-6" d="M75.02,68.28s-1.08.5-4.37,1.15c-3.29.65-4.56.62-4.56.62,0,0,1.72,9.35,6.31,8.45,4.59-.91,2.62-10.21,2.62-10.21Z"/>
        <path class="cls-1" d="M66.86,72.8s1.83-.16,4.33-.65,4.16-1.03,4.16-1.03l.04.07c-.11-1.64-.37-2.91-.37-2.91,0,0-1.08.5-4.37,1.15-3.29.65-4.56.62-4.56.62,0,0,.24,1.29.77,2.87v-.12Z"/>
        <path d="M71.77,79.43c-.79,0-1.55-.24-2.26-.73-3.08-2.09-4.24-8.24-4.29-8.5-.05-.26.02-.53.2-.73.17-.2.4-.32.69-.31-.01,0,1.26.01,4.37-.6,3.09-.61,4.17-1.08,4.18-1.08.24-.11.52-.1.76.02.24.12.41.34.46.6.05.26,1.32,6.39-.73,9.49-.63.95-1.5,1.54-2.58,1.76-.27.05-.53.08-.79.08ZM67.16,70.86c.49,1.96,1.62,5.24,3.34,6.4.55.37,1.12.5,1.73.38.61-.12,1.09-.45,1.46-1.01,1.15-1.74.94-5.18.65-7.18-.71.22-1.83.51-3.51.84-1.71.34-2.9.5-3.66.57Z"/>
      </g>
      <circle class="cls-3" cx="41.15" cy="77.18" r="9.79"/>
      <circle class="cls-3" cx="101.97" cy="66.5" r="9.79"/>
      <g>
        <path d="M65.07,55.39c1.15,8.32-2.97,15.77-12.99,17.15s-16-4.66-17.15-12.99c-1.15-8.32,3.12-15.79,12.99-17.15,9.87-1.36,16,4.66,17.15,12.99Z"/>
        <path class="cls-1" d="M51.4,50.64c1.4,3.32-.79,7.53-3.52,8.37-3.87,1.18-6.98.27-8.25-3.15-1.2-3.23-.37-6.71,3.15-8.25,3.72-1.62,7.28-.15,8.62,3.03Z"/>
        <path class="cls-1" d="M61.7,61.73c-1.55,3.43-5.47,4.72-8.09,2.83-2.1-1.52-1.73-4.65-.53-7.2,1.31-2.77,3.81-4.68,6.55-3.68,2.73,1,3.49,4.91,2.07,8.05Z"/>
        <path class="cls-1" d="M42.85,63.68c1.19-1.98,3.5-1.8,5.53-.69s2.93,2.6,2.22,4.47c-.69,1.81-3.44,2.79-5.86,1.52s-2.86-3.68-1.89-5.29Z"/>
      </g>
      <g>
        <path d="M100.93,49.71c1.15,8.32-2.97,15.77-12.99,17.15s-16-4.66-17.15-12.99c-1.15-8.32,3.12-15.79,12.99-17.15,9.87-1.36,16,4.66,17.15,12.99Z"/>
        <path class="cls-1" d="M87.26,44.95c1.4,3.32-.79,7.53-3.52,8.37-3.87,1.18-6.98.27-8.25-3.15-1.2-3.23-.37-6.71,3.15-8.25,3.72-1.62,7.28-.15,8.62,3.03Z"/>
        <path class="cls-1" d="M97.57,56.05c-1.55,3.43-5.47,4.72-8.09,2.83-2.1-1.52-1.73-4.65-.53-7.2,1.31-2.77,3.81-4.68,6.55-3.68,2.73,1,3.49,4.91,2.07,8.05Z"/>
        <path class="cls-1" d="M78.72,58c1.19-1.98,3.5-1.8,5.53-.69,1.95,1.06,2.93,2.6,2.22,4.47s-3.44,2.79-5.86,1.52c-2.33-1.23-2.86-3.68-1.89-5.29Z"/>
      </g>
      <g>
        <g>
          <path class="cls-5" d="M110.95,6.64s.39,9.45-9.07,10.42c0,0,8.87,1.93,9.07,11,0,0,.19-8.87,8.68-10.61,0,0-8.68-.19-8.68-10.8Z"/>
          <path class="cls-4" d="M110.95,29.05h0c-.54,0-.99-.43-1-.98-.17-8.15-7.95-9.97-8.28-10.04-.48-.11-.81-.55-.78-1.03.03-.49.41-.89.9-.94,7.63-.78,8.15-7.63,8.17-9.12,0-.1,0-.21,0-.31,0-.54.44-.99.98-1,.55,0,1,.42,1.02.96,0,0,0,.07,0,.18.07,9.33,7.39,9.65,7.71,9.66.51.02.92.41.97.91.04.51-.3.96-.79,1.07-7.58,1.55-7.87,9.33-7.88,9.66-.01.54-.46.97-1,.97ZM105.22,17.32c2.01,1.07,4.48,2.96,5.8,6.13.86-2.08,2.4-4.39,5.17-5.84-1.92-.82-4.16-2.45-5.37-5.64-.92,2.07-2.58,4.22-5.6,5.36Z"/>
        </g>
        <g>
          <path class="cls-5" d="M128.96,32.11s.44,10.69-10.25,11.78c0,0,10.03,2.18,10.25,12.43,0,0,.22-10.03,9.81-12,0,0-9.81-.22-9.81-12.21Z"/>
          <path class="cls-4" d="M128.96,57.32h0c-.54,0-.99-.43-1-.98-.2-9.32-9.09-11.39-9.47-11.48-.48-.11-.81-.54-.78-1.03s.41-.89.9-.94c8.74-.89,9.33-8.73,9.36-10.43,0-.12,0-.23,0-.35,0-.54.44-.99.98-1,.58,0,1,.42,1.02.96,0,0,0,.08,0,.21.09,10.67,8.48,11.03,8.84,11.04.51.01.93.41.97.91.04.51-.3.96-.79,1.07-8.68,1.78-9,10.66-9.01,11.04-.01.54-.46.98-1,.98ZM122.16,44.16c2.36,1.2,5.38,3.42,6.88,7.3.96-2.46,2.76-5.28,6.15-6.97-2.25-.91-5-2.8-6.37-6.72-1.02,2.47-2.97,5.09-6.66,6.39Z"/>
        </g>
        <g>
          <path class="cls-5" d="M12.05,27.45s.47,11.52-11.05,12.7c0,0,10.81,2.35,11.05,13.4,0,0,.24-10.81,10.58-12.93,0,0-10.58-.23-10.58-13.17Z"/>
          <path class="cls-4" d="M12.05,54.55h0c-.54,0-.99-.43-1-.98-.21-10.11-9.85-12.35-10.26-12.45-.48-.11-.81-.54-.78-1.03.03-.49.41-.89.9-.94,9.48-.97,10.13-9.47,10.15-11.32,0-.13,0-.25,0-.38,0-.54.44-.99.98-1,.57-.01,1,.42,1.02.96,0,0,0,.09,0,.23.1,11.63,9.21,11.97,9.6,11.98.51.01.93.4.97.91.05.51-.3.97-.8,1.07-9.45,1.93-9.78,11.87-9.78,11.97-.01.54-.46.98-1,.98ZM4.52,40.42c2.59,1.29,6,3.73,7.61,8.1,1.02-2.72,3-5.9,6.83-7.74-2.48-.96-5.57-3.02-7.05-7.46-1.09,2.74-3.22,5.7-7.39,7.1Z"/>
        </g>
        <g>
          <path class="cls-5" d="M31.02,1s.36,8.75-8.39,9.64c0,0,8.21,1.79,8.39,10.18,0,0,.18-8.21,8.03-9.82,0,0-8.03-.18-8.03-10Z"/>
          <path class="cls-4" d="M31.02,21.82h0c-.54,0-.99-.43-1-.98-.16-7.48-7.3-9.15-7.61-9.22-.48-.11-.81-.55-.78-1.03s.41-.89.9-.94c6.96-.71,7.47-6.88,7.5-8.32,0-.11,0-.22,0-.33C30.02.46,30.45.01,31,0c.57-.02,1,.42,1.02.96,0,0,0,.07,0,.17.07,8.61,6.77,8.86,7.05,8.87.51.01.93.4.97.91s-.3.97-.8,1.07c-6.96,1.42-7.23,8.56-7.23,8.86-.01.54-.46.97-1,.97ZM25.9,10.89c1.81.99,3.98,2.68,5.19,5.46.8-1.86,2.19-3.89,4.61-5.21-1.72-.77-3.69-2.24-4.8-5.03-.85,1.85-2.36,3.73-5,4.77Z"/>
        </g>
      </g>
      <g>
        <path class="cls-1" d="M76.7,100.1c2.48,2.7,8.04,2.52,11.78,1.75,3.97-.81,10.32-3.43,13.86-6.23,7.29-5.79,8.87-10.84,8.95-12.95.15-4.12-4.14-4.48-5.77-2.4-2.51,3.18-7.47,7.71-13.38,10.07-7.31,2.92-11.37.69-14.59,2.81-2.31,1.52-2.94,4.67-.84,6.95Z"/>
        <path d="M83.69,103.6c-2.8,0-5.98-.55-7.91-2.65h0c-1.22-1.32-1.77-2.98-1.56-4.67.21-1.69,1.17-3.21,2.64-4.18,1.79-1.18,3.71-1.23,5.92-1.3,2.43-.07,5.18-.15,8.89-1.63,5.63-2.25,10.45-6.62,12.87-9.69,1.19-1.51,3.38-2.11,5.22-1.44,1.83.67,2.87,2.41,2.79,4.67-.11,3.19-2.65,8.51-9.42,13.89-3.76,2.98-10.27,5.64-14.38,6.48-.95.19-2.88.52-5.04.52ZM77.62,99.25c2.02,2.2,6.98,2.12,10.61,1.37,3.75-.76,9.91-3.27,13.33-5.99,8.05-6.39,8.46-11.46,8.48-12.02.03-.81-.15-1.86-1.15-2.23-.82-.3-1.87-.02-2.39.64-2.73,3.46-7.82,8.03-13.9,10.46-4.12,1.65-7.25,1.74-9.75,1.81-1.98.06-3.42.1-4.62.89-.85.56-1.41,1.43-1.53,2.39-.12.95.21,1.89.92,2.67h0Z"/>
      </g>
      <g>
        <path class="cls-1" d="M76.7,100.36c-1.27,3.44-6.48,5.39-10.23,6.11-3.98.76-10.85.76-15.19-.49-8.94-2.58-12.33-6.65-13.2-8.57-1.7-3.76,2.12-5.72,4.42-4.42,3.53,1.99,9.85,4.29,16.21,4.22,7.87-.08,10.77-3.69,14.56-2.95,2.71.53,4.49,3.2,3.42,6.11Z"/>
        <path d="M60.02,108.24c-3.16,0-6.5-.32-9.08-1.06-8.31-2.39-12.68-6.35-14-9.26-.93-2.05-.63-4.06.8-5.38,1.44-1.32,3.7-1.59,5.37-.65,3.4,1.91,9.53,4.14,15.58,4.06,4-.04,6.57-1.02,8.84-1.88,2.07-.78,3.86-1.46,5.97-1.05,1.73.33,3.19,1.38,4.03,2.86.83,1.48.95,3.22.33,4.91h0c-1.75,4.76-8.99,6.49-11.17,6.9-1.82.35-4.2.55-6.69.55ZM40.92,93.83c-.54,0-1.1.19-1.49.55-.79.72-.55,1.76-.22,2.5.23.51,2.54,5.04,12.41,7.89,4.2,1.21,10.85,1.18,14.61.47,3.64-.7,8.26-2.5,9.29-5.31.36-.99.31-1.99-.16-2.82-.47-.84-1.32-1.44-2.33-1.63-1.41-.27-2.75.23-4.61.94-2.35.89-5.26,1.99-9.71,2.04-6.57.06-12.99-2.22-16.84-4.38-.29-.16-.62-.24-.97-.24ZM76.7,100.36h0,0Z"/>
      </g>
    </g>
  </g>
</svg>