<?xml version="1.0" encoding="UTF-8"?>
<svg id="Layer_2" data-name="Layer 2" xmlns="http://www.w3.org/2000/svg" viewBox="0 0 142.49 141.48">
  <defs>
    <style>
      .cls-1 {
        fill: #d46974;
      }

      .cls-2 {
        fill: #f5b2b2;
      }

      .cls-3 {
        fill: #fff;
      }

      .cls-4 {
        fill: #90de63;
      }

      .cls-5 {
        fill: #f29b7e;
      }

      .cls-6 {
        fill: #f6977e;
      }

      .cls-7 {
        fill: #f39939;
      }

      .cls-8 {
        fill: #ea5457;
      }

      .cls-9 {
        fill: #b92c36;
      }

      .cls-10 {
        fill: #a52249;
      }
    </style>
  </defs>
  <g id="_디자인" data-name="디자인">
    <g>
      <g>
        <g>
          <path class="cls-2" d="M19.32,97.57c.47-3.52-1.72-3.84-3.92-3.24,1.72-1.5,2.68-3.49-.57-5.04-3.2-1.53-4.17.39-4.28,2.63-.9-2.08-2.51-3.56-4.98-1.02-2.49,2.56-.91,4.12,1.24,4.94-2.28.19-4.22,1.23-2.53,4.37,1.72,3.2,3.68,2.1,5.11.29-.53,2.24-.15,4.47,3.41,3.85,3.61-.63,3.12-2.87,1.78-4.8,1.99,1.24,4.26,1.63,4.74-1.98Z"/>
          <path class="cls-1" d="M11.69,105.33c-1.1,0-1.95-.31-2.54-.94-.42-.45-.69-1.04-.78-1.76-.62.37-1.24.53-1.86.48-1.16-.1-2.17-.94-3-2.49-.82-1.53-.96-2.83-.41-3.84.3-.55.77-.98,1.41-1.28-.54-.48-.89-1.03-1.02-1.64-.25-1.13.24-2.34,1.46-3.58,1.21-1.24,2.41-1.77,3.54-1.56.6.11,1.16.43,1.65.94.28-.63.68-1.1,1.2-1.41.99-.59,2.29-.51,3.87.25,1.58.76,2.47,1.73,2.62,2.87.08.61-.04,1.24-.38,1.86.71.07,1.3.31,1.77.72.87.76,1.19,2.02.96,3.73h0c-.23,1.73-.88,2.86-1.92,3.36-.56.27-1.21.33-1.91.2.17.69.13,1.33-.11,1.9-.45,1.07-1.55,1.77-3.29,2.07-.45.08-.87.12-1.26.12ZM9.39,99.63c.13,0,.26.03.38.09.37.18.57.59.47.99-.28,1.19-.21,2.07.18,2.49.46.49,1.46.43,2.22.3.76-.13,1.73-.42,1.98-1.02.22-.52-.06-1.4-.77-2.42-.24-.34-.2-.8.09-1.1.29-.3.74-.36,1.1-.14,1.06.66,1.96.9,2.47.65.59-.28.84-1.24.94-2.01h0c.1-.76.12-1.75-.38-2.19-.42-.37-1.29-.41-2.44-.1-.4.11-.81-.07-1-.43-.19-.36-.11-.8.2-1.07.9-.78,1.35-1.51,1.27-2.06-.09-.66-.94-1.19-1.64-1.53-.7-.33-1.65-.66-2.22-.32-.47.28-.75,1.06-.81,2.21-.02.41-.32.75-.72.82-.4.07-.8-.14-.96-.51-.46-1.07-1.02-1.72-1.58-1.82-.66-.13-1.44.51-1.97,1.06-.54.55-1.14,1.34-1,1.99.12.55.8,1.1,1.92,1.53.38.15.61.54.55.94-.06.4-.39.71-.79.75-1.19.1-1.99.42-2.25.91-.31.58.05,1.5.42,2.18.37.69.95,1.51,1.61,1.57.59.06,1.29-.45,2.05-1.41.17-.22.43-.33.69-.33ZM19.33,97.57h0,0Z"/>
        </g>
        <g>
          <g>
            <path class="cls-3" d="M11.32,96.51c.05-.79.29-1.52.59-2.24.24-.64.57-1.54.82-2.16h.03c-.16.66-.41,1.6-.59,2.25-.18.76-.41,1.49-.82,2.16,0,0-.03-.01-.03-.01h0Z"/>
            <path class="cls-3" d="M11.36,96.77s-.05,0-.08-.01c-.11-.03-.22-.15-.21-.26.05-.87.34-1.66.61-2.32.23-.63.57-1.54.82-2.16.05-.12.18-.19.31-.14.12.04.23.18.2.31-.16.65-.41,1.59-.59,2.25-.16.69-.39,1.49-.85,2.23-.05.07-.13.12-.21.12Z"/>
          </g>
          <g>
            <path class="cls-3" d="M11.32,96.5c.27-.74.72-1.37,1.21-1.98.41-.54.99-1.31,1.41-1.83l.03.02c-.34.58-.85,1.4-1.21,1.98-.39.67-.82,1.31-1.41,1.83,0,0-.03-.02-.03-.02h0Z"/>
            <path class="cls-3" d="M11.35,96.77s-.1-.01-.14-.04c-.09-.06-.16-.21-.12-.31.3-.82.8-1.49,1.25-2.05.41-.54.99-1.31,1.41-1.83.08-.1.23-.12.34-.05.11.07.17.24.1.35-.34.58-.85,1.4-1.21,1.98-.35.61-.81,1.32-1.46,1.89-.05.04-.11.06-.17.06Z"/>
          </g>
          <g>
            <path class="cls-7" d="M13.05,92.25c.08-.16,0-.36-.16-.44s-.36-.01-.44.15,0,.36.16.44.36.01.44-.15Z"/>
            <path class="cls-7" d="M12.75,92.69c-.08,0-.17-.02-.25-.06-.29-.14-.41-.48-.28-.77.14-.29.49-.41.78-.27.29.14.41.49.28.77h0c-.1.21-.31.33-.52.33ZM12.75,92.03s-.06.02-.07.05c-.02.04,0,.09.04.11.04.02.09,0,.11-.04.02-.04,0-.09-.04-.11-.01,0-.02,0-.04,0Z"/>
          </g>
          <g>
            <path class="cls-7" d="M14.26,92.84c.08-.16,0-.36-.16-.44s-.36-.01-.44.15,0,.36.16.44.36.01.44-.15Z"/>
            <path class="cls-7" d="M13.97,93.27c-.09,0-.17-.02-.25-.06-.14-.07-.25-.18-.3-.33-.05-.15-.04-.3.02-.44.07-.14.18-.24.33-.3.15-.05.3-.04.45.02.14.07.25.19.3.33.05.15.04.3-.02.44-.07.14-.18.24-.33.3-.06.02-.13.03-.19.03ZM13.96,92.61s-.02,0-.03,0l-.05.1s.02.03.04.05c.03.01.05,0,.06,0l.04-.04s0-.05,0-.06c0-.01-.01-.03-.04-.05-.01,0-.02,0-.04,0Z"/>
          </g>
        </g>
        <g>
          <g>
            <path class="cls-3" d="M11.34,96.5c.77-.19,1.54-.18,2.33-.12.68.03,1.65.08,2.32.13v.04c-.67.05-1.64.09-2.33.12-.78.06-1.55.07-2.32-.13,0,0,0-.04,0-.04h0Z"/>
            <path class="cls-3" d="M12.81,96.95c-.49,0-1.01-.04-1.53-.17-.11-.03-.19-.13-.19-.24s.08-.25.19-.28c.85-.21,1.69-.18,2.41-.13.68.03,1.65.08,2.32.13.13,0,.23.12.23.25s-.1.28-.23.28c-.67.05-1.65.09-2.33.12-.27.02-.56.04-.87.04Z"/>
          </g>
          <g>
            <path class="cls-3" d="M11.34,96.5c.79.04,1.53.27,2.27.55.65.23,1.56.55,2.19.79,0,0-.01.03-.01.03-.66-.15-1.6-.38-2.27-.55-.77-.17-1.51-.38-2.19-.79,0,0,.01-.03.01-.03h0Z"/>
            <path class="cls-3" d="M15.78,98.11s-.03,0-.04,0c-.66-.15-1.61-.38-2.27-.55-.69-.15-1.51-.37-2.26-.81-.1-.06-.14-.17-.11-.28.03-.11.14-.22.25-.22,0,0,0,0,0,0,.87.04,1.68.31,2.35.56.64.22,1.56.54,2.19.79.12.05.19.18.15.31-.04.11-.15.21-.26.21Z"/>
          </g>
          <g>
            <path class="cls-7" d="M15.95,96.85c.18.02.35-.1.37-.28.02-.18-.1-.35-.29-.37-.18-.02-.35.1-.37.28-.02.18.1.35.29.37Z"/>
            <path class="cls-7" d="M15.99,97.1s-.05,0-.08,0c-.32-.04-.54-.34-.5-.65.02-.15.1-.29.22-.38.12-.09.28-.13.43-.11.32.04.54.34.5.65-.02.15-.1.29-.22.38-.1.08-.22.12-.35.12ZM16,96.44l-.34.03.25.03s.03.09.07.09c.03,0,.05,0,.06-.02.04-.1,0-.14-.04-.14Z"/>
          </g>
          <g>
            <path class="cls-7" d="M15.77,98.18c.18.03.35-.1.37-.28.02-.18-.1-.35-.29-.37-.18-.02-.35.1-.37.28-.02.18.1.35.29.37Z"/>
            <path class="cls-7" d="M15.82,98.43s-.05,0-.08,0h0c-.32-.04-.54-.34-.5-.65.02-.15.1-.29.22-.38.12-.09.28-.14.43-.11.32.04.54.34.5.65-.02.15-.1.29-.22.38-.1.08-.22.12-.35.12ZM15.81,97.77s-.04.01-.05.02c-.04.1,0,.14.04.14h0s.05,0,.06-.02c.04-.1,0-.14-.04-.14,0,0,0,0-.01,0Z"/>
          </g>
        </g>
        <g>
          <g>
            <path class="cls-3" d="M11.36,96.51c.42.67.65,1.41.84,2.17.18.66.44,1.59.6,2.24,0,0-.03.01-.03.01-.25-.62-.6-1.53-.84-2.17-.3-.72-.55-1.45-.6-2.24,0,0,.03-.01.03-.01h0Z"/>
            <path class="cls-3" d="M12.79,101.17c-.11,0-.21-.05-.25-.15-.26-.62-.6-1.53-.84-2.17-.27-.65-.56-1.44-.62-2.31,0-.11.06-.22.17-.25.11-.04.26,0,.32.09.46.74.7,1.55.87,2.24.18.65.44,1.59.6,2.24.03.13-.04.26-.17.3-.03,0-.06.01-.09.01Z"/>
          </g>
          <g>
            <path class="cls-3" d="M11.36,96.51c.21.76.22,1.53.18,2.31-.01.68-.03,1.64-.07,2.32,0,0-.04,0-.04,0-.07-.67-.14-1.63-.18-2.31-.08-.78-.11-1.55.07-2.32,0,0,.04,0,.04,0h0Z"/>
            <path class="cls-3" d="M11.47,101.39c-.13,0-.27-.1-.28-.22-.07-.67-.14-1.64-.18-2.32-.07-.7-.12-1.54.07-2.39.03-.11.12-.19.24-.19.12,0,.25.07.28.18.24.84.23,1.68.19,2.39-.01.68-.03,1.64-.07,2.32,0,.13-.11.23-.24.24h0Z"/>
          </g>
          <g>
            <path class="cls-7" d="M12.45,100.98c.03.18.21.3.39.27.18-.03.3-.2.27-.38-.03-.18-.21-.3-.39-.27-.18.03-.3.2-.27.38Z"/>
            <path class="cls-7" d="M12.78,101.5c-.28,0-.52-.2-.57-.48h0c-.03-.15,0-.31.09-.44.09-.13.22-.21.38-.24.31-.06.62.15.67.47.03.15,0,.31-.1.44-.09.13-.22.21-.38.24-.03,0-.07,0-.1,0ZM12.7,100.93s.06.07.1.07l.31-.14-.25.05s-.06-.07-.1-.07l-.31.14.25-.05Z"/>
          </g>
          <g>
            <path class="cls-7" d="M11.13,101.21c.03.18.21.3.39.27.18-.03.3-.2.27-.38-.03-.18-.21-.3-.39-.27s-.3.2-.27.38Z"/>
            <path class="cls-7" d="M11.46,101.73c-.28,0-.52-.2-.57-.48-.03-.15,0-.31.09-.43.09-.13.22-.21.38-.24.31-.06.62.16.67.47.03.15,0,.31-.09.43-.09.13-.22.21-.37.24-.03,0-.07,0-.1,0ZM11.46,101.07s0,0-.01,0h0s-.06.09-.06.09c0,.04.05.07.1.07h0s.06-.09.06-.09c0-.04-.04-.07-.08-.07Z"/>
          </g>
        </g>
        <g>
          <g>
            <path class="cls-3" d="M11.35,96.53c-.51.6-1.14,1.04-1.81,1.45-.57.37-1.38.9-1.96,1.25l-.02-.03c.51-.43,1.28-1.03,1.81-1.45.6-.5,1.22-.96,1.96-1.25,0,0,.02.03.02.03h0Z"/>
            <path class="cls-3" d="M7.58,99.47c-.08,0-.16-.04-.2-.11-.08-.11-.08-.28.02-.37.52-.43,1.28-1.03,1.82-1.45.54-.45,1.21-.96,2.02-1.28.11-.04.23,0,.29.09.07.09.08.25,0,.34-.56.66-1.26,1.13-1.87,1.5-.57.37-1.38.89-1.96,1.25-.04.02-.08.04-.13.04Z"/>
          </g>
          <g>
            <path class="cls-3" d="M11.34,96.53c-.66.43-1.4.67-2.15.87-.66.19-1.58.46-2.23.63v-.03c.6-.26,1.51-.62,2.14-.87.72-.31,1.44-.57,2.23-.63,0,0,.01.03.01.03h0Z"/>
            <path class="cls-3" d="M6.96,98.28c-.1,0-.2-.07-.24-.17-.04-.12,0-.29.13-.35.62-.26,1.52-.62,2.16-.87.65-.28,1.44-.58,2.31-.65.12,0,.22.06.26.17.04.11,0,.26-.09.33-.73.48-1.54.72-2.23.9-.65.19-1.58.46-2.23.63-.02,0-.04,0-.06,0Z"/>
          </g>
          <g>
            <path class="cls-7" d="M7.42,98.92c-.16.09-.22.28-.14.45.09.16.29.22.45.14.16-.09.22-.28.14-.45-.09-.16-.29-.22-.45-.14Z"/>
            <path class="cls-7" d="M7.58,99.79c-.21,0-.41-.11-.52-.31-.07-.14-.09-.29-.04-.44.04-.15.15-.27.28-.34h0c.29-.15.64-.04.79.24.07.14.09.29.04.44-.04.15-.15.27-.28.34-.09.05-.18.07-.27.07ZM7.53,99.14h0s-.04.04-.04.05c.03.1.08.12.12.09l.03-.11s-.07-.05-.11-.03Z"/>
          </g>
          <g>
            <path class="cls-7" d="M6.78,97.73c-.16.09-.22.28-.14.45.09.16.29.22.45.14.16-.09.22-.28.14-.45-.09-.16-.29-.22-.45-.14Z"/>
            <path class="cls-7" d="M6.94,98.6c-.21,0-.41-.11-.52-.31-.07-.14-.09-.29-.04-.44.04-.15.15-.27.28-.34h0s0,0,0,0c.28-.15.63-.04.79.24.07.14.09.29.04.44-.04.15-.15.27-.28.34-.09.05-.18.07-.27.07ZM6.94,97.94s-.03,0-.04,0h0s-.03.03-.04.05c.03.1.08.12.12.1h0s.03-.11.03-.11c-.01-.03-.04-.04-.07-.04Z"/>
          </g>
        </g>
        <g>
          <g>
            <path class="cls-3" d="M11.33,96.53c-.74-.3-1.35-.77-1.95-1.28-.53-.43-1.29-1.04-1.8-1.48l.02-.03c.57.36,1.38.9,1.95,1.28.67.41,1.3.87,1.8,1.48,0,0-.02.03-.02.03h0Z"/>
            <path class="cls-3" d="M11.31,96.77s-.05,0-.08-.01c-.81-.33-1.47-.85-2.02-1.32-.53-.43-1.29-1.04-1.8-1.48-.1-.08-.12-.23-.04-.34.08-.11.24-.16.36-.09.57.36,1.39.9,1.96,1.28.6.38,1.3.85,1.86,1.53.07.09.08.22,0,.31-.05.07-.15.12-.24.12Z"/>
          </g>
          <g>
            <path class="cls-3" d="M11.32,96.52c-.62-.5-1.08-1.12-1.5-1.78-.39-.56-.94-1.36-1.31-1.93l.03-.02c.44.5,1.07,1.25,1.5,1.78.52.59.99,1.2,1.31,1.93,0,0-.03.02-.03.02h0Z"/>
            <path class="cls-3" d="M11.31,96.76c-.05,0-.1-.01-.14-.05-.68-.55-1.17-1.24-1.56-1.84-.39-.56-.94-1.36-1.31-1.93-.07-.11-.05-.26.06-.34.1-.08.28-.09.37.01.45.51,1.07,1.26,1.51,1.78.47.53,1,1.18,1.34,1.99.04.11.01.23-.08.3-.05.04-.12.06-.19.06Z"/>
          </g>
          <g>
            <path class="cls-7" d="M7.82,93.52c-.13-.13-.34-.12-.47,0-.13.13-.12.34,0,.47.13.13.34.12.47,0,.13-.13.12-.34,0-.47Z"/>
            <path class="cls-7" d="M7.59,94.34c-.15,0-.29-.05-.41-.16-.11-.11-.17-.25-.18-.41,0-.15.06-.3.16-.41.22-.23.59-.23.82-.01h0c.11.11.17.25.18.41,0,.15-.06.3-.16.41-.11.12-.26.17-.42.17ZM7.58,93.68s-.04,0-.06.02v.11s.09.03.12,0c.02-.07.02-.09,0-.11h0s-.04-.02-.06-.02Z"/>
          </g>
          <g>
            <path class="cls-7" d="M8.75,92.56c-.13-.13-.34-.12-.47,0-.13.13-.12.34,0,.47.13.13.34.12.47,0,.13-.13.12-.34,0-.47Z"/>
            <path class="cls-7" d="M8.52,93.38c-.15,0-.29-.05-.41-.16-.11-.11-.17-.25-.18-.41,0-.15.06-.3.16-.41.22-.23.59-.24.82-.01.11.11.17.25.18.41,0,.16-.06.3-.16.41-.11.12-.26.17-.42.17ZM8.52,92.72s-.04,0-.06.02c-.02.07-.02.09,0,.11.03.03.08.03.12,0v-.11s-.04-.02-.06-.02Z"/>
          </g>
        </g>
        <circle class="cls-5" cx="11.36" cy="96.48" r="1.86"/>
      </g>
      <g>
        <g>
          <path class="cls-2" d="M138.94,102.76c-.53-3.49-2.71-3.17-4.64-1.99,1.22-1.91,1.58-4.07-1.95-4.65-3.48-.57-3.87,1.53-3.34,3.7-1.43-1.73-3.38-2.69-5.03.41-1.66,3.13.29,4.18,2.55,4.37-2.11.82-3.68,2.35-1.19,4.87,2.53,2.57,4.1.98,4.95-1.15.12,2.28,1.11,4.3,4.32,2.72,3.26-1.61,2.17-3.6.36-5.07,2.24.63,4.51.37,3.96-3.21Z"/>
          <path class="cls-1" d="M132.6,112.48c-.54,0-1.03-.13-1.46-.38-.53-.31-.94-.8-1.24-1.45-.48.52-1.03.85-1.64.97-1.13.23-2.33-.29-3.55-1.54-1.21-1.23-1.71-2.43-1.46-3.55.13-.6.46-1.14.98-1.61-.65-.31-1.13-.74-1.42-1.28-.55-1.01-.42-2.3.39-3.83.81-1.53,1.8-2.36,2.95-2.48.6-.06,1.22.08,1.83.43.09-.67.34-1.23.75-1.67.78-.84,2.05-1.13,3.76-.85,1.72.28,2.84.96,3.3,2.01.25.56.3,1.19.16,1.87.7-.13,1.32-.06,1.88.2,1.04.48,1.7,1.59,1.96,3.29h0c.26,1.72-.04,2.98-.9,3.74-.46.41-1.05.65-1.76.72.35.61.49,1.23.42,1.84-.13,1.15-.99,2.12-2.56,2.9-.89.44-1.69.66-2.4.66ZM130.29,107.45s.09,0,.14.01c.41.07.71.41.73.82.07,1.21.37,2.03.87,2.32.57.33,1.51,0,2.2-.34.69-.34,1.53-.88,1.6-1.52.06-.55-.45-1.31-1.4-2.08-.32-.26-.42-.71-.23-1.08.19-.37.62-.55,1.01-.44,1.19.33,2.11.31,2.53-.07.48-.43.45-1.41.33-2.17h0c-.11-.75-.38-1.69-.97-1.97-.51-.24-1.34-.03-2.35.59-.35.21-.79.16-1.08-.13-.28-.29-.33-.74-.11-1.08.63-.99.86-1.81.64-2.31-.27-.6-1.23-.87-1.99-1-.76-.12-1.75-.17-2.2.31-.37.39-.42,1.22-.16,2.32.1.4-.09.8-.46.99-.36.18-.8.09-1.07-.22-.74-.89-1.44-1.35-2-1.29-.66.07-1.22.88-1.58,1.56-.36.67-.71,1.59-.4,2.17.27.49,1.07.82,2.25.92.41.03.74.34.79.75.06.4-.17.79-.55.94-1.1.43-1.77.96-1.89,1.49-.14.63.47,1.41,1,1.95.54.55,1.32,1.18,1.96,1.05.55-.11,1.1-.79,1.55-1.91.13-.34.46-.55.81-.55Z"/>
        </g>
        <g>
          <g>
            <path class="cls-3" d="M131.02,103.98c-.17-.76-.14-1.53-.06-2.3.05-.67.12-1.63.18-2.29h.04c.03.66.05,1.62.06,2.3.04.77.03,1.54-.18,2.29,0,0-.04,0-.04,0h0Z"/>
            <path class="cls-3" d="M131.06,104.23h0c-.11,0-.25-.08-.27-.2-.19-.84-.14-1.67-.07-2.38.05-.67.12-1.62.18-2.29.01-.13.15-.22.26-.23.13,0,.27.11.28.24.03.66.05,1.63.06,2.3.04.7.04,1.53-.19,2.36-.03.11-.13.18-.24.18Z"/>
          </g>
          <g>
            <path class="cls-3" d="M131.02,103.97c.05-.78.3-1.5.6-2.22.24-.63.58-1.52.83-2.14,0,0,.03.01.03.01-.16.64-.42,1.57-.6,2.22-.18.75-.41,1.48-.83,2.14,0,0-.03-.01-.03-.01h0Z"/>
            <path class="cls-3" d="M131.05,104.24s-.05,0-.08-.01c-.11-.04-.22-.15-.21-.27.06-.86.35-1.64.62-2.3.24-.63.58-1.52.83-2.14.05-.12.19-.18.31-.14.12.04.23.18.2.31-.16.65-.42,1.57-.6,2.22-.17.68-.4,1.48-.86,2.21-.05.07-.13.12-.21.12Z"/>
          </g>
          <g>
            <path class="cls-7" d="M131.48,99.45c.03-.18-.09-.35-.27-.38s-.35.09-.38.27.09.35.27.38.35-.09.38-.27Z"/>
            <path class="cls-7" d="M131.16,99.97s-.06,0-.09,0c-.15-.03-.29-.11-.38-.23-.09-.12-.13-.28-.1-.43.05-.31.36-.53.67-.48.15.03.29.11.38.23.09.12.12.28.1.43-.05.28-.29.48-.57.48ZM131.14,99.33s-.06.02-.06.05l.07.09s.08-.02.09-.06c0-.03,0-.04-.01-.06-.03-.01-.06-.02-.08-.02Z"/>
          </g>
          <g>
            <path class="cls-7" d="M132.8,99.66c.03-.18-.09-.35-.27-.38s-.35.09-.38.27.09.35.27.38.35-.09.38-.27Z"/>
            <path class="cls-7" d="M132.47,100.19s-.06,0-.09,0c-.15-.03-.29-.11-.38-.23-.09-.12-.12-.28-.1-.43.05-.31.35-.53.67-.48.15.03.29.11.38.23.09.12.13.28.1.43h0c-.05.28-.29.48-.57.48ZM132.46,99.55s-.06.02-.06.05l.07.09s.08-.02.09-.06c0-.03,0-.04-.01-.06-.03-.01-.06-.02-.08-.02Z"/>
          </g>
        </g>
        <g>
          <g>
            <path class="cls-3" d="M131.03,103.96c.68-.4,1.42-.6,2.18-.76.66-.16,1.59-.38,2.25-.52v.03c-.62.23-1.53.54-2.17.76-.73.27-1.46.5-2.25.52,0,0,0-.03,0-.03h0Z"/>
            <path class="cls-3" d="M131.04,104.25c-.11,0-.21-.07-.24-.18-.03-.11,0-.26.1-.32.75-.44,1.56-.65,2.26-.79.65-.16,1.59-.38,2.25-.52.13-.03.26.05.29.18s-.02.29-.14.34c-.63.23-1.54.55-2.19.76-.66.25-1.45.51-2.32.54,0,0,0,0,0,0Z"/>
          </g>
          <g>
            <path class="cls-3" d="M131.04,103.96c.77-.19,1.54-.17,2.31-.11.68.03,1.64.08,2.31.14v.04c-.67.04-1.63.08-2.31.11-.78.05-1.55.06-2.31-.14,0,0,0-.04,0-.04h0Z"/>
            <path class="cls-3" d="M132.53,104.42c-.49,0-1.02-.04-1.55-.18-.11-.03-.19-.13-.19-.25,0-.11.08-.24.19-.27.84-.21,1.68-.17,2.39-.12.67.03,1.64.08,2.31.14.13.01.23.12.23.26,0,.13-.11.27-.23.28-.67.04-1.64.08-2.32.11-.26.02-.54.03-.83.03Z"/>
          </g>
          <g>
            <path class="cls-7" d="M135.52,103.02c.18-.03.3-.19.28-.37-.03-.18-.2-.3-.38-.28-.18.03-.3.19-.28.37.03.18.2.3.38.28Z"/>
            <path class="cls-7" d="M135.47,103.27c-.28,0-.53-.21-.57-.49-.02-.15.01-.3.11-.43.09-.12.23-.21.38-.23.31-.05.61.17.66.48.02.15-.01.3-.11.43-.09.12-.23.21-.38.23-.03,0-.06,0-.09,0ZM135.47,102.62s0,0-.01,0l-.07.09s.04.07.09.07c.03,0,.04-.02.05-.03,0-.09-.03-.12-.07-.12Z"/>
          </g>
          <g>
            <path class="cls-7" d="M135.72,104.33c.18-.03.3-.19.28-.37-.03-.18-.2-.3-.38-.27-.18.03-.3.19-.28.37.03.18.2.3.38.27Z"/>
            <path class="cls-7" d="M135.67,104.58c-.28,0-.53-.21-.57-.49-.02-.15.01-.3.11-.43.09-.12.23-.21.38-.23.33-.04.61.17.66.48.02.15-.01.3-.11.43-.09.12-.23.21-.38.23-.03,0-.06,0-.09,0ZM135.59,104.02s.05.07.09.07c.03,0,.04-.02.05-.03,0-.1-.02-.13-.08-.12l-.31.12.25-.04Z"/>
          </g>
        </g>
        <g>
          <g>
            <path class="cls-3" d="M131.05,103.97c.59.52,1.01,1.16,1.4,1.83.36.58.86,1.39,1.2,1.97l-.03.02c-.42-.52-1-1.29-1.4-1.83-.49-.6-.93-1.23-1.2-1.97,0,0,.03-.02.03-.02h0Z"/>
            <path class="cls-3" d="M133.62,108.03c-.07,0-.15-.03-.19-.08-.42-.52-1-1.29-1.41-1.83-.44-.55-.93-1.22-1.23-2.03-.04-.11,0-.23.09-.29.09-.07.25-.08.34,0,.65.57,1.1,1.28,1.46,1.89.35.57.86,1.39,1.2,1.97.07.11.03.26-.08.33-.05.03-.11.05-.17.05Z"/>
          </g>
          <g>
            <path class="cls-3" d="M131.05,103.97c.42.67.64,1.4.82,2.15.18.65.43,1.58.58,2.23h-.03c-.25-.6-.58-1.51-.82-2.14-.29-.72-.53-1.44-.58-2.23,0,0,.03-.01.03-.01h0Z"/>
            <path class="cls-3" d="M132.44,108.6c-.11,0-.22-.05-.25-.15-.25-.62-.59-1.52-.82-2.16-.26-.65-.54-1.43-.6-2.3,0-.11.07-.22.17-.25s.26,0,.32.1c.46.73.69,1.54.85,2.22.18.65.43,1.57.58,2.22.03.13-.04.26-.17.3-.03,0-.06.01-.09.01Z"/>
          </g>
          <g>
            <path class="cls-7" d="M133.34,107.92c.08.16.28.23.44.15.16-.08.23-.28.15-.44-.08-.16-.28-.23-.44-.15-.16.08-.23.28-.15.44Z"/>
            <path class="cls-7" d="M133.64,108.35c-.21,0-.42-.12-.52-.32h0c-.07-.14-.08-.3-.03-.44.05-.15.15-.27.29-.33.28-.14.63-.02.78.26.07.14.08.3.03.44-.05.15-.15.26-.29.33-.08.04-.17.06-.25.06ZM133.64,107.7s-.02,0-.03,0l-.26.21.22-.11s.07.06.11.04l.03-.1s-.04-.04-.07-.04Z"/>
          </g>
          <g>
            <path class="cls-7" d="M132.15,108.51c.08.16.28.23.44.15.16-.08.23-.28.15-.44-.08-.16-.28-.23-.44-.15s-.23.28-.15.44Z"/>
            <path class="cls-7" d="M132.45,108.94c-.21,0-.42-.12-.52-.32-.07-.14-.08-.3-.03-.44.05-.15.15-.26.29-.33.29-.14.63-.02.78.26.07.14.08.29.03.44-.05.15-.15.27-.29.33-.08.04-.17.06-.26.06ZM132.44,108.29s-.02,0-.04,0l-.03.1s.07.06.11.04l.03-.1s-.04-.04-.07-.04Z"/>
          </g>
        </g>
        <g>
          <g>
            <path class="cls-3" d="M131.05,103.99c-.32.72-.8,1.31-1.32,1.88-.44.51-1.07,1.24-1.52,1.73,0,0-.03-.02-.03-.02.37-.55.93-1.34,1.32-1.88.43-.64.89-1.25,1.52-1.73,0,0,.03.02.03.02h0Z"/>
            <path class="cls-3" d="M128.21,107.86c-.05,0-.11-.02-.16-.05-.1-.08-.15-.25-.08-.36.37-.55.93-1.34,1.33-1.89.39-.58.88-1.25,1.57-1.78.09-.07.22-.07.31,0,.09.07.15.22.1.32-.35.79-.89,1.43-1.37,1.95-.44.51-1.06,1.24-1.52,1.73-.05.05-.12.08-.18.08Z"/>
          </g>
          <g>
            <path class="cls-3" d="M131.05,103.99c-.51.6-1.14,1.03-1.81,1.43-.57.37-1.38.88-1.95,1.23l-.02-.03c.51-.42,1.28-1.02,1.81-1.43.6-.49,1.22-.94,1.95-1.23,0,0,.02.03.02.03h0Z"/>
            <path class="cls-3" d="M127.29,106.9c-.08,0-.16-.04-.2-.1-.08-.11-.08-.28.02-.37.52-.42,1.28-1.02,1.81-1.43.54-.45,1.21-.95,2.02-1.26.11-.04.23,0,.29.09.07.09.08.25,0,.34-.56.66-1.26,1.12-1.87,1.48-.57.36-1.38.88-1.95,1.23-.04.02-.08.04-.13.04Z"/>
          </g>
          <g>
            <path class="cls-7" d="M127.97,107.36c-.13.13-.13.33,0,.46.13.13.34.13.47,0,.13-.13.13-.33,0-.46-.13-.13-.34-.13-.47,0Z"/>
            <path class="cls-7" d="M128.2,108.17c-.15,0-.3-.06-.42-.17-.11-.11-.17-.25-.17-.41,0-.15.06-.3.17-.41.23-.22.59-.22.82.01.11.11.17.26.17.41,0,.15-.06.3-.17.41-.11.11-.26.16-.4.16ZM128.2,107.52s-.04,0-.06.02h0s-.02.04-.02.05c.05.08.1.09.14.06v-.11s-.04-.02-.06-.02Z"/>
          </g>
          <g>
            <path class="cls-7" d="M127.04,106.41c-.13.13-.13.33,0,.46.13.13.34.13.47,0,.13-.13.13-.33,0-.46-.13-.13-.34-.13-.47,0Z"/>
            <path class="cls-7" d="M127.27,107.22c-.15,0-.3-.06-.41-.17-.11-.11-.17-.26-.17-.41,0-.15.06-.3.17-.41.23-.22.6-.22.82.01.11.11.17.26.17.41,0,.15-.06.3-.17.41-.11.11-.26.16-.4.16ZM127.27,106.57s-.04,0-.06.02c-.02.02-.02.04-.02.05.05.09.1.09.14.06v-.11s-.04-.02-.06-.02Z"/>
          </g>
        </g>
        <g>
          <g>
            <path class="cls-3" d="M131.03,104c-.79-.08-1.5-.35-2.21-.67-.63-.26-1.52-.63-2.13-.91v-.03c.65.18,1.58.47,2.23.67.75.21,1.47.46,2.13.91,0,0-.01.03-.01.03h0Z"/>
            <path class="cls-3" d="M131.02,104.25s-.01,0-.02,0c-.86-.09-1.64-.4-2.29-.69-.62-.26-1.51-.63-2.13-.91-.12-.05-.18-.19-.13-.31.04-.12.19-.23.32-.19.64.18,1.57.47,2.22.68.68.19,1.47.45,2.19.94.1.07.13.19.09.3-.04.1-.15.19-.25.19Z"/>
          </g>
          <g>
            <path class="cls-3" d="M131.03,103.99c-.73-.3-1.34-.76-1.93-1.27-.53-.43-1.27-1.03-1.78-1.47l.02-.03c.56.36,1.37.9,1.93,1.27.66.41,1.28.86,1.78,1.47,0,0-.02.03-.02.03h0Z"/>
            <path class="cls-3" d="M131.01,104.24s-.05,0-.08-.01c-.8-.33-1.46-.85-2-1.32-.52-.42-1.27-1.03-1.78-1.47-.1-.09-.12-.24-.04-.34.08-.1.25-.16.35-.09.57.36,1.37.9,1.93,1.28.6.37,1.29.85,1.83,1.52.07.09.08.21,0,.31-.05.07-.15.13-.24.13Z"/>
          </g>
          <g>
            <path class="cls-7" d="M126.85,102.11c-.16-.08-.36-.02-.44.14-.08.16-.02.36.14.44.16.08.36.02.44-.14.08-.16.02-.36-.14-.44Z"/>
            <path class="cls-7" d="M126.7,102.98c-.09,0-.18-.02-.27-.07-.14-.07-.24-.19-.28-.34-.04-.15-.03-.3.04-.44.15-.28.5-.39.78-.24h0c.14.07.24.19.28.34.04.15.03.3-.04.44-.1.19-.3.31-.51.31ZM126.7,102.32s-.05.01-.07.04l.03.1s.09,0,.11-.03l.08-.33-.12.22s-.03,0-.04,0Z"/>
          </g>
          <g>
            <path class="cls-7" d="M127.47,100.94c-.16-.08-.36-.02-.45.14-.08.16-.02.36.14.44.16.08.36.02.44-.14.08-.16.02-.36-.14-.44Z"/>
            <path class="cls-7" d="M127.32,101.8c-.09,0-.18-.02-.27-.07-.14-.07-.24-.19-.29-.34-.04-.15-.03-.3.04-.44.15-.28.5-.39.78-.24.14.07.24.19.28.34.04.15.03.3-.04.44-.1.2-.3.31-.51.31ZM127.32,101.15s-.06.02-.07.04l.03.1s.09,0,.11-.03l-.03-.1s-.03,0-.04,0Z"/>
          </g>
        </g>
        <circle class="cls-5" cx="131.05" cy="103.94" r="1.85"/>
      </g>
      <g>
        <g>
          <path class="cls-2" d="M9.75,88.06c-1.17-4.22,1.45-4.98,4.24-4.62-2.36-1.54-3.87-3.81-.16-6.26s5.16-.24,5.67,2.48c.74-2.69,2.46-4.78,5.91-2.1,3.48,2.7,1.81,4.88-.67,6.25,2.81-.15,5.36.79,3.84,4.91-1.55,4.2-4.14,3.2-6.19,1.22,1.03,2.65.94,5.44-3.51,5.28-4.52-.16-4.3-2.98-2.99-5.56-2.22,1.85-4.93,2.72-6.13-1.61Z"/>
          <path class="cls-1" d="M19.22,96.11c-.12,0-.25,0-.38,0-2.1-.07-3.52-.7-4.21-1.87-.41-.7-.54-1.54-.39-2.51-.92.38-1.77.44-2.55.2-1.29-.4-2.23-1.63-2.79-3.63-.55-1.99-.38-3.51.5-4.53.53-.62,1.29-1.01,2.25-1.18-.62-.75-.93-1.53-.94-2.35,0-1.36.88-2.63,2.62-3.78,1.74-1.15,3.25-1.47,4.49-.94.73.31,1.32.88,1.77,1.71.53-.81,1.18-1.36,1.94-1.61,1.28-.43,2.77,0,4.4,1.27,1.64,1.27,2.42,2.6,2.31,3.95-.06.81-.45,1.58-1.13,2.3.95.24,1.67.69,2.15,1.34.8,1.08.84,2.62.12,4.57-.73,1.97-1.77,3.12-3.09,3.42-.8.18-1.64.05-2.53-.39.06.99-.14,1.83-.61,2.49-.74,1.04-2.07,1.57-3.95,1.57ZM15.88,88.79c.19,0,.38.06.54.19.33.26.42.71.24,1.08-.73,1.45-.91,2.61-.52,3.28.46.77,1.75.98,2.76,1.01,1.01.04,2.31-.08,2.84-.83.45-.64.39-1.8-.18-3.27-.15-.38,0-.82.33-1.04.34-.23.8-.19,1.09.1,1.14,1.09,2.17,1.6,2.93,1.43.89-.2,1.49-1.37,1.84-2.32.34-.93.64-2.2.11-2.92-.45-.61-1.55-.9-3.08-.82-.42.02-.78-.24-.89-.63-.11-.39.06-.81.42-1.01,1.36-.75,2.14-1.59,2.2-2.36.07-.91-.85-1.82-1.64-2.44s-1.9-1.28-2.78-.99c-.72.24-1.35,1.17-1.75,2.63-.11.39-.45.66-.88.64-.41-.02-.75-.31-.82-.71-.28-1.46-.8-2.42-1.48-2.71-.83-.35-2.01.23-2.85.79-.84.56-1.84,1.41-1.84,2.32,0,.76.71,1.64,2,2.48.34.22.48.65.34,1.03-.14.38-.53.62-.93.57-1.53-.19-2.65.02-3.15.6-.59.69-.4,1.97-.14,2.92h0c.27.96.76,2.16,1.62,2.43.75.23,1.85-.21,3.1-1.26.16-.14.36-.2.56-.2Z"/>
        </g>
        <g>
          <g>
            <path class="cls-3" d="M19.35,85.4c-.19-.95-.62-1.8-1.1-2.64-.4-.74-.96-1.78-1.37-2.5,0,0-.04.02-.04.02.3.77.77,1.87,1.1,2.64.35.89.75,1.75,1.37,2.5,0,0,.04-.02.04-.02h0Z"/>
            <path class="cls-3" d="M19.31,85.67c-.07,0-.14-.03-.19-.09-.68-.82-1.1-1.76-1.42-2.57-.33-.76-.8-1.87-1.1-2.63-.05-.12,0-.26.12-.32.12-.06.3-.03.37.08.41.72.98,1.77,1.38,2.51.43.75.91,1.66,1.12,2.7.02.11-.03.23-.14.28l-.04.02s-.07.02-.11.02Z"/>
          </g>
          <g>
            <path class="cls-3" d="M19.34,85.39c-.46-.86-1.11-1.55-1.81-2.21-.59-.59-1.43-1.43-2.04-2,0,0-.03.03-.03.03.51.65,1.27,1.57,1.81,2.21.59.76,1.22,1.46,2.04,2,0,0,.03-.03.03-.03h0Z"/>
            <path class="cls-3" d="M19.31,85.67s-.1-.01-.14-.04c-.89-.58-1.56-1.37-2.1-2.05-.53-.64-1.3-1.56-1.81-2.21-.08-.1-.07-.25.03-.34.1-.09.28-.12.37-.03.6.57,1.45,1.41,2.04,2.01.63.59,1.35,1.33,1.85,2.27.05.1.03.22-.05.3l-.03.03s-.11.07-.17.07Z"/>
          </g>
          <g>
            <path class="cls-7" d="M16.51,80.5c-.12-.19-.07-.44.12-.56s.44-.07.57.11.07.44-.12.56-.44.07-.57-.11Z"/>
            <path class="cls-7" d="M16.85,80.93c-.21,0-.42-.1-.55-.29-.1-.15-.13-.32-.1-.49.04-.17.14-.32.28-.42.3-.2.71-.12.91.18.2.3.12.71-.19.91-.11.07-.24.11-.36.11ZM16.86,80.11s-.06,0-.09.03c-.04.02-.06.06-.07.1,0,.04,0,.08.02.12.05.07.15.09.22.04.07-.05.09-.15.05-.22-.03-.04-.08-.07-.13-.07Z"/>
          </g>
          <g>
            <path class="cls-7" d="M15.13,81.41c-.12-.19-.07-.44.12-.56s.44-.07.57.11.07.44-.12.56-.44.07-.57-.11Z"/>
            <path class="cls-7" d="M15.47,81.84s-.09,0-.13-.01c-.17-.04-.32-.13-.41-.28h0c-.1-.15-.13-.32-.1-.49.04-.17.14-.32.28-.42.3-.2.71-.12.91.18.1.15.13.32.1.49-.04.17-.14.32-.28.42-.11.07-.24.11-.36.11ZM15.47,81.03s-.06,0-.09.03c-.04.02-.06.06-.07.1,0,.04,0,.08.02.12h0s.06.06.1.07c.04,0,.08,0,.12-.02.04-.02.06-.06.07-.1,0-.04,0-.08-.02-.12-.03-.05-.08-.07-.13-.07Z"/>
          </g>
        </g>
        <g>
          <g>
            <path class="cls-3" d="M19.33,85.38c-.97-.1-1.92.04-2.86.25-.83.16-2,.38-2.82.55v.04c.83-.06,2.03-.17,2.87-.25.96-.06,1.91-.18,2.82-.55,0,0,0-.04,0-.04h0Z"/>
            <path class="cls-3" d="M13.65,86.48c-.12,0-.23-.09-.25-.22-.02-.13.06-.29.19-.32.82-.18,1.99-.4,2.82-.56.85-.19,1.87-.37,2.93-.25.11.01.2.1.22.21v.04c.02.11-.04.23-.15.27-.99.4-2.02.52-2.9.57-.82.08-2.03.19-2.86.25,0,0-.01,0-.02,0Z"/>
          </g>
          <g>
            <path class="cls-3" d="M19.32,85.39c-.96.18-1.83.59-2.67,1.05-.75.39-1.82.93-2.55,1.33,0,0,.02.04.02.04.78-.29,1.89-.74,2.67-1.05.91-.33,1.78-.72,2.55-1.33,0,0-.02-.04-.02-.04h0Z"/>
            <path class="cls-3" d="M14.12,88.06c-.09,0-.18-.05-.23-.14-.06-.12-.03-.3.09-.36.73-.4,1.8-.95,2.55-1.34.76-.42,1.69-.88,2.74-1.08.12-.02.22.04.27.14l.02.04c.05.1.02.23-.07.3-.83.67-1.79,1.07-2.62,1.37-.9.37-1.94.78-2.67,1.05-.03.01-.06.02-.09.02Z"/>
          </g>
          <g>
            <path class="cls-7" d="M13.76,86.6c-.22.06-.44-.06-.5-.28-.06-.22.07-.44.28-.5.22-.06.44.06.5.28.06.22-.07.44-.28.5Z"/>
            <path class="cls-7" d="M13.65,86.87c-.11,0-.22-.03-.32-.08-.15-.09-.26-.23-.31-.4-.1-.35.11-.71.46-.81.17-.05.35-.03.5.06.15.09.26.23.31.4.1.35-.11.71-.46.81h0c-.06.02-.12.03-.18.03ZM13.65,86.05s-.03,0-.04,0c-.09.02-.14.11-.11.2.01.04.04.07.07.09.03.02.08.03.12.01.09-.02.14-.11.11-.2-.01-.04-.04-.07-.07-.09-.02-.01-.05-.02-.08-.02Z"/>
          </g>
          <g>
            <path class="cls-7" d="M14.2,88.19c-.22.06-.44-.06-.5-.28-.06-.22.07-.44.29-.5.22-.06.44.06.5.28.06.22-.07.44-.29.5Z"/>
            <path class="cls-7" d="M14.09,88.46c-.11,0-.22-.03-.32-.08-.15-.09-.26-.23-.31-.39-.1-.35.11-.71.46-.81.17-.05.35-.03.5.06.15.09.26.23.31.39.1.35-.11.71-.46.81h0c-.06.02-.12.03-.18.03ZM14.09,87.64s-.03,0-.04,0c-.08.02-.13.11-.11.2.01.04.04.07.07.09s.08.03.12.01c.08-.02.13-.11.11-.2-.01-.04-.04-.07-.07-.09-.02-.01-.05-.02-.08-.02Z"/>
          </g>
        </g>
        <g>
          <g>
            <path class="cls-3" d="M19.31,85.4c-.4.89-.56,1.83-.66,2.79-.11.84-.27,2.02-.35,2.84,0,0,.04,0,.04,0,.21-.8.47-1.97.66-2.79.24-.93.42-1.87.35-2.84,0,0-.04,0-.04,0h0Z"/>
            <path class="cls-3" d="M18.34,91.29s-.03,0-.04,0c-.13-.02-.26-.15-.25-.28.09-.83.24-2.01.36-2.85.09-.86.24-1.88.68-2.86.05-.1.16-.16.27-.14h.04c.11.03.2.12.21.24.07,1.06-.14,2.07-.36,2.92-.18.81-.45,1.98-.66,2.79-.03.11-.13.19-.24.19Z"/>
          </g>
          <g>
            <path class="cls-3" d="M19.31,85.41c-.13.97-.01,1.91.17,2.85.13.83.32,2,.47,2.82,0,0,.04,0,.04,0-.03-.82-.11-2.02-.17-2.85-.03-.96-.13-1.91-.47-2.82,0,0-.04,0-.04,0h0Z"/>
            <path class="cls-3" d="M19.99,91.33c-.12,0-.26-.08-.29-.2-.15-.79-.33-1.93-.48-2.83-.16-.85-.31-1.87-.17-2.93.02-.11.11-.2.22-.22h.04c.12-.02.22.05.26.16.38,1,.46,2.02.49,2.9.06.82.14,2.01.17,2.85,0,.13-.09.24-.22.26,0,0-.02,0-.03,0Z"/>
          </g>
          <g>
            <path class="cls-7" d="M18.73,91.05c0,.22-.2.4-.43.39-.23,0-.4-.2-.39-.42,0-.22.2-.4.43-.39.23,0,.4.2.39.42Z"/>
            <path class="cls-7" d="M18.32,91.69s-.02,0-.02,0c-.18,0-.34-.08-.46-.21-.12-.13-.18-.3-.17-.47.02-.36.34-.65.68-.63.18,0,.34.08.46.21.12.13.18.3.17.47-.02.35-.31.63-.66.63ZM18.32,90.88c-.09,0-.16.07-.16.15,0,.04.01.08.04.11.03.03.07.05.11.05.11,0,.16-.07.17-.15,0-.04-.01-.08-.04-.11-.03-.03-.07-.05-.11-.05h0Z"/>
          </g>
          <g>
            <path class="cls-7" d="M20.38,91.11c0,.23-.2.4-.43.39-.23,0-.4-.2-.39-.42,0-.22.2-.4.43-.39s.4.2.39.42Z"/>
            <path class="cls-7" d="M19.97,91.75s-.02,0-.02,0c-.18,0-.34-.08-.46-.21s-.18-.3-.17-.47c.01-.36.35-.66.68-.63.18,0,.34.08.46.21.12.13.18.3.17.47-.02.35-.31.63-.66.63ZM19.97,90.94c-.09,0-.16.07-.16.15,0,.04.01.08.04.11.03.03.07.05.11.05.08,0,.16-.07.17-.15h0s-.01-.08-.04-.11c-.03-.03-.07-.05-.11-.05h0Z"/>
          </g>
        </g>
        <g>
          <g>
            <path class="cls-3" d="M19.32,85.43c.73.65,1.57,1.08,2.46,1.46.76.36,1.84.86,2.6,1.19l.02-.04c-.7-.44-1.73-1.04-2.46-1.46-.82-.51-1.65-.96-2.6-1.19,0,0-.02.04-.02.04h0Z"/>
            <path class="cls-3" d="M24.35,88.32s-.05,0-.08-.02c-.76-.33-1.84-.83-2.61-1.19-.8-.34-1.73-.79-2.52-1.5-.08-.08-.11-.2-.05-.3l.02-.04c.05-.1.17-.15.28-.13,1.04.25,1.93.76,2.67,1.22.79.46,1.78,1.04,2.46,1.46.11.07.15.21.09.33-.05.09-.16.17-.26.17Z"/>
          </g>
          <g>
            <path class="cls-3" d="M19.32,85.43c.88.42,1.82.59,2.78.7.83.12,2.01.3,2.84.39,0,0,0-.04,0-.04-.8-.22-1.96-.5-2.78-.7-.93-.26-1.86-.45-2.84-.39,0,0,0,.04,0,.04h0Z"/>
            <path class="cls-3" d="M24.93,86.77s-.01,0-.02,0c-.83-.1-2.01-.27-2.85-.4-.86-.1-1.88-.26-2.85-.72-.1-.05-.16-.16-.14-.28v-.04c.03-.11.13-.19.24-.2,1.06-.06,2.07.17,2.92.4.88.21,2,.48,2.78.7.12.03.2.16.18.29-.02.12-.14.25-.26.25Z"/>
          </g>
          <g>
            <path class="cls-7" d="M24.53,87.67c.21.08.32.31.24.52-.08.21-.31.32-.52.24-.21-.08-.32-.31-.24-.52.08-.21.31-.32.52-.24Z"/>
            <path class="cls-7" d="M24.38,88.71c-.08,0-.15-.01-.22-.04-.17-.06-.3-.18-.37-.34-.07-.16-.08-.34-.02-.5.13-.34.5-.52.84-.39h0c.17.06.3.18.37.34.07.16.08.34.02.5-.1.27-.35.43-.62.43ZM24.39,87.9c-.07,0-.13.04-.15.11-.01.04-.01.08,0,.12s.05.07.09.08c.08.03.17-.01.21-.1.01-.04.01-.08,0-.12-.02-.04-.05-.07-.09-.08h0s-.04,0-.05,0Z"/>
          </g>
          <g>
            <path class="cls-7" d="M25.1,86.12c.21.08.32.31.24.52-.08.21-.31.32-.52.24-.21-.08-.32-.31-.24-.52.08-.21.31-.32.52-.24Z"/>
            <path class="cls-7" d="M24.96,87.16c-.07,0-.15-.01-.22-.04-.17-.06-.3-.18-.37-.34-.07-.16-.08-.34-.02-.5.13-.34.51-.52.84-.39.17.06.3.18.37.34.07.16.08.34.02.5-.1.27-.35.43-.62.43ZM24.96,86.35c-.07,0-.13.04-.15.11-.01.04-.01.08,0,.12s.05.07.09.08c.08.03.17-.01.21-.1.01-.04.01-.08,0-.12-.02-.04-.05-.07-.09-.08h0s-.04,0-.05,0Z"/>
          </g>
        </g>
        <g>
          <g>
            <path class="cls-3" d="M19.34,85.42c.85-.49,1.52-1.17,2.16-1.89.58-.62,1.4-1.49,1.95-2.11,0,0-.03-.03-.03-.03-.64.53-1.54,1.33-2.16,1.89-.74.62-1.44,1.28-1.95,2.11,0,0,.03.03.03.03h0Z"/>
            <path class="cls-3" d="M19.34,85.67c-.07,0-.13-.03-.18-.08l-.03-.03c-.08-.08-.09-.21-.03-.3.56-.91,1.33-1.61,2-2.17.62-.56,1.53-1.36,2.16-1.89.1-.08.25-.08.34.02.09.09.13.27.04.37-.56.63-1.38,1.5-1.96,2.12-.58.65-1.3,1.4-2.22,1.94-.04.02-.08.03-.12.03Z"/>
          </g>
          <g>
            <path class="cls-3" d="M19.35,85.42c.67-.71,1.13-1.55,1.53-2.43.38-.75.91-1.82,1.27-2.58,0,0-.04-.02-.04-.02-.46.69-1.09,1.71-1.53,2.43-.53.8-1.01,1.63-1.27,2.58,0,0,.04.02.04.02h0Z"/>
            <path class="cls-3" d="M19.35,85.67s-.08-.01-.12-.03l-.04-.02c-.1-.06-.15-.17-.12-.28.28-1.03.81-1.92,1.3-2.65.66-1.07,1.18-1.89,1.53-2.43.07-.11.22-.14.33-.08.12.06.2.23.15.35-.35.76-.89,1.83-1.27,2.58-.37.79-.84,1.71-1.58,2.49-.05.05-.11.08-.18.08Z"/>
          </g>
          <g>
            <path class="cls-7" d="M23.12,81.15c.14-.18.4-.21.57-.07.18.14.21.39.07.57-.14.18-.4.21-.57.07-.18-.14-.21-.39-.07-.57Z"/>
            <path class="cls-7" d="M23.44,82.06c-.14,0-.28-.04-.4-.14-.14-.11-.23-.26-.25-.44-.02-.18.03-.35.13-.49h0c.22-.29.64-.34.92-.11.14.11.23.26.25.44.02.18-.03.35-.14.49-.13.17-.33.25-.52.25ZM23.32,81.31h0s-.04.08-.03.12c0,.04.03.08.06.1.07.05.17.04.22-.03.03-.03.04-.07.03-.12,0-.04-.03-.08-.06-.1-.07-.05-.17-.04-.22.03Z"/>
          </g>
          <g>
            <path class="cls-7" d="M21.82,80.14c.14-.18.4-.21.57-.07.18.14.21.39.07.57-.14.18-.4.21-.57.07-.18-.14-.21-.39-.07-.57Z"/>
            <path class="cls-7" d="M22.14,81.05c-.14,0-.28-.04-.4-.14-.14-.11-.23-.26-.25-.44-.02-.18.03-.35.13-.49h0c.22-.29.64-.34.92-.12.14.11.23.26.25.44.02.18-.03.35-.14.49-.13.17-.32.25-.52.25ZM22.01,80.3s-.04.08-.03.12c0,.04.03.08.06.1.07.05.17.04.22-.03.03-.03.04-.08.03-.12,0-.04-.03-.08-.06-.1-.07-.05-.17-.04-.22.03Z"/>
          </g>
        </g>
        <circle class="cls-5" cx="19.3" cy="85.37" r="2.3"/>
      </g>
      <g>
        <g>
          <path class="cls-2" d="M130.91,81.59c-1.2-4.22-3.83-3.49-6.03-1.74,1.21-2.54,1.32-5.26-3.12-5.43-4.37-.16-4.53,2.49-3.55,5.07-2.04-1.91-4.58-2.8-6.14,1.29-1.57,4.12,1,5.11,3.82,4.99-2.48,1.33-4.17,3.46-.72,6.19,3.51,2.78,5.2.57,5.92-2.18.51,2.8,2.03,5.13,5.75,2.68,3.77-2.49,2.12-4.78-.34-6.31,2.86.42,5.62-.24,4.39-4.57Z"/>
          <path class="cls-1" d="M124.1,94.37c-.45,0-.87-.08-1.27-.26-.74-.32-1.36-.93-1.82-1.81-.52.84-1.18,1.39-1.95,1.65-1.29.43-2.78-.01-4.42-1.31-1.63-1.29-2.39-2.62-2.27-3.96.07-.81.45-1.57,1.14-2.27-.96-.25-1.69-.72-2.16-1.37-.79-1.1-.82-2.64-.08-4.58.74-1.94,1.78-3.07,3.1-3.38.78-.18,1.62-.05,2.49.37-.05-.94.16-1.73.62-2.38.79-1.1,2.26-1.61,4.33-1.54,2.09.08,3.51.7,4.21,1.86.42.69.56,1.53.42,2.49.91-.36,1.76-.41,2.53-.16,1.29.41,2.22,1.63,2.79,3.61h0c.57,2,.41,3.54-.49,4.55-.54.62-1.3,1-2.28,1.16.64.75.96,1.53.97,2.34.02,1.36-.86,2.63-2.62,3.79-1.19.78-2.27,1.18-3.24,1.18ZM121.11,88.9s.02,0,.03,0c.41.02.75.31.83.72.28,1.55.83,2.57,1.55,2.88.85.36,2.02-.22,2.86-.77.84-.56,1.84-1.41,1.83-2.3-.01-.77-.77-1.67-2.15-2.53-.35-.22-.5-.66-.36-1.04.14-.39.55-.63.95-.56,1.61.24,2.79.05,3.3-.54.59-.67.39-1.96.12-2.92h0c-.27-.95-.77-2.15-1.64-2.42-.73-.23-1.8.17-3,1.13-.32.25-.77.26-1.09,0-.32-.25-.42-.69-.24-1.06.66-1.39.81-2.51.42-3.16-.47-.78-1.77-.98-2.78-1.02-1-.04-2.31.07-2.84.81-.43.6-.38,1.7.14,3.08.14.38,0,.81-.33,1.04-.34.23-.79.19-1.08-.09-1.1-1.03-2.12-1.51-2.86-1.33-.89.21-1.5,1.36-1.86,2.29-.35.93-.66,2.2-.13,2.93.45.62,1.56.94,3.1.87.39-.01.77.25.88.64.11.39-.07.81-.43,1-1.36.73-2.14,1.55-2.21,2.3-.08.89.83,1.82,1.62,2.43.79.63,1.92,1.31,2.78,1.02.73-.24,1.35-1.22,1.75-2.74.1-.39.45-.65.85-.65Z"/>
        </g>
        <g>
          <g>
            <path class="cls-3" d="M121.34,84.31c-.33-.92-.41-1.86-.43-2.82-.05-.84-.11-2.02-.13-2.85h.04c.14.81.31,1.99.43,2.82.17.95.27,1.89.13,2.85,0,0-.04,0-.04,0h0Z"/>
            <path class="cls-3" d="M121.38,84.56c-.11,0-.24-.06-.28-.16-.36-1-.43-2.03-.45-2.9-.04-.83-.11-2.02-.13-2.85,0-.13.09-.24.23-.26.13-.02.29.07.31.2.11.63.25,1.55.44,2.83.15.85.29,1.87.13,2.92-.02.11-.11.2-.22.21,0,0-.02,0-.03,0Z"/>
          </g>
          <g>
            <path class="cls-3" d="M121.34,84.31c-.05-.97.14-1.9.4-2.83.2-.82.48-1.97.7-2.77,0,0,.04,0,.04,0-.1.82-.27,2-.4,2.83-.11.95-.28,1.89-.7,2.77,0,0-.04,0-.04,0h0Z"/>
            <path class="cls-3" d="M121.38,84.57s-.03,0-.05,0c-.11-.02-.24-.13-.25-.24-.06-1.06.17-2.07.41-2.91.2-.81.48-1.97.7-2.77.03-.13.16-.2.29-.18.13.02.26.15.24.28-.1.82-.27,2-.4,2.83-.1.86-.26,1.88-.72,2.84-.04.09-.13.14-.23.14Z"/>
          </g>
          <g>
            <path class="cls-7" d="M121.2,78.65c0-.22-.17-.41-.39-.42s-.42.17-.42.39.17.41.39.42.42-.17.42-.39Z"/>
            <path class="cls-7" d="M120.79,79.29s-.02,0-.02,0c-.18,0-.34-.08-.46-.21-.12-.13-.18-.3-.17-.47,0-.17.08-.34.21-.45.13-.12.29-.19.47-.18.36.01.65.32.64.68h0c-.01.35-.31.63-.66.63ZM120.79,78.48s-.08.02-.11.04c-.03.03-.05.07-.05.11,0,.04.01.08.04.11.03.03.07.05.11.05.1,0,.16-.06.17-.15,0-.09-.07-.16-.15-.16h0Z"/>
          </g>
          <g>
            <path class="cls-7" d="M122.86,78.71c0-.22-.17-.41-.39-.42s-.42.17-.42.39.17.41.39.42.42-.17.42-.39Z"/>
            <path class="cls-7" d="M122.45,79.36s-.02,0-.02,0c-.36-.01-.65-.32-.64-.68.01-.35.31-.63.66-.63,0,0,.02,0,.02,0,.18,0,.34.08.46.21.12.13.18.3.17.47,0,.17-.08.34-.21.45-.12.11-.28.18-.45.18ZM122.45,78.54c-.08,0-.16.07-.16.15,0,.09.07.16.15.16.06,0,.08-.01.12-.04.03-.03.05-.07.05-.11h0s-.01-.08-.04-.11c-.03-.03-.07-.05-.11-.05h0Z"/>
          </g>
        </g>
        <g>
          <g>
            <path class="cls-3" d="M121.35,84.29c.78-.6,1.66-.96,2.57-1.28.79-.3,1.91-.72,2.69-.99l.02.04c-.74.38-1.82.91-2.57,1.28-.86.45-1.73.84-2.69.99,0,0-.02-.04-.02-.04h0Z"/>
            <path class="cls-3" d="M121.37,84.58c-.1,0-.19-.06-.23-.15-.05-.11-.03-.27.06-.34.85-.65,1.81-1.03,2.64-1.31.78-.3,1.9-.72,2.69-.99.12-.04.26.02.31.14.05.12.02.3-.1.36-.74.38-1.82.91-2.58,1.28-.77.4-1.71.84-2.76,1.02-.01,0-.03,0-.04,0Z"/>
          </g>
          <g>
            <path class="cls-3" d="M121.36,84.29c.92-.35,1.87-.45,2.83-.49.84-.06,2.04-.15,2.87-.19,0,0,0,.04,0,.04-.81.16-2,.36-2.83.49-.95.19-1.9.31-2.87.19,0,0,0-.04,0-.04h0Z"/>
            <path class="cls-3" d="M122.17,84.63c-.28,0-.56-.02-.84-.05-.11-.01-.2-.11-.22-.22-.01-.11.05-.26.15-.3,1-.38,2.03-.47,2.91-.51.84-.06,2.03-.15,2.87-.19.11,0,.24.09.26.22.02.13-.06.3-.19.32-.82.16-2.01.36-2.84.49-.63.12-1.34.24-2.1.24Z"/>
          </g>
          <g>
            <path class="cls-7" d="M126.74,82.43c.22-.06.34-.29.28-.5-.06-.22-.29-.34-.51-.28-.22.06-.34.29-.28.5.06.22.29.34.51.28Z"/>
            <path class="cls-7" d="M126.63,82.7c-.29,0-.55-.19-.64-.48-.05-.17-.03-.35.06-.5.09-.15.23-.26.4-.31.35-.1.71.11.81.45.05.17.03.34-.06.5-.09.15-.23.26-.4.31h0c-.06.02-.12.02-.18.02ZM126.62,81.88s-.03,0-.04,0c-.04.01-.08.04-.1.07-.02.04-.03.08-.01.12.03.08.12.13.2.11.04-.01.08-.04.1-.07.02-.04.02-.08.01-.12-.02-.07-.08-.11-.15-.11Z"/>
          </g>
          <g>
            <path class="cls-7" d="M127.19,84.02c.22-.06.34-.29.28-.5-.06-.22-.29-.34-.51-.28-.22.06-.34.29-.28.5.06.22.29.34.51.28Z"/>
            <path class="cls-7" d="M127.08,84.28c-.29,0-.55-.19-.63-.48-.05-.17-.03-.35.06-.5.09-.15.23-.26.4-.31.35-.1.71.11.81.45.05.17.03.35-.06.5-.09.15-.23.26-.4.31-.06.02-.12.02-.18.02ZM127.08,83.47s-.03,0-.04,0c-.04.01-.08.04-.1.08-.02.04-.02.08-.01.12.02.08.11.13.2.11h0s.08-.04.1-.08c.02-.04.02-.08.01-.12-.02-.07-.08-.11-.15-.11Z"/>
          </g>
        </g>
        <g>
          <g>
            <path class="cls-3" d="M121.37,84.3c.81.55,1.43,1.27,2.01,2.04.53.65,1.28,1.58,1.78,2.24,0,0-.03.03-.03.03-.59-.58-1.43-1.44-2.01-2.04-.69-.67-1.33-1.37-1.78-2.24,0,0,.03-.03.03-.03h0Z"/>
            <path class="cls-3" d="M125.12,88.84c-.06,0-.12-.02-.16-.06-.59-.58-1.43-1.44-2.02-2.04-.62-.6-1.33-1.36-1.82-2.3-.05-.1-.03-.23.06-.3.09-.08.25-.11.34-.05.88.6,1.54,1.4,2.07,2.09.61.75,1.3,1.61,1.78,2.24.08.1.06.25-.03.34-.05.05-.14.08-.21.08Z"/>
          </g>
          <g>
            <path class="cls-3" d="M121.38,84.3c.61.76,1,1.62,1.34,2.52.32.78.77,1.88,1.06,2.65,0,0-.04.02-.04.02-.4-.72-.95-1.78-1.34-2.52-.47-.84-.88-1.7-1.06-2.65,0,0,.04-.02.04-.02h0Z"/>
            <path class="cls-3" d="M123.75,89.73c-.09,0-.19-.04-.23-.11-.41-.73-.96-1.79-1.34-2.53-.42-.75-.89-1.68-1.09-2.72-.02-.11.04-.23.14-.27.11-.05.27-.04.34.05.67.83,1.07,1.77,1.38,2.59.32.77.77,1.88,1.06,2.65.05.12-.01.26-.13.32-.04.02-.09.03-.13.03Z"/>
          </g>
          <g>
            <path class="cls-7" d="M124.81,88.82c.13.19.38.24.57.11.19-.12.24-.38.11-.56-.13-.19-.38-.24-.57-.11-.19.12-.24.38-.11.56Z"/>
            <path class="cls-7" d="M125.15,89.25c-.21,0-.42-.1-.55-.29-.1-.15-.13-.32-.1-.49.04-.17.14-.32.28-.42.3-.2.71-.12.91.18.1.15.13.32.1.49-.03.17-.13.32-.28.42-.11.07-.24.11-.36.11ZM125.15,88.44s-.06,0-.09.03c-.04.02-.06.06-.07.1s0,.08.02.12h0c.05.07.15.09.22.04.04-.02.06-.06.07-.1,0-.04,0-.08-.02-.12-.03-.05-.08-.07-.13-.07Z"/>
          </g>
          <g>
            <path class="cls-7" d="M123.43,89.73c.13.19.38.24.57.11.19-.12.24-.38.11-.56-.13-.19-.38-.24-.57-.11s-.24.38-.11.56Z"/>
            <path class="cls-7" d="M123.77,90.16c-.21,0-.42-.1-.55-.29h0c-.1-.15-.13-.32-.1-.49.04-.17.14-.32.28-.42.3-.2.71-.12.91.18.1.15.13.32.1.49-.04.17-.14.32-.28.42-.11.07-.24.11-.36.11ZM123.77,89.35s-.06,0-.09.03c-.04.02-.06.06-.07.1,0,.04,0,.08.02.11h0c.05.07.15.09.22.04.04-.02.06-.06.07-.1,0-.04,0-.08-.02-.12-.03-.05-.08-.07-.13-.07Z"/>
          </g>
        </g>
        <g>
          <g>
            <path class="cls-3" d="M121.38,84.32c-.28.93-.78,1.74-1.34,2.53-.46.7-1.12,1.69-1.6,2.37l-.04-.02c.37-.74.94-1.79,1.34-2.53.43-.86.91-1.68,1.6-2.37,0,0,.04.02.04.02h0Z"/>
            <path class="cls-3" d="M118.44,89.47s-.09-.01-.13-.03c-.11-.07-.19-.23-.13-.35.39-.78,1.01-1.92,1.34-2.53.39-.78.89-1.68,1.65-2.43.08-.08.21-.1.31-.04.1.06.18.2.15.31-.31,1.02-.87,1.89-1.37,2.6-.46.7-1.12,1.69-1.6,2.37-.05.07-.12.11-.2.11Z"/>
          </g>
          <g>
            <path class="cls-3" d="M121.37,84.33c-.54.82-1.25,1.45-2.01,2.04-.65.54-1.56,1.3-2.22,1.81,0,0-.03-.03-.03-.03.57-.6,1.42-1.45,2.01-2.04.66-.7,1.36-1.35,2.22-1.81,0,0,.03.03.03.03h0Z"/>
            <path class="cls-3" d="M117.15,88.43c-.07,0-.14-.03-.19-.08-.09-.1-.12-.28-.03-.37.57-.6,1.42-1.45,2.01-2.05.59-.63,1.33-1.35,2.28-1.86.1-.05.23-.03.3.05.08.08.12.24.05.34-.59.89-1.37,1.56-2.06,2.1-.64.54-1.56,1.3-2.22,1.81-.05.04-.1.05-.15.05Z"/>
          </g>
          <g>
            <path class="cls-7" d="M118.1,88.95c-.14.18-.11.43.07.57.18.14.43.11.58-.06.14-.18.11-.43-.07-.57-.18-.14-.43-.11-.58.06Z"/>
            <path class="cls-7" d="M118.42,89.86c-.14,0-.29-.05-.41-.14-.14-.11-.22-.26-.25-.44-.02-.17.03-.35.14-.48.23-.28.64-.33.93-.1.14.11.23.27.25.44.02.17-.03.35-.14.48-.13.16-.32.25-.51.25ZM118.42,89.05s-.09.02-.12.06c-.03.03-.04.07-.03.11s.03.08.06.1c.07.06.17.04.22-.02.03-.03.04-.07.03-.11,0-.04-.03-.08-.06-.1-.03-.02-.07-.04-.1-.04Z"/>
          </g>
          <g>
            <path class="cls-7" d="M116.8,87.93c-.14.18-.11.43.07.57.18.14.43.11.58-.06.14-.18.11-.43-.07-.57-.18-.14-.43-.11-.58.06Z"/>
            <path class="cls-7" d="M117.12,88.84c-.14,0-.29-.05-.41-.14-.14-.11-.23-.27-.25-.44-.02-.17.03-.35.14-.48.22-.28.64-.33.92-.1.14.11.23.27.25.44.02.17-.03.35-.14.48-.13.16-.32.25-.52.25ZM117.12,88.02s-.09.02-.12.06h0s-.04.07-.03.11c0,.04.03.08.06.1.07.05.17.04.23-.02.03-.03.04-.07.03-.11,0-.04-.03-.08-.06-.1-.03-.02-.06-.03-.1-.03Z"/>
          </g>
        </g>
        <g>
          <g>
            <path class="cls-3" d="M121.35,84.33c-.98.02-1.91-.2-2.83-.49-.82-.22-1.97-.54-2.76-.79v-.04c.83.12,2.01.34,2.84.49.96.14,1.89.34,2.76.79,0,0,0,.04,0,.04h0Z"/>
            <path class="cls-3" d="M121.23,84.58c-1.02,0-1.97-.25-2.78-.5-.81-.22-1.96-.54-2.76-.79-.12-.04-.2-.17-.17-.29.03-.13.15-.25.29-.23.82.12,2.01.34,2.84.49.86.13,1.88.33,2.83.81.1.05.16.17.13.28-.03.11-.13.23-.25.24-.04,0-.09,0-.13,0ZM121.35,84.33h0,0Z"/>
          </g>
          <g>
            <path class="cls-3" d="M121.35,84.33c-.95-.26-1.77-.74-2.57-1.27-.72-.45-1.73-1.08-2.42-1.54,0,0,.02-.04.02-.04.75.35,1.82.89,2.57,1.27.88.41,1.71.87,2.42,1.54,0,0-.02.04-.02.04h0Z"/>
            <path class="cls-3" d="M121.33,84.58s-.03,0-.05,0c-1.03-.28-1.92-.82-2.65-1.31-.71-.44-1.73-1.08-2.42-1.54-.11-.07-.14-.22-.08-.33.06-.11.23-.2.35-.14.76.36,1.83.9,2.58,1.28.79.37,1.71.85,2.48,1.58.08.08.1.2.05.3-.05.09-.16.16-.26.16Z"/>
          </g>
          <g>
            <path class="cls-7" d="M115.91,82.65c-.21-.08-.45.03-.53.24-.08.21.03.44.24.52.21.08.45-.03.53-.24.08-.21-.03-.44-.24-.52Z"/>
            <path class="cls-7" d="M115.76,83.69c-.08,0-.15-.01-.23-.04-.17-.06-.3-.19-.37-.35-.07-.16-.08-.34-.01-.5.13-.34.5-.51.85-.38h0c.17.06.3.18.37.35.07.16.08.34.01.5-.1.26-.35.42-.62.42ZM115.76,82.88c-.06,0-.12.04-.15.1-.02.04-.01.08,0,.12.02.04.05.07.09.08.08.03.17-.01.21-.09.02-.04.01-.08,0-.12-.02-.04-.05-.07-.09-.08h0s-.04-.01-.06-.01Z"/>
          </g>
          <g>
            <path class="cls-7" d="M116.49,81.11c-.21-.08-.45.03-.53.24-.08.21.03.44.24.52.21.08.45-.03.53-.24.08-.21-.03-.44-.24-.52Z"/>
            <path class="cls-7" d="M116.35,82.15c-.08,0-.16-.01-.23-.04-.17-.06-.3-.18-.37-.34-.07-.16-.08-.34-.02-.5.13-.34.51-.51.85-.38h0c.17.06.3.18.37.35.07.16.08.34.01.5-.1.26-.35.42-.62.42ZM116.35,81.34c-.07,0-.13.04-.15.1-.01.04-.01.08,0,.12.02.04.05.07.09.08.08.03.17-.01.21-.09.02-.04.01-.08,0-.12-.02-.04-.05-.07-.09-.08-.02,0-.04-.01-.06-.01Z"/>
          </g>
        </g>
        <circle class="cls-5" cx="121.36" cy="84.26" r="2.3"/>
      </g>
      <g>
        <g>
          <path class="cls-2" d="M106.53,11.77c.58-4.34-2.12-4.73-4.84-4,2.12-1.85,3.3-4.31-.7-6.22-3.95-1.89-5.14.48-5.28,3.24-1.11-2.56-3.09-4.39-6.14-1.26-3.08,3.16-1.12,5.08,1.52,6.1-2.81.24-5.2,1.52-3.12,5.4,2.12,3.94,4.54,2.59,6.3.36-.65,2.77-.18,5.52,4.21,4.75,4.45-.78,3.84-3.54,2.2-5.92,2.46,1.53,5.25,2.01,5.85-2.44Z"/>
          <path class="cls-1" d="M97.12,21.14c-1.29,0-2.29-.37-2.98-1.09-.56-.59-.87-1.39-.95-2.38-.81.56-1.64.81-2.45.74-1.35-.12-2.54-1.11-3.53-2.96-.98-1.83-1.15-3.35-.51-4.54.39-.72,1.04-1.26,1.95-1.62-.78-.61-1.27-1.33-1.44-2.12-.29-1.32.3-2.75,1.74-4.23,1.44-1.48,2.85-2.11,4.19-1.87.79.14,1.51.6,2.14,1.33.33-.88.83-1.53,1.51-1.94,1.16-.69,2.7-.59,4.58.31,1.89.9,2.94,2.04,3.12,3.39.11.8-.09,1.62-.61,2.45.98.04,1.78.32,2.39.86,1.02.89,1.39,2.38,1.12,4.42h0c-.27,2.06-1.03,3.41-2.26,3.98-.74.35-1.59.4-2.56.15.29.94.28,1.79-.04,2.54-.52,1.25-1.84,2.07-3.91,2.43-.54.1-1.05.14-1.52.14ZM94.28,14.51c.13,0,.26.03.38.09.37.18.57.59.47.99-.36,1.53-.26,2.69.28,3.26.63.67,1.94.6,2.93.43.99-.17,2.25-.56,2.6-1.38.3-.71-.04-1.84-.97-3.18-.24-.34-.2-.8.09-1.1.29-.3.75-.36,1.1-.14,1.38.86,2.54,1.15,3.25.82.81-.38,1.14-1.64,1.27-2.63l.87.12-.87-.12c.13-.98.14-2.28-.54-2.88-.58-.51-1.71-.56-3.2-.16-.4.11-.81-.07-1-.43-.19-.36-.11-.8.2-1.07,1.16-1.01,1.74-1.98,1.64-2.73-.12-.9-1.23-1.61-2.14-2.04-.91-.43-2.15-.85-2.93-.39-.64.38-1.03,1.4-1.1,2.88-.02.41-.32.75-.72.82-.4.07-.8-.14-.96-.51-.6-1.39-1.34-2.23-2.09-2.36-.91-.17-1.92.65-2.62,1.37-.7.71-1.48,1.75-1.29,2.64.17.75,1.05,1.47,2.5,2.03.38.15.61.54.55.94-.06.4-.39.71-.79.75-1.53.13-2.58.57-2.94,1.23-.43.79.04,2,.51,2.88.48.89,1.24,1.97,2.14,2.04.76.07,1.73-.58,2.7-1.82.17-.22.43-.33.69-.33Z"/>
        </g>
        <g>
          <g>
            <path class="cls-3" d="M96.66,10.46c.06-.97.36-1.87.72-2.76.29-.79.71-1.9,1.02-2.67,0,0,.04.01.04.01-.19.8-.5,1.95-.72,2.76-.22.93-.5,1.84-1.02,2.67,0,0-.04-.01-.04-.01h0Z"/>
            <path class="cls-3" d="M96.71,10.72s-.05,0-.08-.01c-.11-.04-.22-.15-.21-.27.07-1.07.41-2.03.74-2.84.29-.78.71-1.9,1.02-2.67.05-.12.18-.19.31-.14.12.04.24.18.21.31-.19.78-.49,1.89-.73,2.77-.2.84-.48,1.83-1.05,2.73-.05.07-.13.12-.21.12Z"/>
          </g>
          <g>
            <path class="cls-3" d="M96.67,10.45c.34-.91.89-1.69,1.49-2.44.51-.67,1.22-1.62,1.74-2.26,0,0,.04.02.04.02-.42.71-1.05,1.73-1.49,2.44-.48.83-1.01,1.62-1.74,2.26,0,0-.04-.02-.04-.02h0Z"/>
            <path class="cls-3" d="M96.7,10.73s-.1-.01-.14-.04c-.09-.06-.17-.21-.13-.32.37-1,.98-1.83,1.53-2.51.5-.67,1.22-1.61,1.74-2.26.08-.1.23-.12.34-.05.11.07.18.24.11.36-.39.67-.97,1.61-1.49,2.44-.43.75-.99,1.61-1.79,2.32-.05.04-.11.06-.17.06Z"/>
          </g>
          <g>
            <path class="cls-7" d="M98.8,5.21c.1-.2,0-.45-.19-.54s-.45-.01-.54.19,0,.45.19.54.45.01.54-.19Z"/>
            <path class="cls-7" d="M98.43,5.69c-.1,0-.2-.02-.29-.07-.33-.16-.47-.55-.31-.88.08-.16.21-.28.37-.33.17-.06.35-.05.5.03.33.16.47.55.31.88-.08.16-.21.28-.38.34-.07.02-.14.04-.22.04ZM98.42,4.88s-.04,0-.05,0c-.04.01-.07.04-.09.08-.04.08,0,.17.08.21.04.02.08.02.12,0,.04-.01.07-.04.09-.08.04-.08,0-.17-.08-.21-.02-.01-.05-.02-.07-.02Z"/>
          </g>
          <g>
            <path class="cls-7" d="M100.29,5.93c.1-.2,0-.45-.19-.54s-.45-.01-.54.19,0,.45.19.54.45.01.54-.19Z"/>
            <path class="cls-7" d="M99.92,6.41c-.1,0-.19-.02-.28-.06-.33-.16-.47-.55-.31-.88.08-.16.21-.28.38-.34.16-.06.34-.05.5.03.33.16.47.55.31.88h0c-.11.24-.35.37-.59.37ZM99.92,5.6s-.04,0-.05,0c-.04.01-.07.04-.09.08-.04.08,0,.17.08.21.08.04.18,0,.21-.07.04-.08,0-.17-.08-.21-.02-.01-.05-.02-.07-.02Z"/>
          </g>
        </g>
        <g>
          <g>
            <path class="cls-3" d="M96.69,10.44c.95-.24,1.9-.22,2.87-.15.84.04,2.04.1,2.87.16,0,0,0,.04,0,.04-.83.06-2.03.11-2.87.15-.96.07-1.92.08-2.87-.16,0,0,0-.04,0-.04h0Z"/>
            <path class="cls-3" d="M98.5,10.94c-.6,0-1.23-.05-1.87-.21-.11-.03-.19-.13-.19-.24s.08-.26.19-.29c1.04-.26,2.07-.22,2.95-.15.91.04,2.06.1,2.87.16.13,0,.23.12.23.25s-.1.28-.23.29c-.83.06-2.03.11-2.88.15-.33.02-.69.04-1.07.04Z"/>
          </g>
          <g>
            <path class="cls-3" d="M96.69,10.44c.98.04,1.89.33,2.79.68.8.28,1.93.67,2.71.97,0,0-.01.04-.01.04-.81-.18-1.98-.47-2.79-.68-.94-.21-1.86-.47-2.71-.97,0,0,.01-.04.01-.04h0Z"/>
            <path class="cls-3" d="M102.17,12.38s-.03,0-.04,0c-.82-.18-1.99-.47-2.8-.68-.85-.18-1.85-.45-2.77-1-.1-.06-.14-.18-.11-.28.03-.11.15-.22.26-.22,1.07.05,2.05.38,2.87.69.86.3,1.95.68,2.71.97.12.05.19.18.15.31-.03.11-.15.22-.27.22Z"/>
          </g>
          <g>
            <path class="cls-7" d="M102.37,10.88c.22.03.43-.12.46-.35.03-.22-.13-.43-.35-.46-.22-.03-.43.12-.46.35-.03.22.13.43.35.46Z"/>
            <path class="cls-7" d="M102.42,11.14s-.06,0-.09,0h0c-.36-.05-.61-.38-.57-.74.02-.18.11-.33.25-.44s.31-.15.49-.13c.36.05.61.38.57.74-.02.18-.11.33-.25.44-.12.09-.25.13-.4.13ZM102.4,10.63s.08,0,.12-.03c.03-.03.05-.06.06-.1.01-.09-.05-.17-.14-.18-.04,0-.08,0-.12.03-.03.03-.05.06-.06.1-.01.09.05.17.14.18h0Z"/>
          </g>
          <g>
            <path class="cls-7" d="M102.15,12.52c.22.03.43-.12.46-.35.03-.22-.13-.43-.35-.46-.22-.03-.43.12-.46.35-.03.22.13.43.35.46Z"/>
            <path class="cls-7" d="M102.21,12.77s-.06,0-.09,0h0c-.36-.05-.61-.38-.57-.74.02-.17.11-.33.25-.43.14-.11.32-.15.49-.13.36.05.61.38.57.74-.02.17-.11.33-.25.43-.12.09-.25.13-.4.13ZM102.2,11.96s-.07.01-.1.03c-.03.02-.05.06-.06.1-.01.09.05.17.14.18h0s.08,0,.12-.03c.03-.02.05-.06.06-.1.01-.09-.05-.17-.14-.18,0,0-.01,0-.02,0Z"/>
          </g>
        </g>
        <g>
          <g>
            <path class="cls-3" d="M96.71,10.46c.52.83.81,1.73,1.04,2.67.23.81.54,1.96.74,2.77,0,0-.04.01-.04.01-.31-.76-.74-1.89-1.04-2.67-.37-.89-.68-1.79-.74-2.77,0,0,.04-.01.04-.01h0Z"/>
            <path class="cls-3" d="M98.47,16.15c-.11,0-.22-.05-.26-.14-.31-.77-.74-1.89-1.04-2.68-.33-.8-.68-1.78-.76-2.84,0-.11.06-.22.17-.25.11-.04.27,0,.33.09.57.9.86,1.89,1.07,2.75.22.81.54,1.96.74,2.77.03.13-.04.26-.17.3-.03,0-.06.01-.09.01Z"/>
          </g>
          <g>
            <path class="cls-3" d="M96.71,10.46c.26.94.28,1.89.23,2.85-.02.84-.04,2.03-.08,2.86h-.04c-.08-.82-.17-2.01-.23-2.85-.1-.96-.13-1.91.08-2.86,0,0,.04,0,.04,0h0Z"/>
            <path class="cls-3" d="M96.85,16.42c-.13,0-.28-.1-.29-.22-.08-.82-.17-2.02-.23-2.86-.09-.86-.15-1.89.09-2.93.03-.11.12-.19.24-.19.11,0,.26.07.29.18.29,1.02.28,2.05.24,2.93-.02.84-.04,2.03-.08,2.86,0,.13-.11.23-.24.24h0Z"/>
          </g>
          <g>
            <path class="cls-7" d="M98.06,15.97c.04.22.25.37.48.33.22-.04.37-.25.33-.47-.04-.22-.25-.37-.48-.33-.22.04-.37.25-.33.47Z"/>
            <path class="cls-7" d="M98.46,16.56c-.31,0-.59-.22-.65-.54-.03-.17,0-.35.11-.49.1-.14.25-.24.43-.27.36-.06.7.18.76.53.03.17,0,.35-.11.49-.1.14-.25.24-.42.27-.04,0-.08.01-.12.01ZM98.46,15.75s-.02,0-.03,0c-.04,0-.08.03-.1.06-.02.03-.03.07-.02.11h0c.02.09.1.14.19.13.04,0,.08-.03.1-.06.02-.03.03-.08.03-.12-.01-.08-.08-.13-.16-.13Z"/>
          </g>
          <g>
            <path class="cls-7" d="M96.43,16.26c.04.22.25.37.48.33.22-.04.37-.25.33-.47-.04-.22-.25-.37-.48-.33s-.37.25-.33.47Z"/>
            <path class="cls-7" d="M96.83,16.85c-.31,0-.59-.22-.65-.54-.03-.17,0-.35.11-.49.1-.14.25-.24.43-.27.35-.06.7.18.76.53.03.17,0,.35-.11.49s-.25.24-.42.27c-.04,0-.08.01-.11.01ZM96.83,16.03s-.02,0-.03,0c-.04,0-.08.03-.1.06-.02.03-.03.07-.02.11h0c.02.09.09.15.19.13.04,0,.08-.03.1-.06.02-.03.03-.08.03-.12-.01-.08-.08-.13-.16-.13Z"/>
          </g>
        </g>
        <g>
          <g>
            <path class="cls-3" d="M96.7,10.48c-.63.74-1.41,1.29-2.23,1.79-.71.46-1.7,1.1-2.41,1.54,0,0-.03-.04-.03-.04.63-.53,1.57-1.27,2.23-1.79.74-.62,1.5-1.18,2.41-1.54,0,0,.03.04.03.04h0Z"/>
            <path class="cls-3" d="M92.05,14.06c-.08,0-.16-.04-.2-.1-.08-.11-.08-.29.02-.37.61-.51,1.52-1.23,2.24-1.79.66-.56,1.48-1.18,2.47-1.57.11-.04.23,0,.29.09.07.09.09.25.01.34-.69.81-1.55,1.39-2.29,1.84-.76.49-1.72,1.12-2.41,1.54-.04.02-.08.04-.13.04Z"/>
          </g>
          <g>
            <path class="cls-3" d="M96.69,10.49c-.82.53-1.72.83-2.66,1.07-.81.24-1.95.57-2.76.78v-.04c.75-.32,1.86-.77,2.64-1.07.89-.38,1.78-.7,2.76-.78,0,0,.01.04.01.04h0Z"/>
            <path class="cls-3" d="M91.28,12.59c-.1,0-.2-.06-.24-.17-.04-.12,0-.3.12-.35.76-.33,1.88-.77,2.66-1.08.8-.34,1.76-.71,2.83-.8.11-.01.22.06.26.17.04.11,0,.27-.09.33-.89.58-1.88.89-2.73,1.11-.93.27-1.99.58-2.75.78-.02,0-.04,0-.06,0Z"/>
          </g>
          <g>
            <path class="cls-7" d="M91.85,13.43c-.2.11-.27.35-.17.55.11.2.35.27.55.17.2-.11.27-.35.17-.55-.11-.2-.35-.27-.55-.17Z"/>
            <path class="cls-7" d="M92.04,14.44c-.24,0-.46-.13-.58-.35-.08-.15-.1-.33-.05-.5.05-.17.17-.31.32-.39h0c.31-.17.72-.05.89.27.08.15.1.33.05.5-.05.17-.17.31-.32.39-.1.05-.2.08-.31.08ZM91.97,13.65s-.06.05-.08.09c-.01.04,0,.08.01.12.04.08.14.11.22.07.04-.02.06-.05.08-.09.01-.04,0-.08-.01-.12-.04-.08-.14-.11-.22-.07Z"/>
          </g>
          <g>
            <path class="cls-7" d="M91.07,11.97c-.2.11-.27.35-.17.55.11.2.35.27.55.17.2-.1.27-.35.17-.55-.11-.2-.35-.27-.55-.17Z"/>
            <path class="cls-7" d="M91.26,12.99c-.24,0-.46-.13-.58-.35-.08-.15-.1-.33-.05-.5.05-.17.17-.31.32-.39h0c.32-.17.72-.05.89.27.08.16.1.33.05.5-.05.17-.17.31-.32.39-.1.05-.2.08-.31.08ZM91.18,12.19s-.06.05-.08.09c-.01.04,0,.08.01.12.04.08.14.11.22.07.04-.02.06-.05.08-.09.01-.04,0-.08-.01-.12-.04-.08-.14-.11-.22-.07Z"/>
          </g>
        </g>
        <g>
          <g>
            <path class="cls-3" d="M96.67,10.48c-.91-.37-1.67-.95-2.4-1.58-.66-.53-1.59-1.28-2.22-1.82l.03-.04c.7.44,1.7,1.11,2.4,1.58.82.51,1.6,1.07,2.22,1.82,0,0-.03.04-.03.04h0Z"/>
            <path class="cls-3" d="M96.65,10.73s-.05,0-.07-.01c-.99-.4-1.81-1.04-2.47-1.62-.64-.52-1.58-1.27-2.22-1.82-.1-.08-.12-.23-.04-.34.08-.11.25-.17.36-.1.72.45,1.72,1.12,2.41,1.58.74.46,1.59,1.05,2.28,1.87.07.09.08.21.01.31-.05.07-.16.13-.25.13Z"/>
          </g>
          <g>
            <path class="cls-3" d="M96.67,10.48c-.76-.61-1.33-1.38-1.85-2.19-.48-.69-1.16-1.68-1.61-2.38,0,0,.03-.03.03-.03.55.62,1.32,1.54,1.85,2.19.64.72,1.23,1.48,1.61,2.38,0,0-.03.03-.03.03h0Z"/>
            <path class="cls-3" d="M96.65,10.72c-.05,0-.1-.01-.14-.04-.83-.67-1.43-1.51-1.91-2.25-.48-.69-1.16-1.68-1.61-2.38-.07-.11-.04-.26.06-.34.1-.08.29-.09.37,0,.54.61,1.28,1.5,1.86,2.2.58.65,1.23,1.46,1.65,2.44.04.11.01.23-.08.3-.05.04-.13.07-.2.07Z"/>
          </g>
          <g>
            <path class="cls-7" d="M92.34,6.77c-.16-.16-.42-.15-.58,0-.16.16-.15.42.01.58.16.16.42.15.58,0,.16-.16.15-.42-.01-.58Z"/>
            <path class="cls-7" d="M92.06,7.72c-.17,0-.33-.06-.46-.19-.13-.12-.2-.29-.2-.46,0-.18.06-.34.19-.47.25-.26.67-.26.93-.01h0c.13.12.2.29.2.47,0,.18-.06.34-.19.47-.13.13-.3.2-.47.2ZM92.06,6.91s-.08.02-.11.05c-.03.03-.04.07-.04.11,0,.04.02.08.05.11.06.06.16.06.22,0,.03-.03.04-.07.04-.11,0-.04-.02-.08-.05-.11-.03-.03-.07-.05-.11-.05Z"/>
          </g>
          <g>
            <path class="cls-7" d="M93.49,5.59c-.16-.16-.42-.15-.58,0-.16.16-.15.42.01.58.16.16.42.15.58,0,.16-.16.15-.42-.01-.58Z"/>
            <path class="cls-7" d="M93.21,6.54c-.17,0-.33-.06-.46-.19-.13-.12-.2-.29-.2-.46,0-.18.06-.34.19-.47.25-.26.67-.26.93-.01h0c.13.12.2.29.2.46,0,.18-.06.34-.19.47-.13.13-.3.2-.47.2ZM93.21,5.73s-.08.02-.11.05c-.03.03-.04.07-.04.11,0,.04.02.08.05.11.06.06.16.06.22,0,.03-.03.04-.07.04-.11,0-.04-.02-.08-.05-.11h0s-.07-.05-.11-.05Z"/>
          </g>
        </g>
        <circle class="cls-5" cx="96.71" cy="10.42" r="2.3"/>
      </g>
      <g>
        <g>
          <path class="cls-2" d="M52.12,15.09c-.53-3.49-2.71-3.17-4.64-1.99,1.22-1.91,1.58-4.07-1.95-4.65-3.48-.57-3.87,1.53-3.34,3.7-1.43-1.73-3.38-2.69-5.03.41-1.66,3.13.29,4.18,2.55,4.37-2.11.82-3.68,2.35-1.19,4.87,2.53,2.57,4.1.98,4.95-1.15.12,2.28,1.11,4.3,4.32,2.72,3.26-1.61,2.17-3.6.36-5.07,2.24.63,4.51.37,3.96-3.21Z"/>
          <path class="cls-1" d="M45.78,24.81c-.54,0-1.03-.13-1.46-.38-.53-.31-.94-.8-1.24-1.45-.48.52-1.03.85-1.64.97-1.13.23-2.33-.29-3.55-1.54-1.21-1.23-1.71-2.43-1.46-3.55.13-.6.46-1.14.99-1.61-.65-.31-1.13-.74-1.42-1.28-.55-1.01-.42-2.3.39-3.83.81-1.53,1.8-2.36,2.95-2.48.6-.06,1.22.08,1.83.43.09-.67.34-1.23.75-1.67.78-.84,2.05-1.12,3.76-.85,1.72.28,2.84.96,3.3,2.01.25.56.3,1.19.16,1.87.69-.13,1.32-.07,1.88.2,1.04.48,1.7,1.59,1.96,3.29.26,1.72-.04,2.98-.9,3.74-.46.41-1.05.65-1.76.72.35.61.49,1.23.42,1.84-.13,1.15-.99,2.12-2.56,2.9-.89.44-1.69.66-2.4.66ZM43.47,19.77s.09,0,.14.01c.41.07.71.41.73.82.07,1.21.37,2.03.87,2.32.57.33,1.51,0,2.2-.34.69-.34,1.53-.88,1.6-1.52.06-.55-.45-1.31-1.4-2.08-.32-.26-.42-.71-.23-1.08.19-.37.61-.55,1.01-.44,1.19.33,2.11.31,2.53-.07.48-.43.45-1.41.33-2.17h0c-.11-.75-.38-1.69-.97-1.97-.51-.24-1.34-.03-2.35.59-.35.21-.8.16-1.08-.14-.29-.29-.33-.74-.11-1.08.64-.99.86-1.81.64-2.31-.27-.6-1.23-.87-1.99-1-.76-.12-1.75-.17-2.2.31-.37.39-.42,1.22-.16,2.32.1.4-.09.8-.46.99-.36.18-.81.09-1.07-.22-.74-.89-1.45-1.34-2-1.29-.66.07-1.22.88-1.58,1.56-.36.67-.71,1.59-.4,2.17.27.49,1.07.82,2.25.92.41.03.74.34.79.75.06.4-.17.79-.55.94-1.1.43-1.77.96-1.89,1.49-.14.63.47,1.41,1,1.95.54.55,1.32,1.18,1.96,1.05.55-.11,1.1-.79,1.55-1.91.13-.34.46-.55.81-.55Z"/>
        </g>
        <g>
          <g>
            <path class="cls-3" d="M44.2,16.31c-.17-.76-.14-1.53-.06-2.3.05-.67.12-1.63.18-2.29,0,0,.04,0,.04,0,.03.66.05,1.62.06,2.3.04.77.03,1.54-.18,2.29,0,0-.04,0-.04,0h0Z"/>
            <path class="cls-3" d="M44.24,16.56h0c-.11,0-.25-.08-.27-.2-.19-.84-.14-1.67-.07-2.38.05-.67.12-1.62.18-2.29.01-.13.12-.23.25-.23h0c.13,0,.27.11.28.24.03.66.05,1.63.06,2.3.04.7.04,1.53-.19,2.36-.03.11-.13.18-.24.18Z"/>
          </g>
          <g>
            <path class="cls-3" d="M44.2,16.3c.05-.78.3-1.5.6-2.22.24-.63.58-1.52.83-2.14h.03c-.16.65-.42,1.58-.6,2.23-.18.75-.41,1.48-.83,2.14,0,0-.03-.01-.03-.01h0Z"/>
            <path class="cls-3" d="M44.23,16.56s-.05,0-.08-.01c-.11-.04-.21-.15-.2-.27.06-.86.35-1.64.62-2.3.24-.63.58-1.52.83-2.14.05-.12.18-.18.31-.14.12.04.23.18.2.31-.16.65-.42,1.57-.6,2.22-.17.68-.4,1.48-.86,2.21-.05.07-.13.12-.21.12Z"/>
          </g>
          <g>
            <path class="cls-7" d="M44.66,11.78c.03-.18-.09-.35-.27-.38s-.35.09-.38.27.09.35.27.38.35-.09.38-.27Z"/>
            <path class="cls-7" d="M44.34,12.3s-.06,0-.09,0c-.15-.03-.29-.11-.38-.23-.09-.13-.13-.28-.1-.43.05-.31.36-.53.67-.48.15.03.29.11.38.23.09.12.13.28.1.43-.05.28-.29.48-.57.48ZM44.32,11.66s-.06.02-.06.05l.07.09s.08-.02.09-.06c0-.03,0-.04-.01-.06-.03-.01-.06-.02-.08-.02Z"/>
          </g>
          <g>
            <path class="cls-7" d="M45.98,11.99c.03-.18-.09-.35-.27-.38s-.35.09-.38.27.09.35.27.38.35-.09.38-.27Z"/>
            <path class="cls-7" d="M45.66,12.51s-.06,0-.09,0c-.15-.03-.29-.11-.38-.23-.09-.12-.12-.28-.1-.43.05-.31.36-.53.67-.48.15.03.29.11.38.23.09.12.12.28.1.43-.05.28-.29.48-.57.48ZM45.64,11.87s-.06.02-.06.05l.07.09s.08-.02.09-.06c0-.03,0-.04-.01-.06-.03-.01-.06-.02-.08-.02Z"/>
          </g>
        </g>
        <g>
          <g>
            <path class="cls-3" d="M44.21,16.29c.68-.4,1.42-.6,2.18-.76.66-.16,1.59-.38,2.25-.52v.03c-.62.23-1.53.54-2.17.76-.73.27-1.46.5-2.25.52,0,0,0-.03,0-.03h0Z"/>
            <path class="cls-3" d="M44.22,16.58c-.11,0-.21-.07-.24-.18-.03-.11,0-.26.1-.32.75-.44,1.56-.65,2.26-.79.66-.16,1.59-.38,2.25-.52.13-.03.26.05.29.18.04.13-.02.29-.14.34-.63.23-1.54.55-2.19.76-.66.25-1.45.51-2.32.54,0,0,0,0,0,0Z"/>
          </g>
          <g>
            <path class="cls-3" d="M44.22,16.29c.77-.19,1.54-.17,2.31-.11.68.03,1.64.08,2.31.14v.04c-.67.04-1.63.08-2.31.11-.78.05-1.55.06-2.31-.14,0,0,0-.04,0-.04h0Z"/>
            <path class="cls-3" d="M45.71,16.75c-.5,0-1.02-.04-1.55-.18-.11-.03-.19-.13-.19-.24s.08-.25.19-.28c.84-.21,1.68-.17,2.39-.12.67.03,1.64.08,2.31.14.13.01.23.12.23.25s-.1.28-.23.28c-.67.04-1.64.08-2.32.11-.26.02-.54.03-.83.03Z"/>
          </g>
          <g>
            <path class="cls-7" d="M48.7,15.35c.18-.03.3-.19.28-.37-.03-.18-.2-.3-.38-.28-.18.03-.3.19-.28.37.03.18.2.3.38.28Z"/>
            <path class="cls-7" d="M48.65,15.6c-.28,0-.53-.21-.57-.49-.02-.15.01-.3.1-.43.09-.13.23-.21.38-.23.32-.05.61.17.66.48.02.15-.01.3-.11.43-.09.12-.23.21-.38.23h0s-.06,0-.09,0ZM48.65,14.95s0,0-.01,0h0s-.07.09-.07.09c0,.04.04.07.09.07.03,0,.04-.02.05-.03,0-.09-.03-.12-.07-.12Z"/>
          </g>
          <g>
            <path class="cls-7" d="M48.9,16.66c.18-.03.3-.19.28-.37-.03-.18-.2-.3-.38-.27-.18.03-.3.19-.28.37.03.18.2.3.38.27Z"/>
            <path class="cls-7" d="M48.85,16.91c-.28,0-.53-.21-.57-.49-.02-.15.01-.3.1-.43.09-.13.23-.21.38-.23.32-.04.61.17.66.48.02.15-.01.3-.1.43-.09.12-.23.21-.38.23h0s-.06,0-.09,0ZM48.85,16.26s0,0-.01,0h0s-.07.09-.07.09c0,.04.04.07.09.07h0s.04-.02.05-.03c0-.09-.03-.12-.07-.12Z"/>
          </g>
        </g>
        <g>
          <g>
            <path class="cls-3" d="M44.23,16.3c.59.52,1.01,1.16,1.4,1.83.36.58.86,1.39,1.2,1.97,0,0-.03.02-.03.02-.42-.52-1-1.29-1.4-1.83-.49-.6-.93-1.23-1.2-1.97,0,0,.03-.02.03-.02h0Z"/>
            <path class="cls-3" d="M46.8,20.35c-.07,0-.15-.03-.19-.08-.42-.52-1-1.29-1.41-1.83-.44-.55-.93-1.22-1.23-2.03-.04-.11,0-.23.09-.29.09-.06.25-.08.33,0,.65.57,1.1,1.28,1.46,1.89.35.57.86,1.39,1.2,1.97.07.11.03.26-.08.33-.05.03-.11.05-.17.05Z"/>
          </g>
          <g>
            <path class="cls-3" d="M44.23,16.3c.42.67.64,1.4.82,2.15.18.65.43,1.58.58,2.23h-.03c-.25-.6-.58-1.51-.82-2.14-.29-.72-.53-1.44-.58-2.23,0,0,.03-.01.03-.01h0Z"/>
            <path class="cls-3" d="M45.62,20.93c-.11,0-.22-.05-.25-.15-.25-.62-.59-1.52-.82-2.16-.26-.65-.54-1.44-.6-2.3,0-.11.07-.22.17-.25s.26,0,.32.1c.46.73.69,1.54.85,2.22.18.65.43,1.57.58,2.22.03.13-.04.26-.17.3-.03,0-.06.01-.09.01Z"/>
          </g>
          <g>
            <path class="cls-7" d="M46.52,20.25c.08.16.28.23.44.15.16-.08.23-.28.15-.44-.08-.16-.28-.23-.44-.15-.16.08-.23.28-.15.44Z"/>
            <path class="cls-7" d="M46.82,20.68c-.21,0-.42-.12-.52-.32-.07-.14-.08-.29-.03-.44.05-.15.15-.27.29-.33.28-.14.63-.02.78.26.07.14.08.3.03.44-.05.15-.15.26-.29.33-.08.04-.17.06-.26.06ZM46.82,20.03s-.02,0-.04,0l-.03.1s.07.05.11.04l.26-.21-.22.11s-.04-.04-.07-.04Z"/>
          </g>
          <g>
            <path class="cls-7" d="M45.33,20.84c.08.16.28.23.44.15.16-.08.23-.28.15-.44-.08-.16-.28-.23-.44-.15s-.23.28-.15.44Z"/>
            <path class="cls-7" d="M45.63,21.27c-.21,0-.42-.12-.52-.32-.07-.14-.08-.29-.03-.44.05-.15.15-.27.29-.33.28-.14.63-.03.78.26.07.14.08.29.03.44-.05.15-.15.27-.29.33-.08.04-.17.06-.26.06ZM45.62,20.62s-.02,0-.03,0h0s-.04.1-.04.1c.02.04.07.06.11.04l.03-.1s-.04-.04-.07-.04Z"/>
          </g>
        </g>
        <g>
          <g>
            <path class="cls-3" d="M44.23,16.32c-.32.72-.8,1.31-1.32,1.88-.44.51-1.07,1.24-1.52,1.73,0,0-.03-.02-.03-.02.37-.55.93-1.34,1.32-1.88.43-.64.89-1.25,1.52-1.73,0,0,.03.02.03.02h0Z"/>
            <path class="cls-3" d="M41.4,20.18c-.05,0-.11-.02-.15-.05-.1-.08-.16-.25-.08-.36.37-.55.93-1.34,1.33-1.89.39-.58.88-1.25,1.57-1.78.09-.07.22-.07.31,0,.09.07.15.22.1.32-.35.79-.89,1.43-1.37,1.95-.44.51-1.06,1.24-1.52,1.73-.05.05-.12.08-.18.08Z"/>
          </g>
          <g>
            <path class="cls-3" d="M44.23,16.32c-.51.6-1.14,1.03-1.81,1.43-.57.37-1.38.88-1.95,1.23,0,0-.02-.03-.02-.03.51-.42,1.28-1.02,1.81-1.43.6-.49,1.22-.94,1.95-1.23,0,0,.02.03.02.03h0Z"/>
            <path class="cls-3" d="M40.47,19.23c-.08,0-.16-.04-.21-.11-.07-.11-.07-.28.03-.36.52-.42,1.28-1.02,1.81-1.43.54-.45,1.21-.95,2.02-1.26.11-.04.23,0,.29.09.07.09.08.25,0,.34-.56.66-1.26,1.12-1.87,1.48-.57.36-1.38.88-1.95,1.23-.04.02-.08.04-.13.04Z"/>
          </g>
          <g>
            <path class="cls-7" d="M41.15,19.69c-.13.13-.13.33,0,.46.13.13.34.13.47,0,.13-.13.13-.33,0-.46-.13-.13-.34-.13-.47,0Z"/>
            <path class="cls-7" d="M41.38,20.5c-.15,0-.3-.06-.42-.17-.11-.11-.17-.25-.17-.41,0-.15.06-.3.17-.41.23-.22.59-.22.82.01.11.11.17.26.17.41,0,.15-.06.3-.17.41-.11.11-.26.16-.4.16ZM41.38,19.85s-.04,0-.06.02h0s-.02.04-.02.05c.06.09.11.09.14.06l.18-.28-.18.18s-.04-.02-.06-.02Z"/>
          </g>
          <g>
            <path class="cls-7" d="M40.22,18.74c-.13.13-.13.33,0,.46.13.13.34.13.47,0,.13-.13.13-.33,0-.46-.13-.13-.34-.13-.47,0Z"/>
            <path class="cls-7" d="M40.45,19.55c-.15,0-.3-.06-.42-.17-.11-.11-.17-.26-.17-.41s.06-.3.17-.41h0c.23-.22.6-.22.82.01.11.11.17.26.17.41,0,.15-.06.3-.17.41-.11.11-.26.16-.4.16ZM40.39,18.92s-.02.04-.02.05c.05.09.1.09.14.06v-.11s-.08-.03-.11,0Z"/>
          </g>
        </g>
        <g>
          <g>
            <path class="cls-3" d="M44.21,16.33c-.79-.08-1.5-.35-2.21-.67-.63-.26-1.52-.63-2.13-.91,0,0,.01-.03.01-.03.64.18,1.57.47,2.21.67.75.21,1.47.46,2.13.91,0,0-.01.03-.01.03h0Z"/>
            <path class="cls-3" d="M44.21,16.57s-.01,0-.02,0c-.86-.09-1.64-.4-2.29-.7-.62-.26-1.51-.63-2.13-.91-.12-.05-.18-.19-.13-.31.04-.12.19-.23.32-.19.64.18,1.57.47,2.22.68.68.19,1.47.45,2.19.94.09.06.13.18.09.29-.04.1-.15.2-.25.2Z"/>
          </g>
          <g>
            <path class="cls-3" d="M44.21,16.32c-.73-.3-1.34-.76-1.93-1.27-.53-.43-1.27-1.03-1.78-1.47,0,0,.02-.03.02-.03.56.36,1.37.9,1.93,1.27.66.41,1.28.86,1.78,1.47,0,0-.02.03-.02.03h0Z"/>
            <path class="cls-3" d="M44.19,16.57s-.05,0-.08-.01c-.8-.33-1.46-.85-2-1.32-.52-.42-1.27-1.03-1.78-1.47-.1-.08-.12-.23-.04-.34.08-.11.25-.16.36-.09.57.36,1.37.9,1.93,1.28.59.37,1.28.85,1.83,1.52.07.09.08.21,0,.31-.05.07-.15.13-.24.13Z"/>
          </g>
          <g>
            <path class="cls-7" d="M40.03,14.44c-.16-.08-.36-.02-.44.14-.08.16-.02.36.14.44.16.08.36.02.44-.14.08-.16.02-.36-.14-.44Z"/>
            <path class="cls-7" d="M39.88,15.31c-.09,0-.18-.02-.27-.07-.14-.07-.24-.19-.28-.34-.04-.15-.03-.3.04-.44.15-.28.5-.39.78-.24h0c.14.07.24.19.28.34.04.15.03.3-.04.44-.1.19-.3.31-.51.31ZM39.88,14.65s-.05.01-.07.04l-.08.33.12-.22s.09,0,.11-.03l.08-.33-.12.22s-.03,0-.04,0Z"/>
          </g>
          <g>
            <path class="cls-7" d="M40.65,13.27c-.16-.08-.36-.02-.45.14-.08.16-.02.36.14.44.16.08.36.02.44-.14.08-.16.02-.36-.14-.44Z"/>
            <path class="cls-7" d="M40.5,14.13c-.09,0-.18-.02-.27-.07-.14-.07-.24-.19-.28-.34-.04-.15-.03-.3.04-.44.15-.28.5-.39.78-.24h0c.14.07.24.19.28.34.04.15.03.3-.04.44-.1.19-.31.31-.51.31ZM40.5,13.48s-.06.02-.07.04l-.08.32.12-.22s.09,0,.11-.03l.08-.32-.12.22s-.03,0-.04,0Z"/>
          </g>
        </g>
        <circle class="cls-5" cx="44.23" cy="16.27" r="1.85"/>
      </g>
      <g>
        <g>
          <path class="cls-8" d="M134.5,20.27c-6.63-1.35-10.19,4.86-10.19,4.86,0,0-3.55-6.21-10.19-4.86-7.48,1.52-9.14,11.02-4.06,17.67,5.22,6.83,14.25,8.83,14.25,8.83,0,0,9.03-2,14.25-8.83,5.08-6.65,3.42-16.15-4.06-17.67Z"/>
          <path class="cls-9" d="M124.31,47.77c-.07,0-.15,0-.22-.02-.38-.08-9.45-2.16-14.82-9.2-3.04-3.98-3.96-9.05-2.39-13.22,1.21-3.22,3.71-5.36,7.04-6.03,5.31-1.08,8.85,2.24,10.39,4.13,1.54-1.89,5.07-5.21,10.39-4.13h0c3.33.68,5.83,2.82,7.04,6.03,1.57,4.17.65,9.24-2.39,13.22-5.38,7.04-14.44,9.12-14.82,9.2-.07.02-.14.02-.22.02ZM115.98,21.08c-.53,0-1.08.05-1.66.17-2.63.53-4.61,2.23-5.57,4.78-1.31,3.48-.48,7.92,2.11,11.3,4.49,5.88,12.07,8.06,13.45,8.41,1.38-.36,8.96-2.53,13.45-8.41,2.59-3.39,3.41-7.82,2.11-11.3-.96-2.55-2.93-4.24-5.57-4.78h0c-5.82-1.18-8.99,4.15-9.12,4.38-.18.31-.51.5-.87.5h0c-.36,0-.69-.19-.87-.5-.12-.2-2.69-4.55-7.46-4.55Z"/>
        </g>
        <g>
          <path class="cls-3" d="M132.03,47.92c-.31,14.74-10.92,22.43-14.49,24.97l-4.07-7.99s4.76-5.13,5.13-12.2c.12-2.2-.42-4.04-.75-5.8-.25-1.34,14.23-2,14.17,1.03Z"/>
          <path d="M117.54,74.13c-.1,0-.2-.01-.3-.04-.35-.09-.65-.32-.82-.65l-4.07-7.99c-.24-.47-.16-1.03.2-1.42.04-.05,4.46-4.91,4.8-11.42.08-1.56-.21-2.96-.49-4.32-.08-.4-.17-.8-.24-1.19-.1-.56.13-1.12.64-1.5,1.83-1.35,11.33-1.56,14.41.03,1.42.73,1.61,1.76,1.6,2.3h0c-.22,10.31-5.27,19.04-15.02,25.96-.21.15-.47.23-.72.23ZM114.96,65.06l3.03,5.95c4.11-3.04,12.46-10.2,12.78-23.01-1.12-1.13-9.05-1.27-11.53-.57.02.12.05.23.07.35.3,1.44.64,3.08.54,4.96-.32,6-3.55,10.63-4.89,12.31ZM132.03,47.92h0,0Z"/>
        </g>
        <g>
          <path class="cls-3" d="M122.49,51.05c-4.84-.7-5.73-5.64-5.03-8.15,1.09-3.89,5.19-5.45,8.55-4.6,4.87,1.22,6.08,6.6,6.01,9.63"/>
          <path d="M122.49,52.3c-.06,0-.12,0-.18-.01-2.15-.31-3.88-1.38-5-3.1-1.41-2.16-1.54-4.88-1.05-6.63,1.31-4.68,6.15-6.46,10.06-5.48,5.64,1.42,7.03,7.5,6.96,10.86-.01.68-.57,1.22-1.25,1.22,0,0-.02,0-.03,0-.69-.01-1.24-.59-1.22-1.28.06-2.63-.95-7.35-5.07-8.39-2.75-.69-6.14.51-7.04,3.73-.33,1.16-.23,3.09.74,4.59.72,1.11,1.82,1.78,3.26,1.99.68.1,1.16.73,1.06,1.42-.09.62-.62,1.07-1.24,1.07Z"/>
        </g>
        <g>
          <path class="cls-8" d="M7.99,20.27c6.63-1.35,10.19,4.86,10.19,4.86,0,0,3.55-6.21,10.19-4.86,7.48,1.52,9.14,11.02,4.06,17.67-5.22,6.83-14.25,8.83-14.25,8.83,0,0-9.03-2-14.25-8.83C-1.14,31.29.51,21.79,7.99,20.27Z"/>
          <path class="cls-9" d="M18.18,47.77c-.07,0-.15,0-.22-.02-.38-.08-9.45-2.16-14.82-9.2C.1,34.56-.81,29.5.75,25.33c1.21-3.22,3.71-5.36,7.04-6.03h0c5.31-1.08,8.85,2.24,10.39,4.13,1.54-1.89,5.08-5.21,10.39-4.13,3.33.68,5.83,2.82,7.04,6.03,1.57,4.17.65,9.24-2.39,13.22-5.38,7.04-14.44,9.12-14.82,9.2-.07.02-.14.02-.22.02ZM8.19,21.25c-2.63.53-4.61,2.23-5.57,4.78-1.31,3.48-.48,7.92,2.11,11.3,4.49,5.88,12.07,8.06,13.45,8.41,1.38-.36,8.96-2.53,13.45-8.41,2.59-3.39,3.41-7.82,2.11-11.3-.96-2.55-2.93-4.24-5.57-4.78-5.82-1.18-8.99,4.15-9.12,4.38-.18.31-.51.5-.87.5h0c-.36,0-.69-.19-.87-.5-.13-.23-3.3-5.56-9.12-4.38h0Z"/>
        </g>
        <g>
          <path class="cls-3" d="M10.46,47.92c.31,14.74,10.92,22.43,14.49,24.97l4.07-7.99s-4.76-5.13-5.13-12.2c-.12-2.2.42-4.04.75-5.8.25-1.34-14.23-2-14.17,1.03Z"/>
          <path d="M24.95,74.13c-.26,0-.51-.08-.72-.23-9.75-6.92-14.8-15.65-15.02-25.96-.01-.54.18-1.56,1.6-2.3,3.08-1.59,12.58-1.39,14.41-.03.5.37.74.93.64,1.5-.07.39-.15.79-.24,1.19-.28,1.36-.57,2.76-.49,4.32.35,6.51,4.76,11.37,4.8,11.42.35.38.43.95.2,1.42l-4.07,7.99c-.17.32-.46.56-.82.65-.1.02-.2.04-.3.04ZM11.71,48.01c.32,12.8,8.67,19.97,12.78,23.01l3.03-5.95c-1.34-1.68-4.57-6.31-4.89-12.31-.1-1.88.24-3.52.54-4.96.02-.12.05-.23.07-.35-2.49-.7-10.41-.56-11.53.57ZM11.71,47.89h0s0,0,0,0Z"/>
        </g>
        <g>
          <path class="cls-3" d="M20,51.05c4.84-.7,5.73-5.64,5.03-8.15-1.09-3.89-5.19-5.45-8.55-4.6-4.87,1.22-6.08,6.6-6.01,9.63"/>
          <path d="M20,52.3c-.61,0-1.15-.45-1.24-1.07-.1-.68.38-1.32,1.06-1.42,1.44-.21,2.53-.88,3.26-1.99.97-1.49,1.07-3.43.74-4.59-.9-3.22-4.29-4.42-7.04-3.73-4.12,1.04-5.13,5.76-5.07,8.39.01.69-.53,1.26-1.22,1.28,0,0-.02,0-.03,0-.68,0-1.23-.54-1.25-1.22-.07-3.37,1.31-9.44,6.96-10.86,3.91-.99,8.75.79,10.06,5.48.49,1.74.35,4.47-1.05,6.62-1.12,1.72-2.85,2.79-5,3.1-.06,0-.12.01-.18.01Z"/>
        </g>
        <g>
          <path class="cls-4" d="M109.32,45.14c-15.28-20.66-38.07-25.63-38.07-25.63,0,0-22.8,4.97-38.07,25.63-8.96,12.12-10.65,28.11-6.93,41.52,5,18.04,18.26,25.52,26.86,27.3,7.34,1.52,13.2.07,18.15.07s10.81,1.44,18.15-.07c8.59-1.78,21.85-9.26,26.86-27.3,3.72-13.41,2.03-29.4-6.93-41.52Z"/>
          <path d="M82.32,115.9c-2.27,0-4.38-.18-6.35-.35-1.67-.14-3.26-.28-4.72-.28s-3.05.13-4.72.28c-3.95.33-8.42.71-13.68-.38-10.25-2.12-22.94-10.64-27.81-28.19-4.16-15.01-1.5-30.93,7.13-42.6,15.38-20.8,37.86-25.9,38.81-26.11.18-.04.36-.04.53,0,.95.21,23.43,5.31,38.81,26.11h0c8.63,11.67,11.29,27.59,7.13,42.6-4.87,17.55-17.56,26.07-27.81,28.19-2.63.54-5.06.72-7.33.72ZM71.25,112.78c1.57,0,3.2.14,4.93.28,3.78.32,8.05.68,12.96-.33,9.53-1.97,21.34-9.94,25.9-26.41,3.9-14.06,1.32-29.55-6.73-40.44h0c-13.92-18.83-34.49-24.45-37.07-25.09-2.58.64-23.14,6.26-37.07,25.09-8.05,10.89-10.63,26.38-6.73,40.44,4.57,16.46,16.38,24.44,25.9,26.41,4.91,1.02,9.19.65,12.96.33,1.73-.15,3.36-.28,4.93-.28Z"/>
        </g>
        <path class="cls-10" d="M79.8,57.31s-2.25-.51-8.55-.51-8.55.51-8.55.51c0,0-.23,8.6,8.55,8.6s8.55-8.6,8.55-8.6Z"/>
        <path class="cls-3" d="M63.11,59.89c.9-.14,3.35-.43,8.13-.43s7.23.29,8.13.43l.05.07c.4-1.48.37-2.65.37-2.65,0,0-2.25-.51-8.55-.51s-8.55.51-8.55.51c0,0-.03,1.19.38,2.68l.04-.1Z"/>
        <path d="M71.25,66.79c-2.87,0-5.16-.86-6.8-2.55-2.71-2.78-2.63-6.78-2.63-6.95.01-.4.29-.74.68-.83.1-.02,2.42-.53,8.75-.53s8.65.51,8.75.53c.39.09.67.43.68.83,0,.17.08,4.17-2.63,6.95-1.65,1.69-3.93,2.55-6.8,2.55ZM63.6,58.05c.11,1.13.52,3.36,2.1,4.98,1.3,1.33,3.17,2.01,5.54,2.01s4.24-.68,5.54-2.01c1.58-1.62,2-3.85,2.1-4.98-1.08-.14-3.46-.37-7.64-.37s-6.56.23-7.64.37Z"/>
        <circle class="cls-6" cx="50" cy="59.73" r="7.11"/>
        <circle class="cls-6" cx="92.49" cy="59.73" r="7.11"/>
        <path d="M82.29,55.19c-.13,0-.27-.03-.39-.09l-5.4-2.74c-.29-.15-.48-.44-.48-.77,0-.33.17-.63.46-.78l5.4-2.88c.43-.23.96-.07,1.18.36s.07.96-.36,1.18l-3.92,2.09,3.9,1.98c.43.22.6.75.38,1.18-.15.3-.46.48-.78.48Z"/>
        <path d="M60.2,55.19c-.32,0-.63-.18-.78-.48-.22-.43-.05-.96.38-1.18l3.9-1.98-3.92-2.09c-.43-.23-.59-.76-.36-1.18.23-.43.75-.59,1.18-.36l5.4,2.88c.29.15.47.45.46.78,0,.33-.19.62-.48.77l-5.4,2.74c-.13.06-.26.09-.39.09Z"/>
      </g>
      <g>
        <rect class="cls-8" x="14.33" y="91.3" width="113.82" height="49.18"/>
        <path class="cls-9" d="M128.16,141.48H14.33c-.55,0-1-.45-1-1v-49.18c0-.55.45-1,1-1h113.82c.55,0,1,.45,1,1v49.18c0,.55-.45,1-1,1ZM15.33,139.48h111.82v-47.18H15.33v47.18Z"/>
      </g>
      <g>
        <rect class="cls-3" x="62.39" y="91.3" width="17.72" height="49.18"/>
        <path class="cls-9" d="M80.1,141.48h-17.72c-.55,0-1-.45-1-1v-49.18c0-.55.45-1,1-1h17.72c.55,0,1,.45,1,1v49.18c0,.55-.45,1-1,1ZM63.39,139.48h15.72v-47.18h-15.72v47.18Z"/>
      </g>
      <g>
        <g>
          <path class="cls-2" d="M117.98,76.59c-3.57-3.21-5.59-1.01-6.61,1.9-.36-3.07-1.85-5.66-6.06-3.22-4.15,2.4-2.75,4.95-.33,6.78-3-.58-5.89.08-4.94,4.78.95,4.74,3.91,4.16,6.46,2.4-1.52,2.69-1.85,5.65,2.95,6.17,4.88.53,5.16-2.51,4.22-5.48,2.1,2.3,4.88,3.58,6.9-.86,2.05-4.51-.82-5.67-3.99-5.66,2.91-1.28,5.07-3.51,1.41-6.8Z"/>
          <path class="cls-1" d="M110.48,96.33c-.36,0-.73-.02-1.13-.06-2.23-.24-3.7-1.02-4.36-2.3-.42-.81-.49-1.77-.22-2.86-1.07.36-2.05.38-2.89.04-1.35-.55-2.26-1.94-2.7-4.14-.44-2.2-.15-3.83.88-4.87.63-.64,1.52-1.01,2.62-1.1-.64-.86-.94-1.74-.88-2.63.09-1.45,1.12-2.75,3.08-3.88,1.96-1.13,3.62-1.38,4.92-.72.81.41,1.44,1.13,1.86,2.16.64-.92,1.41-1.49,2.3-1.72,1.41-.36,2.96.21,4.62,1.71h0c1.68,1.51,2.41,3,2.18,4.43-.15.91-.66,1.73-1.53,2.46,1.08.31,1.88.85,2.37,1.62.79,1.22.72,2.89-.22,4.96-.93,2.05-2.14,3.21-3.58,3.44-.9.14-1.85-.09-2.81-.68.03,1.13-.24,2.06-.83,2.77-.76.93-1.99,1.4-3.66,1.4ZM106.49,88.35c.21,0,.42.08.59.23.3.28.37.72.17,1.08-.85,1.49-1.1,2.74-.71,3.5.47.91,1.88,1.24,2.99,1.36,1.12.12,2.6.1,3.25-.7.55-.68.57-1.97.04-3.65-.12-.39.04-.82.4-1.02.36-.2.81-.14,1.08.17,1.18,1.3,2.3,1.94,3.2,1.8,1.03-.16,1.8-1.41,2.26-2.43.47-1.03.91-2.43.35-3.29-.48-.74-1.73-1.14-3.54-1.13-.44.04-.77-.29-.86-.69-.09-.41.12-.82.5-.98,1.67-.73,2.66-1.62,2.8-2.5.16-1.01-.79-2.11-1.62-2.86-.82-.74-2.01-1.57-3.01-1.31-.84.22-1.62,1.23-2.19,2.85-.13.39-.51.62-.92.58-.41-.04-.73-.36-.77-.77-.2-1.7-.73-2.85-1.5-3.24-.92-.46-2.28.11-3.25.68-.97.56-2.15,1.45-2.21,2.48-.05.84.65,1.85,1.96,2.85.32.25.44.68.27,1.05-.17.37-.56.58-.97.5-1.65-.32-2.9-.16-3.51.46-.73.74-.63,2.2-.41,3.29.22,1.09.68,2.47,1.64,2.86.81.33,2.04-.03,3.47-1.01.15-.1.32-.15.5-.15Z"/>
        </g>
        <g>
          <g>
            <path class="cls-3" d="M110.68,84.71c-.84-.66-1.47-1.49-2.05-2.37-.53-.75-1.28-1.82-1.78-2.57,0,0,.04-.03.04-.03.61.67,1.46,1.67,2.05,2.37.71.78,1.36,1.59,1.78,2.57,0,0-.04.03-.04.03h0Z"/>
            <path class="cls-3" d="M110.66,84.95s-.1-.01-.13-.04c-.92-.72-1.58-1.63-2.11-2.42-.43-.62-1.25-1.77-1.78-2.57-.07-.11-.05-.26.05-.34.1-.08.29-.1.38,0,.61.67,1.46,1.68,2.05,2.37.64.7,1.36,1.57,1.82,2.63.05.1.02.23-.08.3-.05.04-.13.07-.21.07Z"/>
          </g>
          <g>
            <path class="cls-3" d="M110.68,84.7c-.62-.87-.98-1.85-1.28-2.86-.29-.87-.7-2.11-.97-2.98l.04-.02c.39.82.91,2.02,1.28,2.86.45.95.84,1.92.97,2.98,0,0-.04.02-.04.02h0Z"/>
            <path class="cls-3" d="M110.7,84.94c-.09,0-.18-.03-.22-.09-.67-.95-1.04-2.01-1.32-2.93-.29-.86-.7-2.11-.97-2.98-.04-.13.03-.26.15-.31.12-.05.31,0,.36.11.37.77.85,1.88,1.29,2.86.41.86.85,1.89.99,3.05.01.11-.05.22-.16.26-.04.01-.08.02-.12.02Z"/>
          </g>
          <g>
            <path class="cls-7" d="M107.26,79.53c-.12-.21-.4-.29-.61-.16s-.29.4-.17.61.4.29.61.16.29-.4.17-.61Z"/>
            <path class="cls-7" d="M106.87,80.45c-.24,0-.47-.12-.6-.35-.19-.33-.08-.76.26-.95.33-.19.76-.08.95.25h0c.09.16.12.35.07.53-.05.18-.17.33-.33.43-.11.06-.23.09-.35.09ZM106.87,79.56s-.07,0-.1.03c-.09.05-.13.18-.07.27.05.09.17.12.27.07.05-.03.08-.07.09-.12.01-.05,0-.1-.02-.15h0c-.04-.06-.1-.1-.17-.1Z"/>
          </g>
          <g>
            <path class="cls-7" d="M108.83,78.62c-.12-.21-.4-.29-.61-.16s-.29.4-.17.61.4.29.61.16.29-.4.17-.61Z"/>
            <path class="cls-7" d="M108.44,79.54c-.24,0-.47-.12-.6-.35-.09-.16-.12-.35-.07-.53.05-.18.16-.33.33-.42.33-.19.76-.08.95.25h0c.19.33.08.76-.26.95-.11.06-.23.09-.35.09ZM108.44,78.65s-.07,0-.1.03c-.05.03-.08.07-.09.12-.01.05,0,.1.02.15.05.09.17.12.27.07.09-.05.13-.18.07-.27-.04-.06-.1-.1-.17-.1Z"/>
          </g>
        </g>
        <g>
          <g>
            <path class="cls-3" d="M110.68,84.68c.37-1.01.98-1.86,1.64-2.69.56-.74,1.35-1.78,1.92-2.5,0,0,.04.03.04.03-.46.78-1.15,1.9-1.64,2.69-.53.92-1.11,1.79-1.92,2.5,0,0-.04-.03-.04-.03h0Z"/>
            <path class="cls-3" d="M110.72,84.96s-.1-.01-.14-.04c-.09-.06-.17-.21-.13-.32.41-1.1,1.08-2.01,1.68-2.76.64-.85,1.37-1.81,1.92-2.49.08-.1.23-.12.34-.05.11.07.18.25.12.36-.43.74-1.08,1.78-1.65,2.69-.48.82-1.09,1.78-1.97,2.55-.05.04-.11.06-.17.06Z"/>
          </g>
          <g>
            <path class="cls-3" d="M110.69,84.67c.65-.86,1.47-1.51,2.34-2.11.75-.55,1.8-1.33,2.55-1.85,0,0,.03.04.03.04-.66.62-1.65,1.5-2.34,2.11-.77.73-1.58,1.4-2.55,1.85,0,0-.03-.04-.03-.04h0Z"/>
            <path class="cls-3" d="M110.72,84.96c-.07,0-.15-.03-.19-.09-.07-.09-.1-.25-.04-.34.7-.93,1.61-1.62,2.4-2.17.86-.63,1.84-1.35,2.55-1.85.11-.07.25-.05.34.05.08.1.1.29,0,.38-.64.6-1.54,1.4-2.35,2.12-.69.66-1.55,1.4-2.61,1.89-.03.02-.07.02-.11.02Z"/>
          </g>
          <g>
            <path class="cls-7" d="M114.6,79.81c.17-.18.15-.47-.03-.63-.18-.16-.47-.15-.63.03-.17.18-.15.47.03.63.18.16.47.15.63-.03Z"/>
            <path class="cls-7" d="M114.26,80.21c-.17,0-.33-.06-.47-.18-.14-.12-.22-.29-.23-.48,0-.19.05-.37.18-.5.26-.28.7-.31.98-.05.14.12.22.29.23.48,0,.19-.05.37-.18.5h0c-.14.15-.33.23-.52.23ZM114.27,79.32c-.05,0-.11.02-.15.07-.04.04-.05.09-.05.14,0,.05.02.1.06.13.08.07.21.07.28-.02.04-.04.05-.09.05-.14,0-.05-.03-.1-.06-.13-.04-.03-.08-.05-.13-.05Z"/>
          </g>
          <g>
            <path class="cls-7" d="M115.94,81.02c.17-.18.15-.47-.03-.63-.18-.16-.47-.15-.63.03-.17.18-.15.47.03.63.18.16.47.15.63-.03Z"/>
            <path class="cls-7" d="M115.61,81.42c-.17,0-.33-.06-.46-.18-.14-.12-.22-.29-.23-.48,0-.19.05-.37.18-.5.26-.29.7-.31.99-.05.14.12.22.29.23.48,0,.19-.05.37-.18.5h0c-.14.15-.33.23-.52.23ZM115.61,80.52c-.05,0-.11.02-.15.07-.04.04-.05.09-.05.14,0,.05.03.1.06.13.08.07.21.07.28-.02h0s.05-.09.05-.14c0-.05-.03-.1-.06-.13-.04-.03-.08-.05-.13-.05Z"/>
          </g>
        </g>
        <g>
          <g>
            <path class="cls-3" d="M110.71,84.67c1.07.04,2.07.34,3.06.72.87.3,2.11.72,2.96,1.04,0,0-.01.05-.01.05-.89-.19-2.16-.5-3.06-.72-1.03-.22-2.04-.5-2.96-1.04,0,0,.01-.05.01-.05h0Z"/>
            <path class="cls-3" d="M116.7,86.72s-.03,0-.04,0c-.87-.19-2.09-.48-3.07-.72-.93-.2-2.03-.48-3.03-1.07-.1-.06-.15-.18-.11-.29.03-.11.12-.24.26-.22,1.17.04,2.24.39,3.14.73,1.01.34,2.16.74,2.96,1.04.12.05.19.18.15.3-.03.12-.15.23-.27.23Z"/>
          </g>
          <g>
            <path class="cls-3" d="M110.71,84.67c1.01.34,1.88.92,2.72,1.56.75.54,1.81,1.29,2.54,1.84,0,0-.03.04-.03.04-.79-.43-1.93-1.1-2.72-1.56-.93-.5-1.81-1.06-2.54-1.84,0,0,.03-.04.03-.04h0Z"/>
            <path class="cls-3" d="M115.92,88.36s-.07,0-.09-.02c-.78-.43-1.86-1.06-2.72-1.56-.83-.45-1.8-1.03-2.59-1.89-.08-.08-.09-.21-.03-.3.06-.1.21-.18.32-.14,1.1.37,2.03,1.02,2.79,1.6.74.53,1.81,1.29,2.54,1.84.1.08.13.23.06.34-.05.08-.16.15-.26.15Z"/>
          </g>
          <g>
            <path class="cls-7" d="M116.54,86.86c.23.1.49,0,.59-.23.1-.23,0-.49-.22-.59-.23-.1-.49,0-.59.23-.1.23,0,.49.22.59Z"/>
            <path class="cls-7" d="M116.72,87.15c-.09,0-.19-.02-.28-.06h0c-.17-.08-.3-.21-.37-.39-.07-.17-.06-.36.02-.53.16-.35.57-.51.92-.35.17.08.3.21.37.39.07.17.06.36-.02.53-.12.26-.37.41-.64.41ZM116.64,86.63c.1.04.22,0,.26-.1.02-.05.02-.1,0-.15-.02-.05-.05-.09-.1-.11-.1-.04-.22,0-.26.1-.02.05-.02.1,0,.15.02.05.05.09.1.11h0Z"/>
          </g>
          <g>
            <path class="cls-7" d="M115.79,88.51c.23.1.49,0,.59-.23.1-.22,0-.49-.22-.59-.23-.1-.49,0-.59.23s0,.49.22.59Z"/>
            <path class="cls-7" d="M115.97,88.8c-.09,0-.19-.02-.28-.06-.17-.08-.3-.21-.37-.39-.07-.17-.06-.36.02-.53.16-.35.57-.51.92-.35.17.08.3.21.37.39.07.17.06.36-.02.53-.12.26-.37.41-.64.41ZM115.97,87.91c-.08,0-.15.04-.18.12-.02.05-.02.1,0,.15.02.05.05.09.1.11h0c.1.04.22,0,.26-.1.02-.05.02-.1,0-.15-.02-.05-.05-.09-.1-.11-.03-.01-.05-.02-.08-.02Z"/>
          </g>
        </g>
        <g>
          <g>
            <path class="cls-3" d="M110.73,84.69c.28,1.03.29,2.07.23,3.13-.02.92-.06,2.22-.1,3.13,0,0-.05,0-.05,0-.09-.9-.17-2.21-.23-3.13-.1-1.05-.14-2.09.1-3.13,0,0,.05,0,.05,0h0Z"/>
            <path class="cls-3" d="M110.86,91.2c-.13,0-.29-.1-.3-.23-.08-.84-.16-2-.23-3.13-.09-.94-.15-2.07.11-3.21.03-.11.12-.19.24-.19.09,0,.26.07.29.18.31,1.12.29,2.25.24,3.21-.03,1.12-.06,2.29-.1,3.13,0,.13-.11.23-.25.24h0Z"/>
          </g>
          <g>
            <path class="cls-3" d="M110.72,84.7c-.02,1.07-.32,2.07-.67,3.07-.29.88-.69,2.12-1,2.98,0,0-.05-.01-.05-.01.18-.89.47-2.17.67-3.07.2-1.04.47-2.05,1-2.98,0,0,.05.01.05.01h0Z"/>
            <path class="cls-3" d="M109.05,91s-.04,0-.07,0c-.13-.03-.25-.17-.23-.3.17-.86.45-2.1.68-3.08.18-.93.45-2.03,1.02-3.05.06-.1.18-.15.28-.12.11.03.23.15.23.26-.03,1.16-.36,2.24-.69,3.15-.33,1.01-.71,2.16-1,2.98-.04.1-.13.17-.24.17Z"/>
          </g>
          <g>
            <path class="cls-7" d="M110.39,90.9c-.03.25.15.47.39.49.25.03.47-.15.5-.4.03-.25-.15-.47-.39-.49-.25-.03-.47.15-.5.4Z"/>
            <path class="cls-7" d="M110.83,91.65s-.05,0-.08,0c-.19-.02-.35-.11-.47-.26-.12-.15-.17-.33-.15-.51.04-.38.39-.65.77-.62.19.02.35.11.47.26.12.15.17.33.15.51-.04.36-.34.62-.7.62ZM110.83,90.76c-.1,0-.19.08-.2.18h0c0,.05,0,.1.04.14.03.04.08.07.13.07.11.01.21-.07.22-.18,0-.05,0-.1-.04-.14-.03-.04-.08-.07-.13-.07,0,0-.01,0-.02,0Z"/>
          </g>
          <g>
            <path class="cls-7" d="M108.58,90.71c-.03.25.15.47.39.49.25.03.47-.15.5-.4.03-.24-.15-.47-.39-.49-.25-.03-.47.15-.5.4Z"/>
            <path class="cls-7" d="M109.02,91.45s-.05,0-.08,0c-.19-.02-.35-.11-.47-.26-.12-.15-.17-.33-.15-.51h0c.04-.38.4-.65.77-.62.19.02.35.11.47.26.12.15.17.33.15.51-.04.36-.34.62-.7.62ZM108.83,90.74c0,.05,0,.1.04.14.03.04.08.07.13.07.12.01.21-.07.22-.18,0-.05,0-.1-.04-.14-.03-.04-.08-.07-.13-.07-.09,0-.21.07-.22.18h0Z"/>
          </g>
        </g>
        <g>
          <g>
            <path class="cls-3" d="M110.71,84.72c-.9.59-1.89.93-2.91,1.2-.89.27-2.14.64-3.03.88,0,0-.02-.05-.02-.05.83-.36,2.06-.86,2.91-1.2.97-.43,1.96-.78,3.03-.88,0,0,.02.05.02.05h0Z"/>
            <path class="cls-3" d="M104.77,87.05c-.1,0-.2-.07-.24-.17-.04-.12,0-.3.12-.36.83-.36,2.07-.86,2.92-1.2.87-.38,1.93-.79,3.1-.9.11-.01.22.06.26.17.04.11.01.27-.08.34-.98.64-2.06.98-2.99,1.23-1.02.31-2.18.65-3.03.88-.02,0-.04,0-.07,0Z"/>
          </g>
          <g>
            <path class="cls-3" d="M110.7,84.72c-1.03.31-2.07.35-3.13.32-.93,0-2.23,0-3.15-.02,0,0,0-.05,0-.05.9-.11,2.21-.24,3.13-.32,1.05-.13,2.09-.2,3.15.02,0,0,0,.05,0,.05h0Z"/>
            <path class="cls-3" d="M108.12,85.3c-.19,0-.38,0-.56,0-1,0-2.26,0-3.15-.02-.13,0-.24-.11-.24-.24,0-.13.09-.29.22-.31.9-.11,2.22-.24,3.14-.32.95-.12,2.08-.21,3.22.02.11.02.2.12.2.23,0,.11-.07.26-.17.3-.91.28-1.82.34-2.65.34Z"/>
          </g>
          <g>
            <path class="cls-7" d="M104.67,86.34c-.24.05-.4.29-.35.53.05.24.28.4.53.35.24-.05.4-.29.35-.53-.05-.24-.28-.4-.53-.35Z"/>
            <path class="cls-7" d="M104.76,87.47c-.14,0-.27-.04-.38-.12-.15-.1-.26-.26-.29-.44-.08-.37.17-.74.54-.82h0c.18-.04.37,0,.53.1.16.1.26.26.3.44.08.37-.17.74-.55.82-.05,0-.1.01-.14.01ZM104.72,86.58c-.11.02-.18.13-.16.23,0,.05.04.09.08.12.04.03.1.04.15.03.11-.02.18-.13.16-.23,0-.05-.04-.09-.08-.12-.04-.03-.1-.04-.15-.03Z"/>
          </g>
          <g>
            <path class="cls-7" d="M104.32,84.56c-.24.05-.4.29-.35.53.05.24.28.4.53.35.24-.05.4-.29.35-.53-.05-.24-.28-.4-.53-.35Z"/>
            <path class="cls-7" d="M104.4,85.7c-.14,0-.27-.04-.38-.12-.16-.1-.26-.26-.3-.44-.08-.37.17-.74.55-.82.19-.04.37,0,.53.1.16.1.26.26.3.44.07.38-.17.74-.55.82-.05,0-.1.01-.14.01ZM104.41,84.81s-.03,0-.04,0h0c-.11.02-.18.13-.16.23,0,.05.04.09.08.12.04.03.1.04.15.03.11-.02.18-.13.16-.23,0-.05-.04-.09-.08-.12-.03-.02-.07-.03-.11-.03Z"/>
          </g>
        </g>
        <circle class="cls-5" cx="110.68" cy="84.64" r="2.52"/>
      </g>
      <g>
        <g>
          <path class="cls-2" d="M23.77,79.42c2.33-3.97,4.81-2.54,6.58-.18-.56-2.9.05-5.69,4.59-4.69,4.48.99,3.95,3.72,2.27,6.09,2.57-1.4,5.39-1.64,5.89,2.92.51,4.6-2.36,4.92-5.2,4.06,2.17,2.01,3.33,4.62-.9,6.48-4.3,1.9-5.43-.79-5.44-3.77-1.25,2.71-3.41,4.68-6.54,1.21-3.18-3.52-.89-5.41,2-6.32-3.02-.32-5.64-1.73-3.26-5.79Z"/>
          <path class="cls-1" d="M34.5,95.6c-.73,0-1.38-.18-1.93-.54-.73-.47-1.25-1.22-1.55-2.24-.7.79-1.49,1.27-2.34,1.4-1.4.21-2.84-.5-4.3-2.11-1.47-1.63-2.02-3.14-1.65-4.49.23-.83.78-1.55,1.65-2.15-.98-.41-1.67-1.01-2.06-1.79-.63-1.25-.4-2.84.7-4.71h0c1.09-1.85,2.35-2.83,3.75-2.91.87-.05,1.72.24,2.56.87.1-1.04.46-1.86,1.08-2.47,1.01-.98,2.6-1.24,4.73-.78,2.12.47,3.45,1.37,3.96,2.67.3.78.3,1.66-.02,2.62,1.02-.21,1.92-.13,2.67.26,1.25.65,2,2.07,2.24,4.21.24,2.15-.19,3.69-1.28,4.59-.65.54-1.52.81-2.57.81-.01,0-.03,0-.04,0,.54.9.74,1.78.59,2.64-.23,1.38-1.35,2.52-3.33,3.39-1.07.47-2.03.71-2.87.71ZM31.57,89.44c.06,0,.12,0,.19.02.4.09.69.44.69.85,0,1.67.39,2.83,1.08,3.28.82.53,2.15.13,3.13-.3.96-.43,2.15-1.13,2.31-2.08.13-.8-.45-1.85-1.65-2.96-.3-.28-.37-.72-.16-1.08.2-.35.62-.52,1.01-.4,1.57.48,2.79.45,3.42-.07.75-.62.77-2,.65-3.05-.12-1.05-.44-2.4-1.31-2.85-.72-.38-1.9-.16-3.3.6-.36.19-.8.12-1.07-.19-.27-.3-.3-.75-.06-1.09.91-1.28,1.25-2.4.96-3.13-.35-.9-1.66-1.37-2.7-1.6-1.04-.23-2.43-.36-3.13.32-.58.57-.73,1.76-.42,3.35.08.4-.13.8-.5.97-.37.17-.81.05-1.05-.27-.98-1.3-1.99-2-2.79-1.95-.97.06-1.81,1.15-2.34,2.05-.54.91-1.08,2.18-.65,3.04.38.75,1.53,1.26,3.25,1.44.41.04.74.37.78.78.04.41-.21.8-.61.92-1.64.51-2.66,1.24-2.88,2.03-.25.93.55,2.07,1.26,2.86.71.79,1.78,1.69,2.74,1.55.83-.13,1.67-1.03,2.36-2.54.15-.31.46-.51.79-.51Z"/>
        </g>
        <g>
          <g>
            <path class="cls-3" d="M32.78,84.71c.58-.84.91-1.78,1.18-2.75.27-.84.64-2.03.88-2.86,0,0-.04-.02-.04-.02-.36.79-.84,1.94-1.18,2.75-.42.92-.77,1.85-.88,2.86,0,0,.04.02.04.02h0Z"/>
            <path class="cls-3" d="M32.78,84.96s-.06,0-.09-.02l-.04-.02c-.11-.04-.17-.15-.16-.26.12-1.11.52-2.11.9-2.94.33-.79.82-1.95,1.18-2.75.05-.12.19-.18.31-.13.12.05.23.19.2.32-.23.79-.57,1.9-.88,2.87-.25.87-.59,1.9-1.22,2.82-.05.07-.12.11-.21.11Z"/>
          </g>
          <g>
            <path class="cls-3" d="M32.78,84.7c.31-.97.36-1.97.34-2.98.01-.88.03-2.13.02-2.99,0,0-.05,0-.05,0-.12.86-.25,2.1-.34,2.98-.14,1-.21,1.99-.02,3,0,0,.05,0,.05,0h0Z"/>
            <path class="cls-3" d="M32.78,84.95s0,0-.01,0h-.05c-.11,0-.21-.09-.23-.21-.21-1.09-.11-2.17.02-3.08.1-.94.23-2.13.34-2.97.02-.13.13-.22.26-.22.13,0,.28.12.28.25.01.86,0,2.05-.02,3,.01.91-.02,1.99-.35,3.05-.03.1-.13.17-.24.17ZM32.78,84.7h0,0Z"/>
          </g>
          <g>
            <path class="cls-7" d="M34.4,78.99c.05-.23.28-.38.51-.32s.38.28.33.51-.28.38-.51.32-.38-.28-.33-.51Z"/>
            <path class="cls-7" d="M34.82,79.76s-.1,0-.15-.02c-.37-.08-.6-.44-.52-.81h0c.08-.37.45-.6.81-.52.18.04.33.15.43.3.1.15.13.33.09.51-.07.32-.35.53-.66.53ZM34.65,79.05c-.02.09.04.19.14.21.1.02.19-.04.21-.13,0-.05,0-.09-.02-.13-.03-.04-.07-.07-.11-.08-.09-.02-.19.04-.21.13h0Z"/>
          </g>
          <g>
            <path class="cls-7" d="M32.7,78.62c.05-.23.28-.38.51-.32s.38.28.33.51-.28.38-.51.32-.38-.28-.33-.51Z"/>
            <path class="cls-7" d="M33.12,79.39s-.1,0-.15-.02c-.18-.04-.33-.15-.43-.3-.1-.15-.13-.33-.09-.51.08-.36.44-.59.81-.51.18.04.33.14.43.3.1.15.13.33.09.51-.07.32-.35.53-.66.53ZM33.12,78.54c-.08,0-.16.06-.17.14,0,.05,0,.09.02.13.03.04.07.07.11.08.1.02.19-.04.21-.13,0-.05,0-.09-.02-.13-.03-.04-.07-.07-.11-.08-.01,0-.03,0-.04,0Z"/>
          </g>
        </g>
        <g>
          <g>
            <path class="cls-3" d="M32.77,84.68c-.63-.81-1.43-1.41-2.28-1.97-.72-.51-1.75-1.23-2.47-1.72l-.03.04c.65.58,1.6,1.4,2.28,1.97.75.68,1.53,1.3,2.47,1.72,0,0,.03-.04.03-.04h0Z"/>
            <path class="cls-3" d="M32.74,84.97s-.07,0-.1-.02c-1.02-.45-1.86-1.14-2.54-1.76-.78-.66-1.66-1.42-2.28-1.97-.1-.09-.11-.24-.03-.34.08-.1.26-.16.36-.09.73.49,1.77,1.22,2.48,1.72.76.5,1.64,1.14,2.33,2.02.07.09.07.22,0,.31l-.03.04c-.05.06-.12.1-.2.1Z"/>
          </g>
          <g>
            <path class="cls-3" d="M32.77,84.68c-.84-.6-1.78-.95-2.75-1.24-.84-.29-2.03-.69-2.86-.94,0,0-.02.04-.02.04.79.37,1.94.89,2.75,1.24.91.44,1.84.82,2.86.94,0,0,.02-.04.02-.04h0Z"/>
            <path class="cls-3" d="M32.75,84.97s-.02,0-.03,0c-1.11-.14-2.11-.57-2.94-.97-.79-.35-1.95-.87-2.75-1.24-.12-.06-.17-.19-.13-.32.05-.12.2-.23.32-.19.8.25,1.9.62,2.87.95.88.27,1.9.63,2.81,1.28.09.07.13.19.09.29l-.02.04c-.04.1-.13.16-.23.16Z"/>
          </g>
          <g>
            <path class="cls-7" d="M27.79,81.38c-.21-.12-.27-.38-.16-.58.12-.2.38-.27.59-.15.21.12.27.38.16.58-.12.2-.38.27-.59.15Z"/>
            <path class="cls-7" d="M28.01,81.68c-.12,0-.23-.03-.34-.09h0c-.16-.09-.27-.24-.32-.41-.05-.17-.02-.36.07-.51.19-.32.6-.43.93-.24.16.09.27.24.32.41.05.17.02.36-.07.51-.13.21-.35.33-.59.33ZM27.92,81.16c.08.05.19.02.25-.06.02-.04.03-.09.02-.13-.01-.05-.04-.08-.08-.11-.08-.05-.2-.02-.25.06-.02.04-.03.09-.02.13.01.05.04.08.08.11h0Z"/>
          </g>
          <g>
            <path class="cls-7" d="M26.91,82.87c-.21-.12-.27-.38-.16-.58.12-.2.38-.27.59-.15.2.12.27.38.16.58-.12.2-.38.27-.59.15Z"/>
            <path class="cls-7" d="M27.13,83.18c-.12,0-.23-.03-.34-.09-.16-.09-.27-.24-.32-.41-.05-.17-.02-.36.07-.51.19-.32.61-.43.93-.24.16.09.27.24.32.41.05.17.02.36-.07.51-.13.21-.35.33-.59.33ZM27.13,82.32c-.06,0-.12.03-.15.09-.02.04-.03.09-.02.13.01.05.04.08.08.11.08.05.2.02.25-.06.02-.04.03-.09.02-.13-.01-.05-.04-.08-.08-.11-.03-.02-.06-.02-.09-.02Z"/>
          </g>
        </g>
        <g>
          <g>
            <path class="cls-3" d="M32.74,84.68c-.97.35-1.79.91-2.58,1.54-.71.53-1.71,1.27-2.4,1.81,0,0,.03.04.03.04.75-.43,1.83-1.08,2.58-1.54.88-.5,1.72-1.05,2.4-1.81,0,0-.03-.04-.03-.04h0Z"/>
            <path class="cls-3" d="M27.79,88.32c-.08,0-.16-.04-.21-.11-.07-.11-.07-.29.03-.37.67-.52,1.64-1.24,2.41-1.81.71-.56,1.59-1.2,2.64-1.58.11-.04.23,0,.29.1l.03.04c.06.09.05.22-.02.31-.75.83-1.66,1.41-2.46,1.86-.74.45-1.83,1.11-2.58,1.54-.04.02-.08.03-.12.03Z"/>
          </g>
          <g>
            <path class="cls-3" d="M32.74,84.68c-.82.61-1.45,1.38-2.03,2.21-.53.71-1.28,1.7-1.78,2.42l.04.03c.6-.63,1.44-1.56,2.03-2.21.7-.73,1.34-1.49,1.78-2.42,0,0-.04-.03-.04-.03h0Z"/>
            <path class="cls-3" d="M28.97,89.59c-.06,0-.11-.02-.16-.06-.1-.08-.16-.26-.08-.37.49-.69,1.21-1.66,1.78-2.42.52-.74,1.18-1.6,2.08-2.26.09-.07.22-.06.31,0l.04.03c.09.07.11.2.07.3-.48,1.01-1.19,1.82-1.82,2.48-.68.76-1.46,1.62-2.03,2.21-.05.05-.11.08-.18.08Z"/>
          </g>
          <g>
            <path class="cls-7" d="M28.06,88.37c-.18.16-.45.14-.61-.03-.16-.18-.14-.45.03-.6.18-.16.45-.14.61.03.16.18.14.45-.03.6Z"/>
            <path class="cls-7" d="M27.78,88.72c-.19,0-.37-.08-.51-.22-.12-.13-.18-.31-.17-.49,0-.18.09-.35.22-.47.28-.25.71-.22.96.05.12.13.18.31.17.49,0,.18-.09.35-.22.47h0c-.13.11-.29.17-.45.17ZM27.78,87.87s-.09.01-.12.05c-.03.03-.05.07-.06.12,0,.05.01.09.05.13.07.07.18.08.25.01.04-.03.05-.07.06-.12,0-.05-.01-.09-.05-.13-.04-.04-.08-.06-.13-.06Z"/>
          </g>
          <g>
            <path class="cls-7" d="M29.23,89.66c-.18.16-.45.14-.61-.03-.16-.18-.14-.45.03-.6.18-.16.45-.14.61.03s.14.45-.03.6Z"/>
            <path class="cls-7" d="M28.94,90.01c-.19,0-.37-.08-.51-.22-.12-.14-.18-.31-.17-.49,0-.18.09-.35.22-.47.28-.25.71-.22.96.05.12.13.18.31.17.49,0,.18-.09.35-.23.47-.13.11-.29.17-.45.17ZM28.94,89.16s-.09.02-.12.05c-.03.03-.06.07-.06.12,0,.05.01.09.04.13.07.07.18.08.25.02h0s.06-.07.06-.12c0-.05-.01-.09-.05-.13-.04-.04-.08-.06-.13-.06Z"/>
          </g>
        </g>
        <g>
          <g>
            <path class="cls-3" d="M32.74,84.71c.04,1.02.33,1.98.69,2.92.29.83.7,2.01,1,2.83,0,0,.04-.01.04-.01-.18-.85-.48-2.07-.69-2.92-.21-.99-.48-1.95-1-2.83,0,0-.04.01-.04.01h0Z"/>
            <path class="cls-3" d="M34.46,90.69c-.11,0-.23-.05-.26-.15-.3-.8-.7-1.93-1.01-2.83-.32-.85-.66-1.87-.71-2.99,0-.11.07-.22.18-.25h.04c.11-.05.23,0,.29.1.57.96.84,2.01,1.03,2.9.23.92.51,2.09.69,2.92.03.13-.05.26-.17.29-.03,0-.05.01-.08.01Z"/>
          </g>
          <g>
            <path class="cls-3" d="M32.74,84.71c.33.97.89,1.8,1.5,2.6.52.72,1.25,1.73,1.77,2.43,0,0,.04-.03.04-.03-.42-.76-1.06-1.84-1.5-2.6-.49-.89-1.02-1.73-1.77-2.43,0,0-.04.03-.04.03h0Z"/>
            <path class="cls-3" d="M36.01,89.97c-.08,0-.15-.03-.2-.08-.41-.53-.99-1.33-1.78-2.43-.55-.72-1.17-1.61-1.54-2.67-.04-.11,0-.23.1-.29l.04-.03c.1-.06.22-.05.31.03.82.76,1.38,1.68,1.82,2.49.52.88,1.11,1.88,1.5,2.6.06.11.03.26-.08.33-.05.03-.12.05-.18.05Z"/>
          </g>
          <g>
            <path class="cls-7" d="M34.85,90.27c.1.22,0,.47-.22.56-.22.1-.47,0-.57-.22-.1-.22,0-.47.22-.56.22-.1.47,0,.57.22Z"/>
            <path class="cls-7" d="M34.46,91.12c-.26,0-.51-.15-.62-.4-.07-.17-.08-.35-.01-.52.07-.17.19-.3.36-.38.34-.15.74,0,.9.34h0c.07.17.08.35.01.52-.06.17-.19.3-.36.38-.09.04-.18.06-.27.06ZM34.45,90.27s-.05,0-.07.02c-.04.02-.08.05-.09.1-.02.04-.01.09,0,.13.04.09.14.13.24.09.04-.02.08-.05.09-.1.02-.04.02-.09,0-.13h0c-.03-.07-.1-.11-.17-.11Z"/>
          </g>
          <g>
            <path class="cls-7" d="M36.44,89.57c.1.22,0,.47-.22.56-.22.1-.47,0-.57-.22-.1-.22,0-.47.22-.56.22-.1.47,0,.57.22Z"/>
            <path class="cls-7" d="M36.05,90.42c-.26,0-.51-.15-.62-.4-.07-.16-.08-.35-.01-.52.06-.17.19-.3.36-.38.35-.15.75,0,.9.34h0c.07.17.08.35.01.52-.06.17-.19.3-.36.38-.09.04-.18.06-.27.06ZM36.04,89.57s-.05,0-.07.02c-.04.02-.08.05-.09.1-.02.04-.02.09,0,.13.04.09.14.13.24.09.04-.02.08-.05.09-.1.02-.04.02-.09,0-.13-.03-.07-.1-.11-.17-.11Z"/>
          </g>
        </g>
        <g>
          <g>
            <path class="cls-3" d="M32.76,84.72c.99.28,1.99.3,3.01.25.89-.01,2.14-.04,3.02-.07v-.05c-.86-.09-2.12-.18-3-.25-1.01-.11-2.01-.15-3.02.07,0,0,0,.05,0,.05h0Z"/>
            <path class="cls-3" d="M34.96,85.24c-.72,0-1.5-.06-2.28-.28-.11-.03-.19-.14-.18-.25v-.05c0-.11.09-.21.2-.23,1.09-.24,2.18-.18,3.09-.08.95.07,2.16.16,3,.25.13.01.23.12.22.25,0,.13-.11.28-.24.29-.84.04-2,.06-3.02.07-.25.01-.52.02-.8.02Z"/>
          </g>
          <g>
            <path class="cls-3" d="M32.76,84.72c1.03-.01,1.99-.28,2.95-.62.85-.27,2.04-.64,2.87-.93,0,0-.01-.04-.01-.04-.85.16-2.09.43-2.95.62-1,.18-1.97.43-2.87.93,0,0,.01.04.01.04h0Z"/>
            <path class="cls-3" d="M32.76,84.97c-.11,0-.21-.08-.24-.19v-.04c-.04-.11,0-.23.11-.28.98-.54,2.04-.79,2.94-.95.93-.2,2.11-.46,2.95-.62.14-.02.25.06.29.18s-.03.3-.15.34c-.79.27-1.89.62-2.87.93-.86.3-1.9.61-3.02.63h0Z"/>
          </g>
          <g>
            <path class="cls-7" d="M38.73,84.45c.24-.02.45.14.47.38.03.23-.14.44-.38.47-.24.02-.45-.14-.47-.38-.03-.23.14-.44.38-.47Z"/>
            <path class="cls-7" d="M38.78,85.55c-.34,0-.64-.26-.68-.6-.02-.18.03-.36.15-.5.11-.14.28-.23.46-.25h0c.37-.04.71.23.75.6.02.18-.03.35-.14.49-.11.14-.28.23-.46.25-.02,0-.05,0-.07,0ZM38.76,84.7h0s-.09.03-.12.07c-.03.04-.04.08-.04.13,0,.1.1.16.2.16.05,0,.09-.03.12-.07.03-.04.04-.08.04-.13-.01-.1-.11-.17-.2-.16Z"/>
          </g>
          <g>
            <path class="cls-7" d="M38.54,82.73c.24-.02.45.15.47.38.03.23-.14.44-.38.47-.24.02-.45-.15-.47-.38-.03-.23.14-.44.38-.47Z"/>
            <path class="cls-7" d="M38.59,83.83c-.34,0-.64-.26-.68-.6-.02-.18.03-.36.15-.5.11-.14.28-.23.46-.25.36-.04.71.23.75.6.02.18-.03.36-.15.5-.11.14-.28.23-.46.25-.02,0-.05,0-.07,0ZM38.59,82.98s-.01,0-.02,0h0s-.09.03-.12.07c-.03.04-.04.08-.04.13,0,.1.1.16.2.16.05,0,.09-.03.12-.07.03-.04.04-.08.04-.13,0-.09-.09-.16-.18-.16Z"/>
          </g>
        </g>
        <circle class="cls-5" cx="32.76" cy="84.64" r="2.41"/>
      </g>
    </g>
  </g>
</svg>