<?xml version="1.0" encoding="UTF-8"?>
<svg id="Layer_2" data-name="Layer 2" xmlns="http://www.w3.org/2000/svg" viewBox="0 0 163.27 142.04">
  <defs>
    <style>
      .cls-1 {
        fill: #d46974;
      }

      .cls-2 {
        fill: #f5b2b2;
      }

      .cls-3 {
        fill: #fff;
      }

      .cls-4 {
        fill: #90de63;
      }

      .cls-5 {
        fill: #f6977e;
      }

      .cls-6 {
        fill: #a52249;
      }
    </style>
  </defs>
  <g id="_디자인" data-name="디자인">
    <g>
      <g>
        <path class="cls-2" d="M153.23,56.03c-6.52.19-8.85-7.62-2.25-10.62,5.5-2.5,7.3-4.71,7.3-4.71,0,0,7.85,11.87,1.87,16.28-4,2.95-6.91-.95-6.91-.95Z"/>
        <path class="cls-1" d="M157.12,58.96c-1.89,0-3.43-1.07-4.3-2.05-3.72-.07-5.94-2.45-6.5-4.87-.7-3.01.99-5.92,4.3-7.43,5.19-2.36,6.97-4.45,6.99-4.47.18-.21.45-.33.72-.31.28.02.53.16.68.39.34.51,8.24,12.62,1.66,17.47-1.26.93-2.46,1.28-3.54,1.28ZM153.92,55.5c.25.33,2.52,3.11,5.7.77,4.36-3.21.08-11.43-1.53-14.18-1.04.91-3.13,2.46-6.76,4.11-3.06,1.39-3.72,3.72-3.32,5.44.42,1.81,2.18,3.59,5.19,3.51.29-.01.55.12.73.35ZM153.23,56.03h0,0Z"/>
      </g>
      <g>
        <path class="cls-2" d="M18.33,5.66c3.61-5.43,11.34-2.82,9.97,4.3-1.14,5.93-.38,8.68-.38,8.68,0,0-14.23-.46-14.37-7.88-.09-4.97,4.77-5.09,4.77-5.09Z"/>
        <path class="cls-1" d="M27.93,19.51s-.02,0-.03,0c-.61-.02-15.06-.58-15.21-8.74-.08-4.28,3.12-5.73,5.17-5.95,2.21-3,5.44-3.43,7.73-2.49,2.86,1.17,4.26,4.23,3.58,7.8-1.07,5.6-.4,8.26-.39,8.28.07.27.01.55-.16.77-.17.21-.42.33-.68.33ZM18.36,6.53c-.41.01-4,.25-3.92,4.2.1,5.41,9.28,6.68,12.45,6.95-.14-1.38-.2-3.97.55-7.89.63-3.3-.89-5.19-2.52-5.85-1.73-.71-4.21-.3-5.87,2.2-.16.24-.42.38-.7.39ZM18.33,5.66h0,0Z"/>
      </g>
      <g>
        <path class="cls-2" d="M9.85,99.68c6.5.5,9.2-7.2,2.76-10.51-5.37-2.76-7.07-5.05-7.07-5.05,0,0-8.41,11.49-2.64,16.17,3.86,3.13,6.95-.62,6.95-.62Z"/>
        <path class="cls-1" d="M6.06,102.43c-1.15,0-2.41-.39-3.71-1.45-6.34-5.15,2.12-16.87,2.49-17.37.16-.22.43-.36.7-.36h0c.28,0,.54.13.7.35.01.02,1.69,2.19,6.76,4.79,3.24,1.66,4.78,4.65,3.94,7.62-.68,2.39-2.98,4.66-6.73,4.56-.88.9-2.37,1.85-4.16,1.85ZM5.65,85.53c-1.74,2.67-6.4,10.68-2.2,14.09,3.07,2.49,5.46-.19,5.73-.5.18-.22.46-.34.74-.31,3,.23,4.84-1.47,5.35-3.26.48-1.7-.07-4.06-3.06-5.59-3.55-1.82-5.56-3.47-6.56-4.43Z"/>
      </g>
      <g>
        <g>
          <path class="cls-3" d="M23.4,118.71c3.93,4.86,8.15,6.08,11.55,4.6,5.37-2.34,17.43-13,20.66-17.43,2.92-4-5.26-13.58-9.15-9.46-8.76,9.27-16.23,12.8-16.23,12.8,0,0-3.88-2.93-7.7.76-2.25,2.18-1.99,5.18.88,8.73Z"/>
          <path d="M32.1,125.16c-3.28,0-6.67-1.95-9.68-5.66-4.41-5.45-2.38-8.87-.78-10.42,3.19-3.09,6.72-2.37,8.64-1.31,1.92-1.04,8.19-4.74,15.26-12.22,1.93-2.04,4.89-1.84,7.73.52,3.3,2.75,5.52,7.56,3.34,10.54-3.22,4.42-15.36,15.31-21.17,17.84-1.09.47-2.21.71-3.34.71ZM26.79,109.35c-1.01,0-2.2.36-3.41,1.52-1.76,1.7-1.42,4.07.98,7.05h0c3.28,4.05,6.95,5.6,10.08,4.24,5.22-2.27,17.16-12.93,20.15-17.02,1.1-1.51-.32-4.98-2.92-7.15-.84-.7-2.94-2.17-4.31-.72-8.82,9.33-16.29,12.92-16.61,13.07-.42.2-.92.15-1.29-.13-.18-.13-1.24-.86-2.68-.86Z"/>
        </g>
        <path d="M31.83,111.78c-.33,0-.65-.13-.9-.38-.6-.62-1.38-1.13-1.39-1.13-.58-.37-.75-1.15-.37-1.73.38-.58,1.15-.75,1.73-.37.04.03,1.02.66,1.83,1.5.48.5.46,1.29-.03,1.77-.24.23-.56.35-.87.35Z"/>
        <g>
          <path class="cls-3" d="M82.02,140.72c-6.23.52-10.02-1.68-11.3-5.17-2.02-5.49-2.65-21.59-1.68-26.98.88-4.88,13.45-5.59,13.17.07-.64,12.74,1.97,20.58,1.97,20.58,0,0,4.8.78,4.77,6.1-.02,3.13-2.37,5.02-6.92,5.4Z"/>
          <path d="M80.27,142.04c-5.43,0-9.29-2.16-10.73-6.06-2.19-5.95-2.71-22.25-1.74-27.63.65-3.64,5.66-5.35,9.93-4.87,3.67.42,5.86,2.42,5.72,5.23-.52,10.32,1.14,17.38,1.71,19.47,2.09.65,5.05,2.7,5.03,7.15-.01,2.23-1.08,6.05-8.07,6.64h0c-.64.05-1.26.08-1.86.08ZM82.02,140.72h0,0ZM76.3,105.9c-2.97,0-5.74,1.26-6.03,2.89-.9,4.99-.34,20.98,1.62,26.33,1.18,3.2,4.84,4.79,10.03,4.36,3.82-.32,5.76-1.72,5.77-4.16.02-4.07-3.35-4.79-3.73-4.86-.45-.08-.83-.4-.98-.84-.11-.33-2.67-8.21-2.03-21.04.1-1.99-2.42-2.49-3.5-2.62-.38-.04-.77-.06-1.15-.06Z"/>
        </g>
        <path d="M84.17,130.47c-.1,0-.19-.01-.29-.03,0,0-.91-.21-1.78-.22-.69,0-1.25-.57-1.24-1.26,0-.69.56-1.24,1.25-1.24h0c1.16,0,2.3.28,2.35.29.67.16,1.08.83.92,1.51-.14.57-.65.96-1.21.96Z"/>
        <g>
          <path class="cls-3" d="M21.08,30.16c-4.45,2.33-3.55,8.14-2.66,11.03,4.15,13.48,15.64,19.65,16.77,20.03l4.82-5.86s-4.14-3.35-6.77-12.46c-1.07-3.72-1.33-7.48-3.19-10.23-1.9-2.82-6-4.06-8.97-2.51Z"/>
          <path d="M35.19,62.47c-.13,0-.27-.02-.4-.06-1.93-.65-13.38-7.23-17.57-20.85-.67-2.18-2.42-9.53,3.28-12.51h0c3.45-1.81,8.3-.47,10.58,2.92,1.41,2.09,1.96,4.58,2.53,7.21.24,1.11.5,2.26.82,3.38,2.47,8.54,6.32,11.8,6.36,11.83.53.44.61,1.23.17,1.76l-4.82,5.86c-.24.29-.6.46-.97.46ZM23.93,30.74c-.8,0-1.58.17-2.27.53h0c-3.99,2.09-2.57,7.84-2.05,9.56,3.58,11.62,12.61,17.37,15.25,18.83l3.46-4.21c-1.44-1.56-4.29-5.31-6.28-12.2-.35-1.2-.61-2.39-.86-3.53-.52-2.39-1.02-4.65-2.17-6.35-1.11-1.65-3.15-2.63-5.08-2.63ZM21.08,30.16h0,0Z"/>
        </g>
        <g>
          <path class="cls-3" d="M146.63,78.03c1.77,4.7-2.77,8.44-5.36,10-12.07,7.3-24.75,4.25-25.85,3.78l.31-7.58s5.32.25,13.34-4.79c3.28-2.06,5.97-4.69,9.19-5.51s7.18.96,8.36,4.1Z"/>
          <path d="M123.47,94.11c-4.43,0-7.67-.78-8.54-1.15-.48-.2-.78-.68-.75-1.2l.31-7.58c.01-.33.16-.65.41-.87.25-.22.57-.34.9-.33.05,0,5.09.13,12.62-4.6.99-.62,1.94-1.31,2.86-1.98,2.18-1.58,4.24-3.07,6.69-3.69,3.96-1.01,8.47,1.22,9.84,4.87h0c2.26,6.01-3.93,10.33-5.88,11.52-6.55,3.96-13.31,5.01-18.45,5.01ZM116.71,90.86c2.93.67,13.51,2.39,23.91-3.9,1.54-.93,6.42-4.29,4.84-8.49h0c-.93-2.47-4.14-4.02-6.88-3.33-1.99.51-3.86,1.86-5.84,3.29-.95.69-1.94,1.4-3,2.07-6.07,3.82-10.69,4.72-12.81,4.92l-.22,5.44Z"/>
        </g>
        <g>
          <path class="cls-4" d="M121.26,63.37c-6.69-24.81-26.11-37.75-26.11-37.75,0,0-23.04-3.68-44.8,9.98-12.76,8.02-20.17,22.29-21.59,36.13-1.92,18.62,7.7,30.42,15.06,35.21,6.28,4.09,12.27,4.88,16.87,6.69,4.6,1.8,9.54,5.29,16.93,6.55,8.65,1.48,23.72-.66,34.96-15.63,8.35-11.13,12.61-26.63,8.68-41.19Z"/>
          <path d="M82.63,121.84c-1.83,0-3.58-.15-5.22-.43-5.3-.91-9.33-2.89-12.88-4.64-1.51-.74-2.93-1.44-4.3-1.98-1.36-.53-2.88-.99-4.5-1.46-3.79-1.13-8.09-2.4-12.6-5.34-8.77-5.71-17.48-18.27-15.62-36.38,1.59-15.49,9.88-29.35,22.17-37.07,21.91-13.76,44.7-10.31,45.66-10.16.18.03.35.09.5.19.81.54,19.88,13.49,26.62,38.46,3.78,14.01.46,29.81-8.89,42.26-9.2,12.26-21.22,16.54-30.95,16.54ZM87.84,26.44c-8.38,0-22.94,1.5-36.82,10.23-11.47,7.2-19.52,20.69-21.01,35.2-1.75,16.99,6.34,28.72,14.5,34.03,4.2,2.74,8.32,3.96,11.95,5.04,1.66.49,3.23.96,4.7,1.53,1.46.57,2.93,1.3,4.49,2.06,3.4,1.67,7.25,3.57,12.19,4.42,9.59,1.64,23.49-1.48,33.75-15.14,8.76-11.67,12-27.04,8.48-40.11h0c-6.1-22.61-23.2-35.34-25.37-36.88-.79-.1-3.25-.38-6.84-.38Z"/>
        </g>
        <path class="cls-6" d="M89.34,63.93s-1.91-1.29-7.78-3.59-8.15-2.65-8.15-2.65c0,0-3.35,7.93,4.83,11.13,8.18,3.2,11.1-4.89,11.1-4.89Z"/>
        <path class="cls-3" d="M72.86,60.25c.89.2,3.28.82,7.73,2.56s6.62,2.91,7.41,3.37l.02.08c.91-1.23,1.31-2.33,1.31-2.33,0,0-1.91-1.29-7.78-3.59-5.87-2.3-8.15-2.65-8.15-2.65,0,0-.46,1.1-.62,2.64l.08-.08Z"/>
        <path d="M81.88,70.45c-1.25,0-2.57-.27-3.96-.81-2.67-1.05-4.49-2.68-5.41-4.85-1.51-3.58.02-7.28.09-7.43.16-.37.53-.58.94-.52.1.01,2.44.39,8.34,2.7,5.89,2.31,7.87,3.63,7.95,3.68.33.22.47.65.33,1.02-.06.16-1.45,3.91-4.98,5.52-1.04.47-2.14.7-3.31.7ZM73.99,58.71c-.31,1.09-.74,3.32.14,5.4.73,1.72,2.22,3.03,4.43,3.89,2.21.86,4.19.91,5.89.15,2.06-.93,3.26-2.86,3.77-3.87-.95-.53-3.08-1.61-6.98-3.13-3.9-1.53-6.19-2.18-7.25-2.44Z"/>
        <circle class="cls-5" cx="60.7" cy="55.32" r="7.11"/>
        <circle class="cls-5" cx="100.28" cy="70.82" r="7.11"/>
        <path d="M93.8,63.16c-.22,0-.43-.08-.6-.24l-4.8-4.59c-.23-.22-.32-.55-.24-.86.08-.31.33-.55.64-.62l6.84-1.65c.46-.11.94.17,1.06.65.11.47-.18.94-.65,1.06l-5.29,1.28,3.64,3.48c.35.33.36.89.03,1.24-.17.18-.4.27-.63.27Z"/>
        <path d="M71.83,54.99c-.46,0-.85-.36-.87-.83-.02-.48.35-.89.83-.92l5.03-.25-3.17-4.42c-.28-.39-.19-.94.2-1.22.39-.28.94-.19,1.22.2l4.1,5.73c.19.26.21.6.08.89-.14.29-.42.48-.74.49l-6.63.33s-.03,0-.04,0Z"/>
        <path d="M86.59,89.03c-4.64,0-9.51-.77-14.34-2.39-18.85-6.31-30.24-23.21-25.4-37.67,4.84-14.46,24.11-21.1,42.96-14.79,18.85,6.31,30.24,23.21,25.4,37.67h0c-3.6,10.75-15.17,17.18-28.61,17.18ZM75.4,34.28c-12.37,0-22.94,5.77-26.19,15.48-4.4,13.16,6.28,28.64,23.82,34.51,17.54,5.87,35.39-.06,39.79-13.22,4.4-13.16-6.28-28.64-23.82-34.51-4.6-1.54-9.21-2.27-13.61-2.27ZM114.02,71.45h0,0Z"/>
        <g>
          <path class="cls-2" d="M142.08,64.12c1.05-16.34-10.14-25.98-24.69-26.96,5.34-13.56,1.41-27.81-13.81-33.85-15.21-6.04-27.83,1.62-33.25,15.14-11.25-9.25-25.99-9.92-36.44,2.68-10.44,12.6-7.06,26.97,4.12,36.3-12.28,7.83-17.47,21.65-8.71,35.48,8.75,13.83,23.46,15.05,35.8,7.31,3.65,14.1,15.19,23.31,31.05,19.26,15.86-4.05,21.57-17.66,18.02-31.79,14.54.88,26.86-7.24,27.91-23.57ZM106.92,70.07c-5.01,12.61-20.45,18.32-34.48,12.75-14.04-5.57-21.36-20.31-16.35-32.93,5.01-12.61,20.45-18.32,34.48-12.75,14.04,5.57,21.36,20.31,16.35,32.93Z"/>
          <path class="cls-1" d="M88.96,121.66c-11.49,0-20.83-7.21-24.62-19.54-13.56,7.7-27.91,4.38-36.1-8.55-8.18-12.92-5.04-27.32,7.72-36.28-11.52-10.52-12.79-25.19-3.03-36.97,9.76-11.78,24.42-13.24,36.89-3.87,6.44-14.21,20.01-19.96,34.22-14.31,14.23,5.65,20.15,19.14,15.08,33.91,15.52,1.74,25.18,12.87,24.2,28.14-.97,15.07-11.71,24.81-26.98,24.81-.2,0-.4,0-.6,0,3.13,15.28-4.47,27.9-19.29,31.68-2.57.66-5.09.98-7.5.98ZM65.1,98.97c.16,0,.31.03.46.09.37.15.65.46.75.85,3.83,14.76,15.42,21.96,29.53,18.36,14.11-3.6,20.83-15.49,17.11-30.27-.1-.39,0-.8.25-1.1.25-.31.64-.47,1.04-.45,15.21.93,25.65-7.87,26.59-22.41h0c.94-14.55-8.3-24.61-23.52-25.63-.4-.03-.76-.24-.97-.58-.21-.34-.25-.76-.11-1.13,5.59-14.2.45-26.85-13.1-32.23-13.54-5.38-25.96.3-31.63,14.44-.15.37-.46.65-.85.75-.39.1-.8,0-1.1-.25-11.77-9.69-25.38-8.7-34.68,2.51-9.29,11.21-7.74,24.77,3.96,34.55.31.26.47.64.45,1.04s-.24.76-.57.97c-12.85,8.2-16.12,21.45-8.33,33.76,7.79,12.31,21.17,15.02,34.08,6.92.2-.13.43-.19.67-.19ZM83.44,86.2c-3.78,0-7.67-.71-11.46-2.22-14.66-5.82-22.3-21.32-17.05-34.55,2.55-6.43,7.73-11.37,14.58-13.91,6.8-2.52,14.45-2.35,21.52.45,14.66,5.82,22.3,21.32,17.05,34.55h0c-3.9,9.81-13.81,15.67-24.65,15.67ZM79.54,36.25c-3.14,0-6.23.54-9.16,1.62-6.18,2.28-10.84,6.72-13.13,12.48-4.75,11.95,2.28,26,15.65,31.31,13.37,5.31,28.11-.1,32.86-12.05h0c4.75-11.95-2.28-26-15.65-31.31-3.45-1.37-7.04-2.05-10.57-2.05ZM106.92,70.07h0,0Z"/>
        </g>
      </g>
      <path class="cls-1" d="M90.58,38.02c-.09,0-.18-.01-.27-.04-.46-.15-.71-.64-.57-1.1.11-.33,2.59-8.08,4.65-11.69.24-.42.77-.56,1.19-.33.42.24.57.77.33,1.19-1.97,3.45-4.48,11.28-4.5,11.36-.12.37-.46.61-.83.61Z"/>
      <path class="cls-1" d="M108.45,64.25c-.44,0-.82-.33-.87-.77-.06-.48.29-.91.77-.97.43-.05,10.58-1.22,16.02-.65.48.05.83.48.78.96-.05.48-.49.83-.96.78-5.25-.55-15.53.64-15.63.65-.03,0-.07,0-.1,0Z"/>
      <path class="cls-1" d="M93.39,99.88c-.4,0-.77-.28-.85-.69-1.93-9.02-4.08-14.44-4.1-14.49-.18-.45.04-.96.49-1.14.45-.18.96.04,1.14.49.09.22,2.22,5.6,4.19,14.78.1.47-.2.94-.67,1.04-.06.01-.12.02-.18.02Z"/>
      <path class="cls-1" d="M45.86,81.36c-.29,0-.57-.14-.73-.4-.26-.4-.15-.95.25-1.21,7.7-5.03,13.32-7.65,13.38-7.67.44-.2.96-.01,1.16.43.2.44.01.96-.43,1.16-.05.03-5.57,2.59-13.16,7.55-.15.1-.31.14-.48.14Z"/>
      <path class="cls-1" d="M60.71,43.58c-.25,0-.51-.11-.68-.32-4.91-6.03-10.82-10.54-10.88-10.59-.38-.29-.46-.84-.17-1.23.29-.38.84-.46,1.23-.17.25.19,6.14,4.68,11.18,10.88.3.37.25.93-.13,1.23-.16.13-.36.2-.55.2Z"/>
    </g>
  </g>
</svg>