<?xml version="1.0" encoding="UTF-8"?>
<svg id="Layer_2" data-name="Layer 2" xmlns="http://www.w3.org/2000/svg" viewBox="0 0 138.62 145.02">
  <defs>
    <style>
      .cls-1 {
        fill: #fff;
      }

      .cls-2 {
        fill: #90de63;
      }

      .cls-3 {
        fill: #c9c7c5;
      }

      .cls-4 {
        fill: #f6977e;
      }

      .cls-5 {
        fill: #6e7175;
      }

      .cls-6 {
        fill: #a52249;
      }
    </style>
  </defs>
  <g id="_디자인" data-name="디자인">
    <g>
      <g>
        <g>
          <path class="cls-1" d="M2.53,48.4c2.91-4.09,8.35-3.27,11.15-2.11,13.62,5.64,17.06,16.47,17.06,16.47l-5.93,8.17s-4.82-5.23-9.78-8.17c-3.33-1.97-8.52-3.72-11.18-5.11-3.02-1.58-3.32-6.42-1.32-9.25Z"/>
          <path d="M24.81,72.18c-.35,0-.68-.15-.92-.4-.05-.05-4.76-5.14-9.5-7.94-1.88-1.11-4.46-2.19-6.74-3.13-1.66-.69-3.24-1.34-4.38-1.95-1.5-.79-2.58-2.26-3.03-4.14-.57-2.37-.08-5.03,1.28-6.94h0c3.37-4.74,9.54-3.83,12.65-2.54,13.99,5.8,17.62,16.78,17.77,17.24.12.38.05.79-.18,1.11l-5.93,8.17c-.22.3-.56.49-.94.51-.02,0-.05,0-.07,0ZM3.55,49.13c-.93,1.32-1.28,3.24-.88,4.91.28,1.17.91,2.06,1.76,2.51,1.05.55,2.57,1.18,4.18,1.85,2.36.98,5.03,2.09,7.06,3.29,3.71,2.2,7.29,5.57,9.01,7.3l4.66-6.41c-.92-2.23-5-10.52-16.13-15.12-2.43-1.01-7.19-1.78-9.66,1.68h0Z"/>
        </g>
        <g>
          <path class="cls-1" d="M136.09,48.4c-2.91-4.09-8.35-3.27-11.15-2.11-13.62,5.64-17.06,16.47-17.06,16.47l5.93,8.17s4.82-5.23,9.78-8.17c3.33-1.97,8.52-3.72,11.18-5.11,3.02-1.58,3.32-6.42,1.32-9.25Z"/>
          <path d="M113.81,72.18s-.05,0-.07,0c-.37-.02-.72-.21-.94-.51l-5.93-8.17c-.23-.32-.3-.73-.18-1.11.15-.46,3.77-11.45,17.77-17.24,3.11-1.29,9.28-2.2,12.65,2.54h0c1.36,1.91,1.84,4.56,1.28,6.94-.45,1.88-1.53,3.35-3.03,4.14-1.15.6-2.72,1.26-4.38,1.95-2.28.95-4.87,2.02-6.74,3.13-4.74,2.8-9.45,7.89-9.5,7.94-.24.26-.57.4-.92.4ZM109.29,62.58l4.65,6.41c1.72-1.73,5.29-5.11,9.01-7.3,2.03-1.2,4.7-2.31,7.06-3.29,1.61-.67,3.13-1.3,4.18-1.85.86-.45,1.48-1.34,1.76-2.51.4-1.66.05-3.59-.88-4.91h0c-2.46-3.46-7.23-2.68-9.66-1.68-11.12,4.61-15.2,12.89-16.13,15.13Z"/>
        </g>
        <g>
          <path class="cls-1" d="M76.57,143.77c5.47.03,7.35-3.63,8.32-7.22,1.57-5.8,2.27-23.05,1.66-27.05-.74-4.9-15.33-6.17-14.91-.52.85,11.56-.48,21.26-.48,21.26,0,0-1.56,4.52-1.44,7.47.18,4.34,3.46,6.04,6.85,6.06Z"/>
          <path d="M76.63,145.02s-.04,0-.07,0c-4.74-.02-7.91-2.87-8.09-7.26-.12-2.9,1.2-7.02,1.46-7.8.14-1.12,1.23-10.27.45-20.88-.2-2.69,1.94-4.55,5.71-4.98,4.38-.49,11.05,1.08,11.68,5.22.65,4.28-.07,21.59-1.69,27.56-.95,3.5-2.96,8.14-9.47,8.14ZM77.75,106.5c-.46,0-.92.02-1.37.07-1.09.12-3.62.59-3.5,2.31.85,11.56-.43,21.12-.49,21.52-.01.08-.03.16-.06.24-.01.04-1.48,4.34-1.37,7.01.18,4.36,3.98,4.85,5.6,4.86h0s.04,0,.06,0c3.75,0,5.86-1.88,7.05-6.29,1.48-5.47,2.22-22.62,1.63-26.53-.26-1.71-3.97-3.19-7.57-3.19Z"/>
        </g>
        <g>
          <path class="cls-2" d="M107.39,51.59c-15.28-20.66-38.07-25.63-38.07-25.63,0,0-22.8,4.97-38.07,25.63-8.96,12.12-10.65,28.11-6.93,41.52,5,18.04,18.26,25.52,26.86,27.3,7.34,1.52,13.2.07,18.15.07s10.81,1.44,18.15-.07c8.59-1.78,21.85-9.26,26.86-27.3,3.72-13.41,2.03-29.4-6.93-41.52Z"/>
          <path d="M80.38,122.35c-2.27,0-4.38-.18-6.35-.35-1.67-.14-3.26-.28-4.72-.28s-3.04.13-4.72.28c-3.94.33-8.41.71-13.68-.38-10.25-2.12-22.94-10.64-27.81-28.19-4.16-15.01-1.5-30.93,7.13-42.6,15.38-20.8,37.86-25.9,38.81-26.11.18-.04.36-.04.53,0,.95.21,23.43,5.31,38.81,26.11,8.63,11.67,11.29,27.59,7.13,42.6-4.87,17.55-17.56,26.07-27.81,28.19-2.63.54-5.06.72-7.33.72ZM69.31,27.24c-2.58.64-23.14,6.26-37.07,25.09-8.05,10.89-10.63,26.38-6.73,40.44,4.57,16.46,16.38,24.43,25.9,26.41,4.91,1.02,9.19.65,12.96.33,1.73-.15,3.36-.28,4.93-.28s3.2.14,4.93.28c3.78.32,8.05.68,12.96-.33,9.53-1.97,21.34-9.94,25.9-26.41,3.9-14.06,1.32-29.55-6.73-40.44h0c-13.95-18.86-34.49-24.45-37.07-25.09Z"/>
        </g>
        <g>
          <ellipse class="cls-1" cx="55.99" cy="113.7" rx="8.54" ry="10.31" transform="translate(-8.99 4.89) rotate(-4.63)"/>
          <path d="M56.25,125.25c-5.1,0-9.52-4.67-10.01-10.76-.25-3.03.51-5.98,2.13-8.28,1.67-2.38,4.05-3.81,6.7-4.02,5.35-.43,10.17,4.38,10.69,10.73.25,3.03-.51,5.98-2.13,8.28-1.67,2.38-4.05,3.81-6.7,4.02-.23.02-.45.03-.68.03ZM55.74,104.65c-.16,0-.32,0-.48.02-1.9.15-3.62,1.21-4.85,2.97-1.28,1.83-1.88,4.19-1.68,6.65.4,4.98,4,8.76,7.99,8.44,1.89-.15,3.62-1.21,4.85-2.97,1.28-1.83,1.88-4.19,1.68-6.65h0c-.39-4.78-3.71-8.46-7.51-8.46Z"/>
        </g>
        <ellipse class="cls-3" cx="56.24" cy="115.64" rx="6.36" ry="7.11" transform="translate(-3.78 1.91) rotate(-1.89)"/>
        <path d="M56.66,61.83c-.32,0-.63-.18-.78-.48-.22-.43-.05-.96.38-1.18l3.9-1.98-3.92-2.09c-.43-.23-.59-.76-.36-1.18.23-.43.75-.59,1.18-.36l5.4,2.88c.29.15.47.45.46.78s-.19.62-.48.77l-5.4,2.74c-.13.06-.26.09-.39.09Z"/>
        <rect x="76.48" y="54.84" width="6.33" height="6.33" rx="2.93" ry="2.93"/>
        <g>
          <path class="cls-6" d="M77.87,63.81s-2.25-.57-8.55-.57-8.55.57-8.55.57c0,0-.23,9.71,8.55,9.71s8.55-9.71,8.55-9.71Z"/>
          <path class="cls-1" d="M61.18,66.72c.9-.16,3.35-.49,8.13-.49s7.23.33,8.13.49l.05.08c.4-1.67.37-2.99.37-2.99,0,0-2.25-.57-8.55-.57s-8.55.57-8.55.57c0,0-.03,1.34.38,3.03l.04-.12Z"/>
          <path d="M69.31,74.4c-2.69,0-4.87-.84-6.49-2.5-3.02-3.1-2.94-7.9-2.94-8.1,0-.39.28-.73.66-.83.1-.02,2.43-.6,8.77-.6s8.67.58,8.77.6c.38.1.65.44.66.83,0,.2.08,5.01-2.94,8.1-1.62,1.66-3.81,2.5-6.49,2.5ZM61.66,64.54c.1,1.32.53,4.21,2.42,6.14,1.28,1.31,3.04,1.97,5.23,1.97s3.95-.66,5.23-1.97c1.89-1.93,2.32-4.82,2.42-6.14-1.06-.16-3.44-.42-7.65-.42s-6.59.26-7.65.42Z"/>
        </g>
        <circle class="cls-4" cx="48.06" cy="66.17" r="7.11"/>
        <circle class="cls-4" cx="90.56" cy="66.17" r="7.11"/>
      </g>
      <g>
        <path class="cls-5" d="M16.57,13.48c-.12-.42-.08-.76.11-1.02s.7-.51,1.51-.74l7.73-2.26c.81-.24,1.36-.3,1.67-.18.31.11.52.38.64.8.1.33.07.62-.09.86-.16.24-.55.47-1.19.69.38.28.63.64.76,1.07.3,1.04.3,1.9,0,2.59s-.91,1.27-1.84,1.74l.35,1.21,2.89-.84c.4-.12.74-.19,1.02-.2.28-.02.5,0,.67.06.17.06.31.16.41.3.1.14.17.31.23.5.05.16.06.32.06.48s-.07.31-.18.46c-.11.15-.29.3-.53.44-.24.14-.56.27-.96.39l-8.51,2.48c-.4.12-.74.18-1.02.19-.28.01-.5-.02-.68-.08-.18-.07-.31-.16-.4-.29-.09-.13-.16-.27-.21-.43-.05-.19-.08-.37-.08-.54,0-.17.06-.33.18-.47.11-.14.29-.28.54-.41.24-.13.56-.26.97-.38l2.12-.62-.35-1.21c-1.07.09-1.92-.08-2.56-.52-.64-.44-1.11-1.15-1.39-2.12-.13-.45-.13-.88,0-1.29-.32.08-.59.12-.8.12-.21,0-.39-.03-.53-.08-.14-.05-.25-.14-.33-.25-.08-.12-.15-.25-.19-.41ZM17.34,9.85c-.06-.22-.09-.4-.08-.56,0-.16.07-.3.19-.43.12-.13.3-.25.55-.37.25-.12.57-.24.97-.35l4.36-1.27c.4-.12.74-.19,1.01-.23.27-.03.49-.03.66.02.17.04.3.13.39.26.09.13.17.3.23.52.1.36.06.67-.14.93-.2.26-.7.51-1.51.74l-4.36,1.27c-.81.24-1.36.3-1.67.18-.31-.11-.51-.35-.62-.71ZM25.22,24.01l10.82-3.16c.4-.12.75-.17,1.03-.17.28,0,.52.05.7.15.18.09.33.22.43.38.1.16.18.32.23.5.06.22.1.42.1.62,0,.19-.05.38-.16.55s-.28.33-.52.48c-.24.15-.56.28-.96.4l-12.57,3.67c-.4.12-.73.17-.99.16-.25-.01-.46-.07-.62-.17-.16-.1-.28-.24-.37-.41-.08-.17-.15-.37-.22-.58l-.5-1.73c-.11-.36-.14-.67-.12-.92.03-.25.11-.46.23-.64.13-.18.29-.32.49-.42.2-.1.41-.19.64-.26.23-.07.46-.11.68-.13.22-.02.43.01.63.1s.38.22.54.42c.17.19.3.47.41.83l.1.35ZM21.78,14.39c.04.14.1.28.18.41.08.13.18.23.3.31.12.08.28.13.46.15.18.02.41-.01.67-.09.53-.16.84-.38.93-.66.09-.28.09-.57,0-.86-.04-.14-.1-.28-.17-.41-.07-.13-.17-.23-.29-.31-.12-.08-.28-.13-.46-.15s-.41.02-.69.1c-.53.16-.84.38-.93.66-.09.28-.09.57,0,.86ZM29.52,7.57c-.21-.72-.18-1.26.1-1.63.27-.37.64-.62,1.1-.76.23-.07.46-.1.68-.11.23,0,.44.04.64.14.2.1.39.25.56.47.17.22.31.5.42.86l1.05,3.59,1.1-.32c.4-.12.75-.17,1.03-.15.29.02.52.08.71.18.19.1.33.24.43.4.1.17.18.33.23.51.06.22.1.43.1.63,0,.2-.05.39-.15.57-.1.18-.27.35-.51.51-.23.16-.55.3-.96.42l-1.1.32,1,3.41c.11.37.15.7.12.97-.03.27-.1.51-.22.7-.12.19-.27.35-.46.46-.19.12-.4.21-.63.28-.23.07-.46.1-.68.11-.23,0-.44-.04-.65-.14s-.39-.25-.56-.47c-.17-.22-.3-.51-.41-.89l-2.94-10.06Z"/>
        <path class="cls-5" d="M38.71,8.46c-.25-1.78-.02-3.12.67-4.02.69-.9,1.92-1.47,3.67-1.71,1.75-.24,3.09-.03,4,.65.91.68,1.49,1.91,1.74,3.69.13.94.14,1.74.03,2.4-.11.67-.35,1.23-.7,1.68s-.84.8-1.46,1.05-1.35.44-2.22.56c-1.74.24-3.07.03-3.98-.64-.92-.67-1.5-1.89-1.74-3.65ZM45.63,22.04c-.7.08-1.31.05-1.83-.09-.52-.14-.95-.36-1.3-.67-.35-.31-.62-.68-.81-1.11-.2-.44-.33-.91-.4-1.43-.07-.52-.08-1.02-.03-1.5s.2-.91.44-1.3.6-.72,1.07-.99c.47-.27,1.08-.46,1.84-.58l9.54-1.32c.76-.1,1.4-.09,1.93.04.52.13.96.35,1.3.66.34.31.6.69.78,1.14.18.45.31.94.38,1.46.07.52.07,1.02,0,1.49-.07.47-.23.9-.49,1.29-.26.39-.61.72-1.07,1-.45.27-1.03.47-1.73.58l-9.63,1.34ZM42.34,7.96c.1.74.26,1.26.48,1.55.21.29.62.39,1.21.31.59-.08.96-.29,1.08-.63.13-.34.14-.88.04-1.62-.1-.74-.26-1.26-.48-1.56-.22-.3-.62-.4-1.21-.32-.6.08-.96.3-1.08.64-.13.34-.14.89-.04,1.63ZM53.84,17.86c.43-.09.73-.2.91-.32.18-.12.25-.36.2-.7-.05-.36-.18-.57-.38-.64-.21-.07-.53-.09-.96-.06l-7.62,1.06c-.43.09-.73.2-.91.32-.18.12-.25.36-.2.72.05.34.17.55.38.62.21.07.53.09.96.06l7.62-1.06ZM55.92,12.01c-.43.06-.84,0-1.23-.18-.39-.18-.66-.59-.81-1.24l-1.56.22c-.42.06-.76.07-1.04.03-.28-.04-.5-.11-.67-.23-.17-.11-.29-.26-.37-.44s-.13-.38-.16-.6c-.02-.18-.02-.36,0-.55.03-.19.1-.36.23-.52.13-.16.32-.3.58-.42.26-.12.59-.21,1.01-.26l1.56-.22-.2-1.47-1.56.22c-.42.06-.76.07-1.04.03-.28-.04-.5-.11-.67-.23-.17-.11-.29-.26-.37-.44-.08-.18-.13-.38-.16-.6-.02-.18-.02-.36,0-.55.03-.19.11-.36.23-.52.13-.16.32-.3.58-.42.26-.12.59-.21,1.01-.26l1.56-.22c-.04-.36-.02-.66.06-.91.07-.24.18-.45.32-.61.14-.16.32-.29.53-.38.21-.09.42-.15.65-.18.24-.03.47-.03.69,0,.22.03.43.11.61.23s.35.31.48.55c.14.24.23.54.29.91l.98,7.04c.05.39.05.71-.02.98-.07.27-.18.49-.32.66-.14.17-.32.3-.53.39s-.43.15-.67.18Z"/>
        <path class="cls-5" d="M60.43,4.69c0-.23.03-.42.08-.57.05-.16.16-.29.31-.4.15-.11.36-.19.63-.24.27-.05.62-.07,1.04-.07l7.83.07c.42,0,.76.03,1.03.09.27.06.48.14.63.25.15.11.25.25.3.41.05.16.08.35.07.57,0,.33-.1.6-.29.8s-.58.32-1.16.36c.21.42.31.87.3,1.35-.01,1.37-.41,2.35-1.19,2.97-.78.62-2.01.92-3.69.9-1.68-.02-2.9-.36-3.67-1.04-.77-.67-1.14-1.65-1.13-2.92,0-.52.11-.97.31-1.35-.57-.07-.95-.2-1.13-.39-.19-.2-.28-.46-.27-.79ZM63.7,20.02c-.42,0-.75-.05-.99-.13-.24-.08-.42-.2-.55-.34-.13-.14-.2-.31-.23-.5-.03-.19-.04-.39-.04-.62l.04-4.79c0-.75.18-1.26.51-1.54.33-.27.74-.41,1.22-.4.24,0,.47.03.69.1.22.06.41.17.57.32.16.15.3.35.4.6.1.25.15.56.15.94l9.16.09c0-.73.19-1.24.56-1.51.37-.27.79-.41,1.28-.4.24,0,.46.03.66.1.2.06.38.17.54.32.16.15.28.35.37.61.09.26.13.57.13.95l-.04,4.79c0,.23-.02.43-.05.62-.03.19-.11.35-.24.49s-.31.25-.55.33c-.24.08-.57.12-.99.11l-12.58-.12ZM62.1,1.24c0-.44.14-.75.4-.95.26-.2.82-.3,1.66-.29l4.54.04c.84,0,1.39.11,1.65.32.26.21.39.52.38.96,0,.38-.14.67-.4.88-.26.22-.82.32-1.66.31l-4.54-.04c-.84,0-1.39-.12-1.65-.34-.26-.22-.39-.52-.39-.89ZM65.04,7.25c0,.15.02.3.05.45.04.15.1.29.2.42.1.13.23.23.4.32.17.08.39.13.66.13.28,0,.51-.04.69-.12.17-.08.31-.18.41-.31.1-.13.16-.26.19-.41.03-.15.05-.3.05-.45,0-.15-.01-.3-.04-.46-.03-.16-.09-.3-.19-.42-.1-.12-.23-.22-.4-.31-.17-.08-.4-.13-.69-.13-.27,0-.49.04-.66.12-.17.08-.31.18-.41.3s-.17.26-.21.41c-.04.16-.06.31-.06.46ZM74.61,16.39l-9.16-.09v1.08s9.15.09,9.15.09v-1.08ZM74.42,2.5c0-.75.2-1.26.57-1.54.37-.27.79-.41,1.28-.4.24,0,.47.03.69.1.22.06.41.17.57.32.16.15.3.36.4.61.1.26.15.57.15.95l-.02,1.71h1.42c.42.02.76.07,1.03.17.27.1.48.23.63.38.15.15.25.32.3.51s.08.37.07.55c0,.23-.03.44-.08.63-.05.19-.16.36-.31.5-.15.14-.36.26-.63.34-.27.09-.62.13-1.04.13h-1.42s-.02,1.88-.02,1.88c0,.39-.06.7-.17.93-.11.23-.24.41-.41.54-.17.13-.36.21-.58.25-.22.04-.45.06-.69.06s-.47-.03-.69-.07c-.22-.05-.41-.13-.58-.26-.17-.13-.3-.31-.4-.54-.09-.23-.14-.54-.14-.94l.06-6.79Z"/>
        <path class="cls-5" d="M86.48,17.1l4.13.65c.41.07.75.16,1,.29s.44.28.57.44c.13.16.2.34.22.54.02.19.02.38,0,.56-.04.22-.09.42-.17.6-.08.18-.21.32-.38.44-.17.12-.4.2-.68.24s-.63.03-1.04-.04l-5.93-.93c-.42-.07-.73-.16-.96-.28-.23-.12-.39-.26-.49-.42-.1-.16-.16-.34-.16-.53,0-.19.02-.4.05-.62l2.33-14.8c.12-.74.38-1.22.78-1.44.41-.22.85-.29,1.32-.21.24.04.46.1.66.2.21.09.38.23.52.4.14.17.24.39.31.66.06.27.07.59,0,.96l-2.09,13.29ZM98.16,5.09c.12-.74.38-1.22.78-1.44.41-.22.85-.29,1.32-.21.24.04.46.1.66.2.21.09.38.23.52.4.14.17.24.4.31.66.06.27.07.59,0,.96l-2.39,15.18c-.06.39-.16.7-.31.93-.14.24-.31.41-.49.54-.19.12-.39.2-.62.22s-.46.02-.69-.02c-.24-.04-.46-.1-.66-.2-.21-.09-.38-.23-.53-.4-.15-.18-.25-.4-.31-.66-.06-.27-.05-.59,0-.98l2.38-15.18Z"/>
        <path class="cls-5" d="M106.56,21.01l3.35,1.04c.4.12.72.27.95.44.23.17.4.34.5.52.1.18.15.37.14.56,0,.19-.03.38-.09.55-.07.21-.15.4-.26.57-.11.16-.25.29-.44.38-.19.09-.42.14-.7.14-.28,0-.62-.06-1.03-.19l-5.09-1.58c-.4-.12-.7-.26-.91-.41-.2-.15-.35-.31-.43-.49-.08-.17-.11-.35-.08-.54.03-.19.07-.39.14-.6l4.5-14.53c.07-.21.14-.41.23-.6.09-.18.22-.34.39-.46.17-.12.38-.19.64-.21.26-.02.59.03.99.15l4.66,1.45c.4.12.72.27.95.42.23.16.4.33.5.51.1.18.15.37.14.56,0,.19-.04.4-.11.61-.05.17-.13.34-.24.5-.11.16-.25.29-.44.38-.19.09-.42.14-.71.15-.28,0-.63-.05-1.03-.18l-2.92-.91-3.64,11.76ZM118.92,10.52c.22-.72.55-1.15.98-1.31.43-.16.88-.16,1.34-.02.23.07.44.17.63.29.19.12.34.28.45.47.11.19.18.43.21.7.02.27-.02.59-.13.95l-1.6,5.16,1.35.42c.4.12.72.27.95.44.23.17.4.34.5.52s.15.37.14.56c0,.19-.03.38-.09.55-.07.21-.15.4-.26.57-.11.16-.25.29-.44.38-.19.09-.42.14-.7.14-.28,0-.62-.06-1.02-.19l-1.35-.42-2.03,6.55c-.12.37-.26.67-.44.88-.18.21-.36.37-.57.46-.2.09-.42.14-.64.13-.23,0-.45-.05-.68-.12-.23-.07-.44-.17-.63-.29-.19-.12-.35-.28-.47-.47-.12-.19-.19-.43-.21-.7-.02-.27.03-.6.15-.97l4.55-14.68Z"/>
      </g>
    </g>
  </g>
</svg>