<?xml version="1.0" encoding="UTF-8"?>
<svg id="Layer_2" data-name="Layer 2" xmlns="http://www.w3.org/2000/svg" viewBox="0 0 137.52 121.1">
  <defs>
    <style>
      .cls-1 {
        fill: #fff;
      }

      .cls-2 {
        fill: #90de63;
      }

      .cls-3 {
        fill: #f6977e;
      }

      .cls-4 {
        fill: #a52249;
      }
    </style>
  </defs>
  <g id="_디자인" data-name="디자인">
    <g>
      <g>
        <path class="cls-1" d="M134.09,17c3.02,2.94,2.26,7.63,1.41,10.24-4.21,12.86-14.63,20.22-22.39,23.34l-2.39-10.48s5.58-3.85,9.06-12.56c1.43-3.59,2.17-7.05,4.07-9.77,0,0,.42-5.45,1.86-7.03,1.28-1.42,4.8-1.6,4.34,2.87,0,0,.84-3.97,3.61-2.88,3.13,1.24.45,6.28.45,6.28Z"/>
        <path d="M113.11,51.83c-.2,0-.4-.05-.58-.14-.32-.17-.56-.47-.64-.83l-2.39-10.48c-.11-.5.09-1.02.51-1.31.05-.04,5.33-3.78,8.6-12,.44-1.1.82-2.2,1.18-3.27.79-2.32,1.55-4.53,2.84-6.47.14-1.48.65-5.78,2.15-7.44,1.1-1.21,3-1.64,4.43-1.01.43.19.98.55,1.41,1.2.18-.16.39-.3.61-.42.61-.33,1.6-.61,2.88-.1.99.39,1.7,1.1,2.05,2.06.65,1.76-.07,3.96-.57,5.15,2.99,3.64,1.8,8.74,1.11,10.85-5.19,15.85-19.01,22.46-23.12,24.11-.15.06-.31.09-.46.09ZM112.11,40.6l1.88,8.24c4.93-2.24,15.94-8.59,20.32-21.99.46-1.4,1.74-6.2-1.09-8.95-.4-.39-.49-.99-.23-1.48.52-.98,1.19-2.91.82-3.93-.11-.29-.29-.47-.62-.6-.42-.17-.63-.1-.78-.02-.61.33-1.04,1.51-1.15,2-.14.65-.76,1.08-1.42.97-.66-.1-1.12-.7-1.05-1.36.13-1.24-.09-2.08-.61-2.31-.49-.22-1.22.03-1.56.4-.78.87-1.38,4.27-1.54,6.29-.02.22-.09.44-.22.62-1.21,1.72-1.94,3.86-2.71,6.13-.38,1.1-.76,2.23-1.22,3.39-2.89,7.24-7.16,11.24-8.82,12.6Z"/>
      </g>
      <g>
        <path class="cls-1" d="M63.65,119.76c6.21-.64,9.54-3.51,10.15-7.18.97-5.77-1.4-21.7-3.35-26.82-1.77-4.63-14.25-3-12.92,2.51,2.99,12.4,1.88,20.59,1.88,20.59,0,0-4.57,1.66-3.56,6.87.6,3.07,3.26,4.49,7.8,4.02Z"/>
        <path d="M62.03,121.1c-5.53,0-7.02-3.13-7.41-5.12-.85-4.36,1.68-6.92,3.61-7.95.18-2.17.49-9.44-1.93-19.45-.66-2.73,1.12-5.1,4.65-6.2,4.1-1.27,9.34-.51,10.66,2.94,1.95,5.11,4.46,21.22,3.42,27.47-.76,4.56-4.87,7.55-11.25,8.21h0c-.62.06-1.21.09-1.75.09ZM63.65,119.76h0,0ZM64.76,84.3c-.99,0-2.05.15-3.06.46-1.04.32-3.42,1.29-2.96,3.22,3.01,12.48,1.95,20.7,1.91,21.05-.06.46-.38.85-.81,1.01-.36.14-3.54,1.46-2.76,5.46.47,2.4,2.64,3.41,6.44,3.02h0c5.19-.54,8.48-2.77,9.05-6.14.94-5.62-1.48-21.44-3.29-26.17-.46-1.2-2.34-1.91-4.52-1.91Z"/>
      </g>
      <path d="M59.41,110.11c-.48,0-.93-.28-1.14-.74-.28-.63,0-1.37.63-1.65.04-.02,1.11-.5,2.26-.72.68-.13,1.33.31,1.46.99.13.68-.31,1.33-.99,1.46-.85.16-1.7.54-1.71.54-.17.07-.34.11-.51.11Z"/>
      <g>
        <path class="cls-1" d="M109.56,95.68c.62-5.89-1.33-9.53-4.74-11-2.79-1.21-9.68.57-9.68.57,0,0-.24-3.75-3.36-4.96-4.15-1.62-7.15,1.18-8.04,3.02-1.82,3.76,1.44,14.45,6.61,16.03,4.57,1.4,7.41-1.58,7.41-1.58,0,0,.51,5.4,5.82,5.1,3.4-.19,5.53-2.92,5.98-7.18Z"/>
        <path d="M103.16,104.12c-3.54,0-5.37-2.22-6.16-4.27-1.49.84-3.91,1.63-7.02.68-3.31-1.01-5.35-4.7-6.27-6.8-1.46-3.35-2.43-8.21-1.1-10.97,1.16-2.4,4.8-5.51,9.62-3.64,2.48.96,3.49,3.15,3.89,4.61,2.27-.48,6.79-1.24,9.19-.21,2.42,1.05,6.35,4.03,5.48,12.28h0c-.52,4.98-3.2,8.08-7.15,8.3-.17,0-.33.01-.49.01ZM97.76,96.51c.14,0,.28.02.41.07.46.16.79.58.83,1.06.04.42.52,4.2,4.51,3.97,3.65-.2,4.57-3.89,4.8-6.07h0c.37-3.49-.03-8.01-3.99-9.72-1.75-.75-6.37,0-8.87.64-.36.09-.74.02-1.04-.2-.3-.22-.49-.56-.51-.93,0-.12-.25-2.97-2.57-3.88-3.65-1.42-5.94,1.33-6.46,2.4-.81,1.67-.31,5.56,1.14,8.88,1.27,2.91,2.99,4.89,4.71,5.41,3.79,1.16,6.12-1.22,6.14-1.25.24-.25.57-.39.9-.39Z"/>
      </g>
      <g>
        <path class="cls-1" d="M2,88.03c2.45,4.38,8.22,3.26,11.11,2.34,12.53-3.99,21.4-14.85,21.75-15.99l-7.4-7.55s-4.03,4.74-12.81,8.23c-3.6,1.43-7.69,2-10.4,3.93s-3.89,6.11-2.25,9.04Z"/>
        <path d="M8.2,92.47c-3.33,0-5.88-1.31-7.3-3.83h0c-1.91-3.4-.71-8.29,2.61-10.66,1.9-1.36,4.37-2.09,6.76-2.8,1.3-.39,2.65-.79,3.9-1.28,8.34-3.31,12.28-7.83,12.32-7.88.23-.27.56-.42.91-.44.35-.01.69.12.94.37l7.4,7.55c.32.33.44.8.3,1.24-.52,1.73-9.96,12.8-22.57,16.82-1.91.61-3.68.91-5.28.91ZM3.09,87.41c2,3.57,6.89,2.64,9.64,1.76,11-3.51,18.71-12.17,20.55-14.63l-5.81-5.93c-1.7,1.63-5.71,4.96-12.35,7.6-1.35.54-2.76.95-4.11,1.35-2.29.68-4.46,1.32-6.02,2.43-2.3,1.64-3.18,5.11-1.89,7.41h0Z"/>
      </g>
      <g>
        <path class="cls-2" d="M102.93,20.11C84.4,2.31,61.09,1.25,61.09,1.25c0,0-21.64,8.73-33.22,31.67-6.8,13.46-5.77,29.5.15,42.09,7.97,16.94,22.3,22.08,31.07,22.39,7.49.26,13.03-2.15,17.9-2.98,4.87-.83,10.9-.39,17.88-3.13,8.17-3.2,19.98-12.8,21.88-31.43,1.41-13.84-2.94-29.32-13.82-39.76Z"/>
        <path d="M60.23,98.67c-.39,0-.78,0-1.19-.02-10.46-.37-24.4-6.63-32.15-23.11-6.63-14.09-6.68-30.24-.14-43.19C38.41,9.27,59.72.45,60.62.09c.17-.07.35-.1.52-.09.97.04,23.99,1.29,42.65,19.21h0c10.47,10.05,15.77,25.3,14.19,40.79-1.85,18.12-12.92,28.65-22.67,32.46-5.01,1.96-9.48,2.34-13.42,2.67-1.67.14-3.26.28-4.7.52-1.44.25-2.98.64-4.61,1.07-3.55.92-7.53,1.95-12.36,1.95ZM61.31,2.52c-2.43,1.06-21.76,10.06-32.32,30.97-6.1,12.09-6.04,27.8.17,41,7.27,15.46,20.25,21.33,29.98,21.67,5.02.18,9.17-.9,12.83-1.85,1.68-.44,3.27-.85,4.81-1.11,1.55-.26,3.18-.4,4.91-.55,3.77-.32,8.05-.68,12.72-2.51,9.06-3.55,19.36-13.39,21.09-30.39,1.48-14.51-3.67-29.35-13.44-38.73h0C85.15,4.77,63.95,2.71,61.31,2.52Z"/>
      </g>
      <rect x="53.12" y="31.42" width="6.33" height="6.33" rx="2.93" ry="2.93" transform="translate(-5.02 9.96) rotate(-9.69)"/>
      <path class="cls-4" d="M75.88,37.07s-2.3-.12-8.52.94-8.35,1.94-8.35,1.94c0,0,1.22,8.52,9.88,7.04,8.66-1.48,6.99-9.92,6.99-9.92Z"/>
      <path class="cls-1" d="M59.86,42.41c.87-.29,3.23-.99,7.94-1.8,4.71-.8,7.17-.93,8.09-.94l.06.06c.15-1.52-.08-2.67-.08-2.67,0,0-2.3-.12-8.52.94-6.22,1.06-8.35,1.94-8.35,1.94,0,0,.17,1.18.83,2.58l.02-.11Z"/>
      <path d="M66.95,48.03c-1.94,0-3.63-.52-5.04-1.55-3.14-2.29-3.74-6.24-3.76-6.41-.06-.4.16-.78.53-.93.09-.04,2.29-.93,8.53-1.99,6.25-1.07,8.61-.95,8.71-.95.4.02.73.31.81.7.03.17.78,4.1-1.42,7.3-1.34,1.94-3.45,3.17-6.28,3.66-.72.12-1.42.19-2.09.19ZM60.04,40.52c.3,1.09,1.08,3.23,2.91,4.55,1.51,1.09,3.46,1.45,5.8,1.05,2.34-.4,4.06-1.38,5.12-2.91,1.29-1.86,1.32-4.13,1.24-5.26-1.09.04-3.47.21-7.6.92-4.13.7-6.43,1.33-7.47,1.65Z"/>
      <circle class="cls-3" cx="46.91" cy="44.47" r="7.11"/>
      <circle class="cls-3" cx="88.8" cy="37.32" r="7.11"/>
      <path d="M128.05,24.29c-.54,0-1.04-.35-1.2-.89-.2-.66.18-1.36.84-1.55,1.44-.43,1.33-1.56,1.26-1.9-.18-.87-.96-1.67-2.3-1.51-1.84.22-2.52.69-3.5,3.41-.23.65-.95.99-1.6.75-.65-.23-.99-.95-.75-1.6,1.07-2.97,2.28-4.65,5.56-5.04,2.78-.32,4.64,1.51,5.04,3.49.45,2.17-.79,4.14-3,4.8-.12.04-.24.05-.36.05Z"/>
      <path d="M77.07,34.03c-.06,0-.13,0-.19-.02l-5.08-1.14c-.31-.07-.56-.3-.65-.61-.09-.31,0-.64.23-.86l3.93-3.88c.34-.34.9-.34,1.24,0,.34.34.34.9,0,1.24l-2.79,2.76,3.52.79c.47.11.77.57.66,1.05-.09.41-.45.68-.85.68Z"/>
      <path d="M97.76,99.01c-.33,0-.67-.13-.92-.4-.47-.51-.44-1.3.07-1.77.01-.01,1.13-1.05,1.72-1.85.41-.56,1.19-.67,1.75-.27.56.41.67,1.19.27,1.75-.73.99-1.98,2.15-2.03,2.2-.24.22-.55.33-.85.33Z"/>
    </g>
  </g>
</svg>