<?xml version="1.0" encoding="UTF-8"?>
<svg id="Layer_1" xmlns="http://www.w3.org/2000/svg" version="1.1" xmlns:xlink="http://www.w3.org/1999/xlink" viewBox="0 0 1666.7 762.7">
  <!-- Generator: Adobe Illustrator 30.3.0, SVG Export Plug-In . SVG Version: 2.1.3 Build 182)  -->
  <defs>
    <style>
      .st0 {
        fill: #f9fbff;
      }

      .st0, .st1, .st2, .st3, .st4, .st5, .st6, .st7, .st8, .st9 {
        stroke: #000;
      }

      .st0, .st2, .st3, .st4, .st10, .st6, .st8 {
        stroke-linejoin: round;
      }

      .st0, .st6 {
        stroke-width: 6px;
      }

      .st1, .st11, .st12, .st6, .st8, .st9 {
        fill: none;
      }

      .st1, .st11, .st5, .st7, .st9 {
        stroke-miterlimit: 10;
      }

      .st2, .st3, .st11, .st10, .st6, .st8 {
        stroke-linecap: round;
      }

      .st2, .st3, .st4, .st5, .st7, .st8, .st9 {
        stroke-width: 7px;
      }

      .st2, .st10 {
        fill: #ffc6d5;
      }

      .st13 {
        fill: #fec6d4;
      }

      .st14, .st15 {
        fill: #f89c87;
      }

      .st3, .st16, .st4 {
        fill: #fff;
      }

      .st11 {
        stroke: #d1cdc8;
        stroke-width: 4.7px;
      }

      .st17 {
        fill: #42944b;
      }

      .st17, .st4, .st18, .st19, .st20, .st21, .st22, .st23, .st15 {
        fill-rule: evenodd;
      }

      .st24 {
        clip-path: url(#clippath-1);
      }

      .st18 {
        fill: #8dd164;
      }

      .st10 {
        stroke: #fc8da9;
        stroke-width: 4px;
      }

      .st19 {
        fill: #8ed165;
      }

      .st20 {
        fill: #b95858;
      }

      .st5 {
        fill: #fc8da9;
      }

      .st25 {
        fill: #fed871;
      }

      .st26 {
        fill: #9fe0ab;
      }

      .st22 {
        fill: #131211;
      }

      .st27, .st7 {
        fill: #fefefe;
      }

      .st28 {
        fill: #ffdce1;
      }

      .st29 {
        clip-path: url(#clippath);
      }

      .st30 {
        fill: #eae5da;
      }

      .st23 {
        fill: #47914a;
      }
    </style>
    <clipPath id="clippath">
      <rect class="st12" x="1238.6" y="426.7" width="17.9" height="29.4"/>
    </clipPath>
    <clipPath id="clippath-1">
      <rect class="st12" x="1256.5" y="426.7" width="17.9" height="29.4"/>
    </clipPath>
  </defs>
  <rect class="st16" width="1666.7" height="762.7"/>
  <g>
    <g>
      <line class="st1" x1="125.2" y1="117.2" x2="1541.5" y2="117.2"/>
      <line class="st1" x1="125.2" y1="192.7" x2="1541.5" y2="192.7"/>
      <line class="st1" x1="125.2" y1="268.1" x2="1541.5" y2="268.1"/>
      <line class="st1" x1="125.2" y1="343.6" x2="1541.5" y2="343.6"/>
      <line class="st1" x1="125.2" y1="419.1" x2="1541.5" y2="419.1"/>
      <line class="st1" x1="125.2" y1="494.5" x2="1541.5" y2="494.5"/>
      <line class="st1" x1="125.2" y1="570" x2="1541.5" y2="570"/>
      <line class="st1" x1="125.2" y1="645.5" x2="1541.5" y2="645.5"/>
    </g>
    <g>
      <g>
        <g>
          <g>
            <path class="st16" d="M1229.9,637.6c-4,0-11.5-.6-15.9-4.6-1.6-1.4-2.5-3.4-2.7-5.9-.5-4.3,1.9-6.9,3.5-8.6.9-1,1.4-1.6,1.7-2.3.2-2.9.1-6.4,0-9.8,0-1.7-.1-3.4-.1-5v-4.9s4.6,1.6,4.6,1.6c3.4,1.2,6.9,1.4,11.1,1.4s1.8,0,2.7,0c.9,0,1.8,0,2.8,0,2.2,0,4.8,0,7.6.4l3.3.4-.3,3.3c-.2,2.6-.2,5.9-.2,9.5,0,6,0,12.3-1.1,17-.8,3.3-4.2,5.1-7.2,6.3h-.2c0,0-.2.1-.2.1-2.6.7-6,1.1-9.3,1.1Z"/>
            <path d="M1219.8,601.4c4,1.4,8.1,1.6,12.2,1.6s3.6,0,5.4,0,4.8,0,7.1.4c-.6,7.3.4,19-1.2,25.9-.4,1.8-3.3,3.1-5.1,3.8-2.2.6-5.3,1-8.4,1-5.1,0-10.6-1-13.5-3.7-1.1-1-1.5-2.3-1.6-3.7-.5-4.7,4.2-6,5.1-9.9.4-4.6,0-10.6,0-15.4M1212.8,591.6v9.8c0,1.6.1,3.4.2,5,0,3,.2,6.1,0,8.7-.2.3-.6.6-.8.9-1.7,1.9-5,5.5-4.4,11.3.4,3.4,1.7,6.1,3.9,8.1,5,4.6,12.7,5.5,18.2,5.5s7.3-.4,10.2-1.2h.4c0-.1.4-.3.4-.3,2.2-.9,8-3.2,9.3-8.7,1.2-5.1,1.2-11.5,1.2-17.7,0-3.4,0-6.7.2-9.2l.6-6.6-6.6-.9c-3-.4-5.9-.5-8.1-.5s-1.9,0-2.8,0c-.9,0-1.8,0-2.6,0-3.9,0-7-.2-10-1.2l-9.3-3.2h0Z"/>
          </g>
          <g>
            <path class="st16" d="M1283.1,637.6c-3.3,0-6.7-.4-9.3-1.1h-.2c0,0-.2-.1-.2-.1-2.9-1.2-6.4-3-7.2-6.3-1.1-4.7-1.1-10.9-1.1-17,0-3.5,0-6.8-.2-9.5l-.3-3.3,3.3-.4c2.8-.4,5.4-.4,7.6-.4s1.8,0,2.8,0c.9,0,1.8,0,2.7,0,4.2,0,7.7-.2,11.1-1.4l4.7-1.6v4.9c0,1.6,0,3.2-.1,4.9-.1,3.4-.2,6.9,0,9.8.2.7.8,1.3,1.7,2.3,1.6,1.7,3.9,4.3,3.5,8.6-.1.9-.4,3.8-2.7,5.9-4.4,4-11.8,4.6-15.9,4.6h0Z"/>
            <path d="M1293.2,601.4h0M1293.2,601.4c0,4.8-.5,10.7,0,15.4.9,3.9,5.6,5.2,5.1,9.9-.1,1.4-.5,2.7-1.6,3.7-3,2.7-8.4,3.7-13.5,3.7s-6.2-.4-8.4-1c-1.7-.7-4.6-2-5.1-3.8-1.6-6.9-.6-18.7-1.2-25.9,2.4-.3,4.8-.4,7.1-.4s3.6,0,5.4,0c4.1,0,8.2-.2,12.2-1.6M1300.2,591.6l-9.3,3.2c-2.9,1-6.1,1.2-10,1.2s-1.7,0-2.6,0c-.9,0-1.9,0-2.8,0-2.2,0-5.1,0-8.1.5l-6.6.9.6,6.6c.2,2.5.2,5.7.2,9.2,0,6.2,0,12.7,1.2,17.7,1.3,5.5,7.1,7.9,9.3,8.7l.4.2h.4c2.9.9,6.6,1.3,10.2,1.3,5.6,0,13.2-1,18.2-5.5,2.2-2,3.5-4.7,3.9-8.1.6-5.9-2.6-9.4-4.4-11.3-.3-.3-.6-.7-.8-.9-.1-2.6,0-5.7,0-8.7,0-1.7.1-3.4.1-5v-9.8h0ZM1293.2,594.4h0,0ZM1293.2,608.4h0,0Z"/>
          </g>
        </g>
        <path class="st3" d="M1311.7,535.6c22.5-2.7,47.9-8.8,60.7-20.7,17.1-15.8,24-59,23.2-83.7-.7-22.5-7.7-59.3-24.1-75.2-24.1-23.3-78.8-30.2-115-30.3-36.2,0-90.8,7-115,30.3-16.4,15.9-23.4,52.7-24.1,75.2-.8,24.7,6.1,67.9,23.2,83.7,12.8,11.9,38.2,18,60.7,20.7"/>
        <g>
          <circle class="st25" cx="1178.6" cy="444.2" r="27.8"/>
          <circle class="st25" cx="1334.4" cy="444.2" r="27.8"/>
          <g>
            <circle cx="1214.1" cy="417" r="10.7"/>
            <circle cx="1298.9" cy="417" r="10.7"/>
          </g>
          <path class="st6" d="M1240.6,464.5c4.1,11.3,25,12.3,31.8,0"/>
          <g>
            <g id="_x3C_Mirror_Repeat_x3E_">
              <g class="st29">
                <path d="M1256.5,456.1c-9.9,0-17.9-5-17.9-14.7s8-14.7,17.9-14.7"/>
              </g>
            </g>
            <g id="_x3C_Mirror_Repeat_x3E_1" data-name="_x3C_Mirror_Repeat_x3E_">
              <g class="st24">
                <path d="M1256.5,456.1c9.9,0,17.9-5,17.9-14.7s-8-14.7-17.9-14.7"/>
              </g>
            </g>
          </g>
        </g>
        <path class="st3" d="M1300.6,531.3c10.9-1.2,33.6-24.1,28.1-36.5-6.2-10,3-24.5,13.7-14.5,4.7-13.5,20.7-17.2,31.3-8,18.5,16.2-1.4,48.3-10.7,59.4-14.1,17.7-33.3,24.8-46.5,31.9h.1s10.5,46.8-60.1,46.8-60.1-46.8-60.1-46.8h.4c-13.2-7.1-32.4-14.2-46.5-31.9-9.3-11.1-29.2-43.2-10.7-59.4,10.5-9.2,26.5-5.5,31.3,8,10.7-10,19.9,4.5,13.7,14.5-5.5,12.4,17.2,35.3,28.1,36.5"/>
        <path class="st11" d="M1372.9,556.7s26.6-12.8,30.4-42.3"/>
        <path class="st11" d="M1372.9,571.4s30-7.5,39.2-38.6"/>
        <path class="st11" d="M1121.1,519.9s10.2,32.5,39.1,38.3"/>
        <path class="st11" d="M1121.1,547.3s11.7,16.8,25.4,18.4"/>
        <path class="st30" d="M1226.5,528.6c2.1.6,6.1.9,8.4,1.2,13.4,1.5,26.9,1.6,40.4.3,3.1-.3,8.4-.8,11.4-1.5-1.3.7-3.1,2.1-4.4,3-5.7,3.9-11.8,6.5-18,7.6-11.1,2-22.3-.3-32.6-6.8-1.2-.7-4.1-2.6-5.1-3.8Z"/>
      </g>
      <g>
        <path class="st3" d="M844.1,568l-3.5,37.2s-16.9,9.1-10.9,22.8c6,13.8,26.5,12,26.5,12,0,0,22.7,2.3,24.8-22.1,2.1-24.4,3.2-45.6,3.2-45.6l-40.1-4.4h0Z"/>
        <path class="st3" d="M859.5,491.4s-17,33-20.9,49c-3.9,16-13.2,35.9-30.7,35.6-20.2-.4-27.4-15.7-25-35.6,3.2-26.4,33.2-59.6,33.2-59.6l43.5,10.6Z"/>
        <path class="st3" d="M947.4,568l3.5,37.2s16.9,9.1,10.9,22.8c-6,13.8-26.5,12-26.5,12,0,0-22.7,2.3-24.8-22.1-2.1-24.4-3.2-45.6-3.2-45.6l40.1-4.4h0Z"/>
        <path class="st3" d="M932,491.4s17,33,20.9,49c3.9,16,13.2,35.9,30.7,35.6,20.2-.4,27.4-15.7,25-35.6-3.2-26.4-33.2-59.6-33.2-59.6l-43.5,10.6Z"/>
        <path class="st5" d="M971.9,535.5c-.8-55.4-48.1-80.1-48.1-80.1h-55.5s-47.3,24.6-48.1,80.1c-1.1,69.8,152.8,69.9,151.7,0h0Z"/>
        <g>
          <path class="st16" d="M897.5,491.5c92.9,0,168.2-40,168.2-133s-75.3-168.3-168.2-168.3h0c-92.9,0-168.2,75.3-168.2,168.3s75.3,133,168.2,133"/>
          <circle class="st2" cx="745.5" cy="260.6" r="63.1"/>
          <circle class="st2" cx="1046.1" cy="260.6" r="63.1"/>
          <g>
            <circle class="st28" cx="796.3" cy="422.8" r="22.6"/>
            <path class="st13" d="M787.8,430.8c-.3,0-.7,0-1-.2-1.8-.6-2.7-2.5-2.2-4.2l3.2-10.1c.6-1.8,2.5-2.7,4.2-2.2,1.8.6,2.7,2.5,2.2,4.2l-3.2,10.1c-.5,1.4-1.8,2.3-3.2,2.3Z"/>
            <path class="st13" d="M800.5,432.9c-.3,0-.7,0-1-.2-1.8-.6-2.7-2.5-2.2-4.2l3.2-10.1c.6-1.8,2.5-2.7,4.2-2.2s2.7,2.5,2.2,4.2l-3.2,10.1c-.5,1.4-1.8,2.3-3.2,2.3Z"/>
          </g>
          <g>
            <circle class="st28" cx="995.1" cy="422.8" r="22.6"/>
            <path class="st13" d="M987.7,430.8c-.3,0-.7,0-1-.2-1.8-.6-2.7-2.5-2.2-4.2l3.2-10.1c.6-1.8,2.5-2.7,4.2-2.2,1.8.6,2.7,2.5,2.2,4.2l-3.2,10.1c-.5,1.4-1.8,2.3-3.2,2.3h0Z"/>
            <path class="st13" d="M1000.4,432.9c-.3,0-.7,0-1-.2-1.8-.6-2.7-2.5-2.2-4.2l3.2-10.1c.6-1.8,2.5-2.7,4.2-2.2s2.7,2.5,2.2,4.2l-3.2,10.1c-.5,1.4-1.8,2.3-3.2,2.3h0Z"/>
          </g>
          <ellipse cx="951.3" cy="403.9" rx="16" ry="18"/>
          <ellipse cx="840.2" cy="403.9" rx="16" ry="18"/>
          <g id="_Mirror_Repeat_">
            <path class="st10" d="M897.3,330.9c3,11.7,10.4,34.7,38.4,40.3,33.5,6.7,53.5-18.9,53.5-18.9,12.2,45.9,60.3,31.2,60.3,31.2.4,32.6-28,78.8-68.3,94.6,62.1-22.2,84.2-74.8,84.2-119.4,0-91.4-72-166.4-168-168.2h0c-96,1.9-168,76.8-168,168.2s22,97.2,84.2,119.4c-40.3-15.7-68.7-62-68.3-94.6,0,0,48.1,14.7,60.3-31.2,0,0,20,25.6,53.5,18.9,28-5.6,35.4-28.6,38.4-40.3"/>
          </g>
          <path class="st8" d="M897.5,491.5c92.9,0,168.2-40,168.2-133s-75.3-168.3-168.2-168.3h0c-92.9,0-168.2,75.3-168.2,168.3s75.3,133,168.2,133h0Z"/>
          <g id="_Mirror_Repeat_-2">
            <path class="st6" d="M917.5,437.5s-1.6,9.6-21.8,9.5c-20.2,0-21.8-9.5-21.8-9.5"/>
          </g>
          <path class="st0" d="M1022.9,207.4c-6.9-2.2-14-.9-19.2,2.9.9-2.2,1.4-4.5,1.4-7,0-10.8-9.3-19.6-20.8-19.6s-20.8,8.8-20.8,19.6,1.8,9.1,4.8,12.5c-.2.2-3-1.6-4.5-2.2-10.8-4.6-23.2.5-27.6,10.8-4.4,10.3.7,22.4,11.5,27.1,1.8.8,3.7,1.3,5.5,1.6-2.2,3.1-3.5,6.8-3.5,10.8,0,10.8,9.5,19.6,21.1,19.6s19.9-7.7,21-17.5c2.5,5.1,7.1,9.3,13.2,11.2,11.1,3.5,22.8-2.1,26-12.4,2.3-7.3-.3-15.1-5.9-20.2,5.7-2,10.4-6.3,12.2-12.2,3.2-10.3-3.2-21.5-14.3-25h0Z"/>
          <ellipse class="st26" cx="987.6" cy="236.1" rx="16.8" ry="13.4"/>
        </g>
      </g>
      <g>
        <g>
          <g>
            <path class="st7" d="M355.1,450.2s-92.8,69.6-59.2,101c36.9,34.5,88.9-73,88.9-73l-29.7-28Z"/>
            <path class="st7" d="M509.5,450.2s92.8,69.6,59.2,101c-36.9,34.5-88.9-73-88.9-73l29.7-28Z"/>
          </g>
          <path class="st27" d="M432.9,447.6h-82.7s1.5,28.2,1.8,31.4c1,11.1-3.2,25.8-3.9,28.4-5.1,22.6-6.5,45.9-3,69.2,2.6,16.9,5.5,30.1,7.3,34.9-28.3,29.6,37.5,33.1,54.4,22.9,19.8-9.2,7.4-30.8,17.6-38.9,1.1-.5,4.5-.7,7.9-.6,3.4,0,6.7.2,7.9.6,10.2,8.1-2.2,29.7,17.6,38.9,16.8,10.2,82.7,6.6,54.4-22.9,1.8-4.8,4.8-18,7.3-34.9,3.5-23.2,2.1-46.5-3-69.2-.7-2.6-4.9-17.3-3.9-28.4.3-3.3,1.8-31.4,1.8-31.4h-82.7"/>
          <path class="st8" d="M348.1,507.5c-5.1,22.6-6.5,45.9-3,69.2,2.6,16.9,5.5,30.1,7.3,34.9-28.3,29.6,37.5,33.1,54.4,22.9,19.8-9.2,7.4-30.8,17.6-38.9,1.1-.5,4.5-.7,7.9-.6,3.4,0,6.7.2,7.9.6,10.2,8.1-2.2,29.7,17.6,38.9,16.8,10.2,82.7,6.6,54.4-22.9,1.8-4.8,4.8-18,7.3-34.9,3.5-23.2,2.1-46.5-3-69.2"/>
          <path class="st9" d="M432.9,447.6"/>
        </g>
        <g>
          <path class="st23" d="M532.9,444.1s-20.5,43.2-97.9,46.1c-77.4,2.9-96.5-42-96.5-42l194.4-4.1h0Z"/>
          <path d="M532.9,444.1s-20.5,43.2-97.9,46.1c-2.4,0-4.8.1-7.1.1-71.5,0-89.4-42.1-89.4-42.1l194.4-4.1M544.1,436.9l-11.3.2-194.4,4.1-10.3.2,4,9.5c.2.5,5.3,12.3,20,23.8,13.1,10.3,36.9,22.6,75.9,22.6s4.9,0,7.3-.1c41.8-1.6,67.6-14.8,81.9-25.6,16-12.1,21.8-24.1,22-24.6l4.8-10.2h0Z"/>
          <path class="st19" d="M359.8,447.8s-8,22,40.9,28.3c48.9,6.3,85.1-10.3,103.5-24.7,4.3-3.3-1.2-5.3-12.2-6.4l-132.2,2.8h0Z"/>
          <path class="st23" d="M382.3,522.2c-.4-3.8,2.1-9.1,2.8-12.9,1.5-8.3,5.8-16.9,12.3-23.2,9.5-9.1,19.6-10.6,31.7-8.9,1.2,12.2-3,24.8-12.5,33.9-9.5,9.1-22.2,12.8-34.4,11.2h0Z"/>
          <path class="st21" d="M375,522.9c-.2-2.3.1-5,.8-7.7.7-2.5,1.7-5.2,2.1-7.3,1.7-9.7,6.8-19.8,14.5-27.2,11.3-10.9,23.3-12.9,37.8-10.9,3.3.5,5.9,3.2,6.3,6.5,1.4,14.3-3.5,29.2-14.7,39.9-11.2,10.8-26.2,15.1-40.5,13.1-3.3-.5-5.9-3.2-6.3-6.5h0ZM382.3,522.2c12.1,1.7,24.9-2,34.4-11.2,9.5-9.1,13.7-21.7,12.5-33.9-12.1-1.7-22.2-.2-31.7,8.9-6.5,6.3-10.9,14.9-12.3,23.2-.7,3.8-3.2,9.1-2.8,12.9h0Z"/>
          <path class="st23" d="M482.1,522.5s-9.1-2.2-12.9-3c-8.3-1.6-16.9-6-23-12.6-9-9.6-10.4-19.7-8.5-31.8,12.2-1.1,29.5,11.5,38.6,21.2,9,9.6,5.9,26.3,5.9,26.3h0Z"/>
          <path class="st21" d="M480.3,529.7s-8.9-2.2-12.5-2.9c-9.7-1.9-19.7-7.1-27-14.8-10.8-11.5-12.6-23.5-10.5-37.9.5-3.3,3.2-5.9,6.6-6.2,6-.5,13.2,1.4,20.2,5,9.3,4.7,18.4,12.2,24.3,18.4,11.2,12,7.8,32.6,7.8,32.6-.4,2-1.5,3.7-3.2,4.8-1.7,1.1-3.8,1.4-5.7,1h0ZM482.1,522.5s3.1-16.6-5.9-26.3c-9-9.6-26.4-22.2-38.6-21.2-1.8,12.1-.5,22.2,8.5,31.8,6.2,6.6,14.8,11,23,12.6,3.8.7,12.9,3,12.9,3h0Z"/>
          <path class="st8" d="M428.7,476.5c-12.1,18.4-20.4,15-31.5,31.8M434.7,474.1c20.2,13,24.4,21.2,32.2,29.9"/>
          <path class="st23" d="M435.1,467.2c5.3,0,9.6,4.2,9.6,9.3s-4.3,9.3-9.6,9.3-10.4-2.1-10.4-7.2,5.1-11.3,10.4-11.3h0Z"/>
          <path class="st21" d="M435.1,459.9c9.4,0,16.9,7.5,16.9,16.6s-7.5,16.6-16.9,16.6-17.7-5.3-17.7-14.5,1.9-8.9,5.1-12.4c3.4-3.8,8.1-6.2,12.7-6.2h0ZM435.1,467.2c-5.3,0-10.4,6.2-10.4,11.3s5.1,7.2,10.4,7.2,9.6-4.2,9.6-9.3-4.3-9.3-9.6-9.3h0Z"/>
          <path class="st17" d="M497,178.1c3.8,4.8,9.3,13.1,9.3,13.1,0,0,8.9-7.3,13.5-8.5,21-5.3,71.6,79.1,66.8,91.3-3.8-2-7.8-3.7-12.1-5-6.5-1.8-14.2-2.1-20.1-5.5-14.3-8.3-25.7-20.9-43.5-21.2-10.9-.2-22.4,1.2-32.9,4.5-14.1,4.4-28.5,10.3-43.2,10.7-14.7-.3-29.1-6.2-43.2-10.7-10.4-3.3-21.9-4.7-32.9-4.5-17.8.3-29.2,12.9-43.5,21.2-5.9,3.4-13.6,3.8-20.1,5.5-2.6.8-5.1,1.7-7.5,2.8.1-.5.3-1,.4-1.5,5.4-28,51.2-91.5,68.4-102.8,4.3-2.8,6-3,10.1-.3,2.9,1.9,7,5.2,14.1,10,2,.2,12.1-14.2,15.9-19.7,9.6-14.1,29.9-45.4,50.2-31.5,17.7,12.2,48.2,49,50,51.9h0Z"/>
          <path d="M436.2,122.6c3.5,0,7.1,1.1,10.6,3.5,17.7,12.2,48.2,49,50,51.9h0c3.8,5,9.3,13.2,9.3,13.2,0,0,8.9-7.3,13.5-8.5.6-.2,1.3-.2,2-.2,22,0,69.4,79.7,64.8,91.6-3.8-2-7.8-3.7-12.1-5-6.5-1.8-14.2-2.1-20.1-5.5-14.3-8.3-25.7-20.9-43.5-21.2-.7,0-1.4,0-2,0-10.3,0-21,1.4-30.8,4.5-14.1,4.4-28.5,10.3-43.2,10.7-14.7-.3-29.1-6.2-43.2-10.7-9.8-3.1-20.5-4.5-30.8-4.5-.7,0-1.4,0-2,0-17.8.3-29.2,12.9-43.5,21.2-5.9,3.4-13.6,3.8-20.1,5.5-2.6.8-5.1,1.7-7.5,2.8.1-.5.3-1,.4-1.5,5.4-28,51.2-91.5,68.4-102.8,2.2-1.4,3.7-2.2,5.3-2.2s2.8.6,4.8,1.9c2.9,1.9,7,5.2,14.1,10,0,0,0,0,0,0,2.1,0,12.1-14.2,15.8-19.7,7.9-11.7,23.1-35,39.6-35M436.2,115.6h0c-19.6,0-35.2,23-44.5,36.8l-.8,1.2c-3.8,5.7-7.9,11.3-10.7,14.6-1.7-1.2-3.2-2.3-4.5-3.3-2-1.5-3.7-2.7-5.1-3.7-2.3-1.5-5.1-3.1-8.6-3.1s-6.6,1.7-9.1,3.3c-11.2,7.3-28.9,29.9-40.6,47-8,11.7-27.2,41-30.9,60.3,0,.2-.1.5-.2.9l-4.2,14.4,13.7-6.1c2.1-.9,4.4-1.8,6.6-2.5,1.8-.5,3.8-.9,6-1.3,5-.9,10.7-2,15.7-4.9,4.1-2.4,8-5.1,11.7-7.7,9.4-6.6,17.6-12.3,28.4-12.5.6,0,1.3,0,1.9,0,10.1,0,20,1.4,28.7,4.2,2.6.8,5.4,1.7,8,2.6,11.9,4,24.2,8.1,37.1,8.4h.2s.2,0,.2,0c12.9-.3,25.2-4.4,37.1-8.4,2.6-.9,5.4-1.8,8-2.6,8.7-2.7,18.6-4.2,28.7-4.2.6,0,1.3,0,1.9,0,10.8.2,19,5.9,28.4,12.5,3.7,2.6,7.5,5.3,11.7,7.7,5,2.9,10.7,4,15.7,4.9,2.1.4,4.1.8,6,1.3,3.7,1.1,7.3,2.7,10.7,4.5l7,3.8,2.9-7.4c1.4-3.5,1.9-9.7-6.2-26.8-5-10.6-12.3-23.2-20-34.5-7.4-10.9-15-20.1-21.7-26.8-9-8.8-16.6-13-23.4-13s-2.5.2-3.7.5c-3.1.8-6.9,3-10.2,5.3-1.6-2.3-3.5-4.9-5.2-7.1-2.4-3.5-33.1-40.9-51.9-53.8-4.6-3.1-9.5-4.7-14.6-4.7h0Z"/>
          <path class="st18" d="M380.8,177.3c2,.2,12.1-14.2,15.9-19.7,9.6-14.1,29.9-45.4,50.2-31.5,17.7,12.2,48.2,49,50,51.9,0,0,0,.1,0,.1,0,0,.7,16.4-9.7,23.4-11.5,7.8-24.3-1.9-30.5-11.7-6.9,11.3-16.9,23.5-32.1,19.4-14.7-4-32.6-22.8-43.8-31.9h0Z"/>
          <path class="st4" d="M586.6,274c.7.4,1.3.7,2,1.1,22,12.8,35.2,37.6,27.7,64-1,3.3-2.7,7-3.4,10.1,1.3,3.3,3.3,6,4.7,9.3,11.2,27.5,1.9,58.4-26.4,70.3-10,4.2-15.5,2.4-25.6,3-10.6,19.8-51.2,39-92.1,21.2-6.9,5.1-22.3,15.3-36.8,14.4-.5,0-1.1,0-1.6-.1-.6,0-1.1,0-1.6.1-14.6.9-29.9-9.4-36.8-14.4-40.9,17.8-81.5-1.4-92.1-21.2-10.1-.7-15.6,1.2-25.6-3-28.3-11.9-37.6-42.9-26.4-70.3,1.4-3.4,3.3-6.1,4.7-9.3-.8-3.2-2.5-6.8-3.4-10.1-7.5-26.4,5.7-51.1,27.7-64,2.1-1.2,4.3-2.3,6.6-3.3,2.4-1.1,4.9-2,7.5-2.8,6.5-1.8,14.2-2.1,20.1-5.5,14.3-8.3,25.7-20.9,43.5-21.2,10.9-.2,22.4,1.2,32.9,4.5,14.1,4.4,28.5,10.3,43.2,10.7,14.7-.3,29.1-6.2,43.2-10.7,10.4-3.3,21.9-4.7,32.9-4.5,17.8.3,29.2,12.9,43.5,21.2,5.9,3.4,13.6,3.8,20.1,5.5,4.2,1.3,8.3,3,12.1,5h0Z"/>
          <path class="st14" d="M329.6,353.7c16.4,0,29.7,13.3,29.7,29.6s-13.3,29.7-29.7,29.6c-16.4,0-29.6-13.3-29.6-29.6s13.3-29.6,29.6-29.6"/>
          <path class="st14" d="M540.2,353.7c16.4,0,29.7,13.3,29.7,29.6,0,16.4-13.3,29.7-29.7,29.6-16.4,0-29.6-13.3-29.6-29.6s13.3-29.6,29.6-29.6"/>
          <path class="st22" d="M382,327.7c8.7,0,15.7,7,15.7,15.7s-7,15.7-15.7,15.7-15.7-7-15.7-15.7,7-15.7,15.7-15.7h0Z"/>
          <path class="st22" d="M488.7,327.7c8.7,0,15.7,7,15.7,15.7s-7,15.7-15.7,15.7-15.7-7-15.7-15.7,7-15.7,15.7-15.7h0Z"/>
          <path class="st22" d="M437.2,348.7c6.6,0,11.9,3.3,11.9,7.4s-5.3,7.4-11.9,7.4-11.9-3.3-11.9-7.4,5.3-7.4,11.9-7.4h0Z"/>
          <path class="st20" d="M407.8,381.7c7.3,2.2,17.7,3,28.1-4.6,0,0,10.1,10,28.3,3,0,0-.8,12.1-3.6,21.9-16.7-4.3-33.4-4.4-50.1-.2-2.6-9.7-2.7-20-2.7-20h0Z"/>
          <path class="st15" d="M410.5,401.7c16.7-4.2,33.4-4.1,50.1.2-3.4,11.8-10.5,24.8-25.3,24.8s-21.7-13.1-24.8-24.9h0Z"/>
          <path class="st6" d="M398,377.1s18.9,13.7,37.9,0c0,0,12.4,12.3,34.5,0M407.8,381.7s.1,10.3,2.7,20M410.5,401.7c3.1,11.8,10,24.9,24.8,24.9s21.8-13,25.3-24.8M460.5,401.9c2.8-9.8,3.6-21.9,3.6-21.9"/>
        </g>
      </g>
    </g>
  </g>
</svg>