<?xml version="1.0" encoding="UTF-8"?>
<svg id="Layer_2" data-name="Layer 2" xmlns="http://www.w3.org/2000/svg" viewBox="0 0 145.78 121.36">
  <defs>
    <style>
      .cls-1 {
        fill: #fff;
      }

      .cls-2 {
        fill: #90de63;
      }

      .cls-3 {
        fill: #f6977e;
      }

      .cls-4 {
        fill: #a52249;
      }
    </style>
  </defs>
  <g id="_디자인" data-name="디자인">
    <g>
      <g>
        <g>
          <g>
            <path class="cls-1" d="M54.04,120.02c6.22.56,10.03-1.63,11.33-5.11,2.05-5.48,2.77-21.57,1.83-26.97-.85-4.88-13.42-5.66-13.17,0,.57,12.74-2.08,20.57-2.08,20.57,0,0-4.81.75-4.81,6.07,0,3.13,2.34,5.03,6.89,5.44Z"/>
            <path d="M55.9,121.36c-.64,0-1.29-.03-1.97-.09h0c-6.98-.62-8.03-4.46-8.03-6.68,0-4.44,2.97-6.48,5.07-7.12.59-2.1,2.29-9.18,1.83-19.46-.13-2.81,2.08-4.8,5.75-5.2,4.27-.47,9.27,1.29,9.9,4.93.94,5.38.33,21.68-1.9,27.62-1.45,3.87-5.28,6-10.65,6ZM54.15,118.78c5.19.47,8.86-1.1,10.05-4.3,1.99-5.33,2.64-21.32,1.77-26.32-.32-1.84-3.81-3.23-7.17-2.87-1.09.12-3.61.61-3.52,2.6.57,12.83-2.04,20.7-2.15,21.02-.15.44-.53.76-.99.83-.38.06-3.75.76-3.75,4.83,0,2.44,1.94,3.85,5.75,4.19h0Z"/>
          </g>
          <path d="M51.96,109.76c-.57,0-1.08-.39-1.22-.97-.16-.67.26-1.34.93-1.5.05-.01,1.18-.27,2.34-.27h0c.69,0,1.25.56,1.25,1.25,0,.69-.56,1.25-1.25,1.25,0,0,0,0,0,0-.87,0-1.76.21-1.77.21-.09.02-.19.03-.28.03Z"/>
        </g>
        <g>
          <g>
            <path class="cls-1" d="M91.74,120.02c-6.22.56-10.03-1.63-11.33-5.11-2.05-5.48-2.77-21.57-1.83-26.97.85-4.88,13.42-5.66,13.17,0-.57,12.74,2.08,20.57,2.08,20.57,0,0,4.81.75,4.81,6.07,0,3.13-2.34,5.03-6.89,5.44Z"/>
            <path d="M89.88,121.36c-5.37,0-9.2-2.13-10.65-6-2.22-5.94-2.83-22.24-1.9-27.62.63-3.64,5.63-5.39,9.9-4.93,3.67.4,5.87,2.39,5.74,5.2-.46,10.29,1.24,17.36,1.83,19.46,2.09.64,5.07,2.67,5.07,7.12,0,2.23-1.04,6.06-8.03,6.68h0c-.68.06-1.34.09-1.97.09ZM91.74,120.02h0,0ZM85.88,85.23c-2.99,0-5.79,1.29-6.07,2.93-.87,4.99-.22,20.98,1.77,26.32,1.19,3.2,4.86,4.76,10.05,4.3,3.82-.34,5.75-1.75,5.75-4.19,0-4.08-3.37-4.77-3.76-4.83-.45-.08-.83-.4-.98-.83-.11-.33-2.72-8.2-2.15-21.02.09-1.99-2.43-2.48-3.52-2.6-.37-.04-.73-.06-1.1-.06Z"/>
          </g>
          <path d="M93.82,109.76c-.09,0-.19-.01-.28-.03,0,0-.91-.21-1.77-.21,0,0,0,0,0,0-.69,0-1.25-.56-1.25-1.25,0-.69.6-1.24,1.26-1.25,1.16,0,2.29.26,2.34.27.67.16,1.09.83.93,1.5-.13.58-.65.97-1.22.97Z"/>
        </g>
        <g>
          <path class="cls-1" d="M144.52,60.15c-.34,5.01-5.41,7.16-8.4,7.63-10.28,1.64-18-2.44-22.79-6-2.91-2.17-6.2-5.2-5.04-8.42,1.05-2.92,4.46-2.69,6.87-1.32,1.94,1.1,6.85,4.28,13.88,3.39,3.84-.49,6.21-2.77,9.52-2.47,3.39.31,6.19,3.73,5.96,7.19Z"/>
          <path d="M131.45,69.41c-6.62,0-12.95-2.22-18.87-6.63-3.05-2.27-6.94-5.77-5.47-9.85.49-1.36,1.42-2.32,2.71-2.8,1.72-.63,3.94-.33,5.95.82l.4.23c2.12,1.23,6.53,3.78,12.7,3,1.55-.2,2.88-.73,4.17-1.25,1.72-.69,3.5-1.41,5.63-1.22,4.06.37,7.37,4.35,7.09,8.52h0c-.39,5.81-6.13,8.25-9.45,8.78-1.64.26-3.26.39-4.86.39ZM111.73,52.31c-.38,0-.74.05-1.04.17-.59.22-.98.64-1.22,1.3-.68,1.89.83,4.18,4.61,7,6.79,5.06,14.14,7,21.84,5.77,2.6-.41,7.06-2.24,7.35-6.48h0c.19-2.82-2.11-5.61-4.83-5.86-1.52-.14-2.89.41-4.46,1.05-1.37.55-2.92,1.18-4.79,1.42-7.02.89-12.1-2.06-14.27-3.32l-.38-.22c-.93-.53-1.94-.81-2.81-.81ZM144.52,60.15h0,0Z"/>
        </g>
        <g>
          <path class="cls-1" d="M1.26,60.15c.34,5.01,5.41,7.16,8.4,7.63,10.28,1.64,18-2.44,22.79-6,2.91-2.17,6.2-5.2,5.04-8.42-1.05-2.92-4.46-2.69-6.87-1.32-1.94,1.1-6.85,4.28-13.88,3.39-3.84-.49-6.21-2.77-9.52-2.47-3.39.31-6.19,3.73-5.96,7.19Z"/>
          <path d="M14.33,69.41c-1.6,0-3.23-.13-4.86-.39-3.33-.53-9.06-2.97-9.45-8.78H.02c-.28-4.17,3.03-8.15,7.09-8.52,2.14-.2,3.91.52,5.63,1.22,1.29.52,2.61,1.06,4.17,1.25,6.17.78,10.58-1.77,12.7-3l.4-.23c2.01-1.14,4.24-1.45,5.95-.82,1.28.47,2.22,1.44,2.71,2.8,1.47,4.08-2.42,7.58-5.47,9.85-5.92,4.41-12.24,6.63-18.87,6.63ZM2.51,60.07c.29,4.24,4.75,6.07,7.35,6.48,7.71,1.23,15.06-.71,21.84-5.77,3.78-2.82,5.29-5.11,4.61-7-.24-.66-.64-1.08-1.22-1.3-1-.37-2.51-.12-3.85.64l-.38.22c-2.17,1.26-7.26,4.21-14.27,3.32-1.87-.24-3.42-.86-4.79-1.42-1.57-.64-2.93-1.19-4.46-1.05-2.72.25-5.02,3.04-4.83,5.86h0Z"/>
        </g>
        <g>
          <path class="cls-2" d="M110.96,26.88C95.69,6.22,72.89,1.25,72.89,1.25c0,0-22.8,4.97-38.07,25.63-8.96,12.12-10.65,28.11-6.93,41.52,5,18.04,18.26,25.52,26.86,27.3,7.34,1.52,13.2.07,18.15.07s10.81,1.44,18.15-.07c8.59-1.78,21.85-9.26,26.86-27.3,3.72-13.41,2.03-29.4-6.93-41.52Z"/>
          <path d="M83.96,97.64c-2.27,0-4.38-.18-6.35-.35-1.67-.14-3.26-.28-4.72-.28s-3.05.13-4.72.28c-3.94.33-8.42.71-13.68-.38-10.25-2.12-22.94-10.64-27.81-28.19-4.16-15.01-1.5-30.93,7.13-42.6C49.19,5.34,71.67.24,72.62.03c.17-.04.36-.04.53,0,.95.21,23.43,5.31,38.81,26.11,8.63,11.67,11.29,27.59,7.13,42.6-4.87,17.55-17.56,26.07-27.81,28.19-2.63.54-5.06.72-7.33.72ZM72.89,94.52c1.57,0,3.2.14,4.93.29,3.77.32,8.05.68,12.96-.33,9.53-1.97,21.34-9.94,25.9-26.41,3.9-14.06,1.32-29.55-6.73-40.44h0C96.03,8.79,75.47,3.18,72.89,2.54c-2.58.64-23.14,6.26-37.07,25.09-8.05,10.89-10.63,26.38-6.73,40.44,4.57,16.46,16.38,24.43,25.9,26.41,4.91,1.02,9.19.65,12.96.33,1.73-.15,3.36-.29,4.93-.29Z"/>
        </g>
      </g>
      <g>
        <rect x="59.38" y="30.14" width="6.33" height="6.33" rx="2.93" ry="2.93"/>
        <rect x="80.06" y="30.14" width="6.33" height="6.33" rx="2.93" ry="2.93"/>
      </g>
      <g>
        <path class="cls-4" d="M81.45,39.04s-2.25-.51-8.55-.51-8.55.51-8.55.51c0,0-.23,8.6,8.55,8.6s8.55-8.6,8.55-8.6Z"/>
        <path class="cls-1" d="M64.76,41.62c.9-.14,3.35-.43,8.13-.43s7.23.29,8.13.43l.05.07c.4-1.48.37-2.65.37-2.65,0,0-2.25-.51-8.55-.51s-8.55.51-8.55.51c0,0-.03,1.19.38,2.68l.04-.1Z"/>
        <path d="M72.89,48.52c-2.87,0-5.16-.86-6.8-2.55-2.71-2.78-2.63-6.78-2.63-6.95.01-.4.29-.74.68-.83.1-.02,2.42-.53,8.75-.53s8.65.51,8.75.53c.39.09.67.43.68.83,0,.17.08,4.17-2.63,6.95-1.65,1.69-3.94,2.55-6.8,2.55ZM65.25,39.78c.11,1.13.52,3.36,2.1,4.98,1.3,1.33,3.17,2.01,5.54,2.01s4.24-.68,5.55-2.02c1.58-1.63,1.99-3.84,2.1-4.97-1.08-.14-3.46-.37-7.65-.37s-6.56.23-7.64.37Z"/>
      </g>
      <circle class="cls-3" cx="51.64" cy="41.47" r="7.11"/>
      <circle class="cls-3" cx="94.14" cy="41.47" r="7.11"/>
    </g>
  </g>
</svg>