<?xml version="1.0" encoding="UTF-8"?>
<svg id="Layer_2" data-name="Layer 2" xmlns="http://www.w3.org/2000/svg" viewBox="0 0 96.27 121.27">
  <defs>
    <style>
      .cls-1 {
        fill: #fff;
      }

      .cls-2 {
        fill: #90de63;
      }

      .cls-3 {
        fill: #f6977e;
      }

      .cls-4 {
        fill: #a52249;
      }
    </style>
  </defs>
  <g id="_디자인" data-name="디자인">
    <g>
      <g>
        <g>
          <path class="cls-1" d="M46.92,120.02c5.82,0,9.8-1.63,10.59-5.11,1.25-5.48-.37-21.57-2.1-26.97-1.56-4.88-14.25-5.66-13.17,0,2.43,12.74.92,20.57.92,20.57,0,0-5.22,1.62-4.45,6.94.46,3.13,3.58,4.57,8.21,4.57Z"/>
          <path d="M46.92,121.27c-7.5,0-9.14-3.53-9.44-5.64-.66-4.49,2.36-7.05,4.56-8.03.28-2.13.93-9.18-1.02-19.43-.47-2.45,1-4.42,3.83-5.14,4.32-1.1,10.53.67,11.76,4.52,1.72,5.38,3.48,21.68,2.13,27.63-.9,3.92-5.09,6.08-11.81,6.08ZM47.5,85.23c-.72,0-1.42.08-2.04.23-2.3.59-2.06,1.83-1.99,2.25,2.44,12.83.98,20.71.92,21.04-.09.45-.42.82-.86.96-.42.14-4.18,1.47-3.58,5.57.42,2.89,4.02,3.5,6.97,3.5,3.15,0,8.55-.54,9.37-4.13,1.14-5-.32-20.84-2.07-26.31-.61-1.9-3.86-3.09-6.72-3.09Z"/>
        </g>
        <path d="M43.16,109.76c-.52,0-1-.32-1.18-.83-.23-.65.11-1.36.76-1.59.04-.02,1.12-.39,2.29-.51.68-.07,1.3.43,1.37,1.12.07.69-.43,1.3-1.12,1.37-.85.09-1.7.38-1.71.38-.14.05-.28.07-.42.07Z"/>
      </g>
      <path class="cls-2" d="M86.21,26.88C70.93,6.22,48.14,1.25,48.14,1.25c0,0-22.8,4.97-38.07,25.63C1.1,39-.59,54.99,3.13,68.4c5,18.04,18.26,25.52,26.86,27.3,7.34,1.52,28.96,1.52,36.3,0,8.59-1.78,21.85-9.26,26.86-27.3,3.72-13.41,2.03-29.4-6.93-41.52Z"/>
      <g>
        <path class="cls-1" d="M58.28,60.51c0,4.87-2.32,8.83-7.34,8.83s-7.34-3.95-7.34-8.83,2.33-8.83,7.34-8.83,7.34,3.95,7.34,8.83Z"/>
        <path d="M50.94,70.59c-5.22,0-8.59-3.95-8.59-10.08s3.37-10.08,8.59-10.08,8.59,3.95,8.59,10.08-3.37,10.08-8.59,10.08ZM50.94,52.94c-5.65,0-6.09,5.8-6.09,7.58s.44,7.58,6.09,7.58,6.09-5.8,6.09-7.58-.44-7.58-6.09-7.58Z"/>
      </g>
      <rect x="12.31" y="30.14" width="4.92" height="6.33" rx="2.46" ry="2.46"/>
      <g>
        <path class="cls-4" d="M3.96,38.54c-1.02,2.95-1.74,5.98-2.17,9.05.32.04.65.06,1.02.06,7.51,0,8.69-8.6,8.69-8.6,0,0-1.84-.51-7.23-.51-.11,0-.2,0-.31,0Z"/>
        <path class="cls-1" d="M3.96,38.54c-.3.88-.58,1.76-.83,2.65.23,0,.47,0,.71,0,4.09,0,6.13.29,6.88.43l.03.07c.58-1.48.74-2.65.74-2.65,0,0-1.84-.51-7.23-.51-.11,0-.2,0-.31,0Z"/>
        <path d="M2.8,48.52c-.4,0-.77-.03-1.12-.07-.23-.03-.45-.15-.59-.33-.14-.19-.21-.42-.17-.66.45-3.16,1.19-6.26,2.21-9.21.12-.35.45-.59.82-.59h.31c5.45,0,7.38.52,7.46.54.42.12.69.53.63.96-.01.09-1.38,9.36-9.56,9.36ZM2.79,46.77h0c5.42,0,7.18-5.01,7.66-7.03-.94-.14-2.79-.32-5.88-.33-.79,2.37-1.39,4.84-1.79,7.36Z"/>
      </g>
      <ellipse class="cls-3" cx="23.84" cy="41.47" rx="6.08" ry="7.11"/>
      <path d="M48.14,98.09c-7.31,0-14.62-.39-18.4-1.17-10.25-2.12-22.94-10.64-27.81-28.19-4.16-15.01-1.5-30.93,7.13-42.6C24.44,5.34,46.92.24,47.87.03c.17-.04.36-.04.53,0,.95.21,23.43,5.31,38.81,26.11,8.63,11.67,11.29,27.59,7.13,42.6-4.87,17.55-17.56,26.07-27.81,28.19-3.78.78-11.09,1.17-18.4,1.17ZM48.14,2.54c-2.58.64-23.14,6.26-37.07,25.09C3.02,38.51.44,54.01,4.34,68.06c4.57,16.46,16.38,24.43,25.9,26.41,7.19,1.49,28.6,1.49,35.79,0,9.53-1.97,21.34-9.94,25.9-26.41,3.9-14.06,1.32-29.55-6.73-40.44h0C71.28,8.79,50.72,3.18,48.14,2.54Z"/>
    </g>
  </g>
</svg>