<?xml version="1.0" encoding="UTF-8"?>
<svg id="Layer_2" data-name="Layer 2" xmlns="http://www.w3.org/2000/svg" viewBox="0 0 96.27 121.27">
  <defs>
    <style>
      .cls-1 {
        fill: #fff;
      }

      .cls-2 {
        fill: #90de63;
      }

      .cls-3 {
        fill: #f6977e;
      }

      .cls-4 {
        fill: #a52249;
      }
    </style>
  </defs>
  <g id="_디자인" data-name="디자인">
    <g>
      <g>
        <g>
          <path class="cls-1" d="M49.35,120.02c-5.82,0-9.8-1.63-10.59-5.11-1.25-5.48.37-21.57,2.1-26.97,1.56-4.88,14.25-5.66,13.17,0-2.43,12.74-.92,20.57-.92,20.57,0,0,5.22,1.62,4.45,6.94-.46,3.13-3.58,4.57-8.21,4.57Z"/>
          <path d="M49.35,121.27c-6.72,0-10.91-2.16-11.81-6.08-1.36-5.95.41-22.25,2.13-27.63,1.23-3.85,7.44-5.62,11.76-4.52,2.83.72,4.29,2.69,3.83,5.14-1.95,10.24-1.3,17.3-1.02,19.43,2.19.98,5.21,3.53,4.56,8.03-.31,2.11-1.94,5.64-9.44,5.64ZM48.77,85.23c-2.86,0-6.12,1.19-6.72,3.09-1.75,5.47-3.21,21.31-2.07,26.31.82,3.6,6.22,4.13,9.37,4.13,2.95,0,6.55-.61,6.97-3.5.6-4.1-3.16-5.43-3.59-5.57-.43-.14-.76-.51-.85-.95-.06-.33-1.53-8.21.92-21.04.08-.41.32-1.66-1.99-2.25-.62-.16-1.32-.23-2.04-.23Z"/>
        </g>
        <path d="M53.11,109.76c-.14,0-.28-.02-.41-.07,0,0-.85-.29-1.71-.38-.69-.07-1.19-.68-1.12-1.37.07-.69.69-1.19,1.37-1.12,1.16.12,2.24.49,2.29.51.65.23.99.94.76,1.59-.18.51-.66.84-1.18.84Z"/>
      </g>
      <path class="cls-2" d="M10.06,26.88C25.34,6.22,48.14,1.25,48.14,1.25c0,0,22.8,4.97,38.07,25.63,8.96,12.12,10.65,28.11,6.93,41.52-5,18.04-18.26,25.52-26.86,27.3-7.34,1.52-28.96,1.52-36.3,0-8.59-1.78-21.85-9.26-26.86-27.3-3.72-13.41-2.03-29.4,6.93-41.52Z"/>
      <g>
        <path class="cls-1" d="M38,60.51c0,4.87,2.32,8.83,7.34,8.83,5.02,0,7.34-3.95,7.34-8.83,0-4.87-2.33-8.83-7.34-8.83-5,0-7.34,3.95-7.34,8.83Z"/>
        <path d="M45.33,70.59c-5.22,0-8.59-3.95-8.59-10.08s3.37-10.08,8.59-10.08,8.59,3.95,8.59,10.08-3.37,10.08-8.59,10.08ZM45.33,52.94c-5.65,0-6.09,5.8-6.09,7.58s.44,7.58,6.09,7.58,6.09-5.8,6.09-7.58-.44-7.58-6.09-7.58Z"/>
      </g>
      <rect x="79.05" y="30.14" width="4.92" height="6.33" rx="2.46" ry="2.46"/>
      <g>
        <path class="cls-4" d="M92.32,38.54c1.02,2.95,1.74,5.98,2.17,9.05-.32.04-.65.06-1.02.06-7.51,0-8.69-8.6-8.69-8.6,0,0,1.84-.51,7.23-.51.11,0,.2,0,.31,0Z"/>
        <path class="cls-1" d="M92.32,38.54c.3.88.58,1.76.83,2.65-.23,0-.47,0-.71,0-4.09,0-6.13.29-6.88.43l-.03.07c-.58-1.48-.74-2.65-.74-2.65,0,0,1.84-.51,7.23-.51.11,0,.2,0,.31,0Z"/>
        <path d="M93.47,48.52c-8.18,0-9.55-9.26-9.56-9.36-.06-.43.21-.85.63-.96.08-.02,2.02-.54,7.46-.54h.31c.37,0,.7.24.82.59,1.02,2.95,1.77,6.05,2.21,9.21.03.23-.03.47-.17.66-.14.19-.36.31-.59.33-.35.04-.72.07-1.12.07ZM85.81,39.74c.49,2.02,2.24,7.03,7.66,7.03h0c-.41-2.52-1.01-4.99-1.79-7.36-3.09.01-4.93.2-5.88.33Z"/>
      </g>
      <ellipse class="cls-3" cx="72.43" cy="41.47" rx="6.08" ry="7.11"/>
      <path d="M48.14,98.09c-7.31,0-14.62-.39-18.4-1.17-10.25-2.12-22.94-10.64-27.81-28.19-4.16-15.01-1.5-30.93,7.13-42.6C24.44,5.34,46.92.24,47.87.03c.17-.04.36-.04.53,0,.95.21,23.43,5.31,38.81,26.11,8.63,11.67,11.29,27.59,7.13,42.6-4.87,17.55-17.56,26.07-27.81,28.19-3.78.78-11.09,1.17-18.4,1.17ZM11.07,27.62C3.02,38.51.44,54.01,4.34,68.06c4.57,16.46,16.38,24.43,25.9,26.41,7.19,1.49,28.6,1.49,35.79,0,9.53-1.97,21.34-9.94,25.9-26.41,3.9-14.06,1.32-29.55-6.73-40.44C71.28,8.79,50.72,3.18,48.14,2.54c-2.58.64-23.14,6.26-37.07,25.09h0Z"/>
    </g>
  </g>
</svg>