<?xml version="1.0" encoding="UTF-8"?>
<svg id="Layer_2" data-name="Layer 2" xmlns="http://www.w3.org/2000/svg" viewBox="0 0 385.26 587.34">
  <defs>
    <style>
      .cls-1 {
        fill: #fc8da9;
      }

      .cls-2 {
        fill: #fec6d4;
      }

      .cls-3 {
        fill: #fff;
      }

      .cls-4 {
        fill: #f16c8b;
      }

      .cls-5 {
        fill: #fea8b8;
      }

      .cls-6 {
        fill: #f9fbff;
      }

      .cls-7 {
        fill: #ffc6d5;
      }

      .cls-8 {
        fill: #f47591;
      }

      .cls-9 {
        fill: #f16b89;
      }

      .cls-10 {
        fill: #9fe0ab;
      }

      .cls-11 {
        fill: #e95c7f;
      }

      .cls-12 {
        fill: #ffdce1;
      }
    </style>
  </defs>
  <g id="Layer_1-2" data-name="Layer 1">
    <g>
      <g>
        <g>
          <path class="cls-3" d="M146.5,344.26l-3.11,33.13s-15.02,8.08-9.71,20.34c5.31,12.27,23.57,10.72,23.57,10.72,0,0,20.23,2.07,22.08-19.67s2.88-40.64,2.88-40.64l-35.72-3.88h.01Z"/>
          <path d="M155.19,411.02c-5.43,0-18.98-1.16-23.8-12.29-4.6-10.64,3.72-19.2,9.63-22.85l2.99-31.85c.06-.67.39-1.28.91-1.7.52-.42,1.18-.62,1.85-.55l35.72,3.88c1.32.14,2.3,1.3,2.23,2.62,0,.19-1.06,19.18-2.89,40.71-.63,7.37-3.29,13.05-7.91,16.88-6.66,5.52-15.11,5.2-16.67,5.09-.35.02-1.07.06-2.05.06h-.01ZM148.75,347.02l-2.87,30.6c-.08.83-.57,1.57-1.3,1.97-.53.29-12.92,7.16-8.6,17.15,4.52,10.45,20.9,9.23,21.06,9.22.15-.01.31-.01.46,0,.07,0,7.68.68,13.25-3.97,3.53-2.94,5.58-7.46,6.08-13.42,1.45-17.03,2.41-32.46,2.74-38.2l-30.83-3.35h0Z"/>
        </g>
        <g>
          <path class="cls-3" d="M160.27,276.05s-15.14,29.43-18.6,43.69c-3.45,14.25-11.78,31.96-27.38,31.68-18.01-.33-24.45-13.97-22.29-31.68,2.86-23.5,29.54-53.12,29.54-53.12l38.73,9.43Z"/>
          <path d="M114.69,353.92h-.43c-8.08-.15-14.41-2.78-18.79-7.81-5.27-6.06-7.33-15.28-5.94-26.67,2.92-24.01,29.05-53.26,30.17-54.49.62-.68,1.56-.97,2.45-.76l38.73,9.43c.74.18,1.36.69,1.68,1.39s.3,1.5-.05,2.18c-.15.29-15.04,29.33-18.39,43.13-2.46,10.14-10.23,33.59-29.42,33.59h-.01ZM122.43,269.4c-4.77,5.55-25.52,30.69-27.94,50.63-1.21,9.94.44,17.82,4.75,22.78,3.41,3.92,8.49,5.97,15.1,6.09h.31c16.11,0,22.89-22.76,24.59-29.77,2.89-11.91,13.48-33.64,17.37-41.41l-34.19-8.33h.01Z"/>
        </g>
        <g>
          <path class="cls-3" d="M238.6,344.26l3.11,33.13s15.02,8.08,9.71,20.34c-5.31,12.27-23.57,10.72-23.57,10.72,0,0-20.23,2.07-22.08-19.67-1.85-21.74-2.88-40.64-2.88-40.64l35.72-3.88h0Z"/>
          <path d="M229.9,411.02c-.98,0-1.7-.04-2.05-.06-1.57.11-10.01.43-16.67-5.09-4.62-3.83-7.29-9.51-7.91-16.88-1.83-21.53-2.88-40.52-2.89-40.71-.07-1.33.91-2.48,2.23-2.62l35.72-3.88c.67-.07,1.33.13,1.85.55.52.42.85,1.04.91,1.7l2.99,31.85c5.92,3.66,14.24,12.22,9.63,22.85-4.82,11.13-18.36,12.29-23.8,12.29h-.01ZM227.84,405.95h.21c.16.02,16.54,1.24,21.06-9.22,4.32-9.99-8.07-16.86-8.6-17.15-.73-.4-1.22-1.14-1.3-1.97l-2.87-30.6-30.83,3.35c.34,5.74,1.29,21.17,2.74,38.2.51,5.98,2.57,10.51,6.12,13.45,5.62,4.66,13.14,3.95,13.22,3.94.08,0,.17-.01.25-.01h0Z"/>
        </g>
        <g>
          <path class="cls-3" d="M224.82,276.05s15.14,29.43,18.6,43.69c3.45,14.25,11.78,31.96,27.38,31.68,18.01-.33,24.45-13.97,22.29-31.68-2.86-23.5-29.54-53.12-29.54-53.12l-38.73,9.43Z"/>
          <path d="M270.4,353.92c-19.2,0-26.96-23.45-29.42-33.59-3.34-13.8-18.24-42.84-18.39-43.13-.35-.68-.37-1.49-.05-2.18.32-.7.94-1.21,1.68-1.39l38.73-9.43c.89-.21,1.83.07,2.45.76,1.11,1.23,27.25,30.48,30.17,54.49,1.38,11.38-.67,20.6-5.94,26.67-4.38,5.04-10.7,7.66-18.79,7.81h-.44ZM228.47,277.73c3.9,7.78,14.48,29.5,17.37,41.41,1.7,7.01,8.48,29.77,24.59,29.77h.31c6.61-.12,11.69-2.17,15.11-6.09,4.32-4.96,5.96-12.84,4.75-22.78-2.42-19.96-23.17-45.08-27.94-50.63l-34.19,8.33h0Z"/>
        </g>
        <g>
          <path class="cls-1" d="M260.42,315.29c-.75-49.4-42.87-71.35-42.87-71.35h-49.46s-42.11,21.95-42.87,71.35c-.95,62.2,136.14,62.24,135.19,0h.01Z"/>
          <path d="M192.84,364.43c-17,0-34-3.78-46.94-11.34-15.4-9-23.41-22.08-23.17-37.83.4-26.3,12.38-44.89,22.37-55.85,10.8-11.85,21.4-17.45,21.84-17.68l.54-.28h50.69l.54.28c.45.23,11.05,5.83,21.84,17.68,9.98,10.96,21.97,29.55,22.37,55.85h0c.24,15.76-7.77,28.85-23.17,37.84-12.93,7.55-29.92,11.33-46.91,11.33h0ZM168.74,246.44c-4.71,2.69-40.33,24.52-41.01,68.89-.27,17.49,11.11,27.84,20.7,33.44,24.49,14.31,64.33,14.31,88.81,0,9.59-5.6,20.96-15.95,20.69-33.45h0c-.68-44.36-36.29-66.19-41.01-68.89h-48.18Z"/>
        </g>
        <g>
          <path class="cls-3" d="M194.15,276.17c82.78,0,149.89-35.67,149.89-118.48S276.93,7.74,194.15,7.74h-.07C111.3,7.74,44.19,74.87,44.19,157.69s67.11,118.48,149.89,118.48"/>
          <g>
            <circle class="cls-7" cx="58.73" cy="70.44" r="56.23"/>
            <path d="M58.73,129.17C26.35,129.17,0,102.82,0,70.44S26.35,11.71,58.73,11.71s58.73,26.35,58.73,58.73-26.35,58.73-58.73,58.73ZM58.73,16.71c-29.63,0-53.73,24.1-53.73,53.73s24.1,53.73,53.73,53.73,53.73-24.1,53.73-53.73-24.1-53.73-53.73-53.73Z"/>
          </g>
          <g>
            <circle class="cls-7" cx="326.53" cy="70.44" r="56.23"/>
            <path d="M326.53,129.17c-32.38,0-58.73-26.35-58.73-58.73s26.35-58.73,58.73-58.73,58.73,26.35,58.73,58.73-26.35,58.73-58.73,58.73ZM326.53,16.71c-29.63,0-53.73,24.1-53.73,53.73s24.1,53.73,53.73,53.73,53.73-24.1,53.73-53.73-24.1-53.73-53.73-53.73Z"/>
          </g>
          <g>
            <circle class="cls-12" cx="103.99" cy="214.94" r="20.11"/>
            <path class="cls-2" d="M96.37,222.06c-.3,0-.61-.05-.91-.14-1.58-.5-2.45-2.19-1.95-3.77l2.86-8.96c.5-1.58,2.19-2.45,3.77-1.95s2.45,2.19,1.95,3.77l-2.86,8.96c-.41,1.27-1.59,2.09-2.86,2.09h0Z"/>
            <path class="cls-2" d="M107.71,223.9c-.3,0-.61-.05-.91-.14-1.58-.5-2.45-2.19-1.95-3.77l2.86-8.96c.5-1.58,2.19-2.45,3.77-1.95s2.45,2.19,1.95,3.77l-2.86,8.96c-.41,1.27-1.59,2.09-2.86,2.09h0Z"/>
          </g>
          <g>
            <circle class="cls-12" cx="281.1" cy="214.94" r="20.11"/>
            <path class="cls-2" d="M274.44,222.06c-.3,0-.61-.05-.91-.14-1.58-.5-2.45-2.19-1.95-3.77l2.86-8.96c.5-1.58,2.19-2.45,3.77-1.95s2.45,2.19,1.95,3.77l-2.86,8.96c-.41,1.27-1.59,2.09-2.86,2.09h0Z"/>
            <path class="cls-2" d="M285.78,223.9c-.3,0-.61-.05-.91-.14-1.58-.5-2.45-2.19-1.95-3.77l2.86-8.96c.5-1.58,2.19-2.45,3.77-1.95s2.45,2.19,1.95,3.77l-2.86,8.96c-.41,1.28-1.59,2.09-2.86,2.09h0Z"/>
          </g>
          <ellipse cx="242.07" cy="198.11" rx="14.25" ry="16"/>
          <ellipse cx="143.02" cy="198.11" rx="14.25" ry="16"/>
          <g id="_Mirror_Repeat_" data-name="&amp;lt;Mirror Repeat&amp;gt;">
            <g>
              <path class="cls-7" d="M193.97,133.05c2.63,10.41,9.25,30.88,34.2,35.89,29.85,6,47.67-16.86,47.67-16.86,10.89,40.86,53.74,27.79,53.74,27.79.38,29.01-24.97,70.22-60.88,84.25,55.35-19.81,74.98-66.61,74.98-106.42,0-81.45-64.15-148.21-149.71-149.89h-.07C108.34,9.49,44.19,76.25,44.19,157.7c0,39.81,19.63,86.61,74.98,106.42-35.91-14.03-61.25-55.24-60.88-84.25,0,0,42.85,13.07,53.74-27.79,0,0,17.81,22.85,47.67,16.86,24.95-5.01,31.56-25.48,34.2-35.89"/>
              <path class="cls-1" d="M268.7,265.62c-.61,0-1.18-.37-1.41-.97-.29-.77.1-1.62.86-1.92,34.95-13.65,59.16-53.02,59.91-80.9-5.49,1.3-21.42,4.05-35.09-3.55-8.45-4.69-14.43-12.48-17.82-23.18-5.42,5.62-22.38,20.32-47.28,15.32-22.78-4.58-30.76-21.74-33.93-31.86-3.17,10.13-11.15,27.29-33.93,31.86-24.9,5-41.85-9.7-47.28-15.32-3.39,10.7-9.38,18.49-17.82,23.18-13.67,7.59-29.6,4.85-35.09,3.55.75,27.88,24.96,67.25,59.91,80.9.76.3,1.15,1.15.86,1.92-.29.77-1.14,1.17-1.91.89-25.9-9.27-45.76-24.86-59.02-46.34-14.01-22.7-16.96-45.97-16.96-61.5,0-40.08,15.34-77.69,43.2-105.91C114.04,23.28,152.39,7.13,193.88,6.31h.13c41.49.82,79.83,16.97,107.98,45.48,27.86,28.22,43.2,65.84,43.2,105.91,0,15.53-2.94,38.8-16.96,61.5-13.26,21.48-33.12,37.07-59.02,46.34-.17.06-.34.09-.51.09h0ZM193.94,9.3C110.81,10.94,45.69,76.12,45.69,157.69c0,15.47,3.76,61.69,45.63,90.65-21.48-19.32-34.79-47.44-34.52-68.49,0-.47.23-.91.62-1.19.38-.28.87-.36,1.32-.22.19.06,19.4,5.74,34.73-2.8,8.37-4.66,14.13-12.71,17.13-23.94.15-.55.59-.97,1.15-1.08.56-.11,1.13.1,1.48.55.17.22,17.64,22.04,46.19,16.31,25.54-5.13,31.18-27.45,33.04-34.79.17-.69.84-1.14,1.49-1.13.71,0,1.31.44,1.49,1.13,1.85,7.33,7.49,29.66,33.04,34.79,28.61,5.75,46.02-16.09,46.19-16.31.35-.45.92-.66,1.48-.55s1,.53,1.15,1.08c2.99,11.23,8.75,19.28,17.13,23.94,15.34,8.53,34.54,2.86,34.73,2.8.45-.14.94-.05,1.32.22.38.28.61.72.62,1.19.27,21.06-13.04,49.18-34.52,68.49,41.86-28.96,45.62-75.18,45.62-90.65,0-81.57-65.11-146.75-148.24-148.39h-.02Z"/>
            </g>
          </g>
          <path d="M194.15,278.67h-.07c-43.9,0-81.05-9.91-107.44-28.65-29.83-21.19-44.95-52.25-44.95-92.33C41.69,73.63,110.05,5.24,194.08,5.24s152.46,68.39,152.46,152.45c0,40.08-15.12,71.14-44.95,92.33-26.38,18.74-63.53,28.65-107.44,28.65h0ZM194.15,10.24c-81.34,0-147.46,66.14-147.46,147.45,0,72.62,55.1,115.98,147.39,115.98h.07c92.29,0,147.39-43.36,147.39-115.98,0-81.3-66.12-147.45-147.39-147.45Z"/>
          <g id="_Mirror_Repeat_1" data-name="&amp;lt;Mirror Repeat&amp;gt;1">
            <path d="M192.55,238.99c-19.84,0-21.8-10.15-21.87-10.59-.23-1.36.68-2.65,2.05-2.88s2.65.69,2.88,2.05h0s1.69,6.42,16.94,6.42,16.94-6.43,16.96-6.49c.23-1.36,1.53-2.24,2.88-2.01,1.36.23,2.27,1.56,2.04,2.92-.07.43-2.03,10.59-21.87,10.59h-.01Z"/>
          </g>
          <g>
            <path class="cls-6" d="M305.83,23.04c-6.15-1.92-12.48-.76-17.08,2.6.78-1.93,1.21-4.02,1.21-6.2,0-9.62-8.31-17.43-18.56-17.43s-18.56,7.8-18.56,17.43c0,4.24,1.62,8.13,4.3,11.15-.17.18-2.71-1.4-4-1.95-9.61-4.13-20.67.46-24.62,9.64-3.95,9.19.63,19.99,10.23,24.12,1.61.69,3.27,1.15,4.92,1.4-1.99,2.76-3.15,6.08-3.15,9.65,0,9.62,8.43,17.43,18.83,17.43,9.74,0,17.76-6.85,18.73-15.62,2.2,4.53,6.36,8.25,11.76,9.94,9.93,3.1,20.3-1.83,23.17-11.02,2.03-6.51-.25-13.41-5.29-17.98,5.1-1.75,9.23-5.62,10.88-10.9,2.87-9.19-2.85-19.15-12.78-22.25h0Z"/>
            <path d="M259.35,92.88c-11.49,0-20.83-8.71-20.83-19.43,0-2.9.68-5.72,1.99-8.3-.87-.25-1.72-.56-2.55-.91-5.12-2.2-9.12-6.19-11.25-11.22-2.15-5.06-2.16-10.58-.03-15.53,2.14-4.97,6.15-8.83,11.29-10.89,4.57-1.83,9.52-1.99,14.12-.5-.82-2.12-1.25-4.38-1.25-6.67,0-10.71,9.22-19.43,20.56-19.43s20.56,8.71,20.56,19.43c0,.75-.04,1.49-.13,2.23,4.51-1.83,9.7-2.06,14.59-.53h0c5.28,1.65,9.66,5.12,12.33,9.76,2.69,4.69,3.32,10.02,1.77,15-1.49,4.78-4.83,8.67-9.35,11.01,4.24,5.1,5.69,11.71,3.76,17.88-3.19,10.22-14.71,15.76-25.68,12.33-4.11-1.28-7.71-3.72-10.35-6.91-2.94,7.48-10.62,12.68-19.55,12.68h0ZM245.74,29.11c-2.12,0-4.25.41-6.28,1.22-4.15,1.65-7.38,4.76-9.09,8.75-1.69,3.94-1.68,8.34.04,12.38,1.73,4.08,4.98,7.31,9.15,9.11,1.41.61,2.9,1.03,4.42,1.25.69.1,1.28.56,1.55,1.2s.19,1.38-.22,1.95c-1.82,2.52-2.78,5.46-2.78,8.49,0,8.51,7.55,15.43,16.83,15.43,8.67,0,15.87-5.95,16.74-13.84.1-.89.77-1.6,1.65-1.75s1.75.29,2.14,1.1c2.05,4.2,5.9,7.45,10.56,8.91,8.85,2.77,18.13-1.59,20.67-9.71,1.74-5.58-.07-11.68-4.73-15.91-.52-.48-.76-1.19-.62-1.88s.64-1.26,1.31-1.49c4.71-1.62,8.22-5.12,9.62-9.61,1.22-3.91.72-8.1-1.42-11.81-2.16-3.76-5.73-6.58-10.05-7.93-5.32-1.66-11.04-.8-15.31,2.3-.72.53-1.7.51-2.41-.04-.7-.55-.96-1.5-.62-2.33.71-1.75,1.07-3.58,1.07-5.45,0-8.51-7.43-15.43-16.56-15.43s-16.56,6.92-16.56,15.43c0,3.58,1.35,7.07,3.8,9.83.68.77.67,1.93-.03,2.69-1.15,1.24-2.37.58-4.39-.51-.66-.36-1.41-.76-1.87-.96-2.12-.91-4.37-1.37-6.62-1.37v-.02Z"/>
          </g>
          <ellipse class="cls-10" cx="274.34" cy="48.56" rx="14.96" ry="11.93"/>
        </g>
      </g>
      <g>
        <path class="cls-11" d="M368.66,472.5c-2.36-2.95-5.76-5.38-9.6-5.79-.6-.06-1.2-.11-1.81-.13-10.75.99-14.47,8.9-12.49,18.66.59,2.94.94,6.07,1.54,9.05-4.1-9.68-9.97-17.98-20.16-21.91-19.81-7.64-40.48,3.51-47.64,22.96-8.39,22.73-8.52,62.02,18.04,72.56,1.08.43,2.18.82,3.29,1.16,18.89,4.73,33.92-.64,43.33-17.98-.95,7.34-5.14,15.59.09,22.35,2.27,2.93,5.97,4.5,9.58,4.93,4.04.48,8.28-.36,11.51-2.92,7.63-6.02,11.12-27.69,12.17-37.02,1.83-16.31,2.51-52.97-7.85-65.91ZM317.85,537.11c-3.1,3.62-8.83,5.66-12.56,1.83-4.87-7.54-3.33-25.47.96-33.1,4-7.12,13.7-8.86,15.39.91,1.59,9.19,1.29,22.44-3.8,30.37Z"/>
        <path class="cls-5" d="M336.2,482.02c-.65-.9-1.54-2.08-2.41-2.71-5.78-5.76-12.26-8.22-20.45-8.19-9.29,0-18.2,3.73-24.73,10.35-10.66,10.83-13.94,28.26-13.75,42.95.12,9.5,1.34,17.73,6.79,25.83.19.66,1.09,1.74,1.53,2.29,7.74,9.96,20.14,13.76,32.43,11.93,18.3-2.71,26.98-21.05,28.7-37.76,1.5-14.63.88-32.31-8.11-44.7ZM306.25,505.83c4-7.12,13.7-8.86,15.39.91,1.59,9.19,1.29,22.44-3.8,30.37-3.1,3.62-8.83,5.66-12.56,1.83-4.87-7.54-3.33-25.47.96-33.1Z"/>
        <path class="cls-3" d="M281.65,550.26c-5.44-8.1-6.67-16.33-6.79-25.83-.19-14.69,3.08-32.12,13.75-42.95,6.53-6.62,15.43-10.35,24.73-10.35,8.19-.03,14.67,2.43,20.45,8.19-.03,0-.07,0-.1,0-12.36-8.26-27.24-8.8-40.09,1.25-16.74,13.1-19.66,43.91-14.12,63.38.37,1.41,2.25,5.48,2.17,6.32Z"/>
        <path class="cls-11" d="M323.46,503.05c-.5-1.24-1.85-3.33-3.09-3.8-1.04-1.23-1.99-2.68-3.52-3.31-13.41-5.54-19.09,11.88-19.43,21.94-.24,7.11-.64,16.38,4.99,21.47.31.28,1,.76,1.21,1.04l-.07.15c.44,1.19,2.97,2.34,4.15,2.84,2.04.89,6.18.61,8.18-.31,7.76-3.56,9.25-14.69,9.73-22.24.37-5.89.04-12.31-2.14-17.77ZM306.25,505.83c4-7.12,13.7-8.86,15.39.91,1.59,9.19,1.29,22.44-3.8,30.37-3.1,3.62-8.83,5.66-12.56,1.83-4.87-7.54-3.33-25.47.96-33.1Z"/>
        <path class="cls-3" d="M325.6,520.82c-.47,7.55-1.96,18.68-9.73,22.24-2,.92-6.14,1.2-8.18.31-1.18-.5-3.71-1.66-4.15-2.84l.07-.15.19-.03c.35-.4,1.05-1.03,1.47-1.42,3.74,3.83,9.46,1.8,12.56-1.83l.7.89c6.4-8.65,6.6-29.22,1.82-38.75,1.24.48,2.59,2.56,3.09,3.8,2.18,5.46,2.52,11.87,2.14,17.77Z"/>
        <path class="cls-8" d="M318.55,538c-3.97,4.31-9.61,5.39-14.74,2.36.35-.4,1.05-1.03,1.47-1.42,3.74,3.83,9.46,1.8,12.56-1.83l.7.89Z"/>
        <path class="cls-5" d="M345.75,570.6c-.15-.11-.3-.21-.44-.33-5.77-4.39-2.31-12.76-.92-18.73,1.07-4.38,1.97-8.79,2.72-13.23,2.11-13.24,2.41-26.7.89-40.01-.62-5.12-1.73-10.28-2.44-15.41-.54-3.87-.13-7.48,2.34-10.67,1.95-2.48,4.8-4.08,7.93-4.45,3.32-.41,5.73.46,8.3,2.48,3.83,1.24,6.25,16.72,6.78,20.8,2.97,22.98,2.44,46.9-4.56,69.13-2.78,8.84-7.95,14.89-17.81,11.89-.61-.19-2.43-1-2.79-1.46Z"/>
        <path class="cls-3" d="M345.75,570.6c-.15-.11-.3-.21-.44-.33-5.77-4.39-2.31-12.76-.92-18.73,1.07-4.38,1.97-8.79,2.72-13.23,2.11-13.24,2.41-26.7.89-40.01-.62-5.12-1.73-10.28-2.44-15.41-.54-3.87-.13-7.48,2.34-10.67,1.95-2.48,4.8-4.08,7.93-4.45,3.32-.41,5.73.46,8.3,2.48l.88,1.14-.04.3c-.82-.38-2.74-1.54-3.43-1.71-7.88-1.93-14.25,4.2-13.91,12.06.2,3.92,1.15,7.85,1.69,11.76.98,6.9,1.52,13.86,1.63,20.84.12,9.22-.64,18.43-2.28,27.51-.64,3.53-1.36,7.04-2.17,10.54-.99,4.26-2.26,8.46-2.37,12.85-.05,2.04,1.44,3.66,1.63,5.07Z"/>
        <path class="cls-11" d="M253.82,542.68c-10.72-10.61-25.32-12.64-39.66-12.95,13.85-8.44,17.69-23.47,9.94-37.67,10.7-3.2,12.72-14.96,5.34-22.54-5.58-5.37-12.75-4.82-19.86-4.84-.59,0-1.03.08-1.56-.2l-.2-.92c-1.07-13.11-18.94-17.99-27.27-8.31-2.43,2.83-2.93,5.8-3.26,9.39-2.93.02-6.5.24-9.35.08-11.6-.65-21.57,9.38-15.77,21.01,1.86,3.39,4.54,5.49,8.4,6.16-3.76,6.72-4.88,14.06-2.76,21.54.14.5.29.99.44,1.49,5.74,14.17,17.29,17.95,31.45,19.38-10.06,4.41-19.47,10.93-19.82,23.05-.69,24.14,25,29.39,43.98,29.95,18.59.55,45.93-2.79,47.05-26.58.34-6.81-2.37-13.18-7.09-18.03ZM203.42,501.26c-.37,2.7-1.79,5.13-3.95,6.78-4.05,3.07-10.21,3.2-14.33.18-1.56-1.7-2.46-3.33-2.67-5.67-.23-2.76.66-5.5,2.47-7.6,4.35-5.14,11.44-5.12,16.42-.86,1.69,2.23,2.45,4.31,2.06,7.17ZM201.33,560.26c-.11-.32-.22-.64-.31-.96-1.03-3.65,3.64-6.16,6.59-6.84,6.74-1.55,15.84-1.79,22,1.74,1.77,1.76,2.21,3.64.23,5.61-4.99,4.95-23.85,5.04-28.5.45Z"/>
        <path class="cls-5" d="M227.68,470.27c.63-.22,1.17-.47,1.77-.74-5.58-5.37-12.75-4.82-19.86-4.84-.59,0-1.03.08-1.56-.2l-.2-.92c-1.07-13.11-18.94-17.99-27.27-8.31-2.43,2.83-2.93,5.8-3.26,9.39-2.93.02-6.5.24-9.35.08-11.6-.65-21.57,9.38-15.77,21.01,1.86,3.39,4.54,5.49,8.4,6.16-3.76,6.72-4.88,14.06-2.76,21.54.14.5.29.99.44,1.49l1.6-1.54c1.21,2.12,2.14,3.69,3.88,5.43.06.11.21.37.28.45,5.33,5.51,12.89,8.37,20.22,9.33,10.09,1.32,22.22.2,30.41-6.1,5.08-3.89,8.37-9.66,9.13-16.01.99-7.65-1.08-12.99-5.62-18.91.96-.08,2.17-.12,3.09-.32,9.15-1.98,10.29-10.05,6.42-16.97ZM184.95,494.95c4.35-5.14,11.44-5.12,16.42-.86,1.69,2.23,2.45,4.31,2.06,7.17-.37,2.7-1.79,5.13-3.95,6.78-4.05,3.07-10.21,3.2-14.33.18-1.56-1.7-2.46-3.33-2.67-5.67-.23-2.76.66-5.5,2.47-7.6Z"/>
        <path class="cls-3" d="M177.31,464.64c.32-3.59.83-6.57,3.26-9.39,8.32-9.68,26.2-4.79,27.27,8.32-.27.99-.4,1.26-.88,2.17l-1.21.13c-3.13-.33-.65-7.27-4.27-10.47-.59-.03-2.56-.93-3.22-1.21-4.23-1.77-9.34-1.16-12.96,1.66-2.97,2.27-4.26,6.07-4.73,9.62-.33,2.49-3.58,2.56-5.63,2.29-10.63-1.39-25.76,3.35-19.02,17.46l-.35-.09c-.93-.07-2.6.1-3.38.6-5.8-11.63,4.17-21.66,15.77-21.01,2.85.16,6.42-.06,9.35-.08Z"/>
        <path class="cls-4" d="M177.31,464.64c.32-3.59.83-6.57,3.26-9.39,8.32-9.68,26.2-4.79,27.27,8.32-.27.99-.4,1.26-.88,2.17l-1.21.13c-3.13-.33-.65-7.27-4.27-10.47-1.17-1.3-1.95-2.09-3.56-2.84-7.61-3.53-17.84.47-19.05,9.31-.18,1.3-.28,2.55-.38,3.84-9.36.12-26.92-1.21-26.51,12.95.06,2.12.97,4.12,2.53,5.55.34.31.7.62,1.06.9-.93-.07-2.6.1-3.38.6-5.8-11.63,4.17-21.66,15.77-21.01,2.85.16,6.42-.06,9.35-.08Z"/>
        <path class="cls-3" d="M164.57,488.65c1.04.4.97.19,1.49.96-.59,1.37-2.32,3.71-3.11,5.21-4.51,8.6-3.18,15.71.79,23.96-1.73-1.74-2.67-3.31-3.88-5.43l-1.6,1.54c-.15-.49-.3-.99-.44-1.49-2.12-7.47-1-14.82,2.76-21.54l1.16.19c.96-1.34,1.6-2.32,2.83-3.42Z"/>
        <path class="cls-8" d="M160.58,491.88l1.16.19c-3.9,7.04-5.03,13.73-1.88,21.29l-1.6,1.54c-.15-.49-.3-.99-.44-1.49-2.12-7.47-1-14.82,2.76-21.54Z"/>
        <path class="cls-3" d="M207.83,463.56l.2.92c.53.28.97.2,1.56.2,7.12.02,14.28-.52,19.86,4.84-.6.27-1.14.53-1.77.74l-.18-.02c-.55.13-4.49-1.66-5.67-2.02-2.79-.85-13.96-.18-15.45-.99-.63-.76-.46-.43-.64-1.37l1.21-.13c.48-.91.61-1.18.88-2.17Z"/>
        <path class="cls-8" d="M207.83,463.56l.2.92c.53.28.97.2,1.56.2,7.12.02,14.28-.52,19.86,4.84-.6.27-1.14.53-1.77.74l-.18-.02c-4.19-5.33-14.44-4.52-20.55-4.52.48-.91.61-1.18.88-2.17Z"/>
        <path class="cls-11" d="M152.19,485.73c.78-.51,2.45-.67,3.38-.6l.35.09c2.34,2.53,8.59,1.14,8.65,3.44-1.22,1.1-1.87,2.09-2.83,3.42l-1.16-.19c-3.85-.67-6.54-2.76-8.4-6.16Z"/>
        <path class="cls-3" d="M205.57,495.59c-.47-1.28-1.66-3.3-2.91-3.83l-.08-.08c-3.43-3.44-4.61-5.6-10.67-5.62-3.64-.02-7.13,1.41-9.71,3.97-2.59,2.58-4.05,6.09-4.04,9.74.02,3.15.98,5.88,3.35,7.95.17.14,1.44,1.28,1.45,1.29.32,1.11,2.77,2.74,3.85,3.16,11.3,4.42,23.26-4.24,18.76-16.58ZM182.48,502.54c-.23-2.76.66-5.5,2.47-7.6,4.35-5.14,11.44-5.12,16.42-.86,1.69,2.23,2.45,4.31,2.06,7.17-.37,2.7-1.79,5.13-3.95,6.78-4.05,3.07-10.21,3.2-14.33.18-1.56-1.7-2.46-3.33-2.67-5.67Z"/>
        <path class="cls-11" d="M203.21,492.98c-.42.6-1.16.81-1.84,1.11-4.97-4.26-12.07-4.28-16.42.86-1.8,2.1-2.7,4.84-2.47,7.6.21,2.34,1.11,3.97,2.67,5.67-.37.37-.88.93-1.26,1.25l-.92-.45s-1.28-1.15-1.45-1.29c-2.37-2.07-3.33-4.8-3.35-7.95,0-3.66,1.45-7.17,4.04-9.74,2.58-2.56,6.07-3.98,9.71-3.97,6.06.02,7.24,2.19,10.67,5.62l.08.08.55,1.21Z"/>
        <path class="cls-3" d="M186.81,512.17c-1.08-.42-3.53-2.05-3.85-3.16l.92.45c.38-.32.9-.88,1.26-1.25,4.12,3.02,10.27,2.89,14.33-.18,2.17-1.65,3.59-4.09,3.95-6.78.39-2.86-.37-4.94-2.06-7.17.69-.3,1.43-.52,1.84-1.11l-.55-1.21c1.25.52,2.44,2.55,2.91,3.83,4.5,12.35-7.45,21-18.76,16.58Z"/>
        <path class="cls-8" d="M203.75,504.12c-1.19,2.88-3.48,5.17-6.37,6.35-4.13,1.71-9.64,1.18-13.5-1,.38-.32.9-.88,1.26-1.25,4.12,3.02,10.27,2.89,14.33-.18,2.17-1.65,3.59-4.09,3.95-6.78.39-2.86-.37-4.94-2.06-7.17.69-.3,1.43-.52,1.84-1.11,1.55,3.62,2.07,7.4.54,11.15Z"/>
        <path class="cls-5" d="M255.78,551.29c-.44-2.17-2.93-7.65-4.98-8.88-5.69-5.62-10.22-7.23-17.81-9.45-18.34-5.35-62.32-.42-62.02,25.11.1,4.47,1.95,8.71,5.17,11.81.12.11.24.23.35.33.31,1,4.31,3.69,5.49,4.38,19.95,11.57,81.08,12.89,73.8-23.31ZM229.82,559.8c-4.99,4.95-23.85,5.04-28.5.45-.11-.32-.22-.64-.31-.96-1.03-3.65,3.64-6.16,6.59-6.84,6.74-1.55,15.84-1.79,22,1.74,1.77,1.76,2.21,3.64.23,5.61Z"/>
        <path class="cls-3" d="M176.49,570.22c-.12-.11-.24-.22-.35-.33-3.21-3.1-5.07-7.35-5.17-11.81-.31-25.53,43.68-30.46,62.02-25.11,7.59,2.21,12.11,3.82,17.81,9.45-.55-.02-7.06-4.23-8.73-4.88-18.23-7.11-40.78-6.35-57.83,3.61-9.12,5.38-13.79,16.3-9.05,26.06.4.86,1.07,2.14,1.3,3.01Z"/>
        <path class="cls-3" d="M234.19,556.99c-.06-1.95-.66-3.42-2.14-4.74l-.4.02c-4.23-4.89-5.52-4.93-13.39-5.98-6.64-.89-26.86,1.2-20.79,13.4.33.66,2.48,1.85,2.79,2.41.07.38,0,.37.28.62,4.25,3.38,11.02,3.85,16.3,3.85,5.85,0,17.62-1.48,17.37-9.57ZM207.6,552.46c6.74-1.55,15.84-1.79,22,1.74,1.77,1.76,2.21,3.64.23,5.61-4.99,4.95-23.85,5.04-28.5.45-.11-.32-.22-.64-.31-.96-1.03-3.65,3.64-6.16,6.59-6.84Z"/>
        <path class="cls-11" d="M232.13,553.68c-.95.14-1.61.21-2.53.51-6.16-3.52-15.26-3.28-22-1.74-2.94.68-7.62,3.19-6.59,6.84.1.32.2.64.31.96.05.44.1.75.19,1.19-.3.18-.66.41-.96.55l-.31.09c-.31-.56-2.45-1.74-2.79-2.41-6.07-12.19,14.15-14.28,20.79-13.4,7.87,1.05,9.16,1.09,13.39,5.98l.48,1.41Z"/>
        <path class="cls-3" d="M216.82,566.56c-5.28,0-12.04-.47-16.3-3.85-.28-.24-.2-.24-.28-.62l.31-.09c.3-.14.66-.37.96-.55-.09-.43-.14-.75-.19-1.19,4.65,4.58,23.5,4.5,28.5-.45,1.99-1.97,1.55-3.85-.23-5.61.92-.3,1.58-.37,2.53-.51l-.48-1.41.4-.02c1.48,1.32,2.08,2.79,2.14,4.74.26,8.09-11.51,9.56-17.37,9.57Z"/>
        <path class="cls-8" d="M221.06,564.32c-5.67.79-15.37.32-20.51-2.32.3-.14.66-.37.96-.55-.09-.43-.14-.75-.19-1.19,4.65,4.58,23.5,4.5,28.5-.45,1.99-1.97,1.55-3.85-.23-5.61.92-.3,1.58-.37,2.53-.51,1.09,7.69-4.71,9.75-11.07,10.64Z"/>
        <path class="cls-11" d="M85.67,509.53c-.05-4.79-.15-9.58-.32-14.36-.31-8.94-.25-17.55-7.13-24.34-7.17-7.08-20.05-6.74-29.58-6.55-.81.02-1.62.03-2.43.06-10.05.56-21.68,1.59-28.77,9.65-6.2,7.05-8.29,18.2-8.98,27.42-1.09,14.64-.86,29.9-.34,44.58.29,8.23,3.27,18.84,9.56,24.43,8.05,7.03,19.96,6.84,30.05,6.88,32.68-.32,36.47-4.49,37.64-37.17.36-10.2.46-20.4.3-30.6ZM54.66,544.74c-1.29,1.36-3.35,1.31-5.08,1.39-1.64.04-3.8.19-5.31-.5-.84-.38-1.21-1.12-1.51-1.96-2-5.61-1.21-32.73-.4-39.54.26-2.16.64-4.69,1.62-6.66.98-1.97,2.83-2.86,4.82-3.51h.16c1.91-.16,4.78-.43,6.31.95,1.25,1.14,1.2,5,1.29,6.63.29,5.87.93,40.23-1.9,43.2Z"/>
        <path class="cls-5" d="M81.38,510.53c0-9.77.19-20.47-1.05-30.15-.3-2.34-2.33-7.58-4.28-8.97-5.69-5.83-14.26-5.94-22.03-6.03-11.01-.13-26.36.32-34.65,8.43-10.24,10.01-10.13,32.22-10.37,45.7-.11,6.57-.15,23.79,1.1,29.75.78,3.56,2.06,6.99,3.81,10.18.49,1.83,4.01,5.62,5.78,6.83,2.45,1.67,5.44,3.2,8.43,3.79,10.77,2.15,24.31,1.75,35.23.53,4.33-.58,10.22-2.56,12.74-6.43,4.93-7.59,4.81-20.14,5.03-28.89.25-8.24.34-16.49.26-24.74ZM42.36,504.12c.26-2.16.64-4.69,1.62-6.66.98-1.97,2.83-2.86,4.82-3.51h.16c1.91-.16,4.78-.43,6.31.95,1.25,1.14,1.2,5,1.29,6.63.29,5.87.93,40.23-1.9,43.2-1.29,1.36-3.35,1.31-5.08,1.39-1.64.04-3.8.19-5.31-.5-.84-.38-1.21-1.12-1.51-1.96-2-5.61-1.21-32.73-.4-39.54Z"/>
        <path class="cls-3" d="M13.9,559.44c-1.75-3.19-3.04-6.62-3.82-10.18-1.24-5.96-1.21-23.18-1.1-29.75.24-13.47.13-35.69,10.37-45.7,8.29-8.1,23.65-8.56,34.65-8.43,7.78.09,16.35.2,22.03,6.03-2.16-.24-5.41-2.69-8.84-3.1-10.77-1.27-24.72-1.68-35.15,1.4-2.86.81-5.56,2.11-7.98,3.82-7.19,5.18-10.18,14.49-11.37,23.02-2.31,16.48-1.71,34.3-1.07,50.92.09,2.24.59,4.27,1,6.4.19.97,1.3,4.99,1.27,5.56Z"/>
        <path class="cls-11" d="M58.74,494.73c-.54-1.25-1.31-2.47-2.62-3-1.62-1.93-3.45-3.11-6-3.29-8.16-.55-11.98,4.78-12.55,12.72-.93,13.11-1.85,27.99.51,41,.29,1.59,2.08,3.22,3.42,4-.06.12-.13.18-.09.31.29.8,1.4,1.36,2.13,1.67,3.34,1.4,8.39,1.58,11.74.19,1.29-.53,2.48-1.44,3.01-2.76,2.17-5.36,2.75-45.41.43-50.84ZM42.36,504.12c.26-2.16.64-4.69,1.62-6.66.98-1.97,2.83-2.86,4.82-3.51h.16c1.91-.16,4.78-.43,6.31.95,1.25,1.14,1.2,5,1.29,6.63.29,5.87.93,40.23-1.9,43.2-1.29,1.36-3.35,1.31-5.08,1.39-1.64.04-3.8.19-5.31-.5-.84-.38-1.21-1.12-1.51-1.96-2-5.61-1.21-32.73-.4-39.54Z"/>
        <path class="cls-3" d="M56.12,491.73c1.31.53,2.08,1.75,2.61,3,2.33,5.44,1.75,45.48-.43,50.84-.54,1.32-1.72,2.23-3.01,2.76-3.35,1.39-8.4,1.21-11.74-.19-.74-.31-1.84-.87-2.13-1.67-.05-.14.02-.19.08-.31,4.04,1.53,10.26,1.71,14.05-.56.33-.52.67-1.06.91-1.62,2.26-5.37,1.74-39.97.97-46.91-.21-1.92-.55-3.56-1.32-5.33Z"/>
        <path class="cls-5" d="M118.01,499.63v-17.49c-.02-4.54-.41-10.08.9-14.38,2.58-8.51,14.53-10.57,21.17-5.73,1.7,1.24,2.59,2.29,3.89,3.95,1.14,2.18,2.18,4.26,2.42,6.74.61,6.26.61,12.77.71,19.07.12,12.01.16,24.03.12,36.05l-.07,25.99c-.05,5.24.19,12.71-1,17.62-2.71,11.16-21.52,12.05-26.57,2.06-.11-.22-.21-.43-.3-.66l-.62-1.92c-.99-3.99-.68-12.25-.67-16.74l.02-25.54h-3.21s0,25.04,0,25.04c0,5.57.15,10.63-.57,16.19-1.58,12.09-20.25,13.43-25.29,3.52-.39-.92-.69-1.97-.99-2.92-.18-.87-.3-1.74-.35-2.63-.33-5.75-.09-13.8-.09-19.67l.05-36.61.07-25.39c.02-5.22-.12-10.33.43-15.52,1.12-10.5,14.44-14.57,21.98-7.75-.63.58-.83.6-1.66.81l.55.9c.65.56.3.72.65,1.17,1.16-.08,1.44-.12,2.54-.5,3.31,5.69,2.72,11.05,2.71,17.4v16.93s3.19.03,3.19.03Z"/>
        <path class="cls-11" d="M143.97,465.98c1.14,2.18,2.18,4.26,2.42,6.74.61,6.26.61,12.77.71,19.07.12,12.01.16,24.03.12,36.05l-.07,25.99c-.05,5.24.19,12.71-1,17.62-2.71,11.16-21.52,12.05-26.57,2.06-.11-.22-.21-.43-.3-.66l-.62-1.92c.78-.06,1.51-.47,2.04-1.03l1.62,1.87,1.06.8c3.75,4.02,16.9,2.65,18.2-4.33,1.37-7.32,1.07-15.02,1.14-22.49l.15-24.65.03-29.93c0-5.63.49-20.35-1.63-24.87,1.24.04,1.5.03,2.68-.32Z"/>
        <path class="cls-8" d="M120.71,569.9l1.62,1.87c-1.13.46-1.85.74-3.04,1.07l-.62-1.92c.78-.06,1.51-.47,2.04-1.03Z"/>
        <path class="cls-11" d="M92.66,572.37c.64.79,2.29,1.31,3.28,1.58,3.08.82,6.83.58,9.6-1.04,1.65-.96,2.96-2.28,3.66-4.08,2.3-5.96,1.59-28.74,1.58-36.4,0-2.16-.46-5.17.13-7.22.17-.58.56-.96,1.09-1.22,1.04-.51,5.29-.39,6.41.07.62.56.69.64.92,1.44-.34,12.02.08,24.19-.08,36.22-.04,2.81.15,5.65,1.47,8.18-.54.56-1.26.97-2.04,1.03-.99-3.99-.68-12.25-.67-16.74l.02-25.54h-3.21s0,25.04,0,25.04c0,5.57.15,10.63-.57,16.19-1.58,12.09-20.25,13.43-25.29,3.52-.39-.92-.69-1.97-.99-2.92.98.31.93.36,1.77.08l.26-.56c.78.81,1.6,1.7,2.46,2.42l.22-.04Z"/>
        <path class="cls-8" d="M89.98,569.99c.78.81,1.6,1.7,2.46,2.42-1.3.46-2.16.67-3.5.98-.39-.92-.69-1.97-.99-2.92.98.31.93.36,1.77.08l.26-.56Z"/>
        <path class="cls-3" d="M87.94,570.47c-.18-.87-.3-1.74-.35-2.63-.33-5.75-.09-13.8-.09-19.67l.05-36.61.07-25.39c.02-5.22-.12-10.33.43-15.52,1.12-10.5,14.44-14.57,21.98-7.75-.63.58-.83.6-1.66.81l.55.9-.14-.06c-.77-.31-1.54-.77-2.22-1.12-4.88-2.52-12.73.37-14.38,5.77-1.99,6.49-1.4,18.47-1.4,25.33v28.31s-.03,27.1-.03,27.1c0,5.86-.57,14.46,1,20.17.12.44.97,1.9.91,2.27l-.22.04c-.86-.72-1.67-1.61-2.46-2.42l-.26.56c-.84.28-.79.23-1.77-.08Z"/>
        <path class="cls-9" d="M87.94,570.47c-.18-.87-.3-1.74-.35-2.63-.33-5.75-.09-13.8-.09-19.67l.05-36.61.07-25.39c.02-5.22-.12-10.33.43-15.52,1.12-10.5,14.44-14.57,21.98-7.75-.63.58-.83.6-1.66.81-6.7-6.6-18.12-2.01-19.12,7.09-.5,4.57-.43,8.85-.43,13.44l-.02,19.49c-.02,20.11-.03,40.23-.05,60.34,0,2.4.2,3.78,1.22,5.92l-.26.56c-.84.28-.79.23-1.77-.08Z"/>
        <path class="cls-3" d="M118.01,499.63v-17.49c-.02-4.54-.41-10.08.9-14.38,2.58-8.51,14.53-10.57,21.17-5.73,1.7,1.24,2.59,2.29,3.89,3.95-1.18.35-1.45.36-2.68.32-.2-.58-.22-.8-.7-1.2-.84-.36-1.53-.9-2.35-1.32-3.03-1.54-6.8-1.7-10.01-.48-2.51.96-4.52,2.88-5.6,5.33-3.13,6.99-.36,24.48-1.55,32.57-.35,2.4-7.73,1.79-8.37.02,1.26-.54,4.41-.18,5.76-.5-.86-.12-2.76-.1-3.7-.11l.04-1.01,3.2.03Z"/>
        <path class="cls-8" d="M118.01,499.63v-17.49c-.02-4.54-.41-10.08.9-14.38,2.58-8.51,14.53-10.57,21.17-5.73,1.7,1.24,2.59,2.29,3.89,3.95-1.18.35-1.45.36-2.68.32-.2-.58-.22-.8-.7-1.2-5.41-8.08-19.79-4.82-21.01,4.92-.43,3.45-.37,6.36-.36,9.82l.07,13.1c.01,1.91.51,6.56-.83,7.79-.86-.12-2.76-.1-3.7-.11l.04-1.01,3.2.03Z"/>
        <path class="cls-11" d="M112.11,465.28c3.31,5.69,2.72,11.05,2.71,17.4v16.93s-.06,1.01-.06,1.01c-1.32.08-3.48.59-3.84-1.18-.42-2.06.03-4.51-.13-6.51-.59-7.19,1.51-20.78-1.22-27.15,1.16-.08,1.44-.12,2.54-.5Z"/>
        <path class="cls-3" d="M119.32,525.5c.88.18,1,.2,1.61.85,1.44,2.77-.74,36.18.73,41.5.44,1.59,1.3,3.29,1.72,4.72l-1.06-.8-1.62-1.87c-1.32-2.53-1.51-5.37-1.47-8.18.16-12.03-.26-24.2.08-36.22Z"/>
        <path class="cls-5" d="M236.31,525.96c-2.11-6.98-.78-23.23-1.05-31.08-.24-6.99-.24-17.19.52-24.03,1.33-11.94,16.2-15.59,23.5-5.09,1.34,2.46,1.15,3.32,2.02,5.41,3.29-.91,8.11,2.38,10,4.94,3.51,5.4,3.13,13.01-2.54,16.88-2.3,1.58-4.7,1.39-7.34,1.84-.1.17-.19.31-.26.43-.05.88-.06,1.47-.02,2.35,4.55.27,7.49,1.88,10.14,5.65,3.65,7.12,1.59,15.92-7.3,17.54-.81.15-2.01.12-2.86.14-.05,3.74-.72,7.64-3.65,10.18-7.15,6.21-17.86,3.6-21.18-5.15Z"/>
        <path class="cls-3" d="M236.31,525.96c-2.11-6.98-.78-23.23-1.05-31.08-.24-6.99-.24-17.19.52-24.03,1.33-11.94,16.2-15.59,23.5-5.09-.83,0-2.03.03-2.81-.1-.35-.77-.4-.9-.96-1.53-.87-.16-1.46-.62-2.26-.86-11.14-3.29-14.75,5.75-14.73,14.54.04,15.03-.41,28.85.14,43.75.07,2.21,1.97,4.46,2.13,5.89-1.39-.93-2.04-1.81-2.97-3.13l-1.52,1.64Z"/>
        <path class="cls-8" d="M236.31,525.96c-2.11-6.98-.78-23.23-1.05-31.08-.24-6.99-.24-17.19.52-24.03,1.33-11.94,16.2-15.59,23.5-5.09-.83,0-2.03.03-2.81-.1-.35-.77-.4-.9-.96-1.53-1.67-2.04-3.26-3.15-6.01-3.45-3.05-.35-6.11.56-8.49,2.5-2.84,2.34-4.19,6.03-4.29,9.61-.23,8.07-.54,16.99-.29,25.01.2,6.53-.99,21.09,1.4,26.52l-1.52,1.64Z"/>
        <path class="cls-11" d="M268.73,503.69c.88.02,1.71-.23,2.58-.44,3.65,7.12,1.59,15.92-7.3,17.54-.81.15-2.01.12-2.86.14-.05,3.74-.72,7.64-3.65,10.18-7.15,6.21-17.86,3.6-21.18-5.15l1.52-1.64c.93,1.32,1.58,2.2,2.97,3.13.2.28.36.33.65.49,2.89,1.59,6.31,1.94,9.46.97,6.17-1.89,5.48-6.84,6.92-11.73.24-.81,4.36-1,5.55-1.37,5.57-1.74,7.03-7,5.34-12.12Z"/>
        <path class="cls-11" d="M268.92,476.67c.58-.25,1.73-.43,2.39-.56,3.51,5.4,3.13,13.01-2.54,16.88-2.3,1.58-4.7,1.39-7.34,1.84-.1.17-.19.31-.26.43-.05.88-.06,1.47-.02,2.35l-.16,1.05-1.69.06c-.92,0-1.29-.23-1.83-.92-.1-1.05-.07-2.21-.15-3.22-.37-4.99,1.3-3.84,5.16-4.63,7-1.43,8.73-7.32,6.43-13.27Z"/>
        <path class="cls-11" d="M256.48,465.65c.78.13,1.99.1,2.81.1,1.34,2.46,1.15,3.32,2.02,5.41-.25.44-.36.77-.81.98l-1.46.15c-2.07-.25-1.78-4.56-2.56-6.64Z"/>
        <path class="cls-8" d="M261.16,497.6c4.55.27,7.49,1.88,10.14,5.65-.86.21-1.69.46-2.58.44-.27-.62-.4-.87-.74-1.44-.09-.11-.18-.23-.27-.34-2.08-2.57-3.62-2.93-6.7-3.26l.16-1.05Z"/>
        <path class="cls-8" d="M261.31,471.17c3.29-.91,8.11,2.38,10,4.94-.67.13-1.81.31-2.39.56-.22-.56-.22-.69-.65-1.09-2.22-2.96-4.3-3.41-7.77-3.44.44-.21.56-.54.81-.98Z"/>
        <path class="cls-3" d="M260.5,472.14c3.47.03,5.54.47,7.77,3.44-.95-.1-2.92-1.35-3.96-1.58-1.36-.3-3.09.1-4.44-.33-.55-.18-.64-.81-.83-1.38l1.46-.15Z"/>
        <path class="cls-3" d="M261,498.65c3.08.33,4.62.69,6.7,3.26.09.11.19.23.27.34-.97.04-2.3-1.25-3.49-1.58-1.88-.52-4.3.52-5.37-1.29l.19-.68,1.69-.06Z"/>
        <path class="cls-5" d="M110.04,462.9c.83.85,1.38,1.39,2.07,2.38-1.1.38-1.37.43-2.54.5-.35-.44,0-.61-.65-1.17l-.55-.9c.84-.21,1.04-.22,1.66-.81Z"/>
      </g>
    </g>
  </g>
</svg>