<?xml version="1.0" encoding="UTF-8"?>
<svg id="Layer_2" data-name="Layer 2" xmlns="http://www.w3.org/2000/svg" viewBox="0 0 746.12 312.13">
  <defs>
    <style>
      .cls-1 {
        fill: #fc8da9;
      }

      .cls-2 {
        fill: #fec6d4;
      }

      .cls-3 {
        fill: #fff;
      }

      .cls-4 {
        fill: #f16c8b;
      }

      .cls-5 {
        fill: #fea8b8;
      }

      .cls-6 {
        fill: #f9fbff;
      }

      .cls-7 {
        fill: #ffc6d5;
      }

      .cls-8 {
        fill: #f47591;
      }

      .cls-9 {
        fill: #f16b89;
      }

      .cls-10 {
        fill: #9fe0ab;
      }

      .cls-11 {
        fill: #e95c7f;
      }

      .cls-12 {
        fill: #ffdce1;
      }
    </style>
  </defs>
  <g id="Layer_1-2" data-name="Layer 1">
    <g>
      <g>
        <g>
          <path class="cls-3" d="M111,260.84l-2.36,25.1s-11.38,6.12-7.36,15.41c4.02,9.3,17.86,8.12,17.86,8.12,0,0,15.33,1.57,16.73-14.9s2.18-30.79,2.18-30.79l-27.06-2.94h0Z"/>
          <path d="M117.58,311.42c-4.11,0-14.38-.88-18.03-9.31-3.49-8.06,2.82-14.55,7.3-17.31l2.27-24.13c.05-.51.3-.97.69-1.29.39-.32.89-.47,1.4-.42l27.06,2.94c1,.11,1.74.98,1.69,1.99,0,.14-.8,14.53-2.19,30.85-.48,5.58-2.49,9.89-5.99,12.79-5.05,4.18-11.45,3.94-12.63,3.86-.27.02-.81.05-1.55.05h0ZM112.7,262.93l-2.17,23.18c-.06.63-.43,1.19-.98,1.49-.4.22-9.79,5.42-6.52,12.99,3.42,7.92,15.84,6.99,15.96,6.99.11,0,.23,0,.35,0,.05,0,5.82.52,10.04-3.01,2.67-2.23,4.23-5.65,4.61-10.17,1.1-12.9,1.83-24.59,2.08-28.94l-23.36-2.54h0Z"/>
        </g>
        <g>
          <path class="cls-3" d="M121.43,209.16s-11.47,22.3-14.09,33.1c-2.61,10.8-8.93,24.22-20.75,24-13.65-.25-18.53-10.58-16.89-24,2.17-17.81,22.38-40.25,22.38-40.25l29.34,7.14Z"/>
          <path d="M86.9,268.16h-.33c-6.12-.11-10.92-2.11-14.24-5.92-3.99-4.59-5.55-11.58-4.5-20.21,2.21-18.19,22.01-40.35,22.86-41.29.47-.52,1.18-.73,1.86-.58l29.34,7.14c.56.14,1.03.52,1.27,1.05s.23,1.14-.04,1.65c-.11.22-11.4,22.22-13.93,32.68-1.86,7.68-7.75,25.45-22.29,25.45h0ZM92.76,204.12c-3.61,4.21-19.34,23.25-21.17,38.36-.92,7.53.33,13.5,3.6,17.26,2.58,2.97,6.43,4.52,11.44,4.61h.23c12.21,0,17.34-17.24,18.63-22.56,2.19-9.02,10.21-25.49,13.16-31.38l-25.9-6.31h0Z"/>
        </g>
        <g>
          <path class="cls-3" d="M180.78,260.84l2.36,25.1s11.38,6.12,7.36,15.41c-4.02,9.3-17.86,8.12-17.86,8.12,0,0-15.33,1.57-16.73-14.9-1.4-16.47-2.18-30.79-2.18-30.79l27.06-2.94h0Z"/>
          <path d="M174.19,311.42c-.74,0-1.29-.03-1.55-.05-1.19.08-7.58.33-12.63-3.86-3.5-2.9-5.52-7.21-5.99-12.79-1.39-16.31-2.18-30.7-2.19-30.85-.05-1.01.69-1.88,1.69-1.99l27.06-2.94c.51-.05,1.01.1,1.4.42.39.32.64.79.69,1.29l2.27,24.13c4.49,2.77,10.79,9.26,7.3,17.31-3.65,8.43-13.91,9.31-18.03,9.31h0ZM172.63,307.58h.16c.12.02,12.53.94,15.96-6.99,3.27-7.57-6.11-12.77-6.52-12.99-.55-.3-.92-.86-.98-1.49l-2.17-23.18-23.36,2.54c.26,4.35.98,16.04,2.08,28.94.39,4.53,1.95,7.96,4.64,10.19,4.26,3.53,9.96,2.99,10.02,2.99.06,0,.13,0,.19,0h0Z"/>
        </g>
        <g>
          <path class="cls-3" d="M170.34,209.16s11.47,22.3,14.09,33.1c2.61,10.8,8.93,24.22,20.75,24,13.65-.25,18.53-10.58,16.89-24-2.17-17.81-22.38-40.25-22.38-40.25l-29.34,7.14Z"/>
          <path d="M204.88,268.16c-14.55,0-20.43-17.77-22.29-25.45-2.53-10.46-13.82-32.46-13.93-32.68-.27-.52-.28-1.13-.04-1.65.24-.53.71-.92,1.27-1.05l29.34-7.14c.67-.16,1.39.05,1.86.58.84.93,20.65,23.09,22.86,41.29,1.05,8.62-.51,15.61-4.5,20.21-3.32,3.82-8.11,5.8-14.24,5.92h-.33ZM173.11,210.43c2.95,5.89,10.97,22.35,13.16,31.38,1.29,5.31,6.43,22.56,18.63,22.56h.23c5.01-.09,8.86-1.64,11.45-4.61,3.27-3.76,4.52-9.73,3.6-17.26-1.83-15.12-17.56-34.16-21.17-38.36l-25.9,6.31h0Z"/>
        </g>
        <g>
          <path class="cls-1" d="M197.31,238.89c-.57-37.43-32.48-54.06-32.48-54.06h-37.47s-31.91,16.63-32.48,54.06c-.72,47.13,103.15,47.16,102.43,0h0Z"/>
          <path d="M146.11,276.12c-12.88,0-25.76-2.86-35.57-8.59-11.67-6.82-17.74-16.73-17.56-28.66.3-19.93,9.38-34.01,16.95-42.32,8.18-8.98,16.21-13.22,16.55-13.4l.41-.21h38.41l.41.21c.34.17,8.37,4.42,16.55,13.4,7.56,8.3,16.65,22.39,16.95,42.32h0c.18,11.94-5.89,21.86-17.56,28.67-9.8,5.72-22.67,8.58-35.54,8.58h0ZM127.85,186.72c-3.57,2.04-30.56,18.58-31.07,52.2-.2,13.25,8.42,21.09,15.68,25.34,18.56,10.84,48.74,10.84,67.29,0,7.27-4.24,15.88-12.08,15.68-25.34h0c-.52-33.61-27.5-50.15-31.07-52.2h-36.5Z"/>
        </g>
        <g>
          <path class="cls-3" d="M147.1,209.25c62.72,0,113.57-27.03,113.57-89.77S209.82,5.86,147.1,5.86h-.05c-62.72,0-113.57,50.86-113.57,113.61s50.85,89.77,113.57,89.77"/>
          <g>
            <circle class="cls-7" cx="44.5" cy="53.37" r="42.6"/>
            <path d="M44.5,97.87C19.96,97.87,0,77.9,0,53.37S19.96,8.87,44.5,8.87s44.5,19.96,44.5,44.5-19.96,44.5-44.5,44.5ZM44.5,12.66C22.05,12.66,3.79,30.92,3.79,53.37s18.26,40.71,40.71,40.71,40.71-18.26,40.71-40.71S66.95,12.66,44.5,12.66Z"/>
          </g>
          <g>
            <circle class="cls-7" cx="247.4" cy="53.37" r="42.6"/>
            <path d="M247.4,97.87c-24.53,0-44.5-19.96-44.5-44.5s19.96-44.5,44.5-44.5,44.5,19.96,44.5,44.5-19.96,44.5-44.5,44.5ZM247.4,12.66c-22.45,0-40.71,18.26-40.71,40.71s18.26,40.71,40.71,40.71,40.71-18.26,40.71-40.71-18.26-40.71-40.71-40.71Z"/>
          </g>
          <g>
            <circle class="cls-12" cx="78.79" cy="162.86" r="15.24"/>
            <path class="cls-2" d="M73.02,168.25c-.23,0-.46-.04-.69-.11-1.2-.38-1.86-1.66-1.48-2.86l2.17-6.79c.38-1.2,1.66-1.86,2.86-1.48s1.86,1.66,1.48,2.86l-2.17,6.79c-.31.96-1.2,1.58-2.17,1.58h0Z"/>
            <path class="cls-2" d="M81.61,169.64c-.23,0-.46-.04-.69-.11-1.2-.38-1.86-1.66-1.48-2.86l2.17-6.79c.38-1.2,1.66-1.86,2.86-1.48s1.86,1.66,1.48,2.86l-2.17,6.79c-.31.96-1.2,1.58-2.17,1.58h0Z"/>
          </g>
          <g>
            <circle class="cls-12" cx="212.98" cy="162.86" r="15.24"/>
            <path class="cls-2" d="M207.94,168.25c-.23,0-.46-.04-.69-.11-1.2-.38-1.86-1.66-1.48-2.86l2.17-6.79c.38-1.2,1.66-1.86,2.86-1.48s1.86,1.66,1.48,2.86l-2.17,6.79c-.31.96-1.2,1.58-2.17,1.58h0Z"/>
            <path class="cls-2" d="M216.53,169.64c-.23,0-.46-.04-.69-.11-1.2-.38-1.86-1.66-1.48-2.86l2.17-6.79c.38-1.2,1.66-1.86,2.86-1.48s1.86,1.66,1.48,2.86l-2.17,6.79c-.31.97-1.2,1.58-2.17,1.58h0Z"/>
          </g>
          <ellipse cx="183.41" cy="150.1" rx="10.8" ry="12.12"/>
          <ellipse cx="108.36" cy="150.1" rx="10.8" ry="12.12"/>
          <g id="_Mirror_Repeat_" data-name="&amp;lt;Mirror Repeat&amp;gt;">
            <g>
              <path class="cls-7" d="M146.97,100.81c1.99,7.89,7.01,23.4,25.91,27.19,22.62,4.55,36.12-12.77,36.12-12.77,8.25,30.96,40.72,21.06,40.72,21.06.29,21.98-18.92,53.2-46.13,63.83,41.94-15.01,56.81-50.47,56.81-80.63,0-61.71-48.6-112.3-113.43-113.57h-.05c-64.83,1.27-113.43,51.86-113.43,113.57,0,30.16,14.87,65.62,56.81,80.63-27.21-10.63-46.41-41.85-46.13-63.83,0,0,32.47,9.9,40.72-21.06,0,0,13.49,17.31,36.12,12.77,18.9-3.8,23.91-19.31,25.91-27.19"/>
              <path class="cls-1" d="M203.59,201.25c-.46,0-.89-.28-1.07-.73-.22-.58.08-1.23.65-1.45,26.48-10.34,44.82-40.17,45.39-61.3-4.16.98-16.23,3.07-26.59-2.69-6.4-3.55-10.93-9.46-13.5-17.56-4.11,4.26-16.96,15.4-35.82,11.61-17.26-3.47-23.31-16.47-25.71-24.14-2.4,7.68-8.45,20.68-25.71,24.14-18.87,3.79-31.71-7.35-35.82-11.61-2.57,8.11-7.11,14.01-13.5,17.56-10.36,5.75-22.43,3.67-26.59,2.69.57,21.12,18.91,50.95,45.39,61.3.58.23.87.87.65,1.45-.22.58-.86.89-1.45.67-19.62-7.02-34.67-18.84-44.72-35.11-10.62-17.2-12.85-34.83-12.85-46.6,0-30.37,11.62-58.86,32.73-80.25C86.41,17.64,115.46,5.4,146.9,4.78h.1c31.44.62,60.49,12.86,81.81,34.46,21.11,21.38,32.73,49.89,32.73,80.25,0,11.77-2.23,29.4-12.85,46.6-10.05,16.27-25.09,28.09-44.72,35.11-.13.05-.26.07-.39.07h0ZM146.94,7.05c-62.99,1.24-112.33,50.63-112.33,112.43,0,11.72,2.85,46.74,34.57,68.68-16.27-14.64-26.36-35.94-26.16-51.89,0-.36.17-.69.47-.9.29-.21.66-.27,1-.17.14.05,14.7,4.35,26.31-2.12,6.34-3.53,10.71-9.63,12.98-18.14.11-.42.45-.73.87-.82.42-.08.86.08,1.12.42.13.17,13.37,16.7,35,12.36,19.35-3.89,23.62-20.8,25.03-26.36.13-.52.64-.86,1.13-.86.54,0,.99.33,1.13.86,1.4,5.55,5.67,22.47,25.03,26.36,21.68,4.36,34.87-12.19,35-12.36.27-.34.7-.5,1.12-.42s.76.4.87.82c2.27,8.51,6.63,14.61,12.98,18.14,11.62,6.46,26.17,2.17,26.31,2.12.34-.11.71-.04,1,.17.29.21.46.55.47.9.2,15.96-9.88,37.26-26.15,51.89,31.72-21.94,34.57-56.96,34.57-68.68,0-61.8-49.33-111.19-112.32-112.43h-.02Z"/>
            </g>
          </g>
          <path d="M147.1,211.14h-.05c-33.26,0-61.41-7.51-81.4-21.71-22.6-16.06-34.06-39.59-34.06-69.96C31.59,55.79,83.38,3.97,147.05,3.97s115.52,51.82,115.52,115.51c0,30.37-11.46,53.9-34.06,69.96-19.99,14.2-48.14,21.71-81.4,21.71h0ZM147.1,7.76c-61.63,0-111.73,50.11-111.73,111.72,0,55.02,41.75,87.88,111.67,87.88h.05c69.93,0,111.67-32.85,111.67-87.88,0-61.6-50.1-111.72-111.67-111.72Z"/>
          <g id="_Mirror_Repeat_1" data-name="&amp;lt;Mirror Repeat&amp;gt;1">
            <path d="M145.89,181.08c-15.03,0-16.52-7.69-16.57-8.02-.17-1.03.52-2.01,1.55-2.18s2.01.52,2.18,1.55h0s1.28,4.86,12.84,4.86,12.84-4.87,12.85-4.92c.17-1.03,1.16-1.7,2.18-1.52,1.03.17,1.72,1.18,1.55,2.21-.05.33-1.54,8.02-16.57,8.02h0Z"/>
          </g>
          <g>
            <path class="cls-6" d="M231.72,17.46c-4.66-1.45-9.46-.58-12.94,1.97.59-1.46.92-3.05.92-4.7,0-7.29-6.3-13.21-14.06-13.21s-14.06,5.91-14.06,13.21c0,3.21,1.23,6.16,3.26,8.45-.13.14-2.05-1.06-3.03-1.48-7.28-3.13-15.66.35-18.65,7.3-2.99,6.96.48,15.15,7.75,18.28,1.22.52,2.48.87,3.73,1.06-1.51,2.09-2.39,4.61-2.39,7.31,0,7.29,6.39,13.21,14.27,13.21,7.38,0,13.46-5.19,14.19-11.83,1.67,3.43,4.82,6.25,8.91,7.53,7.52,2.35,15.38-1.39,17.56-8.35,1.54-4.93-.19-10.16-4.01-13.62,3.86-1.33,6.99-4.26,8.24-8.26,2.17-6.96-2.16-14.51-9.68-16.86h0Z"/>
            <path d="M196.5,70.37c-8.71,0-15.78-6.6-15.78-14.72,0-2.2.52-4.33,1.51-6.29-.66-.19-1.3-.42-1.93-.69-3.88-1.67-6.91-4.69-8.52-8.5-1.63-3.83-1.64-8.02-.02-11.77,1.62-3.77,4.66-6.69,8.55-8.25,3.46-1.39,7.21-1.51,10.7-.38-.62-1.61-.95-3.32-.95-5.05,0-8.11,6.99-14.72,15.58-14.72s15.58,6.6,15.58,14.72c0,.57-.03,1.13-.1,1.69,3.42-1.39,7.35-1.56,11.05-.4h0c4,1.25,7.32,3.88,9.34,7.39,2.04,3.55,2.52,7.59,1.34,11.37-1.13,3.62-3.66,6.57-7.08,8.34,3.21,3.86,4.31,8.87,2.85,13.55-2.42,7.74-11.15,11.94-19.46,9.34-3.11-.97-5.84-2.82-7.84-5.24-2.23,5.67-8.05,9.61-14.81,9.61h0ZM186.19,22.06c-1.61,0-3.22.31-4.76.92-3.14,1.25-5.59,3.61-6.89,6.63-1.28,2.99-1.27,6.32.03,9.38,1.31,3.09,3.77,5.54,6.93,6.9,1.07.46,2.2.78,3.35.95.52.08.97.42,1.17.91s.14,1.05-.17,1.48c-1.38,1.91-2.11,4.14-2.11,6.43,0,6.45,5.72,11.69,12.75,11.69,6.57,0,12.02-4.51,12.68-10.49.08-.67.58-1.21,1.25-1.33s1.33.22,1.62.83c1.55,3.18,4.47,5.64,8,6.75,6.71,2.1,13.74-1.2,15.66-7.36,1.32-4.23-.05-8.85-3.58-12.05-.39-.36-.58-.9-.47-1.42s.48-.95.99-1.13c3.57-1.23,6.23-3.88,7.29-7.28.92-2.96.55-6.14-1.08-8.95-1.64-2.85-4.34-4.99-7.61-6.01-4.03-1.26-8.36-.61-11.6,1.74-.55.4-1.29.39-1.83-.03-.53-.42-.73-1.14-.47-1.77.54-1.33.81-2.71.81-4.13,0-6.45-5.63-11.69-12.55-11.69s-12.55,5.24-12.55,11.69c0,2.71,1.02,5.36,2.88,7.45.52.58.51,1.46-.02,2.04-.87.94-1.8.44-3.33-.39-.5-.27-1.07-.58-1.42-.73-1.61-.69-3.31-1.04-5.02-1.04v-.02Z"/>
          </g>
          <ellipse class="cls-10" cx="207.86" cy="36.79" rx="11.33" ry="9.04"/>
        </g>
      </g>
      <g>
        <path class="cls-11" d="M734.89,167.77c-2.96-3.71-7.24-6.76-12.07-7.28-.76-.08-1.51-.13-2.27-.17-13.52,1.24-18.18,11.18-15.7,23.46.75,3.7,1.19,7.63,1.93,11.37-5.15-12.16-12.53-22.6-25.33-27.54-24.9-9.6-50.88,4.42-59.89,28.86-10.54,28.56-10.71,77.96,22.67,91.2,1.36.54,2.74,1.03,4.14,1.45,23.74,5.95,42.64-.8,54.46-22.6-1.19,9.23-6.45,19.6.11,28.09,2.85,3.69,7.5,5.65,12.04,6.2,5.08.61,10.4-.45,14.47-3.66,9.59-7.57,13.98-34.81,15.3-46.53,2.31-20.51,3.16-66.58-9.86-82.85ZM671.03,248.99c-3.9,4.55-11.1,7.11-15.79,2.3-6.12-9.48-4.18-32.02,1.21-41.61,5.03-8.95,17.22-11.14,19.35,1.15,2,11.55,1.62,28.21-4.77,38.17Z"/>
        <path class="cls-5" d="M694.09,179.75c-.82-1.13-1.93-2.61-3.03-3.4-7.27-7.24-15.41-10.33-25.71-10.29-11.68,0-22.88,4.69-31.08,13.01-13.4,13.61-17.52,35.52-17.28,53.98.15,11.94,1.69,22.28,8.53,32.47.24.83,1.37,2.18,1.92,2.88,9.73,12.52,25.31,17.29,40.76,15,23.01-3.4,33.92-26.46,36.08-47.46,1.89-18.39,1.1-40.62-10.2-56.19ZM656.45,209.67c5.03-8.95,17.22-11.14,19.35,1.15,2,11.55,1.62,28.21-4.77,38.17-3.9,4.55-11.1,7.11-15.79,2.3-6.12-9.48-4.18-32.02,1.21-41.61Z"/>
        <path class="cls-3" d="M625.53,265.52c-6.84-10.18-8.38-20.53-8.53-32.47-.24-18.46,3.88-40.37,17.28-53.98,8.21-8.32,19.4-13,31.08-13.01,10.3-.04,18.44,3.05,25.71,10.29-.04,0-.08,0-.12,0-15.54-10.38-34.24-11.06-50.39,1.57-21.04,16.47-24.71,55.2-17.75,79.66.47,1.77,2.83,6.89,2.73,7.94Z"/>
        <path class="cls-11" d="M678.08,206.18c-.63-1.56-2.32-4.18-3.88-4.78-1.3-1.55-2.51-3.36-4.42-4.16-16.85-6.97-24,14.94-24.43,27.57-.3,8.94-.8,20.58,6.28,26.98.39.35,1.25.95,1.52,1.31l-.09.18c.55,1.49,3.73,2.95,5.21,3.57,2.56,1.12,7.77.76,10.28-.39,9.76-4.48,11.63-18.47,12.22-27.96.47-7.41.05-15.47-2.7-22.33ZM656.45,209.67c5.03-8.95,17.22-11.14,19.35,1.15,2,11.55,1.62,28.21-4.77,38.17-3.9,4.55-11.1,7.11-15.79,2.3-6.12-9.48-4.18-32.02,1.21-41.61Z"/>
        <path class="cls-3" d="M680.77,228.51c-.59,9.49-2.47,23.48-12.22,27.96-2.51,1.16-7.71,1.51-10.28.39-1.48-.63-4.66-2.08-5.21-3.57l.09-.18.24-.04c.44-.51,1.32-1.29,1.85-1.78,4.7,4.81,11.9,2.26,15.79-2.3l.88,1.12c8.05-10.87,8.29-36.73,2.29-48.7,1.56.6,3.25,3.22,3.88,4.78,2.75,6.86,3.16,14.92,2.7,22.33Z"/>
        <path class="cls-8" d="M671.91,250.1c-4.99,5.42-12.08,6.77-18.52,2.96.44-.51,1.32-1.29,1.85-1.78,4.7,4.81,11.9,2.26,15.79-2.3l.88,1.12Z"/>
        <path class="cls-5" d="M706.1,291.09c-.19-.13-.38-.27-.56-.41-7.25-5.51-2.91-16.04-1.16-23.54,1.34-5.5,2.48-11.05,3.42-16.63,2.66-16.64,3.03-33.56,1.12-50.29-.78-6.44-2.17-12.92-3.07-19.37-.67-4.87-.16-9.41,2.95-13.41,2.45-3.11,6.04-5.13,9.97-5.6,4.17-.51,7.21.58,10.43,3.12,4.81,1.56,7.86,21.02,8.52,26.14,3.73,28.88,3.06,58.95-5.74,86.9-3.5,11.11-10,18.71-22.38,14.94-.77-.23-3.06-1.26-3.5-1.84Z"/>
        <path class="cls-3" d="M706.1,291.09c-.19-.13-.38-.27-.56-.41-7.25-5.51-2.91-16.04-1.16-23.54,1.34-5.5,2.48-11.05,3.42-16.63,2.66-16.64,3.03-33.56,1.12-50.29-.78-6.44-2.17-12.92-3.07-19.37-.67-4.87-.16-9.41,2.95-13.41,2.45-3.11,6.04-5.13,9.97-5.6,4.17-.51,7.21.58,10.43,3.12l1.11,1.44-.05.37c-1.04-.47-3.44-1.94-4.31-2.15-9.91-2.42-17.91,5.28-17.49,15.15.25,4.92,1.45,9.87,2.12,14.78,1.23,8.68,1.91,17.43,2.05,26.19.15,11.59-.81,23.17-2.86,34.58-.8,4.44-1.71,8.85-2.73,13.25-1.25,5.35-2.85,10.64-2.98,16.16-.06,2.57,1.81,4.6,2.04,6.38Z"/>
        <path class="cls-11" d="M590.55,255.99c-13.47-13.33-31.83-15.88-49.85-16.28,17.41-10.61,22.23-29.5,12.5-47.35,13.44-4.02,15.99-18.81,6.72-28.33-7.01-6.75-16.02-6.06-24.97-6.09-.74,0-1.3.1-1.96-.25l-.25-1.15c-1.34-16.47-23.81-22.62-34.27-10.45-3.05,3.55-3.69,7.29-4.09,11.8-3.69.02-8.17.3-11.75.1-14.59-.82-27.12,11.79-19.83,26.41,2.34,4.27,5.71,6.9,10.55,7.74-4.72,8.45-6.13,17.68-3.47,27.07.18.62.36,1.25.55,1.87,7.21,17.81,21.74,22.57,39.53,24.36-12.64,5.54-24.48,13.73-24.91,28.98-.86,30.34,31.42,36.94,55.28,37.65,23.37.69,57.73-3.51,59.14-33.41.43-8.56-2.98-16.56-8.92-22.66ZM527.2,203.93c-.46,3.39-2.25,6.45-4.97,8.52-5.09,3.86-12.83,4.02-18.01.22-1.96-2.14-3.09-4.19-3.35-7.13-.28-3.47.84-6.91,3.1-9.55,5.47-6.46,14.38-6.44,20.63-1.08,2.13,2.81,3.08,5.42,2.59,9.02ZM524.56,278.08c-.14-.4-.27-.8-.39-1.21-1.29-4.59,4.58-7.75,8.28-8.6,8.47-1.94,19.92-2.25,27.65,2.18,2.23,2.21,2.78,4.57.28,7.05-6.28,6.22-29.98,6.33-35.82.57Z"/>
        <path class="cls-5" d="M557.69,164.97c.79-.27,1.47-.59,2.23-.94-7.01-6.75-16.02-6.06-24.97-6.09-.74,0-1.3.1-1.96-.25l-.25-1.15c-1.34-16.47-23.81-22.62-34.27-10.45-3.05,3.55-3.69,7.29-4.09,11.8-3.69.02-8.17.3-11.75.1-14.59-.82-27.12,11.79-19.83,26.41,2.34,4.27,5.71,6.9,10.55,7.74-4.72,8.45-6.13,17.68-3.47,27.07.18.62.36,1.25.55,1.87l2.01-1.94c1.52,2.66,2.7,4.63,4.88,6.82.07.13.26.46.36.56,6.7,6.93,16.2,10.52,25.42,11.73,12.68,1.66,27.93.26,38.23-7.66,6.38-4.88,10.52-12.14,11.48-20.13,1.24-9.62-1.35-16.33-7.07-23.77,1.21-.1,2.72-.15,3.89-.4,11.5-2.49,12.94-12.63,8.07-21.33ZM503.98,195.99c5.47-6.46,14.38-6.44,20.63-1.08,2.13,2.81,3.08,5.42,2.59,9.02-.46,3.39-2.25,6.45-4.97,8.52-5.09,3.86-12.83,4.02-18.01.22-1.96-2.14-3.09-4.19-3.35-7.13-.28-3.47.84-6.91,3.1-9.55Z"/>
        <path class="cls-3" d="M494.37,157.9c.41-4.51,1.04-8.25,4.09-11.8,10.46-12.17,32.93-6.02,34.27,10.45-.34,1.25-.5,1.58-1.1,2.73l-1.52.17c-3.93-.42-.82-9.14-5.36-13.16-.74-.04-3.22-1.18-4.05-1.52-5.32-2.22-11.75-1.46-16.3,2.08-3.74,2.85-5.36,7.63-5.95,12.09-.41,3.13-4.5,3.21-7.08,2.88-13.36-1.75-32.38,4.21-23.9,21.95l-.44-.12c-1.17-.08-3.27.12-4.25.76-7.29-14.62,5.24-27.22,19.83-26.41,3.59.2,8.07-.08,11.75-.1Z"/>
        <path class="cls-4" d="M494.37,157.9c.41-4.51,1.04-8.25,4.09-11.8,10.46-12.17,32.93-6.02,34.27,10.45-.34,1.25-.5,1.58-1.1,2.73l-1.52.17c-3.93-.42-.82-9.14-5.36-13.16-1.47-1.63-2.46-2.63-4.47-3.57-9.56-4.44-22.43.59-23.94,11.7-.22,1.63-.35,3.21-.48,4.83-11.77.15-33.84-1.53-33.33,16.27.08,2.66,1.22,5.18,3.18,6.98.43.39.88.77,1.33,1.14-1.17-.08-3.27.12-4.25.76-7.29-14.62,5.24-27.22,19.83-26.41,3.59.2,8.07-.08,11.75-.1Z"/>
        <path class="cls-3" d="M478.36,188.08c1.31.5,1.22.24,1.88,1.21-.74,1.72-2.92,4.66-3.91,6.55-5.67,10.81-4,19.74.99,30.12-2.18-2.19-3.36-4.16-4.88-6.82l-2.01,1.94c-.19-.62-.37-1.25-.55-1.87-2.66-9.39-1.25-18.63,3.47-27.07l1.45.24c1.2-1.68,2.01-2.92,3.55-4.3Z"/>
        <path class="cls-8" d="M473.35,192.14l1.45.24c-4.91,8.84-6.32,17.25-2.37,26.76l-2.01,1.94c-.19-.62-.37-1.25-.55-1.87-2.66-9.39-1.25-18.63,3.47-27.07Z"/>
        <path class="cls-3" d="M532.74,156.54l.25,1.15c.66.36,1.22.25,1.96.25,8.94.03,17.95-.66,24.97,6.09-.76.34-1.44.66-2.23.93l-.22-.02c-.69.16-5.65-2.09-7.13-2.54-3.5-1.07-17.55-.23-19.42-1.25-.79-.96-.58-.54-.81-1.72l1.52-.17c.6-1.15.77-1.48,1.1-2.73Z"/>
        <path class="cls-8" d="M532.74,156.54l.25,1.15c.66.36,1.22.25,1.96.25,8.94.03,17.95-.66,24.97,6.09-.76.34-1.44.66-2.23.93l-.22-.02c-5.26-6.69-18.14-5.68-25.83-5.68.6-1.15.77-1.48,1.1-2.73Z"/>
        <path class="cls-11" d="M462.8,184.4c.98-.64,3.08-.84,4.25-.76l.44.12c2.95,3.18,10.8,1.43,10.87,4.32-1.54,1.39-2.35,2.62-3.55,4.3l-1.45-.24c-4.84-.84-8.22-3.47-10.56-7.74Z"/>
        <path class="cls-3" d="M529.9,196.8c-.59-1.6-2.08-4.15-3.65-4.81l-.1-.1c-4.31-4.32-5.79-7.04-13.41-7.07-4.57-.02-8.96,1.77-12.2,4.98-3.26,3.24-5.09,7.65-5.08,12.25.03,3.96,1.23,7.39,4.21,10,.21.18,1.8,1.6,1.82,1.63.4,1.4,3.48,3.44,4.84,3.97,14.21,5.55,29.24-5.33,23.58-20.84ZM500.88,205.54c-.28-3.47.84-6.91,3.1-9.55,5.47-6.46,14.38-6.44,20.63-1.08,2.13,2.81,3.08,5.42,2.59,9.02-.46,3.39-2.25,6.45-4.97,8.52-5.09,3.86-12.83,4.02-18.01.22-1.96-2.14-3.09-4.19-3.35-7.13Z"/>
        <path class="cls-11" d="M526.93,193.51c-.52.75-1.45,1.02-2.32,1.4-6.25-5.36-15.17-5.38-20.63,1.08-2.27,2.64-3.39,6.08-3.1,9.55.26,2.94,1.39,4.99,3.35,7.13-.46.47-1.11,1.17-1.59,1.57l-1.16-.57s-1.61-1.45-1.82-1.63c-2.98-2.61-4.18-6.03-4.21-10-.01-4.6,1.82-9.01,5.08-12.25,3.24-3.21,7.63-5.01,12.2-4.98,7.62.03,9.1,2.75,13.41,7.07l.1.1.69,1.52Z"/>
        <path class="cls-3" d="M506.32,217.64c-1.36-.53-4.43-2.57-4.84-3.97l1.16.57c.48-.41,1.13-1.11,1.59-1.57,5.18,3.8,12.91,3.63,18.01-.22,2.72-2.07,4.51-5.14,4.97-8.52.49-3.59-.46-6.21-2.59-9.02.87-.37,1.79-.65,2.32-1.4l-.69-1.52c1.57.66,3.07,3.21,3.65,4.81,5.66,15.52-9.37,26.4-23.58,20.84Z"/>
        <path class="cls-8" d="M527.61,207.52c-1.49,3.62-4.38,6.5-8.01,7.98-5.19,2.15-12.12,1.48-16.97-1.26.48-.41,1.13-1.11,1.59-1.57,5.18,3.8,12.91,3.63,18.01-.22,2.72-2.07,4.51-5.14,4.97-8.52.49-3.59-.46-6.21-2.59-9.02.87-.37,1.79-.65,2.32-1.4,1.94,4.55,2.6,9.3.68,14.01Z"/>
        <path class="cls-5" d="M593.01,266.81c-.55-2.73-3.68-9.62-6.26-11.16-7.16-7.07-12.84-9.09-22.38-11.88-23.05-6.72-78.34-.53-77.95,31.57.12,5.61,2.46,10.95,6.49,14.85.15.14.3.28.44.42.38,1.26,5.42,4.64,6.91,5.51,25.07,14.55,101.91,16.21,92.76-29.3ZM560.39,277.51c-6.28,6.22-29.98,6.33-35.82.57-.14-.4-.27-.8-.39-1.21-1.29-4.59,4.58-7.75,8.28-8.6,8.47-1.94,19.92-2.25,27.65,2.18,2.23,2.21,2.78,4.57.28,7.05Z"/>
        <path class="cls-3" d="M493.35,290.61c-.15-.14-.3-.28-.45-.42-4.04-3.9-6.37-9.24-6.49-14.85-.39-32.1,54.9-38.29,77.95-31.57,9.54,2.78,15.23,4.81,22.38,11.88-.69-.02-8.87-5.32-10.97-6.13-22.92-8.93-51.26-7.98-72.69,4.54-11.47,6.76-17.33,20.49-11.37,32.76.5,1.08,1.35,2.69,1.63,3.78Z"/>
        <path class="cls-3" d="M565.87,273.97c-.08-2.45-.83-4.3-2.69-5.96l-.5.03c-5.32-6.15-6.94-6.2-16.83-7.52-8.35-1.11-33.76,1.51-26.13,16.84.42.83,3.11,2.33,3.5,3.02.09.48,0,.47.35.78,5.35,4.25,13.85,4.84,20.48,4.84,7.36,0,22.15-1.86,21.83-12.03ZM532.45,268.28c8.47-1.94,19.92-2.25,27.65,2.18,2.23,2.21,2.78,4.57.28,7.05-6.28,6.22-29.98,6.33-35.82.57-.14-.4-.27-.8-.39-1.21-1.29-4.59,4.58-7.75,8.28-8.6Z"/>
        <path class="cls-11" d="M563.28,269.82c-1.19.17-2.02.27-3.18.64-7.74-4.43-19.19-4.13-27.65-2.18-3.7.85-9.57,4.01-8.28,8.6.12.4.25.81.39,1.21.07.55.12.95.24,1.49-.37.22-.83.52-1.21.69l-.39.12c-.39-.7-3.08-2.19-3.5-3.02-7.62-15.33,17.78-17.95,26.13-16.84,9.9,1.32,11.51,1.37,16.83,7.52l.6,1.78Z"/>
        <path class="cls-3" d="M544.04,286c-6.63,0-15.14-.59-20.48-4.84-.35-.31-.26-.3-.35-.78l.39-.12c.38-.18.84-.47,1.21-.69-.11-.54-.17-.94-.24-1.49,5.84,5.76,29.54,5.65,35.82-.57,2.5-2.48,1.94-4.84-.28-7.05,1.16-.38,1.99-.47,3.18-.64l-.6-1.78.5-.03c1.86,1.66,2.61,3.51,2.69,5.96.32,10.17-14.47,12.02-21.83,12.03Z"/>
        <path class="cls-8" d="M549.37,283.19c-7.12.99-19.32.41-25.78-2.92.38-.18.84-.47,1.21-.69-.11-.54-.17-.94-.24-1.49,5.84,5.76,29.54,5.65,35.82-.57,2.5-2.48,1.94-4.84-.28-7.05,1.16-.38,1.99-.47,3.18-.64,1.37,9.67-5.92,12.25-13.91,13.37Z"/>
        <path class="cls-11" d="M379.19,214.32c-.06-6.02-.19-12.04-.4-18.05-.39-11.24-.31-22.06-8.96-30.59-9.02-8.89-25.2-8.47-37.18-8.24-1.02.02-2.03.04-3.05.08-12.64.7-27.25,1.99-36.17,12.13-7.8,8.87-10.42,22.87-11.29,34.46-1.37,18.4-1.09,37.59-.43,56.04.36,10.35,4.11,23.68,12.02,30.71,10.12,8.84,25.08,8.59,37.78,8.65,41.08-.4,45.84-5.64,47.32-46.72.45-12.82.57-25.64.38-38.46ZM340.21,258.57c-1.62,1.7-4.21,1.64-6.38,1.74-2.06.05-4.77.24-6.67-.63-1.05-.48-1.52-1.41-1.89-2.46-2.52-7.05-1.52-41.14-.51-49.7.32-2.72.8-5.9,2.03-8.37,1.24-2.48,3.56-3.6,6.06-4.41l.21-.02c2.4-.18,6.01-.52,7.93,1.22,1.58,1.43,1.51,6.28,1.62,8.33.36,7.38,1.17,50.57-2.39,54.31Z"/>
        <path class="cls-5" d="M373.8,215.58c0-12.28.23-25.73-1.32-37.9-.38-2.94-2.93-9.53-5.39-11.27-7.15-7.33-17.92-7.47-27.7-7.58-13.83-.16-33.14.4-43.56,10.59-12.87,12.58-12.74,40.5-13.03,57.44-.14,8.26-.18,29.9,1.38,37.39.98,4.47,2.59,8.78,4.79,12.8.62,2.3,5.04,7.06,7.27,8.58,3.07,2.09,6.84,4.02,10.6,4.77,13.53,2.7,30.56,2.21,44.29.66,5.45-.73,12.85-3.22,16.01-8.08,6.2-9.54,6.04-25.32,6.33-36.31.32-10.36.43-20.73.33-31.09ZM324.75,207.52c.32-2.72.8-5.9,2.03-8.37,1.24-2.48,3.56-3.6,6.06-4.41l.21-.02c2.4-.18,6.01-.52,7.93,1.22,1.58,1.43,1.51,6.28,1.62,8.33.36,7.38,1.17,50.57-2.39,54.31-1.62,1.7-4.21,1.64-6.38,1.74-2.06.05-4.77.24-6.67-.63-1.05-.48-1.52-1.41-1.89-2.46-2.52-7.05-1.52-41.14-.51-49.7Z"/>
        <path class="cls-3" d="M288.98,277.05c-2.2-4.01-3.82-8.32-4.8-12.8-1.56-7.49-1.52-29.13-1.38-37.39.3-16.94.16-44.86,13.03-57.44,10.42-10.19,29.72-10.75,43.56-10.59,9.77.11,20.55.25,27.7,7.58-2.72-.3-6.8-3.38-11.11-3.89-13.53-1.6-31.08-2.11-44.18,1.75-3.59,1.02-6.98,2.65-10.03,4.81-9.04,6.51-12.79,18.21-14.29,28.94-2.9,20.72-2.15,43.11-1.34,64,.11,2.82.74,5.37,1.25,8.05.23,1.22,1.63,6.27,1.59,6.98Z"/>
        <path class="cls-11" d="M345.34,195.72c-.68-1.58-1.64-3.11-3.29-3.78-2.03-2.43-4.34-3.91-7.55-4.13-10.25-.69-15.06,6-15.77,15.98-1.17,16.48-2.32,35.18.64,51.54.36,2,2.62,4.05,4.3,5.03-.08.15-.17.22-.11.39.37,1.01,1.75,1.71,2.68,2.1,4.2,1.76,10.54,1.99,14.76.24,1.62-.67,3.11-1.81,3.79-3.47,2.73-6.74,3.46-57.07.54-63.91ZM324.75,207.52c.32-2.72.8-5.9,2.03-8.37,1.24-2.48,3.56-3.6,6.06-4.41l.21-.02c2.4-.18,6.01-.52,7.93,1.22,1.58,1.43,1.51,6.28,1.62,8.33.36,7.38,1.17,50.57-2.39,54.31-1.62,1.7-4.21,1.64-6.38,1.74-2.06.05-4.77.24-6.67-.63-1.05-.48-1.52-1.41-1.89-2.46-2.52-7.05-1.52-41.14-.51-49.7Z"/>
        <path class="cls-3" d="M342.05,191.95c1.65.66,2.61,2.2,3.29,3.77,2.93,6.83,2.19,57.17-.54,63.91-.67,1.66-2.17,2.8-3.79,3.47-4.22,1.75-10.56,1.52-14.76-.24-.93-.39-2.31-1.09-2.68-2.1-.06-.17.03-.24.11-.4,5.07,1.93,12.9,2.15,17.66-.71.41-.65.85-1.33,1.14-2.04,2.83-6.75,2.18-50.23,1.22-58.97-.26-2.41-.69-4.47-1.65-6.7Z"/>
        <path class="cls-5" d="M419.84,201.88v-21.98c-.03-5.7-.51-12.67,1.13-18.07,3.24-10.69,18.27-13.29,26.61-7.21,2.14,1.56,3.25,2.88,4.89,4.96,1.44,2.74,2.74,5.36,3.05,8.47.77,7.87.77,16.05.89,23.96.16,15.1.21,30.21.15,45.31l-.09,32.67c-.07,6.59.24,15.98-1.25,22.14-3.4,14.03-27.04,15.14-33.4,2.59-.14-.27-.26-.55-.38-.83l-.78-2.41c-1.24-5.01-.85-15.39-.85-21.04l.02-32.1-4.04.02v31.46c0,7.01.2,13.36-.71,20.34-1.99,15.19-25.45,16.88-31.79,4.43-.49-1.15-.87-2.47-1.25-3.67-.23-1.09-.37-2.19-.44-3.3-.42-7.23-.12-17.35-.11-24.73l.06-46.01.09-31.91c.02-6.56-.16-12.98.54-19.51,1.41-13.2,18.15-18.31,27.63-9.75-.79.73-1.04.75-2.09,1.02l.69,1.14c.81.7.38.91.82,1.47,1.46-.1,1.81-.15,3.19-.63,4.16,7.15,3.41,13.89,3.41,21.87l-.02,21.28,4.03.04Z"/>
        <path class="cls-11" d="M452.47,159.58c1.44,2.74,2.74,5.36,3.05,8.47.77,7.87.77,16.05.89,23.96.16,15.1.21,30.21.15,45.31l-.09,32.67c-.07,6.59.24,15.98-1.25,22.14-3.4,14.03-27.04,15.14-33.4,2.59-.14-.27-.26-.55-.38-.83l-.78-2.41c.99-.07,1.89-.59,2.57-1.29l2.03,2.35,1.33,1c4.71,5.06,21.24,3.34,22.88-5.44,1.72-9.2,1.35-18.87,1.43-28.27l.19-30.98.04-37.62c0-7.07.61-25.58-2.04-31.26,1.55.05,1.88.03,3.37-.4Z"/>
        <path class="cls-8" d="M423.23,290.2l2.03,2.35c-1.42.57-2.33.93-3.82,1.35l-.78-2.41c.99-.07,1.89-.59,2.57-1.29Z"/>
        <path class="cls-11" d="M387.97,293.31c.81,1,2.88,1.65,4.12,1.98,3.87,1.04,8.58.72,12.07-1.3,2.08-1.21,3.72-2.87,4.6-5.13,2.89-7.5,2-36.12,1.99-45.75,0-2.72-.58-6.5.16-9.08.21-.73.71-1.21,1.37-1.53,1.31-.64,6.65-.49,8.06.09.78.7.86.8,1.15,1.81-.43,15.1.1,30.4-.1,45.52-.05,3.53.19,7.1,1.85,10.28-.67.71-1.58,1.23-2.57,1.29-1.24-5.01-.85-15.39-.85-21.04l.02-32.1-4.04.02v31.46c0,7.01.2,13.36-.71,20.34-1.99,15.19-25.45,16.88-31.79,4.43-.49-1.15-.87-2.47-1.25-3.67,1.23.39,1.17.45,2.23.1l.33-.7c.98,1.02,2.01,2.13,3.09,3.04l.28-.05Z"/>
        <path class="cls-8" d="M384.6,290.32c.98,1.02,2.01,2.13,3.09,3.04-1.63.58-2.71.85-4.4,1.23-.49-1.15-.87-2.47-1.25-3.67,1.23.39,1.17.45,2.23.1l.33-.7Z"/>
        <path class="cls-3" d="M382.05,290.92c-.23-1.09-.37-2.19-.44-3.3-.42-7.23-.12-17.35-.11-24.73l.06-46.01.09-31.91c.02-6.56-.16-12.98.54-19.51,1.41-13.2,18.15-18.31,27.63-9.75-.79.73-1.04.75-2.09,1.02l.69,1.14-.18-.07c-.97-.39-1.94-.97-2.79-1.41-6.14-3.17-16,.47-18.08,7.26-2.51,8.16-1.76,23.21-1.76,31.83l-.02,35.58-.02,34.06c0,7.36-.72,18.18,1.26,25.35.15.55,1.22,2.39,1.15,2.85l-.28.05c-1.08-.91-2.1-2.02-3.09-3.04l-.33.7c-1.05.35-1,.29-2.23-.1Z"/>
        <path class="cls-9" d="M382.05,290.92c-.23-1.09-.37-2.19-.44-3.3-.42-7.23-.12-17.35-.11-24.73l.06-46.01.09-31.91c.02-6.56-.16-12.98.54-19.51,1.41-13.2,18.15-18.31,27.63-9.75-.79.73-1.04.75-2.09,1.02-8.42-8.29-22.78-2.53-24.03,8.91-.63,5.75-.54,11.13-.55,16.9l-.03,24.5c-.02,25.27-.04,50.57-.06,75.84,0,3.01.25,4.76,1.53,7.44l-.33.7c-1.05.35-1,.29-2.23-.1Z"/>
        <path class="cls-3" d="M419.84,201.88v-21.98c-.03-5.7-.51-12.67,1.13-18.07,3.24-10.69,18.27-13.29,26.61-7.21,2.14,1.56,3.25,2.88,4.89,4.96-1.49.43-1.82.45-3.37.4-.26-.73-.28-1.01-.88-1.5-1.06-.45-1.92-1.13-2.96-1.66-3.81-1.93-8.54-2.14-12.58-.61-3.15,1.2-5.68,3.62-7.03,6.71-3.94,8.78-.45,30.77-1.95,40.94-.44,3.01-9.72,2.25-10.52.02,1.58-.68,5.55-.23,7.24-.63-1.07-.15-3.47-.12-4.66-.14l.05-1.27,4.03.04Z"/>
        <path class="cls-8" d="M419.84,201.88v-21.98c-.03-5.7-.51-12.67,1.13-18.07,3.24-10.69,18.27-13.29,26.61-7.21,2.14,1.56,3.25,2.88,4.89,4.96-1.49.43-1.82.45-3.37.4-.26-.73-.28-1.01-.88-1.5-6.8-10.15-24.87-6.06-26.4,6.18-.54,4.34-.47,8-.45,12.35l.09,16.46c.02,2.4.64,8.24-1.04,9.79-1.07-.15-3.47-.12-4.66-.14l.05-1.27,4.03.04Z"/>
        <path class="cls-11" d="M412.43,158.7c4.16,7.15,3.41,13.89,3.41,21.87l-.02,21.28-.05,1.27c-1.66.1-4.37.74-4.83-1.48-.53-2.58.04-5.66-.17-8.19-.74-9.04,1.9-26.12-1.53-34.12,1.46-.1,1.81-.15,3.19-.63Z"/>
        <path class="cls-3" d="M421.48,234.39c1.11.22,1.26.26,2.03,1.07,1.81,3.49-.94,45.47.92,52.16.56,2,1.64,4.14,2.16,5.93l-1.33-1-2.03-2.35c-1.66-3.18-1.9-6.75-1.85-10.28.2-15.12-.33-30.42.1-45.52Z"/>
        <path class="cls-5" d="M568.54,234.97c-2.65-8.77-.98-29.19-1.32-39.07-.31-8.79-.3-21.61.66-30.21,1.67-15.01,20.36-19.59,29.54-6.4,1.68,3.1,1.44,4.17,2.54,6.8,4.13-1.14,10.2,2.99,12.58,6.21,4.41,6.79,3.93,16.35-3.19,21.22-2.9,1.98-5.91,1.75-9.22,2.31-.12.21-.23.39-.32.54-.06,1.1-.08,1.85-.03,2.95,5.72.33,9.41,2.37,12.75,7.1,4.59,8.96,2,20-9.17,22.04-1.02.19-2.53.15-3.59.17-.06,4.7-.91,9.6-4.59,12.8-8.98,7.8-22.44,4.53-26.62-6.47Z"/>
        <path class="cls-3" d="M568.54,234.97c-2.65-8.77-.98-29.19-1.32-39.07-.31-8.79-.3-21.61.66-30.21,1.67-15.01,20.36-19.59,29.54-6.4-1.04,0-2.55.04-3.53-.13-.43-.96-.51-1.13-1.21-1.92-1.1-.21-1.83-.78-2.85-1.08-14.01-4.14-18.54,7.22-18.51,18.28.05,18.89-.51,36.26.18,55,.09,2.78,2.48,5.61,2.68,7.4-1.74-1.17-2.57-2.27-3.73-3.94l-1.91,2.06Z"/>
        <path class="cls-8" d="M568.54,234.97c-2.65-8.77-.98-29.19-1.32-39.07-.31-8.79-.3-21.61.66-30.21,1.67-15.01,20.36-19.59,29.54-6.4-1.04,0-2.55.04-3.53-.13-.43-.96-.51-1.13-1.21-1.92-2.1-2.56-4.09-3.96-7.56-4.34-3.84-.43-7.68.7-10.67,3.14-3.57,2.95-5.27,7.57-5.4,12.08-.29,10.15-.68,21.36-.36,31.44.25,8.21-1.25,26.51,1.76,33.33l-1.91,2.06Z"/>
        <path class="cls-11" d="M609.28,206.98c1.11.03,2.15-.29,3.24-.55,4.59,8.96,2,20-9.17,22.04-1.02.19-2.53.15-3.59.17-.06,4.7-.91,9.6-4.59,12.8-8.98,7.8-22.44,4.53-26.62-6.47l1.91-2.06c1.17,1.66,1.99,2.76,3.73,3.94.25.35.45.42.82.62,3.63,2,7.93,2.44,11.89,1.22,7.76-2.38,6.89-8.59,8.7-14.74.3-1.02,5.48-1.26,6.98-1.73,7-2.19,8.84-8.79,6.71-15.23Z"/>
        <path class="cls-11" d="M609.53,173.01c.73-.31,2.17-.55,3.01-.71,4.41,6.79,3.93,16.35-3.19,21.22-2.9,1.98-5.91,1.75-9.22,2.31-.12.21-.23.39-.32.54-.06,1.1-.08,1.85-.03,2.95l-.2,1.32-2.12.07c-1.16,0-1.62-.29-2.3-1.16-.13-1.32-.09-2.77-.19-4.05-.46-6.28,1.64-4.83,6.48-5.82,8.8-1.8,10.97-9.21,8.08-16.68Z"/>
        <path class="cls-11" d="M593.89,159.17c.98.16,2.5.12,3.53.13,1.68,3.1,1.44,4.17,2.54,6.8-.31.55-.45.97-1.01,1.23l-1.84.19c-2.6-.31-2.24-5.73-3.22-8.35Z"/>
        <path class="cls-8" d="M599.78,199.33c5.72.33,9.41,2.37,12.75,7.1-1.08.27-2.13.58-3.24.55-.33-.78-.5-1.09-.94-1.81-.11-.14-.23-.29-.34-.43-2.62-3.23-4.55-3.68-8.43-4.1l.2-1.32Z"/>
        <path class="cls-8" d="M599.96,166.1c4.13-1.14,10.2,2.99,12.58,6.21-.84.16-2.28.39-3.01.71-.27-.71-.28-.87-.82-1.36-2.8-3.72-5.41-4.29-9.77-4.32.56-.26.7-.68,1.01-1.23Z"/>
        <path class="cls-3" d="M598.95,167.33c4.36.03,6.97.6,9.77,4.32-1.19-.13-3.68-1.7-4.98-1.98-1.71-.37-3.89.13-5.58-.41-.69-.22-.8-1.02-1.05-1.73l1.84-.19Z"/>
        <path class="cls-3" d="M599.58,200.65c3.88.41,5.81.87,8.43,4.1.12.14.23.29.34.43-1.22.04-2.89-1.57-4.38-1.98-2.36-.66-5.41.66-6.75-1.62l.24-.85,2.12-.07Z"/>
        <path class="cls-5" d="M409.82,155.71c1.04,1.07,1.73,1.75,2.6,2.99-1.38.48-1.73.54-3.19.63-.44-.56,0-.76-.82-1.47l-.69-1.14c1.05-.26,1.3-.28,2.09-1.02Z"/>
      </g>
      <g>
        <g>
          <path class="cls-6" d="M705.64,138.81c-4.66-1.45-9.46-.58-12.94,1.97.59-1.46.92-3.05.92-4.7,0-7.29-6.3-13.21-14.06-13.21s-14.06,5.91-14.06,13.21c0,3.21,1.23,6.16,3.26,8.45-.13.14-2.05-1.06-3.03-1.48-7.28-3.13-15.66.35-18.65,7.3-2.99,6.96.48,15.15,7.75,18.28,1.22.52,2.48.87,3.73,1.06-1.51,2.09-2.39,4.61-2.39,7.31,0,7.29,6.39,13.21,14.27,13.21,7.38,0,13.46-5.19,14.19-11.83,1.67,3.43,4.82,6.25,8.91,7.53,7.52,2.35,15.38-1.39,17.56-8.35,1.54-4.93-.19-10.16-4.01-13.62,3.86-1.33,6.99-4.26,8.24-8.26,2.17-6.96-2.16-14.51-9.68-16.86h0Z"/>
          <path class="cls-11" d="M670.43,191.73c-8.71,0-15.78-6.6-15.78-14.72,0-2.2.52-4.33,1.51-6.29-.66-.19-1.3-.42-1.93-.69-3.88-1.67-6.91-4.69-8.52-8.5-1.63-3.83-1.64-8.02-.02-11.77,1.62-3.77,4.66-6.69,8.55-8.25,3.46-1.39,7.21-1.51,10.7-.38-.62-1.61-.95-3.32-.95-5.05,0-8.11,6.99-14.72,15.58-14.72s15.58,6.6,15.58,14.72c0,.57-.03,1.13-.1,1.69,3.42-1.39,7.35-1.56,11.05-.4h0c4,1.25,7.32,3.88,9.34,7.39,2.04,3.55,2.52,7.59,1.34,11.37-1.13,3.62-3.66,6.57-7.08,8.34,3.21,3.86,4.31,8.87,2.85,13.55-2.42,7.74-11.15,11.94-19.46,9.34-3.11-.97-5.84-2.82-7.84-5.24-2.23,5.67-8.05,9.61-14.81,9.61h0ZM660.12,143.41c-1.61,0-3.22.31-4.76.92-3.14,1.25-5.59,3.61-6.89,6.63-1.28,2.99-1.27,6.32.03,9.38,1.31,3.09,3.77,5.54,6.93,6.9,1.07.46,2.2.78,3.35.95.52.08.97.42,1.17.91s.14,1.05-.17,1.48c-1.38,1.91-2.11,4.14-2.11,6.43,0,6.45,5.72,11.69,12.75,11.69,6.57,0,12.02-4.51,12.68-10.49.08-.67.58-1.21,1.25-1.33s1.33.22,1.62.83c1.55,3.18,4.47,5.64,8,6.75,6.71,2.1,13.74-1.2,15.66-7.36,1.32-4.23-.05-8.85-3.58-12.05-.39-.36-.58-.9-.47-1.42s.48-.95.99-1.13c3.57-1.23,6.23-3.88,7.29-7.28.92-2.96.55-6.14-1.08-8.95-1.64-2.85-4.34-4.99-7.61-6.01-4.03-1.26-8.36-.61-11.6,1.74-.55.4-1.29.39-1.83-.03-.53-.42-.73-1.14-.47-1.77.54-1.33.81-2.71.81-4.13,0-6.45-5.63-11.69-12.55-11.69s-12.55,5.24-12.55,11.69c0,2.71,1.02,5.36,2.88,7.45.52.58.51,1.46-.02,2.04-.87.94-1.8.44-3.33-.39-.5-.27-1.07-.58-1.42-.73-1.61-.69-3.31-1.04-5.02-1.04v-.02Z"/>
        </g>
        <ellipse class="cls-10" cx="681.79" cy="158.15" rx="11.33" ry="9.04"/>
      </g>
    </g>
  </g>
</svg>