<?xml version="1.0" encoding="UTF-8"?>
<svg id="Layer_2" data-name="Layer 2" xmlns="http://www.w3.org/2000/svg" viewBox="0 0 445.65 591.29">
  <defs>
    <style>
      .cls-1 {
        fill: #fc8da9;
      }

      .cls-2 {
        fill: #fec6d4;
      }

      .cls-3 {
        fill: #f9fbff;
        stroke: #000;
        stroke-linejoin: round;
        stroke-width: 1.5px;
      }

      .cls-4 {
        fill: #fff;
      }

      .cls-5 {
        fill: #fea8b8;
      }

      .cls-6 {
        fill: #ffc6d5;
      }

      .cls-7 {
        fill: #9fe0ab;
      }

      .cls-8 {
        fill: #f786a1;
      }

      .cls-9 {
        fill: #ffdce1;
      }

      .cls-10 {
        fill: #fcc0ce;
      }

      .cls-11 {
        fill: #c03a43;
      }

      .cls-12 {
        fill: #030202;
      }

      .cls-13 {
        fill: #a4dcac;
      }
    </style>
  </defs>
  <g id="Layer_1-2" data-name="Layer 1">
    <g>
      <g>
        <path d="M378.13,476.44c-2.36-2.95-5.76-5.38-9.6-5.79-.6-.06-1.2-.11-1.81-.13-10.75.99-14.47,8.9-12.49,18.66.59,2.94.94,6.07,1.54,9.05-4.1-9.68-9.97-17.98-20.16-21.91-19.81-7.64-40.48,3.51-47.64,22.96-8.39,22.73-8.52,62.02,18.04,72.56,1.08.43,2.18.82,3.29,1.16,18.89,4.73,33.92-.64,43.33-17.98-.95,7.34-5.14,15.59.09,22.35,2.27,2.93,5.97,4.5,9.58,4.93,4.04.48,8.28-.36,11.51-2.92,7.63-6.02,11.12-27.69,12.17-37.02,1.83-16.31,2.51-52.97-7.85-65.91ZM327.32,541.05c-3.1,3.62-8.83,5.66-12.56,1.83-4.87-7.54-3.33-25.47.96-33.1,4-7.12,13.7-8.86,15.39.91,1.59,9.19,1.29,22.44-3.8,30.37Z"/>
        <path class="cls-5" d="M345.67,485.97c-.65-.9-1.54-2.08-2.41-2.71-5.78-5.76-12.26-8.22-20.45-8.19-9.29,0-18.2,3.73-24.73,10.35-10.66,10.83-13.94,28.26-13.75,42.95.12,9.5,1.34,17.73,6.79,25.83.19.66,1.09,1.74,1.53,2.29,7.74,9.96,20.14,13.76,32.43,11.93,18.3-2.71,26.98-21.05,28.7-37.76,1.5-14.63.88-32.31-8.11-44.7ZM315.72,509.77c4-7.12,13.7-8.86,15.39.91,1.59,9.19,1.29,22.44-3.8,30.37-3.1,3.62-8.83,5.66-12.56,1.83-4.87-7.54-3.33-25.47.96-33.1Z"/>
        <path class="cls-4" d="M291.13,554.2c-5.44-8.1-6.67-16.33-6.79-25.83-.19-14.69,3.08-32.12,13.75-42.95,6.53-6.62,15.43-10.35,24.73-10.35,8.19-.03,14.67,2.43,20.45,8.19-.03,0-.07,0-.1,0-12.36-8.26-27.24-8.8-40.09,1.25-16.74,13.1-19.66,43.91-14.12,63.38.37,1.41,2.25,5.48,2.17,6.32Z"/>
        <path d="M332.93,506.99c-.5-1.24-1.85-3.33-3.09-3.8-1.04-1.23-1.99-2.68-3.52-3.31-13.41-5.54-19.09,11.88-19.43,21.94-.24,7.11-.64,16.38,4.99,21.47.31.28,1,.76,1.21,1.04l-.07.15c.44,1.19,2.97,2.34,4.15,2.84,2.04.89,6.18.61,8.18-.31,7.76-3.56,9.25-14.69,9.73-22.24.37-5.89.04-12.31-2.14-17.77ZM315.72,509.77c4-7.12,13.7-8.86,15.39.91,1.59,9.19,1.29,22.44-3.8,30.37-3.1,3.62-8.83,5.66-12.56,1.83-4.87-7.54-3.33-25.47.96-33.1Z"/>
        <path class="cls-4" d="M335.07,524.76c-.47,7.55-1.96,18.68-9.73,22.24-2,.92-6.14,1.2-8.18.31-1.18-.5-3.71-1.66-4.15-2.84l.07-.15.19-.03c.35-.4,1.05-1.03,1.47-1.42,3.74,3.83,9.46,1.8,12.56-1.83l.7.89c6.4-8.65,6.6-29.22,1.82-38.75,1.24.48,2.59,2.56,3.09,3.8,2.18,5.46,2.52,11.87,2.14,17.77Z"/>
        <path d="M328.02,541.94c-3.97,4.31-9.61,5.39-14.74,2.36.35-.4,1.05-1.03,1.47-1.42,3.74,3.83,9.46,1.8,12.56-1.83l.7.89Z"/>
        <path class="cls-5" d="M355.22,574.55c-.15-.11-.3-.21-.44-.33-5.77-4.39-2.31-12.76-.92-18.73,1.07-4.38,1.97-8.79,2.72-13.23,2.11-13.24,2.41-26.7.89-40.01-.62-5.12-1.73-10.28-2.44-15.41-.54-3.87-.13-7.48,2.34-10.67,1.95-2.48,4.8-4.08,7.93-4.45,3.32-.41,5.73.46,8.3,2.48,3.83,1.24,6.25,16.72,6.78,20.8,2.97,22.98,2.44,46.9-4.56,69.13-2.78,8.84-7.95,14.89-17.81,11.89-.61-.19-2.43-1-2.79-1.46Z"/>
        <path class="cls-4" d="M355.22,574.55c-.15-.11-.3-.21-.44-.33-5.77-4.39-2.31-12.76-.92-18.73,1.07-4.38,1.97-8.79,2.72-13.23,2.11-13.24,2.41-26.7.89-40.01-.62-5.12-1.73-10.28-2.44-15.41-.54-3.87-.13-7.48,2.34-10.67,1.95-2.48,4.8-4.08,7.93-4.45,3.32-.41,5.73.46,8.3,2.48l.88,1.14-.04.3c-.82-.38-2.74-1.54-3.43-1.71-7.88-1.93-14.25,4.2-13.91,12.06.2,3.92,1.15,7.85,1.69,11.76.98,6.9,1.52,13.86,1.63,20.84.12,9.22-.64,18.43-2.28,27.51-.64,3.53-1.36,7.04-2.17,10.54-.99,4.26-2.26,8.46-2.37,12.85-.05,2.04,1.44,3.66,1.63,5.07Z"/>
        <path d="M263.29,546.62c-10.72-10.61-25.32-12.64-39.66-12.95,13.85-8.44,17.69-23.47,9.94-37.67,10.7-3.2,12.72-14.96,5.34-22.54-5.58-5.37-12.75-4.82-19.86-4.84-.59,0-1.03.08-1.56-.2l-.2-.92c-1.07-13.11-18.94-17.99-27.27-8.31-2.43,2.83-2.93,5.8-3.26,9.39-2.93.02-6.5.24-9.35.08-11.6-.65-21.57,9.38-15.77,21.01,1.86,3.39,4.54,5.49,8.4,6.16-3.76,6.72-4.88,14.06-2.76,21.54.14.5.29.99.44,1.49,5.74,14.17,17.29,17.95,31.45,19.38-10.06,4.41-19.47,10.93-19.82,23.05-.69,24.14,25,29.39,43.98,29.95,18.59.55,45.93-2.79,47.05-26.58.34-6.81-2.37-13.18-7.09-18.03ZM212.9,505.2c-.37,2.7-1.79,5.13-3.95,6.78-4.05,3.07-10.21,3.2-14.33.18-1.56-1.7-2.46-3.33-2.67-5.67-.23-2.76.66-5.5,2.47-7.6,4.35-5.14,11.44-5.12,16.42-.86,1.69,2.23,2.45,4.31,2.06,7.17ZM210.8,564.2c-.11-.32-.22-.64-.31-.96-1.03-3.65,3.64-6.16,6.59-6.84,6.74-1.55,15.84-1.79,22,1.74,1.77,1.76,2.21,3.64.23,5.61-4.99,4.95-23.85,5.04-28.5.45Z"/>
        <path class="cls-5" d="M237.15,474.21c.63-.22,1.17-.47,1.77-.74-5.58-5.37-12.75-4.82-19.86-4.84-.59,0-1.03.08-1.56-.2l-.2-.92c-1.07-13.11-18.94-17.99-27.27-8.31-2.43,2.83-2.93,5.8-3.26,9.39-2.93.02-6.5.24-9.35.08-11.6-.65-21.57,9.38-15.77,21.01,1.86,3.39,4.54,5.49,8.4,6.16-3.76,6.72-4.88,14.06-2.76,21.54.14.5.29.99.44,1.49l1.6-1.54c1.21,2.12,2.14,3.69,3.88,5.43.06.11.21.37.28.45,5.33,5.51,12.89,8.37,20.22,9.33,10.09,1.32,22.22.2,30.41-6.1,5.08-3.89,8.37-9.66,9.13-16.01.99-7.65-1.08-12.99-5.62-18.91.96-.08,2.17-.12,3.09-.32,9.15-1.98,10.29-10.05,6.42-16.97ZM194.42,498.89c4.35-5.14,11.44-5.12,16.42-.86,1.69,2.23,2.45,4.31,2.06,7.17-.37,2.7-1.79,5.13-3.95,6.78-4.05,3.07-10.21,3.2-14.33.18-1.56-1.7-2.46-3.33-2.67-5.67-.23-2.76.66-5.5,2.47-7.6Z"/>
        <path class="cls-4" d="M186.78,468.58c.32-3.59.83-6.57,3.26-9.39,8.32-9.68,26.2-4.79,27.27,8.32-.27.99-.4,1.26-.88,2.17l-1.21.13c-3.13-.33-.65-7.27-4.27-10.47-.59-.03-2.56-.93-3.22-1.21-4.23-1.77-9.34-1.16-12.96,1.66-2.97,2.27-4.26,6.07-4.73,9.62-.33,2.49-3.58,2.56-5.63,2.29-10.63-1.39-25.76,3.35-19.02,17.46l-.35-.09c-.93-.07-2.6.1-3.38.6-5.8-11.63,4.17-21.66,15.77-21.01,2.85.16,6.42-.06,9.35-.08Z"/>
        <path d="M186.78,468.58c.32-3.59.83-6.57,3.26-9.39,8.32-9.68,26.2-4.79,27.27,8.32-.27.99-.4,1.26-.88,2.17l-1.21.13c-3.13-.33-.65-7.27-4.27-10.47-1.17-1.3-1.95-2.09-3.56-2.84-7.61-3.53-17.84.47-19.05,9.31-.18,1.3-.28,2.55-.38,3.84-9.36.12-26.92-1.21-26.51,12.95.06,2.12.97,4.12,2.53,5.55.34.31.7.62,1.06.9-.93-.07-2.6.1-3.38.6-5.8-11.63,4.17-21.66,15.77-21.01,2.85.16,6.42-.06,9.35-.08Z"/>
        <path class="cls-4" d="M174.04,492.6c1.04.4.97.19,1.49.96-.59,1.37-2.32,3.71-3.11,5.21-4.51,8.6-3.18,15.71.79,23.96-1.73-1.74-2.67-3.31-3.88-5.43l-1.6,1.54c-.15-.49-.3-.99-.44-1.49-2.12-7.47-1-14.82,2.76-21.54l1.16.19c.96-1.34,1.6-2.32,2.83-3.42Z"/>
        <path d="M170.06,495.83l1.16.19c-3.9,7.04-5.03,13.73-1.88,21.29l-1.6,1.54c-.15-.49-.3-.99-.44-1.49-2.12-7.47-1-14.82,2.76-21.54Z"/>
        <path class="cls-4" d="M217.3,467.51l.2.92c.53.28.97.2,1.56.2,7.12.02,14.28-.52,19.86,4.84-.6.27-1.14.53-1.77.74l-.18-.02c-.55.13-4.49-1.66-5.67-2.02-2.79-.85-13.96-.18-15.45-.99-.63-.76-.46-.43-.64-1.37l1.21-.13c.48-.91.61-1.18.88-2.17Z"/>
        <path d="M217.3,467.51l.2.92c.53.28.97.2,1.56.2,7.12.02,14.28-.52,19.86,4.84-.6.27-1.14.53-1.77.74l-.18-.02c-4.19-5.33-14.44-4.52-20.55-4.52.48-.91.61-1.18.88-2.17Z"/>
        <path d="M161.66,489.67c.78-.51,2.45-.67,3.38-.6l.35.09c2.34,2.53,8.59,1.14,8.65,3.44-1.22,1.1-1.87,2.09-2.83,3.42l-1.16-.19c-3.85-.67-6.54-2.76-8.4-6.16Z"/>
        <path class="cls-4" d="M215.04,499.53c-.47-1.28-1.66-3.3-2.91-3.83l-.08-.08c-3.43-3.44-4.61-5.6-10.67-5.62-3.64-.02-7.13,1.41-9.71,3.97-2.59,2.58-4.05,6.09-4.04,9.74.02,3.15.98,5.88,3.35,7.95.17.14,1.44,1.28,1.45,1.29.32,1.11,2.77,2.74,3.85,3.16,11.3,4.42,23.26-4.24,18.76-16.58ZM191.95,506.49c-.23-2.76.66-5.5,2.47-7.6,4.35-5.14,11.44-5.12,16.42-.86,1.69,2.23,2.45,4.31,2.06,7.17-.37,2.7-1.79,5.13-3.95,6.78-4.05,3.07-10.21,3.2-14.33.18-1.56-1.7-2.46-3.33-2.67-5.67Z"/>
        <path d="M212.68,496.92c-.42.6-1.16.81-1.84,1.11-4.97-4.26-12.07-4.28-16.42.86-1.8,2.1-2.7,4.84-2.47,7.6.21,2.34,1.11,3.97,2.67,5.67-.37.37-.88.93-1.26,1.25l-.92-.45s-1.28-1.15-1.45-1.29c-2.37-2.07-3.33-4.8-3.35-7.95,0-3.66,1.45-7.17,4.04-9.74,2.58-2.56,6.07-3.98,9.71-3.97,6.06.02,7.24,2.19,10.67,5.62l.08.08.55,1.21Z"/>
        <path class="cls-4" d="M196.28,516.12c-1.08-.42-3.53-2.05-3.85-3.16l.92.45c.38-.32.9-.88,1.26-1.25,4.12,3.02,10.27,2.89,14.33-.18,2.17-1.65,3.59-4.09,3.95-6.78.39-2.86-.37-4.94-2.06-7.17.69-.3,1.43-.52,1.84-1.11l-.55-1.21c1.25.52,2.44,2.55,2.91,3.83,4.5,12.35-7.45,21-18.76,16.58Z"/>
        <path d="M213.22,508.07c-1.19,2.88-3.48,5.17-6.37,6.35-4.13,1.71-9.64,1.18-13.5-1,.38-.32.9-.88,1.26-1.25,4.12,3.02,10.27,2.89,14.33-.18,2.17-1.65,3.59-4.09,3.95-6.78.39-2.86-.37-4.94-2.06-7.17.69-.3,1.43-.52,1.84-1.11,1.55,3.62,2.07,7.4.54,11.15Z"/>
        <path class="cls-5" d="M265.25,555.23c-.44-2.17-2.93-7.65-4.98-8.88-5.69-5.62-10.22-7.23-17.81-9.45-18.34-5.35-62.32-.42-62.02,25.11.1,4.47,1.95,8.71,5.17,11.81.12.11.24.23.35.33.31,1,4.31,3.69,5.49,4.38,19.95,11.57,81.08,12.89,73.8-23.31ZM239.3,563.75c-4.99,4.95-23.85,5.04-28.5.45-.11-.32-.22-.64-.31-.96-1.03-3.65,3.64-6.16,6.59-6.84,6.74-1.55,15.84-1.79,22,1.74,1.77,1.76,2.21,3.64.23,5.61Z"/>
        <path class="cls-4" d="M185.96,574.16c-.12-.11-.24-.22-.35-.33-3.21-3.1-5.07-7.35-5.17-11.81-.31-25.53,43.68-30.46,62.02-25.11,7.59,2.21,12.11,3.82,17.81,9.45-.55-.02-7.06-4.23-8.73-4.88-18.23-7.11-40.78-6.35-57.83,3.61-9.12,5.38-13.79,16.3-9.05,26.06.4.86,1.07,2.14,1.3,3.01Z"/>
        <path class="cls-4" d="M243.66,560.93c-.06-1.95-.66-3.42-2.14-4.74l-.4.02c-4.23-4.89-5.52-4.93-13.39-5.98-6.64-.89-26.86,1.2-20.79,13.4.33.66,2.48,1.85,2.79,2.41.07.38,0,.37.28.62,4.25,3.38,11.02,3.85,16.3,3.85,5.85,0,17.62-1.48,17.37-9.57ZM217.07,556.4c6.74-1.55,15.84-1.79,22,1.74,1.77,1.76,2.21,3.64.23,5.61-4.99,4.95-23.85,5.04-28.5.45-.11-.32-.22-.64-.31-.96-1.03-3.65,3.64-6.16,6.59-6.84Z"/>
        <path d="M241.6,557.63c-.95.14-1.61.21-2.53.51-6.16-3.52-15.26-3.28-22-1.74-2.94.68-7.62,3.19-6.59,6.84.1.32.2.64.31.96.05.44.1.75.19,1.19-.3.18-.66.41-.96.55l-.31.09c-.31-.56-2.45-1.74-2.79-2.41-6.07-12.19,14.15-14.28,20.79-13.4,7.87,1.05,9.16,1.09,13.39,5.98l.48,1.41Z"/>
        <path class="cls-4" d="M226.29,570.5c-5.28,0-12.04-.47-16.3-3.85-.28-.24-.2-.24-.28-.62l.31-.09c.3-.14.66-.37.96-.55-.09-.43-.14-.75-.19-1.19,4.65,4.58,23.5,4.5,28.5-.45,1.99-1.97,1.55-3.85-.23-5.61.92-.3,1.58-.37,2.53-.51l-.48-1.41.4-.02c1.48,1.32,2.08,2.79,2.14,4.74.26,8.09-11.51,9.56-17.37,9.57Z"/>
        <path d="M230.53,568.26c-5.67.79-15.37.32-20.51-2.32.3-.14.66-.37.96-.55-.09-.43-.14-.75-.19-1.19,4.65,4.58,23.5,4.5,28.5-.45,1.99-1.97,1.55-3.85-.23-5.61.92-.3,1.58-.37,2.53-.51,1.09,7.69-4.71,9.75-11.07,10.64Z"/>
        <path d="M95.14,513.47c-.05-4.79-.15-9.58-.32-14.36-.31-8.94-.25-17.55-7.13-24.34-7.17-7.08-20.05-6.74-29.58-6.55-.81.02-1.62.03-2.43.06-10.05.56-21.68,1.59-28.77,9.65-6.2,7.05-8.29,18.2-8.98,27.42-1.09,14.64-.86,29.9-.34,44.58.29,8.23,3.27,18.84,9.56,24.43,8.05,7.03,19.96,6.84,30.05,6.88,32.68-.32,36.47-4.49,37.64-37.17.36-10.2.46-20.4.3-30.6ZM64.13,548.68c-1.29,1.36-3.35,1.31-5.08,1.39-1.64.04-3.8.19-5.31-.5-.84-.38-1.21-1.12-1.51-1.96-2-5.61-1.21-32.73-.4-39.54.26-2.16.64-4.69,1.62-6.66.98-1.97,2.83-2.86,4.82-3.51h.16c1.91-.16,4.78-.43,6.31.95,1.25,1.14,1.2,5,1.29,6.63.29,5.87.93,40.23-1.9,43.2Z"/>
        <path class="cls-5" d="M90.85,514.47c0-9.77.19-20.47-1.05-30.15-.3-2.34-2.33-7.58-4.28-8.97-5.69-5.83-14.26-5.94-22.03-6.03-11.01-.13-26.36.32-34.65,8.43-10.24,10.01-10.13,32.22-10.37,45.7-.11,6.57-.15,23.79,1.1,29.75.78,3.56,2.06,6.99,3.81,10.18.49,1.83,4.01,5.62,5.78,6.83,2.45,1.67,5.44,3.2,8.43,3.79,10.77,2.15,24.31,1.75,35.23.53,4.33-.58,10.22-2.56,12.74-6.43,4.93-7.59,4.81-20.14,5.03-28.89.25-8.24.34-16.49.26-24.74ZM51.83,508.07c.26-2.16.64-4.69,1.62-6.66.98-1.97,2.83-2.86,4.82-3.51h.16c1.91-.16,4.78-.43,6.31.95,1.25,1.14,1.2,5,1.29,6.63.29,5.87.93,40.23-1.9,43.2-1.29,1.36-3.35,1.31-5.08,1.39-1.64.04-3.8.19-5.31-.5-.84-.38-1.21-1.12-1.51-1.96-2-5.61-1.21-32.73-.4-39.54Z"/>
        <path class="cls-4" d="M23.37,563.38c-1.75-3.19-3.04-6.62-3.82-10.18-1.24-5.96-1.21-23.18-1.1-29.75.24-13.47.13-35.69,10.37-45.7,8.29-8.1,23.65-8.56,34.65-8.43,7.78.09,16.35.2,22.03,6.03-2.16-.24-5.41-2.69-8.84-3.1-10.77-1.27-24.72-1.68-35.15,1.4-2.86.81-5.56,2.11-7.98,3.82-7.19,5.18-10.18,14.49-11.37,23.02-2.31,16.48-1.71,34.3-1.07,50.92.09,2.24.59,4.27,1,6.4.19.97,1.3,4.99,1.27,5.56Z"/>
        <path d="M68.21,498.67c-.54-1.25-1.31-2.47-2.62-3-1.62-1.93-3.45-3.11-6-3.29-8.16-.55-11.98,4.78-12.55,12.72-.93,13.11-1.85,27.99.51,41,.29,1.59,2.08,3.22,3.42,4-.06.12-.13.18-.09.31.29.8,1.4,1.36,2.13,1.67,3.34,1.4,8.39,1.58,11.74.19,1.29-.53,2.48-1.44,3.01-2.76,2.17-5.36,2.75-45.41.43-50.84ZM51.83,508.07c.26-2.16.64-4.69,1.62-6.66.98-1.97,2.83-2.86,4.82-3.51h.16c1.91-.16,4.78-.43,6.31.95,1.25,1.14,1.2,5,1.29,6.63.29,5.87.93,40.23-1.9,43.2-1.29,1.36-3.35,1.31-5.08,1.39-1.64.04-3.8.19-5.31-.5-.84-.38-1.21-1.12-1.51-1.96-2-5.61-1.21-32.73-.4-39.54Z"/>
        <path class="cls-4" d="M65.6,495.67c1.31.53,2.08,1.75,2.61,3,2.33,5.44,1.75,45.48-.43,50.84-.54,1.32-1.72,2.23-3.01,2.76-3.35,1.39-8.4,1.21-11.74-.19-.74-.31-1.84-.87-2.13-1.67-.05-.14.02-.19.08-.31,4.04,1.53,10.26,1.71,14.05-.56.33-.52.67-1.06.91-1.62,2.26-5.37,1.74-39.97.97-46.91-.21-1.92-.55-3.56-1.32-5.33Z"/>
        <path class="cls-5" d="M127.49,503.58v-17.49c-.02-4.54-.41-10.08.9-14.38,2.58-8.51,14.53-10.57,21.17-5.73,1.7,1.24,2.59,2.29,3.89,3.95,1.14,2.18,2.18,4.26,2.42,6.74.61,6.26.61,12.77.71,19.07.12,12.01.16,24.03.12,36.05l-.07,25.99c-.05,5.24.19,12.71-1,17.62-2.71,11.16-21.52,12.05-26.57,2.06-.11-.22-.21-.43-.3-.66l-.62-1.92c-.99-3.99-.68-12.25-.67-16.74l.02-25.54h-3.21s0,25.04,0,25.04c0,5.57.15,10.63-.57,16.19-1.58,12.09-20.25,13.43-25.29,3.52-.39-.92-.69-1.97-.99-2.92-.18-.87-.3-1.74-.35-2.63-.33-5.75-.09-13.8-.09-19.67l.05-36.61.07-25.39c.02-5.22-.12-10.33.43-15.52,1.12-10.5,14.44-14.57,21.98-7.75-.63.58-.83.6-1.66.81l.55.9c.65.56.3.72.65,1.17,1.16-.08,1.44-.12,2.54-.5,3.31,5.69,2.72,11.05,2.71,17.4v16.93s3.19.03,3.19.03Z"/>
        <path d="M153.44,469.93c1.14,2.18,2.18,4.26,2.42,6.74.61,6.26.61,12.77.71,19.07.12,12.01.16,24.03.12,36.05l-.07,25.99c-.05,5.24.19,12.71-1,17.62-2.71,11.16-21.52,12.05-26.57,2.06-.11-.22-.21-.43-.3-.66l-.62-1.92c.78-.06,1.51-.47,2.04-1.03l1.62,1.87,1.06.8c3.75,4.02,16.9,2.65,18.2-4.33,1.37-7.32,1.07-15.02,1.14-22.49l.15-24.65.03-29.93c0-5.63.49-20.35-1.63-24.87,1.24.04,1.5.03,2.68-.32Z"/>
        <path d="M130.18,573.84l1.62,1.87c-1.13.46-1.85.74-3.04,1.07l-.62-1.92c.78-.06,1.51-.47,2.04-1.03Z"/>
        <path d="M102.13,576.31c.64.79,2.29,1.31,3.28,1.58,3.08.82,6.83.58,9.6-1.04,1.65-.96,2.96-2.28,3.66-4.08,2.3-5.96,1.59-28.74,1.58-36.4,0-2.16-.46-5.17.13-7.22.17-.58.56-.96,1.09-1.22,1.04-.51,5.29-.39,6.41.07.62.56.69.64.92,1.44-.34,12.02.08,24.19-.08,36.22-.04,2.81.15,5.65,1.47,8.18-.54.56-1.26.97-2.04,1.03-.99-3.99-.68-12.25-.67-16.74l.02-25.54h-3.21s0,25.04,0,25.04c0,5.57.15,10.63-.57,16.19-1.58,12.09-20.25,13.43-25.29,3.52-.39-.92-.69-1.97-.99-2.92.98.31.93.36,1.77.08l.26-.56c.78.81,1.6,1.7,2.46,2.42l.22-.04Z"/>
        <path d="M99.45,573.93c.78.81,1.6,1.7,2.46,2.42-1.3.46-2.16.67-3.5.98-.39-.92-.69-1.97-.99-2.92.98.31.93.36,1.77.08l.26-.56Z"/>
        <path class="cls-4" d="M97.41,574.41c-.18-.87-.3-1.74-.35-2.63-.33-5.75-.09-13.8-.09-19.67l.05-36.61.07-25.39c.02-5.22-.12-10.33.43-15.52,1.12-10.5,14.44-14.57,21.98-7.75-.63.58-.83.6-1.66.81l.55.9-.14-.06c-.77-.31-1.54-.77-2.22-1.12-4.88-2.52-12.73.37-14.38,5.77-1.99,6.49-1.4,18.47-1.4,25.33v28.31s-.03,27.1-.03,27.1c0,5.86-.57,14.46,1,20.17.12.44.97,1.9.91,2.27l-.22.04c-.86-.72-1.67-1.61-2.46-2.42l-.26.56c-.84.28-.79.23-1.77-.08Z"/>
        <path d="M97.41,574.41c-.18-.87-.3-1.74-.35-2.63-.33-5.75-.09-13.8-.09-19.67l.05-36.61.07-25.39c.02-5.22-.12-10.33.43-15.52,1.12-10.5,14.44-14.57,21.98-7.75-.63.58-.83.6-1.66.81-6.7-6.6-18.12-2.01-19.12,7.09-.5,4.57-.43,8.85-.43,13.44l-.02,19.49c-.02,20.11-.03,40.23-.05,60.34,0,2.4.2,3.78,1.22,5.92l-.26.56c-.84.28-.79.23-1.77-.08Z"/>
        <path class="cls-4" d="M127.49,503.58v-17.49c-.02-4.54-.41-10.08.9-14.38,2.58-8.51,14.53-10.57,21.17-5.73,1.7,1.24,2.59,2.29,3.89,3.95-1.18.35-1.45.36-2.68.32-.2-.58-.22-.8-.7-1.2-.84-.36-1.53-.9-2.35-1.32-3.03-1.54-6.8-1.7-10.01-.48-2.51.96-4.52,2.88-5.6,5.33-3.13,6.99-.36,24.48-1.55,32.57-.35,2.4-7.73,1.79-8.37.02,1.26-.54,4.41-.18,5.76-.5-.86-.12-2.76-.1-3.7-.11l.04-1.01,3.2.03Z"/>
        <path d="M127.49,503.58v-17.49c-.02-4.54-.41-10.08.9-14.38,2.58-8.51,14.53-10.57,21.17-5.73,1.7,1.24,2.59,2.29,3.89,3.95-1.18.35-1.45.36-2.68.32-.2-.58-.22-.8-.7-1.2-5.41-8.08-19.79-4.82-21.01,4.92-.43,3.45-.37,6.36-.36,9.82l.07,13.1c.01,1.91.51,6.56-.83,7.79-.86-.12-2.76-.1-3.7-.11l.04-1.01,3.2.03Z"/>
        <path d="M121.58,469.22c3.31,5.69,2.72,11.05,2.71,17.4v16.93s-.06,1.01-.06,1.01c-1.32.08-3.48.59-3.84-1.18-.42-2.06.03-4.51-.13-6.51-.59-7.19,1.51-20.78-1.22-27.15,1.16-.08,1.44-.12,2.54-.5Z"/>
        <path class="cls-4" d="M128.79,529.44c.88.18,1,.2,1.61.85,1.44,2.77-.74,36.18.73,41.5.44,1.59,1.3,3.29,1.72,4.72l-1.06-.8-1.62-1.87c-1.32-2.53-1.51-5.37-1.47-8.18.16-12.03-.26-24.2.08-36.22Z"/>
        <path class="cls-5" d="M245.78,529.9c-2.11-6.98-.78-23.23-1.05-31.08-.24-6.99-.24-17.19.52-24.03,1.33-11.94,16.2-15.59,23.5-5.09,1.34,2.46,1.15,3.32,2.02,5.41,3.29-.91,8.11,2.38,10,4.94,3.51,5.4,3.13,13.01-2.54,16.88-2.3,1.58-4.7,1.39-7.34,1.84-.1.17-.19.31-.26.43-.05.88-.06,1.47-.02,2.35,4.55.27,7.49,1.88,10.14,5.65,3.65,7.12,1.59,15.92-7.3,17.54-.81.15-2.01.12-2.86.14-.05,3.74-.72,7.64-3.65,10.18-7.15,6.21-17.86,3.6-21.18-5.15Z"/>
        <path class="cls-4" d="M245.78,529.9c-2.11-6.98-.78-23.23-1.05-31.08-.24-6.99-.24-17.19.52-24.03,1.33-11.94,16.2-15.59,23.5-5.09-.83,0-2.03.03-2.81-.1-.35-.77-.4-.9-.96-1.53-.87-.16-1.46-.62-2.26-.86-11.14-3.29-14.75,5.75-14.73,14.54.04,15.03-.41,28.85.14,43.75.07,2.21,1.97,4.46,2.13,5.89-1.39-.93-2.04-1.81-2.97-3.13l-1.52,1.64Z"/>
        <path d="M245.78,529.9c-2.11-6.98-.78-23.23-1.05-31.08-.24-6.99-.24-17.19.52-24.03,1.33-11.94,16.2-15.59,23.5-5.09-.83,0-2.03.03-2.81-.1-.35-.77-.4-.9-.96-1.53-1.67-2.04-3.26-3.15-6.01-3.45-3.05-.35-6.11.56-8.49,2.5-2.84,2.34-4.19,6.03-4.29,9.61-.23,8.07-.54,16.99-.29,25.01.2,6.53-.99,21.09,1.4,26.52l-1.52,1.64Z"/>
        <path d="M278.2,507.64c.88.02,1.71-.23,2.58-.44,3.65,7.12,1.59,15.92-7.3,17.54-.81.15-2.01.12-2.86.14-.05,3.74-.72,7.64-3.65,10.18-7.15,6.21-17.86,3.6-21.18-5.15l1.52-1.64c.93,1.32,1.58,2.2,2.97,3.13.2.28.36.33.65.49,2.89,1.59,6.31,1.94,9.46.97,6.17-1.89,5.48-6.84,6.92-11.73.24-.81,4.36-1,5.55-1.37,5.57-1.74,7.03-7,5.34-12.12Z"/>
        <path d="M278.39,480.61c.58-.25,1.73-.43,2.39-.56,3.51,5.4,3.13,13.01-2.54,16.88-2.3,1.58-4.7,1.39-7.34,1.84-.1.17-.19.31-.26.43-.05.88-.06,1.47-.02,2.35l-.16,1.05-1.69.06c-.92,0-1.29-.23-1.83-.92-.1-1.05-.07-2.21-.15-3.22-.37-4.99,1.3-3.84,5.16-4.63,7-1.43,8.73-7.32,6.43-13.27Z"/>
        <path d="M265.95,469.6c.78.13,1.99.1,2.81.1,1.34,2.46,1.15,3.32,2.02,5.41-.25.44-.36.77-.81.98l-1.46.15c-2.07-.25-1.78-4.56-2.56-6.64Z"/>
        <path d="M270.63,501.54c4.55.27,7.49,1.88,10.14,5.65-.86.21-1.69.46-2.58.44-.27-.62-.4-.87-.74-1.44-.09-.11-.18-.23-.27-.34-2.08-2.57-3.62-2.93-6.7-3.26l.16-1.05Z"/>
        <path d="M270.78,475.11c3.29-.91,8.11,2.38,10,4.94-.67.13-1.81.31-2.39.56-.22-.56-.22-.69-.65-1.09-2.22-2.96-4.3-3.41-7.77-3.44.44-.21.56-.54.81-.98Z"/>
        <path class="cls-4" d="M269.97,476.09c3.47.03,5.54.47,7.77,3.44-.95-.1-2.92-1.35-3.96-1.58-1.36-.3-3.09.1-4.44-.33-.55-.18-.64-.81-.83-1.38l1.46-.15Z"/>
        <path class="cls-4" d="M270.48,502.6c3.08.33,4.62.69,6.7,3.26.09.11.19.23.27.34-.97.04-2.3-1.25-3.49-1.58-1.88-.52-4.3.52-5.37-1.29l.19-.68,1.69-.06Z"/>
        <path d="M119.51,466.84c.83.85,1.38,1.39,2.07,2.38-1.1.38-1.37.43-2.54.5-.35-.44,0-.61-.65-1.17l-.55-.9c.84-.21,1.04-.22,1.66-.81Z"/>
      </g>
      <g>
        <path class="cls-3" d="M353.65,459.71c-3.2-1-6.49-.4-8.89,1.35.41-1,.63-2.09.63-3.23,0-5.01-4.32-9.07-9.66-9.07s-9.66,4.06-9.66,9.07c0,2.21.84,4.23,2.24,5.8-.09.09-1.41-.73-2.08-1.01-5-2.15-10.76.24-12.81,5.02-2.06,4.78.33,10.4,5.32,12.55.84.36,1.7.6,2.56.73-1.04,1.44-1.64,3.16-1.64,5.02,0,5.01,4.39,9.07,9.8,9.07,5.07,0,9.24-3.56,9.75-8.13,1.14,2.36,3.31,4.29,6.12,5.17,5.17,1.61,10.56-.95,12.06-5.74,1.06-3.39-.13-6.98-2.75-9.36,2.65-.91,4.8-2.92,5.66-5.67,1.49-4.78-1.48-9.97-6.65-11.58h0Z"/>
        <ellipse class="cls-7" cx="337.26" cy="472.99" rx="7.79" ry="6.21"/>
      </g>
      <g>
        <g>
          <circle class="cls-6" cx="341.79" cy="76.71" r="55.57"/>
          <path d="M341.79,134.58c-31.91,0-57.86-25.95-57.86-57.86s25.95-57.86,57.86-57.86,57.86,25.95,57.86,57.86-25.95,57.86-57.86,57.86ZM341.79,23.44c-29.37,0-53.27,23.9-53.27,53.27s23.9,53.27,53.27,53.27,53.27-23.9,53.27-53.27-23.9-53.27-53.27-53.27Z"/>
        </g>
        <g>
          <circle class="cls-6" cx="95.36" cy="76.71" r="55.57"/>
          <path d="M95.36,134.58c-31.91,0-57.86-25.95-57.86-57.86s25.95-57.86,57.86-57.86,57.86,25.95,57.86,57.86-25.95,57.86-57.86,57.86ZM95.36,23.44c-29.37,0-53.27,23.9-53.27,53.27s23.9,53.27,53.27,53.27,53.27-23.9,53.27-53.27-23.9-53.27-53.27-53.27Z"/>
        </g>
        <g>
          <path class="cls-4" d="M144.73,416.11c-11.52,0-22.42-9.08-28.27-16.86l-.06-.08c-1.91-2.79-4.82-8.63-3.58-12.79,2.14-7.22,7.19-10.88,15-10.88,2.92,0,5.86.51,8.29,1.02,2.01-1.7,3.84-3.99,5.62-6.22.8-1,1.64-2.04,2.47-3.01s1.68-1.98,2.54-2.98c2.47-2.92,5.03-5.94,7.66-8.65l.88-.91,1.24.27c.7.15,1.27.5,4.7,2.88,1.29.89,2.89,2,3.45,2.31,8.93,4.83,17.61,7.63,29,9.34l4.43.66-3.12,3.21c-4.02,4.14-8.14,8.26-12.24,12.26l-1.74,1.67c-5.89,5.65-11.45,10.99-16.76,17.14-3.91,4.52-6.99,8.1-12.97,10.59l-.08.04-.08.03c-2.03.66-4.17,1-6.37,1h0Z"/>
          <path d="M156.04,357.24c.63.14,6.07,4.16,7.53,4.95,9.76,5.28,18.81,7.94,29.76,9.59-4.02,4.13-8.08,8.2-12.2,12.22-6.48,6.23-12.73,12.1-18.64,18.95-3.8,4.39-6.64,7.68-12.11,9.96-1.87.61-3.76.89-5.65.89-10.32,0-20.66-8.25-26.44-15.95-1.76-2.56-4.22-7.66-3.27-10.84,2.13-7.22,7.2-9.24,12.79-9.24,2.92,0,5.98.55,8.86,1.19,3.56-2.65,6.36-6.84,9.26-10.21,3.27-3.8,6.64-7.95,10.12-11.53M154.52,352.22l-1.76,1.82c-2.69,2.77-5.28,5.82-7.77,8.77-.85,1-1.69,2-2.53,2.97-.86.99-1.7,2.05-2.52,3.08-1.46,1.83-2.95,3.69-4.5,5.17-2.3-.45-4.94-.83-7.61-.83-11.15,0-15.5,6.81-17.2,12.53-1.78,6.02,2.92,13.34,3.89,14.74l.06.08.06.08c6.17,8.2,17.75,17.77,30.11,17.77,2.44,0,4.82-.38,7.08-1.12l.17-.06.17-.06c6.48-2.69,9.88-6.64,13.82-11.2,5.24-6.07,10.77-11.38,16.63-16.99l1.72-1.65c4.14-4.04,8.28-8.18,12.32-12.33l6.24-6.41-8.85-1.33c-11.12-1.67-19.58-4.38-28.25-9.09-.45-.25-2.12-1.41-3.23-2.17-3.54-2.45-4.33-2.98-5.53-3.24l-2.48-.52h-.03Z"/>
        </g>
        <g>
          <path class="cls-4" d="M290.48,416.11c-2.1,0-4.13-.29-6.02-.87l-.12-.04-.12-.05c-2.61-1.13-5.02-2.64-7.17-4.49-2.53-2.21-4.99-5.13-7.39-7.96-1.92-2.26-3.73-4.4-5.51-6.14-3.45-3.37-7-6.75-10.44-10.04-4.44-4.24-9.03-8.61-13.46-13.01l-3.42-3.39,4.79-.52c8.8-.96,20.6-4.53,28.07-8.48,2.32-1.22,6.11-4.4,7.55-5.6l1.13-.95,1.33.63c1.04.5,3.01,2.52,14.02,14.93,2.18,2.45,4.12,4.63,5.25,5.87.21-.02.42-.04.64-.06,2.14-.21,4.57-.45,6.93-.45,2.49,0,4.5.27,6.15.82,3.83,1.28,6.97,4.04,8.62,7.59,1.56,3.37,1.66,7.14.28,10.62-4.58,11.5-19.11,21.59-31.1,21.59h0Z"/>
          <path d="M278.71,357.29c1.41.67,16.86,18.56,19.35,21.11,2.5-.22,5.58-.61,8.48-.61,1.97,0,3.85.17,5.42.7,6.33,2.1,10.04,8.8,7.49,15.18-4.03,10.11-17.25,20.15-28.97,20.15-1.83,0-3.62-.25-5.34-.77-2.39-1.03-4.61-2.43-6.58-4.13-4.3-3.78-8.63-9.94-12.79-14-7.91-7.72-16.04-15.25-23.89-23.04,8.85-.96,20.98-4.55,28.89-8.73,2.36-1.25,5.8-4.07,7.94-5.86M278.02,351.86l-2.26,1.89c-1.38,1.15-5.05,4.22-7.15,5.33-7.24,3.83-18.69,7.29-27.24,8.23l-9.58,1.05,6.84,6.78c4.46,4.42,9.05,8.8,13.51,13.05,3.43,3.27,6.98,6.65,10.41,10.01,1.7,1.66,3.48,3.76,5.37,5.98,2.44,2.89,4.97,5.87,7.61,8.18,2.36,2.03,4.97,3.68,7.79,4.89l.23.1.24.07c2.1.64,4.36.97,6.69.97,14.4,0,28.81-11.91,33.24-23.04,1.63-4.08,1.51-8.5-.33-12.44-1.91-4.12-5.55-7.32-9.97-8.8-1.88-.62-4.14-.94-6.87-.94-2.28,0-4.59.21-6.65.4-1.16-1.28-2.78-3.11-4.45-4.99-12.44-14.02-13.39-14.82-14.76-15.48l-2.67-1.27h0Z"/>
        </g>
        <path class="cls-4" d="M80.68,199.4c-.4-.87-11.35-34.63-1.65-72C100.22,45.7,176.33,2.31,257.75,23.46c20.26,6.9,58.34,27.53,76.83,55.9,1.58,2.93,4.09,6.47,5.86,9.59,6.23,10.73,11.2,22.13,14.82,34,6.9,23.49,7.22,52.7-.64,76.39-25.17,52.43-55.16,63.53-92.36,73.7-19.62,4.68-39.97,4.95-60.05,4.13-13.26-.55-31.31-1.97-43.65-7.03-16.4-5.77-61.9-23.3-77.87-70.71h0Z"/>
        <g>
          <path class="cls-12" d="M190.92,190.78c2.71-.1,6.56,1.1,9.42,1.41,13.62,1.47,27.74,1.4,41.21-1.27,5.8-1.15,7.07,5.15,7.38,9.48,1.19,16.83-.71,37.33-11.7,50.82-1.49,1.76-3.19,3.31-5.05,4.72-4.77,3.9-12.61,5.44-18.72,4.23-25.25-4.98-29.21-41.42-26.55-62.36.39-3.06,1.67-5.36,4.03-7.04h0Z"/>
          <path class="cls-11" d="M192.59,196.62c5.38.45,10.44,1.16,15.95,1.53,12.29.83,22.11-.09,34.15-1.99,2.3,12.48,1.34,27.53-2.95,39.54-5.05,12.16-14.49,23.86-29.39,17.99-6.69-2.64-11.79-10.39-14.33-16.88l-.08-.2c-4.62-11.55-5.42-27.77-3.35-39.97Z"/>
          <path class="cls-8" d="M195.94,236.6c1.08-1.77,8.38-5.13,10.52-5.73,12.34-3.46,22.36-.95,33.27,4.82-5.05,12.16-14.49,23.86-29.39,17.99-6.69-2.64-11.79-10.39-14.33-16.88l-.08-.2h0Z"/>
        </g>
        <g>
          <path class="cls-1" d="M261.84,365.93c-15.71,5.13-29.87,6.09-46.35,5.9-17.24-.21-34.25-1.84-49.83-9.79-.15-.07-.28-.16-.43-.25-9.6-5.55-15.86-11.03-18.7-22.31-3.31-13.17-.52-27.9,4.6-41.54,3.27-8.76,7.52-17.06,11.73-24.22,44.48,16.22,105.81,1.65,110.08-.22.3.3,6.71,12.55,10.9,23.31.59,1.51,1.13,2.99,1.61,4.4,9.01,26.7,7.31,54.65-23.61,64.72h0Z"/>
          <path d="M219.26,374.16c-1.25,0-2.52,0-3.8-.03-15.8-.19-34.19-1.53-50.85-10.04-.19-.09-.39-.21-.6-.34-9.91-5.73-16.7-11.71-19.72-23.7-3.04-12.11-1.47-26.55,4.69-42.91,2.95-7.89,6.95-16.16,11.89-24.58l.97-1.65,1.8.65c43.92,16.01,104.37,1.58,108.37-.17l1.43-.62,1.11,1.11c.94.94,7.73,14.63,11.41,24.1.62,1.57,1.17,3.09,1.65,4.5,6.35,18.81,6.49,35.16.41,47.27-4.81,9.57-13.38,16.42-25.49,20.37-14.87,4.85-28.26,6.04-43.29,6.04h0ZM163.88,276.53c-4.37,7.62-7.94,15.08-10.61,22.22-5.82,15.47-7.34,28.99-4.53,40.18,2.64,10.47,8.46,15.59,17.63,20.89.15.09.23.14.31.18,15.83,8.08,33.56,9.36,48.83,9.55,16.16.19,30.09-.73,45.6-5.79h0c10.9-3.55,18.57-9.63,22.8-18.06,6.97-13.88,3.48-31.45-.66-43.74-.45-1.35-.98-2.79-1.57-4.3-3.35-8.57-8-17.86-9.85-21.39-11.65,3.27-66.49,14.49-107.96.27v-.02Z"/>
        </g>
        <path class="cls-10" d="M27.23,132.28c.74.08,1.53.26,1.86,1,2.59,6.72,3.11,11.9,6.68,18.36,3.74,6.76,18.12,9.15,20.68,12.59-.15,1.18-3.93,2.36-5.06,2.77-5.73,1.95-10.39,3.77-14.56,8.2-4.77,5.06-4.98,15.77-8.03,20.31-.47.29-.61.3-1.14.47-1.82-.52-2.78-4.59-3.17-6.36-1.11-5.1-3.32-9.35-5.35-13.75-2.72-5.91-17.76-9.14-19.13-11.33.06-1.93,2.78-3.01,4.34-3.47,8.88-2.68,15.42-6.3,18.35-15.63,1.26-4,2.13-9.67,4.53-13.17v.02Z"/>
        <path class="cls-10" d="M399.89,152.43c3.98,2.08,3.06,11.74,7.12,16.3,5.41,6.09,10.85,4.37,16.82,10.07-4.53,2.61-9.09,3.39-13.61,6-6.67,3.84-5.74,14.08-9.65,18.81-2.44-.51-3.61-7.81-4.58-10.52-.72-1.99-1.62-3.9-2.69-5.71-3.73-6.25-15.41-5.88-16.08-10.01.95-1.74,10.82-3.61,14.55-7.17,5.62-5.38,4.77-13.96,8.13-17.78h0Z"/>
        <path class="cls-10" d="M426.63,115.01c3.08,1.53,3.17,8.16,5.32,11.53,2.87,4.5,5.82,5.52,10.87,6.81,1.17.29,2.28.76,2.83,1.83l-.2.56c-1.92,1.73-4.97,2.09-7.4,3.08-7.56,3.08-7.28,9.87-9.87,15.76-.74.39-.69.39-1.52.37-.38-.27-.82-.52-.9-1-1.56-8.71-4.11-14.53-13.38-16.71-.95-.22-2.43-.97-3.01-1.92.19-2.36,7.49-2.78,10.7-5.77,4.65-4.35,4.04-11.6,6.56-14.53h0Z"/>
        <path class="cls-6" d="M80.68,199.4c-.4-.87-11.35-34.63-1.65-72C100.22,45.7,176.33,2.31,257.75,23.46c12.97,5.26,45.69,16.13,76.83,55.9,1.58,2.93,4.09,6.47,5.86,9.59,6.23,10.73,11.2,22.13,14.82,34,6.9,23.49,7.22,52.7-.64,76.39-.15.45-13.21,28.33-31.44,44.56.28-1.53,11.62-16.76,21.98-45.33,4.03-12.86,5.62-25.58,4.87-38.99-23.76-.36-42.97-7.17-52.15-31.21-2.57,2.1-4.92,4.08-7.73,5.87-10.26,6.53-22.41,9.41-34.5,8.19-11.2-1.14-21.5-5.89-28.85-14.62-4.6-5.47-6.08-9.93-9.48-15.61-2.52,5.38-4.89,10.88-8.7,15.5-17.43,21.13-53.39,18.56-72.22.62-7.62,23.9-27.64,31.28-50.74,31.28,0,31.17,10.14,66.08,23.94,81.77-19.8-12.08-28.25-41.28-28.93-41.96Z"/>
        <path class="cls-1" d="M323.18,245.26c-.24,0-.47-.06-.69-.18-.66-.39-.88-1.22-.5-1.88,21.29-36.67,27.9-56.92,26.74-82.26-27.07-.69-43.04-10.09-51.42-30.31-2.07,1.68-4.07,3.28-6.41,4.77-10.47,6.66-23.04,9.64-35.38,8.4-12.2-1.24-22.49-6.46-29.76-15.11-3.19-3.79-4.92-7.1-6.75-10.59-.5-.95-1-1.92-1.55-2.91-2.14,4.61-4.41,9.33-7.76,13.38-7.52,9.12-18.97,14.58-32.26,15.38-14.68.88-29.95-4.14-40.39-13.19-7.13,19.71-23.93,29.88-49.99,30.23.23,14.74,4.99,56.46,24.68,80.43.49.59.4,1.46-.19,1.94-.59.49-1.45.4-1.94-.19-20.84-25.38-25.37-69.94-25.31-83.55,0-.76.62-1.37,1.38-1.37,26.76,0,42.93-9.93,49.44-30.33.15-.45.51-.8.97-.92s.95,0,1.3.34c9.91,9.44,25.22,14.75,39.9,13.87,12.52-.75,23.28-5.86,30.3-14.37,3.31-4.01,5.56-8.86,7.74-13.55l.78-1.66c.22-.46.67-.76,1.18-.79.51-.03.99.23,1.25.67,1.13,1.89,2.05,3.65,2.93,5.34,1.76,3.35,3.42,6.53,6.41,10.09,6.8,8.08,16.46,12.97,27.93,14.13,11.74,1.19,23.67-1.65,33.62-7.98,2.46-1.57,4.6-3.32,6.86-5.17l.74-.61c.34-.28.8-.38,1.23-.27.43.11.77.42.93.84,7.85,20.56,23.54,29.91,50.88,30.33.73,0,1.31.58,1.36,1.31,1.48,26.58-5.09,47.26-27.05,85.08-.26.44-.72.69-1.19.69h0Z"/>
        <path d="M217,18.14c13.27,0,26.93,1.73,40.75,5.32,25.07,7.97,66.38,35.58,82.7,65.48,6.23,10.73,11.2,22.13,14.82,34,6.91,23.49,7.22,52.69-.64,76.39-9.79,26.36-32.04,59.09-92.36,73.7-14.37,3.43-29.14,4.49-43.91,4.49-5.39,0-10.77-.14-16.14-.36-96.76-6.1-119.8-68.49-123.54-86.21-4.97-20.9-4.85-42.7.36-63.54C96.63,59.58,152.08,18.15,217,18.15M217,13.55v4.6-4.6c-33.27,0-64.23,10.43-89.56,30.16-25.79,20.09-44.07,48.64-52.86,82.54-5.38,21.49-5.51,44.19-.4,65.7,1.36,6.41,7.37,28.66,28.1,49.67,10.66,10.81,23.6,19.61,38.47,26.17,17.68,7.8,38.26,12.49,61.16,13.93h.09c5.99.25,11.33.37,16.32.37,17.47,0,31.76-1.47,44.98-4.61,27.9-6.75,50.5-18.04,67.2-33.55,12.77-11.86,22.07-25.94,28.41-43.02l.03-.07.03-.07c7.84-23.6,8.11-53.92.7-79.14-3.72-12.21-8.84-23.95-15.23-34.95-17.47-31.98-60.76-59.8-85.31-67.6l-.12-.04-.12-.03c-13.97-3.63-28.07-5.47-41.9-5.47h0Z"/>
        <g>
          <ellipse class="cls-9" cx="130.79" cy="209.62" rx="22.54" ry="19.88"/>
          <path class="cls-2" d="M122.26,216.65c-.34,0-.68-.05-1.02-.14-1.76-.5-2.75-2.17-2.18-3.72l3.2-8.85c.56-1.56,2.45-2.42,4.23-1.92,1.76.5,2.75,2.17,2.18,3.72l-3.2,8.85c-.46,1.26-1.77,2.07-3.2,2.07h0Z"/>
          <path class="cls-2" d="M134.95,218.47c-.34,0-.68-.05-1.02-.14-1.76-.5-2.75-2.17-2.18-3.72l3.2-8.85c.56-1.56,2.45-2.42,4.23-1.92,1.76.5,2.75,2.17,2.18,3.72l-3.2,8.85c-.46,1.26-1.77,2.07-3.2,2.07h0Z"/>
        </g>
        <g>
          <ellipse class="cls-9" cx="305.36" cy="209.62" rx="22.54" ry="19.88"/>
          <path class="cls-2" d="M296.82,216.65c-.34,0-.68-.05-1.02-.14-1.76-.5-2.75-2.17-2.18-3.72l3.2-8.85c.56-1.56,2.45-2.42,4.23-1.92,1.76.5,2.75,2.17,2.18,3.72l-3.2,8.85c-.46,1.26-1.77,2.07-3.2,2.07h0Z"/>
          <path class="cls-2" d="M309.52,218.47c-.34,0-.68-.05-1.02-.14-1.76-.5-2.75-2.17-2.18-3.72l3.2-8.85c.56-1.56,2.45-2.42,4.23-1.92,1.76.5,2.75,2.17,2.18,3.72l-3.2,8.85c-.46,1.26-1.77,2.07-3.2,2.07h0Z"/>
        </g>
        <g>
          <path class="cls-4" d="M162.85,273.73c-4.21,7.16-8.46,15.46-11.73,24.22-9.38-4.76-21.08-11.39-28.36-15.76-16.62-10-48.27-32.46-53-51.99-1.24-5.13-.94-10.39,1.9-14.94,2.46-3.95,5.98-6.38,10.5-7.42,8.45-.78,10.9,3.25,16.21,8.41,4.01,3.72,2.3-8.51,9.41-5.73,6.07,2.36,3.25,15.11,6.08,18.86,2.77,3.67,5.17,6.14,7.73,8.73,12.62,12.79,27.28,24.39,41.26,35.63Z"/>
          <path d="M152.38,301.16l-2.29-1.17c-9.53-4.83-21.18-11.44-28.51-15.84-8.03-4.83-48.41-30.14-54.05-53.41-1.51-6.22-.75-12,2.19-16.7,2.75-4.41,6.76-7.25,11.93-8.44l.3-.05c8.34-.77,11.87,2.82,15.96,6.98.45.46.92.94,1.42,1.42.06-.16.13-.31.18-.44.93-2.24,3.1-7.49,9.11-5.15,5,1.95,5.51,8.26,5.93,13.33.2,2.5.43,5.33,1.15,6.29,2.77,3.67,5.19,6.13,7.54,8.5,11.74,11.9,25.31,22.8,38.43,33.35l4.17,3.35-1,1.71c-4.82,8.19-8.7,16.21-11.55,23.86l-.9,2.41h0ZM82.52,210.11c-3.92.94-6.83,3.01-8.91,6.36-2.3,3.69-2.85,8.12-1.62,13.19,4.04,16.68,30.51,37.66,51.95,50.57,6.68,4.02,17,9.88,25.95,14.52,2.63-6.62,5.97-13.48,9.97-20.45l-1.08-.87c-13.23-10.62-26.91-21.62-38.83-33.7-2.33-2.37-4.98-5.05-7.93-8.96-1.53-2.01-1.78-5.26-2.07-8.68-.32-3.99-.7-8.51-3.01-9.42-1.43-.56-1.87-.58-3.19,2.62-.68,1.64-1.44,3.48-3.36,3.91-1.2.27-2.41-.16-3.58-1.25-.8-.77-1.5-1.49-2.18-2.18-3.9-3.96-6.05-6.17-12.1-5.64h0Z"/>
        </g>
        <g>
          <path class="cls-4" d="M364.42,233.12c-7.33,15.49-24.11,29.41-38.1,39.1-11.46,7.93-29.74,19.37-42.48,24.6-4.19-10.75-10.6-23-10.9-23.31,23.85-10.26,48.8-44.75,49.35-46.4,1.86-5.59-.62-13.76,4.94-17.79,5.05-1.8,7.66,6.84,7.66,6.84,4.16-5.07,5.23-7.81,14.79-10.08,13.68-1.11,20.22,15.78,14.75,27.05h0Z"/>
          <path d="M282.54,299.83l-.85-2.18c-3.93-10.1-9.69-21.17-10.56-22.69l-2.22-2.22,3.12-1.34c22.98-9.88,46.62-42.45,48.12-45.13.52-1.65.62-3.68.74-5.83.24-4.56.51-9.71,4.99-12.98l.27-.19.31-.11c1.65-.59,3.35-.49,4.89.29,1.82.92,3.18,2.67,4.11,4.31,2.85-3.52,5.43-5.96,13.68-7.92l.35-.06c6.19-.51,11.61,2.14,15.24,7.46,4.5,6.58,5.21,15.77,1.77,22.87-6.13,12.93-19.2,26.39-38.87,40-11.84,8.19-30.17,19.61-42.91,24.84l-2.16.89-.02-.02ZM276.14,274.56c2.21,4.17,6.15,12.39,8.95,19.22,12.26-5.42,28.91-15.84,39.91-23.45,18.73-12.97,31.64-26.17,37.33-38.19v-.02c2.72-5.58,2.13-13.1-1.42-18.28-2.63-3.84-6.49-5.79-10.91-5.49-7.44,1.79-8.94,3.69-11.91,7.44-.45.57-.93,1.18-1.46,1.82l-2.73,3.33-1.24-4.12c-.42-1.37-1.8-4.47-3.41-5.28-.33-.17-.64-.21-.98-.15-2.44,2-2.61,5.39-2.81,9.27-.13,2.41-.26,4.9-1,7.16-.83,2.48-24.66,35.15-48.32,46.73h0Z"/>
        </g>
        <path class="cls-12" d="M149.85,187.39c-1.33,0-2.58-.84-3.04-2.18-.58-1.68.32-3.51,2-4.09,4.96-1.7,9.89-3.15,14.24-4.43,5.21-1.53,11.48-3.38,14.22-4.82-4.35-2.86-17.23-8.12-28.46-11.98-1.68-.58-2.57-2.41-1.99-4.09.58-1.68,2.41-2.57,4.09-1.99.08.03,8.25,2.85,16.24,6.13,15.5,6.37,18.07,9.23,17.54,12.54-.75,4.77-7.53,6.76-19.81,10.39-4.28,1.26-9.14,2.69-13.97,4.35-.35.12-.7.17-1.04.17h0Z"/>
        <path class="cls-12" d="M284.57,187.39c-.35,0-.7-.06-1.04-.17-4.83-1.65-9.69-3.09-13.97-4.35-12.29-3.62-19.06-5.61-19.81-10.39-.52-3.33,2.04-6.19,17.54-12.55,7.99-3.28,16.16-6.1,16.24-6.13,1.67-.58,3.51.31,4.09,1.99s-.31,3.51-1.99,4.09c-11.23,3.87-24.11,9.13-28.46,11.98,2.74,1.44,9,3.29,14.22,4.82,4.35,1.28,9.27,2.73,14.24,4.43,1.68.58,2.57,2.41,2,4.09-.46,1.33-1.71,2.18-3.04,2.18h0Z"/>
        <g>
          <g>
            <path class="cls-4" d="M316.66,86.85c-5.56,0-11.07-2.47-14.71-6.61-1.94-2.21-3.06-3.86-4.25-5.89-.29.42-.58.87-.85,1.3-.24.37-.46.73-.69,1.07-2.93,4.33-6.54,6.78-11.38,7.72-1.32.25-2.67.38-3.98.38-4.18,0-7.97-1.24-10.95-3.59-11.68-9.18-5.93-19.3-1.61-25.49-1.04-.93-2.21-1.65-3.53-2.45-.79-.48-1.6-.97-2.44-1.54-3.58-2.46-5.99-6.34-6.81-10.94-.79-4.42.12-8.9,2.49-12.28,1.67-2.39,4.08-4.33,6.95-5.62,2.26-1.01,4.55-1.53,6.82-1.53,4.58,0,8.23,2.07,10.91,3.58.96.54,2.12,1.2,2.84,1.42.04-.71-.1-1.55-.26-2.44-.06-.37-.12-.73-.17-1.08-.5-3.53-.85-8.73,1.84-13.17,2.21-3.65,5.72-6.01,10.73-7.21l.15-.04.15-.02c.77-.08,1.55-.12,2.32-.12,5.5,0,10.39,2.06,13.78,5.8,3.34,3.68,4.87,8.69,4.35,14.13-.08.85-.41,2-.8,3.33-.2.68-.49,1.66-.65,2.4,1.08-.07,2.67-.54,4.09-.96,1.74-.51,3.37-1,4.71-1,.24,0,.46.02.67.05,2.28.13,4.27.58,6.1,1.37,9.35,4.03,13.6,13.66,9.9,22.37-2.72,6.39-8.08,8.38-13.26,10.32l-.34.13c.07.14.15.28.22.41,2.33,4.4,4.74,8.94,3.02,14.91-2,6.98-7.88,11.3-15.33,11.3v.02Z"/>
            <path d="M300.21,4.6c9.58,0,16.85,7.1,15.84,17.41-.16,1.63-2,6.3-1.53,7.27.35.73,1.11.99,2.09.99,2.66,0,6.95-1.98,9.07-1.98.16,0,.3,0,.43.04,1.87.1,3.69.44,5.43,1.19,7.72,3.33,12.13,11.27,8.69,19.36-2.76,6.48-8.8,7.73-14.7,10.11,2.53,5.22,6.02,9.75,4.25,15.92-1.89,6.6-7.35,9.64-13.12,9.64-4.71,0-9.64-2.04-12.99-5.84-2.47-2.81-3.5-4.64-5.33-7.91l-.36-.04c-1.58,1-2.68,3.13-3.71,4.66-2.47,3.66-5.54,5.9-9.91,6.75-1.16.22-2.35.34-3.55.34-3.39,0-6.79-.94-9.53-3.1-9.94-7.82-5.83-15.84-.07-23.9-2.14-2.67-4.87-3.8-7.62-5.69-3.21-2.21-5.17-5.63-5.85-9.45-.64-3.59,0-7.54,2.1-10.55,1.5-2.13,3.64-3.78,6.01-4.83,2.12-.95,4.08-1.32,5.87-1.32,6.64,0,11.17,5.08,14.16,5.08.18,0,.37-.02.54-.06.94-.22,1.22-1.05,1.31-1.9.15-1.39-.23-2.89-.42-4.26-.56-3.94-.61-8.13,1.53-11.65,2.1-3.47,5.44-5.24,9.29-6.16.7-.07,1.4-.11,2.08-.11M300.21,0h0c-.85,0-1.7.05-2.55.14l-.3.03-.29.07c-5.63,1.34-9.6,4.04-12.16,8.25-2.86,4.71-2.73,10.01-2.26,13.85-2.78-1.53-6.39-3.25-10.94-3.25-2.59,0-5.2.58-7.76,1.73-3.25,1.45-5.98,3.67-7.89,6.4-2.72,3.88-3.77,8.98-2.87,14,.93,5.2,3.69,9.61,7.77,12.43.89.61,1.73,1.12,2.55,1.62.58.35,1.12.68,1.62,1.01-4.18,6.58-8.73,17.32,3.3,26.78,3.39,2.67,7.66,4.08,12.37,4.08,1.46,0,2.94-.14,4.4-.41,5.19-1,9.27-3.67,12.46-8.12.71,1,1.53,2.03,2.55,3.19,4.08,4.62,10.22,7.39,16.43,7.39,8.52,0,15.25-4.97,17.54-12.97,1.69-5.89-.19-10.73-2.21-14.73,4.8-1.87,9.78-4.42,12.48-10.77,4.22-9.92-.55-20.83-11.1-25.38-2.05-.88-4.27-1.4-6.79-1.54-.28-.04-.59-.06-.89-.06-1.67,0-3.46.53-5.36,1.09-.06.02-.12.04-.18.06.24-.88.43-1.68.5-2.4.6-6.08-1.16-11.73-4.93-15.89-3.83-4.23-9.33-6.55-15.48-6.55h0v-.02Z"/>
          </g>
          <path class="cls-13" d="M296.83,33.93c7.49-.59,16.22,3.36,17.36,11.52.45,3.05-.34,6.16-2.19,8.62-2.51,3.33-5.95,4.47-9.86,5.05-7.68.46-17.38-3.57-18.03-12.2-.25-3.17.79-6.3,2.88-8.7,2.7-3.06,5.95-4.01,9.85-4.27h0Z"/>
        </g>
      </g>
    </g>
  </g>
</svg>