<svg width="1424" height="546" viewBox="260 125 1424 546" fill="none" xmlns="http://www.w3.org/2000/svg">
<path d="M1591.4 201.137C1593.67 201.239 1595.94 201.403 1598.2 201.63C1612.65 203.172 1625.45 212.323 1634.32 223.413C1673.3 272.122 1670.74 410.023 1663.84 471.408C1659.89 506.498 1646.74 588.027 1618.05 610.678C1605.87 620.289 1589.93 623.461 1574.73 621.64C1561.15 620.014 1547.24 614.138 1538.7 603.097C1519.04 577.671 1534.79 546.642 1538.36 519.014C1502.98 584.268 1446.42 604.458 1375.35 586.659C1371.16 585.387 1367.03 583.935 1362.97 582.307C1263.06 542.668 1263.56 394.823 1295.11 309.324C1322.08 236.175 1399.83 194.211 1474.36 222.955C1512.69 237.743 1534.77 268.974 1550.19 305.38C1547.95 294.202 1546.63 282.41 1544.4 271.351C1536.97 234.606 1550.94 204.852 1591.4 201.137Z" fill="#E95C7F"/>
<path d="M1306.99 515.989C1286.51 485.504 1281.91 454.549 1281.45 418.806C1280.74 363.542 1293.05 297.961 1333.17 257.221C1357.73 232.322 1391.23 218.298 1426.2 218.28C1457.03 218.152 1481.39 227.406 1503.14 249.082C1506.41 251.447 1509.75 255.9 1512.2 259.265C1546.02 305.874 1548.38 372.4 1542.72 427.449C1536.25 490.31 1503.59 559.329 1434.73 569.502C1388.49 576.369 1341.84 562.062 1312.73 524.605C1311.1 522.512 1307.72 518.48 1306.99 515.989Z" fill="#FEA8B8"/>
<path d="M1306.99 515.989C1286.51 485.504 1281.91 454.549 1281.45 418.806C1280.74 363.542 1293.05 297.961 1333.17 257.221C1357.73 232.322 1391.23 218.298 1426.2 218.28C1457.03 218.152 1481.39 227.406 1503.14 249.082C1503.01 249.079 1502.89 249.076 1502.77 249.074C1456.25 218.011 1400.28 215.977 1351.94 253.785C1288.95 303.071 1277.99 418.996 1298.81 492.227C1300.22 497.524 1307.28 512.855 1306.99 515.989Z" fill="white"/>
<path d="M1389.65 478.833C1388.84 477.77 1386.25 475.966 1385.09 474.917C1363.91 455.761 1365.4 420.913 1366.3 394.154C1367.58 356.34 1388.97 290.78 1439.41 311.624C1445.15 313.997 1448.75 319.434 1452.65 324.064C1457.31 325.866 1462.38 333.712 1464.26 338.378C1472.48 358.912 1473.73 383.042 1472.33 405.216C1470.55 433.632 1464.94 475.492 1435.74 488.909C1428.23 492.362 1412.65 493.42 1404.98 490.089C1400.55 488.206 1391.03 483.847 1389.38 479.388L1389.65 478.833Z" fill="#E95C7F"/>
<path d="M1395.89 473.376C1377.58 444.994 1383.38 377.55 1399.52 348.822C1414.57 322.027 1451.07 315.499 1457.44 352.254C1463.43 386.825 1462.28 436.691 1443.16 466.507C1431.5 480.135 1409.95 487.783 1395.89 473.376Z" fill="white"/>
<path d="M1452.65 324.064C1457.31 325.866 1462.38 333.712 1464.26 338.378C1472.48 358.912 1473.73 383.042 1472.33 405.216C1470.55 433.632 1464.94 475.492 1435.74 488.909C1428.23 492.362 1412.65 493.42 1404.98 490.089C1400.55 488.206 1391.03 483.847 1389.38 479.388L1389.65 478.833L1390.36 478.718C1391.68 477.192 1394.31 474.851 1395.89 473.376C1409.95 487.783 1431.5 480.135 1443.16 466.507L1445.8 469.845C1469.89 437.315 1470.62 359.894 1452.65 324.064Z" fill="white"/>
<path d="M1443.16 466.507L1445.8 469.845C1430.86 486.072 1409.65 490.12 1390.36 478.718C1391.68 477.192 1394.31 474.851 1395.89 473.376C1409.95 487.783 1431.5 480.135 1443.16 466.507Z" fill="#F47591"/>
<path d="M1548.15 592.524C1547.58 592.126 1547.02 591.719 1546.48 591.301C1524.79 574.801 1537.78 543.296 1543.02 520.851C1547.03 504.384 1550.44 487.778 1553.25 471.065C1561.2 421.271 1562.33 370.625 1556.61 320.525C1554.28 301.247 1550.1 281.839 1547.43 262.54C1545.41 247.969 1546.94 234.382 1556.25 222.392C1563.59 213.077 1574.32 207.051 1586.09 205.636C1598.57 204.095 1607.66 207.376 1617.3 214.96C1631.7 219.64 1640.82 277.873 1642.8 293.209C1653.96 379.649 1651.97 469.665 1625.63 553.308C1615.16 586.575 1595.71 609.322 1558.63 598.03C1556.33 597.332 1549.48 594.271 1548.15 592.524Z" fill="#FEA8B8"/>
<path d="M1548.15 592.524C1547.58 592.126 1547.02 591.719 1546.48 591.301C1524.79 574.801 1537.78 543.296 1543.02 520.851C1547.03 504.384 1550.44 487.778 1553.25 471.065C1561.2 421.271 1562.33 370.625 1556.61 320.525C1554.28 301.247 1550.1 281.839 1547.43 262.54C1545.41 247.969 1546.94 234.382 1556.25 222.392C1563.59 213.077 1574.32 207.051 1586.09 205.636C1598.57 204.095 1607.66 207.376 1617.3 214.96L1620.61 219.264L1620.45 220.377C1617.35 218.966 1610.14 214.578 1607.54 213.945C1577.89 206.697 1553.92 229.744 1555.2 259.301C1555.96 274.039 1559.53 288.851 1561.56 303.537C1565.25 329.515 1567.29 355.699 1567.7 381.935C1568.15 416.626 1565.28 451.281 1559.13 485.426C1556.74 498.708 1554.01 511.928 1550.96 525.075C1547.23 541.101 1542.44 556.911 1542.03 573.435C1541.85 581.124 1547.44 587.208 1548.15 592.524Z" fill="white"/>
<path d="M914.409 193.857C915.628 180.35 917.521 169.152 926.662 158.524C957.977 122.108 1025.23 140.496 1029.25 189.808L1029.99 193.253C1031.97 194.324 1033.63 194.004 1035.85 194.011C1062.62 194.099 1089.59 192.045 1110.58 212.239C1138.35 240.731 1130.72 284.983 1090.48 297.026C1119.61 350.458 1105.18 406.975 1053.07 438.75C1107 439.927 1161.94 447.562 1202.27 487.465C1220.05 505.729 1230.24 529.699 1228.96 555.309C1224.73 644.799 1121.88 657.362 1051.94 655.301C980.545 653.198 883.913 633.424 886.492 542.616C887.788 496.994 923.206 472.471 961.053 455.881C907.798 450.533 864.328 436.306 842.744 382.982C842.175 381.121 841.623 379.254 841.09 377.383C833.127 349.266 837.346 321.633 851.49 296.357C836.989 293.841 826.897 285.963 819.895 273.191C798.077 229.433 835.581 191.702 879.243 194.156C889.974 194.76 903.383 193.915 914.409 193.857Z" fill="#E95C7F"/>
<path d="M914.409 193.857C915.628 180.35 917.521 169.152 926.662 158.524C957.977 122.108 1025.23 140.496 1029.25 189.808L1029.99 193.253C1031.97 194.324 1033.63 194.004 1035.85 194.011C1062.62 194.099 1089.59 192.045 1110.58 212.239C1108.31 213.269 1106.28 214.221 1103.92 215.034C1118.51 241.073 1114.19 271.446 1079.78 278.881C1076.29 279.636 1071.77 279.769 1068.14 280.071C1085.24 302.325 1093 322.423 1089.29 351.214C1086.42 375.11 1074.03 396.835 1054.93 411.46C1024.1 435.165 978.462 439.367 940.511 434.395C912.928 430.78 884.467 420.006 864.427 399.271C864.145 398.979 863.573 397.999 863.358 397.598C856.833 391.047 853.295 385.145 848.755 377.175L842.744 382.982C842.175 381.121 841.623 379.254 841.09 377.383C833.127 349.266 837.346 321.633 851.49 296.357C836.989 293.841 826.897 285.963 819.895 273.191C798.077 229.433 835.581 191.702 879.243 194.156C889.974 194.76 903.383 193.915 914.409 193.857Z" fill="#FEA8B8"/>
<path d="M914.409 193.857C915.628 180.35 917.521 169.152 926.662 158.524C957.977 122.108 1025.23 140.496 1029.25 189.808C1028.24 193.537 1027.76 194.533 1025.95 197.971L1021.4 198.474C1009.64 197.223 1018.96 171.113 1005.35 159.095C1003.14 158.981 995.712 155.578 993.236 154.556C977.318 147.91 958.08 150.195 944.46 160.787C933.278 169.32 928.424 183.632 926.665 196.968C925.429 206.348 913.186 206.589 905.483 205.579C865.494 200.341 808.571 218.167 833.936 271.274L832.615 270.919C829.123 270.672 822.838 271.283 819.895 273.191C798.077 229.433 835.581 191.702 879.243 194.156C889.974 194.76 903.383 193.915 914.409 193.857Z" fill="white"/>
<path d="M914.409 193.857C915.628 180.35 917.521 169.152 926.662 158.524C957.977 122.108 1025.23 140.496 1029.25 189.808C1028.24 193.537 1027.76 194.533 1025.95 197.971L1021.4 198.474C1009.64 197.223 1018.96 171.113 1005.35 159.095C1000.96 154.215 998.001 151.23 991.96 148.424C963.333 135.127 924.823 150.196 920.301 183.449C919.637 188.323 919.252 193.05 918.866 197.91C883.647 198.352 817.568 193.341 819.11 246.619C819.337 254.582 822.768 262.117 828.624 267.516C829.916 268.695 831.247 269.83 832.615 270.919C829.123 270.672 822.838 271.283 819.895 273.191C798.077 229.433 835.581 191.702 879.243 194.156C889.974 194.76 903.383 193.915 914.409 193.857Z" fill="#F16C8B"/>
<path d="M866.476 284.207C870.386 285.704 870.135 284.911 872.091 287.834C869.874 292.982 863.361 301.796 860.392 307.451C843.414 339.801 848.429 366.548 863.358 397.598C856.833 391.047 853.295 385.145 848.755 377.175L842.744 382.982C842.175 381.121 841.623 379.254 841.09 377.383C833.127 349.266 837.346 321.633 851.49 296.357L855.845 297.087C859.451 292.06 861.869 288.353 866.476 284.207Z" fill="white"/>
<path d="M851.49 296.357L855.845 297.087C841.161 323.559 836.927 348.73 848.755 377.175L842.744 382.982C842.175 381.121 841.623 379.254 841.09 377.383C833.127 349.266 837.346 321.633 851.49 296.357Z" fill="#F47591"/>
<path d="M1029.25 189.808L1029.99 193.253C1031.97 194.324 1033.63 194.004 1035.85 194.011C1062.62 194.099 1089.59 192.045 1110.58 212.239C1108.31 213.269 1106.28 214.221 1103.92 215.034L1103.26 214.963C1101.2 215.435 1086.35 208.712 1081.93 207.358C1071.45 204.144 1029.41 206.673 1023.81 203.621C1021.44 200.759 1022.08 201.997 1021.4 198.474L1025.95 197.971C1027.76 194.533 1028.24 193.537 1029.25 189.808Z" fill="white"/>
<path d="M1029.25 189.808L1029.99 193.253C1031.97 194.324 1033.63 194.004 1035.85 194.011C1062.62 194.099 1089.59 192.045 1110.58 212.239C1108.31 213.269 1106.28 214.221 1103.92 215.034L1103.26 214.963C1087.51 194.924 1048.95 197.965 1025.95 197.971C1027.76 194.533 1028.24 193.537 1029.25 189.808Z" fill="#F47591"/>
<path d="M819.895 273.191C822.838 271.283 829.123 270.672 832.615 270.919L833.936 271.274C842.757 280.804 866.264 275.557 866.476 284.207C861.869 288.353 859.451 292.06 855.845 297.087L851.49 296.357C836.989 293.841 826.897 285.963 819.895 273.191Z" fill="#E95C7F"/>
<path d="M935.691 360.816C935.645 360.75 930.876 356.485 930.254 355.943C921.315 348.148 917.734 337.886 917.642 326.021C917.608 312.264 923.079 299.066 932.836 289.37C942.547 279.744 955.679 274.376 969.355 274.447C992.157 274.528 996.603 282.675 1009.5 295.606L1009.8 295.909C1014.51 297.877 1018.98 305.503 1020.74 310.302C1037.68 356.758 992.701 389.316 950.173 372.698C946.102 371.107 936.896 364.995 935.691 360.816Z" fill="white"/>
<path d="M935.691 360.816C935.645 360.75 930.876 356.485 930.254 355.943C921.315 348.148 917.734 337.886 917.642 326.021C917.608 312.264 923.079 299.066 932.836 289.37C942.547 279.744 955.679 274.376 969.355 274.447C992.157 274.528 996.603 282.675 1009.5 295.606L1009.8 295.909L1011.86 300.464C1010.29 302.704 1007.51 303.527 1004.92 304.644C986.21 288.615 959.524 288.551 943.157 307.88C936.366 315.786 933.021 326.081 933.87 336.469C934.655 345.273 938.035 351.409 943.898 357.818C942.519 359.217 940.577 361.305 939.151 362.528L935.691 360.816Z" fill="#E95C7F"/>
<path d="M1009.8 295.909C1014.51 297.877 1018.98 305.503 1020.74 310.302C1037.68 356.758 992.701 389.316 950.173 372.698C946.102 371.107 936.896 364.995 935.691 360.816L939.151 362.528C940.577 361.305 942.519 359.217 943.898 357.818C959.393 369.176 982.552 368.697 997.804 357.14C1005.95 350.946 1011.29 341.771 1012.67 331.633C1014.13 320.873 1011.29 313.046 1004.92 304.644C1007.51 303.527 1010.29 302.704 1011.86 300.464L1009.8 295.909Z" fill="white"/>
<path d="M1011.86 300.464C1017.68 314.095 1019.63 328.319 1013.9 342.406C1009.43 353.259 1000.8 361.863 989.925 366.285C974.41 372.738 953.662 370.723 939.151 362.528C940.577 361.305 942.519 359.217 943.898 357.818C959.393 369.176 982.552 368.697 997.804 357.14C1005.95 350.946 1011.29 341.771 1012.67 331.633C1014.13 320.873 1011.29 313.046 1004.92 304.644C1007.51 303.527 1010.29 302.704 1011.86 300.464Z" fill="#F47591"/>
<path d="M911.334 591.084C910.885 590.671 910.441 590.253 910.002 589.829C897.909 578.161 890.922 562.184 890.564 545.383C889.405 449.316 1054.9 430.782 1123.89 450.903C1152.45 459.233 1169.47 465.292 1190.89 486.452C1198.63 491.071 1207.99 511.679 1209.64 519.855C1237.03 656.077 1007.05 651.109 932.004 607.561C927.542 604.972 912.476 594.869 911.334 591.084Z" fill="#FEA8B8"/>
<path d="M911.334 591.083C910.885 590.671 910.441 590.253 910.002 589.829C897.909 578.161 890.922 562.184 890.564 545.383C889.405 449.316 1054.9 430.782 1123.89 450.903C1152.45 459.233 1169.47 465.292 1190.89 486.452C1188.83 486.38 1164.33 470.543 1158.05 468.096C1089.45 441.364 1004.63 444.224 940.483 481.69C906.154 501.929 888.612 543.026 906.445 579.754C907.935 582.978 910.481 587.795 911.334 591.083Z" fill="white"/>
<path d="M1000.71 560.491C999.548 558.402 991.482 553.937 990.234 551.441C967.413 505.568 1043.45 497.7 1068.45 501.035C1098.07 504.984 1102.91 505.149 1118.84 523.548L1120.35 523.456C1125.91 528.433 1128.17 533.961 1128.4 541.298C1129.36 571.726 1085.08 577.275 1063.06 577.294C1043.21 577.31 1017.75 575.526 1001.75 562.813C1000.69 561.893 1000.98 561.925 1000.71 560.491Z" fill="white"/>
<path d="M1000.71 560.491C999.548 558.402 991.482 553.937 990.234 551.441C967.413 505.568 1043.45 497.7 1068.45 501.035C1098.07 504.984 1102.91 505.149 1118.84 523.548L1120.65 528.869C1117.09 529.38 1114.61 529.668 1111.14 530.794C1087.98 517.546 1053.71 518.449 1028.37 524.266C1017.3 526.807 999.717 536.264 1003.59 549.993C1003.95 551.209 1004.34 552.413 1004.77 553.603C1004.97 555.251 1005.14 556.439 1005.48 558.063C1004.37 558.737 1003.01 559.613 1001.87 560.142L1000.71 560.491Z" fill="#E95C7F"/>
<path d="M1118.84 523.548L1120.35 523.456C1125.91 528.433 1128.17 533.961 1128.4 541.298C1129.36 571.726 1085.08 577.275 1063.06 577.294C1043.21 577.31 1017.75 575.526 1001.75 562.812C1000.69 561.893 1000.98 561.925 1000.71 560.491L1001.87 560.142C1003.01 559.613 1004.37 558.737 1005.48 558.063C1005.14 556.439 1004.97 555.251 1004.77 553.603C1022.25 570.84 1093.2 570.525 1111.99 551.893C1119.46 544.477 1117.81 537.413 1111.14 530.794C1114.61 529.668 1117.09 529.38 1120.65 528.869L1118.84 523.548Z" fill="white"/>
<path d="M1120.65 528.869C1124.76 557.806 1102.92 565.545 1079.02 568.88C1057.7 571.857 1021.18 570.11 1001.87 560.142C1003.01 559.613 1004.37 558.737 1005.48 558.063C1005.14 556.439 1004.97 555.251 1004.77 553.603C1022.25 570.84 1093.2 570.525 1111.99 551.893C1119.46 544.477 1117.81 537.413 1111.14 530.794C1114.61 529.668 1117.09 529.38 1120.65 528.869Z" fill="#F47591"/>
<path d="M421.164 192.721C424.205 192.629 427.246 192.553 430.287 192.493C466.168 191.796 514.604 190.523 541.59 217.146C567.482 242.69 567.249 275.086 568.424 308.719C569.05 326.725 569.452 344.736 569.63 362.751C570.217 401.134 569.84 439.523 568.5 477.886C564.085 600.836 549.823 616.511 426.874 617.727C388.883 617.562 344.082 618.297 313.799 591.85C290.143 570.805 278.922 530.894 277.826 499.925C275.869 444.685 275.011 387.267 279.119 332.187C281.707 297.497 289.571 255.57 312.912 229.035C339.596 198.699 383.335 194.837 421.164 192.721Z" fill="#E95C7F"/>
<path d="M299.623 550.512C293.028 538.497 288.193 525.595 285.269 512.203C280.603 489.796 280.715 425.009 281.148 400.283C282.035 349.587 281.637 266.018 320.16 228.355C351.346 197.864 409.129 196.167 450.542 196.651C479.796 196.992 512.039 197.398 533.443 219.348C540.79 224.555 548.432 244.281 549.556 253.083C554.208 289.501 553.513 329.763 553.51 366.519C553.796 397.546 553.467 428.575 552.52 459.588C551.66 492.486 552.134 539.722 533.575 568.267C524.122 582.803 501.959 590.271 485.657 592.451C444.581 597.077 393.609 598.562 353.096 590.478C341.85 588.235 330.581 582.472 321.381 576.201C314.702 571.647 301.466 557.387 299.623 550.512Z" fill="#FEA8B8"/>
<path d="M299.623 550.512C293.028 538.497 288.193 525.595 285.269 512.203C280.603 489.796 280.715 425.009 281.148 400.283C282.035 349.587 281.637 266.018 320.16 228.355C351.346 197.864 409.129 196.167 450.542 196.651C479.796 196.992 512.039 197.398 533.443 219.348C525.304 218.447 513.078 209.225 500.18 207.701C459.67 202.916 407.167 201.395 367.933 212.95C357.184 216.01 347.033 220.874 337.913 227.334C310.858 246.813 299.625 281.852 295.133 313.949C286.454 375.969 288.689 442.987 291.112 505.52C291.439 513.952 293.332 521.603 294.862 529.607C295.562 533.272 299.736 548.382 299.623 550.512Z" fill="white"/>
<path d="M403.492 500.563C398.453 497.644 391.697 491.517 390.61 485.52C381.738 436.554 385.187 380.572 388.685 331.259C390.806 301.38 405.204 281.343 435.892 283.416C445.491 284.064 452.404 288.498 458.482 295.777C463.411 297.764 466.294 302.352 468.315 307.074C477.073 327.532 474.884 478.181 466.705 498.363C464.691 503.335 460.215 506.741 455.368 508.749C442.749 513.975 423.759 513.284 411.197 508.026C408.424 506.865 404.273 504.77 403.173 501.748C402.987 501.236 403.263 501.024 403.492 500.563Z" fill="#E95C7F"/>
<path d="M458.482 295.777C463.411 297.764 466.294 302.352 468.315 307.074C477.073 327.532 474.884 478.181 466.705 498.363C464.691 503.335 460.216 506.742 455.368 508.749C442.749 513.975 423.759 513.284 411.197 508.026C408.424 506.865 404.273 504.77 403.173 501.748C402.987 501.236 403.263 501.024 403.492 500.563C418.676 506.337 442.106 506.99 456.347 498.441C457.578 496.503 458.879 494.468 459.77 492.345C468.255 472.127 466.299 341.984 463.43 315.838C462.637 308.617 461.378 302.454 458.482 295.777Z" fill="white"/>
<path d="M430.919 304.133L431.538 304.086C438.727 303.55 449.522 302.513 455.265 307.724C459.987 312.009 459.804 326.538 460.106 332.658C461.198 354.745 463.616 484.015 452.964 495.209C448.116 500.303 440.355 500.126 433.856 500.426C427.697 500.583 419.573 501.142 413.89 498.536C410.743 497.095 409.339 494.308 408.222 491.18C400.681 470.067 403.666 368.028 406.699 342.403C407.661 334.267 409.087 324.757 412.777 317.347C416.475 309.918 423.433 306.576 430.919 304.133Z" fill="white"/>
<path d="M691.327 325.516L691.293 259.729C691.245 242.665 689.803 221.82 694.706 205.631C704.398 173.63 749.388 165.855 774.353 184.056C780.747 188.718 784.093 192.667 788.98 198.911C793.284 207.107 797.196 214.942 798.102 224.267C800.393 247.83 800.405 272.293 800.763 295.997C801.229 341.199 801.382 386.406 801.222 431.611L800.96 529.395C800.763 549.121 801.683 577.229 797.208 595.674C787.021 637.66 716.262 640.996 697.233 603.423C696.824 602.614 696.448 601.789 696.106 600.95L693.78 593.745C690.063 578.751 691.234 547.67 691.241 530.756L691.312 434.661L679.219 434.713L679.239 528.877C679.238 549.851 679.822 568.852 677.08 589.77C671.119 635.247 600.889 640.308 581.92 603.019C580.454 599.57 579.323 595.624 578.192 592.023C577.517 588.765 577.077 585.463 576.876 582.142C575.628 560.498 576.529 530.214 576.549 508.12L576.743 370.393L577.006 274.887C577.077 255.247 576.538 236.035 578.622 216.487C582.834 176.988 632.951 161.684 661.332 187.317C658.967 189.515 658.222 189.569 655.068 190.358L657.12 193.762C659.554 195.87 658.267 196.48 659.573 198.149C663.948 197.861 664.986 197.696 669.119 196.254C681.572 217.666 679.334 237.844 679.326 261.728L679.271 325.409L691.327 325.516Z" fill="#FEA8B8"/>
<path d="M788.98 198.911C793.284 207.107 797.196 214.942 798.102 224.267C800.393 247.83 800.405 272.293 800.763 295.997C801.229 341.199 801.382 386.406 801.222 431.611L800.96 529.395C800.763 549.121 801.683 577.229 797.208 595.674C787.021 637.66 716.262 640.996 697.233 603.423C696.824 602.614 696.448 601.789 696.106 600.95L693.78 593.745C696.73 593.538 699.443 591.992 701.461 589.87L707.545 596.913L711.529 599.915C725.631 615.046 775.095 609.898 780.01 583.621C785.163 556.078 784.054 527.128 784.292 499L784.874 406.276L785.003 293.666C784.984 272.499 786.835 217.103 778.888 200.105C783.536 200.268 784.524 200.209 788.98 198.911Z" fill="#E95C7F"/>
<path d="M701.461 589.87L707.545 596.913C703.305 598.634 700.573 599.703 696.106 600.95L693.78 593.745C696.73 593.538 699.443 591.992 701.461 589.87Z" fill="#F47591"/>
<path d="M595.926 599.167C598.338 602.151 604.536 604.101 608.251 605.096C619.829 608.196 633.937 607.262 644.375 601.199C650.592 597.588 655.509 592.623 658.129 585.835C666.791 563.393 664.122 477.716 664.074 448.894C664.061 440.75 662.332 429.453 664.558 421.723C665.185 419.548 666.671 418.116 668.659 417.148C672.569 415.246 688.557 415.674 692.775 417.417C695.115 419.518 695.357 419.821 696.23 422.834C694.932 468.039 696.531 513.838 695.925 559.097C695.784 569.672 696.503 580.356 701.46 589.87C699.443 591.992 696.73 593.538 693.78 593.745C690.063 578.751 691.234 547.67 691.241 530.756L691.312 434.661L679.219 434.713L679.239 528.877C679.238 549.851 679.822 568.852 677.08 589.77C671.119 635.247 600.889 640.308 581.92 603.019C580.454 599.57 579.323 595.624 578.192 592.023C581.865 593.204 581.701 593.379 584.855 592.328L585.848 590.218C588.796 593.264 591.874 596.605 595.094 599.324L595.926 599.167Z" fill="#E95C7F"/>
<path d="M585.848 590.218C588.796 593.264 591.874 596.605 595.094 599.324C590.202 601.072 586.968 601.854 581.92 603.019C580.454 599.57 579.323 595.624 578.192 592.023C581.865 593.204 581.701 593.379 584.855 592.328L585.848 590.218Z" fill="#F47591"/>
<path d="M578.192 592.023C577.517 588.765 577.077 585.463 576.876 582.142C575.628 560.498 576.529 530.214 576.549 508.12L576.743 370.393L577.006 274.887C577.077 255.247 576.538 236.035 578.622 216.487C582.834 176.988 632.951 161.684 661.332 187.317C658.967 189.515 658.222 189.569 655.068 190.358L657.12 193.762L656.592 193.551C653.681 192.377 650.792 190.642 648.235 189.323C629.871 179.845 600.358 190.716 594.116 211.042C586.616 235.462 588.857 280.528 588.838 306.329L588.787 412.826L588.723 514.767C588.709 536.801 586.567 569.181 592.487 590.639C592.943 592.29 596.132 597.798 595.926 599.167L595.095 599.324C591.874 596.605 588.796 593.264 585.848 590.218L584.855 592.328C581.701 593.379 581.865 593.204 578.192 592.023Z" fill="white"/>
<path d="M578.192 592.023C577.517 588.765 577.077 585.463 576.876 582.142C575.628 560.498 576.529 530.214 576.549 508.12L576.743 370.393L577.006 274.887C577.077 255.247 576.538 236.035 578.622 216.487C582.834 176.988 632.951 161.684 661.332 187.317C658.967 189.515 658.222 189.569 655.068 190.358C629.854 165.545 586.889 182.797 583.146 217.015C581.265 234.219 581.532 250.326 581.511 267.585L581.436 340.927C581.368 416.572 581.328 492.292 581.257 567.943C581.249 576.957 582.015 582.181 585.848 590.218L584.855 592.328C581.701 593.379 581.865 593.204 578.192 592.023Z" fill="#F16B89"/>
<path d="M691.327 325.516L691.293 259.729C691.245 242.665 689.803 221.82 694.706 205.631C704.398 173.63 749.388 165.855 774.353 184.056C780.747 188.718 784.093 192.667 788.98 198.911C784.524 200.209 783.536 200.268 778.888 200.105C778.123 197.917 778.046 197.096 776.264 195.601C773.091 194.241 770.511 192.217 767.404 190.642C755.989 184.859 741.83 184.241 729.756 188.826C720.329 192.42 712.743 199.652 708.7 208.897C696.91 235.186 707.351 301.008 702.867 331.439C701.538 340.454 673.776 338.176 671.387 331.51C676.109 329.473 687.986 330.824 693.043 329.632C689.826 329.172 682.65 329.262 679.108 329.22L679.271 325.409L691.327 325.516Z" fill="white"/>
<path d="M691.327 325.516L691.293 259.729C691.245 242.665 689.803 221.82 694.706 205.631C704.398 173.63 749.388 165.855 774.353 184.056C780.747 188.718 784.093 192.667 788.98 198.911C784.524 200.209 783.536 200.268 778.888 200.105C778.123 197.917 778.046 197.096 776.264 195.601C755.904 165.214 701.823 177.453 697.234 214.108C695.608 227.093 695.835 238.04 695.893 251.061L696.156 300.332C696.206 307.501 698.07 325.007 693.043 329.632C689.826 329.172 682.65 329.262 679.108 329.22L679.271 325.409L691.327 325.516Z" fill="#F47591"/>
<path d="M669.119 196.254C681.572 217.666 679.334 237.844 679.326 261.728L679.271 325.409L679.108 329.22C674.126 329.525 666.019 331.445 664.652 324.788C663.066 317.056 664.766 307.836 664.149 300.278C661.941 273.219 669.829 222.11 659.573 198.149C663.948 197.861 664.986 197.696 669.119 196.254Z" fill="#E95C7F"/>
<path d="M696.23 422.834C699.544 423.503 699.988 423.602 702.294 426.04C707.716 436.479 699.495 562.154 705.059 582.157C706.726 588.153 709.967 594.548 711.529 599.915L707.545 596.913L701.46 589.87C696.503 580.356 695.784 569.672 695.925 559.097C696.531 513.838 694.932 468.039 696.23 422.834Z" fill="white"/>
<path d="M1136.4 424.56C1128.48 398.307 1133.47 337.179 1132.44 307.61C1131.52 281.308 1131.55 242.924 1134.41 217.195C1139.42 172.271 1195.36 158.545 1222.84 198.051C1227.88 207.317 1227.16 210.544 1230.44 218.413C1242.8 215.007 1260.97 227.357 1268.08 236.988C1281.29 257.314 1279.84 285.921 1258.54 300.491C1249.87 306.418 1240.86 305.726 1230.94 307.411C1230.57 308.04 1230.24 308.581 1229.97 309.034C1229.79 312.335 1229.73 314.58 1229.89 317.874C1247 318.872 1258.07 324.957 1268.04 339.131C1281.79 365.937 1274.03 399.008 1240.59 405.114C1237.55 405.669 1233.02 405.563 1229.83 405.629C1229.65 419.699 1227.12 434.359 1216.08 443.94C1189.19 467.296 1148.9 457.496 1136.4 424.56Z" fill="#FEA8B8"/>
<path d="M1136.4 424.56C1128.48 398.307 1133.47 337.179 1132.44 307.61C1131.52 281.308 1131.55 242.924 1134.41 217.195C1139.42 172.271 1195.36 158.545 1222.84 198.051C1219.73 198.034 1215.2 198.156 1212.26 197.674C1210.96 194.79 1210.74 194.305 1208.63 191.932C1205.35 191.318 1203.14 189.596 1200.11 188.701C1158.19 176.312 1144.63 210.324 1144.71 243.422C1144.85 299.96 1143.17 351.965 1145.25 408.039C1145.52 416.368 1152.67 424.83 1153.28 430.186C1148.06 426.672 1145.6 423.379 1142.11 418.399L1136.4 424.56Z" fill="white"/>
<path d="M1136.4 424.56C1128.48 398.307 1133.47 337.179 1132.44 307.61C1131.52 281.308 1131.55 242.924 1134.41 217.195C1139.42 172.271 1195.36 158.545 1222.84 198.051C1219.73 198.034 1215.2 198.156 1212.26 197.674C1210.96 194.79 1210.74 194.305 1208.63 191.932C1202.33 184.266 1196.38 180.07 1186.01 178.944C1174.53 177.646 1163.01 181.04 1154.07 188.357C1143.38 197.177 1138.3 211.025 1137.92 224.518C1137.05 254.885 1135.88 288.439 1136.83 318.622C1137.59 343.188 1133.09 397.986 1142.11 418.399L1136.4 424.56Z" fill="#F47591"/>
<path d="M1258.35 340.787C1261.67 340.877 1264.8 339.929 1268.04 339.131C1281.79 365.937 1274.03 399.008 1240.59 405.114C1237.55 405.669 1233.02 405.563 1229.83 405.629C1229.65 419.699 1227.12 434.359 1216.08 443.94C1189.19 467.296 1148.9 457.496 1136.4 424.56L1142.11 418.399C1145.6 423.379 1148.06 426.672 1153.28 430.186C1154.02 431.231 1154.63 431.433 1155.74 432.037C1166.62 438.035 1179.47 439.348 1191.34 435.677C1214.56 428.552 1211.96 409.958 1217.38 391.549C1218.28 388.503 1233.79 387.774 1238.27 386.376C1259.22 379.823 1264.73 360.055 1258.35 340.787Z" fill="#E95C7F"/>
<path d="M1259.08 239.111C1261.27 238.17 1265.57 237.479 1268.08 236.988C1281.29 257.314 1279.84 285.921 1258.54 300.491C1249.87 306.418 1240.86 305.726 1230.94 307.411C1230.57 308.04 1230.24 308.581 1229.97 309.034C1229.79 312.335 1229.73 314.579 1229.89 317.874L1229.3 321.829L1222.94 322.052C1219.47 322.023 1218.08 321.19 1216.05 318.579C1215.66 314.617 1215.77 310.282 1215.48 306.461C1214.09 287.669 1220.38 292 1234.89 289.034C1261.24 283.647 1267.72 261.481 1259.08 239.111Z" fill="#E95C7F"/>
<path d="M1212.26 197.674C1215.2 198.156 1219.73 198.034 1222.84 198.051C1227.88 207.317 1227.16 210.544 1230.44 218.413C1229.51 220.065 1229.08 221.313 1227.41 222.094L1221.9 222.67C1214.11 221.739 1215.2 205.514 1212.26 197.674Z" fill="#E95C7F"/>
<path d="M1229.89 317.874C1247 318.872 1258.07 324.957 1268.04 339.131C1264.8 339.929 1261.67 340.877 1258.35 340.787C1257.35 338.463 1256.84 337.524 1255.55 335.376C1255.22 334.944 1254.87 334.514 1254.52 334.087C1246.69 324.422 1240.9 323.058 1229.3 321.829L1229.89 317.874Z" fill="#F47591"/>
<path d="M1230.44 218.413C1242.8 215.007 1260.97 227.357 1268.08 236.988C1265.57 237.479 1261.27 238.17 1259.08 239.111C1258.27 236.991 1258.25 236.514 1256.64 235.028C1248.27 223.879 1240.45 222.193 1227.41 222.094C1229.08 221.313 1229.51 220.065 1230.44 218.413Z" fill="#F47591"/>
<path d="M1227.41 222.094C1240.45 222.193 1248.27 223.879 1256.64 235.028C1253.07 234.639 1245.64 229.95 1241.74 229.102C1236.61 227.988 1230.11 229.479 1225.04 227.863C1222.96 227.199 1222.65 224.814 1221.9 222.67L1227.41 222.094Z" fill="white"/>
<path d="M1229.3 321.829C1240.9 323.058 1246.69 324.423 1254.52 334.087C1254.87 334.514 1255.22 334.944 1255.55 335.376C1251.9 335.51 1246.9 330.688 1242.43 329.442C1235.37 327.467 1226.25 331.408 1222.23 324.606L1222.94 322.052L1229.3 321.829Z" fill="white"/>
<path d="M661.332 187.317C664.446 190.509 666.525 192.542 669.119 196.254C664.986 197.696 663.948 197.861 659.573 198.149C658.267 196.48 659.554 195.87 657.12 193.762L655.068 190.358C658.222 189.569 658.967 189.515 661.332 187.317Z" fill="#FEA8B8"/>
</svg>
