<?xml version="1.0" encoding="UTF-8"?>
<svg id="Layer_2" data-name="Layer 2" xmlns="http://www.w3.org/2000/svg" viewBox="0 0 353.07 334.93">
  <defs>
    <style>
      .cls-1 {
        fill: #d5d5d1;
      }

      .cls-2 {
        fill: #969693;
      }

      .cls-3 {
        fill: #fcd572;
      }

      .cls-4 {
        fill: #fff;
      }

      .cls-5 {
        fill: #ec8877;
      }

      .cls-6 {
        fill: #070606;
      }

      .cls-7 {
        fill: #be4f47;
      }

      .cls-8 {
        fill: #2f2f2e;
      }

      .cls-9 {
        fill: none;
        stroke: #000;
        stroke-linecap: round;
        stroke-linejoin: round;
        stroke-width: 6px;
      }

      .cls-10 {
        fill: #fed871;
      }
    </style>
  </defs>
  <g id="Layer_1-2" data-name="Layer 1">
    <g>
      <path class="cls-5" d="M139.72,154.62s24.01-1.85,32.43,1.85c8.42,3.69,7.31,7.02,3.24,12.81-3.38,5.25-11.91,11.62-18.38,10.31-2.37-10.58-7.49-14.86-18.64-14.34,0-4.14,1.35-10.62,1.35-10.62Z"/>
      <path class="cls-7" d="M179.24,140.62s4.74,14.61-1.33,23.74c-1.38-.73-2.78-1.46-4.16-2.17-9.9-5.02-23.22-8.36-34.34-6.24-.16-2-.49-7.74-2.03-12.11,31.38,2.5,39.38-2.45,41.87-3.22Z"/>
      <g>
        <path class="cls-4" d="M123.82,331.43c-12.11,0-20.11-5.18-21.95-14.2-.43-2.12-.28-4.2-.15-6.03.04-.63.09-1.26.11-1.87.08-1.41.16-2.73.25-4.06.35-5.4.67-10.51.17-15.6-.08-.19-.22-.45-.35-.66-7.99-4.2-13.69-10.88-16.96-19.87-1.79-4.94-2.44-11.07-2.87-16.96-.09-1.16.41-2.28,1.31-3,.63-.5,1.4-.76,2.18-.76.02,0,.05,0,.07,0-8.71-3.52-13.35-11.03-12.59-20.74.27-3.37,1.02-6.51,1.75-9.55l.4-1.68c.35-1.51,1.63-2.56,3.11-2.69-1.45-.26-2.91-.55-4.36-.88-16.55-3.85-30.4-10.09-41.19-18.55-20.94-16.41-26.67-47.12-28.16-59.57-3.16-26.4.68-53.04,10.82-75.02,2.09-4.51,4.98-10.32,8.93-15.32,4.09-5.18,8.09-9.4,11.9-12.53,16.22-13.38,40.97-22.09,73.55-25.88,9.12-1.06,18.71-1.6,28.5-1.6,41.15,0,76.66,9.45,97.43,25.94,25.57,20.3,31.64,50.22,33.97,70.97.7,6.2.75,12.35.7,18.08-.05,5.55-.15,10.99-.8,16.39-2.05,16.19-8,31.85-17.2,45.29-3.89,5.55-15.24,16.55-33.62,23.54-9.48,27.37-17.49,53.01-18.13,57.93.21.7.2,1.45-.04,2.16-3.15,9.06-12.41,17.88-14.49,19.31-9.96,6.87-22.71,10.61-38.98,11.43-.85.04-1.9.06-3.03.09-1.83.04-4.55.09-6.46.32-.54,4.05-.92,11.32-.62,14.52,2.38,2.81,3.52,5.24,3.28,9.51-.4,6.94-5.8,11.14-14.8,11.5-.55.02-1.11.03-1.67.03ZM83.84,214.75c1.7.36,3.24.72,4.46,1.09,0,0,.02-.01.03-.02-.6-.23-1.49-.5-2.58-.71-.64-.13-1.28-.25-1.91-.37ZM106.15,212.69c-1.03.98-2.08,1.89-3.12,2.77,1.06-.77,2.11-1.74,3.12-2.77ZM141.65,167c3.43,0,6.86,1.66,10.19,4.94,3.46,3.4,5.1,7.67,5.46,12.36.3-1.43,1.48-2.56,2.98-2.75,11.31-1.47,20.78-12.04,21.54-24.06.57-9.07.29-15.45-.83-19-1.38.15-3.27.66-4.16.9-.23.06-.43.12-.59.16-7.86,2.32-15.56,3.4-24.22,3.4-1.98,0-4.08-.06-6.22-.17-1.69-.09-3.56-.3-5.37-.51-2.17-.24-4.42-.5-6.16-.52-.07,0-.13,0-.2,0,1.14,2.51,1.84,4.88,2.24,6.52,2,8.21.51,16.49-3.97,22.14-.91,1.15-1.82,2.42-2.78,3.93,3.29-4.03,7.12-7.32,12.09-7.32ZM120.9,177.38c1.8,0,3.93.44,5.7.88.28-.39.55-.78.84-1.17-.56.36-1.22.56-1.9.56-.23,0-.47-.02-.71-.07-1.25-.26-2.41-.39-3.43-.39-1.34,0-2.43.21-3.32.65.8-.31,1.73-.46,2.81-.46Z"/>
        <path d="M138.29,7.92c33.48,0,71.72,6.51,95.25,25.18,21.77,17.29,29.66,41.9,32.67,68.62.66,5.91.73,11.73.68,17.66-.05,5.35-.13,10.69-.78,16-1.99,15.7-7.68,30.68-16.61,43.74-3.1,4.42-14.17,15.86-33.5,22.81-8.18,23.55-20.58,61.5-18.72,61.65-2.85,8.22-11.52,16.44-13.17,17.58-10.93,7.55-24.11,10.16-37.17,10.81-3.34.17-9.71-.03-12.35,1.01-.88,3.57-1.58,15.4-.9,18.93,2.34,2.59,3.31,4.19,3.1,7.79-.36,6.2-6.11,7.99-11.45,8.21-.5.02-1.02.03-1.53.03-7.96,0-16.72-2.53-18.52-11.4-.46-2.31-.04-4.77.03-7.1.37-6.79,1.08-13.61.37-20.39-.08-.67-1.13-2.59-1.64-2.85-7.69-3.87-12.85-10.04-15.83-18.24-1.68-4.64-2.27-10.65-2.67-16.02,4.43,1.38,8.57,2,12.74,2,3.75,0,7.52-.5,11.54-1.4,13.96-3.1,23.86-12.02,32.59-22.95,3.84-4.97,5.64-8.78,8.84-13.6,5.47-10.18,9.28-19.28,9.45-30.98,13.21-1.71,23.72-13.83,24.59-27.3.35-5.6.88-16.76-1.67-22.03-.26-.54-1.01-.73-1.98-.73-2.16,0-5.37.98-6.34,1.22-7.89,2.33-15.37,3.27-23.3,3.27-1.98,0-3.98-.06-6.03-.17-3.61-.2-8.25-.98-11.66-1.03-1.48-2.25-5.18-6.16-7.3-8.34-.46-.47-1.08-.71-1.69-.71-.55,0-1.11.19-1.55.58-.96.83-1.1,2.27-.3,3.27.96,1.2,2.26,2.78,3.46,4.03,3.03,3.2,4.96,7.82,5.98,12.01,1.54,6.34.85,13.89-3.31,19.13-1.5,1.88-2.82,3.89-4.07,5.95-1.43-.29-2.82-.46-4.13-.46-4.39,0-7.99,1.86-9.47,7.12-1.42,5.03.32,8.68,2.8,13.03-3.36,9.26-9.37,15.53-17.04,21.4-1.64,1.26.16,5.21,2.67,5.21.21,0,.43-.03.65-.09,4.67-1.29,8.73-6.35,11.92-9.94,3.76-4.23,7.38-10.63,8.62-16.21.74-3.66-5.93-9.03-2.38-13.03.43-.22,1.03-.31,1.72-.31,2.25,0,5.49.94,7.16,1.4,3.88-5.55,8.12-11.78,13.6-11.78,2.33,0,4.89,1.13,7.73,3.93,13.24,13.02-6.47,44.71-15.37,54.84-3.77,4.35-8.14,8.12-13,11.21-6.66,4.2-14.55,6.74-22.46,6.74-2.71,0-5.42-.3-8.09-.93-9.32-2.21-14.68-8.75-13.94-18.34.29-3.67,1.22-7.09,2.06-10.7,2.27.46,7.93,1.51,9.86,2.35,1.09-.45,2.23-.9,2.99-1.87.67-.85.79-2.09.63-3.14-.27-1.72-4.25-2.64-5.66-2.92-3.9-.79-7.84-1.32-11.71-2.21-14.09-3.28-28.37-8.92-39.82-17.89-16.61-13.02-24.42-37-26.84-57.23-2.94-24.57.1-50.56,10.52-73.13,2.35-5.07,5.03-10.22,8.5-14.62,3.32-4.21,7.23-8.59,11.38-11.99,19.13-15.78,47.63-22.3,71.73-25.11,8.6-1,18.14-1.58,28.1-1.58M138.29.92h0c-9.93,0-19.66.55-28.91,1.63-33.26,3.87-58.62,12.84-75.38,26.66-4,3.29-8.18,7.68-12.42,13.06-4.18,5.29-7.19,11.34-9.36,16.01C1.81,80.84-2.14,108.15,1.1,135.19c1.54,12.88,7.5,44.68,29.47,61.91,10.88,8.53,24.72,14.88,41.13,18.87-.11.46-.22.92-.33,1.37-.76,3.16-1.54,6.44-1.83,10.07-.71,9.16,2.87,16.8,9.68,21.53-.51,1.08-.75,2.29-.65,3.51.45,6.13,1.14,12.55,3.07,17.88,3.39,9.32,9.18,16.38,17.23,21.02.31,4.4.02,8.94-.29,13.72-.09,1.33-.17,2.66-.24,3.99,0,.06,0,.12,0,.18-.01.51-.06,1.1-.1,1.72-.14,1.95-.31,4.38.21,6.96,2.17,10.67,11.66,17.02,25.39,17.02.59,0,1.2-.01,1.81-.04,10.86-.44,17.64-5.97,18.16-14.8.3-5.2-1.31-8.45-3.35-11.06-.09-2.41.08-6.56.36-9.89,1.25-.05,2.52-.08,3.37-.1,1.13-.02,2.2-.04,3.14-.09,16.93-.85,30.27-4.79,40.79-12.04,2.46-1.7,12.28-10.9,15.81-21.05.38-1.1.48-2.26.3-3.38,1.05-5.77,8.73-30.21,17.35-55.18,18.28-7.32,29.7-18.48,33.69-24.18.01-.02.03-.04.04-.06,9.52-13.9,15.67-30.09,17.78-46.81.68-5.61.78-11.16.83-16.82.05-5.84,0-12.12-.73-18.5-2.41-21.37-8.68-52.21-35.28-73.32-11.75-9.33-27.44-16.37-46.63-20.92-15.92-3.78-34.24-5.78-52.97-5.78h0ZM177.18,142.91c.16-.04.35-.09.57-.15.17-.05.34-.09.51-.14.35,2.8.52,7.34.07,14.65-.67,10.4-8.79,19.54-18.5,20.8-.08.01-.15.02-.23.03-1.22-3.8-3.22-6.61-5.3-8.67-4.01-3.94-8.26-5.94-12.64-5.94-.71,0-1.4.05-2.07.15,1.41-5.01,1.5-10.64.15-16.22-.14-.56-.29-1.16-.47-1.78.27.03.54.06.8.09,1.85.21,3.77.42,5.56.52,2.22.12,4.37.18,6.42.18,8.99,0,16.99-1.12,25.16-3.52h0Z"/>
      </g>
      <circle class="cls-10" cx="230.03" cy="132.6" r="24.6"/>
      <path class="cls-8" d="M206.03,188.56c1.89.3,4.2,4.09,5.22,5.57l-.16.2c-1.83-2.52-3.02-3.5-5.06-5.78Z"/>
      <g>
        <path class="cls-4" d="M203.08,139.02c-.69,0-1.35-.36-1.71-.97-.46-.76-.36-1.73.24-2.38,5.12-5.57,9.7-9.93,18.04-11.11.34-.04.6-.06.86-.08.29-.02.57-.03.84-.03,3.27,0,5.93,1.38,6.93,3.6.53,1.18,1.03,3.59-1.58,6.54-2.81,3.19-7.8,3.62-12.32,3.62-.88,0-1.75-.02-2.56-.03-.69-.01-1.35-.03-1.95-.03h-.19c-2.41.12-4.05.28-6.12.81-.17.04-.33.06-.5.06Z"/>
        <path d="M221.36,126.45c4.35,0,7.28,2.94,3.86,6.82-2.27,2.57-6.78,2.94-10.82,2.94-1.64,0-3.21-.06-4.5-.06-.07,0-.13,0-.2,0-2.42.12-4.27.27-6.6.88,5.12-5.58,9.27-9.41,16.85-10.49.24-.02.48-.05.72-.06.24-.02.47-.02.7-.02M221.36,122.45h0c-.32,0-.65.01-.98.03-.29.02-.57.04-.85.07-.05,0-.1.01-.16.02-8.98,1.27-14.03,6.07-19.24,11.74-1.2,1.31-1.4,3.24-.48,4.76.73,1.23,2.05,1.94,3.43,1.94.33,0,.67-.04,1-.13,1.89-.49,3.35-.63,5.71-.75h.1c.59,0,1.23.01,1.91.03.82.02,1.7.03,2.6.03,4.96,0,10.48-.51,13.82-4.29,3.48-3.94,2.49-7.39,1.9-8.69-1.33-2.95-4.68-4.78-8.75-4.78h0Z"/>
      </g>
      <g>
        <path class="cls-4" d="M244.44,160.47c-1.06,0-2.12-.24-2.83-.42-1.91-.5-4.15-1.34-6.13-2.08l-1.44-.53c-.75-.27-1.26-.97-1.31-1.76-.05-.8.38-1.54,1.09-1.9,2.43-1.23,4.52-1.79,7.42-1.99.62-.11,1.3-.17,1.95-.17,2.27,0,4.01.69,5.02,1.99.76.96,1.05,2.22.79,3.43-.49,2.19-2.16,3.44-4.58,3.44Z"/>
        <path d="M243.21,153.61c1.31,0,2.73.29,3.45,1.22.4.5.55,1.15.41,1.78-.32,1.45-1.42,1.86-2.62,1.86-.79,0-1.63-.18-2.33-.36-2.26-.6-5.13-1.73-7.38-2.55,2.32-1.17,4.21-1.62,6.77-1.79.49-.09,1.08-.16,1.7-.16M243.21,149.61h0c-.73,0-1.48.06-2.19.18-3.1.22-5.46.87-8.08,2.19-1.42.72-2.28,2.21-2.19,3.81.09,1.59,1.12,2.98,2.62,3.52.46.17.94.35,1.44.53,2.02.75,4.31,1.6,6.29,2.13.84.22,2.06.49,3.35.49,3.34,0,5.84-1.91,6.53-4.99.4-1.82-.03-3.68-1.18-5.13-1.38-1.78-3.67-2.73-6.58-2.73h0Z"/>
      </g>
      <g>
        <path class="cls-4" d="M263.26,282.31c-2.93,0-4.44-3.04-5.01-4.19-.86-1.77-1.7-4.01-2.43-5.99l-.54-1.44c-.28-.75-.1-1.59.48-2.14.38-.37.88-.57,1.39-.57.26,0,.52.05.76.15,2.52,1.04,4.31,2.25,6.36,4.32.84.69,3.8,3.36,3.18,6.46-.23,1.21-.99,2.25-2.09,2.84-.69.37-1.4.56-2.1.56Z"/>
        <path d="M257.15,269.98c2.41.99,3.98,2.13,5.78,3.96,1.21.96,2.9,2.89,2.56,4.58-.12.63-.51,1.17-1.08,1.47-.41.22-.79.32-1.15.32-1.53,0-2.57-1.77-3.22-3.08-1.02-2.1-2.04-5.01-2.89-7.26M257.15,265.98c-1.02,0-2.03.39-2.79,1.13-1.14,1.11-1.52,2.79-.95,4.29.17.46.35.94.54,1.44.75,2.02,1.6,4.31,2.5,6.15.66,1.34,2.65,5.33,6.82,5.33,1.04,0,2.06-.27,3.04-.79,1.64-.89,2.77-2.43,3.11-4.25.66-3.27-1.5-6.41-3.8-8.31-2.19-2.2-4.22-3.56-6.94-4.69-.49-.2-1.01-.3-1.52-.3h0Z"/>
      </g>
      <path class="cls-3" d="M69.62,113.3c14.28-1,26.68,9.73,27.74,24.01,1.06,14.27-9.61,26.72-23.87,27.85-14.36,1.14-26.92-9.62-27.99-23.99-1.07-14.37,9.75-26.87,24.12-27.87Z"/>
      <path class="cls-6" d="M156.42,108.96c19.16-3.03,22.54,22.87,2.57,23.16-19.56,1.89-21.63-22.99-2.57-23.16Z"/>
      <g>
        <path class="cls-4" d="M231.99,182.81c-5.61-.2-7.23-2.7-9.11-5.59-.51-.78-1.03-1.58-1.69-2.46-.43-.57-.53-1.33-.25-1.99.28-.66.89-1.12,1.6-1.21.76-.09,1.56-.17,2.34-.25l1-.1s.09,0,.13,0c.36-.01.72-.02,1.08-.02,7.15,0,9.62,2.81,10.43,5.16.45,1.31.85,2.99-.06,4.41-1.03,1.61-2.96,1.81-5.19,2.04-.07,0-.14.01-.21.01-.02,0-.05,0-.07,0Z"/>
        <path d="M227.09,173.19c3.74,0,7.51.82,8.54,3.82,1.12,3.26-.33,3.48-3.56,3.81-5.86-.21-6.07-3.02-9.28-7.26,1.08-.13,2.22-.23,3.31-.35.33-.01.67-.02,1-.02M227.09,169.19h0c-.38,0-.77,0-1.15.02-.09,0-.18,0-.27.02-.34.04-.68.07-1.03.1-.79.08-1.58.16-2.35.25-1.42.17-2.64,1.09-3.2,2.41-.56,1.32-.37,2.83.49,3.97.62.82,1.12,1.59,1.61,2.34,1.91,2.94,4.07,6.26,10.72,6.5.05,0,.09,0,.14,0,.14,0,.28,0,.41-.02,2.4-.25,5.12-.53,6.67-2.96,1.38-2.16.81-4.53.26-6.13-1.02-2.97-3.99-6.52-12.32-6.52h0Z"/>
      </g>
      <path class="cls-1" d="M151.28,215.99c.98.71,34.51-4.16,34.51-4.16,0,0-12.5,18.96-38.91,18.64-1.51-.02-3.16.08-4.44-.89,3.84-4.97,5.64-8.78,8.85-13.6Z"/>
      <path class="cls-2" d="M211.25,194.14c10.01,1.46,20.82,2.4,30.84,4.11,1.3.22,3.36,2.21,3.13,3.68l-.11-.14c-1.69-.69-13.34-1.78-15.61-1.95-4.45-.34-12.43-1.7-16.72-1.61-.31-1.31-1.03-2.72-1.69-3.88l.16-.2Z"/>
      <g>
        <path class="cls-1" d="M247.03,202.92c-.47-.49-1.06-.85-1.72-1.03l-38.26-10.51c-1.63-.45-3.32.44-3.89,2.02l-23.31,65.23c-.76,2.13,0,4.51,1.85,5.81l2.93.59h0l41.02,8.26,24.07-67.55-2.68-2.83Z"/>
        <path class="cls-2" d="M181.7,264.45h0c-1.85-1.3-2.61-3.68-1.85-5.81l23.31-65.23c.57-1.59,2.26-2.47,3.89-2.02l38.26,10.51c.65.18,1.25.54,1.72,1.03l2.68,2.83-22.62,63.5c-.83,2.32-3.24,3.69-5.65,3.2l-39.74-8Z"/>
        <path class="cls-1" d="M225.61,273.4l-40.27-8.11c-1.52-.31-2.41-1.88-1.89-3.34l22.72-63.78c.44-1.24,1.76-1.94,3.04-1.6l36.82,9.68c1.72.45,2.69,2.28,2.09,3.96l-22.51,63.19Z"/>
        <path d="M206.2,191.26c.28,0,.57.04.86.12l38.26,10.51c.65.18,1.25.54,1.72,1.03,1.65,1.74,2.18,4.25,1.38,6.51l-21.31,59.83c-.72,2.01-2.61,3.3-4.67,3.3-.32,0-.65-.03-.98-.1l-39.74-8c-1.85-1.3-2.61-3.68-1.85-5.81l23.31-65.23c.47-1.31,1.7-2.14,3.04-2.14M206.2,186.26c-3.47,0-6.58,2.19-7.74,5.46l-23.31,65.23c-1.51,4.24,0,9,3.68,11.59l.86.6,1.03.21,39.74,8c.65.13,1.31.2,1.97.2,4.2,0,7.97-2.66,9.38-6.62l21.31-59.83c1.44-4.05.5-8.51-2.46-11.63-1.09-1.15-2.48-1.99-4.02-2.41l-38.26-10.51c-.71-.2-1.44-.29-2.18-.29h0Z"/>
      </g>
      <g>
        <path class="cls-4" d="M232.81,267.19c-9.49,0-15.52-4.98-16.53-13.66-1.28-10.99,4.38-27.28,16.53-28.85l.16-.02h.16c.28-.02.55-.02.84-.02,6.41,0,14.42,2.82,15.9,10.77,1.5,8.07-.41,17.38-4.98,24.31-2.67,4.04-5.03,6.29-10.53,7.39l-.28.06h-.29c-.33.02-.65.03-.97.03Z"/>
        <path d="M233.95,228.13c5.26,0,11.39,2.19,12.46,7.91,1.33,7.17-.44,15.65-4.46,21.75-2.41,3.65-4.09,5.04-8.29,5.89-.28,0-.57.01-.85.01-7.03,0-12.18-3.11-13.06-10.57-1.03-8.84,3.3-23.66,13.5-24.97.23,0,.47-.01.7-.01M233.95,221.13c-.33,0-.65,0-.97.02h-.32s-.32.05-.32.05c-14.83,1.92-20.97,20.57-19.55,32.73,1.23,10.49,8.71,16.76,20.01,16.76.36,0,.72,0,1.08-.02l.57-.02.56-.11c6.64-1.33,9.7-4.27,12.76-8.89,5.06-7.66,7.16-17.96,5.5-26.88-1.52-8.15-9.29-13.63-19.34-13.63h0Z"/>
      </g>
      <g>
        <path class="cls-4" d="M174.62,326.64c-4,0-8.14-.75-11.96-2.17-.08-.03-.15-.06-.23-.09-9.56-4.35-10.14-9.67-9.96-17.9.04-1.71.03-3.59.02-5.41,0-1.01,0-2.01,0-2.97,0-1.77,1.33-3.26,3.09-3.47,9.83-1.15,19.12-3.93,24.85-7.46.56-.34,1.19-.52,1.83-.52.28,0,.56.03.83.1.91.22,1.69.8,2.17,1.6.97,1.63.93,3.88.56,9.9-.12,2-.3,4.99-.18,5.92.29.73.91,1.42,1.68,2.27.92,1.01,1.97,2.16,2.77,3.76,1.42,2.84,1.61,6.1.5,8.96-1.02,2.64-3.05,4.65-5.71,5.67-3.16,1.21-6.61,1.82-10.28,1.82Z"/>
        <path d="M182.27,290.16c.95,1.59-.64,12.68.01,14.98.9,2.72,3.4,4.05,4.7,6.64,1.81,3.62.69,8.25-3.34,9.79-2.85,1.09-5.93,1.59-9.03,1.59-3.67,0-7.37-.7-10.74-1.95-7.53-3.43-8.08-6.84-7.91-14.63.06-2.7,0-5.72.01-8.45,8.45-.98,19-3.47,26.28-7.95M182.27,283.16c-1.28,0-2.56.35-3.67,1.04-5.32,3.27-14.07,5.87-23.42,6.96-3.52.41-6.18,3.39-6.19,6.93,0,.97,0,1.97,0,2.99,0,1.8.02,3.66-.02,5.33-.19,8.8.57,15.95,12.01,21.16.15.07.3.13.46.19,4.21,1.57,8.76,2.39,13.18,2.39,4.09,0,7.97-.69,11.53-2.05,3.6-1.38,6.34-4.1,7.73-7.67,1.46-3.77,1.23-8.07-.63-11.79-1.02-2.03-2.34-3.48-3.31-4.54-.26-.29-.59-.65-.81-.92,0-1.15.13-3.23.22-4.69.39-6.38.5-9.31-1.05-11.91-.96-1.61-2.52-2.76-4.34-3.21-.55-.13-1.11-.2-1.67-.2h0Z"/>
      </g>
      <path class="cls-6" d="M256.52,0c6.03.14,15.82,3.78,21.63,5.61,4.34,1.37,4.19,3.44,3.19,7.5-.67,2.75-6.17,19.04-8.88,19.22-7.65.51-4.54-7.01-1.8-10.83l.14-.18c-1.49-.05-2.06-.16-3.45-.58-2.18-.49-14.85-3.31-15.23-4.54-2.13-8.13,8.66-2.93,12.45-2.39,1.78.25,5.66,1.28,7.36,1.82l.25.08c1.08-.6,1.61-2.91,2.38-4.36-5.9-2.79-12.84-3.42-18.98-5.51-1.25-.43-1.44-1.14-1.92-2.27.58-1.66.92-3.19,2.85-3.56Z"/>
      <path class="cls-6" d="M292.53,9.81c.7-.05,1.32-.02,2.01.11,4.33.79,20.95,5.31,23.1,8.68.47.75.18,2.07-.02,2.89-.96,4.01-6.5,18.76-9.92,20.73-.74.42-1.63.61-2.45.36-1.47-.43-2.15-1.72-2.78-2.99.99-2.71,2.21-5.33,3.64-7.83-.77-.26-1.54-.5-2.32-.72-3.15-.92-14.54-3.26-16.03-5.71-.35-.57-.46-1.26-.29-1.9.21-.81.82-1.61,1.56-2.02,2.2-1.19,16.17,3.69,19.24,4.6.62-1.36,1.35-3.28,1.9-4.7-5.52-2.43-11.8-3.42-17.53-5.27-3.45-1.11-2.55-4.58-.12-6.23Z"/>
      <path class="cls-6" d="M55.24,225.51c2.48-.11,2.92,1.02,2.46,3.27-1.4,6.99-.78,13.48,3.38,19.41,1.96,2.8,6.03,4.79,2.34,7.1-.87.2-2.41-.56-3.05-1.15-6.59-6.05-9.14-16.9-6.96-25.45.33-1.3.76-2.36,1.83-3.19Z"/>
      <path class="cls-6" d="M44.22,232.82c2.61-.38,2.59,1.67,2.36,3.51-.88,7.19,1.23,12.74,5.91,18.11,1.43,1.64,1.46,3.38-.45,4.54-6.93-2.09-11.7-17.82-9.59-24.29.38-1.18.76-1.32,1.77-1.87Z"/>
      <path class="cls-6" d="M328.08,20.56c6.44,1.1,13.94,4.02,19.99,6.5,2.13.87,4.17,1.97,5,4.15v1.28c-2.38,4.17-6.86,19.12-10.87,20.77-.82.34-1.69.29-2.5-.05-.9-.38-1.94-1.16-2.31-2.1-.93-2.35,2.09-6.27,3.12-8.39-5.39-1.98-12.87-3.11-17.52-6.52-1.88-1.38.51-3.9,1.81-4.82,5.81,1.03,12.24,4.39,18.66,5.79.41-1.19,1.23-3.11,1.08-4.3-1.32-1.6-14.64-5.1-17.79-6.44-1.37-2.72-.81-3.88,1.33-5.87Z"/>
      <polyline class="cls-9" points="205.52 108.42 187.38 104.16 200.41 89.92"/>
      <polyline class="cls-9" points="102.91 115.56 121.55 108 104.42 95.6"/>
    </g>
  </g>
</svg>