<?xml version="1.0" encoding="UTF-8"?>
<svg id="Layer_2" data-name="Layer 2" xmlns="http://www.w3.org/2000/svg" viewBox="0 0 416.85 383.88">
  <defs>
    <style>
      .cls-1 {
        fill: #0a0807;
      }

      .cls-2 {
        fill: #fbd76c;
      }

      .cls-3 {
        stroke: #000;
        stroke-linecap: round;
        stroke-linejoin: round;
        stroke-width: 7px;
      }

      .cls-3, .cls-4 {
        fill: #fff;
      }

      .cls-5 {
        fill: #75b76a;
      }

      .cls-6 {
        fill: #e5686b;
      }

      .cls-7 {
        fill: #f2a76c;
      }

      .cls-8 {
        fill: #f7bf66;
      }

      .cls-9 {
        fill: #6e9fd6;
      }

      .cls-10 {
        fill: #be4b48;
      }

      .cls-11 {
        fill: #9bc589;
      }

      .cls-12 {
        fill: #fbefcd;
      }

      .cls-13 {
        fill: #e3e0d8;
      }

      .cls-14 {
        fill: #aba4be;
      }

      .cls-15 {
        fill: #f5b386;
      }

      .cls-16 {
        fill: #141c14;
      }

      .cls-17 {
        fill: #fed871;
      }

      .cls-18 {
        fill: #1d0d0d;
      }

      .cls-19 {
        fill: #ce9fa4;
      }

      .cls-20 {
        fill: #aa403a;
      }

      .cls-21 {
        fill: #9eaabd;
      }

      .cls-22 {
        fill: #dc81ae;
      }

      .cls-23 {
        fill: #cfd578;
      }
    </style>
  </defs>
  <g id="Layer_1-2" data-name="Layer 1">
    <g>
      <g>
        <path class="cls-4" d="M209.8,344.32c-13.17,0-29.95-1.09-42.97-9.63-6.58-4.45-9.57-9.72-12.54-15.66-13.43-26.86-23.22-45.72-36.53-62.53-.83-1.05-.99-2.49-.41-3.7s1.81-1.98,3.15-1.98h0c4.26,0,8.71-.14,14.52-.46l6.72-.37c14.96-.81,30.43-1.65,45.52-3.21.12-.01.24-.02.36-.02.1,0,.21,0,.31.01,12.84,1.15,35.46,1.52,57.33,1.89,19.79.33,38.49.64,50.04,1.49,1.14.08,2.17.72,2.75,1.7s.65,2.19.18,3.23c-4.74,10.5-9.16,20.78-13.44,30.73-5.63,13.09-10.95,25.46-15.94,35.81-.08.17-.18.34-.29.49-.45.64-.91,1.33-1.38,2.03-1.24,1.85-2.51,3.77-3.93,5.36-12.77,14.33-34.6,14.59-50.53,14.78-.97.01-1.95.02-2.93.02Z"/>
        <path d="M187.62,250.28c24.4,2.18,82.99,1.59,107.43,3.38-11.1,24.58-20.66,48.47-29.34,66.46-1.56,2.22-3.28,5.08-5.06,7.08-11.54,12.95-31.85,13.42-47.96,13.61-.95.01-1.91.02-2.88.02-13.88,0-29.35-1.39-41.05-9.06-5.7-3.85-8.39-8.42-11.33-14.3-12.82-25.64-23.03-45.59-36.92-63.13h.06c4.93,0,9.84-.2,14.65-.47,17.47-.96,35-1.79,52.41-3.58M187.62,243.28c-.24,0-.48.01-.72.04-14.99,1.55-30.41,2.38-45.31,3.19-2.25.12-4.51.24-6.76.37-5.73.32-10.13.46-14.27.46h-.06c-2.68,0-5.13,1.54-6.3,3.95-1.17,2.42-.85,5.29.81,7.39,13.1,16.54,22.82,35.26,36.15,61.92,3.08,6.15,6.44,12.08,13.67,16.97.03.02.05.04.08.05,13.8,9.05,31.24,10.21,44.89,10.21,1,0,1.99,0,2.97-.02,15.65-.19,39.3-.47,53.1-15.95,1.58-1.78,2.99-3.89,4.23-5.75.46-.68.9-1.35,1.33-1.96.22-.31.41-.64.58-.98,5.03-10.42,10.36-22.82,16-35.94,4.27-9.94,8.69-20.21,13.42-30.68.94-2.08.8-4.5-.36-6.46-1.17-1.96-3.22-3.23-5.5-3.4-11.65-.85-30.39-1.16-50.24-1.49-21.81-.36-44.37-.74-57.08-1.87-.21-.02-.42-.03-.62-.03h0Z"/>
      </g>
      <path class="cls-3" d="M251.84,262.3c21.57-2.63,59.55-10.85,71.82-22.22,16.35-15.15,22.95-56.54,22.19-80.16-.69-21.51-7.42-56.79-23.08-72-23.09-22.3-75.44-28.97-110.09-28.99-34.65.02-87,6.69-110.09,28.99-15.67,15.21-22.39,50.49-23.08,72-.75,23.62,5.84,65.01,22.19,80.16,12.27,11.37,40.65,17.33,62.22,19.96"/>
      <circle class="cls-17" cx="136.93" cy="189.73" r="24.89"/>
      <g>
        <path class="cls-9" d="M116.12,207.02c-.92,0-1.73-.63-1.94-1.53-.47-1.97-.73-4.01-.83-6.59-.89-6.86,2.13-15.96,6.76-20.34.38-.36.87-.55,1.37-.55.29,0,.59.06.87.2l.24.12c1.64.79,2.46,1.18,4.08,2.39.81.6,1.04,1.71.55,2.58l-.13.24c-.71,1.23-1.54,2.34-2.33,3.41-.43.58-.87,1.17-1.28,1.76-2.48,3.63-4.12,7.86-4.75,12.22-.2,1.46-.41,2.93-.63,4.39-.14.95-.94,1.66-1.89,1.7-.03,0-.06,0-.09,0Z"/>
        <path d="M121.48,180c1.77.85,2.45,1.16,3.99,2.31l-.13.24c-1.02,1.75-2.37,3.34-3.51,5.02-2.67,3.92-4.41,8.39-5.08,13.07-.2,1.47-.41,2.92-.63,4.38-.51-2.11-.7-4.13-.78-6.29-.81-5.99,1.72-14.55,6.14-18.72M121.48,176c-1,0-1.99.38-2.75,1.09-5.11,4.83-8.32,14.43-7.38,21.96.1,2.68.38,4.81.88,6.9.43,1.8,2.05,3.06,3.89,3.06.06,0,.12,0,.17,0,1.91-.08,3.5-1.51,3.78-3.4.22-1.47.44-2.95.64-4.43.58-4.04,2.11-7.97,4.42-11.36.37-.54.79-1.1,1.23-1.69.83-1.12,1.69-2.27,2.44-3.58,0-.02.02-.03.03-.05l.13-.24c.98-1.75.51-3.96-1.1-5.16-1.78-1.33-2.71-1.77-4.41-2.59l-.24-.12c-.55-.27-1.15-.4-1.73-.4h0Z"/>
      </g>
      <circle class="cls-17" cx="286.46" cy="189.73" r="24.89"/>
      <path class="cls-18" d="M295.56,216.02c.24-1.01.27-2.45.44-3.55.83-5.78.57-11.54-1.28-17.12-.8-2-2.08-3.86-3.12-5.71-2.18-3.91-7.9-7.9-1.62-11.37,6.38-3.52,9.37-2.48,12.85,3.73,4.57,8.13,4.54,17.81,2.12,26.58-1.03,2.48-2.92,7.91-5.36,9.32-.55.32-1.37.2-1.99.09-.81-.84-1.3-.9-2.05-1.97Z"/>
      <path class="cls-6" d="M295.89,180.19c2.46.84,5.31,8.06,5.9,10.62.69,2.98.58,12.12-1.01,14.56-.36-.55-.23-.57-.26-1.35-.07-9.04-3.41-14.53-8.57-21.5,1.29-1,2.49-1.62,3.94-2.33Z"/>
      <path class="cls-12" d="M290.72,217.62l.18-.71c.91-1.06,3.58-1.52,4.66-.88.75,1.06,1.24,1.13,2.05,1.97-.97-.3-1.29-.59-2.1-.32-.26.59-.18.27-.09,1.03.17.2.47.53.6.74-2.11-.73-2.87-1.31-5.29-1.82Z"/>
      <path class="cls-1" d="M185.44,184.86c5,.18,9.72,1.45,14.34,1.77,9.26.65,19.44.48,28.66-.66,2.38-.3,9.32-1.77,11.01-.47,1.28.99,1.71,3.01,1.82,4.62.61,8.73-.2,17.71-3.07,26-1.3,3.75-4.08,7.86-6.62,10.83-1.58,1.68-3.38,3.35-5.26,4.69-5.19,3.74-11.66,5.24-17.97,4.19-7.37-1.23-13.92-5.39-18.16-11.54-5.77-8.3-7.63-19.14-7.46-29.08.06-3.34-.4-8.3,2.72-10.36Z"/>
      <path class="cls-10" d="M188.73,191.07c16.74,1.95,29.91,2.73,46.61-.42.09,10.1.25,14.41-3.37,24.21-4.53,11.3-14.71,18.29-26.98,13.94-6.23-2.21-10.34-7.76-13.02-13.59-3.38-9.56-3.34-14.07-3.24-24.13Z"/>
      <path class="cls-6" d="M191.97,215.2c2.45-1.09,4.17-2.1,6.8-3.11,10.19-3.92,19.43-3.06,29.39.72.98.37,3.16,1.26,3.81,2.04-4.53,11.3-14.71,18.29-26.98,13.94-6.23-2.21-10.34-7.76-13.02-13.59Z"/>
      <path class="cls-1" d="M209.67,153.16c4.15-.58,8.78.1,12.27,2.51,7.7,5.34,7.39,16.95-.78,21.67-2.28,1.32-4.06,1.58-6.64,1.98-4.71.34-9.61-.24-13.34-3.13-7.92-6.12-5.37-19.11,4.06-22.15,1.61-.52,2.79-.68,4.44-.87Z"/>
      <path class="cls-1" d="M263.87,133.73c3.45.23,4.57,3.31,2.46,5.51-3.41,3.56-7.85,7-11.55,10.27.57-.13,1.15-.25,1.73-.34,2.9-.45,9.94-1.27,12.76-.97.85.09,1.71.31,2.39.86.52.42.86,1,.92,1.67.08.91-.25,1.98-.89,2.65-1.9,1.97-14.97,2.25-18.18,2.3,4.12,2.07,7.97,4.4,12.21,6.48,1.68.99,3.17,2.44,2.17,4.59-.75,1.61-2.05,1.92-3.62,2.41-2.27-.97-5.23-3-7.47-4.32-4.21-2.46-8.78-4.88-12.82-7.57-5.64-3.65,2.37-9.29,5.45-11.71,3.71-2.91,10.35-10.11,14.44-11.82Z"/>
      <path class="cls-1" d="M100.32,139.04c3.42-.2,4.02,0,5.94,2.81,2.07-.2,5.87-1.01,7.62.15,3.35,2.22,2.19,6.33.52,9.27,1.73,2.19,3.64,5.25,1.66,8.08-1.73,2.46-5.54,1.54-8.04,1.84-.38.05-.64.7-.86,1.06-1.82,2.23-2.25,2.51-5.05,3.09-4.24-1.03-4.98-3.33-5.03-7.34-2.5-.72-5-1.93-5.45-4.76-.51-3.23.84-5.3,4.05-5.7.61-3.08.89-5.1,2.62-7.71l2.01-.79Z"/>
      <path class="cls-2" d="M100.3,148.8c.1-1.62-.15-4.94,1.48-5.57,1.2.31,3.34,3.05,4.45,4.17,1.43-1.1,3.97-2.93,5.71-1.72.39,1.03.02,1.64-.43,2.63.51.61.94,1.3.78,2.11-.27,1.44-1.26,1.42-2.18,1.77,1.09,1.52,2.29,3.02,3.4,4.57-2.42.25-3.73.11-6.09-.18-2.12-.26-3.39,4.47-5.61,4.32-.83-.81-.67-4.36-.71-5.71-1.43-.65-4.83-1.44-5.41-2.76.48-1.18,3.07-2.34,4.38-3.45l.22-.19Z"/>
      <path class="cls-18" d="M111.52,148.3c.51.61.94,1.3.78,2.11-.27,1.44-1.26,1.42-2.18,1.77-.84-1.98.11-2.47,1.4-3.88Z"/>
      <path class="cls-1" d="M166.66,142.47c3.02-.58,6.14.2,8.55,2.12,2.4,1.92,3.84,4.8,3.94,7.88.17,5.18-3.47,9.72-8.56,10.68-5.71,1.08-11.21-2.67-12.29-8.38-1.08-5.71,2.66-11.21,8.37-12.3Z"/>
      <path class="cls-13" d="M165.54,270.13c28.55,1.03,58.38,1.91,87.06-.91-.6,4.49-7.04,5.41-10.62,7.17-24.51,9.59-53.14,7.19-76.38-4.29.11-.94.09-1.02-.06-1.97Z"/>
      <g>
        <path class="cls-4" d="M281.67,319.29c-7.88,0-15.62-2.71-21.78-7.64-.08-.07-.17-.14-.25-.21-2.04-1.97-4.52-4.78-5.56-9.05-1.14-4.7-.36-9.73,2.15-13.8,2.38-3.87,6.11-6.57,10.48-7.59,1.37-.32,2.82-.48,4.31-.48,4,0,8.17,1.21,11.44,3.31.9.58,1.71,1.2,2.49,1.79.46.35.91.69,1.35,1,.1-.03.19-.05.26-.08-.09-.23-.2-.5-.29-.71-.19-.46-.41-.98-.58-1.54-.27-.9-.18-1.87.27-2.69.69-1.27,1.82-2.04,8.04-5.49,1.04-.57,2.01-1.11,2.4-1.35.56-.35,1.2-.52,1.84-.52s1.27.17,1.83.52l.26.16c.34.22.65.51.89.84,7.06,9.43,8.62,26.55-.44,36.05-5.19,5.45-10.7,6.73-14.92,7.24-1.38.17-2.8.25-4.19.25Z"/>
        <path d="M298.25,277.73c.06.04.12.07.18.11,6.34,8.46,7.36,23.64-.17,31.54-4.06,4.26-8.4,5.65-12.81,6.18-1.26.15-2.52.23-3.77.23-7.08,0-14-2.4-19.59-6.87-2.21-2.13-3.85-4.31-4.59-7.35-1.81-7.45,2.38-15.38,10.03-17.16,1.13-.26,2.32-.39,3.52-.39,3.36,0,6.82,1,9.54,2.75,1.64,1.06,3.08,2.36,4.75,3.41l.23.15c1.48-.21,3.46-.6,4.29-2.03.96-1.67-.31-3.41-.8-5.02.45-.82,7.65-4.56,9.2-5.53M298.25,270.74c-1.28,0-2.55.35-3.68,1.05-.32.2-1.39.79-2.25,1.27-6.32,3.49-8.19,4.6-9.43,6.88-.01.02-.02.04-.03.06-3.56-1.93-7.7-2.98-11.82-2.98-1.75,0-3.47.19-5.11.57-5.29,1.24-9.79,4.49-12.67,9.17-2.99,4.86-3.93,10.86-2.57,16.46,1.25,5.14,4.15,8.44,6.53,10.74.16.15.32.29.49.43,6.78,5.42,15.29,8.41,23.97,8.41,1.54,0,3.09-.09,4.61-.28,4.42-.53,11-1.98,17.03-8.3,4.81-5.04,7.37-12.33,7.22-20.52-.14-7.39-2.51-14.7-6.51-20.05-.5-.67-1.12-1.24-1.82-1.7-.08-.05-.17-.1-.25-.16-1.13-.71-2.42-1.06-3.71-1.06h0Z"/>
      </g>
      <g>
        <path class="cls-5" d="M258.16,283.69c-.7,0-1.4-.25-1.96-.73-.98-.84-1.31-2.22-.81-3.42.37-.9.73-1.8,1.09-2.69.88-2.18,1.78-4.43,2.82-6.66.99-2.49,2.34-5.3,3.64-8.02,1.03-2.14,2.09-4.36,2.96-6.37.02-.04,4.77-9.88,4.77-9.88.4-.92.84-1.92,1.27-2.92,1.3-3.01,2.64-6.12,4.29-9.13.16-.28.43-.99.65-1.56.25-.65.51-1.32.78-1.89.48-1.02,1.5-1.68,2.63-1.71.03,0,.06,0,.08,0,1.1,0,2.11.6,2.64,1.57,1.28,2.36,2.79,4.46,4.39,6.68l.64.89c3.71,4.1,6.42,6.66,10.36,10.31,3.41,2.52,7.02,4.81,10.75,6.82.32.04,1.14.1,2.98.1,3.66,0,8.57-.25,8.62-.25.05,0,.1,0,.15,0,1.32,0,2.49.86,2.87,2.13.4,1.32-.15,2.74-1.33,3.45-1.45.87-14.26,8.51-15.79,9.33-.92.53-1.93,1.15-2.92,1.76-1.07.66-2.13,1.31-3.17,1.9-.47.26-1.01.56-1.63.9-4.02,2.24-7.82,4.32-10.11,5.08-1.48.83-2.94,1.71-4.36,2.59-.49.31-1.04.46-1.6.46-.41,0-.83-.09-1.22-.26-1.9-.85-3.2-1.36-5.27-1.93-1.88-.3-4.07-.61-6.21-.61-1.35,0-2.57.12-3.72.36-2.43.67-3.69,1.43-5.96,2.8l-.78.47c-.48.29-1.01.43-1.54.43Z"/>
        <path d="M280.36,231.71c1.58,2.9,3.41,5.35,5.33,8.03,3.84,4.25,6.61,6.88,10.78,10.74,3.67,2.72,7.53,5.16,11.56,7.32.4.22,2.08.29,4.08.29,3.78,0,8.77-.25,8.77-.25,0,0-14.15,8.45-15.66,9.26-2.09,1.2-4.16,2.56-6.17,3.7-2.47,1.35-8.92,5.08-11.45,5.83-1.61.9-3.19,1.84-4.75,2.82-2.13-.95-3.59-1.51-5.85-2.13-2.27-.37-4.56-.67-6.85-.67-1.48,0-2.96.13-4.42.44-3.19.87-4.78,1.94-7.57,3.61,1.29-3.12,2.46-6.24,3.9-9.3,1.72-4.34,4.59-9.74,6.6-14.4l4.71-9.76c1.78-4,3.37-8.05,5.49-11.92.46-.84,1.01-2.57,1.5-3.6M280.36,225.71c-.06,0-.11,0-.17,0-2.26.06-4.29,1.39-5.26,3.43-.32.67-.59,1.39-.86,2.09-.16.41-.4,1.03-.5,1.23-1.7,3.1-3.07,6.27-4.39,9.34-.42.97-.84,1.94-1.26,2.91l-4.67,9.67c-.04.08-.07.16-.11.24-.84,1.96-1.89,4.15-2.91,6.26-1.31,2.74-2.67,5.56-3.69,8.12-1.06,2.27-1.97,4.54-2.85,6.73-.36.89-.71,1.77-1.08,2.66-.99,2.39-.33,5.15,1.62,6.84,1.12.96,2.51,1.46,3.92,1.46,1.06,0,2.13-.28,3.08-.85l.79-.48c2.14-1.29,3.14-1.9,5.11-2.45.92-.18,1.91-.27,3.01-.27,1.87,0,3.84.27,5.56.54,1.81.51,2.95.96,4.7,1.74.78.35,1.61.52,2.44.52,1.11,0,2.22-.31,3.19-.92,1.31-.82,2.65-1.62,4-2.39,2.54-.91,6.2-2.91,10.33-5.21.6-.34,1.13-.63,1.55-.86.03-.02.06-.03.09-.05,1.1-.63,2.2-1.3,3.26-1.95.99-.61,1.93-1.19,2.86-1.72,1.94-1.06,13.48-7.95,15.82-9.35,2.37-1.41,3.46-4.26,2.66-6.89-.77-2.54-3.11-4.26-5.74-4.26-.1,0-.2,0-.3,0-.05,0-4.88.24-8.47.24-1.04,0-1.7-.02-2.11-.04-3.35-1.84-6.61-3.92-9.7-6.19-3.78-3.5-6.4-5.99-9.94-9.88l-.54-.76c-1.61-2.24-3-4.17-4.19-6.37-1.05-1.94-3.08-3.14-5.27-3.14h0Z"/>
      </g>
      <path class="cls-2" d="M273.37,247.23c1.19.9,3.38,8.86,4.12,10.75,2.43,6.2,5.62,13.34,10.09,18.33l.03.31c-1.61.9-3.19,1.84-4.75,2.82-2.13-.95-3.59-1.51-5.85-2.13-3.74-.61-7.53-1.03-11.27-.23-3.19.87-4.78,1.94-7.57,3.61,1.29-3.12,2.46-6.24,3.9-9.3,1.72-4.34,4.59-9.74,6.6-14.4l4.71-9.76Z"/>
      <path class="cls-5" d="M268.66,256.99c1.56,3.35,2.95,6.91,4.16,10.42.94,2.75,3.67,7.28,4.18,9.9-3.74-.61-7.53-1.03-11.27-.23-3.19.87-4.78,1.94-7.57,3.61,1.29-3.12,2.46-6.24,3.9-9.3,1.72-4.34,4.59-9.74,6.6-14.4Z"/>
      <path class="cls-23" d="M262.06,271.39c1.53.47,2.26,1.07,2.68,2.68.15.55.96,2.74.99,3.01-3.19.87-4.78,1.94-7.57,3.61,1.29-3.12,2.46-6.24,3.9-9.3Z"/>
      <path class="cls-2" d="M285.69,239.74c3.84,4.25,6.61,6.88,10.78,10.74,3.67,2.72,7.53,5.16,11.56,7.32,1.17.62,6.71,3.09,7.07,3.39-.25,1.16-8.37,5.1-9.89,5.91-2.09,1.2-4.16,2.56-6.17,3.7-.09-.04-.19-.09-.28-.13-6.22-8.09-12.21-17.62-13.56-27.91-.2-1.5-.1-2.31.48-3.01Z"/>
      <path class="cls-5" d="M296.47,250.48c3.67,2.72,7.53,5.16,11.56,7.32,1.17.62,6.71,3.09,7.07,3.39-.25,1.16-8.37,5.1-9.89,5.91-1.86-2.85-9.23-13.56-8.75-16.61Z"/>
      <g>
        <path class="cls-6" d="M159.57,283.93c-.57,0-1.15-.16-1.65-.5l-.26-.17c-2.13-1.4-3.01-1.98-5.26-2.76-.06-.02-.12-.04-.17-.07-1.57-.65-3.21-.96-5.15-.96-1.83,0-3.76.27-5.8.56-1.24.36-2.78.94-4.15,1.45-.5.18-.98.36-1.43.53-.33.12-.68.18-1.02.18-.6,0-1.2-.18-1.71-.53-1.06-.73-2.33-1.45-3.56-2.13l-.6-.34c-3.42-1.19-9.3-4.14-12.08-6.05-1.07-.57-2.07-1.18-3.04-1.77-1.12-.68-2.17-1.33-3.3-1.9-3.59-1.34-15.35-7.86-17.76-9.38-1.08-.68-1.61-1.98-1.32-3.22.29-1.25,1.34-2.17,2.61-2.3,5.62-.59,20.28-4.17,25.59-6.81.86-.91,1.88-1.83,2.87-2.73.76-.68,1.47-1.33,2.05-1.91,1.79-1.81,3.46-3.64,5.23-5.58l.48-.52c1.49-2.24,3.07-4.48,4.69-6.64.57-.76,1.46-1.2,2.4-1.2.11,0,.23,0,.34.02,1.06.12,1.97.79,2.4,1.77.52,1.18,1,2.15,1.46,2.95,1.35,2.36,2.32,4.81,3.25,7.17.42,1.06.84,2.12,1.29,3.17,1.43,2.7,3.54,7.04,4.92,10.6.4.85.82,1.75,1.24,2.67.59,1.29,1.2,2.59,1.77,3.78.18.38.46.93.78,1.57,1.91,3.81,3.01,6.11,3.43,7.5,1.46,3.09,2.88,6.25,4.23,9.38.52,1.22.18,2.63-.83,3.48-.55.46-1.24.7-1.92.7Z"/>
        <path d="M137.23,232.17c.48,1.08,1.01,2.2,1.59,3.23,1.85,3.24,2.96,6.75,4.44,10.16,1.63,3.07,3.63,7.26,4.86,10.48.98,2.08,2.07,4.51,3.07,6.57.87,1.8,3.7,7.2,4.09,8.81,1.49,3.15,2.92,6.32,4.29,9.51-2.38-1.57-3.48-2.33-6.18-3.26-2.13-.89-4.21-1.19-6.31-1.19-2.1,0-4.22.3-6.43.62-1.82.52-4.15,1.43-5.97,2.09-1.43-.99-3.1-1.89-4.63-2.75-3.07-1.02-9.15-4.03-11.75-5.87-2.28-1.19-4.31-2.68-6.73-3.87-2.89-1-14.67-7.47-17.34-9.16,6.08-.63,21.84-4.51,27.14-7.38,1.38-1.57,3.65-3.38,5.19-4.94,2.06-2.08,3.99-4.21,5.95-6.37,1.5-2.28,3.08-4.51,4.71-6.69M137.23,226.17c-1.87,0-3.66.88-4.8,2.4-1.61,2.14-3.17,4.36-4.66,6.59l-.34.37c-1.74,1.91-3.38,3.72-5.13,5.47-.52.53-1.21,1.14-1.93,1.8-.89.8-1.81,1.63-2.65,2.48-4.97,2.27-18.54,5.72-24.12,6.3-2.54.26-4.64,2.11-5.22,4.6s.48,5.08,2.64,6.44c2.58,1.63,14.04,7.99,18.15,9.59.97.5,1.94,1.09,2.96,1.71.96.59,1.96,1.2,3.05,1.79,2.98,2.02,8.75,4.91,12.39,6.22l.39.22c1.16.65,2.36,1.33,3.3,1.98,1.02.7,2.21,1.06,3.41,1.06.69,0,1.38-.12,2.05-.36.46-.17.94-.35,1.44-.53,1.25-.46,2.65-.98,3.76-1.32,1.87-.26,3.61-.5,5.15-.5,1.56,0,2.79.22,4,.73.12.05.23.09.35.13,1.89.65,2.52,1.07,4.58,2.43l.26.17c1.01.66,2.16.99,3.3.99,1.37,0,2.74-.47,3.85-1.4,2.03-1.7,2.71-4.53,1.66-6.97-1.33-3.11-2.74-6.23-4.18-9.29-.52-1.62-1.63-3.93-3.55-7.75-.31-.62-.58-1.16-.76-1.53-.55-1.15-1.16-2.45-1.74-3.72-.41-.89-.82-1.77-1.21-2.6-1.4-3.61-3.45-7.85-4.97-10.72-.41-.96-.8-1.94-1.21-2.97-.97-2.46-1.98-5.01-3.44-7.56-.4-.71-.83-1.58-1.31-2.67-.86-1.95-2.69-3.3-4.81-3.54-.23-.03-.46-.04-.69-.04h0Z"/>
      </g>
      <path class="cls-2" d="M143.26,245.55c1.63,3.06,3.63,7.26,4.86,10.48.98,2.08,2.07,4.51,3.07,6.57.87,1.8,3.7,7.2,4.09,8.81,1.49,3.14,2.92,6.32,4.29,9.51-2.38-1.57-3.48-2.33-6.18-3.26-4.28-1.78-8.33-1.2-12.74-.57-1.82.52-4.15,1.43-5.97,2.09-1.43-.99-3.1-1.89-4.63-2.75.19-.8,1.42-2.35,1.97-3.17,3.53-5.26,6.26-11.03,8.76-16.84.77-1.8,1.19-3.9,1.62-5.78.31-1.34.35-4.14.88-5.1Z"/>
      <path class="cls-6" d="M148.12,256.04c.98,2.08,2.07,4.51,3.07,6.57.87,1.8,3.7,7.2,4.09,8.81,1.49,3.15,2.92,6.32,4.29,9.52-2.38-1.57-3.48-2.33-6.18-3.26-4.28-1.78-8.33-1.2-12.74-.57-.06-1.48,1.79-5.03,2.42-6.6,1.94-4.72,3.63-9.55,5.06-14.45Z"/>
      <path class="cls-15" d="M155.28,271.42c1.49,3.15,2.92,6.32,4.29,9.51-2.38-1.57-3.48-2.33-6.18-3.26-.15-.94,1.18-5.24,1.89-6.25Z"/>
      <path class="cls-2" d="M121.37,250.17c1.38-1.57,3.65-3.38,5.19-4.94,2.06-2.08,3.99-4.21,5.95-6.37.85,1.89-1.33,9.53-2.13,11.64-2.38,6.36-5.74,12.3-9.96,17.62-.49.62-1.6,2.06-2.13,2.46-2.28-1.19-4.31-2.68-6.73-3.87-2.89-1-7.46-4.02-10.13-5.71,6.08-.63,14.62-7.96,19.92-10.83Z"/>
      <path class="cls-6" d="M121.37,250.17c-.7,3.81-6.89,13.2-9.45,15.99-.21.23-.25.38-.34.55-2.89-1-7.46-4.02-10.13-5.71,6.08-.63,14.62-7.96,19.92-10.83Z"/>
      <g>
        <path class="cls-4" d="M136.86,319.17c-4.96,0-9.48-1.12-13.06-3.24-5.18-3.07-8.71-7.88-10.2-13.91-1.87-7.55-.3-16.69,4.1-23.86.65-1.06,1.79-1.67,2.98-1.67.32,0,.65.04.97.14,1.28.37,3.68,1.51,7.65,3.49.51.25.95.47,1.26.62.95.46,1.64,1.33,1.88,2.36s0,2.11-.65,2.94c-.07.09-.13.17-.17.23.52-.28,1.11-.72,1.72-1.17.59-.44,1.21-.89,1.89-1.31,2.78-1.8,7.17-3.27,10.35-3.45.28,0,.49-.01.7-.01,4.63,0,9.23,1.72,12.62,4.71,5.01,4.42,6.82,11.49,4.72,18.45-.95,3.16-2.36,4.91-4.25,7.05-.04.05-.09.09-.13.14-5.18,5.24-13.75,8.5-22.37,8.5Z"/>
        <path d="M120.67,279.98c1.51.44,6.67,3.08,8.35,3.9-1.49,1.9-1.53,3.38.5,5.36.4.39,1.24.74,1.91.74.12,0,.24-.01.34-.04,1.98-.49,3.56-2.12,5.26-3.17,2.28-1.48,6.04-2.79,8.72-2.94.17,0,.34,0,.5,0,3.72,0,7.55,1.4,10.31,3.83,4.28,3.78,5.29,9.5,3.69,14.81-.75,2.5-1.83,3.82-3.52,5.74-4.61,4.66-12.47,7.46-19.88,7.46-4.12,0-8.09-.86-11.28-2.75-11.61-6.87-11.21-22.66-4.91-32.93M120.67,272.98c-2.39,0-4.67,1.23-5.97,3.34-4.94,8.06-6.63,17.98-4.51,26.53,1.73,6.96,5.81,12.52,11.82,16.08,4.12,2.44,9.25,3.73,14.84,3.73,9.52,0,19.04-3.65,24.86-9.54.09-.09.18-.18.26-.28,2.05-2.31,3.83-4.53,4.99-8.36,2.5-8.28.29-16.74-5.76-22.08-4.02-3.55-9.47-5.59-14.94-5.59-.25,0-.5,0-.74.01-.05,0-.1,0-.15,0-3.22.18-7.32,1.42-10.54,3.12-.68-1.01-1.62-1.83-2.74-2.38-.31-.15-.73-.36-1.23-.61-4.34-2.16-6.69-3.27-8.24-3.72-.64-.19-1.3-.28-1.94-.28h0Z"/>
      </g>
      <g>
        <path class="cls-4" d="M187.9,380.35c-4.07,0-11.56-.6-15.97-4.64-2.34-2.14-2.65-4.99-2.75-5.93-.46-4.31,1.92-6.92,3.5-8.65.88-.96,1.46-1.62,1.69-2.31.22-2.92.12-6.43.01-9.84-.05-1.73-.1-3.42-.11-4.99,0-1.13.54-2.2,1.46-2.86.6-.43,1.32-.66,2.04-.66.38,0,.76.06,1.13.19,5.91,2.02,11.96,2.71,18.37,3.44,1.97.23,3.94.45,5.9.72,1.85.25,3.18,1.9,3.02,3.76-.22,2.64-.22,5.61-.22,8.76,0,5.29,0,10.76-1.08,15.46-.77,3.31-4.25,5.11-7.2,6.31-.14.06-.28.1-.42.14-2.63.69-6.05,1.09-9.38,1.09Z"/>
        <path d="M177.77,343.99c8.16,2.78,16.56,3.19,24.94,4.31-.62,7.3.39,16.74-1.22,23.72-.43,1.85-3.36,3.15-5.1,3.85-2.24.59-5.3.97-8.49.97-5.14,0-10.63-1-13.61-3.72-1.1-1.01-1.48-2.34-1.63-3.72-.51-4.77,4.23-6.01,5.17-9.96.4-4.68-.03-10.65-.06-15.46M177.78,336.99c-1.45,0-2.88.45-4.09,1.32-1.84,1.32-2.92,3.45-2.91,5.72,0,1.63.06,3.37.11,5.07.09,3.03.19,6.14.04,8.74-.22.27-.56.65-.83.94-1.76,1.92-5.02,5.5-4.4,11.38.36,3.39,1.66,6.12,3.86,8.14,5.02,4.6,12.74,5.56,18.33,5.56,3.67,0,7.32-.43,10.27-1.21.29-.08.57-.17.85-.28,2.19-.89,8.02-3.25,9.29-8.76,1.18-5.09,1.17-10.77,1.17-16.25,0-3.07,0-5.97.21-8.46.31-3.72-2.34-7.03-6.04-7.53-2.01-.27-4.02-.5-5.96-.72-6.22-.71-12.1-1.38-17.65-3.28-.74-.25-1.5-.38-2.26-.38h0Z"/>
      </g>
      <g>
        <path class="cls-4" d="M237.76,380.38c-3.87,0-7.56-.59-9.97-1.09-.11-.02-.23-.05-.34-.09-4.37-1.37-5.73-2.56-8.16-5.97-.4-.57-.63-1.24-.65-1.93-.03-1.25-.13-2.49-.24-3.81-.12-1.46-.23-2.97-.26-4.52-.07-3.54-.08-7.13-.1-10.6,0-1.39,0-2.77-.02-4.15-.01-1.77,1.31-3.27,3.07-3.49,1.41-.18,2.84-.24,4.22-.3,1.16-.05,2.25-.1,3.28-.21,5.95-.63,11.03-1.4,16.46-3.12.35-.11.7-.16,1.06-.16.99,0,1.96.42,2.64,1.2,1.39,1.59,1.28,3.8,1.02,9.13-.11,2.23-.32,6.35-.02,7.46.79,1.72,1.45,2.44,2.15,3.2,1.81,1.97,3.01,3.68,3.16,9.24.02.7-.17,1.39-.56,1.99-2.12,3.3-6.75,7.23-16.73,7.23Z"/>
        <path d="M246.11,344.44c.98,1.12-.78,13.03.41,15.65,2.67,5.89,4.83,3.54,5.03,11.17-2.79,4.34-8.31,5.62-13.79,5.62-3.3,0-6.59-.47-9.26-1.02-3.51-1.1-4.3-1.78-6.36-4.66-.08-2.77-.45-5.51-.5-8.3-.1-4.89-.08-9.81-.11-14.7,2.38-.3,5.01-.24,7.43-.5,6.05-.64,11.36-1.43,17.15-3.26M246.11,337.44c-.7,0-1.42.11-2.11.33-5.16,1.63-10.04,2.37-15.77,2.97-.92.1-1.96.14-3.06.19-1.45.06-2.96.13-4.5.32-3.52.44-6.15,3.44-6.13,6.99,0,1.37.01,2.75.02,4.13.01,3.49.02,7.1.1,10.68.03,1.65.16,3.21.27,4.72.1,1.27.19,2.47.23,3.63.04,1.39.49,2.73,1.3,3.87,3,4.21,5.14,5.77,9.97,7.28.22.07.45.13.67.17,2.57.53,6.51,1.16,10.68,1.16,11.56,0,17.08-4.81,19.67-8.84.76-1.18,1.15-2.57,1.11-3.97-.16-6.13-1.56-8.78-4.08-11.52-.53-.58-.89-.96-1.34-1.86-.11-1.31.04-4.49.13-6.26.3-5.96.45-8.95-1.88-11.61-1.35-1.55-3.28-2.39-5.27-2.39h0Z"/>
      </g>
      <g>
        <path class="cls-10" d="M95.14,259.64c-3.33,0-4.66-1.76-5.16-2.81-1.8-3.77,1.57-9.15,7.18-16.08l.2-.25c.9-1.12,2.08-2.2,3.21-3.26,1.03-.95,2.09-1.94,2.71-2.74,1.04-1.51,2.48-2.51,3.87-3.4l1.12-.68c1.32-1.02,2.73-1.96,4.1-2.87l.78-.52c4.55-3.63,12.14-7.53,18.19-7.58,2.26,0,3.49.96,4.13,1.77,1.55,1.94.97,4.45.62,5.95l-.03.14c-.04.18-.1.36-.17.53-.62,1.42-1.42,2.72-2.19,3.97l-.36.58-.31.52c-.54.91-1.14,1.93-1.92,2.81-1.29,1.8-2.76,3.82-4.19,5.29-.86,1.04-1.91,1.98-2.84,2.82,0,0-.56.5-.6.54-.17.14-.58.46-1.11.87-.92.71-3.02,2.35-3.54,2.83-1.24,1.49-2.38,2.34-3.98,3.29-3.3,2.74-12.75,6.99-16.23,7.82-1.34.32-2.48.47-3.49.47Z"/>
        <path d="M131.4,222.46c2.78,0,2.14,2.46,1.74,4.18-.63,1.44-1.54,2.84-2.36,4.19-.61,1-1.25,2.18-2.02,3.02-1.14,1.6-2.7,3.76-4.08,5.16-.86,1.06-2.07,2.1-3.1,3.03-.63.51-4.73,3.64-5.01,4.05-1.08,1.31-2.02,1.96-3.47,2.81-2.54,2.27-11.76,6.54-15.17,7.35-1.13.27-2.05.39-2.79.39-7.18,0,2.28-11.43,4.55-14.24,1.6-1.98,4.53-4.16,6.02-6.12.75-1.12,1.95-1.92,3.07-2.64l1.2-.73c1.55-1.21,3.31-2.34,4.95-3.44,4.03-3.24,11.17-6.96,16.44-7,.01,0,.02,0,.03,0M131.4,216.46s-.06,0-.08,0c-6.72.05-14.98,4.23-19.94,8.15l-.68.45c-1.36.91-2.77,1.84-4.13,2.89l-.9.55c-.05.03-.1.06-.15.09-1.2.78-3.18,2.06-4.65,4.13-.49.61-1.47,1.52-2.35,2.34-1.21,1.12-2.46,2.28-3.5,3.57l-.2.25c-6.5,8.03-10.04,14.05-7.55,19.26.65,1.36,2.71,4.52,7.87,4.52,1.25,0,2.61-.18,4.18-.55,3.83-.91,13.36-5.19,17.25-8.26,1.45-.87,2.89-1.86,4.42-3.65.65-.56,2.5-2,3.24-2.57.55-.43.98-.77,1.16-.91.08-.07.16-.14.24-.21l.47-.43c.98-.88,2.08-1.87,3.06-3.03,1.51-1.57,3.01-3.6,4.32-5.44.91-1.06,1.58-2.2,2.14-3.13.1-.17.2-.34.3-.51l.35-.57c.79-1.28,1.68-2.72,2.38-4.34.15-.34.26-.69.35-1.05l.03-.14c.41-1.76,1.25-5.41-1.2-8.49-.86-1.08-2.84-2.9-6.42-2.9h0Z"/>
      </g>
      <g>
        <path class="cls-14" d="M131.87,226.28h0c-2.52-1.2-6.01-.97-8.58-.04v.3c.03.76-.16,2.09-.2,2.94-.02.44.26.82.68.94,1.59.46,3.67.67,5.18.09.15-.06,2.1-2.92,2.92-4.23Z"/>
        <path class="cls-14" d="M133.05,226.84c-.13.28-.26.56-.4.83.14-.28.28-.55.4-.83Z"/>
        <path class="cls-14" d="M131.95,228.91c-.15.25-.29.5-.44.74.15-.25.3-.49.44-.74Z"/>
        <path class="cls-14" d="M132.54,227.88c-.15.28-.31.56-.47.84.16-.28.32-.56.47-.84Z"/>
      </g>
      <path class="cls-8" d="M114.93,229.47c1.22,1.33,1.64,1.64,2.31,3.3-1.84,4.43-5.87,5.15-7.26.14,1.55-1.21,3.31-2.34,4.95-3.44Z"/>
      <path class="cls-6" d="M113.1,248.91l-.24-.41c.28-2.14-.2-5.17,1.58-6.67,1.46-.36,1.8.46,2.39,1.64-.58,1.21-.77,1.37-.27,2.63-1.08,1.31-2.01,1.96-3.47,2.81Z"/>
      <path class="cls-21" d="M105.71,236.28c.75-1.12,1.95-1.92,3.07-2.64.24,1.61.44,3.23.62,4.85-2.08-.46-2.23-.68-3.68-2.2Z"/>
      <path class="cls-6" d="M126.25,234.19c.71-.3,1.48-.73,2.23-.7l.29.37c-1.14,1.6-2.7,3.76-4.08,5.16l-.34-.23c-.23-.97,1.37-3.58,1.91-4.59Z"/>
      <path class="cls-20" d="M116.84,243.46c.89-.66,2.27-1.83,3.52-1.45.54.16.68.1,1.23.03-.63.51-4.73,3.64-5.01,4.05-.5-1.26-.31-1.42.27-2.63Z"/>
      <path class="cls-21" d="M99.95,246.89c3.69-.2,5,4.8-.1,6.87-1.67.18-3.55.07-3.76-1.91-.28-2.76,1.32-4.63,3.86-4.96Z"/>
      <path class="cls-14" d="M106.78,239.72c4.49-.35,4.6,2.09,1.58,4.68-1.79.34-3.48-.58-3.23-2.61.12-1.04.88-1.46,1.65-2.08Z"/>
      <g>
        <path class="cls-5" d="M321.8,259.44c-3.42,0-9.84-2.51-11.98-3.85-6.37-3.37-11.87-7.4-16.83-12.32-.07-.07-7.72-7.97-10.23-13.38-.06-.13-.14-.28-.22-.45-.79-1.59-2.26-4.54-.67-7.09.73-1.17,2.24-2.56,5.28-2.56,1.69,0,3.4.44,4.33.67.06.02.13.03.19.05l.56.18c1.18.37,2.51.79,3.66,1.44,2.74,1.19,6.41,3.39,8.74,5.22,1.44.81,2.67,1.56,4.25,2.64.09.06.18.13.27.21.17.14.47.4.83.7,1.31,1.1,1.98,1.67,2.36,2.04,1.15,1,2.12,1.87,3.3,3.06,1.68,1.52,13.71,12.72,11.98,19.31-.31,1.18-1.31,3.28-4.49,3.99-.4.09-.83.14-1.32.14Z"/>
        <path d="M287.14,222.8c1.28,0,2.67.35,3.59.58,1.21.39,2.74.82,3.8,1.46,2.51,1.07,6.22,3.28,8.41,5.03,1.58.89,2.74,1.59,4.23,2.61.57.5,2.69,2.23,3.1,2.66,1.22,1.05,2.15,1.9,3.28,3.04,1.85,1.67,16.93,16.4,8.91,18.21-.19.04-.41.06-.66.06-2.69,0-8.74-2.29-10.47-3.44-6.05-3.19-11.38-7.04-16.23-11.86-.72-.71-7.5-7.94-9.62-12.52-.54-1.15-1.88-3.38-1.06-4.68.55-.87,1.59-1.14,2.73-1.14M287.14,216.8h0c-4.64,0-6.89,2.48-7.82,3.96-2.49,3.98-.38,8.21.52,10.02.07.14.14.27.19.39,2.77,5.96,10.77,14.17,10.85,14.25,5.14,5.1,10.86,9.29,17.46,12.79,2.59,1.57,9.33,4.24,13.46,4.24.71,0,1.36-.07,1.99-.21,3.44-.77,5.9-3.02,6.72-6.15,1.05-4.01-.71-8.53-5.71-14.66-2.85-3.49-6.01-6.58-7.09-7.58-1.2-1.2-2.19-2.1-3.35-3.11-.44-.42-1.1-.99-2.46-2.12-.34-.28-.63-.53-.79-.67-.17-.15-.35-.29-.54-.41-1.59-1.09-2.85-1.85-4.28-2.67-2.47-1.91-6.22-4.14-9.08-5.41-1.39-.76-2.87-1.23-4.09-1.61l-.54-.17c-.12-.04-.25-.08-.38-.11-1.05-.27-3.01-.76-5.07-.76h0Z"/>
      </g>
      <path class="cls-19" d="M294.77,227.04c-1.32-1.61-2.61-1.93-4.52-2.26.05,0,.08,0,.13,0-.05,0-.08,0-.13,0-2.16-.03-4,3.5-3.78,3.4,1.36,1.18,2.72,2.58,4.38,3.27,2.22.92,5.71-2.22,3.91-4.41Z"/>
      <path class="cls-23" d="M307.17,232.47c-.7.95-.68,2.04-1.43,2.94-1.16,1.38-2.96,1.64-4.04,0-.61-.94-.8-2.08-.54-3.17.28-1.16.81-1.79,1.78-2.4,1.58.9,2.74,1.6,4.23,2.62Z"/>
      <path class="cls-19" d="M308.48,239.87c2.62-.37,1.65-.02,3.65.76.26,1.13.64,2.21-.27,3.23-1.46,1.63-4.77.73-4.82-1.59-.02-1.01.77-1.71,1.44-2.39Z"/>
      <path class="cls-8" d="M317.03,247.08c1.4-.27,2.82.33,3.59,1.53.77,1.2.73,2.75-.1,3.91-.49.68-1.2,1.16-2.01,1.35-1.22.29-2.51-.1-3.36-1.02-.85-.93-1.14-2.24-.75-3.44.39-1.2,1.4-2.09,2.64-2.33Z"/>
      <g>
        <path class="cls-7" d="M86.44,198.92c-.49,0-.96-.18-1.33-.51-13.46-12.05-24.7-16.8-41.46-17.53-.64-.03-1.22-.36-1.58-.88-.35-.53-.44-1.19-.22-1.79l.37-1.01c.74-2.02,1.11-3.03,1.59-5.45.19-.94,1.02-1.61,1.96-1.61.06,0,.13,0,.19,0,1.31.13,2.64.3,3.93.52,9.75,1.61,20.16,6.09,27.14,11.69,2.89,2.31,9.63,8.87,11.7,11.78.4.56.49,1.29.22,1.93l-.19.45c-.16.36-.34.79-.43,1.05-.21.64-.73,1.13-1.38,1.3-.17.04-.34.07-.51.07Z"/>
        <path d="M45.77,172.13c1.27.12,2.53.29,3.79.5,8.88,1.47,19.21,5.66,26.23,11.28,2.68,2.15,9.36,8.64,11.33,11.38-.18.44-.53,1.22-.67,1.63-13.26-11.87-24.71-17.26-42.71-18.04,1.01-2.79,1.45-3.79,2.04-6.75M45.77,168.13c-1.89,0-3.54,1.33-3.92,3.22-.45,2.28-.76,3.12-1.51,5.17l-.37,1.01c-.43,1.2-.27,2.53.44,3.59.71,1.06,1.88,1.71,3.15,1.77,16.45.72,26.97,5.17,40.22,17.03.74.66,1.7,1.02,2.67,1.02.34,0,.69-.04,1.03-.13,1.3-.35,2.34-1.33,2.77-2.61.05-.16.26-.63.37-.89.07-.17.14-.34.2-.47.53-1.28.36-2.74-.44-3.86-2.23-3.12-9.1-9.79-12.08-12.17-7.24-5.8-18-10.44-28.08-12.1-1.32-.22-2.7-.41-4.06-.54-.13-.01-.26-.02-.38-.02h0Z"/>
      </g>
      <g>
        <path class="cls-6" d="M373.96,243.2c-.65,0-1.27-.25-1.74-.71-2.34-2.27-5.18-3.84-8.19-5.51l-.51-.28c-8.07-4.03-12.9-4.62-21.43-5.39-1.2-.11-2.15-1.06-2.26-2.26-.11-1.2.65-2.31,1.8-2.64l.38-.11c3.15-.92,7.79-1.46,12.72-1.46,2.01,0,3.96.09,5.63.27,7.88.89,13.58,4.01,18.57,7.26,1.09.71,1.45,2.13.84,3.28-1.03,1.93-2.14,3.8-3.22,5.6l-.42.71c-.39.66-1.06,1.1-1.82,1.2-.11.01-.22.02-.33.02Z"/>
        <path d="M354.72,227.36c1.95,0,3.8.09,5.37.25,6.73.76,11.87,3.23,17.46,6.87-1.14,2.12-2.36,4.15-3.59,6.22-2.73-2.65-5.99-4.38-9.28-6.21-8.34-4.17-13.35-4.85-22.37-5.67l.38-.11c3.27-.96,7.87-1.36,12.03-1.36M354.72,222.36h0c-3.03,0-8.8.2-13.44,1.56l-.34.1c-2.32.66-3.83,2.88-3.61,5.28.23,2.4,2.13,4.3,4.53,4.51,8.43.76,12.84,1.3,20.49,5.11l.48.26c2.86,1.58,5.56,3.08,7.65,5.11.94.91,2.19,1.41,3.48,1.41.22,0,.44-.01.66-.04,1.52-.2,2.86-1.09,3.64-2.4l.42-.7c1.09-1.83,2.22-3.73,3.28-5.71,1.23-2.29.5-5.14-1.68-6.55-5.25-3.42-11.26-6.71-19.63-7.65-1.8-.19-3.84-.28-5.93-.28h0Z"/>
      </g>
      <g>
        <path class="cls-9" d="M340.02,153.4c-.43-.02-.85-.15-1.22-.38-1.41-.88-3.41-2.46-5.94-4.7-.63-.55-.93-1.38-.82-2.21.11-.83.63-1.54,1.38-1.91,4.14-2.02,7.47-6.22,10.7-10.27.5-.62.98-1.24,1.47-1.84.48-.59,1.2-.93,1.94-.93.18,0,.36.02.53.06,1.65.36,3.4,1.95,6.06,4.76l.33.35c.77.81.92,2.02.35,2.99-.49.84-.9,1.63-1.29,2.37-1.3,2.47-2.52,4.81-5.55,7.32-.26.21-.54.46-.83.73-1.74,1.55-4.12,3.66-6.89,3.66h-.22Z"/>
        <path d="M347.53,133.66c1.33.29,4.06,3.29,5.12,4.39-2.09,3.58-2.78,6.12-6.28,9.03-1.57,1.3-3.92,3.82-6.13,3.82-.04,0-.08,0-.12,0-1.68-1.05-4.11-3.13-5.6-4.45,5.34-2.61,9.31-8.21,13.01-12.78M347.53,128.66c-1.49,0-2.92.67-3.88,1.85-.49.6-.98,1.22-1.48,1.85-3.05,3.84-6.21,7.81-9.84,9.58-1.5.73-2.54,2.16-2.76,3.82-.23,1.65.39,3.31,1.64,4.42,2.63,2.33,4.74,3.99,6.27,4.95.74.46,1.58.72,2.45.75.11,0,.21,0,.32,0,3.72,0,6.63-2.59,8.55-4.3.28-.25.53-.48.77-.67,3.41-2.83,4.81-5.5,6.17-8.08.38-.73.78-1.49,1.24-2.27,1.12-1.93.83-4.36-.71-5.97l-.32-.34c-3.07-3.24-5.04-4.98-7.34-5.48-.36-.08-.71-.12-1.07-.12h0Z"/>
      </g>
      <g>
        <path class="cls-11" d="M326.95,203.09c-.27,0-.55-.04-.82-.14l-.72-.25c-.71-.25-1.27-.8-1.53-1.5s-.19-1.49.2-2.14c4.1-6.91,13.06-15.31,19.4-19.5,6.88-5.4,20.22-9.66,27.95-10.12.05,0,.1,0,.15,0,1.16,0,2.17.8,2.44,1.94.17.76.42,1.69.68,2.65.41,1.53.84,3.12,1.04,4.29.12.69-.05,1.39-.48,1.95-.42.55-1.06.91-1.75.97-1.67.16-3.32.23-4.73.3-6.99.33-13.87,2.98-20.27,5.8-9.39,5.26-15.8,10.11-19.61,14.83-.48.6-1.21.93-1.95.93Z"/>
        <path d="M371.58,171.95c.45,1.95,1.39,5.04,1.7,6.8-1.54.14-3.05.22-4.61.29-7.44.35-14.54,3.08-21.28,6.06-6.99,3.91-15.38,9.22-20.44,15.5l-.72-.25c3.8-6.41,12.48-14.65,18.71-18.74,6.11-4.85,19-9.2,26.63-9.65M371.58,166.95c-.1,0-.2,0-.3,0-8.07.48-21.99,4.93-29.26,10.58-6.57,4.36-15.82,13.07-20.09,20.25-.77,1.29-.91,2.86-.4,4.27.52,1.41,1.64,2.51,3.06,3.01l.72.25c.54.19,1.09.28,1.64.28,1.48,0,2.93-.66,3.89-1.86,3.58-4.45,9.73-9.08,18.78-14.15,6.15-2.71,12.73-5.23,19.28-5.55,1.76-.08,3.26-.16,4.83-.3,1.39-.13,2.66-.83,3.51-1.94.85-1.11,1.19-2.52.95-3.89-.22-1.28-.66-2.92-1.09-4.51-.26-.96-.5-1.86-.66-2.56-.53-2.28-2.56-3.88-4.87-3.88h0Z"/>
      </g>
      <path class="cls-1" d="M86.01,261.38c1.9.06,11.37,8.4,12.38,10.07.38,3.21-3.61,3.6-5.84,5.2-1.94,1.38-3.11,2.38-4.48,4.41-3.58,5.3.1,11.33,1.02,16.93,1.06,6.47.81,10.24-2.61,15.62-8.11,12.73-24.84,9.59-34.47,18.49-3.21,2.97-4.61,9.76-5.07,13.91-.14,1.28.22,3.02-.52,4.14-2.18,1.6-2.94.79-4.57-.9-.89-.93-1.89-1.89-2.8-2.81-.8-.75-1.49-1.54-2.23-2.36-1.95,1.01-4.41,2.53-6.61,2.7-1.34.1-2-3.67-2-3.67-.59-2.93,2.07-11.79,3.66-14.63,5.03-9.55,13.78-14.14,24.14-16.08,7.07-1.33,17.18-2.82,21.07-9.99,3.55-6.54-1.51-12.57-3.57-18.59-1.45-4.22-1.17-9.71,1.02-13.69,2.8-5.02,6.19-7.1,11.47-8.74Z"/>
      <path class="cls-6" d="M83.84,308.62c-6.87,15.44-28.21,9.65-36.99,22.98-2.87,4.38-3.23,7.78-3.94,12.81-1.85-1.67-3.3-3.35-4.96-5.21-1.74.44-3.58,1.19-5.29,1.82,1.62-7.13,2.23-10.29,7.28-15.86,10.08-11.15,25.96-6.53,36.92-15.36,2.76-2.21,5.04-5.19,6.01-8.67.34-1.39.71-3.04,1.15-4.36.22,1.3.44,2.52.53,3.85.21,2.6.37,5.55-.71,7.99Z"/>
      <path class="cls-6" d="M85.58,266.23c.56.02,5.86,4.65,6.82,5.38-2.9,1.54-5.16,3.17-7.22,5.79-2.72,3.49-3.96,7.91-3.45,12.3.16.98.24,2.02.33,3.02-2.2-6.88-6.48-12.89-3.77-19.6,1.56-3.85,3.67-5.32,7.29-6.9Z"/>
      <path class="cls-1" d="M381.28,352.68c-1.31,1.83-8.48,10.08-9.77,4.62-.23-.99-.07-3.38-.15-4.45-.53-7.54-3.88-13.39-11.3-15.82-9.24-3.71-20.25-5.75-25.94-14.62-2.97-4.39-3.94-11.68-2.02-16.74,3.07-8.11,5.47-16.28-3.71-21.46-2.26-1.28-5.29-1.82-6.83-4.15-.25-1.85,3.78-3.7,4.99-4.98,5.16-5.48,6.43-7.15,13.51-3.03,3.02,1.76,5.52,4.3,7.24,7.35,6.96,12.67-6.77,20.69-3.92,30.46.64,2.18,1.99,3.93,3.68,5.41,5.77,5.05,12.92,5.39,19.96,7.26,2.83.74,5.55,1.83,8.11,3.23,6.66,3.65,10.89,9.09,13.02,16.33.89,2.77,2.71,9.5,1.34,12.17-.33.65-.82.95-1.42,1.3-1.11,0-4.35-2.17-6.77-2.89Z"/>
      <path class="cls-1" d="M388.05,355.58c-.28-.2-.61-.51-.58-.87.15-2.16-.37-11.29.67-12.61.89,2.77,2.71,9.5,1.34,12.17-.33.65-.82.95-1.42,1.31Z"/>
      <path class="cls-15" d="M336.97,305.38c.64.55,1.39,5.02,2.14,6.8,1.26,2.94,3.25,5.51,5.79,7.47,10.04,7.73,21.19,4.64,31.26,12.31,5.47,4.16,8.13,10.83,8.93,17.51-1.23-.39-2.86-1.39-3.94-1.45-1.94,1.11-3.77,3.27-5.37,4.91-.89-6.96-3.6-14.86-10.02-18.35-6.3-3.42-13.92-4.53-20.34-8.06-9.82-5.41-10.06-11.16-8.44-21.14Z"/>
      <path class="cls-15" d="M340.47,299.44c-.26.76-.43,1.27-.78,1.98l-.2.03c-.07-1.19.16-2.42.34-3.61.51-9.05-3.6-14.59-11.42-18.59l5.71-5.1c1.52,1,3.15,1.4,4.5,2.29,9.5,6.32,5.57,15.25,1.84,23Z"/>
      <path class="cls-18" d="M57.17,28.25c6.07-.33,7.88,2.38,10.84,6.9,4.58-3.4,9.48-3.52,13.49.76,1.89,2.03,2.87,4.74,2.72,7.51-.16,3.62-1.65,5.5-4.16,7.79,2.47,1.55,4.21,3.19,4.96,6.18.6,2.43.2,5-1.09,7.14-3.27,5.36-9.25,5.73-14.26,2.44-.28.85-.66,1.75-.99,2.59-.72,1.49-1.79,2.8-3.1,3.81-4.52,3.42-10.79,2.17-13.94-2.44-2.07-3.04-1.84-5.34-1.3-8.74-10.51,1.17-15.74-12.23-6.8-18.04,2.23-1.45,3.08-1.38,5.59-1.86.33-.33.17-.72.04-1.22-1.58-6.13,1.73-11.49,8-12.82Z"/>
      <path class="cls-6" d="M57.22,32.65c.38-.06.77-.09,1.15-.09,6.69-.06,6.66,6.89,6.52,11.6,2.05-2.27,3.68-4.65,6.3-6.37,4.56-3.01,10.19,2.04,8.6,6.9-1.08,3.29-5.85,5.11-8.76,6.62,3.9,1.42,9.95,2.65,9.94,8.03-.01,1.5-.62,2.94-1.69,3.99-1.04,1.04-2.47,1.62-3.94,1.58-3.4-.05-5.52-2.74-7.82-5-.48-.55-1.22-1.71-1.66-2.35.22,3.27.7,9.69-2.21,11.98-2.56,2.07-6.93,1.77-8.68-1.24-2.35-4.05,1.28-8.08,1.63-11.92-2.23.78-5.15,2.15-7.58,1.76-3.6-.58-5.93-3.06-5.49-6.85.85-7.34,11.58-3.67,13.04-4.74-3.63-4.83-6.78-10.77.65-13.9Z"/>
      <path class="cls-8" d="M61.91,44.26c1.73-.14,2.61-.16,4.21.67,1.66.85,2.91,2.33,3.45,4.12.58,1.87.35,3.89-.63,5.59-.88,1.51-2.52,2.69-4.19,3.16-5.36.05-9.44-3.35-7.69-9.32.61-2.08,2.91-3.39,4.85-4.22Z"/>
      <path class="cls-1" d="M58.54,223.4c.17-.01.34-.02.51-.03,2.35-.11,7.78.17,10.21.81,7,1.86,14.99,4.96,20.54,9.72.77.66,1.7,1.8,1.62,2.84-.08,1.11-1.59,2.22-2.41,2.93-1.73-.26-4.14-1.06-5.92-1.51-4.96-1.25-8.77-2.08-13.92-2.03-4.89.12-11.88,1.42-15.96,3.45-8.72,4.31-10.15,5.45-13.05-4.82-.34-1.19-1.74-4.95-.34-6.01,4.85-3.64,12.8-4.92,18.73-5.35Z"/>
      <path class="cls-9" d="M58.03,227.81c6.72-.71,14.85,1.53,21.15,3.99-8.28,0-10.74-.89-19.86.94-5.13,1.24-8.78,2.53-13.28,5.24-.63-2.26-1.37-4.49-2.23-6.68,5.43-2.08,8.3-3,14.23-3.48Z"/>
      <path class="cls-1" d="M57.97,124.54c3.31-.01,5.09,3.87,7.02,6.25,8.47-.17,9.58,6.33,3.42,11.1.62,3.26,1.6,7.79-2.39,9.63-2.5,1.15-5.14-.58-7.41-1.49l-.24-.1c-3.18,2.23-5.47,3.23-9.03,1.22-1.84-3.26-1.72-5.01-1.25-8.57-.21-.16-.42-.32-.63-.49-1.59-1.26-3.41-3.37-3.45-5.44-.1-4.76,4.24-5.68,7.77-5.88,1.73-3.97,1.68-5.46,6.2-6.23Z"/>
      <path class="cls-6" d="M57.36,128.57c1.89.21,3.52,4.18,4.04,5.81,1.87.09,6.11-.47,6.9,1.5-.24,1.69-3.09,3.74-4.47,4.88.81,1.71,2.14,5.03,1.11,6.78-1.9,1.25-4.08-.74-5.54-1.91-2.3-1-4.35,2.67-6.84,2.58-2.02-1.27-.44-5.34.11-7.22-1.21-1.22-5.24-3.43-4.46-5.25,1.27-.88,4.94-.88,6.74-1,.96-2.57.55-3.69,2.41-6.18Z"/>
      <path class="cls-1" d="M11.07,96.91c2.23.33,3.22,4.11,4.56,6.24.87,1.38,1.93,2.63,3.15,3.7,6.11,5.38,9.52,1.95,13.62,5.75l-.28,1.38c-1.68,8.2,6.2,15.95-8.96,11.93-6.75-1.78-13.34-5.68-17.9-11.01-1.71-2-5.45-7.5-5.24-10.12.94-1.98,8.89-6.77,11.06-7.87Z"/>
      <path class="cls-9" d="M9.51,101.94c.51.45,2.52,3.97,3.24,4.91,4.1,5.29,8.61,7.27,15.02,8.22.05,1.29.12,2.44.29,3.73.19,1.4.76,2.69-.62,3.55-1,.11-1.73-.16-2.71-.39-.65-.16-1.3-.35-1.94-.55-8.5-2.64-13.91-7.4-18.01-15.12,1.48-1.19,3.68-2.81,4.73-4.34Z"/>
      <path class="cls-1" d="M14.74,154.6c4.32-.4,5.24,3.36,7.15,6.53,1.78.07,4.1.48,5.33,1.8,3.41,3.64-1.09,7.23-3.25,9.38,1.09,2.94.57,4.97-1.2,7.49-4.87,1.76-4.26.06-8.35-1.21-2.49.23-4.64,2.19-7.44,1.18-3.69-1.33-2.48-5.67-1.69-8.42-.98-3.64-7.97-6.63-.57-11.13,1.43.21,3.24,0,4.72-.12,1-2.49,2.8-4.47,5.29-5.5Z"/>
      <path class="cls-2" d="M15.66,158.43c1.67.72,1.39,3.36,2.06,4.86,1.13,2.51,5.79.47,6.71,3.07-.39,1.29-3.52,3.1-4.71,4.39.17,1.58,1.28,4.85.66,5.85-2.04.65-4.34-2.7-6.11-2.96-1.47,1.06-3.01,2.2-4.83,2.4-2.1-.76,0-4.81.6-6.37-1.03-1.19-4.7-3.91-3.89-5.46,1.58-.82,3.47-.11,5.02-.14,2.61-.04,1.84-3.18,4.5-5.63Z"/>
      <path class="cls-1" d="M383.46,191.6c.17,0,1.03,0,1.15,0,5.86,0,4.96,4.56,6.29,5.38,2.23,1.37,3.5.22,6.79,3.64-.4,4.39-.06,4.78-3.73,7.43,1.56,6.57-1.65,12.09-8.29,7.45l-.83-.59c-.71-.1-4.17,1.44-6,1.8-2.6-.79-3.19-1.3-4.39-3.66.06-2,.41-3.57.87-5.5-2.1-2.06-4.33-5.24-2.34-8.21,1.43-2.13,4.41-2.48,6.77-2.83.93-1.6,2.2-3.95,3.7-4.91Z"/>
      <path class="cls-8" d="M385.31,195.48c1.37.35,2.12,4.32,2.53,5.65,1.62.16,5.03.19,5.86,1.59-.18,1.54-3.51,2.76-4.06,3.96-.5,1.09,2.07,5.47.09,6.22-1.59-.19-2.98-1.77-4.49-2.78l-.35.03c-1.91.13-3.49,1.7-6.16,2.38.06-2.34.42-4.18,1.5-6.25-.99-1.11-4.32-3.58-3.59-4.85,1.52-.8,3.94-.57,5.71-.52,1.19-2.13,1.24-3.43,2.97-5.43Z"/>
      <path class="cls-16" d="M302.76,2.36c4.19-.06,3.08,4.47,3.87,6.89,1.64,5.03,5.18,7.04,9.77,8.67,3,1.06-1.6,8.3-1.1,10.05.08.29-1.33,3.41-1.61,4.13-2.35.3-2.55.25-4.76-.61-8.85-3.26-15.87-10.43-16.11-20.4-.01-.47-.42-2.33-.18-2.71,1.11-1.77,3.52-2.52,5.27-3.51,1.65-.89,3.16-1.82,4.85-2.51Z"/>
      <path class="cls-5" d="M301.8,7.6c1.88,1.5.32,9.14,11.37,13.39-1.01,2.11-1.59,4.73-2.28,7.02-.89-.19-1.66-.49-2.52-.8-.73-.34-1.43-.73-2.11-1.17-6.46-4.1-8.35-9.02-9.89-15.95,1.84-.69,3.67-1.62,5.43-2.49Z"/>
      <path class="cls-1" d="M119.37.02c.95-.07,2.28.03,3.29.69,3.29,2.14,10.64,4.53,12.36,7.98.53,1.07-2.3,6.8-2.98,7.92-1.5,2.44-3.11,5.61-5.17,7.67-.31.3-1.32.58-1.77.71-2.95-.88-12.18-6.33-14.87-8.36-3.13-2.35,3.36-7.86,4.75-10,1.19-1.82,2.47-5.3,4.39-6.61Z"/>
      <path class="cls-2" d="M121.17,4.33c3.24,1.86,6.08,3.77,9.48,5.63-1.06,1.83-4.82,9.92-6.3,10.25-2.73-1.7-8.57-4.56-10.34-5.9,3.92-4.35,4.05-4.82,7.17-9.99Z"/>
      <path class="cls-1" d="M394.15,227.37c3.81.22,8.46,3.48,12.04,5.1,5.58,2.56,4.09,5.85,1.74,10.22-1.73,3.2-2.44,8.19-6.36,8.38-2.36-.61-5.82-2.98-8.19-4.06-3.09-1.41-6.2-2.49-8.48-5.07.77-3.1,4.53-9.9,6.34-12.73.79-1.24,1.52-1.62,2.91-1.83Z"/>
      <path class="cls-9" d="M394.82,231.4c2.18,1.52,7.68,3.94,10.82,5.92-1.05,1.93-3.46,8.48-4.67,9.2-3.81-1.92-7.25-3.99-11.19-5.88,1.57-2.61,3.67-6.5,5.04-9.24Z"/>
      <path class="cls-1" d="M268.9,31.03c1.83-.12,4.14-.23,5.76.82,3.52,2.22,7.29,6.27,8.36,10.37,1.21,4.63-9.03,5.78-11.94,6.32-2.11.4-3.35.49-5.48.35-1.39-1.51-2.23-3.74-3.44-5.41-1.95-2.67-3.57-4.51-5.19-7.44,3.13-3.66,7.3-4.61,11.93-5Z"/>
      <path class="cls-8" d="M269.98,35.23c.42-.06,1.56-.05,2.04-.07,1.78.95,6.51,5.22,6.52,7.13-1.08,1.21-6.01,1.83-7.77,2.1-.91.14-1.94.38-2.85.57-1.31-3.1-3.67-5.88-5.98-8.28,2.78-.66,5.21-1.14,8.05-1.47Z"/>
      <path class="cls-1" d="M29.69,197.11c3.33.16,18.71,3.45,13.79,9.51-2.83,3.48-6.27,7.23-10.87,8.02-3.3.39-10.24-2.61-13.04-4.49-2.62-1.76-1.62-4.3.11-6.38,2.8-3.39,5.45-6.08,10.02-6.66Z"/>
      <path class="cls-2" d="M29.73,201.28c3.41-.13,7.06,1.75,10.19,3.08-2.13,2.53-4.15,4.75-7.22,6.02-3.14-.07-7.52-1.6-10.16-3.28l.18-.26c1.7-2.42,4.01-5.02,7.01-5.57Z"/>
      <path class="cls-1" d="M364.81,248.15c.36-.08,2.92.16,3.31.32,3.05,1.24,4.04,5.77,5.4,8.42.66,1.04,2.01,5.6,1.16,6.54-1.55,1.7-9.29,4.57-11.36,5.37l-1.85.53-1.02-.33c-.53-.17-1.48-.41-1.73-.9-2.08-4.13-2.81-9.08-5.92-12.7.12-.48.37-1.47.58-1.87,1.48-2.76,8.43-4.46,11.41-5.39Z"/>
      <path class="cls-5" d="M366.42,252.17c1.05.54,3.58,7.26,4.24,8.81-2.84,1.16-5.47,2.61-8.44,3.77-.68-.66-3.78-8.25-4.36-9.6,2.51-1.1,5.89-2.43,8.56-2.97Z"/>
      <path class="cls-1" d="M55.66,252.61c1.77-.14,4.45-.48,5.88.66,2.61,2.07,1.18,10.66-.57,12.95-1.48,1.93-5.05,2.49-7.38,2.71-6.73.9-7.94.04-7.46-7.07.46-6.84,2.79-8.42,9.54-9.24Z"/>
      <path class="cls-5" d="M56.37,256.78l2.23-.13c-.25,2.19-.46,4.59-.92,6.73-1.51.58-3.54.93-5.12,1.18-.75.08-1.63.11-2.4.16,1.19-6.45-.77-6.46,6.22-7.93Z"/>
      <path class="cls-1" d="M8.38,233.63c2.41.04,5.43,1.37,7.56,2.61,4.89,2.86.8,7.84-.48,11.48-.95,2.7-1.37,4.63-4.47,5.13-.6-.15-1.19-.33-1.77-.53-2.56-.85-6.78-2.55-8.05-5.08-.12-1.23.99-3.99,1.76-4.92,1.79-2.18,3-7.66,5.44-8.68Z"/>
      <path class="cls-6" d="M10.32,238.37c1.7.43,2.36.98,3.66,2.06-.42,1.43-2.65,7-3.74,7.69-1.53-.59-2.72-1.25-4.17-2.01,1.34-2.83,2.4-5.17,4.25-7.73Z"/>
      <path class="cls-1" d="M68.53,201.27c2.01.52,8.85,7.02,8.89,9.55.02,1.33-3.91,4.86-4.96,6.15-.74.15-1.57.26-2.33.38l-2.87-.37c-2.21-3.31-5.06-5.29-6.89-8.85,1.47-3.34,4.5-6.19,8.15-6.87Z"/>
      <path class="cls-11" d="M67.73,205.82c1.21.4,4.08,3.44,5.13,4.48l-2.66,2.97c-1.85-1.86-3.58-3.62-5.35-5.56.68-.52,2.11-1.39,2.87-1.89Z"/>
      <path class="cls-18" d="M388.73,110.21c6.07-.33,7.88,2.38,10.84,6.9,4.58-3.4,9.48-3.52,13.49.76,1.89,2.03,2.87,4.74,2.72,7.51-.16,3.62-1.65,5.5-4.16,7.79,2.47,1.55,4.21,3.19,4.96,6.18.6,2.43.2,5-1.09,7.14-3.27,5.36-9.25,5.73-14.26,2.44-.28.85-.66,1.75-.99,2.59-.72,1.49-1.79,2.8-3.1,3.81-4.52,3.42-10.79,2.17-13.94-2.44-2.07-3.04-1.84-5.34-1.3-8.74-10.51,1.17-15.74-12.23-6.8-18.04,2.23-1.45,3.08-1.38,5.59-1.86.33-.33.17-.72.04-1.22-1.58-6.13,1.73-11.49,8-12.82Z"/>
      <path class="cls-22" d="M388.78,114.61c.38-.06.77-.09,1.15-.09,6.69-.06,6.66,6.89,6.52,11.6,2.05-2.27,3.68-4.65,6.3-6.37,4.56-3.01,10.19,2.04,8.6,6.9-1.08,3.29-5.85,5.11-8.76,6.62,3.9,1.42,9.95,2.65,9.94,8.03-.01,1.5-.62,2.94-1.69,3.99-1.04,1.04-2.47,1.62-3.94,1.58-3.4-.05-5.52-2.74-7.82-5-.48-.55-1.22-1.71-1.66-2.35.22,3.27.7,9.69-2.21,11.98-2.56,2.07-6.93,1.77-8.68-1.24-2.35-4.05,1.28-8.08,1.63-11.92-2.23.78-5.15,2.15-7.58,1.76-3.6-.58-5.93-3.06-5.49-6.85.85-7.34,11.58-3.67,13.04-4.74-3.63-4.83-6.78-10.77.65-13.9Z"/>
      <path class="cls-8" d="M393.47,126.23c1.73-.14,2.61-.16,4.21.67,1.66.85,2.91,2.33,3.45,4.12.58,1.87.35,3.89-.63,5.59-.88,1.51-2.52,2.69-4.19,3.16-5.36.05-9.44-3.35-7.69-9.32.61-2.08,2.91-3.39,4.85-4.22Z"/>
    </g>
  </g>
</svg>