<?xml version="1.0" encoding="UTF-8"?>
<svg id="Layer_2" data-name="Layer 2" xmlns="http://www.w3.org/2000/svg" viewBox="0 0 412.48 353.06">
  <defs>
    <style>
      .cls-1 {
        fill: #fff;
      }

      .cls-2 {
        fill: #d9594f;
      }

      .cls-3 {
        fill: #081928;
      }

      .cls-4 {
        fill: #d48995;
      }

      .cls-5 {
        fill: #0c0a09;
      }

      .cls-6 {
        fill: #b891b8;
      }

      .cls-7 {
        fill: #5a96cf;
      }

      .cls-8 {
        fill: #f5cb5d;
      }

      .cls-9 {
        fill: #6f89a0;
      }

      .cls-10 {
        fill: #e0dfd0;
      }
    </style>
  </defs>
  <g id="Layer_1-2" data-name="Layer 1">
    <g>
      <path class="cls-5" d="M199.38,14.48c7.69-.34,17.85-.06,25.79.56,33.47,2.6,72.24,11.12,95.45,37.39,4.01,4.54,6.18,8.41,9.11,13.53,9.22,16.17,13.21,34.41,14.05,52.87.22,4.7.49,9.13.16,13.89,1.96-3.8,2.68-4.32,5.91-7.51,3.43-3.38,12.91-11.3,17.65-11.09,2.24.1,14.22,9.12,16.1,11.24.63.68.99,1.25.89,2.21-.31,2.81-5.12,4.23-7.46,5.66-3.85,2.34-7.22,4.89-10.64,7.85,1.12-.27,2.26-.51,3.4-.71,4.85-.86,21.78-4.18,25.85-1.53,1.9,1.23,5.16,13.99,5.42,16.88,2.3.51,8.22,1.59,8.8,3.91.9,3.56.32,18.91-2.94,20.98-1.51.26-11.84-3.39-14.9-4.09,7.41,4.81,15.8,10.87,20.47,18.41-.54,3.72-2.58,8.05-4.07,11.51-1.5,3.47-3.07,7.33-6.66,8.92-2.67-1.67-3.73-2.39-5.86-4.67,3.01,8.27,1.75,9.98-5.21,14.42.32,2.16.57,4.03.76,6.21-3.1,5.02-9.5,6.9-14.3,9.62-8.78,4.97-8.98-6.77-11.07-13.22.06,3.74,2.19,16.84-.15,19.71-1.3,1.6-17.03,5.32-19.97,5.18-1.04-.05-1.97-1.37-2.61-2.22-.3-3.66-.53-7.39-.78-11.06-1.61.45-4.78.67-6.55.84.09,2.57,1.45,9.16-.1,10.97-2.91,2.39-9.76-.12-12.72-.69-11.87-2.29-11.7-3.7-12.16-15.25-9.03,9.77-30.78,22.71-43.04,27.86.28,7.95-1.78,20.04-5.47,27.06-2.58,4.92-5.17,8.04-8.71,12.15-.44,5.47-1.51,11.44-1.93,16.96-.11,1.46-.84,6.09-.67,7.16.88,5.35,4.65,6.95,4.04,13.19-.37,3.77-2.26,7.22-5.23,9.57-4.99,3.98-12.18,4.36-18.26,3.61-23.99-2.96-22.47-19.53-19.91-38.74-8.04-.07-17.91-.81-25.76-2.61-4.08-.94-9.06-3.28-12.9-3.97-1.18-.21-7.71.74-9.25.94l-18.68,2.32c-7.54.94-13.2,2.44-20.92-.67-14.29-5.76-22-34.88-4.83-41.44,5.16-1.97,10.24-.25,15.17,2.11,3.76-.23,9.35-1.01,13.09-1.54-.25-1.97-.62-3.97-.95-5.93-9.47-2.87-21.41-10.44-29.59-16.1-2.34-1.62-4.7-3.44-7.04-5.08-1.4-.98-3.59-.8-4.46-1.57-1.82-1.61-2.95-3.95-4.68-5.91l-.24-.27c.03,3.86-.15,9.35-1.62,12.85-4.03,2.13-15,4.69-19.8,5.1-1.35.12-2.48-1.14-3.38-2.05-.39-2.45-.16-7.27-.11-9.97-2.15-.18-4.3-.39-6.45-.64-.13,8.42,1.65,15.96-9.68,12.27-2.63-.86-12.08-2.18-13.41-4.13-2.06-3.01-.63-14.66-.81-18.45l-.02-.36c-.75,3.45-1.97,10.97-4.48,13.22-3.52,1.34-16.9-6.34-19.37-9.5-1.37-1.76-.13-5.3.48-7.05-8.09-5.3-9.09-4.47-6.2-14.7-.98.96-3.15,3.89-4.14,4.13-5.81,1.42-10.77-15.94-11.82-20.02,3.52-6.61,14.52-14.37,20.42-18.67-4.32,1.22-8.3,2.85-12.53,4.11-5.2,1.55-4.88-6.97-5.36-10.14-.34-2.26-.89-6-.67-8.21.45-4.68,5.09-5.59,8.86-6.07,1.24-5.09,2.89-10.41,4.54-15.35.67-2.02,3.45-3.14,5.35-3.09,8.14.24,17.42,1.9,25.35,3.45-3.33-2.4-6.31-5.18-9.92-7.21-2.08-1.31-6.36-2.63-7.86-4.39-2.26-2.66,2.56-6.24,4.28-7.47,1.59-1.13,3.21-2.13,4.61-3.15,6.61-4.85,6.82-6.36,14.09-2.09,7.37,4.27,13.59,10.26,18.14,17.46,2.59-6.4,1.86-14.16,2.54-21,2.18-21.98,9.22-46.62,24.44-63.23,25.74-28.06,66.99-33.9,103.08-35.47Z"/>
      <path class="cls-1" d="M79.43,116.36c.1-3.99.93-8.19,1.63-12.19,3.12-17.88,10.79-38.42,23.7-51.57,5.07-5.16,12.39-9.6,18.57-13.13,17.17-9.8,36.15-13.41,55.62-15.55,10.31-1.13,20.78-1.92,31.33-1.66,33.66.83,77.13,7.45,101.66,32.8,12.69,13.12,19.85,33.24,22.49,50.93.73,4.87.79,9.4,1.27,14.21-1.7-3.04-6.67-9.98-10.2-11.16-2.59-.86-13.02,4.75-15.93,6.03-1.6.71-2.43,2.31-2.87,3.97-.04.15-.08.3-.11.45,2.71,4.36,7.69,9.92,11.04,15.01-5.3-3.21-17.74-9.98-24.22-8.76-3.49.66-8.17,9.54-9.88,12.82-.07.14-.14.27-.21.41-.54,1.16-1.12,2.33-1.5,3.55.47,1.35.68,1.96.96,3.38,4.17,1.93,6.3,1.23,10.16,2.57l.41.14c.08.03.16.06.24.09-2.21,3.11-2.47,5.4-4.08,8.54-4.12,1.06-13.57,2.52-15.49,6.01-1.92,3.51-.71,14.7.14,18.54.73.84,1.6,1.95,2.8,1.88,3.35-.2,7.34-2.34,10.8-3.43-4.21,3.62-6.77,5.27-10.54,9.69-3.03,3.73-6.78,8.37-8.51,12.88,1.1,3.42,4.39,7.26,6.76,10.06-1.7.82-23.28,17.85-24.84,19.53l.17,2.65c.3.55.65,1.09,1.05,1.56.6.7,1.43,1.38,2.4,1.38,4.16.03,20.51-14.19,24.5-17.34,2.42-1.91,5.05-3.59,7.39-5.6,1.82-1.56,3.47-3.34,5.12-5.08-.7,6.19-3.74,12.29-5.64,18.49,1.82,4.45,6.07,5.99,10.19,8.26-7.27,6.52-20.12,13.88-29.09,17.92-1.75.79-4.74,1.73-5.99,3.21-2.3,2.72,1.41,23.02-10.85,35.83-13.44,14.03-44.23,13.5-62.03,9.62-4.03-.88-11.27-4.34-14.58-4.36-2.81-.02-5.85.82-8.65,1.19-6.88.89-13.77,1.74-20.66,2.55-1.89.22-4.91.43-6.58.78-12.12,2.84-19.6-8.67-19.36-19.29.3-13.3,10.55-5.86,17.35-4.77,1.49.24,7.22-1.03,9.22-1.16,3.11-.22,6.68-.55,9.77-1.07,6.05-1.45,2.11-5.84,1.49-8.8-1.51-7.22,1.22-11.17-7.78-13.3-1.8-.61-3.52-1.45-5.23-2.26-9.32-4.44-17.76-9.54-25.72-16.1,3.06-1.62,6.18-3.41,8.69-5.81,1.4-4.83-4.21-14.92-5.23-21.22,2.24,1.82,4.41,4.85,6.38,6.32,3.4,2.54,7.01,5.05,10.47,7.58,5.77,4.22,11.7,8.6,17.69,12.47,1.28.67,3.83,2.24,5.27,1.94,4-.82,3.46-5.5.74-7.58-4.5-3.44-9.14-6.56-13.76-9.82-3.49-2.46-6.7-5.91-10.44-7.92,1.91-1.93,4.08-5.42,6.27-7.88.28-5.32-4.18-10.12-7.47-14.15-3.94-4.61-6.99-6.79-11.66-10.5,3.78,1.1,7.34,2.45,11.02,3.83l2.42-.82c2.59-3.93,2.19-15.57,1.23-20.2-3.14-3.3-11.22-4.5-15.94-5.6-1.29-2.69-2.64-6.07-3.92-8.89,3.43-.69,6.88-1.33,10.33-1.93,2.12-3.47,1.01-4.87-.5-8.2-1.41-2.78-6.83-11.55-9.57-12.18-6.17-1.41-19.38,4.4-24.06,8.18l.16-.3c1.66-3,10.85-12.84,10.17-15.53-.46-1.81-2.27-3.06-3.83-3.9-2.61-1.4-12.6-6.24-15.12-5.49-2.65.79-5.4,5.03-6.99,7.22Z"/>
      <path class="cls-10" d="M250.8,235.04c-1.09.63-3,.65-4.7,1.5-.21.36-.76,1.34-1.11,1.52-3.47,1.81-7,3.56-10.56,5.18-15.69,7.16-32.98,8.09-49.19,2.06-2.72-1.01-22.89-8.21-20.94-11.73.95-.28,2.75.11,3.81.23,23.64,2.67,47.64,3.01,71.32.68,3.68-.36,7.56-1.4,11.2-2.08l.17,2.65Z"/>
      <path class="cls-8" d="M128.67,138.35c1.97-.64,2.8-.1,4.58.78,7.2,3.57,14.1,9.03,16.49,17.03,4.5,15.01-.75,23.45-10.96,33.71-1.01.17-2.24.27-3.08.79-3.94-4.61-6.99-6.79-11.66-10.5,3.78,1.1,7.34,2.45,11.02,3.83l2.42-.82c2.59-3.93,2.19-15.57,1.23-20.2-3.14-3.3-11.22-4.5-15.94-5.6-1.29-2.69-2.64-6.07-3.92-8.89,3.43-.69,6.88-1.33,10.33-1.93,2.12-3.47,1.01-4.87-.5-8.2Z"/>
      <path class="cls-8" d="M277.21,189.92c-.56-.32-1.64-.52-2.13-.91-15.62-12.38-15.69-36.54,1.63-47.53,1.63-1.03,4.95-2.93,6.62-2.52-.54,1.16-1.12,2.33-1.5,3.55.47,1.35.68,1.96.95,3.38,4.17,1.93,6.3,1.23,10.16,2.57l.41.14c.08.03.16.06.24.09-2.21,3.11-2.47,5.4-4.08,8.54-4.12,1.06-13.57,2.52-15.49,6.01-1.92,3.51-.71,14.7.14,18.54.73.84,1.6,1.95,2.8,1.88,3.35-.2,7.34-2.34,10.8-3.43-4.21,3.62-6.77,5.27-10.54,9.69Z"/>
      <path class="cls-5" d="M206.26,130.3c8.44-.6,17.03,5.06,17.31,13.96.31,9.78-6.18,15.3-15.45,15.73-8.73.07-17.72-3.58-18.42-13.51-.73-10.41,6.94-15.55,16.56-16.19Z"/>
      <path class="cls-5" d="M236.81,159.51c1.26-.98,3.05-1.11,4.32-.14s1.59,2.49.43,3.93c-13.54,16.83-47.12,17.51-64.36,7.5-2.72-1.72-4.19-3.99-2.74-5.8.98-1.22,2.75-1.44,4.12-.68,3.79,2.1,8.63,4.25,12.57,5.12,11.46,2.53,26.03,1.87,36.56-3.63,2.78-1.46,7.05-4.69,9.1-6.3Z"/>
      <path class="cls-5" d="M158.35,121.94c6.29-1.29,12.43,2.79,13.68,9.09,1.25,6.3-2.86,12.41-9.17,13.63-6.26,1.21-12.31-2.87-13.55-9.12-1.24-6.25,2.8-12.33,9.04-13.6Z"/>
      <path class="cls-5" d="M252.59,121.97c6.29-.39,11.72,4.37,12.14,10.66.42,6.29-4.33,11.74-10.61,12.18-6.32.45-11.81-4.33-12.23-10.66-.42-6.33,4.38-11.79,10.71-12.19Z"/>
      <path class="cls-5" d="M261.28,101.59c.36.03.32,0,.75.2.95.45,1.5.9,1.88,1.86.25.63.37,2.21-.06,2.61-2.84,2.66-21.18,11.77-23.88,12.38-.29-.03-.54-.07-.82-.14-.81-.2-1.45-.58-1.85-1.34-.39-.75-.53-1.8-.21-2.6,1.23-3.08,20.14-11.32,24.18-12.97Z"/>
      <path class="cls-5" d="M152.56,101.6l.33.11c3.07,1.03,8.13,3.81,11.24,5.27,3.43,1.88,7.55,3.27,10.77,5.46,3.38,2.31,3.14,4.82-.57,6.25-.33.02-.64,0-.96-.09-2.69-.72-22.53-10.83-23.43-12.59-.33-.64-.5-1.36-.26-2.06.45-1.31,1.76-1.8,2.89-2.36Z"/>
      <path class="cls-1" d="M244.58,307.43c.39.02.2-.04.54.28-.38,7.64-2.02,15.37-2.37,22.51,1.54,3.01,5.36,6.39,3.87,10.1-2.7,6.73-15.89,4.36-20.89,2.53-1.42-.62-3-1.31-4.1-2.4-5.25-5.18-1.85-19.39-1.82-26.79v-.3c9.94-1.08,15.4-1.61,24.78-5.93Z"/>
      <path class="cls-7" d="M66.4,191.32c1.19,9.7.1,22.38-1.85,32-.91,4.45-4.27,9.13-3.84,13.41.1.99,2.85,1.81,3.67,2.07-.28,1.98-.36,5.97-.45,8.11-2.67-.38-5.6-1.16-8.2-1.87-1.65-.41-3.71-.69-4.88-1.87-1.02-2.36-.6-12.35-.18-15.26,2.06-14.24,3.94-27.04,15.74-36.58Z"/>
      <path class="cls-7" d="M345.24,190.73c.4.28.6.54.95.87,14.37,13.72,16.38,32.4,16.05,51.6-2.35,1.2-3.27,1.45-5.87,1.99-2.45.08-5.4,1.11-7.8,1.82-.36-2.55-.57-5.4-.9-8.03,2.35-.52,2.83-1.29,4.53-3-.36-1.8-.87-3.14-1.54-4.85-5.11-13.05-5.37-26.71-5.43-40.4Z"/>
      <path class="cls-7" d="M317.12,174.92c4.04-.58,6.68.22,9.58,3.04-9.97,1.95-13.36,5.3-21.25,10.73-9.23,6.34-15.66,11.67-22.17,21.06l-1.1,1.45c-3.43-3.21-4.77-5.01-7.1-9.06,9-15.78,24.23-25.03,42.05-27.22Z"/>
      <path class="cls-7" d="M89.15,175.17c1.91-.19,3.33-.25,5.25-.11,13.24,1,25.63,6.92,34.73,16.59,2.88,3.09,5.77,7.3,8.63,10.64-1.5,2.25-4.1,5.14-5.94,7.13-.54.49-1.49,1.2-2.09,1.68-5.41-8.34-12.11-14.69-20.09-20.51-7.72-5.64-14.87-11.73-24.93-12.3,1.33-1.08,2.88-2.47,4.42-3.11Z"/>
      <path class="cls-7" d="M87.79,114.56c3.68.69,5.76,3.45,11.72,4.53-5.17,6.29-10.89,15.14-14.42,22.53-1.14,2.39-2.32,7.35-3.41,10.13-1.57,4.02-3.22,6.93-5.2,10.71-1.48,3.13-1.95,5.37-2.72,8.71-.95-5.86-1.95-10.6-1.79-16.56.21-12.04,3.96-23.76,10.78-33.68,1.32-1.95,3.37-4.79,5.04-6.37Z"/>
      <path class="cls-7" d="M323.94,114.64c1.13.35,2.06,1.62,2.77,2.52,10.11,12.71,14.95,30.22,12.93,46.31-.31,2.44-.55,4.91-.83,7.36-.86-3.09-1.32-4.57-2.84-7.39-.82-1.55-3.21-5.65-3.69-7.21-4.42-14.23-9.27-25.63-19.45-36.9,5.09-1.39,6.59-2.94,11.11-4.69Z"/>
      <path class="cls-8" d="M348.3,186.62c10.9.95,22.69,13.16,26.78,22.43.83,1.87,3.05,2.21,4.88,3.03,2.43,4.64,4.93,12.55,6.11,17.74-1.08.83-2.67,1.7-3.88,2.41-2.43,1.42-5.49,2.81-8.18,3.59-1.81-7.94-3.97-16.78-7.76-24.01-3.22-6.15-12.15-21.93-17.96-25.19Z"/>
      <path class="cls-8" d="M64.93,185.68c-2.03,1.56-3.14,2.57-4.96,4.36-12.42,15.35-17.34,27.23-21.74,46.03-3.9-1.12-8.76-3.74-11.94-6.24,1.51-5.51,3.08-10.89,5.35-16.16,1.42-3.32,2.95-1.01,4.15-2.67,1.28-1.76,2.54-4.55,3.78-6.51,4.57-7.3,10.89-13.32,19.08-16.27,2.08-.89,4.16-1.73,6.27-2.53Z"/>
      <path class="cls-8" d="M332.66,191.13l.14.33c-2.39,3.66-3.24,7.71-4.62,11.78-3.04,8.81-3.28,20.09-.47,29.05,1.81,5.77,2.86,7.93,3.57,14.29-2.75-.5-5.1-.97-7.81-1.64-2.08-.54-4.15-1.13-6.2-1.76-2.98-10.57-.31-34.95,6.54-43.63,2.27-2.88,6.04-5.4,8.6-8.16l.25-.27Z"/>
      <path class="cls-8" d="M95.36,243c-4.36,1.26-9.55,2.81-14.04,3.43.14-2.04.22-4.56.68-6.53.64-2.74,2.08-5.38,2.73-8.14,1.46-5.87,1.77-11.82,1.49-17.85-.18-3.92-1.23-7.68-2.39-11.4-.24-.79-1.45-4.26-1.48-4.8-.93-1.79-1.94-4.24-2.8-6.13,1.49,1.34,3.39,2.75,4.75,4.1,12.91,8.58,11.92,33.58,11.06,47.32Z"/>
      <path class="cls-2" d="M366.53,119.16c3.6,3.14,7.01,4.11,10.51,7.98-6.31,3.26-11.65,7.94-16.81,12.83-1.53,1.45-3.34,4.09-4.88,5.69-1.7,1.77-3.49,3.36-5.31,5.01-2.13,2.03-3.11,3.36-4.73,5.81-.03-4.38-1.58-10.32-.91-13.83,1.13-6.01,9.12-14,13.83-17.77,2.41-1.93,5.71-3.96,8.3-5.73Z"/>
      <path class="cls-2" d="M45.33,119.61c.7.19,3.22,1.79,3.97,2.26,7.77,4.96,14.21,11.75,18.75,19.77.02,4.38-.98,10.39-1.2,15.28-1.64-2.55-2.38-3.45-4.51-5.64-8.88-8.88-15.74-18.53-27.67-24.46,3.31-2.37,7.23-4.84,10.65-7.2Z"/>
      <path class="cls-2" d="M80.97,183.38c13.41-.77,24.84,10.34,30.68,21.43,1.26,2.39,1.92,5.34,3.24,7.88l.17.32c-1.44,1.29-4.23,3.2-5.87,4.41-1.15.79-2.29,1.58-3.43,2.38-.91-2.41-5-11.96-6.25-13.76-5.9-8.5-12.87-16.93-22.31-21.34,1.21-.49,2.52-.9,3.76-1.32Z"/>
      <path class="cls-2" d="M329.41,182.95c2.31-.26,2.75.25,4.8,1.41-11.51,7.41-18.69,15.03-24.75,27.45-1.21,2.48-2.15,5.07-3.29,7.6l-2.4-1.73c-1.68-1.24-5.14-3.2-5.87-4.84-.19-3.35,5.75-13.73,8.16-16.53,6.21-7.22,13.82-12.28,23.35-13.36Z"/>
      <path class="cls-4" d="M384.84,159.09c5.7.13,15.19,1.55,20.56,3.37-.96,3.45-.93,8.26-1.6,12.16-6.98-3.27-12.95-3.89-20.53-4.63-8.41-.8-17.07-.83-25.42.58,6.92-5.82,13.85-7.83,22.47-9.3,1.26-.22,3.06-1.57,4.53-2.18Z"/>
      <path class="cls-4" d="M25.09,159.14c.6-.13,2.42-.17,3.13-.21,3.12,3.69,3.98,2.39,8.29,3.18,6.77,1.24,11.97,4.44,17.54,8.33-2.96-.17-6.02-.68-9.05-.84-4.51-.23-8.58-.01-13.07.28-10.64.85-13.31,1.53-23.34,4.53-.24-3.57-.97-8.23-1.45-11.84,6.97-2.03,10.7-2.75,17.95-3.43Z"/>
      <path class="cls-8" d="M299.49,149.01c16.57-.76,30.62,9.45,34.94,25.55.46,1.72.81,3.49,1.17,5.23-.76-1.04-1.64-2.06-2.46-3.06-.21-.24-.42-.48-.64-.71-10.47-11.21-22.16-16.95-37.49-17.48,1.55-3.99,2.58-5.8,4.49-9.53Z"/>
      <path class="cls-8" d="M111.25,148.63c.1-.01.57.06.68.08,2.62,2.62,3.94,6.56,5.28,9.96-13.99-.52-27.64,6.56-36.94,16.69-1.09,1.2-2.19,2.38-3.29,3.57,1.37-5.31,1.84-9.1,4.87-13.89,7.09-11.21,16.77-15.53,29.4-16.41Z"/>
      <path class="cls-2" d="M339.8,188.8c.58.79.43,13.39.52,15.57.46,10.98,2.13,18.96,6.02,29.25-2.8.29-5.59.87-8.59,1.16l-3.71.1c-4.85-12.35-3.16-28.42,2.79-40.13.96-1.88,2.01-3.71,2.84-5.66l.12-.29Z"/>
      <path class="cls-2" d="M71.39,188.67c3.63,2.12,9.15,19.25,9.57,23.54.6,6.15.64,16.33-2.68,21.96-.42.71-1.23.61-1.93.67-3.25-.13-6.67-.66-9.87-1.2.68-2.69,2.14-6.47,3.03-9.34,2.12-6.87,2.29-12.32,2.51-19.41.17-5.54-1.11-10.94-.62-16.22Z"/>
      <path class="cls-8" d="M40.54,145.45c16.1,3.1,27.14,18.72,29.99,34.09-1.18-1.3-2.37-2.6-3.57-3.89-5.2-4.88-15.19-13.86-16.75-14.53-4.51-2.21-11.81-4.31-16.18-4.7,1.79-4.67,3.51-7.13,6.51-10.97Z"/>
      <path class="cls-8" d="M370.8,145.54c2.7,1.2,5.98,8.25,7.24,10.95-14.48.74-23.28,9.19-32.65,18.8-1.82,1.56-2.46,2.44-3.72,4.45,3.36-15.53,12.59-30.58,29.13-34.2Z"/>
      <path class="cls-8" d="M54.07,177.43c.7-.08,1.4-.13,2.1-.14,5.15-.1,6.11.49,9.68,3.95l-1.03.06c-12.15.67-23.05,10.38-29.56,20.01-.77,1.25-1.2,2.28-1.79,3.63-1.81-2.4-5.46-7.03-6.38-9.93-.22-.68.63-1.74,1.06-2.31,7.18-9.35,14.26-13.81,25.92-15.26Z"/>
      <path class="cls-8" d="M353.17,177.44c1.97-.3,6.62.09,8.57.54,10.68,2.47,17.76,7.78,23.73,16.64-.85,3.31-4.23,7.56-6.75,9.82-.43-.42-1.35-2.08-1.69-2.7-4.69-8.59-12.48-15.31-21.66-18.74-3.13-1.17-5.78-2.06-9.28-1.67.12-.13.24-.27.35-.4,2.42-2.68,3.22-3.28,6.73-3.48Z"/>
      <path class="cls-2" d="M369.11,174.67c4.46-.49,9.18,1.01,13.19,2.72,6.45,2.76,21.83,12.89,24.23,19.46-1.16,2.17-2.1,5.18-3.25,7.62-.59,1.11-1.25,2.69-1.78,3.88-3.38-2.9-6.37-6.89-10.5-10.46-1.81-12.3-11.12-18.68-21.89-23.23Z"/>
      <path class="cls-2" d="M39.18,174.46c1.37-.11,2.91-.15,4.3-.21-4.1,1.53-10.43,5.04-13.21,7.94-3.74,3.91-9.15,8.84-8.39,14.5.04.29-1.04,1.7-1.3,1.88-2.57,1.75-6.95,7.73-9.17,9.11l-.56-.17c-2.26-2.86-4.14-8.41-4.78-11.99,7.51-8.54,21.55-19.6,33.11-21.06Z"/>
      <path class="cls-2" d="M116.6,163.65c5.05-.83,11.76.63,16.65,1.96,1.75,3.95.96,7.71.6,12.02-6.72-1.62-9.63-2.51-16.7-3.43-5.14-.62-8.21-1.74-13.12-3.06-2.52-.68-6.06-1.14-8.66-1.46,7.73-3.56,12.57-5.43,21.24-6.03Z"/>
      <path class="cls-2" d="M288.43,162.8c1.19-.1,2.13.69,3.16.74,3.21.15,7.06.44,10.14.9,5.06.77,10.53,3.42,15.09,5.13-5.82,1.26-9.44,1.6-15.3,3.39-8.3,1.98-14.17,1.49-22.76,5.09-.32-2.53-.89-9.02.09-11.27.94-2.16,6.93-3.17,9.58-3.97Z"/>
      <path class="cls-7" d="M295.87,130.7c10.15,3.61,24,7.75,29.24,18.56.27.55.1.69-.15,1.11-1.48.28-3.43-1.24-4.77-2.08-8.94-5.29-13.64-4.69-23.64-4.85-1.11-.02-6.95-1.08-8.54-1.32,1.97-4.2,4.34-8.37,7.86-11.42Z"/>
      <path class="cls-7" d="M114.54,131.57c1.05.07,1.58-.08,2.61-.28,3.14,3.03,5.37,6.99,7.58,10.73-5.81.56-9.06,2.14-15.26,1.48-4.66-.5-12.09,1.86-16.39,3.9-2.36,1.22-4.52,2.58-6.74,4.01.5-1.14,1.53-3.27,2.14-4.28,4.44-7.31,17.96-13.59,26.05-15.56Z"/>
      <path class="cls-8" d="M388.75,143.34l3.25-.11c1.34,2.46,2.59,8.27,3.51,11.37-4.09-.47-6.82-.44-10.86-.18-.18.02-1.47.14-1.53-.04-1.29-3.79-2.95-6.69-5.57-9.69,4.19-.86,6.98-1.09,11.21-1.36Z"/>
      <path class="cls-8" d="M19.97,143.23c3.7-.19,10.42.74,14.17,1.38-2.45,3.26-3.55,5.55-4.93,9.34-.17.38-.11.23-.51.53-3.31-.47-8.75-.3-12.27-.27,1.65-2.87,2.57-7.58,3.54-10.98Z"/>
      <path class="cls-2" d="M295.2,217.81c3.16,2.49,7.94,5.27,11.43,7.72-1.32,2.99-2.15,5.86-3.01,8.99-11.84-5.28-13.88-4.42-8.42-16.7Z"/>
      <path class="cls-2" d="M116.85,218.42c1.23.75,3.41,7.9,3.95,9.5-2.43,2.29-8.36,4.73-11.66,6.24l-.48-.09c-.74-1.04-2.03-6.15-3.25-8.55,3.55-1.36,8.45-4.7,11.44-7.1Z"/>
      <path class="cls-4" d="M23.01,220.29c-1.54-1.26-2.01-1.77-3.33-3.3,1.46-3.71,3.03-7.38,4.72-10.99.78-1.22.99-1.62,1.57-2.93l1.99,2.8c.82,2.29-3.52,12.02-4.96,14.42Z"/>
      <path class="cls-6" d="M385.97,204.04c2.29,1.25,5.15,11.01,6,13.54-.85.61-1.86,1.25-2.74,1.83l-.42.2c-.52-.47-4.52-10.89-5.16-12.49l2.32-3.08Z"/>
      <path class="cls-5" d="M23.34,53.91c2.62,1.06,3.49,7.47,7.06,9.35,4.16,2.18,7.75,1.81,12.27,2.69,13.12,2.58,19.82,15.59,19.99,28.02,0,.66-.53,1.68-1.12,2.03-2.66,1.35-7.38-.28-10.28-.85-.69-.14-2.77-.44-3.4-.1-.88-1.12-1.15-1.28-2.36-1.99l-.33-.19c1.45-4.48.65-8.45-2.56-11.96-4.16-4.55-8.61-3.83-14.24-3.88-4.95-.2-9.75-1.87-13.1-5.62-2.8-3.14-3.23-4.68-3.06-8.8,1.6-2.02,8.72-8.13,11.14-8.71Z"/>
      <path class="cls-8" d="M21.66,60.92c.73.28,1.6,2.02,2.16,2.81,7.06,9.97,19.8,2.89,27.57,13.1,4.26,5.6,4.65,7.03,5.99,13.88-1.18-.27-2.46-.5-3.65-.74l-2.84-.21c.05-4.08-1.69-9.45-4.59-12.22-4.81-4.61-9.13-5.51-15.49-5.28-3.9-.02-9.11-.93-11.87-3.9-3.25-3.5.06-5.36,2.72-7.44Z"/>
      <path class="cls-5" d="M388.79,52.49c2.43-.3,5.02,1.48,7.04,2.77,2.79,1.78,5.71,2.91,7.33,5.85-1.37,4.22-6.22,10.71-9.62,13.52-8.02,6.62-12.31,8.52-22.34,7.8-.46-.03-.92-.07-1.38-.12-2.98-.35-9.01-1.53-10.89-4.1-.44-.6-.59-1.22-.41-1.95.34-1.36,2.8-4.12,3.67-5.41.88-1.33,2.26-4.49,3.49-5.34,2.19-1.52,8.8,4.12,14.12-.25,2.88-2.37,5.06-5.97,6.59-9.31.33-.72.53-1.91,1-2.5.36-.45.89-.7,1.4-.96Z"/>
      <path class="cls-7" d="M390.66,58.38c1.33.71,3.74,1.86,4.49,3.12l.38.43c.88-.27,2.16-1.42,3.05-2.05-.93,1.3-2.28,2.91-3.08,4.09-3.12,5.53-9.36,10.91-15.46,12.86-3.62,1.16-10.98.82-14.57-.4l-.04-.23c-.43-.05-.55-.11-.95-.28l-.1-.6c.76-1.05,1.86-1.83,2.89-2.67,1.21-1.61.78-1.34,2.87-1.07.97.13,2.49.48,3.45.52,7.99.35,14.44-6.74,17.07-13.73Z"/>
      <path class="cls-3" d="M364.49,75.91l-.1-.6c.76-1.05,1.86-1.83,2.89-2.67l1.09.52c-.95,1.23-2.07,2.18-2.89,3.26l-.04-.23c-.43-.05-.55-.11-.95-.28Z"/>
      <path class="cls-9" d="M364.49,75.91l-.1-.6c.76-1.05,1.86-1.83,2.89-2.67l1.09.52c-1.4.44-2.77,1.76-3.87,2.75Z"/>
      <path class="cls-9" d="M395.14,61.5l.38.43c.88-.27,2.16-1.42,3.05-2.05-.93,1.3-2.28,2.91-3.08,4.09-.48-1.2-.48-1.15-.35-2.47Z"/>
      <path class="cls-5" d="M47.11,265.54c2.36.19,7.83,6.01,10.02,7.9.18,3.87-.61,6.35-2.21,9.95-2.31,5.2-14.48,21.95-20.73,18.95-3.77-3.2-7.31-6.82-11.07-9.96-.02-.95-.27-3.04.7-3.45,4.69-1.95,8.92-4.65,12.73-8.04,2.74-2.44,5.24-6.68,6.81-9.98,1.39-2.91.83-3.81,3.75-5.36Z"/>
      <path class="cls-2" d="M48.38,272.43c1,.7,2.53,2.07,3.5,2.9-.37,2.16-.67,3.92-1.57,5.93-2.61,5.8-8.81,12.32-13.63,16.39l-1.78-1.57-4.73-4.5c7.68-3.77,15.12-11.1,18.22-19.16Z"/>
      <path class="cls-5" d="M340.89,286.44c.78.07,1.9.17,2.2,1,1.04,3.69,1.35,6.76,2.63,10.49,2.33,6.77,8.26,9.12,11.98,14.26l.2.28c-2.32,3.3-9.13,8.75-12.88,10.07-7.36-1.38-15-14.35-16.31-21.29-1.3-6.94-1.53-9.25,5.53-12.12,2.37-.96,3.91-2.07,6.64-2.69Z"/>
      <path class="cls-8" d="M338.47,292.63c.95.24,1.29,3,1.56,4.09,1.82,7.21,5.79,11.07,10.87,15.97-1.91,1.18-3.96,2.96-5.73,4.4-5.42-1.86-12.91-15.31-12.04-21.25.14-.98,4.19-2.68,5.34-3.21Z"/>
      <path class="cls-5" d="M321.25,8.33c3.86-.16,9.97,2.71,12.87,5.17,11.07,9.39,9.89,10.89,1.95,21.08-1.11.5-2.34,1.31-3.43.72-5.92-9.12-10.46-11.24-20.93-14.06-.48-.93-.94-1.62-1.5-2.49,2.07-2.89,7.88-8.74,11.05-10.42Z"/>
      <path class="cls-8" d="M323.01,13.3c4.32-.37,11.69,7.29,14.05,10.47-.79,1.51-1.57,3.51-2.92,4.39-.78-.07-.55-.08-1.25-.82-4.82-4.77-8.32-7.83-15.28-9.35,1.69-1.36,3.7-3.22,5.41-4.68Z"/>
      <path class="cls-5" d="M78.41,0c3.1-.03,7.68,4.39,9.75,6.5,3.74,3.81,1.57,11.75.23,16.15-1.12,3.68-3.92,11.17-8.51,10.73-3.49-1.63-10.02-5.61-12.67-8.29,2.87-5.65,8.39-9.3,8.76-16.63.19-3.72.15-5.53,2.44-8.46Z"/>
      <path class="cls-2" d="M81.28,6.67c.43.26,3.23,3.46,3.79,4.04,1.15,6.14-1.33,11.71-4.62,16.8-.14.22-.57-.03-.77-.1-2.53-1.12-3.29-1.65-5.34-3.51,3.39-3.23,6.55-12.46,6.93-17.23Z"/>
      <path class="cls-5" d="M97.24,287.38c3.36-.2,3.02,1.32,3.11,4.27.24,7.62,2.43,15.49,7.36,21.44,2.23,2.7,5.09,4.62,7.57,7.06.3.29.35.75.36,1.15-.06,1.09-.53,1.65-1.27,2.32-12.04-.44-23.46-30.36-17.14-36.24Z"/>
      <path class="cls-5" d="M87.83,302.37c.15.05,1.19.48,1.19.48.69.92,1.38,4.32,1.66,5.52,1.54,6.65,4.02,10.93,8.96,15.55,1.38,1.29,3.71,2.87,4.86,4.2.44,1.73-.38,2.67-1.91,3.42-8.23-1.98-18.81-18.46-16.8-27.2.22-.96,1.23-1.58,2.04-1.96Z"/>
    </g>
  </g>
</svg>