<?xml version="1.0" encoding="UTF-8"?>
<svg id="Layer_2" data-name="Layer 2" xmlns="http://www.w3.org/2000/svg" viewBox="0 0 304.3 362.89">
  <defs>
    <style>
      .cls-1 {
        fill: #0f1011;
      }

      .cls-2 {
        fill: #a9a8a8;
      }

      .cls-3 {
        fill: #fff;
      }

      .cls-4 {
        fill: #93908d;
      }

      .cls-5 {
        fill: none;
        stroke: #0f1011;
        stroke-linecap: round;
        stroke-miterlimit: 10;
        stroke-width: 9px;
      }

      .cls-6 {
        fill: #fed871;
      }

      .cls-7 {
        fill: #dae9ec;
      }

      .cls-8 {
        fill: #fffffe;
      }

      .cls-9 {
        fill: #756357;
      }
    </style>
  </defs>
  <g id="Layer_1-2" data-name="Layer 1">
    <g>
      <g>
        <g>
          <path class="cls-3" d="M115.92,359.33c-3.41,0-9.79-.55-14.11-4.24-.09-.08-.18-.16-.26-.25-4.21-4.42-1.45-9.73.2-12.9.61-1.17,1.36-2.62,1.42-3.34.2-2.32.04-4.6-.14-7.02-.08-1.15-.16-2.29-.2-3.44-.04-1.06.4-2.07,1.2-2.77.64-.56,1.46-.86,2.3-.86.2,0,.4.02.6.05,1.79.31,3.58.72,5.31,1.12,1.8.41,3.49.8,5.18,1.09,3.21.54,6.61.83,9.89,1.1l1.82.15c1.74.15,3.1,1.55,3.2,3.29.13,2.33.07,4.7.02,6.99-.06,2.39-.11,4.66.03,6.84.16,2.41.63,9.73-7.1,12.81-.09.03-.17.07-.26.09-2.66.82-5.89,1.27-9.09,1.27Z"/>
          <path d="M106.33,328.02c3.48.61,7.01,1.62,10.51,2.21,3.95.67,8,.94,12,1.29.25,4.52-.24,9.31.05,13.87.29,4.43-.66,7.64-4.9,9.33-2.23.69-5.11,1.12-8.06,1.12-4.4,0-8.96-.95-11.83-3.4-3.84-4.03,2.23-9.51,2.57-13.52.32-3.75-.2-7.32-.33-10.89M106.33,321.02c-1.68,0-3.32.6-4.6,1.73-1.59,1.39-2.47,3.42-2.39,5.54.05,1.22.13,2.41.21,3.55.16,2.21.3,4.3.15,6.29-.15.47-.69,1.5-1.06,2.2-.92,1.76-2.06,3.96-2.56,6.44-.79,3.94.25,7.66,2.93,10.49.17.17.34.34.52.5,4.91,4.2,11.62,5.08,16.38,5.08,3.54,0,7.14-.51,10.12-1.43.18-.05.35-.12.52-.18,6.7-2.66,9.83-8.14,9.3-16.28-.13-2.03-.08-4.22-.02-6.54.06-2.36.11-4.8-.02-7.27-.19-3.48-2.92-6.29-6.39-6.59-.62-.05-1.23-.1-1.85-.15-3.35-.28-6.52-.54-9.57-1.06-1.59-.27-3.24-.65-4.98-1.05-1.77-.41-3.61-.83-5.49-1.16-.4-.07-.8-.1-1.2-.1h0Z"/>
        </g>
        <g>
          <path class="cls-3" d="M161.91,359.39c-2.73,0-5.61-.33-8.35-.95-.04,0-.07-.02-.11-.03-2.35-.61-4.23-1.69-5.92-3.4-2.7-2.65-2.72-5.83-2.73-8.39-.03-4.02-.02-8.06-.02-12.09v-3.18c0-1.82,1.4-3.34,3.21-3.49,7.63-.63,13.85-1.39,21.25-3.21.1-.03.21-.05.31-.06l.45-.07c.17-.03.35-.04.52-.04,1.17,0,2.28.59,2.94,1.59.84,1.29.81,2.68.57,7.27-.09,1.71-.24,4.54-.12,5.35.37,1.28,1.09,2.39,1.93,3.68.58.88,1.17,1.8,1.72,2.86.87,1.7,1.04,3.68.48,5.57-.79,2.66-2.21,4.56-4.33,5.81-3.15,1.84-7.11,2.77-11.79,2.77Z"/>
          <path d="M170.52,327.99c.53.82-.54,9.66,0,11.59.8,2.87,2.65,4.77,3.92,7.26.47.91.53,1.99.24,2.98-.46,1.55-1.2,2.88-2.74,3.78-2.86,1.67-6.46,2.29-10.03,2.29-2.66,0-5.3-.35-7.58-.87-1.71-.45-3.04-1.18-4.31-2.47-1.69-1.66-1.71-3.68-1.72-5.95-.03-5.08-.02-10.17-.02-15.25,7.76-.65,14.1-1.41,21.79-3.3l.45-.07M170.52,320.99c-.35,0-.69.03-1.04.08l-.45.07c-.21.03-.42.07-.63.12-7.2,1.77-13.04,2.48-20.7,3.12-3.63.3-6.42,3.33-6.42,6.98v3.17c0,3.97,0,8.08.02,12.12.02,2.68.04,7.16,3.78,10.86,2.11,2.12,4.56,3.53,7.49,4.29.07.02.14.04.21.05,2.99.68,6.15,1.04,9.13,1.04,5.31,0,9.87-1.09,13.56-3.25,2.89-1.69,4.88-4.32,5.92-7.83.82-2.76.56-5.66-.72-8.16-.63-1.23-1.3-2.26-1.9-3.18-.62-.96-1.13-1.74-1.4-2.45-.03-.96.08-3.13.15-4.48.25-4.84.37-7.05-1.12-9.36-1.3-2.01-3.52-3.19-5.87-3.19h0Z"/>
        </g>
        <g>
          <path class="cls-3" d="M137.16,329.82c-11.03,0-31.35-1.54-43.59-11.85-.07-.06-.14-.13-.21-.19-10.17-10.09-10.18-21.82-10.19-33.15,0-2.32,0-4.71-.1-7.06-2.74,3.97-.58,26.09,2.19,29.7,1.33,1.32,1.39,3.46.11,4.85-4.12,4.5-9.21,6.98-14.34,6.98-4.23,0-8.17-1.69-11.11-4.76-3.5-3.66-5.28-8.97-5.02-14.95,1.13-17.35,12.9-33.41,21.65-43.99.68-.82,1.67-1.27,2.7-1.27.34,0,.68.05,1.01.15,1.89.57,3.59.87,4.92.87,1.19,0,1.74-.25,1.87-.38.04-.04.1-.16.14-.36-2.25-1.34-9.74-2.61-14.35-3.39-5.68-.96-11.05-1.88-14.23-3.36-14.13-4.34-31.52-11.78-41.36-30.66-.02-.04-.04-.07-.05-.1C.31,181.6-1.04,133.94,13.94,100.98c10.11-22.26,26.99-37.25,48.82-43.35,20.56-7.31,43.55-10.71,72.33-10.71,1.81,0,3.61.01,5.41.04,1.89-.03,3.82-.05,5.76-.05,72.07,0,113.21,23.03,122.29,68.46,5.55,22.56,6.79,47.35,3.39,68.04-4.37,26.61-16.19,46.12-34.19,56.42-.13.08-.27.14-.42.2-8.37,3.41-19.21,6.63-28.77,9.47-5.35,1.59-11.46,3.4-15.99,4.98,2.42-.13,5.28-.42,8.3-.86l.18-.03c.16-.02.33-.03.49-.03,1.17,0,2.27.58,2.92,1.57,2.62,3.97,4.68,8.33,6.68,12.54,2.03,4.29,3.95,8.34,6.39,11.99.79,1.17.79,2.71,0,3.88-.66.99-1.76,1.56-2.92,1.56-.22,0-.44-.02-.67-.06-3.42-.66-12.87-1.86-18.09-1.96-.06.97-.1,2.42-.09,4.6,0,.52,0,.93,0,1.15-.15,12.53-5.29,28.23-19.26,34.5-.05.02-.1.04-.16.07-10.29,4.03-24.94,6.43-39.2,6.43Z"/>
          <path d="M146.26,50.42c47.25,0,107.71,9.63,118.87,65.72,9.59,38.88,9.07,98.81-29.12,120.66-19.5,7.95-52.73,14.85-52.86,18.96-.06,1.78,3.14,2.3,6.89,2.3,4.9,0,10.73-.88,11.5-.99,5.04,7.64,7.99,16.93,13.09,24.55-3.71-.72-14-2.03-19.39-2.03-.77,0-1.44.03-1.97.09-1.21.14-.95,7.81-.99,9.06-.15,12.71-5.36,26.1-17.2,31.41-9.52,3.73-23.71,6.19-37.92,6.19-15.96,0-31.94-3.11-41.34-11.02-11.62-11.54-8.47-25.62-9.35-39.68-1.42-1.18-2.62-1.7-3.63-1.7-7.89,0-3.95,32.13-.05,35.83-3.68,4.02-7.89,5.84-11.76,5.84-7.1,0-13.07-6.13-12.63-16.06,1.01-15.45,11.43-30.52,20.85-41.91,1.67.5,3.89,1.02,5.93,1.02,3.09,0,5.78-1.18,5.55-5.4-1.43-4.87-24.25-5.58-30.84-8.86-16.4-5.01-31.1-12.82-39.53-29.01C-4.08,164.35,2.01,78.15,63.81,60.97c22.96-8.18,47.15-10.55,71.28-10.55,1.8,0,3.61.01,5.41.04,1.89-.03,3.82-.05,5.76-.05M146.26,43.42h0c-1.88,0-3.82.02-5.77.05-1.82-.02-3.64-.04-5.4-.04-29.14,0-52.47,3.45-73.4,10.87-22.8,6.41-40.41,22.05-50.94,45.24C2.9,116.81-.77,137.65.13,159.83c.84,20.79,5.79,41.59,13.92,58.57.03.07.07.14.1.21,10.49,20.14,29.57,28.11,43.22,32.32,3.6,1.61,8.85,2.5,14.89,3.53.15.03.31.05.47.08-8.91,10.95-20.17,27-21.31,44.54,0,.05,0,.1,0,.15-.31,6.95,1.82,13.17,5.99,17.53,3.6,3.77,8.45,5.84,13.64,5.84,5.67,0,11.24-2.47,15.84-7,1.14,1.59,2.47,3.15,4.01,4.68.14.13.28.26.42.39,13.09,11.02,34.34,12.67,45.85,12.67,14.67,0,29.8-2.5,40.47-6.68.11-.04.21-.09.31-.13,12.93-5.8,21.1-20.24,21.33-37.67,0-.26,0-.67,0-1.18,0-.32,0-.62,0-.91,5.01.37,11.38,1.21,14.02,1.72.44.09.89.13,1.33.13,2.32,0,4.52-1.15,5.83-3.13,1.56-2.35,1.56-5.42-.02-7.77-2.3-3.43-4.16-7.37-6.14-11.54-2.01-4.24-4.08-8.61-6.76-12.72.68-.2,1.35-.4,2-.6,9.64-2.86,20.56-6.1,29.1-9.58.29-.12.57-.25.84-.41,18.95-10.84,31.36-31.2,35.9-58.89,3.47-21.12,2.21-46.39-3.43-69.37-5.5-27.39-22.32-47.18-50.02-58.82-19.82-8.33-44.57-12.37-75.68-12.37h0Z"/>
        </g>
      </g>
      <circle class="cls-6" cx="237.28" cy="182.93" r="26.17"/>
      <path class="cls-5" d="M64.77,212.4s10.22,1.73,38.35,2.41"/>
      <circle class="cls-6" cx="42.99" cy="182.93" r="26.17"/>
      <path class="cls-1" d="M38.2,152.42c-.08-3.73.42-7.36,3.22-10.12,11.39-11.25,26.82,5.48,16.23,16.42-2.28,2.36-4.55,2.83-7.68,3.24-5.29.06-10.65-4.36-11.77-9.53Z"/>
      <path class="cls-7" d="M104.89,253.36c22.01.61,44.51,3.2,66.39.39,2.63-.34,3.82,3.18,1.55,4.54-6.24,3.71-15.17,8.01-32.29,8.85-17.12.83-32.8-6.7-36.99-9.23-2.16-1.3-1.17-4.62,1.35-4.55Z"/>
      <g>
        <g>
          <path class="cls-2" d="M150.78,236.08c-21.45,0-41.75-8.25-57.16-23.23-15.43-15-24.25-35.12-24.82-56.65-.58-21.92,7.42-42.75,22.51-58.66,15.1-15.9,35.49-24.97,57.41-25.53.71-.02,1.42-.03,2.13-.03,21.46,0,41.76,8.25,57.16,23.23,15.43,15,24.24,35.12,24.81,56.64,1.2,45.18-34.58,82.94-79.76,84.19-.77.02-1.53.03-2.29.03Z"/>
          <path d="M150.85,75.49c42.42,0,77.35,33.81,78.48,76.46,1.15,43.33-33.03,79.4-76.36,80.59-.73.02-1.47.03-2.2.03-42.41,0-77.34-33.8-78.47-76.46-1.15-43.39,33.12-79.49,76.51-80.6.68-.02,1.36-.03,2.04-.03M150.86,68.49v7-7c-.74,0-1.48,0-2.22.03-22.86.58-44.12,10.04-59.86,26.62-15.74,16.58-24.08,38.3-23.47,61.16.59,22.44,9.78,43.42,25.88,59.06,16.06,15.62,37.23,24.22,59.6,24.22.79,0,1.59-.01,2.39-.03,47.1-1.3,84.41-40.67,83.16-87.78-.59-22.44-9.78-43.41-25.87-59.06-16.06-15.62-37.23-24.22-59.6-24.22h0Z"/>
        </g>
        <g>
          <path class="cls-9" d="M235.76,302.9c-5.88,0-9.27-3.55-12.05-7.39-3.07-4.23-6.02-8.94-9.28-14.81-.47-.85-.91-1.71-1.35-2.57-.53-1.04-1.04-2.03-1.59-2.98-1.48-2.16-2.87-4.46-4.22-6.69-1.3-2.15-2.53-4.18-3.82-6.08-1.07-1.57-2.09-2.92-3.09-4.21-2.05-2.68-3.99-5.22-5.65-8.94-1.56-3.53-.37-7.63,2.84-9.76l1.18-.78c.82-.54,1.62-1.06,2.36-1.58l.11-.07c1.62-1.13,4.63-3.24,6-5.11,2.28-3.12,5.26-4.91,8.17-4.91,1.29,0,2.52.34,3.65,1,2.88,1.68,4.74,5.54,6.88,10.41.5,1.15.98,2.23,1.3,2.79,9.22,16.13,16.23,26.49,21.35,34.06,1.86,2.75,3.46,5.12,4.87,7.32l.21.34.13.38c1.64,4.58.76,9.07-2.41,12.33-2.7,2.77-8.22,5.57-11.28,6.67l-.2.07-.21.05c-1.4.32-2.67.47-3.9.47Z"/>
          <path d="M215.36,230.53c.63,0,1.27.16,1.89.52,2.95,1.72,5.45,9.37,6.9,11.91,12.58,22,21.01,33.26,26.31,41.53,1.21,3.37.59,6.43-1.62,8.71-2.08,2.14-6.97,4.74-9.96,5.81-1.15.26-2.18.38-3.13.38-4.02,0-6.52-2.22-9.22-5.94-3.37-4.64-6.27-9.44-9.06-14.45-1.05-1.89-1.95-3.86-3.05-5.72-2.82-4.11-5.34-8.8-8.1-12.86-3.32-4.89-6.19-7.56-8.43-12.61-.87-1.95-.2-4.25,1.58-5.43,1.22-.81,2.48-1.62,3.6-2.39,1.89-1.32,5.2-3.61,6.94-6,1.35-1.85,3.33-3.48,5.34-3.48M215.36,223.53h0c-4.04,0-8.05,2.31-11,6.35-1.02,1.4-3.83,3.36-5.18,4.3l-.12.08c-.66.46-1.44.97-2.27,1.51-.4.26-.79.52-1.19.78-4.64,3.08-6.37,9-4.11,14.1,1.82,4.1,3.98,6.92,6.07,9.65.96,1.26,1.96,2.57,2.97,4.05,1.24,1.82,2.44,3.82,3.72,5.93,1.35,2.23,2.75,4.54,4.25,6.75.48.83.95,1.75,1.44,2.71.44.86.9,1.75,1.4,2.67,3.33,6,6.36,10.82,9.51,15.17,1.92,2.64,6.42,8.83,14.89,8.83,1.49,0,3.02-.18,4.67-.55l.42-.1.41-.15c3.14-1.13,9.35-4.17,12.61-7.52,4.14-4.25,5.3-10.07,3.2-15.95l-.27-.75-.43-.67c-1.43-2.24-3.05-4.63-4.92-7.4-5.09-7.52-12.05-17.82-21.21-33.83-.23-.39-.73-1.54-1.13-2.46-2.4-5.47-4.54-9.82-8.33-12.03-1.66-.96-3.53-1.47-5.42-1.47h0Z"/>
        </g>
        <g>
          <path class="cls-4" d="M193.27,237c-1.15-1.81-2.89-4.55-3.79-6.55l-1.16-2.57,2.26-1.68c1.51-1.12,8.06-5.61,8.34-5.8l2.92-2,7.63,11.45-1.15,1.9c-.29.48-3.06,4.78-10.59,7.31l-2.6.87-1.86-2.94Z"/>
          <path d="M200.89,223.3l4.43,6.65s-2.18,3.61-8.71,5.8c-1.02-1.62-3.05-4.73-3.95-6.74,1.47-1.09,8.23-5.72,8.23-5.72M202.79,213.52l-5.85,4c-.7.48-6.92,4.73-8.45,5.88l-4.52,3.36,2.31,5.13c1,2.23,2.83,5.1,4.03,7l.38.6,2.93,4.65,5.21-1.75c8.53-2.86,11.89-7.85,12.47-8.82l2.3-3.8-2.46-3.7-4.43-6.65-3.93-5.9h0Z"/>
        </g>
      </g>
      <path class="cls-1" d="M280.33.14c3.19-.51,7.85.44,10.85,1.6,5.38,2.08,9.29,5.07,11.75,10.39,1.92,4.16,1.67,8.75.15,13.02-1.78,4.99-7.55,9.05-12.18,11.17-2.07.95-4.83,1.78-6.61,3.26-2.86,2.4-3.64,6.82-7.2,8.4-2.45,1.09-5.91-.72-6.7-3.23-.82-2.61.31-5.09,1.49-7.39,2.28-3.54,5.03-6.18,8.83-8.1,3.59-1.79,8.33-2.88,10.85-6.27,4.67-6.3-3.27-13.45-9.68-12.36-4.34.74-5.76,3.41-7.88,6.7-1.63,2.53-5.46,2.01-7.6.34-3.88-3.03-.82-8.16,1.47-11.17,3.18-4.18,7.39-5.78,12.46-6.36Z"/>
      <path class="cls-1" d="M268.7,51.93c3.47-.97,7.08,1.03,8.11,4.49,1.02,3.46-.92,7.1-4.36,8.18-2.28.71-4.76.14-6.5-1.49-1.74-1.63-2.46-4.08-1.89-6.39.57-2.32,2.34-4.15,4.64-4.79Z"/>
      <g>
        <path class="cls-3" d="M234.21,278.95c-4.73-.02-8.52-2.44-11.31-4.55-7.54-5.7-11.87-17.15-9.65-25.51,1.64-6.18,6.43-10.08,13.48-11h.1s.1-.02.1-.02c.15-.01.32-.02.49-.02,1.15,0,2.77.27,3.86.63,12.06,4.09,19.06,16.31,17.04,29.72-.78,5.17-5.38,10.74-13.65,10.75h0c-.16,0-.31,0-.48,0Z"/>
        <path d="M227.43,241.35c.81,0,2.05.22,2.75.45,10.88,3.69,16.37,14.82,14.7,25.88-.46,3.07-3.25,7.77-10.19,7.77-.14,0-.28,0-.43,0h-.04c-3.52,0-6.5-1.79-9.22-3.84-9.8-7.42-14.47-28.08,2.17-30.24.08,0,.16,0,.25,0M227.43,234.35c-.26,0-.5,0-.73.02h-.21s-.21.04-.21.04c-8.43,1.1-14.41,6.04-16.41,13.57-2.59,9.78,2.2,22.6,10.92,29.2,3.23,2.44,7.66,5.24,13.39,5.26.17,0,.34,0,.51,0,10.33,0,16.11-7.11,17.11-13.72,1.05-6.99-.16-14.12-3.42-20.1-3.47-6.36-9.13-11.14-15.95-13.45-1.47-.49-3.47-.82-5-.82h0Z"/>
      </g>
      <path class="cls-1" d="M145.79,85.67c37.89-2.77,70.84,25.74,73.55,63.64,2.71,37.9-25.85,70.8-63.75,73.45-37.82,2.64-70.63-25.84-73.33-63.65-2.7-37.81,25.73-70.67,63.53-73.43Z"/>
      <path class="cls-7" d="M147.52,92.27c34.17-1.76,63.3,24.5,65.08,58.67,1.78,34.17-24.47,63.32-58.64,65.11-34.19,1.8-63.36-24.47-65.15-58.66-1.78-34.19,24.5-63.35,58.7-65.12Z"/>
      <path class="cls-1" d="M145.06,120.15c19.12-2.18,36.38,11.58,38.5,30.71,2.12,19.13-11.69,36.34-30.83,38.41-19.05,2.06-36.18-11.69-38.29-30.73-2.11-19.05,11.58-36.21,30.62-38.38Z"/>
      <path class="cls-8" d="M159.39,130.93c4.73-1.12,9.48,1.78,10.64,6.51,1.15,4.72-1.72,9.49-6.44,10.68-4.76,1.2-9.58-1.71-10.75-6.48-1.16-4.77,1.77-9.57,6.55-10.71Z"/>
      <path class="cls-8" d="M172.82,104.15c1.91-.24,5.41.99,6.98,2.05,3.75,2.52,9.26,7.29,10.33,11.87,3.1,13.22-20.88-9.51-19.01-13.31.24-.49,1.14-.52,1.7-.61Z"/>
    </g>
  </g>
</svg>