<?xml version="1.0" encoding="UTF-8"?>
<svg id="Layer_2" data-name="Layer 2" xmlns="http://www.w3.org/2000/svg" viewBox="0 0 512.82 460.14">
  <defs>
    <style>
      .cls-1 {
        fill: #f9fbff;
      }

      .cls-1, .cls-2, .cls-3, .cls-4, .cls-5, .cls-6 {
        stroke-linejoin: round;
      }

      .cls-1, .cls-2, .cls-3, .cls-7, .cls-5, .cls-6 {
        stroke: #000;
      }

      .cls-1, .cls-5 {
        stroke-width: 6px;
      }

      .cls-2, .cls-3, .cls-4, .cls-5, .cls-6 {
        stroke-linecap: round;
      }

      .cls-2, .cls-3, .cls-7, .cls-6 {
        stroke-width: 7px;
      }

      .cls-2, .cls-8, .cls-4 {
        fill: #ffc6d5;
      }

      .cls-9 {
        fill: #fec6d4;
      }

      .cls-3, .cls-10 {
        fill: #fff;
      }

      .cls-11 {
        fill: #e0423f;
      }

      .cls-4 {
        stroke: #fc8da9;
        stroke-width: 4px;
      }

      .cls-7 {
        fill: #fc8da9;
        stroke-miterlimit: 10;
      }

      .cls-5, .cls-6 {
        fill: none;
      }

      .cls-12 {
        fill: #ca3e3b;
      }

      .cls-13 {
        fill: #9fe0ab;
      }

      .cls-14 {
        fill: #ffdce1;
      }
    </style>
  </defs>
  <g id="Layer_1-2" data-name="Layer 1">
    <g>
      <g>
        <path class="cls-3" d="M298.76,340.69c-8.28.19-15.2-2.2-22.33-6.14-1.66-15.05-10.68-37.27-15.41-49.56l16.39-5.21c5.73,7.03,9.04,11.6,16.7,15.26.31-.11.6-.23.83-.35,7.95-17.11,10.19-29.31,36.63-31.04,13.9-.77,32.37,3.06,35.26,15.4,2.62,14.04-14.59,21.77-29.75,21.85-5.54,21.68-18.33,39.73-38.31,39.79Z"/>
        <path class="cls-3" d="M317.58,297.82s9.99,4.89,28.49,2.16"/>
        <line class="cls-3" x1="296.91" y1="290.32" x2="291.27" y2="302.98"/>
      </g>
      <path class="cls-3" d="M247,391.08l-6.38,32.91s14.46,7.77,9.35,19.58-22.68,10.31-22.68,10.31c0,0-19.48,1.99-21.26-18.94-1.78-20.93-2.78-39.12-2.78-39.12l43.76-4.76Z"/>
      <path class="cls-3" d="M211.49,396l-3.63,32.02s13.41,9.47,6.9,20.57c-6.51,11.1-23.77,7.48-23.77,7.48,0,0-19.58-.39-18.8-21.38.77-20.99-7.24-55.89-7.24-55.89l46.54,17.19Z"/>
      <path class="cls-7" d="M277.3,356c4.52-47.11-11.56-71.67-11.56-71.67l-92.76-9.83s-28.58,20.88-37.42,67.38c-13.89,73.1,135.59,78.21,141.74,14.13Z"/>
      <path class="cls-3" d="M102.72,362.61c-25.66,1.1-35.61-29.26-13.22-38.27,20.13-8.83,37.08-20.12,52.21-37.04,6.67-.18,19.43,3.26,27.45,4.01,4.97,31.85-35.17,69.23-66.44,71.31Z"/>
      <g>
        <path class="cls-10" d="M216.22,292.82c85.35-7.6,151.26-50.54,143.65-135.91-7.61-85.38-82.96-148.43-168.3-140.82h-.07C106.15,23.7,43.13,99.07,50.74,184.45c7.61,85.38,80.07,115.98,165.41,108.38h.07Z"/>
        <circle class="cls-2" cx="333.8" cy="68.57" r="58.2"/>
        <g>
          <circle class="cls-14" cx="172.95" cy="250.31" r="20.82"/>
          <path class="cls-9" d="M165.75,258.36c-.31.03-.63,0-.95-.06-1.67-.37-2.73-2.03-2.35-3.71l2.12-9.5c.37-1.67,2.03-2.73,3.71-2.35,1.67.37,2.73,2.03,2.35,3.71l-2.12,9.5c-.3,1.35-1.44,2.3-2.75,2.42Z"/>
          <path class="cls-9" d="M177.6,259.22c-.31.03-.63,0-.95-.06-1.67-.37-2.73-2.03-2.35-3.71l2.12-9.5c.37-1.67,2.03-2.73,3.71-2.35,1.67.37,2.73,2.03,2.35,3.71l-2.12,9.5c-.3,1.35-1.44,2.3-2.75,2.42Z"/>
        </g>
        <path class="cls-14" d="M342.67,231.99c-1.88,2.81-3.89,5.5-6.02,8.09-2.93-3.24-4.86-7.41-5.28-12.1-1.02-11.45,7.43-21.56,18.89-22.58,1.73-.15,3.41-.09,5.05.17-1.49,4.77-3.29,9.35-5.39,13.72l-7.25,12.7Z"/>
        <ellipse cx="212.83" cy="212.02" rx="14.75" ry="16.56" transform="translate(-17.97 19.72) rotate(-5.09)"/>
        <g id="_Mirror_Repeat_" data-name="&amp;lt;Mirror Repeat&amp;gt;">
          <path class="cls-4" d="M249.17,141.17c3.67,10.49,12.37,30.98,38.55,33.86,31.33,3.44,47.6-21.76,47.6-21.76,7.49,20.56,24.89,20.71,24.89,20.71,0,0,1.13,3.49-.7-17.04-7.48-83.97-79.75-146.9-168.11-140.78h-.07C103.26,25.76,43.26,100.48,50.74,184.45c3.66,41.04,24.14,101.44,127.16,108.5-60.01-10.9-62.95-74.96-64.31-91.05,0,0,45.38,9.54,52.85-33.59,0,0,20.47,21.92,50.69,13,25.26-7.46,32.03-40.15,32.03-40.15Z"/>
        </g>
        <path class="cls-6" d="M359.87,156.91c1.61,18.1-.08,34.31-4.57,48.66-1.49,4.77-3.29,9.35-5.39,13.72-2.12,4.44-4.54,8.68-7.25,12.7-1.88,2.81-3.89,5.5-6.02,8.09-25.61,31.13-69.57,48.21-120.43,52.74h-.07c-85.35,7.61-157.81-23-165.42-108.37C43.13,99.08,106.15,23.69,191.5,16.09h.07c85.35-7.61,160.7,55.44,168.31,140.82Z"/>
        <path class="cls-1" d="M308.11,21.6c-6.52-1.42-12.93.37-17.37,4.24.63-2.06.88-4.25.68-6.51-.88-9.92-10.17-17.2-20.74-16.26-10.57.94-18.42,9.75-17.54,19.67.39,4.37,2.41,8.23,5.46,11.1-.15.2-2.92-1.19-4.3-1.64-10.28-3.38-21.26,2.37-24.5,12.2-3.23,9.84,2.48,20.55,12.77,23.93,1.73.57,3.47.89,5.2.99-1.8,3.03-2.69,6.56-2.37,10.24.88,9.92,10.29,17.19,21.02,16.24,10.04-.89,17.68-8.69,17.88-17.83,2.69,4.46,7.31,7.92,13.04,9.17,10.52,2.29,20.76-3.75,22.88-13.49,1.5-6.9-1.49-13.81-7.11-18.05,5.1-2.27,9-6.64,10.22-12.24,2.11-9.73-4.7-19.48-15.22-21.76Z"/>
        <ellipse class="cls-13" cx="277.98" cy="50.8" rx="15.49" ry="12.34" transform="translate(-3.41 24.87) rotate(-5.09)"/>
        <path class="cls-5" d="M255.29,226.55s4.73-5.15,9.89-4.45c5.16.7,9.42,4.96,7.92,11.68-1.08,4.83-4.04,5.84-6.64,6.31,0,0,10.01,3.33,6.75,12.01-3.26,8.68-13.32,6.17-15.76,4.12"/>
        <path class="cls-6" d="M285.16,205.67s5.12-12.82,16.38-12.47c11.26.35,12.32,7.34,12.32,7.34"/>
        <path class="cls-6" d="M191.36,196.21s5.58,8.74,13.34,8.05"/>
        <path class="cls-6" d="M187.91,209.97s7.06,5.78,17.68,4.23"/>
        <path class="cls-6" d="M315.4,186.25s-3.58,6.45-10.66,7.01"/>
        <g>
          <circle class="cls-8" cx="57.64" cy="83.48" r="54.13"/>
          <path class="cls-6" d="M96,121.67c-7.58,7.62-17.49,13.07-28.87,15.1-29.43,5.24-57.54-14.37-62.78-43.8C-.89,63.54,18.72,35.43,48.15,30.19c24.18-4.3,47.46,8.16,57.91,29.07"/>
        </g>
      </g>
      <path class="cls-11" d="M401.46,204.32c1.26-.07,2.81-.08,4.07.06,4.29.48,8.2,2.66,10.88,6.03,3.58,4.56,3.45,8.51,2.79,13.92,16.93-10.08,39.09,18.23,8.86,30.19-12.64,3.88-24.36,3.4-37.37,1.63-1.37-6.1-1.83-13.1-3.05-19.45-2.43-12.67-.92-28.57,13.81-32.4Z"/>
      <path class="cls-11" d="M457.01,206.14c-1.94-4.13-3.35-8.51-5.1-12.75-4.19-10.17-7.2-22.21-.02-31.84,4.4-5.9,13.95-6.98,19.56-2.2,4.17,3.55,5.49,7.63,5.98,12.91,10.43-8.27,27.34,1.67,23.33,13.76-.72,2.87-1.92,5.33-4.06,7.44-5.08,9.16-29.85,12.47-39.7,12.67Z"/>
      <path class="cls-12" d="M496.71,193.48c-.07-1.7,2.55-5.76,3.49-7.46l.56.02c-.72,2.87-1.92,5.33-4.06,7.44Z"/>
      <path class="cls-11" d="M435.66,108.98c3.52-6.92,9.57-11.28,17.48-7.15,8.59,4.5,6.63,16.36,2.07,22.96-3.75,6.05-7.29,9.97-11.94,14.94-8.7-3.02-22.21-8.1-26.58-16.71-2.6-4.07-2.42-8.71.03-12.81,4.82-6.73,11.59-6.66,17.8-2.09.38.28.76.57,1.13.86Z"/>
      <path class="cls-11" d="M486.35,67.98c5.76-.45,9.24,2.52,10.61,7.93,2.89-1.15,5.72-2.19,8.87-1.37,2.41.62,4.46,2.2,5.67,4.37,4.13,7.45-2.26,12.8-8.13,15.91-5.26,2.41-10.91,3.83-16.68,4.21-1.97-3.01-3.72-6.16-5.23-9.42-3.6-7.98-4.93-17.66,4.88-21.63Z"/>
    </g>
  </g>
</svg>