<?xml version="1.0" encoding="UTF-8"?>
<svg id="Layer_2" data-name="Layer 2" xmlns="http://www.w3.org/2000/svg" viewBox="0 0 557.05 528.91">
  <defs>
    <style>
      .cls-1 {
        fill: #f9fbff;
      }

      .cls-1, .cls-2, .cls-3, .cls-4 {
        stroke-linejoin: round;
      }

      .cls-1, .cls-2, .cls-5, .cls-6, .cls-7, .cls-4 {
        stroke: #000;
      }

      .cls-1, .cls-5 {
        stroke-width: 6px;
      }

      .cls-8 {
        fill: #010101;
      }

      .cls-2, .cls-3 {
        fill: #ffc6d5;
      }

      .cls-2, .cls-3, .cls-4 {
        stroke-linecap: round;
      }

      .cls-2, .cls-6, .cls-7, .cls-9, .cls-4 {
        stroke-width: 7px;
      }

      .cls-10 {
        fill: #fec6d4;
      }

      .cls-11, .cls-6, .cls-9 {
        fill: #fff;
      }

      .cls-12 {
        fill: #f5879a;
      }

      .cls-13 {
        fill: #edf57a;
      }

      .cls-3 {
        stroke: #fc8da9;
        stroke-width: 4px;
      }

      .cls-5, .cls-6, .cls-7, .cls-9 {
        stroke-miterlimit: 10;
      }

      .cls-5, .cls-4 {
        fill: none;
      }

      .cls-7 {
        fill: #fc8da9;
      }

      .cls-14 {
        fill: #9fe0ab;
      }

      .cls-9 {
        stroke: #010101;
      }

      .cls-15 {
        fill: #f6899e;
      }

      .cls-16 {
        fill: #f786a1;
      }

      .cls-17 {
        fill: #ffdce1;
      }

      .cls-18 {
        fill: #c03a43;
      }
    </style>
  </defs>
  <g id="Layer_1-2" data-name="Layer 1">
    <g>
      <path class="cls-6" d="M285.45,525.41c-17.39-.05-16.13-18.22-11.14-29.76-14.25-14.9-26.18-34.4-36.12-51.51,17.19,5.92,36.54,7.07,56.58,5.21,3.62,23.78,30.02,41.55,8.52,66.53-3.11,3.29-10.66,9.28-17.85,9.53Z"/>
      <path class="cls-6" d="M394.88,474.57c-3.39,14.93-18.27,10.43-26.91,3.97-15.15,9.44-39.86,17.72-56.89-14.95,3.17-8.65-.26-14.25,16.37-28.95,18.18,13.79,22.21,19.96,30.39,14.78,15.7-9.95,24.02-3.83,32.54,8.03,2.14,3.29,5.67,10.91,4.49,17.13Z"/>
      <path class="cls-9" d="M352.28,385l-4.67-34.69h-.1c.25-.02,25.13-3.87,59.07-25.14,8.19-5.13,18.99-2.66,24.12,5.53,5.13,8.19,2.66,18.99-5.53,24.12-40.88,25.63-71.6,30-72.89,30.18Z"/>
      <path class="cls-9" d="M231.88,392.03c-1.3-.08-32.25-2.19-74.9-24.77-8.54-4.52-11.8-15.11-7.28-23.65,4.52-8.54,15.12-11.8,23.65-7.28,35.4,18.74,60.5,20.76,60.75,20.78h-.1s-2.13,34.93-2.13,34.93Z"/>
      <path class="cls-7" d="M367.03,413.06c-.85-55.84-35.63-80.65-35.63-80.65h-91.16s-25.17,24.81-26.02,80.65c-1.07,70.31,153.89,70.35,152.81,0Z"/>
      <g>
        <path class="cls-11" d="M280.54,368.8c88.99-1.91,160.31-41.81,158.39-130.83-1.92-89.02-75.61-159.64-164.6-157.72h-.07c-88.99,1.92-159.58,75.64-157.66,164.66,1.92,89.02,74.88,125.81,163.87,123.9"/>
        <circle class="cls-2" cx="130.2" cy="150.78" r="60.46"/>
        <circle class="cls-2" cx="418.08" cy="144.58" r="60.46"/>
        <g>
          <circle class="cls-17" cx="182.41" cy="314.7" r="21.63"/>
          <path class="cls-10" d="M174.38,322.54c-.32,0-.66-.04-.98-.13-1.71-.51-2.68-2.3-2.18-4.01l2.87-9.7c.5-1.71,2.3-2.68,4.01-2.18,1.71.51,2.68,2.3,2.18,4.01l-2.87,9.7c-.41,1.38-1.66,2.28-3.02,2.31Z"/>
          <path class="cls-10" d="M186.61,324.26c-.32,0-.66-.04-.98-.13-1.71-.51-2.68-2.3-2.18-4.01l2.87-9.7c.5-1.71,2.3-2.68,4.01-2.18,1.71.51,2.68,2.3,2.18,4.01l-2.87,9.7c-.41,1.38-1.66,2.28-3.02,2.31Z"/>
        </g>
        <g>
          <circle class="cls-17" cx="372.8" cy="310.61" r="21.63"/>
          <path class="cls-10" d="M365.81,318.42c-.32,0-.66-.04-.98-.13-1.71-.51-2.68-2.3-2.18-4.01l2.87-9.7c.5-1.71,2.3-2.68,4.01-2.18,1.71.51,2.68,2.3,2.18,4.01l-2.87,9.7c-.41,1.38-1.66,2.28-3.02,2.31Z"/>
          <path class="cls-10" d="M378.03,320.14c-.32,0-.66-.04-.98-.13-1.71-.51-2.68-2.3-2.18-4.01l2.87-9.7c.5-1.71,2.3-2.68,4.01-2.18,1.71.51,2.68,2.3,2.18,4.01l-2.87,9.7c-.41,1.38-1.66,2.28-3.02,2.31Z"/>
        </g>
        <ellipse cx="330.19" cy="280.95" rx="15.32" ry="17.2" transform="translate(-5.97 7.17) rotate(-1.23)"/>
        <ellipse cx="223.7" cy="283.24" rx="15.32" ry="17.2" transform="translate(-6.04 4.88) rotate(-1.23)"/>
        <g id="_Mirror_Repeat_" data-name="&amp;lt;Mirror Repeat&amp;gt;">
          <path class="cls-3" d="M277.03,214.95c3.07,11.13,10.65,32.98,37.59,37.79,32.23,5.76,50.85-19.22,50.85-19.22,12.65,43.67,58.42,28.63,58.42,28.63,1.08,31.17-25.22,76.06-63.49,91.97,59.05-22.58,79.06-73.34,78.14-116.14-1.88-87.56-72.39-157.84-164.4-157.67h-.07c-91.94,3.79-159.35,77.04-157.47,164.59.92,42.8,23.1,92.66,83.07,112.67-38.93-14.25-67.12-57.96-67.39-89.15,0,0,46.37,13.06,57.13-31.12,0,0,19.68,24.15,51.63,17.02,26.7-5.96,33.34-28.12,35.93-39.37"/>
        </g>
        <path class="cls-4" d="M280.54,368.8c88.99-1.91,160.31-41.81,158.39-130.83-1.92-89.02-75.61-159.64-164.6-157.72h-.07c-88.99,1.92-159.58,75.64-157.66,164.66,1.92,89.02,74.88,125.81,163.87,123.9h.07Z"/>
        <path class="cls-1" d="M394.73,94.11c-6.66-1.92-13.43-.52-18.3,3.19.8-2.09,1.21-4.35,1.16-6.7-.22-10.35-9.34-18.54-20.36-18.3s-19.77,8.82-19.55,19.16c.1,4.56,1.93,8.7,4.88,11.89-.17.2-2.95-1.44-4.34-2.01-10.42-4.22-22.2.97-26.24,10.94-4.04,9.97,1.14,21.47,11.56,25.69,1.75.71,3.54,1.16,5.32,1.39-2.08,3.02-3.25,6.61-3.17,10.45.22,10.35,9.47,18.54,20.65,18.3,10.47-.23,18.93-7.77,19.77-17.23,2.47,4.81,7.03,8.72,12.88,10.41,10.74,3.1,21.78-2.44,24.65-12.38,2.04-7.05-.58-14.41-6.11-19.21,5.44-2,9.79-6.26,11.44-11.97,2.87-9.94-3.51-20.52-14.25-23.62Z"/>
        <ellipse class="cls-14" cx="361.47" cy="122.27" rx="16.09" ry="12.82" transform="translate(-2.55 7.8) rotate(-1.23)"/>
        <g>
          <path class="cls-18" d="M250.9,309.78c6.78.52,13.08.96,19.93,1.13,12.44.31,23.04-.33,34.7-1.54,2.74,9.82,1.2,21.37-4.47,29.93-5.98,8.73-16.72,14.64-30.56,11.1-7.44-1.9-13.4-7.42-16.51-12.72-4.55-7.79-5.48-18.95-3.08-27.9Z"/>
          <path class="cls-16" d="M255.2,337.46c2.42-2.01,8.16-3.71,11.34-4.25,12.27-2.09,24.68-.46,34.55,6.07-5.99,8.77-16.74,14.66-30.59,11.12-7.32-1.87-13.21-7.25-16.37-12.45l1.07-.49Z"/>
          <path class="cls-5" d="M250.9,309.78c6.78.52,13.08.96,19.93,1.13,12.44.31,23.04-.33,34.7-1.54,2.74,9.82,1.2,21.37-4.47,29.93-5.98,8.73-16.72,14.64-30.56,11.1-7.44-1.9-13.4-7.42-16.51-12.72-4.55-7.79-5.48-18.95-3.08-27.9Z"/>
        </g>
      </g>
      <g>
        <path class="cls-13" d="M85.2,228.95c4.95-.42,9.98-.91,14.94-.84,4.18,7.58,5.66,16.75,7.4,25.15l.47.18c7.72-7.64,10.13-10.92,19.94-17.48,4.56,2.73,9.42,5.27,13.82,8.16-10.9,7.11-15.59,8.99-21.73,20.63,11.35-4.63,25.85-6.34,37.83-3.52,2.37,4.9,3.89,10.35,5.44,15.57-9.38-1.44-25.11-1.19-33.77,2.95,16.68,3.48,27.61,10.04,40.86,20.21-1.85,4.91-3.67,9.83-5.47,14.76-7.07-6.04-12.99-11.75-21.76-15.26,11.09,10.19,12.48,13.92,20.28,26.44-1.94,3.58-6.25,9.8-8.8,13.12-3.22-5.29-12.08-19.84-17.72-21.63-1.51.09-2.76.14-4.27.12,6.73,11.81,9.81,21.1,11.44,34.72-4.71,2.47-9.79,5-14.29,7.79-1.4-10.34-3.65-24.07-9.76-33.37-.14-.22-.45-.32-.7-.42,1.64,15.48-.66,27.42-3.55,42.41-5.63.43-11.28.59-16.93.49,4.88-12.94,4.18-19.1,5.39-32.5-2.37,5.88-4.38,20.43-5.71,22.79l-.26.91c.49,1.07.63,1.06.66,2.19-5.21.34-13.56,1.07-18.64,2.52l-.46.13c-3.31-6.3-6.49-13.16-8.01-20.11-.96-4.38-1.47-8.71-2.51-13.1-5.04,11.35-6.47,18.23-6.97,30.44-4.38-3.09-9.12-5.69-13.92-8.08.52-8.9,2.21-17,5.67-25.25-11.76.3-3.74-4.32-4.87-7.83-2.56-.4-2.73-1.62-3.39-3.78-4.36,6.02-7.58,11.19-10.77,17.89-2.8-3.9-7.47-9.24-10.65-13.2,4.2-10.42,12.63-19.15,21.72-25.66,2.93-2.1,8.3-4.65,11.67-6.3-11.87.05-23.34,4.24-32.43,11.87-1.7-3.8-3.35-9.27-4.64-13.29,13.25-10.57,26.64-14.37,43.11-15.88-1.2-1.23-3.89-2.37-5.48-3.09-9.35-4.25-16.75-5.06-26.71-5.76,2.5-4.84,4.95-9.75,7.92-14.32,7.43,1.15,14.34,1.22,21.97,3.36,3.26.92,10.39,4.22,12.96,4.15-8.18-6.92-9.66-8.84-19.21-14.89,4.22-2.81,8.53-6.79,12.59-10.06,10.64,8.45,15.73,12.73,24.02,23.9-1.01-4.69-1.66-9.51-2.74-14.19-1.02-4.43-2.51-8.78-3.99-13.08Z"/>
        <path class="cls-15" d="M45.86,317.49c5.08-8.73,10.29-24.74,21.73-28.44,5.97-1.93,16.55.05,22.16,3.09,1.65,1.32,3.71,2.84,5.09,4.36-13,.09-19,3.07-28.64,12.4-6.24,6.05-8.83,12.3-12.09,20.19-11.76.3-3.74-4.32-4.87-7.83-2.56-.4-2.73-1.62-3.39-3.78Z"/>
        <path class="cls-15" d="M127.95,235.96c4.56,2.73,9.42,5.27,13.82,8.16-10.9,7.11-15.59,8.99-21.73,20.63,11.35-4.63,25.85-6.34,37.83-3.52,2.37,4.9,3.89,10.34,5.44,15.57-9.38-1.44-25.11-1.18-33.77,2.95-10.48,1.38-15.04,5.75-22.91,12.95-1.33,1.21-3.22,4.07-4.69,4.47-.67-.32-1.26-.65-1.55-1.51-3.23-10.46-1.05-23.06,2.56-33.17,1.16-3.26,3.47-6.09,4.59-9.23l.47.18c7.72-7.64,10.13-10.92,19.94-17.48Z"/>
        <path class="cls-15" d="M39.6,249.75c7.43,1.15,14.34,1.22,21.97,3.36,3.26.92,10.39,4.22,12.96,4.15,14.73,5.38,22.97,24.28,23.02,38.94-1.16-.04-1.61-.13-2.71.3-1.39-1.52-3.44-3.04-5.09-4.36,1.12.23,1.1.43,1.99.07-6.51-5.66-19.74-17.42-27.88-19.29-1.2-1.23-3.89-2.37-5.48-3.09-9.35-4.25-16.75-5.06-26.71-5.76,2.5-4.84,4.95-9.75,7.92-14.32Z"/>
        <path class="cls-15" d="M104.03,297.73c13.43-.61,25.91,4.3,34.13,15.1.62.82.52,1.11.33,1.99-.89.92-1.41,1.23-1.57,2.56-1.51.09-2.76.14-4.27.12,6.73,11.81,9.81,21.1,11.44,34.72-4.71,2.47-9.79,5-14.29,7.79-1.4-10.34-3.65-24.07-9.76-33.37-.14-.22-.45-.32-.7-.42-.4-.46-2.36-5.49-2.88-6.46-3.97-7.32-7.97-15.04-12.43-22.05Z"/>
        <path class="cls-12" d="M69.34,331.97c1.93-8.05,18.57-29.07,26.02-33.64.47-.29.94-.56,1.41-.83-8.95,16.35-14.39,40.96-11.6,59.51,2.86.51,11.16,1.57,13.38,2.4l-.26.91c.49,1.07.63,1.06.66,2.19-5.21.34-13.56,1.07-18.64,2.52l-.46.13c-3.31-6.3-6.49-13.16-8.01-20.11-.96-4.38-1.47-8.71-2.51-13.1Z"/>
        <path d="M99.19,228.1c.32,0,.63,0,.95,0,4.17,7.58,5.66,16.75,7.39,25.15l.47.19c7.72-7.64,10.13-10.92,19.94-17.48,4.56,2.73,9.42,5.28,13.82,8.16-.68.44-1.34.87-1.97,1.28-9.52,6.11-14,8.44-19.76,19.35,2.13-.87,4.37-1.63,6.68-2.28,5.94-1.68,12.37-2.6,18.65-2.6,4.31,0,8.54.44,12.5,1.37,1.78,3.68,3.08,7.66,4.27,11.62.4,1.32.78,2.64,1.17,3.95-3.26-.5-7.28-.8-11.5-.8-7.95,0-16.61,1.05-22.27,3.75,16.68,3.48,27.61,10.04,40.86,20.21-1.85,4.91-3.67,9.83-5.47,14.76-7.07-6.04-12.99-11.75-21.76-15.26,11.09,10.19,12.48,13.92,20.28,26.44-1.94,3.58-6.25,9.79-8.8,13.12-3.22-5.29-12.08-19.84-17.72-21.63-1.29.07-2.4.13-3.64.13-.21,0-.42,0-.63,0,6.73,11.81,9.81,21.1,11.44,34.72-4.72,2.47-9.79,5-14.29,7.79-1.4-10.34-3.65-24.07-9.76-33.37-.14-.22-.45-.32-.7-.42,1.64,15.48-.66,27.42-3.55,42.41-4.54.35-9.09.52-13.64.52-1.1,0-2.19-.01-3.29-.03,4.88-12.94,4.18-19.1,5.39-32.5-2.36,5.88-4.38,20.43-5.71,22.79l-.26.91c.49,1.07.63,1.06.66,2.19-5.21.33-13.56,1.07-18.64,2.52l-.46.13c-3.31-6.3-6.49-13.16-8.01-20.11-.96-4.38-1.46-8.71-2.51-13.1-5.04,11.35-6.47,18.23-6.97,30.44-4.38-3.09-9.12-5.69-13.92-8.08.52-8.9,2.21-17,5.68-25.25-.36,0-.7.01-1.03.01-10.25,0-2.74-4.44-3.84-7.84-2.56-.4-2.73-1.62-3.39-3.78-4.36,6.02-7.58,11.19-10.77,17.89-2.8-3.9-7.47-9.24-10.65-13.2,4.2-10.42,12.63-19.15,21.72-25.66,2.93-2.1,8.3-4.65,11.66-6.3-11.87.05-23.34,4.24-32.43,11.87-1.7-3.8-3.35-9.27-4.64-13.29,13.25-10.57,26.64-14.37,43.11-15.88-1.2-1.23-3.89-2.37-5.48-3.09-9.35-4.25-16.74-5.06-26.71-5.76,2.5-4.84,4.95-9.75,7.92-14.32,7.43,1.15,14.34,1.22,21.97,3.36,3.22.91,10.24,4.15,12.88,4.15.03,0,.06,0,.08,0-8.18-6.92-9.66-8.84-19.21-14.89,4.22-2.81,8.53-6.79,12.59-10.06,10.64,8.45,15.73,12.73,24.02,23.91-1.01-4.69-1.66-9.51-2.74-14.19-1.02-4.43-2.51-8.78-3.99-13.08,4.63-.39,9.34-.85,13.99-.85M99.19,221.1h0c-4.4,0-8.74.37-12.93.73l-1.65.14-8.94.75,2.91,8.49.02.07c.1.31.21.61.31.91-2.02-1.68-4.2-3.42-6.65-5.37l-4.39-3.49-4.36,3.52c-1.31,1.06-2.64,2.18-3.93,3.27-2.73,2.3-5.55,4.69-8.14,6.4l-8.97,5.97,1.14.72c-.98-.12-1.96-.25-2.95-.41l-4.47-.69-2.47,3.79c-2.83,4.36-5.18,8.91-7.45,13.32l-.83,1.6-4.88,9.44,10.6.75c2.08.15,4.01.3,5.84.48-7.51,2.82-14.19,6.68-20.62,11.81l-3.77,3.01,1.47,4.6c.19.59.38,1.21.59,1.85,1.21,3.82,2.71,8.57,4.33,12.17l2.98,6.67c-1.54,2.48-2.91,5.13-4.04,7.94l-1.53,3.8,2.57,3.2c1.1,1.37,2.33,2.85,3.64,4.42,2.49,2.99,5.06,6.08,6.78,8.48l6.91,9.63,5.1-10.7c.78-1.64,1.56-3.18,2.37-4.68.32.25.66.48,1,.68-1.84,6.14-2.92,12.51-3.33,19.54l-.27,4.62,4.14,2.06c5.37,2.67,9.5,5.06,13,7.53l10.5,7.4.53-12.84c.04-.98.09-1.91.14-2.81,1.37,3.12,2.83,6.01,4.16,8.55l2.66,5.07,5.49-1.6.46-.13c1.97-.56,4.98-1.08,8.7-1.51l-2.15,5.7,9.92.18c1.14.02,2.28.03,3.42.03,4.7,0,9.47-.18,14.17-.54l5.33-.41,1.01-5.25c.28-1.47.56-2.91.83-4.35l.82,6.03,9.17-5.68c3.5-2.17,7.5-4.24,11.36-6.25.83-.43,1.66-.86,2.48-1.29l4.28-2.24-.58-4.8c-.26-2.2-.57-4.31-.91-6.33l3.85,6.32,6.22-8.12c2.55-3.33,7.15-9.89,9.4-14.04l1.94-3.58-1.99-3.19,1.95-5.34c1.82-4.98,3.65-9.92,5.45-14.69l1.83-4.86-4.12-3.16c-5.54-4.25-10.81-7.97-16.31-11.14,1.38.12,2.7.27,3.9.45l10.91,1.68-3.14-10.59-.37-1.27c-.27-.9-.53-1.81-.8-2.71-1.24-4.11-2.66-8.48-4.67-12.65l-1.45-3.01-3.25-.76c-4.38-1.03-9.13-1.55-14.1-1.55-1.48,0-2.97.05-4.47.14.26-.16.52-.33.79-.5.61-.39,1.24-.79,1.89-1.21.65-.42,1.32-.85,2.02-1.3l8.96-5.85-8.94-5.87c-2.93-1.92-6-3.67-8.97-5.37-1.77-1.01-3.44-1.96-5.08-2.95l-3.81-2.28-3.69,2.47c-5.63,3.77-9.1,6.63-12.24,9.61-1.26-5.1-2.93-10.28-5.54-15.02l-1.96-3.57-4.07-.06c-.35,0-.7,0-1.04,0h0Z"/>
      </g>
      <g>
        <path class="cls-13" d="M461.16,212.68c4.38-.73,10.07-.95,14.51-1.17-1.91,9.01-2.41,17.48-2.21,26.62,6.65-11.42,10.68-16.47,20.11-25.31,4.61,2.67,9.57,5.44,13.95,8.4-5.86,5.54-9.41,8.62-15.09,14.7,1.8.06,7.66-2.82,9.95-3.68,7.01-2.59,14.24-4.54,21.6-5.84,3.75,4.26,6.07,8.74,9.38,12.88-10.25,2.7-23.36,5.43-31.27,13.2,16.88-1.42,30.53,1.11,45.39,9.75-.68,4.76-1.28,9.29-2.47,13.96-9.97-4.88-21.27-9.05-32.6-7.31,3.81,1.91,7.68,3.31,11.51,5.11,10.97,5.19,18.33,11.63,24.85,21.82-2.81,4.52-6.71,10.17-9.04,14.68-3.58-5.33-7.34-11.3-12.66-15.03-1.44.48-1,.04-1.63,1.07-.04,3.09,1.05,5.23,1.27,8.46-2.94,1.64-3.62,1.41-6.05,2.47,2.11,4.27,4.28,8.41,5.8,12.93,1.11,3.3,1.74,6.88,2.82,10.11-4.01,3.71-8.75,6.52-12.89,10.08-4.15-12.75-3.87-17.76-11.4-29.3-.55,5.38-.65,10.64-1.32,16.03-.81,6.44-2.43,12.23-4.13,18.47l-19.14-.49c-.68-.78-.33-1.96-.2-3.01-3.98-7.14-4.96-14.68-8.9-20.81,2.32,13.16,3.28,19.61,9.66,31.57-4.36-.14-12.54.14-16.58,1.13-5.88-14.39-9.57-26.21-9.4-42.1-.23.05-.42.05-.54.31-4.97,11.06-5.77,22.62-5.78,34.6-4.5-2.47-10.03-4.49-14.85-6.36-.38-11.06,1.63-26.32,6.41-36.1l-6.11,2.56c-4.34,2.46-10.4,16.31-12.49,21.09-3.96-3.4-6.93-6.1-10.57-9.8,4.69-12.13,8.01-19.85,16.41-29.63-6.51,3.42-14.9,11.78-19.53,17.47-2.2-4.57-4.65-9.66-6.35-14.41,10.55-11.13,22.32-18.62,36.52-24.21-11.21-2.78-21.94-2.49-32.99,1.21.49-4.78,1.69-11.63,3.21-16.04,9.46-4.92,29.25-4.67,39.04-.33-7.23-9.69-14.13-14.2-25.43-18.65,2.39-2.56,9.61-7.65,12.79-9.99,10.68,5.55,14.22,9.14,23.18,16.39-.87-5.18,1.56-22.37,3.27-27.48Z"/>
        <path class="cls-15" d="M492.43,235.93c1.8.06,7.66-2.82,9.95-3.68,7.01-2.59,14.24-4.54,21.6-5.84,3.75,4.26,6.07,8.74,9.38,12.88-10.25,2.7-23.36,5.43-31.27,13.2,16.88-1.42,30.53,1.11,45.39,9.75-.68,4.76-1.28,9.29-2.47,13.96-9.97-4.88-21.27-9.05-32.6-7.31,3.81,1.91,7.68,3.31,11.51,5.11,10.97,5.19,18.33,11.63,24.85,21.82-2.81,4.52-6.71,10.17-9.04,14.68-3.58-5.33-7.34-11.3-12.66-15.03-1.44.48-1,.04-1.63,1.07-.04,3.09,1.05,5.23,1.27,8.46-2.94,1.64-3.62,1.41-6.05,2.47-6.3-12.61-16.01-21.86-29.22-27.01-8.07-3.15-9.67-2.35-16.97.86l-.38-.3c.12-.92.34-1.54-.17-2.38-1.3-1.81-1.55-4.46-1.46-6.65.68-15.37,7.08-27.71,19.96-36.08Z"/>
        <path class="cls-13" d="M502.1,252.5c16.88-1.42,30.53,1.11,45.39,9.75-.68,4.76-1.28,9.29-2.47,13.96-9.97-4.88-21.27-9.05-32.6-7.31,3.81,1.91,7.68,3.31,11.51,5.11,10.97,5.19,18.33,11.63,24.85,21.82-2.81,4.52-6.71,10.17-9.04,14.68-3.58-5.33-7.34-11.3-12.66-15.03-6.12-8.72-12.79-22.47-24.42-26.23-6.65-1.42-14.23.51-20.09,3.74-1.98,1.09-5.23,4.42-6.8,4,5.04-6.04,19.47-21.08,26.32-24.5Z"/>
        <path class="cls-15" d="M434.71,223.77c10.68,5.55,14.22,9.14,23.18,16.39,9.79,11.91,13.58,25.73,12.41,40.89-5.69-1.69-7.49-4.47-12.31-7.55-4.94-3.16-13.96-7.53-19.9-5.91-11.21-2.78-21.94-2.49-32.99,1.21.49-4.78,1.69-11.63,3.21-16.04,9.46-4.92,29.25-4.67,39.04-.33-7.23-9.69-14.13-14.2-25.43-18.65,2.39-2.56,9.61-7.65,12.79-9.99Z"/>
        <path class="cls-15" d="M434.1,307.07c.24-6.46,3.27-11.28,7.9-15.63,7.24-6.8,15.29-8.73,24.88-9.91-2.45,4.92-11.65,25.83-11.89,30.53-.23.05-.42.05-.54.31-4.97,11.06-5.77,22.62-5.78,34.6-4.5-2.47-10.03-4.49-14.85-6.36-.38-11.06,1.63-26.32,6.41-36.1l-6.11,2.56Z"/>
        <path class="cls-15" d="M475.42,282.43c11.02,4.62,23.03,18.81,29.58,28.86-.55,5.38-.65,10.64-1.32,16.03-.81,6.44-2.43,12.23-4.13,18.47l-19.14-.49c-.68-.78-.33-1.96-.2-3.01,3.95-1.74,7.97-2.19,12.68-4.48.47-15.69-8.76-42.26-17.46-55.37Z"/>
        <path d="M475.67,211.51c-1.91,9.01-2.41,17.48-2.21,26.62,6.65-11.42,10.68-16.47,20.11-25.31,4.61,2.67,9.57,5.44,13.95,8.4-5.86,5.54-9.41,8.62-15.09,14.7.02,0,.04,0,.06,0,1.86,0,7.62-2.83,9.9-3.68,7.01-2.59,14.24-4.54,21.6-5.84,3.75,4.26,6.07,8.74,9.38,12.88-10.25,2.7-23.35,5.44-31.27,13.2,2.9-.24,5.7-.37,8.43-.37,2.24,0,4.43.09,6.59.26,10.52.87,20.16,3.92,30.38,9.85,0,0,0,0,0,0h0c-.51,3.57-.98,7.01-1.68,10.48-.23,1.16-.49,2.32-.79,3.48-8.39-4.1-17.73-7.71-27.24-7.71-1.78,0-3.57.13-5.36.4,3.81,1.91,7.68,3.31,11.5,5.11,10.97,5.19,18.33,11.63,24.85,21.82-2.81,4.52-6.71,10.17-9.04,14.68-.9-1.33-1.8-2.71-2.74-4.07-2.82-4.1-5.93-8.16-9.92-10.96-1.44.48-1,.04-1.63,1.07-.04,3.09,1.05,5.23,1.27,8.46-2.94,1.64-3.62,1.41-6.05,2.47,2.11,4.28,4.28,8.41,5.8,12.93,1.11,3.3,1.74,6.88,2.82,10.11-4.01,3.71-8.75,6.52-12.89,10.08-4.15-12.75-3.87-17.76-11.4-29.3-.55,5.38-.65,10.64-1.32,16.03-.2,1.61-.46,3.18-.75,4.73-.88,4.64-2.11,9.06-3.39,13.74l-19.14-.49c-.68-.78-.33-1.96-.2-3.01-3.98-7.14-4.96-14.68-8.9-20.81,2.32,13.16,3.28,19.61,9.66,31.57-.68-.02-1.45-.03-2.28-.03-4.52,0-10.89.33-14.3,1.16-5.88-14.39-9.57-26.21-9.4-42.1-.23.05-.42.05-.54.31-4.97,11.06-5.77,22.62-5.78,34.6-4.5-2.47-10.03-4.5-14.85-6.36-.38-11.06,1.63-26.32,6.41-36.1l-6.11,2.56c-4.34,2.46-10.4,16.31-12.49,21.09-3.96-3.4-6.93-6.1-10.57-9.8,4.69-12.13,8.01-19.85,16.41-29.63-6.51,3.42-14.9,11.78-19.53,17.47-2.2-4.57-4.65-9.66-6.35-14.41,10.55-11.13,22.32-18.62,36.52-24.21-4.96-1.23-9.81-1.86-14.65-1.86-6.1,0-12.17,1-18.34,3.07.49-4.78,1.69-11.63,3.21-16.04,4.75-2.47,12.1-3.64,19.48-3.64,7.32,0,14.68,1.15,19.56,3.3-7.23-9.69-14.13-14.2-25.43-18.65,2.4-2.56,9.61-7.65,12.79-9.99,10.68,5.55,14.22,9.14,23.18,16.39-.87-5.18,1.56-22.37,3.27-27.48,4.38-.73,10.07-.94,14.51-1.17M484.41,204.06l-9.1.46-1.46.07c-4.25.21-9.53.47-13.83,1.18l-4.16.69-1.34,3.99c-.94,2.82-2.18,9.15-2.98,15.57-3.67-2.77-7.66-5.38-13.6-8.47l-3.87-2.01-3.51,2.59c-.51.38-1.13.83-1.82,1.33-5.18,3.77-9.65,7.09-11.92,9.51l-7.04,7.52,9.58,3.78c1.64.65,3.16,1.29,4.58,1.94-5.5.28-12.99,1.28-18.85,4.33l-2.48,1.29-.91,2.64c-1.84,5.33-3.06,12.81-3.56,17.61l-1.11,10.81,10.3-3.45c1.16-.39,2.32-.74,3.47-1.04-5.11,3.7-9.84,7.87-14.31,12.59l-2.96,3.12,1.45,4.05c1.83,5.12,4.38,10.41,6.63,15.09l3.02,6.28c-.04.11-.08.21-.12.32l-1.63,4.22,3.18,3.22c3.96,4.02,7.14,6.88,10.99,10.19l7.19,6.18,2.62-6.01c-.11,2.54-.13,4.98-.05,7.21l.16,4.62,4.31,1.67,1.77.68c4.27,1.64,8.69,3.34,12.24,5.29l10.35,5.67v-7.66c.72,1.85,1.47,3.74,2.26,5.69l2.28,5.58,5.86-1.42c2.29-.56,7.61-.96,12.65-.96.75,0,1.45,0,2.06.03l12.08.38-4.21-7.91,10.75.28,5.48.14,1.45-5.29.19-.69c.74-2.69,1.45-5.3,2.09-7.94.35,1.18.74,2.42,1.17,3.75l3.25,9.98,7.96-6.83c1.66-1.43,3.49-2.76,5.42-4.17,2.54-1.85,5.17-3.77,7.67-6.08l3.32-3.07-1.44-4.29c-.45-1.35-.83-2.87-1.24-4.48-.46-1.83-.94-3.71-1.58-5.63-.84-2.5-1.84-4.84-2.89-7.11l1.06-.59c.62.9,1.22,1.8,1.81,2.69l.83,1.25,6.61,9.84,5.42-10.54c1.47-2.85,3.73-6.36,5.93-9.75,1.01-1.56,1.96-3.03,2.84-4.44l2.33-3.75-2.38-3.72c-1.53-2.39-3.11-4.6-4.76-6.66l1.89-7.47c.31-1.23.59-2.48.87-3.82.66-3.28,1.13-6.54,1.58-9.7l.17-1.17.67-4.67-4.08-2.37c-7.06-4.1-13.96-6.99-21.1-8.78.71-.19,1.42-.37,2.13-.55,1.06-.27,2.1-.54,3.11-.81l10.41-2.74-6.73-8.41c-1.26-1.58-2.41-3.28-3.62-5.09-1.75-2.6-3.55-5.29-5.97-8.03l-2.6-2.95-3.87.68c-1.38.24-2.75.51-4.13.79l-7.2-4.88c-3.84-2.6-7.98-4.98-11.98-7.29-.8-.46-1.6-.92-2.38-1.38l-4.5-2.61-3.8,3.56c-2.47,2.31-4.6,4.39-6.5,6.39.08-.38.16-.77.24-1.15l1.89-8.91h0Z"/>
      </g>
      <path class="cls-8" d="M497.41,3.28c6.69-.27,6.59,2.54,3.71,7.56-6.84,11.94-14.57,23.53-21.93,35.16-2.81,4.44-8.67,15.12-12.32,18.04-1.95-.41-6.09-2.1-5.27-4.13,3.06-7.51,11.32-19.69,15.75-26.14,4.12-6.01,15.52-27.15,20.05-30.49Z"/>
      <path class="cls-8" d="M36.51,26.55c2.79.01,3.6-.21,5.44,2.08,11.64,14.42,23.21,28.9,34.59,43.52,3.22,4.13,6.6,6.7.98,10.59-1.61.12-3.09.13-4.21-1.3-7.44-9.52-15.4-18.95-22.54-28.68-2.91-3.97-17.33-20.39-16.71-24.04.85-1.26,1.11-1.33,2.44-2.17Z"/>
      <path class="cls-8" d="M3.84,81.83c1.1.03,2.04.18,3.05.63,4.89,2.18,44.38,23.92,46.07,25.91.57.67.79,1.66.61,2.52-.38,1.83-2.09,2.8-3.59,3.61-3.49-.79-12.95-6.34-16.57-8.31-10.79-5.85-22.48-11.29-32.52-18.31-2.76-1.92,1.73-5.29,2.96-6.06Z"/>
      <path class="cls-8" d="M536.81,55.08c2.23.1,5.61,1.53,5.35,4.47-.27,1.56-2.36,3.23-3.58,4.1-10.32,7.35-21.11,14.09-31.52,21.33-3.36,2.34-6.92,4.79-10.44,6.78-4.1.35-7.26-4.5-3.1-7.52,11.91-8.66,24.7-15.89,36.53-24.67,2.15-1.6,4.4-3.21,6.76-4.49Z"/>
      <path class="cls-8" d="M103.49,16.53c2.21.07,3.73.37,4.66,2.67,2.01,5.28,3.58,10.86,5.12,16.31,2.6,9.19,6.05,18.66,8.13,27.94-1.5,1.45-1.89,1.67-3.71,2.71-.84.21-1.17.18-2.04.21-.63-.26-1.07-.47-1.52-1-1.13-1.31-14.21-43.99-13.74-45.78.36-1.35,2.03-2.35,3.1-3.07Z"/>
      <path class="cls-8" d="M430.75,0c3.45.32,6.1,1.59,5.36,5.54-2.65,14.16-5.32,28.43-8.47,42.49-.21.92-1.81,2.1-2.53,2.66-2.54.17-3.71-1.1-5.5-2.69,1.19-8.58,3.22-17.66,4.91-26.19.92-4.69,2.86-19.11,6.24-21.81Z"/>
    </g>
  </g>
</svg>
