<?xml version="1.0" encoding="UTF-8"?>
<svg id="Layer_2" data-name="Layer 2" xmlns="http://www.w3.org/2000/svg" viewBox="0 0 501.43 478.68">
  <defs>
    <style>
      .cls-1 {
        fill: #f9fbff;
      }

      .cls-1, .cls-2, .cls-3, .cls-4, .cls-5, .cls-6, .cls-7, .cls-8 {
        stroke: #000;
      }

      .cls-1, .cls-2, .cls-9, .cls-6, .cls-7, .cls-8 {
        stroke-linejoin: round;
      }

      .cls-1, .cls-3, .cls-6 {
        stroke-width: 6px;
      }

      .cls-2, .cls-10 {
        fill: #ffc6d5;
      }

      .cls-2, .cls-4, .cls-5, .cls-7, .cls-8 {
        stroke-width: 7px;
      }

      .cls-2, .cls-9, .cls-6, .cls-8 {
        stroke-linecap: round;
      }

      .cls-11 {
        fill: #fec6d4;
      }

      .cls-12 {
        fill: #9cd3f1;
      }

      .cls-3, .cls-4, .cls-5 {
        stroke-miterlimit: 10;
      }

      .cls-3, .cls-9, .cls-6, .cls-8 {
        fill: none;
      }

      .cls-4, .cls-7 {
        fill: #fff;
      }

      .cls-9 {
        stroke: #fc8da9;
        stroke-width: 4px;
      }

      .cls-5 {
        fill: #fc8da9;
      }

      .cls-13 {
        fill: #9fe0ab;
      }

      .cls-14 {
        fill: #f786a1;
      }

      .cls-15 {
        fill: #fefefe;
      }

      .cls-16 {
        fill: #ffdce1;
      }

      .cls-17 {
        fill: #c03a43;
      }
    </style>
  </defs>
  <g id="Layer_1-2" data-name="Layer 1">
    <g>
      <g>
        <path class="cls-7" d="M336.23,295.6c-2.16,2.2-.17,8.84,1.35,10.99,7.39,10.42,19.52,9.31,30.2-.9,16.97-16.94,35.64-38.31,39.48-62.71,2-12.75-8.85-20.96-17.22-21.75-16.63-1.58-23.18,22.24-28.54,31.24-8.86,14.82-12.82,31.28-25.27,43.14Z"/>
        <path class="cls-4" d="M453.69,326.62c14.58,3.69,14.1,26.05,11.93,37.93-4.97,26.42-35.28,10.96-66.95,34.99-1.95-1.81-2.75-2.78-3.99-5.13,2.05-12.54,4.51-25.24,2.29-38.02,11.97-6.46,26.07-7.33,38.77-11.52,1.62-8.99,8.02-18.3,17.95-18.25Z"/>
        <path class="cls-5" d="M398.46,342.82c-34.03-45.38-74.53-52.01-74.53-52.01l-87.72,49.48s-17.08,38.83,15.21,85.47c47.21,68.22,197.81-15.24,147.04-82.94Z"/>
        <path class="cls-7" d="M364.3,383.99c22.98,1.47,30.7,25.8,39.82,43.04,8.67-.59,16.84.37,21.49,8.59,6.58,18.57-28.92,28.42-42.26,23.7-12.1-5.11-13.99-27.06-24.48-35.62,3.77,4.02,4.37,4.82,5.8,7.43-33.35,30.04-58.99.52-34.72-26.5,10.16-10.65,18.67-20.01,34.36-20.63Z"/>
        <path class="cls-7" d="M233.5,338.39c3.25-.96,8.65,4.41,9.94,7,6.26,12.56-1.07,23.73-16.49,28.8-25.17,7.68-55.51,14.7-81.12,5.79-13.38-4.66-15.71-19.43-12.15-27.94,7.07-16.93,33.51-10.95,44.99-11.49,18.92-.92,36.91,3.77,54.83-2.15Z"/>
      </g>
      <g>
        <g>
          <circle class="cls-2" cx="320.8" cy="60.62" r="57.11"/>
          <path class="cls-15" d="M362.33,111.63c-5.77-7.96-12.3-15.46-19.47-22.39-50.17-48.51-131.73-68.9-208.3-14.65-36.34,25.74-57.18,57.74-65.62,90.56-.03.1-.05.18-.07.27-15.29,61.66,14.19,127.17,66.45,158.98.68.42,1.37.83,2.08,1.24.21.12.41.24.61.35,13.35,7.28,28.16,12.36,44.06,14.66,11.27,1.63,22.01,2.98,32.15,2.39,83.58-4.88,114.02-34.9,134.32-55.86,9.56-9.87,17.07-21.08,22.69-33.09,21.08-45.09,15.43-101.68-8.9-142.46Z"/>
          <path class="cls-15" d="M362.33,111.63c-5.77-7.96-12.3-15.46-19.47-22.39-50.17-48.51-131.73-68.9-208.3-14.65-36.34,25.74-57.18,57.74-65.62,90.56-.03.1-.05.18-.07.27-15.29,61.66,14.19,127.17,66.45,158.98.68.42,1.37.83,2.08,1.24.21.12.41.24.61.35,13.35,7.28,28.16,12.36,44.06,14.66,11.27,1.63,22.01,2.98,32.15,2.39,83.58-4.88,114.02-34.9,134.32-55.86,9.56-9.87,17.07-21.08,22.69-33.09,21.08-45.09,15.43-101.68-8.9-142.46Z"/>
          <path class="cls-10" d="M371.23,254.09c8.21-30.47,11.48-73.49-6.96-99.41-9.45,13.48-32.74,2.37-40.24-9.8-10.48,28.9-59.02,41.92-84.5,11.8,1.08,38.9-44.2,61.06-77.68,47.47,2.77,26.65-18.61,48.92-43.23,55.13,20.99,67.46,81.66,81.61,95.61,83.75-10.15,0-20.88-.75-32.15-2.39-15.9-2.3-30.71-7.38-44.06-14.66-.21-.11-.4-.23-.61-.35-.7-.41-1.39-.82-2.08-1.24-51.73-31.55-81.07-96.68-66.45-158.98.02-.09.04-.18.07-.27,8.43-32.82,29.27-64.82,65.62-90.56,76.57-54.25,158.13-33.86,208.3,14.65,7.17,6.93,13.69,14.43,19.47,22.39,24.33,40.78,29.98,97.37,8.9,142.46Z"/>
          <g>
            <path class="cls-17" d="M249.74,263.2c12.59-5.78,36.17-16.99,50.64-24.84,4.57-2.48,10.21-.93,12.72,3.45,4.29,7.48,6.5,16.53,5.76,25.43-1.95,12.78-9.8,28-31.55,32.89-9.76,2.19-19.41-.64-25.21-4.14l-.18-.11c-7.71-4.52-13.68-12.35-17.08-20.52-1.92-4.62.21-10,4.9-12.16Z"/>
            <path class="cls-14" d="M261.92,295.88c.72-2.08,9-9.38,11.57-11.22,14.81-10.59,28.88-15,45.37-17.42-1.95,12.78-9.8,28-31.55,32.89-9.76,2.19-19.41-.64-25.21-4.14l-.18-.11Z"/>
            <path class="cls-3" d="M249.74,263.2c12.59-5.78,36.17-16.99,50.64-24.84,4.57-2.48,10.21-.93,12.72,3.45,4.29,7.48,6.5,16.53,5.76,25.43-1.95,12.78-9.8,28-31.55,32.89-9.76,2.19-19.41-.64-25.21-4.14l-.18-.11c-7.71-4.52-13.68-12.35-17.08-20.52-1.92-4.62.21-10,4.9-12.16Z"/>
          </g>
          <g>
            <circle class="cls-16" cx="199.79" cy="296.42" r="21.97"/>
            <path class="cls-11" d="M196.26,307.25c-.29.16-.61.28-.95.34-1.78.35-3.5-.8-3.85-2.58l-1.99-10.07c-.35-1.77.8-3.5,2.58-3.85,1.78-.35,3.5.8,3.85,2.58l1.99,10.07c.28,1.43-.42,2.83-1.63,3.5Z"/>
            <path class="cls-11" d="M208.07,303.04c-.29.16-.61.28-.95.34-1.78.35-3.5-.8-3.85-2.58l-1.99-10.07c-.35-1.77.81-3.5,2.58-3.85,1.78-.35,3.5.8,3.85,2.58l1.99,10.07c.28,1.43-.42,2.83-1.63,3.5Z"/>
          </g>
          <g>
            <circle class="cls-16" cx="345.87" cy="227.73" r="21.05"/>
            <path class="cls-11" d="M342.49,238.11c-.28.15-.58.27-.91.33-1.7.34-3.35-.77-3.69-2.47l-1.9-9.66c-.34-1.7.77-3.35,2.47-3.69,1.7-.34,3.35.77,3.69,2.47l1.9,9.66c.27,1.37-.4,2.72-1.56,3.36Z"/>
            <path class="cls-11" d="M353.81,234.08c-.28.15-.58.27-.91.33-1.7.34-3.35-.77-3.69-2.47l-1.9-9.66c-.34-1.7.77-3.35,2.47-3.69,1.7-.34,3.35.77,3.69,2.47l1.9,9.66c.27,1.37-.4,2.72-1.56,3.36Z"/>
          </g>
          <path class="cls-9" d="M371.23,254.09c8.21-30.47,11.48-73.49-6.96-99.41-9.45,13.48-32.74,2.37-40.24-9.8-10.48,28.9-59.02,41.92-84.5,11.8,1.08,38.9-44.2,61.06-77.68,47.47,2.77,26.65-18.61,48.92-43.23,55.13,20.99,67.46,81.66,81.61,95.61,83.75"/>
          <path class="cls-8" d="M362.33,111.63c-5.77-7.96-12.3-15.46-19.47-22.39-50.17-48.51-131.73-68.9-208.3-14.65-36.34,25.74-57.18,57.74-65.62,90.56-.03.1-.05.18-.07.27-15.29,61.66,14.19,127.17,66.45,158.98.68.42,1.37.83,2.08,1.24.21.12.41.24.61.35,13.35,7.28,28.16,12.36,44.06,14.66,11.27,1.63,22.01,2.98,32.15,2.39,83.58-4.88,114.02-34.9,134.32-55.86,9.56-9.87,17.07-21.08,22.69-33.09,21.08-45.09,15.43-101.68-8.9-142.46Z"/>
          <g>
            <circle class="cls-10" cx="60.62" cy="151.27" r="57.11"/>
            <path class="cls-8" d="M103.55,188.95c-7.47,8.53-17.55,14.92-29.41,17.81-30.65,7.47-61.54-11.32-69.01-41.97-7.47-30.65,11.32-61.54,41.97-69.01,25.17-6.13,50.52,5.45,62.9,26.77"/>
          </g>
          <path class="cls-6" d="M194.19,270.52s18.49-16.39,34.08-22.33c0,0-2.55-6.54-41.25-3.24"/>
          <path class="cls-6" d="M314.1,182.24s-14.71,13.09-16.81,32.47c0,0,11.35-6.99,36.37-10.64"/>
          <g>
            <path class="cls-1" d="M283.28,10.56c-6.43,1.23-11.53,5.3-14.05,10.51-.22-2.1-.84-4.18-1.89-6.14-4.61-8.62-15.79-11.62-24.97-6.71-9.18,4.91-12.88,15.88-8.27,24.5,2.03,3.8,5.34,6.51,9.2,7.93-.06.24-3.1.05-4.52.17-10.58.9-18.29,10.31-17.42,20.44s10.14,17.6,20.73,16.7c1.78-.15,3.48-.53,5.07-1.11-.46,3.43.09,6.96,1.8,10.16,4.61,8.62,15.9,11.56,25.22,6.58,8.72-4.67,12.62-14.64,9.29-22.97,4.14,3,9.65,4.34,15.3,3.26,10.38-1.98,17.3-11.37,15.47-20.97-1.3-6.81-6.66-11.89-13.36-13.57,3.73-4.01,5.57-9.46,4.52-14.98-1.83-9.6-11.73-15.78-22.11-13.8Z"/>
            <ellipse class="cls-13" cx="267.31" cy="48.51" rx="15.2" ry="12.11" transform="translate(8.75 131.89) rotate(-28.16)"/>
          </g>
        </g>
        <g>
          <g>
            <path class="cls-12" d="M168.39,317.47c-5.27,0-9.58-4.17-10.47-10.14-1.24-8.32,4.46-20.23,24.61-26.38l5.16-1.58-1.08,8.75c-3.78,27.24-14.9,29.35-18.22,29.35Z"/>
            <path d="M183.56,284.3l-.42,3.39c-2.71,19.53-9.46,26.28-14.75,26.28-9.28,0-14.08-20.74,15.17-29.67M191.84,274.45l-10.32,3.15c-22.29,6.8-28.5,20.55-27.05,30.25,1.13,7.6,6.99,13.12,13.93,13.12,5.17,0,17.63-3.15,21.68-32.32v-.05s.01-.05.01-.05l.42-3.39,1.33-10.71h0Z"/>
          </g>
          <g>
            <path class="cls-12" d="M104.81,306.57c-6.05,0-10.69-4.2-11.01-9.98-.39-6.98,5.76-15.23,20.22-16.87h.15c.96-.08,1.94-.12,2.91-.12,4.37,0,8.74.68,13.76,2.13l7.63,2.21-6.78,4.14c-3.1,1.89-5.96,4.85-8.73,7.7-3.17,3.26-6.44,6.64-10.33,8.79l-.19.1c-2.63,1.26-5.2,1.89-7.62,1.89Z"/>
            <path d="M117.06,283.11c4.37,0,8.53.76,12.79,1.99-7.09,4.33-12.2,12.69-18.94,16.42-2.27,1.08-4.32,1.55-6.11,1.55-10.89,0-11.8-17.44,9.6-19.87.9-.06,1.78-.09,2.66-.09M117.06,276.11h0c-1.05,0-2.11.04-3.16.11h-.15s-.15.03-.15.03c-16.71,1.9-23.8,11.98-23.32,20.54.44,7.7,6.54,13.28,14.51,13.28,2.95,0,6.02-.75,9.12-2.23l.19-.09.18-.1c4.35-2.4,7.81-5.97,11.15-9.42,2.74-2.82,5.33-5.49,8.05-7.15l13.56-8.28-15.26-4.41c-5.35-1.55-10.03-2.27-14.73-2.27h0Z"/>
          </g>
          <g>
            <path class="cls-12" d="M98.77,370.79c-4.66,0-8.8-3.75-10.29-9.33-2.26-8.46,1.35-20.98,18.27-30.74l4.81-2.77.57,7.34c.98,15.68-1.17,26.78-6.21,32.15-2.6,2.77-5.32,3.35-7.15,3.35Z"/>
            <path d="M108.5,333.75l.14,1.81c1.47,23.45-4.54,31.73-9.87,31.73-8.16,0-14.71-19.44,9.73-33.54M114.61,322.15l-9.61,5.54c-18.64,10.75-22.51,24.96-19.91,34.67,1.91,7.13,7.4,11.93,13.67,11.93,3.56,0,7-1.58,9.7-4.45,5.81-6.18,8.21-17.86,7.16-34.72v-.05s0-.05,0-.05l-.14-1.81-.86-11.06h0Z"/>
          </g>
        </g>
        <g>
          <g>
            <path class="cls-12" d="M374.71,212.42c-4.73,0-12.37-1.6-21.9-9.21l-2.9-2.32,2.48-2.76c5.87-6.53,12.61-7.95,19.01-8.51l.21-.02h.21c12.76.42,17.19,6.64,17.11,11.85-.09,5.31-5.1,10.96-14.22,10.96Z"/>
            <path d="M371.71,193.11c19.13.62,16.47,15.81,3,15.81-5.18,0-11.96-2.25-19.72-8.44,4.7-5.23,9.88-6.76,16.71-7.36M371.52,186.1l-.42.04c-7.12.62-14.62,2.23-21.31,9.66l-4.96,5.52,5.8,4.63c10.32,8.24,18.79,9.97,24.08,9.97,11.36,0,17.61-7.42,17.72-14.41.12-7.33-6.17-14.93-20.49-15.4h-.42Z"/>
          </g>
          <g>
            <path class="cls-12" d="M377.85,160.99c5.72-9.41,11.1-16.77,23.74-18.88l.13-.02h.13c.49-.06.99-.08,1.48-.08,5.49,0,10.34,2.68,12.38,6.82,1.75,3.58,1.12,7.75-1.74,11.44l-.19.25-.24.21c-5.51,4.94-13.67,5.62-21.66,5.62-1.47,0-2.93-.02-4.35-.05-1.31-.02-2.6-.04-3.82-.04-.94,0-1.85.01-2.71.05l-6.53.27,3.4-5.58Z"/>
            <path d="M403.33,145.5c7.07,0,13.12,5.83,7.87,12.61-4.62,4.14-12.11,4.73-19.33,4.73-2.83,0-5.62-.09-8.18-.09-.99,0-1.95.01-2.86.05,5.64-9.27,10.36-15.42,21.33-17.25.39-.04.78-.05,1.17-.05M403.33,138.5h0c-.6,0-1.21.03-1.8.08l-.26.02-.26.04c-14.08,2.35-20.18,10.68-26.16,20.52l-6.79,11.17,13.06-.54c.74-.03,1.58-.05,2.57-.05,1.21,0,2.47.02,3.77.04,1.43.02,2.9.05,4.41.05,8.27,0,17.6-.77,24-6.52l.47-.42.39-.5c3.71-4.79,4.48-10.3,2.11-15.12-2.61-5.33-8.7-8.78-15.52-8.78h0Z"/>
          </g>
          <g>
            <path class="cls-12" d="M453.14,203.15c-5.47,0-14.77-2.49-27.95-14.34l-4.78-4.29,7.47-2.03c6.06-1.66,10.07-2.75,16.98-3.06h.13s.13,0,.13,0c13.09.41,19.83,7.37,19.73,14.02-.07,4.68-3.77,9.71-11.71,9.71Z"/>
            <path d="M445.01,182.92c19.55.62,20.65,16.73,8.12,16.73-5.79,0-14.48-3.44-25.61-13.45,6.66-1.81,10.51-2.97,17.49-3.28M444.97,175.92h-.27c-7.3.34-11.68,1.53-17.74,3.19l-1.27.35-12.4,3.37,9.55,8.59c14.01,12.6,24.21,15.24,30.29,15.24,9.85,0,15.11-6.62,15.21-13.15.13-8.37-7.77-17.09-23.12-17.57h-.27Z"/>
          </g>
        </g>
      </g>
      <path d="M448.81,55.06c2.73-.24,5.91,1.42,4.11,4.45-1.26,2.11-3.88,4.84-5.51,6.82-3.5,4.33-6.97,8.68-10.41,13.06,5.68,5.14,11.27,9.7,15.87,15.97,2.73,3.71,5.67,7.18,8.18,11.08,7.23-3.48,15.56-8.57,22.49-11.71.86.4,2.1.85,2.8,1.5.55.52.82,1.01.81,1.79-.09,3.36-14.91,9.45-17.94,11.1-1.84,1-3.38,2.08-4.97,3.45,3.74,8.17,6.68,18.34,7.93,27.23.48,3.4-4.24,5.03-5.22,2.28-.72-2.03-1.11-5.49-1.59-7.73-1.44-6.6-3.91-12.93-7.31-18.76-7.76,3.28-14.09,8.12-21.7,11.23-1.4.09-3.03-.93-3.32-2.27-.76-3.61,6.2-6.5,8.62-7.88,4.37-2.5,9.12-4.96,13.92-6.32-4.28-6.52-8.62-12.43-14.05-18.06-2.54-2.64-5.23-5.02-7.79-7.64-1.53,2.11-3.56,4.67-5.16,6.77-2.7,3.54-6.46,9.93-9.76,12.56-1.56-.54-3.34-.99-4.08-2.57-.1-3.63,11.02-17.37,13.74-20.45-5.23-2.58-10.09-5.77-15.68-7.98-2.92-1.15-8.93-2.54-11.04-4.25-.59-1.38-.7-3.13.63-4.13,7.53-1.01,23.45,7.33,29.32,11.77,2.57-3.83,14.18-18.66,17.11-21.32Z"/>
      <path d="M220.04,418.49c.63-.01,1.01.06,1.63.13,1.43.86,2.83,6.01,3.79,7.9,7.68,15.33,19.74,27.68,35.57,34.6,3.25,1.42,9.99,2.41,11.66,5.75.9,1.8-.78,3.31-2.5,3.84-.27-.08-.55-.15-.82-.23-21-6.03-36.51-17.98-47.66-37.16-1.53-2.63-5.53-9.82-4.39-12.6.46-1.13,1.69-1.73,2.73-2.24Z"/>
      <path d="M210.88,441.84c2.53.27,4.03,3.18,5.31,5.14,2.49,3.83,4.95,8.74,8.23,11.93,4.71,4.4,9.98,8.08,15.73,11.03,2.6,1.33,7.17,2.29,8.81,4.81,1.25,1.92-.43,3.19-2.11,3.92-2.36.2-4.27-.92-6.35-1.8-12.95-5.48-22.62-14.12-29.5-26.32-1.79-3.18-4.11-6.25-.12-8.7Z"/>
      <path d="M452.75,299.64c.28-.07.57-.14.85-.2,2.24-.48,4.03.37,5.99,1.38,16.16,8.31,25.95,25.75,28.3,43.38.48,3.64,1.45,5.45-.85,8.93-1.06.49-2.4.89-3.55.6-.45-.49-.7-1.14-.8-1.8-.96-6.24-1.83-12.45-3.71-18.52-1.28-4.18-3.16-8.16-5.58-11.8-6.11-9.02-12.55-12.99-21.69-17.87-1.16-.62.33-3.29,1.05-4.09Z"/>
      <path d="M475.46,291.02c6.17-.43,18.35,16.05,20.63,21.28,1.54,3.52,6.41,17.28,5.13,20.98-.78.9-1.25.96-2.42,1.4-1.11.12-3.2.48-3.3-.9-.88-12.11-5.88-23.75-14.65-32.28-2.68-2.6-12.66-7.15-5.39-10.48Z"/>
    </g>
  </g>
</svg>