<?xml version="1.0" encoding="UTF-8"?>
<svg id="Layer_2" data-name="Layer 2" xmlns="http://www.w3.org/2000/svg" viewBox="0 0 472.14 465.76">
  <defs>
    <style>
      .cls-1 {
        fill: #f9fbff;
      }

      .cls-1, .cls-2, .cls-3, .cls-4, .cls-5, .cls-6, .cls-7 {
        stroke: #000;
      }

      .cls-1, .cls-3, .cls-8, .cls-7 {
        stroke-linejoin: round;
      }

      .cls-1, .cls-4 {
        stroke-width: 6px;
      }

      .cls-2 {
        stroke-width: 3px;
      }

      .cls-2, .cls-9 {
        fill: #fff;
      }

      .cls-2, .cls-4, .cls-5, .cls-6 {
        stroke-miterlimit: 10;
      }

      .cls-3, .cls-8 {
        fill: #ffc6d5;
      }

      .cls-3, .cls-8, .cls-7 {
        stroke-linecap: round;
      }

      .cls-3, .cls-5, .cls-6, .cls-7 {
        stroke-width: 7px;
      }

      .cls-10 {
        fill: #fec6d4;
      }

      .cls-8 {
        stroke: #fc8da9;
        stroke-width: 4px;
      }

      .cls-4, .cls-7 {
        fill: none;
      }

      .cls-5 {
        fill: #fc8da9;
      }

      .cls-11 {
        fill: #9fe0ab;
      }

      .cls-12 {
        fill: #ce4e4b;
      }

      .cls-13, .cls-6 {
        fill: #fefefe;
      }

      .cls-14 {
        fill: #ffdce1;
      }
    </style>
  </defs>
  <g id="Layer_1-2" data-name="Layer 1">
    <g>
      <path class="cls-6" d="M281.93,461.61c-35.06-7.24-26.16-20.27-22.38-45.52.58-6.5-2.6-17.4-6.82-26.63,15.15-.86,24.36,1.41,40.17-7.05,9.73,14.42,6.67,34.03,1.75,48.93,20.93,12.04,11.28,35.06-12.71,30.27Z"/>
      <path class="cls-6" d="M184.48,439.72c-25.57,3.43-30.88-16.81-11.34-29.12-7.88-17.37-2.1-24.93,14.77-38.1,1.82.08,7.91,3.96,8.34,4.22,10.15,6.42,21.7,7.37,33.17,10.16-11.23,7.65-22.99,11.51-16.99,22.66,9.94,19.46-11.13,27.87-27.95,30.18Z"/>
      <g>
        <path class="cls-9" d="M132.48,356.5c-11.27,0-20.36-8.83-20.68-20.11-.69-24.01,7.65-42.7,23.47-52.63,7.52-4.72,16.28-7.11,26.01-7.11,12.32,0,26.07,3.89,40.86,11.57,4.91,2.55,8.53,6.85,10.2,12.12,1.67,5.27,1.19,10.88-1.36,15.79-3.57,6.89-10.62,11.17-18.39,11.17-3.29,0-6.58-.81-9.52-2.33-11.63-6.03-18.59-6.93-21.71-6.93-2.54,0-3.71.56-4.09.8-2.16,1.35-4.36,7.05-4.09,16.37.16,5.53-1.85,10.79-5.64,14.81-3.8,4.02-8.93,6.32-14.46,6.48-.2,0-.4,0-.6,0Z"/>
        <path d="M161.28,280.15c10.4,0,23.36,2.93,39.25,11.17,8.43,4.38,11.72,14.76,7.35,23.19-3.06,5.9-9.06,9.28-15.28,9.28-2.67,0-5.38-.62-7.91-1.94-10.36-5.38-18.13-7.33-23.32-7.33-2.66,0-4.64.51-5.95,1.33-3.81,2.39-6.01,9.84-5.73,19.44.27,9.5-7.21,17.42-16.7,17.69-.17,0-.34,0-.5,0-9.27,0-16.92-7.38-17.19-16.71-.65-22.72,7.1-40.32,21.83-49.57,5.67-3.56,13.6-6.58,24.15-6.58M161.28,273.15c-10.41,0-19.78,2.57-27.87,7.65-16.92,10.62-25.84,30.4-25.11,55.7.38,13.18,11,23.51,24.18,23.51.23,0,.47,0,.7,0,13.34-.38,23.88-11.55,23.5-24.89-.23-7.99,1.55-12.39,2.46-13.3.21-.08.88-.27,2.22-.27,2.8,0,9.13.85,20.09,6.54,3.43,1.78,7.28,2.72,11.13,2.72,9.08,0,17.32-5,21.5-13.06,2.98-5.74,3.54-12.29,1.59-18.45-1.95-6.16-6.19-11.2-11.93-14.17-15.3-7.94-29.59-11.96-42.47-11.96h0Z"/>
      </g>
      <g>
        <path class="cls-9" d="M364.78,359.41c-11.41-.33-20.43-9.88-20.1-21.29.26-8.95-2.4-16.14-7.29-19.73-2.98-2.19-7.04-3.3-12.06-3.3s-10.66,1.09-16.9,3.25c-2.19.76-4.47,1.14-6.77,1.14-8.82,0-16.68-5.6-19.57-13.94-1.81-5.23-1.47-10.84.95-15.82,2.42-4.97,6.63-8.71,11.85-10.51,10.52-3.64,20.76-5.48,30.44-5.48,14.06,0,26.36,3.8,36.56,11.28,16.02,11.76,24.83,31.54,24.18,54.29-.32,11.28-9.41,20.11-20.68,20.11,0,0-.4,0-.6,0Z"/>
        <path d="M325.33,277.24c13.11,0,24.88,3.56,34.49,10.61,15.08,11.07,23.37,29.79,22.75,51.37-.27,9.33-7.91,16.71-17.19,16.71-.17,0-.33,0-.5,0-9.5-.27-16.97-8.19-16.7-17.69.29-10.11-2.89-18.37-8.72-22.65-3.61-2.65-8.42-3.98-14.13-3.98-5.31,0-11.4,1.15-18.04,3.44-1.86.64-3.76.95-5.62.95-7.13,0-13.8-4.47-16.26-11.58-3.1-8.98,1.66-18.77,10.64-21.88,10.22-3.54,20.09-5.29,29.29-5.29M325.33,270.24h0c-10.06,0-20.69,1.91-31.58,5.68-6.11,2.11-11.03,6.48-13.86,12.29-2.83,5.81-3.22,12.38-1.11,18.49,3.37,9.75,12.56,16.3,22.87,16.3,2.69,0,5.35-.45,7.91-1.33,5.87-2.03,11.17-3.06,15.76-3.06,4.2,0,7.66.91,9.99,2.62,3.89,2.86,6.08,9.14,5.86,16.81-.38,13.34,10.16,24.5,23.5,24.89.24,0,.47,0,.7,0,6.32,0,12.3-2.43,16.84-6.83,4.55-4.42,7.16-10.34,7.34-16.68.68-23.91-8.65-44.77-25.61-57.21-10.66-7.83-24.02-11.96-38.63-11.96h0Z"/>
      </g>
      <path class="cls-5" d="M290.81,385.45c-16.8,5.49-31.95,6.52-49.57,6.31-18.44-.23-36.64-1.97-53.3-10.47-.16-.08-.3-.17-.46-.27-10.27-5.94-16.97-11.8-20-23.87-3.54-14.09-.56-29.84,4.92-44.43,3.5-9.37,8.04-18.24,12.54-25.9,47.58,17.35,113.17,1.76,117.74-.24.32.32,7.18,13.43,11.66,24.93.63,1.61,1.21,3.19,1.72,4.71,9.63,28.56,7.81,58.45-25.25,69.22Z"/>
      <g>
        <path class="cls-9" d="M242.84,294.46c87.47-1.88,157.58-41.09,155.69-128.6-1.88-87.51-74.32-156.92-161.8-155.04h-.07c-87.47,1.88-156.86,74.35-154.98,161.85,1.88,87.51,73.61,123.67,161.08,121.79"/>
        <circle class="cls-3" cx="95.06" cy="80.15" r="59.43"/>
        <circle class="cls-3" cx="378.04" cy="74.06" r="59.43"/>
        <g>
          <circle class="cls-14" cx="146.38" cy="232.92" r="21.26"/>
          <path class="cls-10" d="M138.49,240.63c-.32,0-.64-.03-.97-.13-1.68-.5-2.64-2.26-2.14-3.94l2.82-9.53c.5-1.68,2.26-2.64,3.94-2.14,1.68.5,2.64,2.26,2.14,3.94l-2.82,9.53c-.4,1.36-1.63,2.24-2.97,2.27Z"/>
          <path class="cls-10" d="M150.51,242.31c-.32,0-.64-.03-.97-.13-1.68-.5-2.64-2.26-2.14-3.94l2.82-9.53c.5-1.68,2.26-2.64,3.94-2.14,1.68.5,2.64,2.26,2.14,3.94l-2.82,9.53c-.4,1.36-1.63,2.24-2.97,2.27Z"/>
        </g>
        <g>
          <circle class="cls-14" cx="333.53" cy="228.9" r="21.26"/>
          <path class="cls-10" d="M326.66,236.58c-.32,0-.64-.03-.97-.13-1.68-.5-2.64-2.26-2.14-3.94l2.82-9.53c.5-1.68,2.26-2.64,3.94-2.14,1.68.5,2.64,2.26,2.14,3.94l-2.82,9.53c-.4,1.36-1.63,2.24-2.97,2.27Z"/>
          <path class="cls-10" d="M338.68,238.26c-.32,0-.65-.03-.97-.13-1.68-.5-2.64-2.26-2.14-3.94l2.82-9.53c.5-1.68,2.26-2.64,3.94-2.14,1.68.5,2.64,2.26,2.14,3.94l-2.82,9.53c-.4,1.36-1.63,2.24-2.97,2.27Z"/>
        </g>
        <g id="_Mirror_Repeat_" data-name="&amp;lt;Mirror Repeat&amp;gt;">
          <path class="cls-8" d="M239.4,131.32c3.02,10.94,10.47,32.42,36.95,37.15,31.68,5.66,49.99-18.9,49.99-18.9,12.44,42.93,57.42,28.14,57.42,28.14,0,42.54-24.79,86.68-62.41,102.31,58.04-22.19,77.72-72.1,76.81-114.16-1.85-86.07-71.15-155.15-161.6-154.98h-.07c-90.37,3.73-156.64,75.72-154.79,161.79.91,42.07,22.71,91.08,81.65,110.75-38.26-14.01-66.24-58.49-66.24-99.55,0,0,45.58,12.84,56.16-30.59,0,0,19.34,23.74,50.75,16.73,26.25-5.86,32.77-27.64,35.32-38.7"/>
        </g>
        <path class="cls-7" d="M242.84,294.46c87.47-1.88,157.58-41.09,155.69-128.6-1.88-87.51-74.32-156.92-161.8-155.04h-.07c-87.47,1.88-156.86,74.35-154.98,161.85,1.88,87.51,73.61,123.67,161.08,121.79h.07Z"/>
        <path class="cls-1" d="M355.09,24.45c-6.55-1.89-13.2-.51-17.99,3.13.78-2.05,1.19-4.27,1.14-6.58-.22-10.17-9.18-18.23-20.01-17.99-10.83.23-19.44,8.67-19.22,18.84.1,4.48,1.89,8.55,4.8,11.69-.17.19-2.9-1.42-4.27-1.97-10.24-4.15-21.83.95-25.8,10.75-3.97,9.8,1.12,21.11,11.36,25.26,1.72.7,3.48,1.14,5.23,1.36-2.04,2.97-3.2,6.5-3.11,10.27.22,10.17,9.31,18.22,20.3,17.99,10.29-.22,18.61-7.64,19.44-16.93,2.43,4.73,6.91,8.57,12.66,10.24,10.56,3.05,21.41-2.4,24.23-12.17,2-6.93-.57-14.17-6-18.88,5.35-1.97,9.63-6.15,11.25-11.77,2.82-9.77-3.45-20.17-14.01-23.22Z"/>
        <ellipse class="cls-11" cx="322.4" cy="52.12" rx="15.81" ry="12.6" transform="translate(-1.05 6.95) rotate(-1.23)"/>
        <g>
          <g>
            <path d="M305.44,208.17c0,11.91-6.78,19.62-15.49,19.62s-16.04-7.7-16.04-19.62c0-.02,0-.03,0-.05,0-2.58,1.81-4.8,4.31-5.44l19.55-5c3.09-.79,6.29,1.08,6.98,4.19.44,1.99.68,4.11.68,6.29Z"/>
            <path d="M272.99,191.62l26.51-10.9c5.08-1.87,7.74,5.6,2.61,7.36,0,0-27.45,8.26-27.45,8.26-3.03.85-4.55-3.45-1.67-4.71h0Z"/>
          </g>
          <g>
            <path d="M176.84,208.17c0,11.91,6.78,19.62,15.49,19.62,8.7,0,16.04-7.7,16.04-19.62,0-.02,0-.03,0-.05,0-2.58-1.81-4.8-4.31-5.44l-19.55-5c-3.09-.79-6.29,1.08-6.98,4.19-.44,1.99-.68,4.11-.68,6.29Z"/>
            <path d="M207.53,197.09l-26.68-11.6c-4.08-1.94-1.29-7.93,2.83-6.03,0,0,25.97,13.11,25.97,13.11,2.83,1.51.85,5.74-2.12,4.53h0Z"/>
          </g>
          <g>
            <path class="cls-12" d="M273.15,278.19c-2.67,3.9-7.17,5.39-13.92,2.43-10.37-4.55-30-3.09-47.17,0-3.3.59-5.69-.24-7.34-2.05-5.28-5.79-2.93-21.62,2.04-33.13,3.4-7.85,8.02-13.69,12.28-12.99,11.38,1.87,28.88,2.38,38.53-.33,4.94-1.4,9.4,2.32,12.72,8.28h0c6.15,11.02,8.44,29.67,2.86,37.81Z"/>
            <path class="cls-2" d="M270.29,240.38h0c-1.92,4.86-3.19,9.41-5.48,9.87-2.02.41-5.82-8.23-7.8-8.02-1.98.21-6.29,7.43-8.38,7.43-2.07,0-7.5-8.06-9.28-8.06s-7,6.76-9.05,7.03c-2.05.28-4.74-7.87-7.28-7.88-2.52-.02-6.05,8.33-7.64,8.33-.74,0-5.88-4.43-7.38-6.33,3.21-7.85,9.88-11.02,13.9-10.32,10.75,1.87,27.26,2.38,36.38-.33,4.67-1.4,8.87,2.32,12.01,8.28Z"/>
            <path class="cls-2" d="M273.15,278.19c-2.67,3.9-7.17,5.39-13.92,2.43-10.37-4.55-30-3.09-47.17,0-3.3.59-5.69-.24-7.34-2.05,2.16-5.75,5.21-14.1,8.12-14.66,2.14-.41,5.87,7.39,7.96,7.19,2.09-.21,6.78-7.15,8.99-7.15s6.48,7.22,8.37,7.22,7.13-5.92,9.3-6.2c2.18-.28,6.65,7.59,9.33,7.6,2.68.02,7.14-7.31,8.81-7.31s6.92,7.95,7.55,12.93Z"/>
            <path class="cls-4" d="M273.15,278.19c-2.67,3.9-7.17,5.39-13.92,2.43-10.37-4.55-30-3.09-47.17,0-3.3.59-5.69-.24-7.34-2.05-5.28-5.79-2.93-21.62,2.04-33.13,3.4-7.85,8.02-13.69,12.28-12.99,11.38,1.87,28.88,2.38,38.53-.33,4.94-1.4,9.4,2.32,12.72,8.28h0c6.15,11.02,8.44,29.67,2.86,37.81Z"/>
          </g>
        </g>
      </g>
      <g>
        <path class="cls-13" d="M25.65,215.95c-3.01,0-6.2-.89-9.51-2.63-6.56-3.47-9.38-12.27-8.27-18.54.14-1.35.99-2.87,2.41-5.3.32-.55.75-1.29,1.06-1.86-.58-.79-1.45-1.58-2.41-2.46-2.27-2.05-5.09-4.61-5.69-8.98-1.54-11.16,4.88-20.05,15.96-22.11.1-.02.2-.03.29-.04,1-.08,1.91-.13,2.77-.13,6.17,0,9.6,2.34,12.96,5.87,3.56-2.79,7.3-5.53,12.42-5.53.85,0,1.72.08,2.6.23,5.09.88,9.41,3.57,12.16,7.58,2.68,3.9,3.62,8.73,2.66,13.6-1.31,6.61-5.5,9.62-9.63,12.45,2.7,5.86,9.63,16.27,12.93,20.41.84,1.05.88,2.54.08,3.63-.58.79-1.49,1.24-2.43,1.24-.35,0-.71-.06-1.05-.19-3.48-1.3-6.63-2.69-9.96-4.16l-.34-.15c-.89-.4-1.72-.78-2.52-1.14-3.84-1.75-6.79-3.11-10.62-4.17-3.58,8-9.15,12.37-15.88,12.37Z"/>
        <path d="M22.25,156.91c5.79,0,8.42,2.16,12.62,6.96l1.48-1.17c3.63-2.86,6.86-5.45,11.28-5.45.67,0,1.36.06,2.08.18,8.6,1.49,14.11,8.98,12.39,17.65-1.26,6.34-5.69,8.62-10.36,11.92,1.84,5.68,10.5,18.67,14.26,23.39-3.52-1.32-6.7-2.73-10.14-4.25-5.9-2.66-9.78-4.69-16.15-6.1-2.72,7.46-7.35,12.9-14.07,12.9-2.43,0-5.12-.71-8.1-2.28-5.09-2.69-7.73-10.06-6.7-15.5.02-1.45,4.1-7.03,3.76-7.84-1.72-4.1-7.62-5.9-8.4-11.55-1.34-9.69,4.11-16.99,13.54-18.75.9-.08,1.74-.12,2.51-.12M22.25,150.91c-.95,0-1.94.04-3.02.14-.2.02-.39.04-.59.08-12.77,2.37-20.16,12.61-18.38,25.47.75,5.45,4.3,8.67,6.65,10.8.23.21.48.43.73.66-1.57,2.7-2.53,4.44-2.75,6.33-1.26,7.45,2.04,17.45,9.85,21.58,3.74,1.98,7.41,2.98,10.91,2.98,7.27,0,13.33-4.12,17.44-11.74,2.6.88,4.95,1.96,7.81,3.27.81.37,1.64.75,2.52,1.15l.35.16c3.38,1.49,6.57,2.9,10.14,4.24.69.26,1.4.38,2.1.38,1.88,0,3.7-.89,4.86-2.48,1.58-2.18,1.52-5.16-.17-7.27-3.09-3.88-8.51-12.05-11.45-17.57,3.67-2.7,7.45-6.32,8.74-12.83,1.12-5.67.01-11.31-3.13-15.88-3.22-4.68-8.23-7.82-14.12-8.84-1.04-.18-2.09-.27-3.11-.27-5.03,0-8.86,2.15-12.18,4.57-3.3-2.95-7.13-4.91-13.21-4.91h0Z"/>
      </g>
      <g>
        <path class="cls-13" d="M446.93,266.37c-1.35,0-2.77-.15-4.48-.46-.16-.03-.31-.07-.46-.12-6.66-2.36-9.71-7.98-12.23-13.22-7.52,2.51-15.05,5.24-22.42,8.14-.36.14-.73.21-1.1.21-.9,0-1.77-.4-2.35-1.13-.82-1.03-.87-2.48-.13-3.56,3.09-4.51,6.25-9.11,9.63-13.5,1.59-2.06,2.85-3.79,3.72-5.95-.35-.27-.71-.54-1.04-.79-.42-.31-.81-.61-1.15-.88-6.07-4.79-8.66-11.97-6.76-18.73,1.86-6.63,7.7-11.31,15.24-12.22.57-.06,1.11-.09,1.63-.09,5.47,0,9.4,3.03,12.79,6.19,1.12-1.03,2.35-2.11,3.7-2.98,2.86-1.84,5.96-2.78,9.22-2.78,5.37,0,10.7,2.68,14.27,7.17,3.58,4.5,4.92,10.18,3.67,15.58-1.01,4.36-4.54,8.96-8.12,11.88,2.3,3.53,4.11,7.21,3.38,12.76-.57,4.32-3.29,8.53-7.27,11.25-3.27,2.24-6.28,3.24-9.74,3.24Z"/>
        <path d="M425.04,207.06c5.36,0,9.06,3.76,12.77,7.31,1.68-1.51,3.42-3.33,5.35-4.57,2.48-1.59,5.07-2.3,7.59-2.3,9.15,0,17.28,9.29,15.01,19.08-1.01,4.36-5.41,9.55-9.32,11.79,2.95,4.35,5.28,7.47,4.53,13.13-.48,3.68-2.95,7.09-5.99,9.17-2.84,1.94-5.26,2.71-8.05,2.71-1.22,0-2.51-.15-3.94-.41-6.44-2.28-8.92-8.37-11.67-14.06-8.45,2.76-16.81,5.77-25.08,9.02,3.1-4.52,6.18-9.02,9.53-13.36,2.21-2.87,3.87-5.24,4.83-8.76-.95-.94-2.71-2.17-3.81-3.04-10.82-8.54-6.92-23.94,6.98-25.62.43-.05.86-.07,1.27-.07M425.04,201.06h0c-.63,0-1.27.03-1.91.1-.03,0-.05,0-.08,0-8.76,1.06-15.57,6.57-17.76,14.39-2.23,7.95.75,16.35,7.79,21.9.08.06.16.13.24.19-.58.96-1.33,1.98-2.3,3.24-3.43,4.45-6.6,9.08-9.67,13.55l-.06.08c-1.49,2.17-1.39,5.07.25,7.13,1.16,1.46,2.91,2.26,4.7,2.26.74,0,1.48-.14,2.19-.42,6.51-2.56,13.16-4.99,19.8-7.25,2.55,4.9,6.07,10,12.75,12.37.3.11.61.19.93.25,1.89.35,3.49.51,5.02.51,4.05,0,7.68-1.19,11.44-3.76,4.67-3.19,7.87-8.18,8.55-13.33.71-5.36-.61-9.23-2.5-12.59,3.26-3.19,6.19-7.46,7.18-11.76,1.46-6.29-.09-12.9-4.24-18.12-4.13-5.2-10.34-8.3-16.62-8.3-3.78,0-7.53,1.13-10.84,3.25-.73.47-1.41.98-2.06,1.5-3.33-2.78-7.4-5.2-12.81-5.2h0Z"/>
      </g>
      <g>
        <path class="cls-13" d="M109.49,447.57c-5.06,0-7.54-3.14-9.93-6.19-.14-.17-.27-.34-.41-.52-.04.02-.09.05-.13.07-1.54.81-2.99,1.58-5.27,1.58-1.03,0-2.18-.15-3.62-.49-4.83-1.11-8.42-4.52-9.62-9.12-1.2-4.61.27-9.34,3.92-12.64,1.65-1.49,3.4-2.43,5.12-3.23-.1-.58-.21-1.14-.32-1.69-.96-4.88-2.04-10.41,7.75-14.23.26-.1.54-.17.83-.19.41-.04.82-.05,1.24-.05,2.97,0,5.94.89,8.14,2.45,3.72,2.62,4.85,6.07,5.54,9.33,5.05-.21,9.87-1.04,13.27-2.32.34-.13.7-.19,1.05-.19,1,0,1.97.5,2.53,1.39.76,1.19.58,2.76-.42,3.75l-1.27,1.26c-1.38,1.37-2.68,2.66-4.22,4.06-.57.52-1.19,1.07-1.83,1.63-1.27,1.13-2.66,2.35-3.83,3.54,1.76,2.5,3.31,5.26,3.36,9.24.08,5.82-1.94,9.2-6.96,11.67-.16.08-.33.15-.51.2-1.63.46-3.07.68-4.41.68Z"/>
        <path d="M99.04,403.88c2.23,0,4.63.64,6.41,1.9,3.62,2.56,4.05,6,4.81,9.93h.05c5.31,0,11.79-.71,16.74-2.56-1.87,1.84-3.46,3.46-5.41,5.25-2.34,2.14-5.55,4.76-7.49,7.18,2.24,3.06,4.17,5.45,4.22,9.49.06,4.52-1.21,6.93-5.29,8.94-1.39.39-2.57.57-3.6.57-4.57,0-6.12-3.52-9.54-7.45-3.02,1.35-3.96,2.4-6.2,2.4-.78,0-1.72-.13-2.95-.41-7.95-1.83-10.32-11.23-4.36-16.62,1.93-1.74,4.08-2.6,6.4-3.65-.82-7.41-4.11-11.29,5.23-14.92.32-.03.65-.04.98-.04M99.04,397.88h0c-.51,0-1.01.02-1.51.07-.57.05-1.12.18-1.65.39-11.72,4.56-10.71,11.93-9.72,17.05-1.25.69-2.52,1.54-3.76,2.66-4.44,4.01-6.28,10-4.82,15.62,1.46,5.62,6.01,9.95,11.86,11.29,1.67.38,3.04.56,4.29.56,1.86,0,3.32-.39,4.55-.9,2.41,2.93,5.56,5.95,11.19,5.95,1.62,0,3.33-.26,5.23-.79.35-.1.69-.23,1.02-.39,6.07-2.99,8.74-7.43,8.64-14.41-.05-3.64-1.12-6.4-2.49-8.74.65-.59,1.31-1.18,1.95-1.74.65-.58,1.28-1.14,1.86-1.67,1.59-1.45,2.91-2.76,4.31-4.15.41-.41.83-.82,1.26-1.24,2.02-1.99,2.37-5.12.85-7.5-1.13-1.77-3.06-2.77-5.06-2.77-.7,0-1.42.12-2.11.38-2.59.97-6.11,1.66-9.92,1.98-.91-3-2.53-6.11-6.11-8.64-2.7-1.9-6.3-3-9.87-3h0Z"/>
      </g>
      <g>
        <path class="cls-13" d="M356,453.76c-3.07,0-5.99-1.16-8.22-3.28-2.25-2.15-3.56-5.16-3.6-8.25-.07-4.52,2.6-7.48,5.03-9.85-2.65-4.2-4.65-6.58-8.16-10.78l-.82-.98c-.87-1.04-.93-2.52-.17-3.63.57-.83,1.5-1.29,2.47-1.29.33,0,.67.05.99.17,1.95.68,3.96,1.39,5.96,1.77.97.18,1.88.32,2.76.46,1.21.18,2.39.36,3.63.64,1.42-3.63,3.95-7.43,9.29-9.69.29-.12.6-.2.91-.23.32-.03.64-.04.95-.04,5.59,0,11.23,4.29,13.12,9.97,1.05,3.17.13,5.83-1.01,8.06,5.27,3.67,8.61,10.04,5.77,16.87-1.26,3.08-3.8,5.5-6.94,6.64-1.3.46-2.6.69-3.89.69-3.01,0-5.52-1.2-7.92-2.49-2.04,3.25-5.12,4.3-8.36,5.12-.16.04-.33.07-.5.08-.19.01-.68.04-.68.04-.2,0-.4.01-.59.01Z"/>
        <path d="M367.01,411.77c4.5,0,8.89,3.76,10.28,7.92,1.03,3.09-.78,5.6-2.18,8.24,5.6,2.62,9.61,8.37,7.02,14.58-.95,2.31-2.83,4.12-5.19,4.97-1.01.36-1.96.51-2.87.51-3.29,0-6.07-2-9.34-3.65-1.29,4.27-3.61,5.34-7.68,6.37-.2.02-.4.03-.6.04-.15,0-.3.01-.44.01-2.28,0-4.49-.87-6.16-2.45-1.67-1.6-2.63-3.81-2.67-6.12-.07-4.17,3.06-6.56,5.85-9.32-3.69-6.13-5.94-8.71-10.5-14.17,2.1.74,4.2,1.47,6.39,1.88,3.25.61,5.73.73,8.9,1.79,1.39-4.97,3.6-8.49,8.5-10.57.23-.02.46-.03.69-.03M367.01,405.77h0c-.4,0-.81.02-1.21.05-.63.05-1.24.21-1.82.45-5.17,2.19-8.1,5.65-9.87,9.07-.48-.08-.95-.15-1.42-.22-.9-.14-1.74-.27-2.66-.44-1.77-.34-3.68-1-5.52-1.65-.65-.23-1.32-.34-1.98-.34-1.93,0-3.79.93-4.93,2.58-1.54,2.22-1.4,5.19.33,7.27l.83.99c2.83,3.38,4.64,5.55,6.63,8.48-2.22,2.47-4.28,5.69-4.21,10.26.06,3.89,1.71,7.66,4.51,10.35,2.81,2.67,6.47,4.12,10.31,4.12.25,0,.49,0,.74-.02h.13c.21-.02.43-.03.64-.05.34-.03.67-.08.99-.16,2.9-.73,6.01-1.74,8.46-4.24,2.07.96,4.39,1.71,7.09,1.71,1.63,0,3.27-.29,4.88-.86,3.97-1.44,7.14-4.47,8.73-8.34,2.81-6.75.76-14.04-4.86-18.95.8-2.26,1.19-4.96.17-8.04-2.28-6.86-9.15-12.02-15.97-12.02h0Z"/>
      </g>
    </g>
  </g>
</svg>